<?xml version="1.0" encoding="UTF-8"?>
<svg width="514" height="514" version="1.1" viewBox="0 0 514 514" xmlns="http://www.w3.org/2000/svg" xmlns:cc="http://creativecommons.org/ns#" xmlns:dc="http://purl.org/dc/elements/1.1/" xmlns:rdf="http://www.w3.org/1999/02/22-rdf-syntax-ns#">
 <metadata>
  <rdf:RDF>
   <cc:Work rdf:about="">
    <dc:format>image/svg+xml</dc:format>
    <dc:type rdf:resource="http://purl.org/dc/dcmitype/StillImage"/>
    <dc:title/>
    <cc:license rdf:resource="http://creativecommons.org/licenses/by-nc-sa/4.0/"/>
    <dc:creator>
     <cc:Agent>
      <dc:title>Jan Alexander</dc:title>
     </cc:Agent>
    </dc:creator>
   </cc:Work>
   <cc:License rdf:about="http://creativecommons.org/licenses/by-nc-sa/4.0/">
    <cc:permits rdf:resource="http://creativecommons.org/ns#Reproduction"/>
    <cc:permits rdf:resource="http://creativecommons.org/ns#Distribution"/>
    <cc:requires rdf:resource="http://creativecommons.org/ns#Notice"/>
    <cc:requires rdf:resource="http://creativecommons.org/ns#Attribution"/>
    <cc:prohibits rdf:resource="http://creativecommons.org/ns#CommercialUse"/>
    <cc:permits rdf:resource="http://creativecommons.org/ns#DerivativeWorks"/>
    <cc:requires rdf:resource="http://creativecommons.org/ns#ShareAlike"/>
   </cc:License>
  </rdf:RDF>
 </metadata>
 <g>
  <rect x="49.24" y="98.487" width="434.12" height="318.79" fill="#239e6f" stroke="#0c5d4a" stroke-width="2"/>
  <g fill="#ccc" stroke="#666">
   <rect x="36.986" y="145.5" width="58.027" height="63.027"/>
   <rect x="36.504" y="240.5" width="58.993" height="63.993" stroke-width="1.007"/>
   <rect x="30.509" y="321.51" width="93.981" height="58.981" stroke-width="1.0188"/>
   <rect x="450.51" y="143.51" width="38.972" height="33.972" stroke-width="1.0285"/>
  </g>
  <g fill="#404040" stroke="#666">
   <rect x="121.5" y="138.5" width="54.997" height="76.997" stroke-width="1.0031"/>
   <rect x="121.49" y="227.49" width="55.019" height="77.019" stroke-width=".98083"/>
   <rect x="408.51" y="159.51" width="16.984" height="16.984" stroke-width="1.016"/>
   <rect x="434.5" y="248.5" width="12.997" height="12.997" stroke-width="1.0035"/>
  </g>
  <g fill="#fff" stroke="#666" stroke-width="1.9994">
   <circle cx="62.775" cy="401.88" r="7.5"/>
   <circle cx="65.556" cy="113.72" r="7.5"/>
   <circle cx="465.7" cy="112.71" r="7.5"/>
   <circle cx="469.57" cy="400.96" r="7.5"/>
  </g>
  <g fill="#e5e5e5" stroke="#666" stroke-width="1.9994">
   <circle cx="215.99" cy="109.56" r="11"/>
   <circle cx="390.9" cy="109.46" r="11"/>
   <circle cx="302.17" cy="399.74" r="11"/>
  </g>
  <g fill="#262626" stroke="#666">
   <rect x="438.12" y="179.25" width="5.0729" height="9.0729" stroke-width=".92708"/>
   <rect transform="rotate(90)" x="364.45" y="-141.55" width="5.1086" height="9.1086" stroke-width=".89143"/>
   <rect transform="matrix(.70645 .70776 -.70645 .70776 0 0)" x="233.96" y="-43.811" width="4.5009" height="8.0015" stroke-width=".82006"/>
  </g>
  <circle cx="445.5" cy="209.5" r="14" fill="#ccc" stroke="#666"/>
  <g fill="#f2f2f2" stroke="#dcaf64">
   <ellipse cx="395" cy="394" rx="3.0002" ry="3.0002" stroke-width="1.9995"/>
   <circle cx="384" cy="394" r="3" stroke-width="1.9994"/>
   <ellipse cx="372.5" cy="394" rx="3.0002" ry="3.0002" stroke-width="1.9995"/>
   <g stroke-width="1.9994">
    <circle cx="361" cy="394" r="3"/>
    <circle cx="349" cy="394" r="3"/>
    <circle cx="337" cy="394" r="3"/>
    <circle cx="325" cy="394" r="3"/>
   </g>
   <ellipse cx="395" cy="382" rx="3.0002" ry="3.0002" stroke-width="1.9995"/>
   <circle cx="384" cy="382" r="3" stroke-width="1.9994"/>
   <ellipse cx="372.5" cy="382" rx="3.0002" ry="3.0002" stroke-width="1.9995"/>
   <g stroke-width="1.9994">
    <circle cx="361" cy="382" r="3"/>
    <circle cx="349" cy="382" r="3"/>
    <circle cx="337" cy="382" r="3"/>
    <circle cx="325" cy="382" r="3"/>
   </g>
  </g>
  <g transform="translate(2)">
   <rect x="215.8" y="375.8" width="10.4" height="10.4" fill="#f5eacc" stroke="#f5eacc" stroke-width="1.5996"/>
   <circle cx="221" cy="381" r="3.5" fill="#f2af61" stroke="#cfbb91" stroke-width="1.9994"/>
  </g>
  <g transform="translate(203 -25)">
   <rect x="215.8" y="375.8" width="10.4" height="10.4" fill="#f5eacc" stroke="#f5eacc" stroke-width="1.5996"/>
   <circle cx="221" cy="381" r="3.5" fill="#f2af61" stroke="#cfbb91" stroke-width="1.9994"/>
  </g>
  <g fill="#78523d" stroke="#b9b0a1" stroke-width=".99443">
   <rect x="144.53" y="317.41" width="7.5056" height="15.006"/>
   <rect x="144.5" y="385.5" width="7.5056" height="15.006"/>
   <rect transform="rotate(90)" x="229.5" y="-447.5" width="7.5056" height="15.006"/>
   <rect transform="rotate(90)" x="266.5" y="-449.5" width="7.5056" height="15.006"/>
   <rect transform="rotate(90)" x="276.5" y="-449.5" width="7.5056" height="15.006"/>
   <rect transform="rotate(90)" x="286.5" y="-449.5" width="7.5056" height="15.006"/>
   <rect transform="rotate(90)" x="296.5" y="-449.5" width="7.5056" height="15.006"/>
  </g>
  <g fill="#262626" stroke="#666" stroke-width=".89143">
   <rect transform="rotate(90)" x="342.45" y="-144.05" width="5.1086" height="9.1086"/>
   <rect transform="scale(-1)" x="-197.55" y="-297.55" width="5.1086" height="9.1086"/>
   <rect transform="scale(-1)" x="-196.55" y="-277.55" width="5.1086" height="9.1086"/>
   <rect transform="scale(-1)" x="-196.55" y="-257.55" width="5.1086" height="9.1086"/>
   <rect transform="scale(-1)" x="-195.55" y="-231.55" width="5.1086" height="9.1086"/>
   <rect transform="scale(-1)" x="-197.55" y="-206.55" width="5.1086" height="9.1086"/>
   <rect transform="scale(-1)" x="-197.55" y="-188.55" width="5.1086" height="9.1086"/>
   <rect transform="scale(-1)" x="-196.55" y="-169.55" width="5.1086" height="9.1086"/>
  </g>
  <g stroke="#666">
   <path d="m472.5 254.5v14.026h8.2326v-3.3892h4.5737v-7.2186h-4.5737v-3.4181z" fill="#808080" stroke-width="1px"/>
   <path d="m472.5 281.5v14.026h8.2326v-3.3892h4.5737v-7.2186h-4.5737v-3.4181z" fill="#808080" stroke-width="1px"/>
   <rect x="398.5" y="249.5" width="32" height="32" fill="#ccc"/>
   <circle cx="414.5" cy="265.5" r="12" fill="#404040"/>
  </g>
 </g>
 <g>
  <rect x="229" y="151" width="145.99" height="214.99" fill="#239e6f" stroke="#0c5d4a" stroke-width="2.0055"/>
  <g fill="#f2f2f2" stroke="#dcaf64" stroke-width="1.9994">
   <circle cx="243" cy="150.1" r="2"/>
   <circle cx="261" cy="150.1" r="2"/>
   <circle cx="279" cy="150.1" r="2"/>
   <circle cx="297" cy="150.1" r="2"/>
   <circle cx="315" cy="150.1" r="2"/>
   <circle cx="333" cy="150.1" r="2"/>
   <circle cx="351" cy="150.1" r="2"/>
   <circle cx="360" cy="150.1" r="2"/>
   <circle cx="252" cy="150.1" r="2"/>
   <circle cx="270" cy="150.1" r="2"/>
   <circle cx="288" cy="150.1" r="2"/>
   <circle cx="306" cy="150.1" r="2"/>
   <circle cx="324" cy="150.1" r="2"/>
   <circle cx="342" cy="150.1" r="2"/>
  </g>
  <g fill="#f2f2f2" stroke="#dcaf64" stroke-width="1.9994">
   <circle cx="243.36" cy="366.51" r="2"/>
   <circle cx="261.36" cy="366.51" r="2"/>
   <circle cx="279.36" cy="366.51" r="2"/>
   <circle cx="315.36" cy="366.51" r="2"/>
   <circle cx="333.36" cy="366.51" r="2"/>
   <circle cx="351.36" cy="366.51" r="2"/>
   <circle cx="360.36" cy="366.51" r="2"/>
   <circle cx="252.36" cy="366.51" r="2"/>
   <circle cx="270.36" cy="366.51" r="2"/>
   <circle cx="306.36" cy="366.51" r="2"/>
   <circle cx="324.36" cy="366.51" r="2"/>
   <circle cx="342.36" cy="366.51" r="2"/>
  </g>
  <g fill="#f2f2f2" stroke="#dcaf64" stroke-width="1.9994">
   <circle transform="rotate(90)" cx="167" cy="-376" r="2"/>
   <circle transform="rotate(90)" cx="185" cy="-376" r="2"/>
   <circle transform="rotate(90)" cx="203" cy="-376" r="2"/>
   <circle transform="rotate(90)" cx="221" cy="-376" r="2"/>
   <circle transform="rotate(90)" cx="176" cy="-376" r="2"/>
   <circle transform="rotate(90)" cx="194" cy="-376" r="2"/>
   <circle transform="rotate(90)" cx="212" cy="-376" r="2"/>
   <circle transform="rotate(90)" cx="239" cy="-376" r="2"/>
   <circle transform="rotate(90)" cx="257" cy="-376" r="2"/>
   <circle transform="rotate(90)" cx="275" cy="-376" r="2"/>
   <circle transform="rotate(90)" cx="284" cy="-376" r="2"/>
   <circle transform="rotate(90)" cx="230" cy="-376" r="2"/>
   <circle transform="rotate(90)" cx="248" cy="-376" r="2"/>
   <circle transform="rotate(90)" cx="266" cy="-376" r="2"/>
   <circle transform="rotate(90)" cx="302" cy="-376" r="2"/>
   <circle transform="rotate(90)" cx="320" cy="-376" r="2"/>
   <circle transform="rotate(90)" cx="338" cy="-376" r="2"/>
   <circle transform="rotate(90)" cx="347" cy="-376" r="2"/>
   <circle transform="rotate(90)" cx="293" cy="-376" r="2"/>
   <circle transform="rotate(90)" cx="311" cy="-376" r="2"/>
   <circle transform="rotate(90)" cx="329" cy="-376" r="2"/>
  </g>
  <g transform="translate(-148)" fill="#f2f2f2" stroke="#dcaf64" stroke-width="1.9994">
   <circle transform="rotate(90)" cx="167" cy="-376" r="2"/>
   <circle transform="rotate(90)" cx="185" cy="-376" r="2"/>
   <circle transform="rotate(90)" cx="203" cy="-376" r="2"/>
   <circle transform="rotate(90)" cx="221" cy="-376" r="2"/>
   <circle transform="rotate(90)" cx="176" cy="-376" r="2"/>
   <circle transform="rotate(90)" cx="194" cy="-376" r="2"/>
   <circle transform="rotate(90)" cx="212" cy="-376" r="2"/>
   <circle transform="rotate(90)" cx="239" cy="-376" r="2"/>
   <circle transform="rotate(90)" cx="257" cy="-376" r="2"/>
   <circle transform="rotate(90)" cx="275" cy="-376" r="2"/>
   <circle transform="rotate(90)" cx="284" cy="-376" r="2"/>
   <circle transform="rotate(90)" cx="230" cy="-376" r="2"/>
   <circle transform="rotate(90)" cx="248" cy="-376" r="2"/>
   <circle transform="rotate(90)" cx="266" cy="-376" r="2"/>
   <circle transform="rotate(90)" cx="302" cy="-376" r="2"/>
   <circle transform="rotate(90)" cx="320" cy="-376" r="2"/>
   <circle transform="rotate(90)" cx="338" cy="-376" r="2"/>
   <circle transform="rotate(90)" cx="347" cy="-376" r="2"/>
   <circle transform="rotate(90)" cx="293" cy="-376" r="2"/>
   <circle transform="rotate(90)" cx="311" cy="-376" r="2"/>
   <circle transform="rotate(90)" cx="329" cy="-376" r="2"/>
  </g>
  <g transform="translate(121.72 -26.691)">
   <rect x="215.8" y="375.8" width="10.4" height="10.4" fill="#f5eacc" stroke="#f5eacc" stroke-width="1.5996"/>
   <circle cx="221" cy="381" r="3.5" fill="#f2af61" stroke="#cfbb91" stroke-width="1.9994"/>
  </g>
  <g transform="translate(74.765 -24.557)">
   <rect x="215.8" y="375.8" width="10.4" height="10.4" fill="#f5eacc" stroke="#f5eacc" stroke-width="1.5996"/>
   <circle cx="221" cy="381" r="3.5" fill="#f2af61" stroke="#cfbb91" stroke-width="1.9994"/>
  </g>
  <g fill="#404040" stroke="#666">
   <rect x="297.5" y="167.5" width="59.004" height="41.004" stroke-width=".99565"/>
   <g>
    <rect x="238.5" y="272.5" width="28" height="36"/>
    <rect x="248.5" y="190.5" width="40" height="40" ry="2.4393"/>
    <rect transform="rotate(-45)" x="9.4598" y="378.96" width="62" height="62" ry="2.4393"/>
   </g>
   <g stroke-width=".90909">
    <rect x="350.45" y="323.45" width="9.0909" height="9.0909" ry="0"/>
    <rect x="323.45" y="324.45" width="9.0909" height="9.0909" ry="0"/>
    <rect x="303.45" y="330.45" width="9.0909" height="9.0909" ry="0"/>
    <rect x="278.45" y="328.45" width="9.0909" height="9.0909" ry="0"/>
    <rect x="245.45" y="332.45" width="9.0909" height="9.0909" ry="0"/>
   </g>
   <rect x="268.5" y="292.5" width="10" height="14"/>
  </g>
  <g fill="#78523d" stroke="#b9b0a1" stroke-width=".75332">
   <rect x="280.88" y="295.88" width="5.7467" height="11.247"/>
   <rect x="258.38" y="327.38" width="5.7467" height="11.247"/>
   <rect transform="rotate(90)" x="244.38" y="-256.62" width="5.7467" height="11.247"/>
   <rect transform="rotate(90)" x="176.38" y="-285.12" width="5.7467" height="11.247"/>
  </g>
  <g fill="#262626" stroke="#b9b0a1" stroke-width=".80275">
   <rect transform="rotate(90)" x="322.4" y="-256.1" width="7.1972" height="10.197"/>
   <rect transform="scale(-1)" x="-245.6" y="-238.6" width="7.1972" height="10.197"/>
   <rect transform="scale(-1)" x="-295.6" y="-182.6" width="7.1972" height="10.197"/>
  </g>
  <rect x="274.45" y="164.45" width="9.0909" height="9.0909" ry="0" fill="#404040" stroke="#666" stroke-width=".90909"/>
  <rect x="357.5" y="232.5" width="7.5" height="9.5" fill="#ccc"/>
  <g fill="#fed96f">
   <path d="m277.52 348.87h4.9513v7.6265h-50.008v-115.61h4.7037v110.66l40.353 0.24756z"/>
   <path d="m316.88 344.11h17.082v4.7517h-17.082z"/>
   <path d="m365.9 332.23h5.4464v14.347h-5.4464z"/>
   <path d="m365.9 269.1h5.4464v43.819h-5.4464z"/>
   <path d="m237.17 226.52h-4.7037v-71.794h138.88v92.341h-5.4464v-87.143h-128.73z"/>
  </g>
 </g>
</svg>
