<?xml version="1.0" encoding="UTF-8"?>
<svg width="514" height="514" version="1.1" viewBox="0 0 514 514" xmlns="http://www.w3.org/2000/svg" xmlns:cc="http://creativecommons.org/ns#" xmlns:dc="http://purl.org/dc/elements/1.1/" xmlns:rdf="http://www.w3.org/1999/02/22-rdf-syntax-ns#">
 <metadata>
  <rdf:RDF>
   <cc:Work rdf:about="">
    <dc:format>image/svg+xml</dc:format>
    <dc:type rdf:resource="http://purl.org/dc/dcmitype/StillImage"/>
    <dc:title/>
    <cc:license rdf:resource="http://creativecommons.org/licenses/by-nc-sa/4.0/"/>
    <dc:creator>
     <cc:Agent>
      <dc:title>Jan Alexander</dc:title>
     </cc:Agent>
    </dc:creator>
   </cc:Work>
   <cc:License rdf:about="http://creativecommons.org/licenses/by-nc-sa/4.0/">
    <cc:permits rdf:resource="http://creativecommons.org/ns#Reproduction"/>
    <cc:permits rdf:resource="http://creativecommons.org/ns#Distribution"/>
    <cc:requires rdf:resource="http://creativecommons.org/ns#Notice"/>
    <cc:requires rdf:resource="http://creativecommons.org/ns#Attribution"/>
    <cc:prohibits rdf:resource="http://creativecommons.org/ns#CommercialUse"/>
    <cc:permits rdf:resource="http://creativecommons.org/ns#DerivativeWorks"/>
    <cc:requires rdf:resource="http://creativecommons.org/ns#ShareAlike"/>
   </cc:License>
  </rdf:RDF>
 </metadata>
 <g>
  <rect x="136.26" y="13.857" width="244.81" height="336.26" ry="30.485" fill="#f2f2f2" stroke="#666"/>
  <circle cx="145" cy="55" r="5" fill="#b2b2b2"/>
  <path d="m142 55h6" fill="none" stroke="#666" stroke-width="1px"/>
  <path d="m145 52v6" fill="none" stroke="#666" stroke-width="1px"/>
  <g transform="translate(113.5,-33)">
   <circle cx="145" cy="55" r="5" fill="#b2b2b2"/>
   <path d="m142 55h6" fill="none" stroke="#666" stroke-width="1px"/>
   <path d="m145 52v6" fill="none" stroke="#666" stroke-width="1px"/>
  </g>
  <g transform="translate(113.5,288)">
   <circle cx="145" cy="55" r="5" fill="#b2b2b2"/>
   <path d="m142 55h6" fill="none" stroke="#666" stroke-width="1px"/>
   <path d="m145 52v6" fill="none" stroke="#666" stroke-width="1px"/>
  </g>
  <g transform="translate(227)">
   <circle cx="145" cy="55" r="5" fill="#b2b2b2"/>
   <path d="m142 55h6" fill="none" stroke="#666" stroke-width="1px"/>
   <path d="m145 52v6" fill="none" stroke="#666" stroke-width="1px"/>
  </g>
  <g transform="translate(227,128)">
   <circle cx="145" cy="55" r="5" fill="#b2b2b2"/>
   <path d="m142 55h6" fill="none" stroke="#666" stroke-width="1px"/>
   <path d="m145 52v6" fill="none" stroke="#666" stroke-width="1px"/>
  </g>
  <g transform="translate(0,128)">
   <circle cx="145" cy="55" r="5" fill="#b2b2b2"/>
   <path d="m142 55h6" fill="none" stroke="#666" stroke-width="1px"/>
   <path d="m145 52v6" fill="none" stroke="#666" stroke-width="1px"/>
  </g>
  <g transform="translate(227,256)">
   <circle cx="145" cy="55" r="5" fill="#b2b2b2"/>
   <path d="m142 55h6" fill="none" stroke="#666" stroke-width="1px"/>
   <path d="m145 52v6" fill="none" stroke="#666" stroke-width="1px"/>
  </g>
  <g transform="translate(0,256)">
   <circle cx="145" cy="55" r="5" fill="#b2b2b2"/>
   <path d="m142 55h6" fill="none" stroke="#666" stroke-width="1px"/>
   <path d="m145 52v6" fill="none" stroke="#666" stroke-width="1px"/>
  </g>
  <g transform="translate(.22234)" stroke="#666" stroke-width="1px">
   <path transform="translate(-51.106 -94.491)" d="m244.29 450.23c10.566 6.9688 23.62 6.7978 32.55-1.5725v-4.0498h-32.55z" fill="#1a1a1a"/>
   <path d="m172.28 350.12v143.43c8.2625 3.6741 13.89 2.491 20.906-1.8524v-141.57z" fill="#f2f2f2"/>
  </g>
  <g transform="matrix(-1 0 0 1 514.23 3.5942e-6)" stroke="#666" stroke-width="1px">
   <path transform="translate(-51.106 -94.491)" d="m244.29 450.23c10.566 6.9688 23.62 6.7978 32.55-1.5725v-4.0498h-32.55z" fill="#1a1a1a"/>
   <path d="m172.28 350.12v143.43c8.2625 3.6741 13.89 2.491 20.906-1.8524v-141.57z" fill="#f2f2f2"/>
  </g>
  <g fill="none" stroke="#bfbfbf" stroke-width="1px">
   <path d="m165.03 17.974 93.467 18.606 92.807-17.952"/>
   <path d="m258.5 36.579v204"/>
   <path d="m351.31 18.627c-5.7815 38.306-13.466 76.3-20.656 114.36-5.9943 27.537-10.599 55.844-21.024 81.902-7.2309 17.673-14.317 35.119-23.092 51.919-5.5444 8.7485-11.672 17.896-20.47 23.507-4.3326 1.9439-10.055 3.7216-13.977 0.4326-8.9437-3.8687-15.376-12.152-19.079-21.112-11.418-23.539-19.874-48.329-28.798-72.873-8.9123-30.105-16.536-60.57-22.778-91.339-5.1595-25.447-11.581-50.679-14.801-76.474-0.5334-3.6576-1.0668-7.3151-1.6002-10.973"/>
   <path d="m159.93 15.848c3.7674 37.325 9.8441 72.379 17.698 109.05 5.2926 29.997 12.976 59.49 20.868 88.883 7.3489 20.329 13.461 41.124 21.377 61.23 6.1887 15.296 14.162 30.449 26.478 41.673 5.0042 2.4908 8.8723 7.6935 15.056 6.4788 14.098-2.6738 21.904-16.447 28.443-27.961 14.759-28.752 24.414-59.809 33.294-90.783 10.024-45.919 19.343-92.004 26.464-138.47 2.8809-17.265 4.4891-32.599 6.703-49.957"/>
  </g>
 </g>
</svg>
