<?xml version="1.0" encoding="UTF-8" standalone="no"?>
<!DOCTYPE svg PUBLIC "-//W3C//DTD SVG 1.1//EN" "http://www.w3.org/Graphics/SVG/1.1/DTD/svg11.dtd">
<svg width="100%" height="100%" viewBox="0 0 2000 2000" version="1.1" xmlns="http://www.w3.org/2000/svg" xmlns:xlink="http://www.w3.org/1999/xlink" xml:space="preserve" xmlns:serif="http://www.serif.com/" style="fill-rule:evenodd;clip-rule:evenodd;stroke-linecap:round;stroke-linejoin:round;stroke-miterlimit:1.5;">
    <g>
        <g transform="matrix(1.05556,0,0,1.23653,-63.1971,-361.12)">
            <path d="M1806.64,819.36C1787.03,564.062 1632.04,445.311 1343.39,435.231C1225.21,431.104 1107.59,425.526 1000.86,425.526C901.514,425.526 805.936,431.462 702.986,435.231C404.662,446.153 247.313,593.07 247.313,819.36C247.313,819.36 229.421,1201.31 238.786,1374.57C254.922,1673.06 456.391,1770.02 702.986,1786.19C801.782,1792.67 905.031,1790.49 1016.08,1791.32C1132.77,1792.18 1243.24,1785.79 1343.39,1783.77C1622.53,1778.12 1783.72,1644.6 1801.91,1374.57C1807.92,1285.38 1818.64,1190.38 1819.42,1098.28C1820.21,1005.75 1813.45,907.943 1806.64,819.36Z" style="fill:rgb(220,220,220);stroke:black;stroke-width:6.24px;"/>
        </g>
        <path d="M279.991,1502.47C261.878,1449.53 250.519,1387.64 247.191,1315.53C237.998,1116.3 255.561,677.086 255.561,677.086C255.561,609.326 266.035,547.755 286.703,493.509C398.534,476.964 486.902,387.976 502.509,275.85C559.731,252.514 626.603,238.639 702.858,235.369C803.916,231.034 897.736,224.209 995.253,224.209C1100.03,224.209 1215.49,230.623 1331.49,235.369C1415.36,238.8 1487.74,253.179 1548.6,279.352C1561.57,389.685 1644.81,478.643 1752.29,500.208C1770.51,551.225 1781.83,610.064 1786.23,677.086C1792.91,778.95 1799.55,891.416 1798.77,997.823C1798,1103.73 1787.48,1212.96 1781.58,1315.53C1777.25,1390.77 1764.69,1456.79 1744.23,1513.74C1634.45,1536.16 1550.14,1628.94 1540.56,1742.86C1481.06,1769.86 1411.17,1784.18 1331.49,1786.07C1233.18,1788.4 1124.74,1795.75 1010.19,1794.76C901.19,1793.8 799.838,1796.31 702.858,1788.86C628.932,1783.19 559.138,1768.84 497.413,1741.89C490.949,1619.8 398.763,1520.28 279.991,1502.47Z" style="fill:white;stroke:black;stroke-width:7.17px;"/>
        <g transform="matrix(1.21254,0,0,1.03166,-84.863,-31.523)">
            <ellipse cx="380.284" cy="384.498" rx="42.161" ry="49.54" style="fill:rgb(187,187,187);stroke:black;stroke-width:6.37px;"/>
        </g>
        <g transform="matrix(1.21254,0,0,1.03166,1201.8,-42.2452)">
            <ellipse cx="380.284" cy="384.498" rx="42.161" ry="49.54" style="fill:rgb(187,187,187);stroke:black;stroke-width:6.37px;"/>
        </g>
        <g transform="matrix(1.21254,0,0,1.03166,-87.0074,1261.58)">
            <ellipse cx="380.284" cy="384.498" rx="42.161" ry="49.54" style="fill:rgb(187,187,187);stroke:black;stroke-width:6.37px;"/>
        </g>
        <g transform="matrix(1.21254,0,0,1.03166,1199.66,1250.85)">
            <ellipse cx="380.284" cy="384.498" rx="42.161" ry="49.54" style="fill:rgb(187,187,187);stroke:black;stroke-width:6.37px;"/>
        </g>
    </g>
</svg>
