<?xml version="1.0" encoding="UTF-8" standalone="no"?>
<svg
   xmlns:dc="http://purl.org/dc/elements/1.1/"
   xmlns:cc="http://creativecommons.org/ns#"
   xmlns:rdf="http://www.w3.org/1999/02/22-rdf-syntax-ns#"
   xmlns:svg="http://www.w3.org/2000/svg"
   xmlns="http://www.w3.org/2000/svg"
   width="100%"
   height="100%"
   viewBox="0 0 1000 1000"
   version="1.1"
   id="svg146">
  <defs
     id="defs140" />
  <metadata
     id="metadata143">
    <rdf:RDF>
      <cc:Work
         rdf:about="">
        <dc:format>image/svg+xml</dc:format>
        <dc:type
           rdf:resource="http://purl.org/dc/dcmitype/StillImage" />
        <dc:title></dc:title>
        <dc:creator>
          <cc:Agent>
            <dc:title>Julian Labus</dc:title>
          </cc:Agent>
        </dc:creator>
        <cc:license
           rdf:resource="http://creativecommons.org/licenses/by-nc-sa/4.0/" />
      </cc:Work>
      <cc:License
         rdf:about="http://creativecommons.org/licenses/by-nc-sa/4.0/">
        <cc:permits
           rdf:resource="http://creativecommons.org/ns#Reproduction" />
        <cc:permits
           rdf:resource="http://creativecommons.org/ns#Distribution" />
        <cc:requires
           rdf:resource="http://creativecommons.org/ns#Notice" />
        <cc:requires
           rdf:resource="http://creativecommons.org/ns#Attribution" />
        <cc:prohibits
           rdf:resource="http://creativecommons.org/ns#CommercialUse" />
        <cc:permits
           rdf:resource="http://creativecommons.org/ns#DerivativeWorks" />
        <cc:requires
           rdf:resource="http://creativecommons.org/ns#ShareAlike" />
      </cc:License>
    </rdf:RDF>
  </metadata>
  <g
     transform="translate(-8.0938049,2.3750466)"
     id="g5558">
    <path
       style="opacity:1;fill:#f2f2f2;stroke:#666666;stroke-width:2;stroke-miterlimit:4;stroke-dasharray:none;stroke-opacity:1"
       d="m 453.08948,64.250062 c 31.58371,-3.853814 70.74196,1.655488 119.3876,3.745269 C 827.372,78.945432 914.92966,205.23828 931.64112,366.80941 944.98423,495.81449 938.68067,575.21284 927.40383,648.30467 895.48263,855.20481 764.19282,934.63634 572.47708,932.28824 520.51173,931.65178 475.99261,928.95226 437.9432,928.05095 303.02924,924.85513 126.51751,869.59802 92.02069,670.55044 85.846773,634.92677 74.28673,573.20739 77.619865,506.89174 85.456839,350.96823 77.191377,386.66012 79.624606,374.18702 128.095,125.72052 212.05963,93.660295 453.08948,64.250062 Z"
       id="rect3841" />
    <path
       style="fill:none;stroke:#666666;stroke-width:2;stroke-linecap:round;stroke-linejoin:round;stroke-miterlimit:4;stroke-dasharray:none;stroke-opacity:1"
       d="M 79.637226,376.14525 C 411.81234,603.65001 760.60538,692.64744 760.60538,692.64744"
       id="path4648-6" />
    <rect
       style="opacity:1;fill:#00ff00;stroke:#666666;stroke-width:0.50000453;stroke-linecap:round;stroke-linejoin:round;stroke-miterlimit:4;stroke-dasharray:none;stroke-opacity:1"
       id="rect4650"
       width="40.082012"
       height="7.4193072"
       x="341.77744"
       y="286.90448"
       transform="matrix(0.86524546,0.50134848,-0.49613897,0.86824312,0,0)"
       ry="3.7096536" />
    <rect
       style="opacity:1;fill:#00ff00;stroke:#666666;stroke-width:0.50000453;stroke-linecap:round;stroke-linejoin:round;stroke-miterlimit:4;stroke-dasharray:none;stroke-opacity:1"
       id="rect4650-3"
       width="23.88818"
       height="6.9197416"
       x="394.13934"
       y="296.71863"
       transform="matrix(0.87596539,0.48237395,-0.47710035,0.87884882,0,0)"
       ry="3.4598708"
       rx="0" />
  </g>
</svg>
