<?xml version="1.0" encoding="UTF-8" standalone="no"?>
<!DOCTYPE svg PUBLIC "-//W3C//DTD SVG 1.1//EN" "http://www.w3.org/Graphics/SVG/1.1/DTD/svg11.dtd">
<svg width="100%" height="100%" viewBox="0 0 2000 2000" version="1.1" xmlns="http://www.w3.org/2000/svg" xmlns:xlink="http://www.w3.org/1999/xlink" xml:space="preserve" xmlns:serif="http://www.serif.com/" style="fill-rule:evenodd;clip-rule:evenodd;stroke-linecap:round;stroke-linejoin:round;stroke-miterlimit:1.5;">
    <g transform="matrix(1.06124,0,0,1.06124,-72.9923,-101.997)">
        <g transform="matrix(0.995918,0,0,1,-0.158324,-85.9538)">
            <path d="M1548.97,1787.84C1548.97,1784.63 1546.35,1782.02 1543.12,1782.02L1471.25,1782.02C1468.02,1782.02 1465.4,1784.63 1465.4,1787.84L1465.4,1882.27C1465.4,1885.48 1468.02,1888.09 1471.25,1888.09C1471.25,1888.09 1494.48,1890.09 1506.13,1890.09C1518.1,1890.09 1543.12,1888.09 1543.12,1888.09C1546.35,1888.09 1548.97,1885.48 1548.97,1882.27L1548.97,1787.84Z" style="fill:rgb(247,247,247);stroke:black;stroke-width:3.6px;"/>
        </g>
        <g transform="matrix(6.30383e-17,-1.02949,1.28571,7.87273e-17,-403.001,2181.77)">
            <path d="M269.841,1028.85C263.598,1056.7 259.476,1089.87 259.476,1124.77C259.476,1155.71 262.717,1185.3 267.803,1211.01L404.04,1211.01L404.04,1028.85L269.841,1028.85Z" style="fill:rgb(247,247,247);"/>
            <clipPath id="_clip1">
                <path d="M269.841,1028.85C263.598,1056.7 259.476,1089.87 259.476,1124.77C259.476,1155.71 262.717,1185.3 267.803,1211.01L404.04,1211.01L404.04,1028.85L269.841,1028.85Z"/>
            </clipPath>
            <g clip-path="url(#_clip1)">
                <g transform="matrix(1,0,0,1,27,0)">
                    <path d="M278.499,986.372C236.143,986.372 201.755,1048.38 201.755,1124.77C201.755,1201.15 236.143,1263.16 278.499,1263.16C265.792,1230.87 255.476,1179.97 255.476,1124.77C255.476,1069.56 265.792,1018.66 278.499,986.372Z" style="stroke:black;stroke-width:3.08px;"/>
                </g>
            </g>
            <path d="M269.841,1028.85C263.598,1056.7 259.476,1089.87 259.476,1124.77C259.476,1155.71 262.717,1185.3 267.803,1211.01L404.04,1211.01L404.04,1028.85L269.841,1028.85Z" style="fill:none;stroke:black;stroke-width:3.08px;"/>
        </g>
        <path d="M269.841,1028.85C263.598,1056.7 259.476,1089.87 259.476,1124.77C259.476,1155.71 262.717,1185.3 267.803,1211.01L404.04,1211.01L404.04,1028.85L269.841,1028.85Z" style="fill:rgb(247,247,247);"/>
        <clipPath id="_clip2">
            <path d="M269.841,1028.85C263.598,1056.7 259.476,1089.87 259.476,1124.77C259.476,1155.71 262.717,1185.3 267.803,1211.01L404.04,1211.01L404.04,1028.85L269.841,1028.85Z"/>
        </clipPath>
        <g clip-path="url(#_clip2)">
            <g transform="matrix(1,0,0,1,27,0)">
                <path d="M278.499,986.372C236.143,986.372 201.755,1048.38 201.755,1124.77C201.755,1201.15 236.143,1263.16 278.499,1263.16C265.792,1230.87 255.476,1179.97 255.476,1124.77C255.476,1069.56 265.792,1018.66 278.499,986.372Z" style="fill:rgb(174,174,174);stroke:black;stroke-width:3.59px;"/>
            </g>
        </g>
        <path d="M269.841,1028.85C263.598,1056.7 259.476,1089.87 259.476,1124.77C259.476,1155.71 262.717,1185.3 267.803,1211.01L404.04,1211.01L404.04,1028.85L269.841,1028.85Z" style="fill:none;stroke:black;stroke-width:3.59px;"/>
        <g transform="matrix(6.12323e-17,-1,2.04784,1.25394e-16,-2790.7,2035.18)">
            <path d="M413.582,2204.23L403.602,1528.26C403.602,1528.26 396.327,1529 392.309,1531.49C359.785,1551.62 322.665,1553.57 303.821,1586.48C266.51,1651.62 240.159,1769.14 240.159,1863.98C240.159,1968.45 248.201,2072.16 297.437,2138.22C320.962,2169.78 371.463,2185.39 402.05,2202.16C405.863,2204.26 413.582,2204.23 413.582,2204.23Z" style="fill:rgb(174,174,174);stroke:black;stroke-width:2.23px;"/>
        </g>
        <g transform="matrix(1.02168,0,0,1.01564,-28.1288,-125.857)">
            <path d="M1648.91,547.969C1640.56,365.487 1570.45,293.56 1427.13,290.411C1427.13,290.411 1041.85,281.612 908.685,284.016C814.93,285.708 628.145,304.833 628.145,304.833C471.78,319.001 426.26,390.15 413.219,547.969C413.219,547.969 359.231,1618.91 350.442,1662.27C346.381,1682.3 333.332,1690.7 333.332,1690.7L324.012,1744.3C324.012,1744.3 525.746,1788.03 628.145,1799.38C746.258,1812.48 899.36,1823.59 1032.69,1822.89C1164.83,1822.2 1308.13,1810.38 1428.15,1795.22C1537.54,1781.4 1752.81,1731.94 1752.81,1731.94L1747.03,1687.41C1747.03,1687.41 1725.04,1679.1 1725.04,1649.53L1648.91,547.969Z" style="fill:rgb(247,247,247);stroke:black;stroke-width:3.53px;"/>
        </g>
    </g>
</svg>
