<?xml version="1.0" encoding="UTF-8" standalone="no"?>
<!DOCTYPE svg PUBLIC "-//W3C//DTD SVG 1.1//EN" "http://www.w3.org/Graphics/SVG/1.1/DTD/svg11.dtd">
<svg width="100%" height="100%" viewBox="0 0 2000 2000" version="1.1" xmlns="http://www.w3.org/2000/svg" xmlns:xlink="http://www.w3.org/1999/xlink" xml:space="preserve" xmlns:serif="http://www.serif.com/" style="fill-rule:evenodd;clip-rule:evenodd;stroke-linecap:round;stroke-linejoin:round;stroke-miterlimit:1.5;">
    <g transform="matrix(1,0,0,1,6.35172,14.9103)">
        <g transform="matrix(1.01375,0,0,0.99224,-23.9676,0.414112)">
            <path d="M1533.67,215.771C1533.67,126.138 1462.44,53.367 1374.71,53.367L632.91,53.367C545.178,53.367 473.952,126.138 473.952,215.771L473.952,1768.98C473.952,1858.61 545.178,1931.38 632.91,1931.38L1374.71,1931.38C1462.44,1931.38 1533.67,1858.61 1533.67,1768.98L1533.67,215.771Z" style="fill:rgb(227,227,227);stroke:black;stroke-width:10.04px;"/>
        </g>
        <g transform="matrix(1,0,0,0.974054,-3.29861,21.8278)">
            <ellipse cx="1451.5" cy="982.817" rx="25.24" ry="25.923" style="fill:none;"/>
            <clipPath id="_clip1">
                <ellipse cx="1451.5" cy="982.817" rx="25.24" ry="25.923"/>
            </clipPath>
            <g clip-path="url(#_clip1)">
                <g transform="matrix(1.23115,0,0,1.26395,-322.636,-273.866)">
                    <path d="M1439.09,982.881L1439.09,978.405L1442.99,978.405L1442.99,982.881L1439.09,982.881ZM1439.09,1010.1L1439.09,987.14L1442.99,987.14L1442.99,1010.1L1439.09,1010.1Z" style="fill:rgb(128,128,128);fill-rule:nonzero;"/>
                </g>
            </g>
            <ellipse cx="1451.5" cy="982.817" rx="25.24" ry="25.923" style="fill:none;stroke:rgb(128,128,128);stroke-width:3.14px;"/>
        </g>
        <g transform="matrix(1,0,0,0.974054,-3.29861,-132.343)">
            <ellipse cx="1451.5" cy="982.817" rx="25.24" ry="25.923" style="fill:none;stroke:rgb(128,128,128);stroke-width:3.14px;"/>
        </g>
        <g transform="matrix(-0.0445639,-0.100678,-0.134978,0.0597466,1492.65,822.645)">
            <path d="M265.219,161.578L158.766,356.344L129.375,300.375L22.922,401.906L131.203,214.453L160.875,263.109L265.219,161.578Z" style="fill:rgb(128,128,128);fill-rule:nonzero;"/>
        </g>
        <g transform="matrix(1.5404,-4.56412e-17,4.56412e-17,-1.91309,-148.64,2181.37)">
            <path d="M1018.51,680.789C1025.36,686.34 1028.17,686.327 1037.85,686.327C1047.53,686.327 1047.92,687.036 1054.77,681.484L1037.85,656.726L1018.51,680.789Z" style="fill:none;"/>
            <clipPath id="_clip2">
                <path d="M1018.51,680.789C1025.36,686.34 1028.17,686.327 1037.85,686.327C1047.53,686.327 1047.92,687.036 1054.77,681.484L1037.85,656.726L1018.51,680.789Z"/>
            </clipPath>
            <g clip-path="url(#_clip2)">
                <g transform="matrix(0.664549,-1.13321e-17,1.37454e-17,-0.693833,340.992,1121.69)">
                    <ellipse cx="1048.52" cy="686.516" rx="54.906" ry="45.266" style="fill:none;stroke:rgb(128,128,128);stroke-width:10.12px;"/>
                </g>
                <g transform="matrix(0.508326,-8.66814e-18,9.3507e-18,-0.471999,505.01,971.947)">
                    <ellipse cx="1048.52" cy="686.516" rx="54.906" ry="45.266" style="fill:none;stroke:rgb(128,128,128);stroke-width:14.19px;"/>
                </g>
                <g transform="matrix(0.320534,-5.46585e-18,5.49163e-18,-0.277203,701.912,839.499)">
                    <ellipse cx="1048.52" cy="686.516" rx="54.906" ry="45.266" style="fill:rgb(128,128,128);stroke:rgb(128,128,128);stroke-width:16.26px;"/>
                </g>
            </g>
        </g>
        <g transform="matrix(0.841621,0,0,0.78603,238.25,178.225)">
            <path d="M1510.42,811.38C1510.42,803.822 1504.68,797.685 1497.63,797.685C1490.57,797.685 1484.84,803.822 1484.84,811.38L1484.84,829.695C1484.84,837.254 1490.57,843.391 1497.63,843.391C1504.68,843.391 1510.42,837.254 1510.42,829.695L1510.42,811.38Z" style="fill:rgb(146,230,26);stroke:black;stroke-width:3.81px;"/>
        </g>
        <g transform="matrix(0.841621,0,0,0.78603,238.25,256.675)">
            <path d="M1510.42,811.38C1510.42,803.822 1504.68,797.685 1497.63,797.685C1490.57,797.685 1484.84,803.822 1484.84,811.38L1484.84,829.695C1484.84,837.254 1490.57,843.391 1497.63,843.391C1504.68,843.391 1510.42,837.254 1510.42,829.695L1510.42,811.38Z" style="fill:rgb(146,230,26);stroke:black;stroke-width:3.81px;"/>
        </g>
        <g transform="matrix(0.841621,0,0,0.78603,238.25,335.125)">
            <path d="M1510.42,811.38C1510.42,803.822 1504.68,797.685 1497.63,797.685C1490.57,797.685 1484.84,803.822 1484.84,811.38L1484.84,829.695C1484.84,837.254 1490.57,843.391 1497.63,843.391C1504.68,843.391 1510.42,837.254 1510.42,829.695L1510.42,811.38Z" style="fill:rgb(146,230,26);stroke:black;stroke-width:3.81px;"/>
        </g>
    </g>
</svg>
