<?xml version="1.0" encoding="UTF-8" standalone="no"?>
<svg
   width="100%"
   height="100%"
   viewBox="0 0 1280 1150"
   version="1.1"
   xml:space="preserve"
   style="fill-rule:evenodd;clip-rule:evenodd;stroke-linecap:round;stroke-linejoin:round;stroke-miterlimit:1.41421;"
   id="svg14317"
   sodipodi:docname="aruba-ap-105.svg"
   inkscape:version="1.2 (1:1.2.1+202207142221+cd75a1ee6d)"
   xmlns:inkscape="http://www.inkscape.org/namespaces/inkscape"
   xmlns:sodipodi="http://sodipodi.sourceforge.net/DTD/sodipodi-0.dtd"
   xmlns:xlink="http://www.w3.org/1999/xlink"
   xmlns="http://www.w3.org/2000/svg"
   xmlns:svg="http://www.w3.org/2000/svg"><defs
   id="defs14321"><linearGradient
     inkscape:collect="always"
     id="linearGradient5649"><stop
       style="stop-color:#b8b3a8;stop-opacity:1;"
       offset="0"
       id="stop5645" /><stop
       style="stop-color:#cdc5ba;stop-opacity:1;"
       offset="1"
       id="stop5647" /></linearGradient><linearGradient
     inkscape:collect="always"
     id="linearGradient2420"><stop
       style="stop-color:#cdc5ba;stop-opacity:1;"
       offset="0"
       id="stop2416" /><stop
       style="stop-color:#b5b1a5;stop-opacity:1;"
       offset="1"
       id="stop2418" /></linearGradient><linearGradient
     inkscape:collect="always"
     id="linearGradient21087"><stop
       style="stop-color:#cdc5ba;stop-opacity:1;"
       offset="0"
       id="stop21083" /><stop
       style="stop-color:#776f61;stop-opacity:1;"
       offset="0.5"
       id="stop21091" /></linearGradient><linearGradient
     inkscape:collect="always"
     id="linearGradient4121"><stop
       style="stop-color:#cdc5ba;stop-opacity:1;"
       offset="0"
       id="stop4117" /><stop
       style="stop-color:#f3f3eb;stop-opacity:1;"
       offset="1"
       id="stop4119" /></linearGradient><linearGradient
     inkscape:collect="always"
     xlink:href="#linearGradient4121"
     id="linearGradient4123"
     x1="668.19257"
     y1="302.87421"
     x2="663.34222"
     y2="59.700108"
     gradientUnits="userSpaceOnUse"
     gradientTransform="matrix(1.0625689,0,0,1.0625689,-40.804431,-37.39141)" /><linearGradient
     inkscape:collect="always"
     xlink:href="#linearGradient21087"
     id="linearGradient21089"
     x1="678.35376"
     y1="693.82318"
     x2="684.38135"
     y2="1517.345"
     gradientUnits="userSpaceOnUse"
     gradientTransform="matrix(1.0625689,0,0,1.0625689,-38.594089,-4.3304944)" /><linearGradient
     inkscape:collect="always"
     xlink:href="#linearGradient2420"
     id="linearGradient2422"
     x1="764.97666"
     y1="581.81471"
     x2="1185.316"
     y2="581.81471"
     gradientUnits="userSpaceOnUse" /><linearGradient
     inkscape:collect="always"
     xlink:href="#linearGradient5649"
     id="linearGradient5651"
     x1="94.684045"
     y1="577.78166"
     x2="539.94315"
     y2="577.78166"
     gradientUnits="userSpaceOnUse" /></defs><sodipodi:namedview
   id="namedview14319"
   pagecolor="#ffffff"
   bordercolor="#666666"
   borderopacity="1.0"
   inkscape:showpageshadow="2"
   inkscape:pageopacity="0.0"
   inkscape:pagecheckerboard="0"
   inkscape:deskcolor="#d1d1d1"
   showgrid="false"
   inkscape:zoom="1.1608849"
   inkscape:cx="556.04135"
   inkscape:cy="425.53745"
   inkscape:window-width="1920"
   inkscape:window-height="1052"
   inkscape:window-x="0"
   inkscape:window-y="0"
   inkscape:window-maximized="1"
   inkscape:current-layer="svg14317"
   showguides="false" />
    
<path
   style="fill:url(#linearGradient5651);fill-opacity:1;stroke:none;stroke-width:1.06257px;stroke-linecap:butt;stroke-linejoin:miter;stroke-opacity:1"
   d="M 107.01154,141.16233 C 260.67405,223.34945 394.48056,331.37083 537.6975,536.67573 574.71542,785.66026 142.32309,1007.0123 106.47643,1014.401 100.42287,1009.4964 95.09154,1003.6099 94.684045,991.02942 190.34287,525.64598 124.84538,259.81766 107.01154,141.16233 Z"
   id="path15570"
   sodipodi:nodetypes="ccccc" /><path
   style="fill:url(#linearGradient2422);fill-opacity:1;stroke:none;stroke-width:1.06257px;stroke-linecap:butt;stroke-linejoin:miter;stroke-opacity:1"
   d="M 1183.9576,150.18491 C 1033.093,253.09171 806.21245,432.57644 765.05356,536.0099 c -5.1253,184.46344 247.10444,437.79616 405.04624,477.4346 2.0304,-2.4826 2.5587,-7.2432 2.0098,-10.339 -49.6322,-279.91881 -43.9465,-620.98432 12.5029,-833.38801 1.5955,-6.0033 0.08,-15.10515 -0.6549,-19.53258 z"
   id="path13981"
   sodipodi:nodetypes="cccssc" /><path
   style="fill:url(#linearGradient4123);fill-opacity:1;stroke:none;stroke-width:1.06257px;stroke-linecap:butt;stroke-linejoin:miter;stroke-opacity:1"
   d="m 107.01154,141.16233 c 174.10691,111.35053 307.5871,254.82556 432.55063,400.53008 l 226.57378,1.06762 c 39.88655,-84.37682 412.08955,-388.6072 417.82165,-392.57512 -3.0579,-7.3833 -4.3804,-12.27283 -13.2477,-16.89394 C 915.58484,0.33494727 420.19098,-15.293624 126.06702,119.7792 c -3.70008,1.69922 -19.32717,15.63241 -19.05548,21.38313 z"
   id="path1024"
   sodipodi:nodetypes="ccccssc" /><path
   style="fill:#827765;fill-opacity:1;stroke:none;stroke-width:1.06257px;stroke-linecap:butt;stroke-linejoin:miter;stroke-opacity:1"
   d="m 474.62096,338.83424 c -15.79965,14.06335 0.0489,22.10803 10.75649,14.25742 113.55961,-72.04898 222.62657,-66.45843 327.98672,3.19648 13.71074,9.95849 28.94535,-1.4193 11.44951,-14.81674 -117.82505,-77.01957 -234.50287,-74.20292 -350.19272,-2.63716 z"
   id="path12023"
   sodipodi:nodetypes="ccccc" /><path
   style="fill:#827765;fill-opacity:1;stroke:none;stroke-width:1.06257px;stroke-linecap:butt;stroke-linejoin:miter;stroke-opacity:1"
   d="m 545.32918,425.26947 c -17.12202,12.96369 -1.61287,21.76683 9.3317,12.65857 49.10003,-22.34425 96.76145,-47.10374 188.92624,2.85509 10.58541,8.19331 25.01914,-0.84231 9.60944,-13.44022 -76.37129,-44.84208 -144.64187,-39.18361 -207.86738,-2.07344 z"
   id="path22243"
   sodipodi:nodetypes="ccccc" /><path
   style="fill:#827765;fill-opacity:1;stroke:none;stroke-width:1.06257px;stroke-linecap:butt;stroke-linejoin:miter;stroke-opacity:1"
   d="m 577.68122,470.7942 c -12.66614,6.00327 -6.66634,20.96558 8.14725,13.41209 40.96192,-25.84253 81.95774,-22.13228 122.97545,0.59573 19.37201,9.54081 21.31057,-7.32712 8.88531,-13.98805 -48.63463,-25.9428 -95.28236,-25.66454 -140.00801,-0.0198 z"
   id="path27351"
   sodipodi:nodetypes="ccccc" /><path
   style="fill:url(#linearGradient21089);fill-opacity:1;stroke:none;stroke-width:1.06257px;stroke-linecap:butt;stroke-linejoin:miter;stroke-opacity:1"
   d="m 1159.0134,1024.991 c 7.6131,-6.2408 11.0864,-11.5465 11.0864,-11.5465 C 1098.9937,984.98787 768.44474,764.98822 765.05356,536.0099 l -227.35606,0.66583 c -7.45392,190.23331 -220.43619,333.72944 -431.22107,477.72527 217.21523,115.5107 671.74951,170.1619 1052.53697,10.59 z"
   id="path8265"
   sodipodi:nodetypes="cscccc" /><g
   id="g11987"
   transform="matrix(1.2906152,0,0,1.2906152,-159.36596,-271.00711)"><path
     style="fill:#97907e;fill-opacity:1;stroke:none;stroke-width:1px;stroke-linecap:butt;stroke-linejoin:miter;stroke-opacity:1"
     d="m 550.37267,973.53396 -20.8741,73.02974 c -1.71881,19.3521 17.87803,18.422 23.08367,7.1658 l 17.48779,-73.10863 c 0.43387,-14.9852 -17.8455,-15.98316 -19.69736,-7.08691 z"
     id="path3108"
     sodipodi:nodetypes="ccccc" /><path
     style="fill:#3d3833;fill-opacity:1;stroke:none;stroke-width:1px;stroke-linecap:butt;stroke-linejoin:miter;stroke-opacity:1"
     d="m 553.54788,977.07564 -19.15518,72.84496 c -1.20789,6.1946 11.43607,8.7859 13.35146,4.5117 l 17.17034,-72.87426 c 1.54559,-7.89181 -9.43683,-10.72712 -11.36662,-4.4824 z"
     id="path3208"
     sodipodi:nodetypes="ccccc" /></g><g
   id="g11993"
   transform="matrix(-1.2414221,-0.06082662,-0.06082662,1.2414221,1478.4378,-184.88285)"><path
     style="fill:#97907e;fill-opacity:1;stroke:none;stroke-width:1px;stroke-linecap:butt;stroke-linejoin:miter;stroke-opacity:1"
     d="m 550.37267,973.53396 -20.8741,73.02974 c -1.71881,19.3521 17.87803,18.422 23.08367,7.1658 l 17.48779,-73.10863 c 0.43387,-14.9852 -17.8455,-15.98316 -19.69736,-7.08691 z"
     id="path11989"
     sodipodi:nodetypes="ccccc" /><path
     style="fill:#3d3833;fill-opacity:1;stroke:none;stroke-width:1px;stroke-linecap:butt;stroke-linejoin:miter;stroke-opacity:1"
     d="m 553.54788,977.07564 -19.15518,72.84496 c -1.20789,6.1946 11.43607,8.7859 13.35146,4.5117 l 17.17034,-72.87426 c 1.54559,-7.89181 -9.43683,-10.72712 -11.36662,-4.4824 z"
     id="path11991"
     sodipodi:nodetypes="ccccc" /></g><g
   id="g12005"
   transform="matrix(1.2860709,-0.17552921,0.17552921,1.2860709,-273.78818,-165.38731)"><path
     style="fill:#97907e;fill-opacity:1;stroke:none;stroke-width:1px;stroke-linecap:butt;stroke-linejoin:miter;stroke-opacity:1"
     d="m 550.37267,973.53396 -20.8741,73.02974 c -1.71881,19.3521 17.87803,18.422 23.08367,7.1658 l 17.48779,-73.10863 c 0.43387,-14.9852 -17.8455,-15.98316 -19.69736,-7.08691 z"
     id="path12001"
     sodipodi:nodetypes="ccccc" /><path
     style="fill:#3d3833;fill-opacity:1;stroke:none;stroke-width:1px;stroke-linecap:butt;stroke-linejoin:miter;stroke-opacity:1"
     d="m 553.54788,977.07564 -19.15518,72.84496 c -1.20789,6.1946 11.43607,8.7859 13.35146,4.5117 l 17.17034,-72.87426 c 1.54559,-7.89181 -9.43683,-10.72712 -11.36662,-4.4824 z"
     id="path12003"
     sodipodi:nodetypes="ccccc" /></g><g
   id="g29879"
   transform="matrix(1.0625689,0,0,1.0625689,-38.594089,-4.3304944)"><path
     style="fill:#827765;fill-opacity:1;stroke:none;stroke-width:1px;stroke-linecap:butt;stroke-linejoin:miter;stroke-opacity:1"
     d="m 517.35481,363.0505 c -12.2775,7.10213 -5.2158,21.70774 8.0814,12.21451 80.5946,-49.00475 161.6543,-44.37167 243.07482,2.73248 16.56828,11.45451 24.49668,-6.22105 7.4068,-14.39074 -85.71172,-49.09628 -171.85062,-54.29837 -258.56302,-0.55625 z"
     id="path18308"
     sodipodi:nodetypes="ccccc" /><g
     id="g28201"
     transform="translate(-2.0801873,-31.114138)"><path
       style="fill:#827765;fill-opacity:1;stroke:none;stroke-width:1px;stroke-linecap:butt;stroke-linejoin:miter;stroke-opacity:1"
       d="m 485.07475,827.11841 c -14.86934,-13.23524 0.0462,-20.80621 10.12314,-13.41788 106.87261,67.80641 209.5173,62.54506 308.67332,-3.00826 12.90339,-9.37208 27.24092,1.33573 10.77531,13.94427 -110.88697,72.4843 -220.69424,69.83351 -329.57177,2.48187 z"
       id="path28181"
       sodipodi:nodetypes="ccccc" /><path
       style="fill:#827765;fill-opacity:1;stroke:none;stroke-width:1px;stroke-linecap:butt;stroke-linejoin:miter;stroke-opacity:1"
       d="m 519.4349,787.02554 c -12.27745,-7.10213 -5.21571,-21.70774 8.08149,-12.21451 80.59457,49.00475 161.65426,44.37167 243.07478,-2.73248 16.56828,-11.45451 24.49668,6.22105 7.4068,14.39074 -85.71177,49.09628 -171.85064,54.29837 -258.56307,0.55625 z"
       id="path28183"
       sodipodi:nodetypes="ccccc" /><path
       style="fill:#827765;fill-opacity:1;stroke:none;stroke-width:1px;stroke-linecap:butt;stroke-linejoin:miter;stroke-opacity:1"
       d="m 551.61939,745.77288 c -16.11383,-12.20033 -1.51797,-20.4851 8.78218,-11.91318 46.20877,21.02852 91.06369,44.33006 177.80134,-2.68697 9.96215,-7.71085 23.54594,0.79272 9.04367,12.6488 -71.87426,42.20158 -136.12476,36.8763 -195.62719,1.95135 z"
       id="path28185"
       sodipodi:nodetypes="ccccc" /><path
       style="fill:#827765;fill-opacity:1;stroke:none;stroke-width:1px;stroke-linecap:butt;stroke-linejoin:miter;stroke-opacity:1"
       d="m 582.06636,702.92885 c -11.9203,-5.64977 -6.27385,-19.73103 7.66753,-12.62232 38.54987,24.3208 77.1317,20.82903 115.73411,-0.56065 18.23123,-8.97901 20.05563,6.89566 8.36201,13.16437 -45.77077,24.41517 -89.67168,24.15329 -131.76365,0.0186 z"
       id="path28187"
       sodipodi:nodetypes="ccccc" /><path
       style="fill:#827765;fill-opacity:1;stroke:none;stroke-width:1px;stroke-linecap:butt;stroke-linejoin:miter;stroke-opacity:1"
       d="m 582.06636,702.92885 c -11.9203,-5.64977 -6.27385,-19.73103 7.66753,-12.62232 38.54987,24.3208 77.1317,20.82903 115.73411,-0.56065 18.23123,-8.97901 20.05563,6.89566 8.36201,13.16437 -45.77077,24.41517 -89.67168,24.15329 -131.76365,0.0186 z"
       id="path8267"
       sodipodi:nodetypes="ccccc" /></g><g
     id="g8293"
     transform="translate(-2.0801873,-31.114138)"><path
       style="fill:#827765;fill-opacity:1;stroke:none;stroke-width:1px;stroke-linecap:butt;stroke-linejoin:miter;stroke-opacity:1"
       d="m 371.40579,389.42137 c 8.70258,-10.67029 14.59108,2.09116 11.44613,5.61587 -85.45962,117.70509 -81.65773,262.79909 -5.54213,383.14514 5.15717,10.87778 -6.92742,14.66394 -11.28612,6.44958 -83.40444,-122.50948 -79.09639,-283.70095 5.38212,-395.21059 z"
       id="path8269"
       sodipodi:nodetypes="ccccc" /><path
       style="fill:#827765;fill-opacity:1;stroke:none;stroke-width:1px;stroke-linecap:butt;stroke-linejoin:miter;stroke-opacity:1"
       d="m 410.14791,426.34849 c 7.65851,-8.7611 15.38271,2.61863 9.52656,9.14981 -66.30933,94.87772 -53.22953,227.40202 -6.1498,299.79834 11.45451,16.56828 -3.5269,24.20746 -11.69659,7.11758 -65.98359,-100.90821 -49.57935,-246.13509 8.31983,-316.06573 z"
       id="path8271"
       sodipodi:nodetypes="ccccc" /><path
       style="fill:#827765;fill-opacity:1;stroke:none;stroke-width:1px;stroke-linecap:butt;stroke-linejoin:miter;stroke-opacity:1"
       d="m 446.40116,466.04217 c 7.42828,-7.38843 16.87837,2.73206 9.55482,11.39244 -20.50174,32.1605 -55.41677,111.37429 -4.78813,217.42854 8.31163,11.58126 -1.61525,22.63775 -11.30407,6.88491 -47.81421,-96.68884 -27.53155,-183.537 6.53738,-235.70589 z"
       id="path8273"
       sodipodi:nodetypes="ccccc" /><path
       style="fill:#827765;fill-opacity:1;stroke:none;stroke-width:1px;stroke-linecap:butt;stroke-linejoin:miter;stroke-opacity:1"
       d="m 474.10439,529.2647 c 5.64977,-11.9203 19.59933,-7.64606 12.49062,6.29532 -11.06595,32.70624 -13.33898,59.90527 -1.53652,102.83557 4.89273,14.48615 -9.48728,17.10659 -13.1353,3.63439 -9.10825,-34.74223 -12.16747,-60.25243 2.1812,-112.76528 z"
       id="path8277"
       sodipodi:nodetypes="ccccc" /><path
       style="fill:#827765;fill-opacity:1;stroke:none;stroke-width:1px;stroke-linecap:butt;stroke-linejoin:miter;stroke-opacity:1"
       d="m 333.8707,351.65425 c 7.12673,-7.66249 14.49272,3.7851 10.38274,7.98142 -117.14156,155.90808 -83.56527,346.30499 -9.53145,451.55666 7.60221,11.39771 -5.29698,15.43157 -9.65568,7.21721 -83.58529,-111.7523 -109.5639,-319.02238 8.80439,-466.75529 z"
       id="path8286"
       sodipodi:nodetypes="ccccc" /></g><g
     id="g8305"
     transform="matrix(-0.99965554,-0.02624503,-0.02624503,0.99965554,1306.5697,-15.40183)"><path
       style="fill:#827765;fill-opacity:1;stroke:none;stroke-width:1px;stroke-linecap:butt;stroke-linejoin:miter;stroke-opacity:1"
       d="m 371.40579,389.42137 c 8.70258,-10.67029 14.59108,2.09116 11.44613,5.61587 -85.45962,117.70509 -81.65773,262.79909 -5.54213,383.14514 5.15717,10.87778 -6.92742,14.66394 -11.28612,6.44958 -83.40444,-122.50948 -79.09639,-283.70095 5.38212,-395.21059 z"
       id="path8295"
       sodipodi:nodetypes="ccccc" /><path
       style="fill:#827765;fill-opacity:1;stroke:none;stroke-width:1px;stroke-linecap:butt;stroke-linejoin:miter;stroke-opacity:1"
       d="m 410.14791,426.34849 c 7.65851,-8.7611 15.38271,2.61863 9.52656,9.14981 -66.30933,94.87772 -53.22953,227.40202 -6.1498,299.79834 11.45451,16.56828 -3.5269,24.20746 -11.69659,7.11758 -65.98359,-100.90821 -49.57935,-246.13509 8.31983,-316.06573 z"
       id="path8297"
       sodipodi:nodetypes="ccccc" /><path
       style="fill:#827765;fill-opacity:1;stroke:none;stroke-width:1px;stroke-linecap:butt;stroke-linejoin:miter;stroke-opacity:1"
       d="m 446.40116,466.04217 c 7.42828,-7.38843 16.87837,2.73206 9.55482,11.39244 -20.50174,32.1605 -55.41677,111.37429 -4.78813,217.42854 8.31163,11.58126 -1.61525,22.63775 -11.30407,6.88491 -47.81421,-96.68884 -27.53155,-183.537 6.53738,-235.70589 z"
       id="path8299"
       sodipodi:nodetypes="ccccc" /><path
       style="fill:#827765;fill-opacity:1;stroke:none;stroke-width:1px;stroke-linecap:butt;stroke-linejoin:miter;stroke-opacity:1"
       d="m 474.10439,529.2647 c 5.64977,-11.9203 19.59933,-7.64606 12.49062,6.29532 -11.06595,32.70624 -13.33898,59.90527 -1.53652,102.83557 4.89273,14.48615 -9.48728,17.10659 -13.1353,3.63439 -9.10825,-34.74223 -12.16747,-60.25243 2.1812,-112.76528 z"
       id="path8301"
       sodipodi:nodetypes="ccccc" /><path
       style="fill:#827765;fill-opacity:1;stroke:none;stroke-width:1px;stroke-linecap:butt;stroke-linejoin:miter;stroke-opacity:1"
       d="m 333.8707,351.65425 c 7.12673,-7.66249 14.49272,3.7851 10.38274,7.98142 -117.14156,155.90808 -83.56527,346.30499 -9.53145,451.55666 7.60221,11.39771 -5.29698,15.43157 -9.65568,7.21721 -83.58529,-111.7523 -109.5639,-319.02238 8.80439,-466.75529 z"
       id="path8303"
       sodipodi:nodetypes="ccccc" /></g><ellipse
     style="fill:#858481;fill-opacity:1;stroke-width:2.37669;stroke-linecap:round;stroke-linejoin:round"
     id="path1078"
     cx="646.30774"
     cy="554.92426"
     rx="79.696327"
     ry="80.016449" /><g
     id="g11999"
     transform="matrix(-1.1573134,-0.25453834,-0.25453834,1.1573134,1566.0293,-47.770072)"><path
       style="fill:#97907e;fill-opacity:1;stroke:none;stroke-width:1px;stroke-linecap:butt;stroke-linejoin:miter;stroke-opacity:1"
       d="m 550.37267,973.53396 -20.8741,73.02974 c -1.71881,19.3521 17.87803,18.422 23.08367,7.1658 l 17.48779,-73.10863 c 0.43387,-14.9852 -17.8455,-15.98316 -19.69736,-7.08691 z"
       id="path11995"
       sodipodi:nodetypes="ccccc" /><path
       style="fill:#3d3833;fill-opacity:1;stroke:none;stroke-width:1px;stroke-linecap:butt;stroke-linejoin:miter;stroke-opacity:1"
       d="m 553.54788,977.07564 -19.15518,72.84496 c -1.20789,6.1946 11.43607,8.7859 13.35146,4.5117 l 17.17034,-72.87426 c 1.54559,-7.89181 -9.43683,-10.72712 -11.36662,-4.4824 z"
       id="path11997"
       sodipodi:nodetypes="ccccc" /></g></g><text
   xml:space="preserve"
   style="font-style:normal;font-variant:normal;font-weight:normal;font-stretch:normal;font-size:17.7906px;line-height:1.25;font-family:Arial;-inkscape-font-specification:Arial;letter-spacing:0px;word-spacing:-5.9932px;writing-mode:lr-tb;fill:#3d3833;fill-opacity:1;stroke:none;stroke-width:1.11191"
   x="535.63538"
   y="969.65601"
   id="text7619"><tspan
     sodipodi:role="line"
     id="tspan7617"
     x="535.63538"
     y="969.65601"
     style="font-style:normal;font-variant:normal;font-weight:bold;font-stretch:normal;font-size:17.7906px;font-family:Arial;-inkscape-font-specification:'Arial Bold';stroke-width:1.11191;fill:#3d3833;fill-opacity:1">PWR</tspan></text><text
   xml:space="preserve"
   style="font-style:normal;font-variant:normal;font-weight:normal;font-stretch:normal;font-size:17.7906px;line-height:1.25;font-family:Arial;-inkscape-font-specification:Arial;letter-spacing:0px;word-spacing:-5.9932px;writing-mode:lr-tb;fill:#3d3833;fill-opacity:1;stroke:none;stroke-width:1.11191"
   x="591.6972"
   y="973.62726"
   id="text7673"><tspan
     sodipodi:role="line"
     id="tspan7671"
     x="591.6972"
     y="973.62726"
     style="font-style:normal;font-variant:normal;font-weight:bold;font-stretch:normal;font-size:17.7906px;font-family:Arial;-inkscape-font-specification:'Arial Bold';stroke-width:1.11191;fill:#3d3833;fill-opacity:1">ENET</tspan></text><text
   xml:space="preserve"
   style="font-style:normal;font-variant:normal;font-weight:normal;font-stretch:normal;font-size:17.7906px;line-height:1.25;font-family:Arial;-inkscape-font-specification:Arial;letter-spacing:0px;word-spacing:-5.9932px;writing-mode:lr-tb;fill:#3d3833;fill-opacity:1;stroke:none;stroke-width:1.11191"
   x="653.31866"
   y="973.62726"
   id="text7677"><tspan
     sodipodi:role="line"
     id="tspan7675"
     x="653.31866"
     y="973.62726"
     style="font-style:normal;font-variant:normal;font-weight:bold;font-stretch:normal;font-size:17.7906px;font-family:Arial;-inkscape-font-specification:'Arial Bold';stroke-width:1.11191;fill:#3d3833;fill-opacity:1">11A/N</tspan></text><text
   xml:space="preserve"
   style="font-style:normal;font-variant:normal;font-weight:normal;font-stretch:normal;font-size:17.7906px;line-height:1.25;font-family:Arial;-inkscape-font-specification:Arial;letter-spacing:0px;word-spacing:-5.9932px;writing-mode:lr-tb;fill:#3d3833;fill-opacity:1;stroke:none;stroke-width:1.11191"
   x="715.87823"
   y="969.65601"
   id="text7681"><tspan
     sodipodi:role="line"
     id="tspan7679"
     x="715.87823"
     y="969.65601"
     style="font-style:normal;font-variant:normal;font-weight:bold;font-stretch:normal;font-size:17.7906px;font-family:Arial;-inkscape-font-specification:'Arial Bold';stroke-width:1.11191;fill:#3d3833;fill-opacity:1">11B/G/N</tspan></text><path
   id="path350"
   style="fill:none;fill-opacity:1;stroke:#000000;stroke-width:1.06257px;stroke-linecap:butt;stroke-linejoin:miter;stroke-opacity:1"
   d="m 626.87114,25.726315 c -180.8421,0.526597 -362.9382,30.729599 -500.8086,94.044925 -3.7001,1.69922 -19.3264,15.6321 -19.0547,21.38281 17.8338,118.65521 83.3306,384.48421 -12.328101,849.86719 0.4074,12.58046 5.739301,18.46646 11.792901,23.37106 217.215,115.5106 671.75,170.1616 1052.53706,10.5898 7.6131,-6.2408 11.086,-11.5449 11.086,-11.5449 2.0304,-2.4826 2.5586,-7.244 2.0097,-10.3398 -49.6321,-279.91852 -43.9454,-620.98519 12.5039,-833.38866 1.5955,-6.0033 0.079,-15.10383 -0.6562,-19.53125 -3.0579,-7.3833 -4.3788,-12.27343 -13.2461,-16.89453 C 1035.1719,62.650139 831.82544,25.129505 626.87114,25.726315 Z" /></svg>
