<?xml version="1.0" encoding="UTF-8"?>
<svg width="514" height="514" version="1.1" viewBox="0 0 514 514" xmlns="http://www.w3.org/2000/svg" xmlns:cc="http://creativecommons.org/ns#" xmlns:dc="http://purl.org/dc/elements/1.1/" xmlns:rdf="http://www.w3.org/1999/02/22-rdf-syntax-ns#">
 <metadata>
  <rdf:RDF>
   <cc:Work rdf:about="">
    <dc:format>image/svg+xml</dc:format>
    <dc:type rdf:resource="http://purl.org/dc/dcmitype/StillImage"/>
    <dc:title/>
    <cc:license rdf:resource="http://creativecommons.org/licenses/by-nc-sa/4.0/"/>
    <dc:creator>
     <cc:Agent>
      <dc:title>Jan Alexander</dc:title>
     </cc:Agent>
    </dc:creator>
   </cc:Work>
   <cc:License rdf:about="http://creativecommons.org/licenses/by-nc-sa/4.0/">
    <cc:permits rdf:resource="http://creativecommons.org/ns#Reproduction"/>
    <cc:permits rdf:resource="http://creativecommons.org/ns#Distribution"/>
    <cc:requires rdf:resource="http://creativecommons.org/ns#Notice"/>
    <cc:requires rdf:resource="http://creativecommons.org/ns#Attribution"/>
    <cc:prohibits rdf:resource="http://creativecommons.org/ns#CommercialUse"/>
    <cc:permits rdf:resource="http://creativecommons.org/ns#DerivativeWorks"/>
    <cc:requires rdf:resource="http://creativecommons.org/ns#ShareAlike"/>
   </cc:License>
  </rdf:RDF>
 </metadata>
 <g transform="translate(-323.53 -.588)">
  <g transform="translate(6.9953 43.678)" stroke="#666">
   <g stroke-width="1px">
    <path d="m754 272.81h-365.64l-6.1571 11.367h378.9z" fill="#262626"/>
    <path d="m761.11 284.17 47.45 111.77h-465.92l39.575-111.77z" fill="#404040"/>
    <path d="m348.54 395.95 14.651 25.46 44.338 5.3253h335.81l42.411-5.3253 16.193-25.46z" fill="#262626"/>
   </g>
   <g fill="#3578ff">
    <ellipse cx="544.76" cy="360.81" rx="2.2612" ry="1.3091"/>
    <ellipse cx="517.76" cy="360.81" rx="2.2612" ry="1.3091"/>
    <ellipse cx="571.76" cy="360.81" rx="2.2612" ry="1.3091"/>
    <ellipse cx="598.76" cy="360.81" rx="2.2612" ry="1.3091"/>
    <ellipse cx="679.76" cy="360.81" rx="2.2612" ry="1.3091"/>
    <ellipse cx="706.76" cy="360.81" rx="2.2612" ry="1.3091"/>
    <ellipse cx="652.76" cy="360.81" rx="2.2612" ry="1.3091"/>
    <ellipse cx="625.76" cy="360.81" rx="2.2612" ry="1.3091"/>
    <ellipse cx="732.76" cy="360.81" rx="2.2612" ry="1.3091"/>
   </g>
   <path d="m409.94 272.81v-48.921l2.4918-28.874v-186.82c3.1703-10.299 14.222-8.5958 14.222 0v186.82l4.1308 28.874v48.921z" fill="#262626" stroke-width="1px"/>
   <g>
    <path d="m325.72 348.56c6.7524 5.1124 13.605 4.4373 18.335-3.4459v-17.494l4.7068-4.2411v-293.43c-6.8812-7.6473-15.026-13.575-23.261-19.615-2.1117 0.08948-1.3253 1.9994-1.3253 3.7109l1.5454 22.266z" fill="#262626" stroke-width="1px"/>
    <path d="m344.06 345.12h5.5251c1.1788 3.8577 4.6478 3.7831 5.9518 0h4.7264l6.652-17.494c-3.1269-0.34026-3.1209 0.34468-4.2572 3.0461l-4.7823 0.11916-0.3501-3.1653c-1.1037-3.6305-4.2492-2.6964-5.3855 0h-8.0803z" fill="#262626" stroke-width="1px"/>
    <ellipse cx="334.99" cy="340.82" rx="1.1547" ry="1.2125" fill="#666"/>
   </g>
   <g fill="#262626" stroke-width="1px">
    <path d="m736.88 272.81v-48.921l-2.4918-28.874v-186.82c-3.1703-10.299-14.222-8.5958-14.222 0v186.82l-4.1308 28.874v48.921z"/>
    <path d="m821.35 348.56c-6.7524 5.1124-13.605 4.4373-18.335-3.4459v-17.494l-4.7068-4.2411v-293.43c6.8812-7.6473 15.026-13.575 23.261-19.615 2.1117 0.08948 1.3253 1.9994 1.3253 3.7109l-1.5454 22.266z"/>
    <path d="m803.01 345.12h-5.5251c-1.1788 3.8577-4.6478 3.7831-5.9518 0l-4.2691-0.15244-7.7191-17.342c3.1269-0.34026 3.7306 0.34468 4.8669 3.0461l4.7823 0.11916 0.3501-3.1653c1.1037-3.6305 4.2492-2.6964 5.3855 0h8.0803z"/>
   </g>
   <ellipse transform="scale(-1,1)" cx="-812.08" cy="340.82" rx="1.1547" ry="1.2125" fill="#666"/>
  </g>
 </g>
</svg>
