<?xml version="1.0" encoding="UTF-8"?>
<svg width="514" height="514" version="1.1" viewBox="0 0 514 514" xmlns="http://www.w3.org/2000/svg" xmlns:cc="http://creativecommons.org/ns#" xmlns:dc="http://purl.org/dc/elements/1.1/" xmlns:rdf="http://www.w3.org/1999/02/22-rdf-syntax-ns#">
 <metadata>
  <rdf:RDF>
   <cc:Work rdf:about="">
    <dc:format>image/svg+xml</dc:format>
    <dc:type rdf:resource="http://purl.org/dc/dcmitype/StillImage"/>
    <dc:title/>
    <cc:license rdf:resource="http://creativecommons.org/licenses/by-nc-sa/4.0/"/>
    <dc:creator>
     <cc:Agent>
      <dc:title>Jan Alexander</dc:title>
     </cc:Agent>
    </dc:creator>
   </cc:Work>
   <cc:License rdf:about="http://creativecommons.org/licenses/by-nc-sa/4.0/">
    <cc:permits rdf:resource="http://creativecommons.org/ns#Reproduction"/>
    <cc:permits rdf:resource="http://creativecommons.org/ns#Distribution"/>
    <cc:requires rdf:resource="http://creativecommons.org/ns#Notice"/>
    <cc:requires rdf:resource="http://creativecommons.org/ns#Attribution"/>
    <cc:prohibits rdf:resource="http://creativecommons.org/ns#CommercialUse"/>
    <cc:permits rdf:resource="http://creativecommons.org/ns#DerivativeWorks"/>
    <cc:requires rdf:resource="http://creativecommons.org/ns#ShareAlike"/>
   </cc:License>
  </rdf:RDF>
 </metadata>
 <g transform="translate(1.9075 -2.6324)" stroke="#666" stroke-width="1px">
  <g>
   <path d="m102.15 275.44-5.1835 24.815h316.19l-6.0983-24.815z" fill="#262626"/>
   <path d="m96.962 300.26-21.039 128.04h358.88l-21.649-128.04z" fill="#404040"/>
   <path d="m89.924 428.3 8.448 5.4592h313.89l8.448-5.4592z" fill="#262626"/>
  </g>
  <path d="m390.54 275.44 77.712-175.46v-10.147l-5.1973-4.2073-5.6922 3.4648-86.869 186.35z" fill="#262626"/>
  <path d="m457.21 89.782 0.17115 9.8082 5.6095 3.9598 5.2533-3.5649v-10.147l-5.1973-4.2073z" fill="none"/>
  <g transform="matrix(-1 0 0 1 510.18 0)">
   <path d="m390.54 275.44 77.712-175.46v-10.147l-5.1973-4.2073-5.6922 3.4648-86.869 186.35z" fill="#262626"/>
   <path d="m457.21 89.782 0.17115 9.8082 5.6095 3.9598 5.2533-3.5649v-10.147l-5.1973-4.2073z" fill="none"/>
  </g>
 </g>
</svg>
