<?xml version="1.0" encoding="UTF-8" standalone="no"?>
<!DOCTYPE svg PUBLIC "-//W3C//DTD SVG 1.1//EN" "http://www.w3.org/Graphics/SVG/1.1/DTD/svg11.dtd">
<svg width="100%" height="100%" viewBox="0 0 2000 2000" version="1.1" xmlns="http://www.w3.org/2000/svg" xmlns:xlink="http://www.w3.org/1999/xlink" xml:space="preserve" xmlns:serif="http://www.serif.com/" style="fill-rule:evenodd;clip-rule:evenodd;stroke-linecap:round;stroke-linejoin:round;stroke-miterlimit:1.5;">
    <g transform="matrix(0.996929,0,0,0.996929,-200.555,-151.684)">
        <g>
            <path d="M1120.39,1286.66L1117.69,1307.24L1153.39,1313.64L1155.06,1292.4L1120.39,1286.66" style="fill:rgb(236,189,72);"/>
            <path d="M1165.35,1294.96L1163.78,1322.13L1200.02,1327.26L1200.28,1300.02L1165.35,1294.96Z" style="fill:rgb(236,189,72);"/>
            <path d="M1212.07,1300.54L1211.9,1327.65L1247.55,1322.48L1248.09,1294.83L1212.07,1300.54" style="fill:rgb(236,189,72);"/>
            <path d="M1258.3,1301.16L1258.18,1292.99L1293.62,1286.85L1294.1,1295.44L1258.3,1301.16Z" style="fill:rgb(236,189,72);"/>
            <path d="M1257.82,1313.48L1257.95,1304.88L1294.23,1298.23L1294.5,1307.84L1257.82,1313.48Z" style="fill:rgb(236,189,72);"/>
        </g>
        <g>
            <path d="M931.55,1309.65L851.607,449.092L906.568,446.525L1018.99,1307.15L931.55,1309.65Z" style="fill:rgb(50,50,50);"/>
            <clipPath id="_clip1">
                <path d="M931.55,1309.65L851.607,449.092L906.568,446.525L1018.99,1307.15L931.55,1309.65Z"/>
            </clipPath>
            <g clip-path="url(#_clip1)">
                <g transform="matrix(1.00838,0,0,0.943653,420.126,52.4764)">
                    <path d="M545.332,1057.12L575.388,1327.84L594.658,1327.84L555.944,1016.64L545.332,1057.12Z" style="fill:rgb(228,168,39);"/>
                </g>
                <g transform="matrix(0.915979,0,0,0.753991,403.98,309.997)">
                    <path d="M545.332,939.694L575.788,1322.04L589.052,1321.7L559.947,974.252L545.332,939.694Z" style="fill:rgb(228,168,39);"/>
                </g>
            </g>
            <path d="M931.55,1309.65L851.607,449.092L906.568,446.525L1018.99,1307.15L931.55,1309.65Z" style="fill:none;stroke:black;stroke-width:6.48px;"/>
            <g transform="matrix(-1,0,0,1,2412.2,-7.80686)">
                <path d="M931.55,1309.65L851.607,449.092L906.568,446.525L1018.99,1307.15L931.55,1309.65Z" style="fill:rgb(50,50,50);"/>
                <clipPath id="_clip2">
                    <path d="M931.55,1309.65L851.607,449.092L906.568,446.525L1018.99,1307.15L931.55,1309.65Z"/>
                </clipPath>
                <g clip-path="url(#_clip2)">
                    <g transform="matrix(1.00838,0,0,0.943653,420.126,52.4764)">
                        <path d="M545.332,1057.12L573.958,1328.11L593.862,1328.11L555.944,1016.64L545.332,1057.12Z" style="fill:rgb(228,168,39);"/>
                    </g>
                    <g transform="matrix(0.915979,0,0,0.753991,403.98,309.997)">
                        <path d="M545.332,939.694L574.912,1326.79L590.969,1325.6L559.947,974.252L545.332,939.694Z" style="fill:rgb(228,168,39);"/>
                    </g>
                </g>
                <path d="M931.55,1309.65L851.607,449.092L906.568,446.525L1018.99,1307.15L931.55,1309.65Z" style="fill:none;stroke:black;stroke-width:6.48px;"/>
            </g>
            <path d="M561.439,1304.05L280.392,517.12L330.356,485.893L664.49,1302.49L561.439,1304.05Z" style="fill:rgb(50,50,50);"/>
            <clipPath id="_clip3">
                <path d="M561.439,1304.05L280.392,517.12L330.356,485.893L664.49,1302.49L561.439,1304.05Z"/>
            </clipPath>
            <g clip-path="url(#_clip3)">
                <path d="M544.813,1079.33L632.813,1303.73L664.023,1302.4L547.371,1019.98L544.813,1079.33Z" style="fill:rgb(228,168,39);"/>
            </g>
            <path d="M561.439,1304.05L280.392,517.12L330.356,485.893L664.49,1302.49L561.439,1304.05Z" style="fill:none;stroke:black;stroke-width:6.48px;"/>
            <g transform="matrix(-1,0,0,1,2420.07,0)">
                <path d="M561.439,1304.05L280.392,517.12L330.356,485.893L664.49,1302.49L561.439,1304.05Z" style="fill:rgb(50,50,50);"/>
                <clipPath id="_clip4">
                    <path d="M561.439,1304.05L280.392,517.12L330.356,485.893L664.49,1302.49L561.439,1304.05Z"/>
                </clipPath>
                <g clip-path="url(#_clip4)">
                    <path d="M544.813,1079.33L632.813,1303.73L664.023,1302.4L547.371,1019.98L544.813,1079.33Z" style="fill:rgb(228,168,39);"/>
                </g>
                <path d="M561.439,1304.05L280.392,517.12L330.356,485.893L664.49,1302.49L561.439,1304.05Z" style="fill:none;stroke:black;stroke-width:6.48px;"/>
            </g>
        </g>
        <g transform="matrix(1,0,0,1,-3.77776,-3.4503)">
            <path d="M310.983,1839.38L714.659,1875.2L776.055,1805.61L1626.9,1805.61L1688.29,1873.15L2097.6,1838.87L2134.95,1653.66L2020.85,1289.38L1852.53,1260.22L566.286,1262.26L398.983,1292.96L272.61,1656.73L310.983,1839.38Z" style="fill:rgb(88,88,92);"/>
            <clipPath id="_clip5">
                <path d="M310.983,1839.38L714.659,1875.2L776.055,1805.61L1626.9,1805.61L1688.29,1873.15L2097.6,1838.87L2134.95,1653.66L2020.85,1289.38L1852.53,1260.22L566.286,1262.26L398.983,1292.96L272.61,1656.73L310.983,1839.38Z"/>
            </clipPath>
            <g clip-path="url(#_clip5)">
                <g transform="matrix(1,0,0,1,3.77776,3.4503)">
                    <path d="M565.859,1260.54L707.069,1675.98L1199.26,1656.54L1691.96,1672.4L1852.61,1257.47L565.859,1260.54" style="fill:none;stroke:black;stroke-width:6.48px;"/>
                </g>
                <g transform="matrix(1,0,0,1,3.77776,3.4503)">
                    <path d="M1201.02,1656.77L1200.68,1364.12" style="fill:none;stroke:black;stroke-width:3.08px;"/>
                </g>
                <g transform="matrix(1,0,0,1,3.77776,3.4503)">
                    <path d="M565.859,1260.54L1200.02,1365.76L1856.55,1257.83L565.859,1260.54Z" style="fill:none;stroke:black;stroke-width:6.48px;"/>
                </g>
                <g transform="matrix(1,0,0,1,3.77776,3.4503)">
                    <path d="M270.178,1655.72L652.622,1620.55L563.726,1259.85L394.888,1289.9L270.178,1655.72" style="fill:rgb(61,61,61);stroke:black;stroke-width:3.08px;"/>
                </g>
                <g transform="matrix(-1,0,0,1,2405.4,1.73724)">
                    <path d="M270.178,1655.72C397.223,1644 524.267,1632.27 651.312,1620.55L548.664,1259.52L384.737,1287.28L270.178,1655.72" style="fill:rgb(61,61,61);stroke:black;stroke-width:3.08px;"/>
                </g>
                <g transform="matrix(1,0,0,1,3.77776,3.4503)">
                    <path d="M285.604,1727.11L632.503,1754.38L706.689,1674.05L565.991,1257.59L652.968,1618.8L613.573,1659.22L269.223,1656.57L285.604,1727.11Z" style="fill:rgb(41,41,41);stroke:black;stroke-width:3.08px;"/>
                </g>
                <g transform="matrix(-1,0,0,1,2400.84,1.00408)">
                    <path d="M285.604,1727.11L632.503,1754.38L706.689,1674.05L546.005,1259.99L647.372,1621.2L607.977,1662.41L269.223,1656.57L285.604,1727.11Z" style="fill:rgb(41,41,41);stroke:black;stroke-width:3.08px;"/>
                </g>
                <g transform="matrix(1,0,0,1,3.77776,3.4503)">
                    <path d="M323.795,1819.75L710.796,1848.97L843.085,1687.21L712.715,1691.12L639.688,1771.61L308.228,1745.88L323.795,1819.75Z" style="fill:rgb(61,61,61);stroke:black;stroke-width:6.46px;"/>
                </g>
                <g transform="matrix(-1,0,0,1,2398.36,0.452477)">
                    <path d="M314.795,1817.75L700.592,1847.62L841.068,1688.59L712.715,1693.12L635.431,1771.88L300.21,1744.5L314.795,1817.75Z" style="fill:rgb(61,61,61);stroke:black;stroke-width:6.46px;"/>
                </g>
            </g>
            <path d="M310.983,1839.38L714.659,1875.2L776.055,1805.61L1626.9,1805.61L1688.29,1873.15L2097.6,1838.87L2134.95,1653.66L2020.85,1289.38L1852.53,1260.22L566.286,1262.26L398.983,1292.96L272.61,1656.73L310.983,1839.38Z" style="fill:none;stroke:black;stroke-width:6.48px;"/>
        </g>
        <g>
            <rect x="919.624" y="1562.31" width="7.777" height="9.005" style="fill:white;"/>
            <g transform="matrix(1,0,0,1,76.267,-5.73026)">
                <rect x="919.624" y="1562.31" width="7.777" height="9.005" style="fill:white;"/>
            </g>
            <g transform="matrix(1,0,0,1,152.534,-11.8698)">
                <rect x="919.624" y="1562.31" width="7.777" height="9.005" style="fill:white;"/>
            </g>
            <g transform="matrix(1,0,0,1,228.801,-17.6001)">
                <rect x="919.624" y="1562.31" width="7.777" height="9.005" style="fill:white;"/>
            </g>
            <g transform="matrix(-1,0,0,1,2403.09,-0.818608)">
                <rect x="919.624" y="1562.31" width="7.777" height="9.005" style="fill:white;"/>
            </g>
            <g transform="matrix(-1,0,0,1,2326.82,-6.54887)">
                <rect x="919.624" y="1562.31" width="7.777" height="9.005" style="fill:white;"/>
            </g>
            <g transform="matrix(-1,0,0,1,2250.55,-12.6884)">
                <rect x="919.624" y="1562.31" width="7.777" height="9.005" style="fill:white;"/>
            </g>
            <g transform="matrix(-1,0,0,1,2174.29,-18.4187)">
                <rect x="919.624" y="1562.31" width="7.777" height="9.005" style="fill:white;"/>
            </g>
        </g>
        <g transform="matrix(1.09282,0,0,1.15652,-148.48,-279.365)">
            <path d="M1529.47,1699.81L1236.11,1690.03L943.52,1703.96L876.219,1784.84L1599.7,1784.84L1529.47,1699.81Z" style="fill:rgb(88,88,92);"/>
            <clipPath id="_clip6">
                <path d="M1529.47,1699.81L1236.11,1690.03L943.52,1703.96L876.219,1784.84L1599.7,1784.84L1529.47,1699.81Z"/>
            </clipPath>
            <g clip-path="url(#_clip6)">
                <g transform="matrix(0.915066,0,0,0.864662,135.869,241.557)">
                    <rect x="1192.83" y="1667.37" width="13.664" height="139.163" style="fill:rgb(24,24,24);stroke:black;stroke-width:3.08px;"/>
                </g>
                <g transform="matrix(0.915066,0,0,0.864662,159.24,235.894)">
                    <path d="M1577.31,1718.69L1175.79,1705.69L774.094,1720.69L774.094,1732.68L1175.79,1717.68L1577.31,1730.68L1577.31,1718.69Z" style="fill:rgb(24,24,24);stroke:black;stroke-width:3.08px;"/>
                </g>
                <g transform="matrix(0.915066,0,0,0.864662,161.637,260.526)">
                    <path d="M1577.31,1714.69L1175.79,1705.69L774.094,1716.69L774.094,1728.68L1175.79,1717.68L1577.31,1726.68L1577.31,1714.69Z" style="fill:rgb(24,24,24);stroke:black;stroke-width:3.08px;"/>
                </g>
                <g transform="matrix(0.915066,0,0,0.864662,160.738,284.875)">
                    <path d="M1577.31,1710.69L1175.79,1705.69L774.094,1711.69L774.094,1723.68L1175.79,1717.68L1577.31,1722.68L1577.31,1710.69Z" style="fill:rgb(24,24,24);stroke:black;stroke-width:3.08px;"/>
                </g>
            </g>
            <path d="M1529.47,1699.81L1236.11,1690.03L943.52,1703.96L876.219,1784.84L1599.7,1784.84L1529.47,1699.81Z" style="fill:none;stroke:black;stroke-width:5.75px;"/>
        </g>
    </g>
</svg>
