<?xml version="1.0" encoding="UTF-8" standalone="no"?>
<svg
   width="100%"
   height="100%"
   viewBox="0 0 1280 1150"
   version="1.1"
   xml:space="preserve"
   style="fill-rule:evenodd;clip-rule:evenodd;stroke-linecap:round;stroke-linejoin:round;stroke-miterlimit:1.41421;"
   id="svg147"
   sodipodi:docname="avm-fritz-box-4020.svg"
   inkscape:version="1.2 (1:1.2+202206011327+fc4e4096c5)"
   xmlns:inkscape="http://www.inkscape.org/namespaces/inkscape"
   xmlns:sodipodi="http://sodipodi.sourceforge.net/DTD/sodipodi-0.dtd"
   xmlns="http://www.w3.org/2000/svg"
   xmlns:svg="http://www.w3.org/2000/svg"><defs
   id="defs151">
        
        
        
        
        
        
    </defs><sodipodi:namedview
   id="namedview149"
   pagecolor="#ffffff"
   bordercolor="#666666"
   borderopacity="1.0"
   inkscape:showpageshadow="2"
   inkscape:pageopacity="0.0"
   inkscape:pagecheckerboard="0"
   inkscape:deskcolor="#d1d1d1"
   showgrid="false"
   inkscape:zoom="0.58044245"
   inkscape:cx="278.23602"
   inkscape:cy="600.40405"
   inkscape:window-width="1920"
   inkscape:window-height="1021"
   inkscape:window-x="0"
   inkscape:window-y="0"
   inkscape:window-maximized="1"
   inkscape:current-layer="svg147" />
    <path
   d="M1012,952L1030,951L1056,940L1080,400C670.65,340.658 370.032,363.267 180,420L208,965L242,968L1012,952Z"
   style="fill:rgb(223,224,229);stroke:rgb(125,126,131);stroke-width:1px;"
   id="path2" />
    <g
   id="g20">
        <g
   transform="matrix(0.998001,-0.0631939,0.0631939,0.998001,-27.8009,23.0193)"
   id="g6">
            <path
   d="M373,442L327,442L325.353,460.461L373,460L373,442Z"
   style="stroke:black;stroke-width:1px;"
   id="path4" />
        </g>
        <path
   d="M637,427L958,425.5C982.533,425.385 1007.59,425.824 1032,428C1037.74,428.512 1042.2,435.102 1045.5,439L1045,448L637,445L637,427Z"
   style="stroke:rgb(125,126,131);stroke-width:1px;"
   id="path8" />
        <path
   id="rect10"
   style="fill:#dfe0e5;stroke:#000000;stroke-width:1px"
   d="m 371,416 h 127 v 42 H 371 Z" />
        <path
   id="rect12"
   style="fill:#dfe0e5;stroke:#000000;stroke-width:1px"
   d="m 515,412 h 126 v 34 H 515 Z" />
        <path
   id="rect14"
   style="fill:#dfe0e5;stroke:#7d7e83;stroke-width:1px"
   d="m 724,413 h 12 v 25 h -12 z" />
        <path
   id="rect16"
   style="fill:#dfe0e5;stroke:#7d7e83;stroke-width:1px"
   d="m 832,411 h 13 v 26 h -13 z" />
        <path
   id="rect18"
   style="fill:#dfe0e5;stroke:#7d7e83;stroke-width:1px"
   d="m 939,411 h 11 v 27 h -11 z" />
    </g>
    <path
   d="M230,980C412.866,1026.97 950.005,995.205 1017,958C1026.73,948.437 1029.05,937.752 1033,923C1049.67,860.835 1059.26,681.198 1059,452C1052.1,439.53 1041.28,434.824 1029,433C733.7,432.212 490.508,437.717 320,452C314.465,589.674 301.191,654.873 281.5,660C279.598,660.495 277.35,660.567 276.5,660C256.312,646.538 239.725,601.351 236,465C235.931,462.463 232.834,460.103 230,460C222.351,459.722 214.688,459.951 207,461C200.952,461.825 196.042,468.615 196,474.5C194.908,629.185 205.31,796.651 230,980Z"
   style="fill:rgb(152,24,49);stroke:black;stroke-width:1px;"
   id="path22" />
    <g
   id="Schlitze">
        <g
   id="g40">
            <g
   transform="matrix(1,0,0,1.1875,0,-104.438)"
   id="g26">
                <path
   d="M1033,542.579C1033,541.475 1031.94,540.579 1030.62,540.579C799.734,538.642 569.174,541.867 339.375,557C338.064,557 337,557.896 337,559L337,563C337,564.104 338.064,565 339.375,565C568.487,552.456 799.031,547.672 1030.62,548.579C1031.94,548.579 1033,547.683 1033,546.579L1033,542.579Z"
   style="fill:none;stroke:rgb(136,10,32);stroke-width:0.91px;"
   id="path24" />
            </g>
            <g
   transform="matrix(1,0,0,1.1875,0,-124.604)"
   id="g30">
                <path
   d="M1033,542.579C1033,541.475 1031.94,540.579 1030.62,540.579C799.734,538.642 569.174,541.867 339.375,557C338.064,557 337,557.896 337,559L337,563C337,564.104 338.064,565 339.375,565C568.487,552.456 799.031,547.672 1030.62,548.579C1031.94,548.579 1033,547.683 1033,546.579L1033,542.579Z"
   style="fill:none;stroke:rgb(136,10,32);stroke-width:0.91px;"
   id="path28" />
            </g>
            <g
   transform="matrix(1,0,0,1.1875,0,-144.583)"
   id="g34">
                <path
   d="M1033,542.579C1033,541.475 1031.94,540.579 1030.62,540.579C799.734,538.642 569.174,541.867 339.375,557C338.064,557 337,557.896 337,559L337,563C337,564.104 338.064,565 339.375,565C568.487,552.456 799.031,547.672 1030.62,548.579C1031.94,548.579 1033,547.683 1033,546.579L1033,542.579Z"
   style="fill:none;stroke:rgb(136,10,32);stroke-width:0.91px;"
   id="path32" />
            </g>
            <path
   d="M391.85,491.475L400,497.711C401.436,498.809 401.936,500.022 401.73,501.009C380.933,502.21 360.148,503.485 339.375,504.836C338.064,504.836 337,503.771 337,502.461L337,497.711C337,496.4 338.064,495.336 339.375,495.336C356.862,493.968 374.354,492.682 391.85,491.475ZM533.45,483.35L542,490C544.245,491.746 545.314,493.053 544.964,493.893C521.842,494.859 498.733,495.911 475.638,497.052C474.542,496.146 475.681,494.414 479,492L487.77,485.622C502.994,484.811 518.22,484.054 533.45,483.35ZM627.844,479.63C761.936,475.235 896.224,474.497 1030.62,475.836C1031.94,475.836 1033,476.9 1033,478.211L1033,482.961C1033,484.271 1031.94,485.336 1030.62,485.336C893.723,484.699 757.188,486.424 621.099,491.018C616.364,491.083 614.745,490.546 619,487L627.844,479.63Z"
   style="fill:none;stroke:rgb(136,10,32);stroke-width:1px;"
   id="path36" />
            <path
   d="M374.226,472.213L380.307,481.768C366.658,482.589 353.014,483.443 339.375,484.33C338.064,484.33 337,483.266 337,481.955L337,477.205C337,475.894 338.064,474.83 339.375,474.83C350.99,473.922 362.607,473.05 374.226,472.213ZM518,464L523.274,474.319C513.877,474.734 496,475 496,475L502.39,464.355C507.544,464.092 512.848,464.117 518,464ZM643.752,458C772.556,454.054 901.539,454.044 1030.62,455.33C1031.94,455.33 1033,456.394 1033,457.705L1033,462.455C1033,463.766 1031.94,464.83 1030.62,464.83C899.329,464.22 640,468 640,468L643.752,458Z"
   style="fill:none;stroke:rgb(136,10,32);stroke-width:1px;"
   id="path38" />
        </g>
        <g
   id="Stege">
            <path
   d="M695,453L695,556L1040,557L1041,492L936,493L936,449L695,453Z"
   style="fill:rgb(227,221,221);stroke:rgb(136,10,32);stroke-width:1px;"
   id="path42" />
            <g
   transform="matrix(0.866667,0,0,1,52,0)"
   id="g46">
                <path
   id="rect44"
   style="fill:#911834;stroke:#880a20;stroke-width:1.07px"
   d="m 390,480.5 h 15 V 585 h -15 z" />
            </g>
            <g
   transform="matrix(0.866667,0,0,1.19617,163.851,-114.761)"
   id="g50">
                <path
   id="rect48"
   style="fill:#911834;stroke:#880a20;stroke-width:0.96px"
   d="m 390,480.5 h 15 V 585 h -15 z" />
            </g>
            <g
   transform="matrix(0.866667,0,0,1.05263,280.753,-30.7895)"
   id="g54">
                <path
   id="rect52"
   style="fill:#911834;stroke:#880a20;stroke-width:1.04px"
   d="m 390,480.5 h 15 V 585 h -15 z" />
            </g>
            <g
   transform="matrix(0.866667,0,0,1.05263,387,-55.7895)"
   id="g58">
                <path
   id="rect56"
   style="fill:#911834;stroke:#880a20;stroke-width:1.04px"
   d="m 390,480.5 h 15 V 585 h -15 z" />
            </g>
            <g
   transform="matrix(0.866667,0,0,1.05263,494.34,-55.7895)"
   id="g62">
                <path
   id="rect60"
   style="fill:#911834;stroke:#880a20;stroke-width:1.04px"
   d="m 390,480.5 h 15 V 585 h -15 z" />
            </g>
            <g
   transform="matrix(0.866667,0,0,1.05263,603.936,-55.7895)"
   id="g66">
                <path
   id="rect64"
   style="fill:#911834;stroke:#880a20;stroke-width:1.04px"
   d="m 390,480.5 h 15 V 585 h -15 z" />
            </g>
        </g>
    </g>
    <g
   id="g72">
        <path
   d="M230,980C412.866,1026.97 950.005,995.205 1017,958C1026.73,948.437 1029.05,937.752 1033,923C1049.67,860.835 1059.26,681.198 1059,452C1052.1,439.53 1041.28,434.824 1029,433C733.7,432.212 490.508,437.717 320,452C314.465,589.674 301.191,654.873 281.5,660C279.598,660.495 277.35,660.567 276.5,660C256.312,646.538 239.725,601.351 236,465C235.931,462.463 232.834,460.103 230,460C222.351,459.722 214.688,459.951 207,461C200.952,461.825 196.042,468.615 196,474.5C194.908,629.185 205.31,796.651 230,980ZM1033,519.709C1033,518.398 1031.94,517.334 1030.62,517.334C799.734,515.034 569.174,518.863 339.375,536.834C338.064,536.834 337,537.898 337,539.209L337,543.959C337,545.269 338.064,546.334 339.375,546.334C568.487,531.438 799.031,525.757 1030.62,526.834C1031.94,526.834 1033,525.769 1033,524.459L1033,519.709ZM1033,499.729C1033,498.419 1031.94,497.354 1030.62,497.354C799.734,495.055 569.174,498.884 339.375,516.854C338.064,516.854 337,517.919 337,519.229L337,523.979C337,525.29 338.064,526.354 339.375,526.354C568.487,511.459 799.031,505.778 1030.62,506.854C1031.94,506.854 1033,505.79 1033,504.479L1033,499.729ZM391.85,491.475L400,497.711C401.436,498.809 401.936,500.022 401.73,501.009C380.933,502.21 360.148,503.485 339.375,504.836C338.064,504.836 337,503.771 337,502.461L337,497.711C337,496.4 338.064,495.336 339.375,495.336C356.862,493.968 374.354,492.682 391.85,491.475ZM533.45,483.35L542,490C544.245,491.746 545.314,493.053 544.964,493.893C521.842,494.859 498.733,495.911 475.638,497.052C474.542,496.146 475.681,494.414 479,492L487.77,485.622C502.994,484.811 518.22,484.054 533.45,483.35ZM627.844,479.63C761.936,475.235 896.224,474.497 1030.62,475.836C1031.94,475.836 1033,476.9 1033,478.211L1033,482.961C1033,484.271 1031.94,485.336 1030.62,485.336C893.723,484.699 757.188,486.424 621.099,491.018C616.364,491.083 614.745,490.546 619,487L627.844,479.63ZM374.226,472.213L380.307,481.768C366.658,482.589 353.014,483.443 339.375,484.33C338.064,484.33 337,483.266 337,481.955L337,477.205C337,475.894 338.064,474.83 339.375,474.83C350.99,473.922 362.607,473.05 374.226,472.213ZM518,464L523.274,474.319C513.877,474.734 496,475 496,475L502.39,464.355C507.544,464.092 512.848,464.117 518,464ZM643.752,458C772.556,454.054 901.539,454.044 1030.62,455.33C1031.94,455.33 1033,456.394 1033,457.705L1033,462.455C1033,463.766 1031.94,464.83 1030.62,464.83C899.329,464.22 640,468 640,468L643.752,458Z"
   style="fill:rgb(152, 24, 49);stroke:rgb(95, 15, 34);stroke-width:1px"
   id="path70" />
    </g>
    <g
   id="g1786"><g
     transform="matrix(1.10526,0,0,1.10526,95.9474,-56.5526)"
     id="g76">
            <path
   id="circle74"
   style="stroke:#000000;stroke-width:0.9px"
   d="M 485,437.5 A 47.5,47.5 0 0 1 437.5,485 47.5,47.5 0 0 1 390,437.5 47.5,47.5 0 0 1 437.5,390 47.5,47.5 0 0 1 485,437.5 Z" />
        </g><g
     transform="matrix(1.10526,0,0,1.10526,-47.5526,-50.5526)"
     id="g80">
            <path
   id="circle78"
   style="stroke:#000000;stroke-width:0.9px"
   d="M 485,437.5 A 47.5,47.5 0 0 1 437.5,485 47.5,47.5 0 0 1 390,437.5 47.5,47.5 0 0 1 437.5,390 47.5,47.5 0 0 1 485,437.5 Z" />
        </g><g
     transform="translate(-1.5,-4.5)"
     id="g84">
            <path
   id="circle82"
   style="fill:#eeeef0;stroke:#000000;stroke-width:1px"
   d="M 485,437.5 A 47.5,47.5 0 0 1 437.5,485 47.5,47.5 0 0 1 390,437.5 47.5,47.5 0 0 1 437.5,390 47.5,47.5 0 0 1 485,437.5 Z" />
        </g><g
     transform="translate(142,-10.5)"
     id="g88">
            <path
   id="circle86"
   style="fill:#eeeef0;stroke:#000000;stroke-width:1px"
   d="M 485,437.5 A 47.5,47.5 0 0 1 437.5,485 47.5,47.5 0 0 1 390,437.5 47.5,47.5 0 0 1 437.5,390 47.5,47.5 0 0 1 485,437.5 Z" />
        </g><g
     transform="matrix(0.805653,0,0,1,106.19452,-3.0611932)"
     id="g92">
            <g
   aria-label="WLAN"
   id="text90"
   style="font-weight:900;font-size:27.769px;font-family:Arial-Black, 'Arial Black', sans-serif"><path
     d="m 543.8271,419.75629 h 5.00331 l 3.49824,14.7116 3.47112,-14.7116 h 5.03042 l 3.47113,14.7116 3.49824,-14.7116 h 4.96262 L 567.98939,440 h -6.02023 L 558.29464,424.61044 554.66081,440 h -6.02023 z"
     style="font-weight:bold;font-family:sans-serif;-inkscape-font-specification:'sans-serif Bold'"
     id="path933" /><path
     d="m 576.17907,419.75629 h 5.22025 v 16.29802 h 9.16594 V 440 h -14.38619 z"
     style="font-weight:bold;font-family:sans-serif;-inkscape-font-specification:'sans-serif Bold'"
     id="path935" /><path
     d="m 606.1582,436.31193 h -8.16257 L 596.70752,440 h -5.24736 l 7.49817,-20.24371 h 6.22362 L 612.68012,440 h -5.24737 z m -6.86089,-3.75587 h 5.54566 l -2.76605,-8.05409 z"
     style="font-weight:bold;font-family:sans-serif;-inkscape-font-specification:'sans-serif Bold'"
     id="path937" /><path
     d="m 615.36482,419.75629 h 5.8304 l 7.36259,13.8845 v -13.8845 h 4.94906 V 440 h -5.8304 l -7.36259,-13.8845 V 440 h -4.94906 z"
     style="font-weight:bold;font-family:sans-serif;-inkscape-font-specification:'sans-serif Bold'"
     id="path939" /></g>
        </g><g
     transform="matrix(0.9413,0,0,1,-107.96552,2.9388068)"
     id="g96">
            <g
   aria-label="WPS"
   id="text94"
   style="font-weight:900;font-size:27.769px;font-family:Arial-Black, 'Arial Black', sans-serif"><path
     d="m 543.8271,419.75629 h 5.00331 l 3.49824,14.7116 3.47112,-14.7116 h 5.03042 l 3.47113,14.7116 3.49824,-14.7116 h 4.96262 L 567.98939,440 h -6.02023 L 558.29464,424.61044 554.66081,440 h -6.02023 z"
     style="font-weight:bold;font-family:sans-serif;-inkscape-font-specification:'sans-serif Bold'"
     id="path942" /><path
     d="m 576.17907,419.75629 h 8.66426 q 3.86433,0 5.92531,1.722 2.07454,1.70845 2.07454,4.88127 0,3.18639 -2.07454,4.90839 -2.06098,1.70845 -5.92531,1.70845 h -3.44401 V 440 h -5.22025 z m 5.22025,3.78298 v 5.65414 h 2.88808 q 1.51862,0 2.34572,-0.73219 0.82711,-0.74575 0.82711,-2.10166 0,-1.3559 -0.82711,-2.08809 -0.8271,-0.7322 -2.34572,-0.7322 z"
     style="font-weight:bold;font-family:sans-serif;-inkscape-font-specification:'sans-serif Bold'"
     id="path944" /><path
     d="m 610.61914,420.39357 v 4.28467 q -1.66777,-0.74575 -3.25418,-1.12541 -1.58641,-0.37965 -2.99656,-0.37965 -1.87115,0 -2.76605,0.51524 -0.8949,0.51525 -0.8949,1.59998 0,0.81354 0.5966,1.27455 0.61016,0.44745 2.19657,0.77287 l 2.22369,0.44745 q 3.37621,0.67795 4.79992,2.06098 1.4237,1.38302 1.4237,3.93213 0,3.34909 -1.99318,4.98974 -1.97963,1.62709 -6.06091,1.62709 -1.92539,0 -3.86434,-0.36609 -1.93895,-0.3661 -3.8779,-1.08473 v -4.4067 q 1.93895,1.03049 3.74231,1.55929 1.81691,0.51525 3.49824,0.51525 1.70844,0 2.6169,-0.56948 0.90846,-0.56948 0.90846,-1.62709 0,-0.94914 -0.62372,-1.46438 -0.61016,-0.51525 -2.45419,-0.92202 l -2.0203,-0.44745 q -3.03724,-0.65084 -4.44738,-2.07454 -1.39659,-1.4237 -1.39659,-3.83722 0,-3.02367 1.95251,-4.65076 1.95251,-1.62709 5.61346,-1.62709 1.66777,0 3.43045,0.25762 1.76268,0.24406 3.64739,0.74575 z"
     style="font-weight:bold;font-family:sans-serif;-inkscape-font-specification:'sans-serif Bold'"
     id="path946" /></g>
        </g></g>
    <path
   d="M180,240C160.475,241.732 151.208,256.526 150,270C128.927,505.082 147.561,738.103 190,970C200.348,976.22 224.241,978.649 224,975C202.35,803.305 189.864,631.636 190,460C190.006,452.611 197.978,444.971 206,444C215.222,442.883 224.543,442.467 234,443C239.894,444.946 239.577,451.03 240,463C244.204,582.018 257.723,636.998 277,654C278.3,655.147 280.872,655.37 282,654C300.958,630.971 311.739,561.96 314,443C314.084,438.604 317.784,434.759 321,434.5L383,431C387.988,403.658 405.092,382.327 434,381C454.784,380.046 484.475,396.722 487,423L527,422C532.037,397.117 551.775,374.9 580,374.977C606.215,375.048 630.046,399.045 630,418C768.405,414.426 905.71,414.863 1042,419C1049.32,419.018 1061.96,430.558 1062,438C1062.92,635.399 1058.78,805.91 1041,904C1036.74,927.484 1032.47,945.141 1022,957C1076.81,948.1 1131.51,935.78 1186,917C1238.26,760.995 1256.59,551.613 1229,270C1227.67,256.457 1218.37,241.204 1205,240C863.352,209.245 521.686,209.692 180,240Z"
   style="fill:rgb(219, 222, 227);stroke:black;stroke-width:1px"
   id="path99" />
    <path
   d="M434,1002.1C448.782,883.262 456.025,896.68 458,1003L434,1002.1Z"
   style="fill:rgb(73,61,81);stroke:rgb(95,15,34);stroke-width:1px;"
   id="path101" />
    <g
   transform="matrix(1,0,0,1,92,1.13687e-13)"
   id="g105">
        <path
   d="M434,1003.53C448.782,884.702 456.025,897.115 458,1003.44L434,1003.53Z"
   style="fill:rgb(73,61,81);stroke:rgb(95,15,34);stroke-width:1px;"
   id="path103" />
    </g>
    <g
   transform="matrix(1,0,0,1,182.686,1.13687e-13)"
   id="g109">
        <path
   d="M434.314,1002.26C449.096,883.423 456.025,895.219 458,1001.54L434.314,1002.26Z"
   style="fill:rgb(73,61,81);stroke:rgb(95,15,34);stroke-width:1px;"
   id="path107" />
    </g>
    <g
   transform="matrix(1,0,0,1,274,-3.53511)"
   id="g113">
        <path
   d="M434,1002.21C448.782,883.372 456.025,894.561 458,1000.88L434,1002.21Z"
   style="fill:rgb(73,61,81);stroke:rgb(95,15,34);stroke-width:1px;"
   id="path111" />
    </g>
    <g
   transform="matrix(1,0,0,1,362,-13.5351)"
   id="g117">
        <path
   d="M433.836,1006.53C448.618,887.702 456.025,898.215 458,1004.53L433.836,1006.53Z"
   style="fill:rgb(73,61,81);stroke:rgb(95,15,34);stroke-width:1px;"
   id="path115" />
    </g>
    <g
   transform="matrix(6.09261e-17,-0.994999,1.18062,7.2292e-17,-602.609,1368.66)"
   id="g121">
        <g
   aria-label="Power"
   id="text119"
   style="font-size:20.827px;font-family:ArialMT, Arial, sans-serif;fill:#ffffff"><path
     d="m 473.60677,900 v -14.90839 h 5.6237 q 1.48473,0 2.26778,0.14237 1.0983,0.18305 1.84067,0.70169 0.74237,0.50848 1.18982,1.43389 0.45763,0.92542 0.45763,2.03389 0,1.90168 -1.21017,3.22371 -1.21016,1.31186 -4.37285,1.31186 h -3.82371 V 900 Z m 1.97287,-7.82029 h 3.85422 q 1.91185,0 2.71523,-0.71186 0.80339,-0.71186 0.80339,-2.00338 0,-0.93559 -0.47796,-1.5966 -0.4678,-0.67119 -1.24067,-0.88474 -0.49831,-0.13221 -1.84067,-0.13221 h -3.81354 z"
     id="path949" /><path
     d="m 486.58297,894.60003 q 0,-2.99998 1.66778,-4.44404 1.39322,-1.19999 3.3966,-1.19999 2.2271,0 3.64065,1.46439 1.41355,1.45423 1.41355,4.0271 0,2.08473 -0.6305,3.28473 -0.62034,1.18982 -1.82033,1.85083 -1.18982,0.66102 -2.60337,0.66102 -2.26779,0 -3.67117,-1.45423 -1.39321,-1.45423 -1.39321,-4.18981 z m 1.88134,0 q 0,2.07457 0.90508,3.11185 0.90508,1.02711 2.27796,1.02711 1.3627,0 2.26778,-1.03728 0.90508,-1.03728 0.90508,-3.1627 0,-2.00337 -0.91525,-3.03049 -0.90508,-1.03728 -2.25761,-1.03728 -1.37288,0 -2.27796,1.02711 -0.90508,1.02712 -0.90508,3.10168 z"
     id="path951" /><path
     d="m 500.84051,900 -3.30506,-10.79994 h 1.89151 l 1.71864,6.23386 0.64067,2.31864 q 0.0407,-0.17289 0.55932,-2.22711 l 1.71863,-6.32539 h 1.88135 l 1.61694,6.26437 0.53898,2.0644 0.62033,-2.08474 1.85084,-6.24403 h 1.77965 L 508.97606,900 h -1.90168 l -1.71864,-6.46776 -0.41695,-1.84067 L 502.75237,900 Z"
     id="path953" /><path
     d="m 521.28107,896.52205 1.89152,0.2339 q -0.44746,1.65762 -1.65762,2.57287 -1.21016,0.91525 -3.09151,0.91525 -2.36947,0 -3.76269,-1.45423 -1.38304,-1.4644 -1.38304,-4.09828 0,-2.72541 1.40338,-4.23049 1.40338,-1.50507 3.64066,-1.50507 2.16609,0 3.53896,1.47456 1.37288,1.47457 1.37288,4.14913 0,0.16271 -0.0102,0.48813 h -8.0542 q 0.1017,1.77966 1.00678,2.72541 0.90508,0.94576 2.25761,0.94576 1.00678,0 1.71864,-0.52881 0.71186,-0.52881 1.1288,-1.68813 z m -6.01013,-2.9593 h 6.03047 q -0.12203,-1.36271 -0.69152,-2.04406 -0.87457,-1.05762 -2.26778,-1.05762 -1.26101,0 -2.12541,0.84406 -0.85424,0.84407 -0.94576,2.25762 z"
     id="path955" /><path
     d="m 525.45054,900 v -10.79994 h 1.64745 v 1.63728 q 0.6305,-1.14915 1.15932,-1.51525 0.53898,-0.36609 1.17965,-0.36609 0.92542,0 1.88134,0.58982 l -0.6305,1.6983 q -0.67118,-0.39661 -1.34237,-0.39661 -0.59999,0 -1.07796,0.3661 -0.47796,0.35593 -0.68135,0.9966 -0.30508,0.97627 -0.30508,2.13559 V 900 Z"
     id="path957" /></g>
    </g>
    <g
   transform="matrix(6.6287e-17,-1.08255,1.18062,7.2292e-17,-508.811,1410.16)"
   id="g125">
        <g
   aria-label="InteÃrnet"
   id="text123"
   style="font-size:20.827px;font-family:ArialMT, Arial, sans-serif;fill:#ffffff"><path
     d="m 473.94236,900 v -14.90839 h 1.97287 V 900 Z"
     id="path960" /><path
     d="m 479.15928,900 v -10.79994 h 1.64745 v 1.53559 q 1.18982,-1.77965 3.43727,-1.77965 0.97626,0 1.78982,0.35593 0.82372,0.34576 1.2305,0.91524 0.40678,0.56949 0.56949,1.35254 0.10169,0.50847 0.10169,1.77965 V 900 h -1.8305 v -6.56945 q 0,-1.11864 -0.21355,-1.66779 -0.21356,-0.55932 -0.76271,-0.88474 -0.53898,-0.33559 -1.27118,-0.33559 -1.16949,0 -2.02372,0.74237 -0.84406,0.74236 -0.84406,2.81693 V 900 Z"
     id="path962" /><path
     d="m 494.73885,898.36272 0.26441,1.61694 q -0.77288,0.16271 -1.38304,0.16271 -0.99661,0 -1.54576,-0.31525 -0.54915,-0.31525 -0.77288,-0.82372 -0.22372,-0.51865 -0.22372,-2.16609 v -6.21353 h -1.34237 v -1.42372 h 1.34237 v -2.67456 l 1.82033,-1.0983 v 3.77286 h 1.84066 v 1.42372 h -1.84066 v 6.31522 q 0,0.78305 0.0915,1.00677 0.1017,0.22373 0.31525,0.35593 0.22373,0.13221 0.63051,0.13221 0.30508,0 0.80338,-0.0712 z"
     id="path964" /><path
     d="m 503.92185,896.52205 1.89152,0.2339 q -0.44746,1.65762 -1.65762,2.57287 -1.21016,0.91525 -3.09151,0.91525 -2.36948,0 -3.76269,-1.45423 -1.38304,-1.4644 -1.38304,-4.09828 0,-2.72541 1.40338,-4.23049 1.40338,-1.50507 3.64066,-1.50507 2.16609,0 3.53896,1.47456 1.37287,1.47457 1.37287,4.14913 0,0.16271 -0.0102,0.48813 h -8.05419 q 0.1017,1.77966 1.00678,2.72541 0.90508,0.94576 2.25761,0.94576 1.00677,0 1.71863,-0.52881 0.71186,-0.52881 1.12881,-1.68813 z m -6.01013,-2.9593 h 6.03047 q -0.12203,-1.36271 -0.69152,-2.04406 -0.87457,-1.05762 -2.26778,-1.05762 -1.26101,0 -2.12542,0.84406 -0.85423,0.84407 -0.94575,2.25762 z"
     id="path966" /><path
     d="m 508.68115,900 v -14.90839 h 1.97287 V 900 Z m -0.50848,-15.82364 1.35254,-2.84744 h 2.39999 l -2.23728,2.84744 z"
     id="path968" /><path
     d="m 513.87773,900 v -10.79994 h 1.64745 v 1.63728 q 0.6305,-1.14915 1.15931,-1.51525 0.53898,-0.36609 1.17965,-0.36609 0.92542,0 1.88135,0.58982 l -0.6305,1.6983 q -0.67119,-0.39661 -1.34237,-0.39661 -0.6,0 -1.07796,0.3661 -0.47796,0.35593 -0.68135,0.9966 -0.30509,0.97627 -0.30509,2.13559 V 900 Z"
     id="path970" /><path
     d="m 520.83362,900 v -10.79994 h 1.64745 v 1.53559 q 1.18982,-1.77965 3.43727,-1.77965 0.97626,0 1.78982,0.35593 0.82372,0.34576 1.2305,0.91524 0.40678,0.56949 0.56949,1.35254 0.10169,0.50847 0.10169,1.77965 V 900 h -1.8305 v -6.56945 q 0,-1.11864 -0.21355,-1.66779 -0.21356,-0.55932 -0.76271,-0.88474 -0.53898,-0.33559 -1.27118,-0.33559 -1.16949,0 -2.02372,0.74237 -0.84406,0.74236 -0.84406,2.81693 V 900 Z"
     id="path972" /><path
     d="m 539.80978,896.52205 1.89152,0.2339 q -0.44746,1.65762 -1.65762,2.57287 -1.21016,0.91525 -3.09151,0.91525 -2.36948,0 -3.76269,-1.45423 -1.38304,-1.4644 -1.38304,-4.09828 0,-2.72541 1.40338,-4.23049 1.40338,-1.50507 3.64066,-1.50507 2.16609,0 3.53896,1.47456 1.37287,1.47457 1.37287,4.14913 0,0.16271 -0.0102,0.48813 h -8.0542 q 0.1017,1.77966 1.00678,2.72541 0.90508,0.94576 2.25761,0.94576 1.00678,0 1.71864,-0.52881 0.71186,-0.52881 1.1288,-1.68813 z m -6.01013,-2.9593 h 6.03047 q -0.12203,-1.36271 -0.69152,-2.04406 -0.87457,-1.05762 -2.26778,-1.05762 -1.26101,0 -2.12541,0.84406 -0.85424,0.84407 -0.94576,2.25762 z"
     id="path974" /><path
     d="m 547.99618,898.36272 0.2644,1.61694 q -0.77287,0.16271 -1.38304,0.16271 -0.9966,0 -1.54575,-0.31525 -0.54915,-0.31525 -0.77288,-0.82372 -0.22373,-0.51865 -0.22373,-2.16609 v -6.21353 h -1.34236 v -1.42372 h 1.34236 v -2.67456 l 1.82033,-1.0983 v 3.77286 h 1.84067 v 1.42372 h -1.84067 v 6.31522 q 0,0.78305 0.0915,1.00677 0.1017,0.22373 0.31526,0.35593 0.22372,0.13221 0.6305,0.13221 0.30509,0 0.80339,-0.0712 z"
     id="path976" /></g>
    </g>
    <g
   transform="matrix(6.19757e-17,-1.01214,1.18062,7.2292e-17,-416.755,1376.9)"
   id="g129">
        <g
   aria-label="WLAN"
   id="text127"
   style="font-size:20.827px;font-family:ArialMT, Arial, sans-serif;fill:#ffffff"><path
     d="m 476.21015,900 -3.95591,-14.90839 h 2.02371 l 2.26779,9.77283 q 0.3661,1.53558 0.6305,3.05083 0.56949,-2.38982 0.67118,-2.75592 l 2.83728,-10.06774 h 2.37964 l 2.13558,7.54572 q 0.80339,2.80676 1.15932,5.27794 0.28474,-1.41356 0.74237,-3.24405 l 2.33897,-9.57961 h 1.98304 L 487.33551,900 h -1.90169 l -3.14235,-11.35926 q -0.39661,-1.42372 -0.4678,-1.74914 -0.23389,1.02711 -0.43728,1.74914 L 478.22369,900 Z"
     id="path979" /><path
     d="m 493.18293,900 v -14.90839 h 1.97287 v 13.14908 h 7.34233 V 900 Z"
     id="path981" /><path
     d="m 503.20999,900 5.72539,-14.90839 h 2.12541 L 517.16245,900 h -2.24744 l -1.73897,-4.51523 h -6.23387 L 505.30489,900 Z m 4.30167,-6.122 h 5.05421 l -1.55592,-4.12879 q -0.71186,-1.88134 -1.05762,-3.09151 -0.28475,1.43389 -0.80339,2.84744 z"
     id="path983" /><path
     d="m 518.71838,900 v -14.90839 h 2.02372 l 7.83046,11.70502 v -11.70502 h 1.89151 V 900 h -2.02371 l -7.83047,-11.71519 V 900 Z"
     id="path985" /></g>
    </g>
    <g
   transform="matrix(6.6287e-17,-1.08255,1.18062,7.2292e-17,-324.755,1406.97)"
   id="g133">
        <g
   aria-label="LAN"
   id="text131"
   style="font-size:20.827px;font-family:ArialMT, Arial, sans-serif;fill:#ffffff"><path
     d="m 473.52542,900 v -14.90839 h 1.97287 v 13.14908 h 7.34233 V 900 Z"
     id="path988" /><path
     d="m 483.55248,900 5.72539,-14.90839 h 2.12541 L 497.50494,900 h -2.24745 l -1.73897,-4.51523 h -6.23386 L 485.64738,900 Z m 4.30167,-6.122 h 5.05421 l -1.55593,-4.12879 q -0.71186,-1.88134 -1.05762,-3.09151 -0.28474,1.43389 -0.80338,2.84744 z"
     id="path990" /><path
     d="m 499.06086,900 v -14.90839 h 2.02372 l 7.83046,11.70502 v -11.70502 h 1.89152 V 900 h -2.02372 l -7.83046,-11.71519 V 900 Z"
     id="path992" /></g>
    </g>
    <g
   transform="matrix(6.6287e-17,-1.08255,1.18062,7.2292e-17,-236.556,1398.07)"
   id="g137">
        <g
   aria-label="Info"
   id="text135"
   style="font-size:20.827px;font-family:ArialMT, Arial, sans-serif;fill:#ffffff"><path
     d="m 473.94236,900 v -14.90839 h 1.97287 V 900 Z"
     id="path995" /><path
     d="m 479.15928,900 v -10.79994 h 1.64745 v 1.53559 q 1.18982,-1.77965 3.43727,-1.77965 0.97626,0 1.78982,0.35593 0.82372,0.34576 1.2305,0.91524 0.40678,0.56949 0.56949,1.35254 0.10169,0.50847 0.10169,1.77965 V 900 h -1.8305 v -6.56945 q 0,-1.11864 -0.21355,-1.66779 -0.21356,-0.55932 -0.76271,-0.88474 -0.53898,-0.33559 -1.27118,-0.33559 -1.16949,0 -2.02372,0.74237 -0.84406,0.74236 -0.84406,2.81693 V 900 Z"
     id="path997" /><path
     d="m 491.17955,900 v -9.37622 h -1.61694 v -1.42372 h 1.61694 v -1.14914 q 0,-1.08813 0.19322,-1.61694 0.26441,-0.71186 0.92542,-1.14915 0.67118,-0.44746 1.87117,-0.44746 0.77288,0 1.70847,0.18305 l -0.27457,1.59661 q -0.56949,-0.1017 -1.07796,-0.1017 -0.8339,0 -1.17966,0.35593 -0.34576,0.35593 -0.34576,1.3322 v 0.9966 h 2.10507 v 1.42372 h -2.10507 V 900 Z"
     id="path999" /><path
     d="m 495.84732,894.60003 q 0,-2.99998 1.66779,-4.44404 1.39321,-1.19999 3.39659,-1.19999 2.22711,0 3.64066,1.46439 1.41355,1.45423 1.41355,4.0271 0,2.08473 -0.63051,3.28473 -0.62033,1.18982 -1.82033,1.85083 -1.18982,0.66102 -2.60337,0.66102 -2.26778,0 -3.67117,-1.45423 -1.39321,-1.45423 -1.39321,-4.18981 z m 1.88135,0 q 0,2.07457 0.90508,3.11185 0.90508,1.02711 2.27795,1.02711 1.3627,0 2.26778,-1.03728 0.90508,-1.03728 0.90508,-3.1627 0,-2.00337 -0.91525,-3.03049 -0.90508,-1.03728 -2.25761,-1.03728 -1.37287,0 -2.27795,1.02711 -0.90508,1.02712 -0.90508,3.10168 z"
     id="path1001" /></g>
    </g>
    <g
   transform="matrix(1,0,0,1,0.282228,11.2593)"
   id="g141">
        <path
   d="M1111,248C1098.67,348.331 1100.37,448.664 1111,549C1114.9,585.859 1128.12,597.012 1140,549C1163.97,452.146 1168.51,352.471 1140,248C1135.06,229.889 1113.83,224.973 1111,248Z"
   style="fill:rgb(97,99,111);stroke:rgb(55,53,53);stroke-width:3.5px;"
   id="path139" />
    </g>
    <g
   transform="matrix(-1,-1.22465e-16,1.22465e-16,-1,1402.38,826.741)"
   id="g145">
        <path
   d="M1105.38,247.741C1088.36,394.782 1105.73,513.157 1111,549C1116.39,585.67 1142,598.095 1148,549C1160.12,449.842 1156.1,351.762 1140,248C1134.46,212.322 1110.52,203.367 1105.38,247.741Z"
   style="fill:rgb(97,99,111);stroke:rgb(55,53,53);stroke-width:3.5px;"
   id="path143" />
    </g>
</svg>
