<?xml version="1.0" encoding="UTF-8"?>
<svg version="1.1" viewBox="0 0 514 514" xmlns="http://www.w3.org/2000/svg" xmlns:cc="http://creativecommons.org/ns#" xmlns:dc="http://purl.org/dc/elements/1.1/" xmlns:rdf="http://www.w3.org/1999/02/22-rdf-syntax-ns#">
 <metadata>
  <rdf:RDF>
   <cc:Work rdf:about="">
    <dc:format>image/svg+xml</dc:format>
    <dc:type rdf:resource="http://purl.org/dc/dcmitype/StillImage"/>
    <dc:title/>
    <cc:license rdf:resource="http://creativecommons.org/licenses/by-nc-sa/4.0/"/>
    <dc:creator>
     <cc:Agent>
      <dc:title>Jan Alexander</dc:title>
     </cc:Agent>
    </dc:creator>
   </cc:Work>
   <cc:License rdf:about="http://creativecommons.org/licenses/by-nc-sa/4.0/">
    <cc:permits rdf:resource="http://creativecommons.org/ns#Reproduction"/>
    <cc:permits rdf:resource="http://creativecommons.org/ns#Distribution"/>
    <cc:requires rdf:resource="http://creativecommons.org/ns#Notice"/>
    <cc:requires rdf:resource="http://creativecommons.org/ns#Attribution"/>
    <cc:prohibits rdf:resource="http://creativecommons.org/ns#CommercialUse"/>
    <cc:permits rdf:resource="http://creativecommons.org/ns#DerivativeWorks"/>
    <cc:requires rdf:resource="http://creativecommons.org/ns#ShareAlike"/>
   </cc:License>
  </rdf:RDF>
 </metadata>
 <g>
  <path d="m44.163 322.75c-4.1299-62.139-1.5935-124.47 3.1389-186.49 0.24976-7.4713 0.20019-17.905 9.5225-19.559 27.519-4.6379 55.52-5.7463 83.312-7.9291 52.694-2.4741 105.46-4.3707 158.2-2.0419 46.465 1.23 93.029 4.2061 139.2 9.5092 13.598 2.3876 22.438 0.44581 26.354 8.9654 7.2124 40.459 5.8702 81.753 8.0213 122.65-0.33828 40.328-3.0483 80.798-9.7534 120.59-1.2566 7.3068-2.4423 17.932-12.042 17.938-62.161 12.495-125.25 22.08-188.81 21.65-66.841 0.21272-133.93-4.6622-199.42-18.365-9.9788-2.4042-9.7962-14.443-12.35-22.437-2.0192-14.803-4.2353-29.57-5.3725-44.475z" fill="#ccc" stroke="#666" stroke-width="1px"/>
  <path d="m70.906 391.49c-5.373-9.6334-4.4817-21.27-6.565-31.877-5.659-42.998-6.1377-86.462-5.6993-129.77 0.40989-13.681 0.20954-27.544 1.3174-41.103 1.4018-4.8865 7.4127-4.7858 11.487-4.3339-0.51964 23.518-0.09773 47.981 8.8222 70.112 2.063 5.4248 9.6687 6.5576 12.38 1.011 9.5341-20.544 9.7941-43.835 11.206-66.061-1.0382-6.0597 1.2387-9.8887 7.7923-8.5017 71.15-4.6222 142.52-5.6559 213.77-2.6481 24.628 0.94555 49.241 2.4262 73.843 3.8419 6.2975 3.1832 3.248 11.787 4.1592 17.505 0.70702 43.481-0.78587 86.986-3.3042 130.39-1.9916 21.115-4.2017 42.375-9.0956 63.02-0.46842 6.5826-7.8228 4.4252-12.42 5.7672-41.739 6.25-83.928 9.729-126.15 9.0632-52.833-0.28442-105.75-3.5079-157.91-12.229-7.9164-1.1521-15.751-2.7972-23.627-4.1879z" fill="#b41928" stroke="#666" stroke-width="1px"/>
  <g fill="#ccff40" stroke="#666" stroke-width="1px">
   <path d="m151.13 403.08c-0.25388-2.775-0.49917-5.5505-0.56634-8.3376-0.17134-2.9584 0.0416-5.921 0.06-8.8815 0.12-3.2194 0.26016-6.4404 0.44151-9.6563 0.18177-1.6008 0.26995-3.2178 0.73637-4.7693 0.18046-0.9143 0.49151-1.8259 0.92737-2.6346 0.38433-0.24645 0.7095-0.78113 1.2095-0.46416 0.49069 0.0933 0.96501 0.21395 1.2363 0.67282 0.51339 0.47297 0.89715 1.033 1.1376 1.6892 0.61 1.2734 1.1132 2.6178 1.2674 4.0288 0.50635 3.1347 1.0215 6.2721 1.3655 9.4288 0.23631 2.541 0.45542 5.0842 0.89322 7.6005 0.44814 2.6572 0.67721 5.3478 1.1064 8.0056 0.19645 1.0356 0.44415 2.0552 0.91065 3.0063 0.18139 0.44189 0.36277 0.88379 0.54416 1.3257-3.7566-0.33814-7.5131-0.67627-11.27-1.0144z"/>
   <path d="m188.06 406.04c-0.23587-0.87144-0.64765-1.715-0.7682-2.6047-0.0199-4.5317-0.035-9.0633 0.0864-13.594 0.0293-3.3572 0.33534-6.704 0.52425-10.054 0.17689-1.5834 0.22662-3.189 0.48539-4.758 0.21381-0.8642 0.40367-1.7379 0.91243-2.4857 0.23495-0.54397 0.78971-0.83988 1.1796-1.2637 0.49058-0.0332 0.96727-0.0315 1.2637 0.42327 0.74215 0.51824 0.99537 1.4142 1.4444 2.1588 0.40615 1.2463 0.85395 2.4823 0.99489 3.7937 0.44411 2.5921 0.82189 5.198 1.1388 7.808 0.25013 2.8491 0.48464 5.7 0.91802 8.5286 0.29666 1.8054 0.41266 3.6279 0.49271 5.4538 0.10324 1.2893 0.0819 2.5991 0.26547 3.8751 0.29632 1.0661 0.59264 2.1323 0.88896 3.1984-3.2756-0.15979-6.5512-0.31957-9.8269-0.47936z"/>
   <path d="m224.31 407.46c-0.34314-0.97432-0.81543-1.9218-1.0781-2.9128-0.11092-1.5732-0.0783-3.1457 0.0337-4.7178 0.2424-5.0809 0.509-10.16 0.8779-15.234 0.086-1.8246 0.26687-3.6395 0.55829-5.4429 0.20764-1.6914 0.51488-3.3668 0.82424-5.0419 0.47463-0.45216 0.85216-1.0568 1.5507-1.1573 0.48206-0.24624 1.0026 0.0846 1.5038 0.12584 0.4528 0.60164 1.1375 1.0755 1.2461 1.8668 0.36226 1.1526 0.75947 2.2974 0.85178 3.5109 0.38359 2.7579 0.87978 5.5028 1.0444 8.286 0.37158 4.6362 0.82965 9.265 1.2356 13.898 0.0944 1.5597 0.26577 3.1247 0.27591 4.6833-0.20349 0.77666-0.40697 1.5533-0.61046 2.33-2.7713-0.0646-5.5426-0.12929-8.3139-0.19393z"/>
   <path d="m259.51 408.03c-0.0528-2.4849-0.0719-4.9694 0.0584-7.4524 0.16796-5.7531 0.58389-11.495 0.9201-17.24 0.14103-1.7505 0.0994-3.5242 0.53045-5.2377 0.22297-1.3763 0.58678-2.7368 1.0822-4.0319 0.34843-0.37234 0.62629-0.8596 1.0178-1.1618 0.4928-0.12151 0.98641-0.28567 1.4723-0.0439 0.52411 0.0215 0.83034 0.34953 1.054 0.79382 0.49987 0.58019 0.71561 1.2963 0.91297 2.0211 0.41207 1.3607 0.58531 2.7847 0.84479 4.1803 0.41103 3.5661 0.79161 7.1351 1.0522 10.716 0.19898 4.5246 0.32708 9.0536 0.47968 13.58-0.12239 1.2839-0.35219 2.5505-0.62335 3.8105-2.9338 0.0219-5.8676 0.0437-8.8015 0.0656z"/>
   <path d="m295.49 407.2c0.17459-1.4682 0.24084-2.9411 0.18831-4.4189-0.042-3.2019-0.0161-6.4068 0.0988-9.6056 0.42512-3.8418 0.86422-7.6819 1.4382-11.505 0.25991-2.177 0.77032-4.3159 1.2168-6.4576 0.44686-1.0474 0.81809-2.1811 1.5459-3.0569 0.40863-0.22022 0.85784-0.49923 1.2338-0.07 0.39991 0.44901 0.96338 0.79975 1.0332 1.4471 0.44148 1.2763 0.81085 2.5712 1.0204 3.9072 0.32613 1.5089 0.59667 3.0261 0.70158 4.5681 0.20009 1.8476 0.40957 3.6947 0.38565 5.5562 0.0684 4.067 0.21186 8.1347 0.25957 12.201-0.0941 1.0705-0.0467 2.1664-0.23196 3.2205-0.36352 1.3046-0.87802 2.5568-1.3632 3.8192-2.509 0.13167-5.018 0.26334-7.527 0.39501z"/>
  </g>
  <g transform="rotate(-90 .37523 .37523)" fill="#f2f2f2" aria-label="Info">
   <path d="m-367.11 302.61h0.55334v-4.6267h-0.55334z"/>
   <path d="m-363.2 302.61h0.53333v-2.1067c0-0.71333-0.47333-1.1733-1.1933-1.1733-0.36667 0-0.73334 0.12666-1.04 0.35333l-0.12-0.28667h-0.37334v3.2133h0.53334v-2.5133c0.24666-0.19333 0.54-0.3 0.85333-0.3 0.52 0 0.80667 0.29334 0.80667 0.81334z"/>
   <path d="m-361.51 302.61h0.53333v-2.7667h1v-0.44667h-1v-0.7c0-0.41333 0.19333-0.62666 0.56-0.62666 0.17333 0 0.4 0.0333 0.56667 0.11333l0.11333-0.4c-0.20667-0.1-0.41333-0.16667-0.64-0.16667-0.68 0-1.1333 0.46-1.1333 1.1467v0.63333h-0.48v0.44667h0.48z"/>
   <path d="m-358.05 302.68c0.94667 0 1.5867-0.68666 1.5867-1.7133 0-0.99333-0.59334-1.6333-1.5067-1.6333-0.94667 0-1.58 0.68-1.58 1.7067 0 0.99334 0.58667 1.64 1.5 1.64zm0.0733-0.46666c-0.62 0-1.04-0.5-1.04-1.24 0-0.71334 0.38-1.1733 0.97334-1.1733 0.62 0 1.0467 0.50667 1.0467 1.24 0 0.70667-0.38666 1.1733-0.98 1.1733z"/>
  </g>
  <g fill="none" stroke="#666" stroke-width="1px">
   <path d="m421.05 122.07c-1.6535 7.6254-1.7833 15.455-2.5554 23.197-0.53806 6.6816-0.62157 13.402-0.59382 20.103 0.22864 13.659 0.57115 27.325 1.4936 40.953 0.74014 6.0717 1.1328 12.208 2.2355 18.222 0.98474 4.5862 1.994 9.2146 3.5932 13.612 0.8504 1.5654 2.1366 2.6295 3.7896 3.2715 1.3776-0.54908 3.6521-4.9e-4 3.9355-1.8886 1.9096-3.718 2.4934-7.8842 3.277-11.943 2.3575-17.088 4.821-34.179 6.353-51.363 0.67236-9.6456 0.90047-19.332 0.22713-28.984-0.18639-4.8832-0.85758-9.7587-1.769-14.548-0.76435-3.1506-1.7054-6.2327-3.3869-9.0283-0.85925-2.0083-2.7735-3.3534-4.3315-4.7803-2.5342-1.3785-5.5505-1.5119-8.3267-0.88064-1.5319 1.1499-2.7335 2.5833-3.9414 4.0564z"/>
   <path d="m425.08 237.95c1.3505-1.6934 2.7858-3.3416 3.1917-5.5384 1.4157-3.9133 1.5251-8.1481 2.32-12.212 1.2293-7.8552 2.3935-15.719 3.0715-23.644 1.1885-10.638 2.087-21.327 1.825-32.04-0.0112-6.9574-0.0353-13.914-0.67229-20.849-0.39571-3.642-0.16815-7.3881-1.0109-10.955-0.72684-2.4304-0.99198-5.0727-2.776-7.0181-1.1688-1.6298-2.77-3.1912-4.8283-3.5187-1.6918-0.82296-3.3716-0.2569-5.1445-0.10605"/>
  </g>
  <g fill="#ccc" stroke="#666" stroke-width="1px">
   <path d="m93.768 121.01c1.6535 7.6254 1.7833 15.455 2.5554 23.197 0.53806 6.6816 0.62157 13.402 0.59382 20.103-0.22864 13.659-0.57115 27.325-1.4936 40.953-0.74014 6.0717-1.1328 12.208-2.2355 18.222-0.98474 4.5862-1.994 9.2146-3.5932 13.612-0.8504 1.5654-2.1366 2.6295-3.7896 3.2715-1.3776-0.54908-3.6521-4.9e-4 -3.9355-1.8886-1.9096-3.718-2.4934-7.8842-3.277-11.943-2.3575-17.088-4.821-34.179-6.353-51.363-0.67236-9.6456-0.90047-19.332-0.22713-28.984 0.18639-4.8832 0.85758-9.7587 1.769-14.548 0.76435-3.1506 1.7054-6.2327 3.3869-9.0283 0.85925-2.0083 2.7735-3.3534 4.3315-4.7803 2.5342-1.3785 5.5505-1.5119 8.3267-0.88064 1.5319 1.1499 2.7335 2.5833 3.9414 4.0564z"/>
   <path d="m89.744 236.89c-1.3505-1.6934-2.7858-3.3416-3.1917-5.5384-1.4157-3.9133-1.5251-8.1481-2.32-12.212-1.2293-7.8552-2.3935-15.719-3.0715-23.644-1.1885-10.638-2.087-21.327-1.825-32.04 0.0112-6.9574 0.0353-13.914 0.67229-20.849 0.39571-3.642 0.16815-7.3881 1.0109-10.955 0.72684-2.4304 0.99198-5.0727 2.776-7.0181 1.1688-1.6298 2.77-3.1912 4.8283-3.5187 1.6918-0.82296 3.3716-0.2569 5.1445-0.10605"/>
  </g>
  <g fill="none" stroke-width="2">
   <g stroke="#711019">
    <path d="m108.16 187.45c19.843-1.3062 39.708-2.025 59.553-3.2824 23.372-0.52959 46.756-1.0921 70.13-1.0737 37.63-0.42097 75.264 0.6304 112.85 2.3844 16.058 0.39859 32.065 1.6715 48.11 2.3869"/>
    <path d="m108.38 191.45c19.843-1.3062 39.708-2.025 59.553-3.2824 23.372-0.52959 46.756-1.0921 70.13-1.0737 37.63-0.42097 75.264 0.6304 112.85 2.3844 16.058 0.39859 32.065 1.6715 48.11 2.3869"/>
    <path d="m108.6 195.45c19.843-1.3062 39.708-2.025 59.553-3.2824 23.372-0.52959 46.756-1.0921 70.13-1.0737 37.63-0.42097 75.264 0.6304 112.85 2.3844 16.058 0.39859 32.065 1.6715 48.11 2.3869"/>
    <path d="m108.6 199.45c19.843-1.3062 39.708-2.025 59.553-3.2824 23.372-0.52959 46.756-1.0921 70.13-1.0737 37.63-0.42097 75.264 0.6304 112.85 2.3844 16.058 0.39859 32.065 1.6715 48.11 2.3869"/>
   </g>
   <g stroke="#000">
    <path d="m234.15 183.09 20.707-0.0945"/>
    <path d="m258.58 183 31.508 0.37308"/>
    <path d="m293.46 183.45 29.768 0.88124"/>
    <path d="m326.7 184.46 27.632 1.1213"/>
    <path d="m357.78 185.71 20.598 1.0555"/>
    <path d="m234.15 187.09 20.707-0.0949"/>
    <path d="m258.58 187 31.508 0.3691"/>
    <path d="m293.46 187.45 29.768 0.87819"/>
    <path d="m326.7 188.45 27.632 1.1225"/>
    <path d="m357.78 189.7 20.598 1.0512"/>
    <path d="m234.15 191.1 20.707-0.0953"/>
    <path d="m258.58 191 31.508 0.36506"/>
    <path d="m293.46 191.44 29.768 0.8751"/>
    <path d="m326.7 192.44 27.632 1.1238"/>
    <path d="m357.78 193.69 20.598 1.0469"/>
    <path d="m234.15 195.1 20.707-0.0953"/>
    <path d="m258.58 195 31.508 0.36506"/>
    <path d="m293.46 195.44 29.768 0.8751"/>
    <path d="m326.7 196.44 27.632 1.1238"/>
    <path d="m357.78 197.69 20.598 1.0469"/>
   </g>
  </g>
  <g fill="#f2f2f2" font-family="sans-serif" font-size="6px" letter-spacing="0px" word-spacing="0px">
   <text transform="rotate(-90)" x="-364.64227" y="156.20799" style="line-height:1.25" xml:space="preserve"><tspan x="-364.64227" y="156.20799" font-family="Cantarell" font-size="6.6667px">Power</tspan></text>
   <text transform="rotate(-90)" x="-367.00092" y="192.67665" style="line-height:1.25" xml:space="preserve"><tspan x="-367.00092" y="192.67665" font-family="Cantarell" font-size="6.6667px">LAN</tspan></text>
   <text transform="rotate(-90)" x="-368.10437" y="229.84973" style="line-height:1.25" xml:space="preserve"><tspan x="-368.10437" y="229.84973" font-family="Cantarell" font-size="6.6667px">WLAN</tspan></text>
   <text transform="rotate(-90)" x="-369.21875" y="266.3157" style="line-height:1.25" xml:space="preserve"><tspan x="-369.21875" y="266.3157" font-family="Cantarell" font-size="6.6667px">DSL</tspan></text>
  </g>
  <g>
   <circle cx="148.07" cy="176.13" r="14" fill="#ccc" stroke="#666"/>
   <text x="135.53265" y="178.60301" fill="#000000" font-family="sans-serif" font-size="40px" style="line-height:1.25" xml:space="preserve"><tspan x="135.53265" y="178.60301" font-family="sans-serif" font-size="8px" style="font-variant-caps:normal;font-variant-east-asian:normal;font-variant-ligatures:normal;font-variant-numeric:normal">Power</tspan></text>
  </g>
  <g>
   <circle cx="189.32" cy="175.44" r="14" fill="#ccc" stroke="#666"/>
   <text x="177.52489" y="178.23613" fill="#000000" font-family="sans-serif" font-size="40px" style="line-height:1.25" xml:space="preserve"><tspan x="177.52489" y="178.23613" font-family="sans-serif" font-size="8px" style="font-variant-caps:normal;font-variant-east-asian:normal;font-variant-ligatures:normal;font-variant-numeric:normal">WLAN</tspan></text>
  </g>
 </g>
</svg>
