<?xml version="1.0" encoding="UTF-8"?>
<svg width="514" height="514" version="1.1" viewBox="0 0 514 514" xmlns="http://www.w3.org/2000/svg" xmlns:cc="http://creativecommons.org/ns#" xmlns:dc="http://purl.org/dc/elements/1.1/" xmlns:rdf="http://www.w3.org/1999/02/22-rdf-syntax-ns#">
 <metadata>
  <rdf:RDF>
   <cc:Work rdf:about="">
    <dc:format>image/svg+xml</dc:format>
    <dc:type rdf:resource="http://purl.org/dc/dcmitype/StillImage"/>
    <dc:title/>
    <cc:license rdf:resource="http://creativecommons.org/licenses/by-nc-sa/4.0/"/>
    <dc:creator>
     <cc:Agent>
      <dc:title>Jan Alexander</dc:title>
     </cc:Agent>
    </dc:creator>
   </cc:Work>
   <cc:License rdf:about="http://creativecommons.org/licenses/by-nc-sa/4.0/">
    <cc:permits rdf:resource="http://creativecommons.org/ns#Reproduction"/>
    <cc:permits rdf:resource="http://creativecommons.org/ns#Distribution"/>
    <cc:requires rdf:resource="http://creativecommons.org/ns#Notice"/>
    <cc:requires rdf:resource="http://creativecommons.org/ns#Attribution"/>
    <cc:prohibits rdf:resource="http://creativecommons.org/ns#CommercialUse"/>
    <cc:permits rdf:resource="http://creativecommons.org/ns#DerivativeWorks"/>
    <cc:requires rdf:resource="http://creativecommons.org/ns#ShareAlike"/>
   </cc:License>
  </rdf:RDF>
 </metadata>
 <g>
  <rect x="80.5" y="18.5" width="350" height="480" ry="12" fill="#262626" stroke="#666"/>
  <path d="m306.5 55.5h68c3.324 0 6 2.676 6 6v388c0 3.324-2.676 6-6 6h-68c-3.324 0-6-2.676-6-6v-388c0-3.324 2.676-6 6-6z" fill="#0d0d0d" stroke="#666"/>
  <g fill="#0f0">
   <rect x="323" y="95" width="35" height="8"/>
   <rect x="323" y="215" width="35" height="8"/>
   <rect x="323" y="255" width="35" height="8"/>
   <rect x="323" y="135" width="35" height="8"/>
   <rect x="323" y="175" width="35" height="8"/>
  </g>
  <g fill="#f2f2f2" aria-label="Fon">
   <path d="m332.11 155.64v-7.6354h5.1511v0.90104h-4.1406v2.3646h3.5833v0.90105h-3.5833v3.4688z"/>
   <path d="m338.11 152.87q0-1.5365 0.85417-2.276 0.71354-0.61458 1.7396-0.61458 1.1406 0 1.8646 0.75 0.72396 0.7448 0.72396 2.0625 0 1.0677-0.32291 1.6823-0.31771 0.60937-0.9323 0.94791-0.60937 0.33855-1.3333 0.33855-1.1615 0-1.8802-0.7448-0.71354-0.74479-0.71354-2.1458zm0.96354 0q0 1.0625 0.46354 1.5938 0.46355 0.52604 1.1667 0.52604 0.69792 0 1.1615-0.53125 0.46354-0.53125 0.46354-1.6198 0-1.026-0.46875-1.5521-0.46355-0.53125-1.1563-0.53125-0.70312 0-1.1667 0.52605-0.46354 0.52604-0.46354 1.5885z"/>
   <path d="m344.4 155.64v-5.5313h0.84376v0.78646q0.60937-0.91146 1.7604-0.91146 0.5 0 0.91667 0.18229 0.42187 0.17709 0.63021 0.46875 0.20833 0.29167 0.29167 0.69271 0.0521 0.26042 0.0521 0.91146v3.4011h-0.9375v-3.3646q0-0.57292-0.10938-0.85417-0.10937-0.28646-0.39062-0.45312-0.27605-0.17188-0.65105-0.17188-0.59896 0-1.0365 0.38021-0.43229 0.38021-0.43229 1.4427v3.0208z"/>
  </g>
  <g fill="#f2f2f2" aria-label="WLAN">
   <path d="m327.61 195.64-2.026-7.6354h1.0365l1.1615 5.0052q0.18751 0.78646 0.32292 1.5625 0.29167-1.224 0.34375-1.4115l1.4531-5.1563h1.2188l1.0938 3.8646q0.41146 1.4375 0.59375 2.7031 0.14584-0.72397 0.38021-1.6615l1.1979-4.9063h1.0156l-2.0938 7.6354h-0.97396l-1.6094-5.8177q-0.20312-0.72917-0.23958-0.89584-0.11979 0.52605-0.22396 0.89584l-1.6198 5.8177z"/>
   <path d="m336.3 195.64v-7.6354h1.0104v6.7344h3.7604v0.90105z"/>
   <path d="m341.44 195.64 2.9323-7.6354h1.0885l3.125 7.6354h-1.151l-0.89063-2.3125h-3.1927l-0.83854 2.3125zm2.2031-3.1354h2.5886l-0.79688-2.1146q-0.36458-0.96354-0.54167-1.5833-0.14583 0.73438-0.41146 1.4583z"/>
   <path d="m349.4 195.64v-7.6354h1.0365l4.0104 5.9948v-5.9948h0.96875v7.6354h-1.0365l-4.0104-6v6z"/>
  </g>
  <g fill="#f2f2f2" aria-label="Info">
   <path d="m332.3 115.77v-7.6354h1.0104v7.6354z"/>
   <path d="m334.97 115.77v-5.5313h0.84375v0.78646q0.60938-0.91146 1.7604-0.91146 0.5 0 0.91667 0.18229 0.42187 0.17709 0.63021 0.46875 0.20833 0.29167 0.29166 0.69271 0.0521 0.26042 0.0521 0.91147v3.401h-0.93751v-3.3646q0-0.57291-0.10937-0.85417-0.10938-0.28645-0.39063-0.45312-0.27604-0.17188-0.65104-0.17188-0.59896 0-1.0365 0.38021-0.4323 0.38021-0.4323 1.4427v3.0208z"/>
   <path d="m341.13 115.77v-4.8021h-0.82813v-0.72917h0.82813v-0.58854q0-0.5573 0.099-0.82813 0.13541-0.36459 0.47396-0.58854 0.34371-0.22917 0.95829-0.22917 0.39584 0 0.87501 0.0937l-0.14063 0.81771q-0.29167-0.0521-0.55208-0.0521-0.42709 0-0.60417 0.18229-0.17709 0.18229-0.17709 0.68229v0.51042h1.0781v0.72917h-1.0781v4.8021z"/>
   <path d="m343.52 113q0-1.5365 0.85417-2.276 0.71355-0.61459 1.7396-0.61459 1.1406 0 1.8646 0.75 0.72396 0.7448 0.72396 2.0625 0 1.0677-0.32292 1.6823-0.31771 0.60937-0.93229 0.94792-0.60938 0.33854-1.3333 0.33854-1.1615 0-1.8802-0.7448-0.71355-0.74479-0.71355-2.1458zm0.96355 0q0 1.0625 0.46354 1.5938 0.46354 0.52604 1.1667 0.52604 0.69792 0 1.1615-0.53125 0.46355-0.53125 0.46355-1.6198 0-1.026-0.46876-1.5521-0.46354-0.53126-1.1562-0.53126-0.70313 0-1.1667 0.52605-0.46354 0.52604-0.46354 1.5885z"/>
  </g>
  <g fill="#f2f2f2" aria-label="DECT">
   <path d="m326.49 235.77v-7.6354h2.6302q0.89063 0 1.3594 0.10938 0.65625 0.15104 1.1198 0.54688 0.60416 0.51042 0.90104 1.3073 0.30209 0.79167 0.30209 1.8125 0 0.86979-0.20313 1.5417t-0.52084 1.1146q-0.3177 0.4375-0.69791 0.69271-0.37501 0.25-0.91147 0.38021-0.53125 0.13021-1.224 0.13021zm1.0104-0.90105h1.6302q0.75521 0 1.1823-0.14062 0.4323-0.14063 0.68751-0.39584 0.35937-0.35938 0.55729-0.96354 0.20313-0.60938 0.20313-1.474 0-1.1979-0.39584-1.8385-0.39063-0.64584-0.95313-0.86459-0.40625-0.15625-1.3073-0.15625h-1.6042z"/>
   <path d="m334.22 235.77v-7.6354h5.5208v0.90105h-4.5104v2.3386h4.224v0.89583h-4.224v2.599h4.6875v0.90105z"/>
   <path d="m346.77 233.09 1.0104 0.25521q-0.31771 1.2448-1.1458 1.901-0.82292 0.65104-2.0156 0.65104-1.2344 0-2.0104-0.5-0.77084-0.50521-1.1771-1.4583-0.40104-0.95312-0.40104-2.0469 0-1.1927 0.45312-2.0781 0.45834-0.89063 1.2969-1.349 0.84376-0.46354 1.8542-0.46354 1.1458 0 1.9271 0.58333 0.78126 0.58334 1.0886 1.6406l-0.99479 0.23438q-0.26563-0.83334-0.77084-1.2136t-1.2708-0.38021q-0.88021 0-1.474 0.42188-0.58854 0.42187-0.82813 1.1354-0.23958 0.70833-0.23958 1.4635 0 0.97397 0.28125 1.7031 0.28646 0.72396 0.88542 1.0833 0.59896 0.35938 1.2969 0.35938 0.84896 0 1.4375-0.48959 0.58854-0.48958 0.79688-1.4531z"/>
   <path d="m350.97 235.77v-6.7344h-2.5156v-0.90105h6.0521v0.90105h-2.526v6.7344z"/>
  </g>
  <g fill="#f2f2f2" aria-label="Power/DSL">
   <path d="m314.1 275.77v-7.6354h2.8802q0.76041 0 1.1615 0.0729 0.5625 0.0937 0.94271 0.35938 0.38021 0.26042 0.60938 0.73438 0.23437 0.47395 0.23437 1.0417 0 0.97396-0.61979 1.651-0.6198 0.67188-2.2396 0.67188h-1.9583v3.1042zm1.0104-4.0052h1.974q0.97917 0 1.3906-0.36458t0.41146-1.026q0-0.47917-0.24479-0.81772-0.23959-0.34375-0.63542-0.45312-0.25521-0.0677-0.94271-0.0677h-1.9531z"/>
   <path d="m320.76 273q0-1.5365 0.85417-2.276 0.71354-0.61458 1.7396-0.61458 1.1406 0 1.8646 0.75 0.72396 0.74479 0.72396 2.0625 0 1.0677-0.32292 1.6823-0.31771 0.60938-0.9323 0.94792-0.60937 0.33855-1.3333 0.33855-1.1615 0-1.8802-0.7448-0.71354-0.74479-0.71354-2.1458zm0.96354 0q0 1.0625 0.46355 1.5938 0.46354 0.52604 1.1667 0.52604 0.69792 0 1.1615-0.53125t0.46354-1.6198q0-1.026-0.46875-1.5521-0.46354-0.53125-1.1562-0.53125-0.70313 0-1.1667 0.52605-0.46355 0.52604-0.46355 1.5885z"/>
   <path d="m328.07 275.77-1.6927-5.5313h0.96875l0.88021 3.1927 0.32813 1.1875q0.0208-0.0885 0.28646-1.1406l0.88021-3.2396h0.96354l0.82813 3.2083 0.27604 1.0573 0.31771-1.0677 0.94792-3.1979h0.91147l-1.7292 5.5313h-0.97396l-0.88021-3.3125-0.21354-0.94272-1.1198 4.2552z"/>
   <path d="m338.54 273.98 0.96876 0.11979q-0.22917 0.84896-0.84896 1.3177-0.6198 0.46876-1.5833 0.46876-1.2136 0-1.9271-0.7448-0.70834-0.75-0.70834-2.099 0-1.3958 0.71876-2.1667 0.71875-0.77083 1.8646-0.77083 1.1094 0 1.8125 0.75521t0.70313 2.125q0 0.0833-5e-3 0.25h-4.125q0.0521 0.91146 0.51562 1.3958 0.46355 0.48438 1.1563 0.48438 0.51562 0 0.88021-0.27083 0.36458-0.27084 0.57812-0.86459zm-3.0781-1.5156h3.0886q-0.0625-0.69792-0.35417-1.0469-0.44791-0.54167-1.1615-0.54167-0.64583 0-1.0885 0.4323-0.4375 0.43229-0.48438 1.1562z"/>
   <path d="m340.68 275.77v-5.5313h0.84375v0.83854q0.32292-0.58854 0.59375-0.77604 0.27604-0.1875 0.60417-0.1875 0.47396 0 0.96354 0.30208l-0.32291 0.8698q-0.34375-0.20313-0.68751-0.20313-0.30729 0-0.55208 0.1875-0.24479 0.18229-0.34896 0.51042-0.15625 0.5-0.15625 1.0938v2.8958z"/>
   <path d="m343.55 275.9 2.2136-7.8958h0.75l-2.2083 7.8958z"/>
   <path d="m347.33 275.77v-7.6354h2.6302q0.89062 0 1.3594 0.10938 0.65626 0.15104 1.1198 0.54688 0.60417 0.51042 0.90104 1.3073 0.30209 0.79167 0.30209 1.8125 0 0.86979-0.20313 1.5417-0.20312 0.67188-0.52083 1.1146-0.31771 0.4375-0.69792 0.69271-0.375 0.25-0.91146 0.38021-0.53125 0.13021-1.224 0.13021zm1.0104-0.90105h1.6302q0.75521 0 1.1823-0.14062 0.43229-0.14063 0.6875-0.39584 0.35938-0.35938 0.55729-0.96354 0.20313-0.60938 0.20313-1.474 0-1.1979-0.39584-1.8385-0.39062-0.64584-0.95312-0.86459-0.40626-0.15625-1.3073-0.15625h-1.6042z"/>
   <path d="m354.7 273.31 0.95312-0.0833q0.0677 0.57292 0.31251 0.94271 0.25 0.36458 0.77083 0.59375 0.52084 0.22396 1.1719 0.22396 0.57813 0 1.0208-0.17187 0.44271-0.17188 0.65625-0.46876 0.21875-0.30208 0.21875-0.65625 0-0.35937-0.20833-0.625-0.20834-0.27083-0.68751-0.45313-0.30729-0.11979-1.3594-0.36979-1.0521-0.25521-1.474-0.47917-0.54688-0.28646-0.81771-0.70833-0.26563-0.42709-0.26563-0.95313 0-0.57813 0.32813-1.0781 0.32813-0.50521 0.95834-0.76563 0.63021-0.26041 1.401-0.26041 0.84896 0 1.4948 0.27604 0.65104 0.27083 1 0.80208 0.34896 0.53126 0.375 1.2031l-0.96875 0.0729q-0.0781-0.72396-0.53125-1.0938-0.44792-0.3698-1.3281-0.3698-0.91667 0-1.3386 0.33855-0.41666 0.33333-0.41666 0.80729 0 0.41146 0.29687 0.67709 0.29167 0.26562 1.5208 0.54687 1.2344 0.27605 1.6927 0.48438 0.66667 0.30729 0.98438 0.78125 0.31771 0.46875 0.31771 1.0833 0 0.60938-0.34896 1.151-0.34896 0.53646-1.0052 0.83855-0.65104 0.29687-1.4688 0.29687-1.0365 0-1.7396-0.30208-0.69792-0.30208-1.099-0.90625-0.39583-0.60938-0.41666-1.375z"/>
   <path d="m362.13 275.77v-7.6354h1.0104v6.7344h3.7604v0.90105z"/>
  </g>
 </g>
</svg>
