<?xml version="1.0" encoding="UTF-8" standalone="no"?>
<svg
   version="1.1"
   viewBox="0 0 514 514"
   id="svg218"
   sodipodi:docname="avm-fritz-box-7362-sl.svg"
   inkscape:version="1.2.2 (b0a8486541, 2022-12-01)"
   xmlns:inkscape="http://www.inkscape.org/namespaces/inkscape"
   xmlns:sodipodi="http://sodipodi.sourceforge.net/DTD/sodipodi-0.dtd"
   xmlns="http://www.w3.org/2000/svg"
   xmlns:svg="http://www.w3.org/2000/svg"
   xmlns:rdf="http://www.w3.org/1999/02/22-rdf-syntax-ns#"
   xmlns:cc="http://creativecommons.org/ns#"
   xmlns:dc="http://purl.org/dc/elements/1.1/">
  <defs
     id="defs222" />
  <sodipodi:namedview
     id="namedview220"
     pagecolor="#ffffff"
     bordercolor="#666666"
     borderopacity="1.0"
     inkscape:showpageshadow="2"
     inkscape:pageopacity="0.0"
     inkscape:pagecheckerboard="0"
     inkscape:deskcolor="#d1d1d1"
     showgrid="false"
     inkscape:zoom="2.7343289"
     inkscape:cx="223.4552"
     inkscape:cy="254.54144"
     inkscape:window-width="1920"
     inkscape:window-height="1011"
     inkscape:window-x="0"
     inkscape:window-y="0"
     inkscape:window-maximized="1"
     inkscape:current-layer="g216" />
  <metadata
     id="metadata2">
    <rdf:RDF>
      <cc:Work
         rdf:about="">
        <dc:format>image/svg+xml</dc:format>
        <dc:type
           rdf:resource="http://purl.org/dc/dcmitype/StillImage" />
        <dc:title />
        <cc:license
           rdf:resource="http://creativecommons.org/licenses/by-nc-sa/4.0/" />
        <dc:creator>
          <cc:Agent>
            <dc:title>Jan Alexander</dc:title>
          </cc:Agent>
        </dc:creator>
      </cc:Work>
      <cc:License
         rdf:about="http://creativecommons.org/licenses/by-nc-sa/4.0/">
        <cc:permits
           rdf:resource="http://creativecommons.org/ns#Reproduction" />
        <cc:permits
           rdf:resource="http://creativecommons.org/ns#Distribution" />
        <cc:requires
           rdf:resource="http://creativecommons.org/ns#Notice" />
        <cc:requires
           rdf:resource="http://creativecommons.org/ns#Attribution" />
        <cc:prohibits
           rdf:resource="http://creativecommons.org/ns#CommercialUse" />
        <cc:permits
           rdf:resource="http://creativecommons.org/ns#DerivativeWorks" />
        <cc:requires
           rdf:resource="http://creativecommons.org/ns#ShareAlike" />
      </cc:License>
    </rdf:RDF>
  </metadata>
  <g
     id="g216">
    <path
       d="m44.163 322.75c-4.1299-62.139-1.5935-124.47 3.1389-186.49 0.24976-7.4713 0.20019-17.905 9.5225-19.559 27.519-4.6379 55.52-5.7463 83.312-7.9291 52.694-2.4741 105.46-4.3707 158.2-2.0419 46.465 1.23 93.029 4.2061 139.2 9.5092 13.598 2.3876 22.438 0.44581 26.354 8.9654 7.2124 40.459 5.8702 81.753 8.0213 122.65-0.33828 40.328-3.0483 80.798-9.7534 120.59-1.2566 7.3068-2.4423 17.932-12.042 17.938-62.161 12.495-125.25 22.08-188.81 21.65-66.841 0.21272-133.93-4.6622-199.42-18.365-9.9788-2.4042-9.7962-14.443-12.35-22.437-2.0192-14.803-4.2353-29.57-5.3725-44.475z"
       fill="#333"
       stroke="#666"
       stroke-width="1px"
       id="path4" />
    <path
       d="m 72.831712,391.45854 c -6.192355,-9.63034 -5.165136,-21.26325 -7.566129,-31.86689 -6.521968,-42.98436 -7.073667,-86.43458 -6.568413,-129.72884 0.472396,-13.67666 0.241493,-27.53527 1.518296,-41.08997 1.615567,-4.88495 5.131849,-4.51509 9.827459,-4.06333 2.076101,23.95088 -0.0747,42.52338 11.286699,61.1969 2.377596,5.42308 7.031362,4.49241 10.156121,-1.05243 10.988005,-20.53748 8.103221,-33.43861 9.730435,-55.65756 -1.19652,-6.05778 11.01587,-9.58127 18.56886,-8.19471 82.00001,-4.62074 164.25356,-5.65411 246.36881,-2.64726 28.38364,0.94525 56.75,2.42543 85.10368,3.84068 7.25783,3.18219 3.7433,11.78326 4.79345,17.49945 0.81484,43.46721 2.68958,97.08728 -0.21278,140.47752 -2.29531,21.1083 0.07,23.1661 -5.57017,43.80455 -0.53985,6.58051 -5.10066,4.46496 -10.39891,5.80653 -48.10398,6.24802 -109.14941,18.75135 -157.81005,18.08576 -60.88975,-0.28433 -121.87632,-3.50679 -181.99045,-12.22512 -9.123609,-1.15174 -18.152945,-2.79632 -27.229994,-4.18658 z"
       fill="#1a1a1a"
       stroke="#666666"
       stroke-width="1px"
       id="path6"
       sodipodi:nodetypes="ccccccccccccccccccc" />
    <g
       fill="#ccff40"
       stroke="#666666"
       stroke-width="1px"
       id="g18"
       transform="translate(115.22636,-56.798881)">
      <path
         d="m 151.13,405.08 c -0.25388,-2.775 -0.49917,-5.5505 -0.56634,-8.3376 -0.17134,-2.9584 0.0416,-5.921 0.06,-8.8815 0.12,-3.2194 0.26016,-6.4404 0.44151,-9.6563 0.18177,-1.6008 0.26995,-3.2178 0.73637,-4.7693 0.18046,-0.9143 0.49151,-1.8259 0.92737,-2.6346 0.38433,-0.24645 0.7095,-0.78113 1.2095,-0.46416 0.49069,0.0933 0.96501,0.21395 1.2363,0.67282 0.51339,0.47297 0.89715,1.033 1.1376,1.6892 0.61,1.2734 1.1132,2.6178 1.2674,4.0288 0.50635,3.1347 1.0215,6.2721 1.3655,9.4288 0.23631,2.541 0.45542,5.0842 0.89322,7.6005 0.44814,2.6572 0.67721,5.3478 1.1064,8.0056 0.19645,1.0356 0.44415,2.0552 0.91065,3.0063 0.18139,0.44189 0.36277,0.88379 0.54416,1.3257 -3.7566,-0.33814 -7.5131,-0.67627 -11.27,-1.0144 z"
         id="path8" />
      <path
         d="m 188.06,406.04 c -0.23587,-0.87144 -0.64765,-1.715 -0.7682,-2.6047 -0.0199,-4.5317 -0.035,-9.0633 0.0864,-13.594 0.0293,-3.3572 0.33534,-6.704 0.52425,-10.054 0.17689,-1.5834 0.22662,-3.189 0.48539,-4.758 0.21381,-0.8642 0.40367,-1.7379 0.91243,-2.4857 0.23495,-0.54397 0.78971,-0.83988 1.1796,-1.2637 0.49058,-0.0332 0.96727,-0.0315 1.2637,0.42327 0.74215,0.51824 0.99537,1.4142 1.4444,2.1588 0.40615,1.2463 0.85395,2.4823 0.99489,3.7937 0.44411,2.5921 0.82189,5.198 1.1388,7.808 0.25013,2.8491 0.48464,5.7 0.91802,8.5286 0.29666,1.8054 0.41266,3.6279 0.49271,5.4538 0.10324,1.2893 0.0819,2.5991 0.26547,3.8751 0.29632,1.0661 0.59264,2.1323 0.88896,3.1984 -3.2756,-0.15979 -6.5512,-0.31957 -9.8269,-0.47936 z"
         id="path10" />
      <path
         d="m 224.31,407.46 c -0.34314,-0.97432 -0.81543,-1.9218 -1.0781,-2.9128 -0.11092,-1.5732 -0.0783,-3.1457 0.0337,-4.7178 0.2424,-5.0809 0.509,-10.16 0.8779,-15.234 0.086,-1.8246 0.26687,-3.6395 0.55829,-5.4429 0.20764,-1.6914 0.51488,-3.3668 0.82424,-5.0419 0.47463,-0.45216 0.85216,-1.0568 1.5507,-1.1573 0.48206,-0.24624 1.0026,0.0846 1.5038,0.12584 0.4528,0.60164 1.1375,1.0755 1.2461,1.8668 0.36226,1.1526 0.75947,2.2974 0.85178,3.5109 0.38359,2.7579 0.87978,5.5028 1.0444,8.286 0.37158,4.6362 0.82965,9.265 1.2356,13.898 0.0944,1.5597 0.26577,3.1247 0.27591,4.6833 -0.20349,0.77666 -0.40697,1.5533 -0.61046,2.33 -2.7713,-0.0646 -5.5426,-0.12929 -8.3139,-0.19393 z"
         id="path12" />
      <path
         d="m 259.51,408.03 c -0.0528,-2.4849 -0.0719,-4.9694 0.0584,-7.4524 0.16796,-5.7531 0.58389,-11.495 0.9201,-17.24 0.14103,-1.7505 0.0994,-3.5242 0.53045,-5.2377 0.22297,-1.3763 0.58678,-2.7368 1.0822,-4.0319 0.34843,-0.37234 0.62629,-0.8596 1.0178,-1.1618 0.4928,-0.12151 0.98641,-0.28567 1.4723,-0.0439 0.52411,0.0215 0.83034,0.34953 1.054,0.79382 0.49987,0.58019 0.71561,1.2963 0.91297,2.0211 0.41207,1.3607 0.58531,2.7847 0.84479,4.1803 0.41103,3.5661 0.79161,7.1351 1.0522,10.716 0.19898,4.5246 0.32708,9.0536 0.47968,13.58 -0.12239,1.2839 -0.35219,2.5505 -0.62335,3.8105 -2.9338,0.0219 -5.8676,0.0437 -8.8015,0.0656 z"
         id="path14" />
      <path
         d="m 295.49,407.2 c 0.17459,-1.4682 0.24084,-2.9411 0.18831,-4.4189 -0.042,-3.2019 -0.0161,-6.4068 0.0988,-9.6056 0.42512,-3.8418 0.86422,-7.6819 1.4382,-11.505 0.25991,-2.177 0.77032,-4.3159 1.2168,-6.4576 0.44686,-1.0474 0.81809,-2.1811 1.5459,-3.0569 0.40863,-0.22022 0.85784,-0.49923 1.2338,-0.07 0.39991,0.44901 0.96338,0.79975 1.0332,1.4471 0.44148,1.2763 0.81085,2.5712 1.0204,3.9072 0.32613,1.5089 0.59667,3.0261 0.70158,4.5681 0.20009,1.8476 0.40957,3.6947 0.38565,5.5562 0.0684,4.067 0.21186,8.1347 0.25957,12.201 -0.0941,1.0705 -0.0467,2.1664 -0.23196,3.2205 -0.36352,1.3046 -0.87802,2.5568 -1.3632,3.8192 -2.509,0.13167 -5.018,0.26334 -7.527,0.39501 z"
         id="path16" />
    </g>
    <g
       fill="#f2f2f2"
       id="g78"
       transform="translate(115.59647,-57.928993)">
      <g
         transform="rotate(-90)"
         aria-label="Power/DSL"
         id="g38">
        <path
           d="m -364.01,155.87 h 0.55333 v -1.6133 h 0.78667 c 1.0333,0 1.7267,-0.61334 1.7267,-1.54 0,-0.88666 -0.65333,-1.4733 -1.6267,-1.4733 h -1.44 z m 0.55333,-2.0933 v -2.0533 h 0.82 c 0.67334,0 1.1267,0.44 1.1267,1.0933 0,0.62667 -0.37333,0.96001 -1.06,0.96001 z"
           id="path20" />
        <path
           d="m -358.85,155.93 c 0.94667,0 1.5867,-0.68667 1.5867,-1.7133 0,-0.99333 -0.59334,-1.6333 -1.5067,-1.6333 -0.94667,0 -1.58,0.68 -1.58,1.7067 0,0.99333 0.58666,1.64 1.5,1.64 z m 0.0733,-0.46667 c -0.62,0 -1.04,-0.5 -1.04,-1.24 0,-0.71333 0.38,-1.1733 0.97334,-1.1733 0.62,0 1.0467,0.50667 1.0467,1.24 0,0.70666 -0.38666,1.1733 -0.98,1.1733 z"
           id="path22" />
        <path
           d="m -355.71,155.87 h 0.52667 l 0.87333,-2.5867 0.92667,2.5867 h 0.54 l 1.06,-3.2133 h -0.53334 l -0.79333,2.6067 -0.87333,-2.5933 H -354.57 l -0.86,2.6333 -0.78,-2.6467 h -0.60667 z"
           id="path24" />
        <path
           d="m -349.69,155.93 c 0.36666,0 0.76666,-0.0867 1.0533,-0.24 l -0.12,-0.38667 c -0.24667,0.12 -0.56,0.19333 -0.84,0.19333 -0.68,0 -1.1067,-0.40666 -1.1867,-1.0933 h 2.24 c 0.0133,-0.1 0.0267,-0.33333 0.0267,-0.46 0,-0.80667 -0.53333,-1.36 -1.3267,-1.36 -0.89333,0 -1.5,0.7 -1.5,1.6867 0,1.0267 0.63333,1.66 1.6533,1.66 z m -1.1,-1.9267 c 0.0467,-0.62667 0.36667,-0.96667 0.90667,-0.96667 0.54667,0 0.86667,0.35334 0.86667,0.96667 z"
           id="path26" />
        <path
           d="m -347.62,155.87 h 0.53333 v -2.2933 c 0.20667,-0.28001 0.53334,-0.44667 0.89334,-0.44667 0.12666,0 0.24666,0.02 0.35333,0.06 l 0.13333,-0.49334 c -0.14,-0.0467 -0.28,-0.0733 -0.42666,-0.0733 -0.38667,0 -0.74667,0.18667 -0.98667,0.5 l -0.06,-0.46667 h -0.44 z"
           id="path28" />
        <path
           d="m -345.49,156.63 h 0.49333 l 1.4267,-5.6933 h -0.53333 z"
           id="path30" />
        <path
           d="m -342.79,155.87 h 1.4133 c 1.4,0 2.3533,-0.91333 2.3533,-2.4 0,-1.4 -0.84,-2.2267 -2.2533,-2.2267 h -1.5133 z m 0.55333,-0.48 v -3.6667 h 0.89333 c 1.1267,0 1.7533,0.66 1.7533,1.8333 0,1.1667 -0.62,1.8333 -1.72,1.8333 z"
           id="path32" />
        <path
           d="m -336.91,155.93 c 1.0333,0 1.7067,-0.52667 1.7067,-1.34 0,-1.64 -2.5933,-0.98667 -2.5933,-2.18 0,-0.48666 0.39334,-0.75333 1.1,-0.75333 0.39334,0 0.82,0.08 1.1533,0.22 l 0.16666,-0.43333 c -0.39333,-0.17334 -0.84,-0.26667 -1.28,-0.26667 -1.0333,0 -1.7067,0.51333 -1.7067,1.32 0,1.5867 2.5867,0.99334 2.5867,2.1733 0,0.46666 -0.4,0.76666 -1.1,0.76666 -0.42,0 -0.94,-0.11333 -1.3933,-0.3 l -0.16667,0.43334 c 0.51334,0.23333 1.0333,0.36 1.5267,0.36 z"
           id="path34" />
        <path
           d="m -334.37,155.87 h 2.6267 v -0.49333 h -2.0733 v -4.1333 h -0.55334 z"
           id="path36" />
      </g>
      <g
         transform="rotate(-90)"
         aria-label="Fon"
         id="g46">
        <path
           d="m -366.58,192.59 h 0.55334 v -2.1467 h 2.1267 v -0.48 h -2.1267 v -1.52 h 2.32 v -0.48 h -2.8733 z"
           id="path40" />
        <path
           d="m -361.6,192.66 c 0.94667,0 1.5867,-0.68667 1.5867,-1.7133 0,-0.99333 -0.59333,-1.6333 -1.5067,-1.6333 -0.94667,0 -1.58,0.68 -1.58,1.7067 0,0.99333 0.58667,1.64 1.5,1.64 z m 0.0733,-0.46667 c -0.62,0 -1.04,-0.5 -1.04,-1.24 0,-0.71333 0.38,-1.1733 0.97334,-1.1733 0.62,0 1.0467,0.50666 1.0467,1.24 0,0.70666 -0.38667,1.1733 -0.98001,1.1733 z"
           id="path42" />
        <path
           d="m -356.92,192.59 h 0.53333 v -2.1067 c 0,-0.71333 -0.47333,-1.1733 -1.1933,-1.1733 -0.36667,0 -0.73333,0.12667 -1.04,0.35333 l -0.12,-0.28666 h -0.37333 v 3.2133 h 0.53333 v -2.5133 c 0.24667,-0.19334 0.54,-0.3 0.85333,-0.3 0.52,0 0.80667,0.29333 0.80667,0.81333 z"
           id="path44" />
      </g>
      <g
         transform="rotate(-90)"
         aria-label="DECT"
         id="g56">
        <path
           d="m -368.38,229.53 h 1.4133 c 1.4,0 2.3533,-0.91333 2.3533,-2.4 0,-1.4 -0.84,-2.2267 -2.2533,-2.2267 h -1.5133 z m 0.55334,-0.48 v -3.6667 h 0.89333 c 1.1267,0 1.7533,0.66 1.7533,1.8333 0,1.1667 -0.62,1.8333 -1.72,1.8333 z"
           id="path48" />
        <path
           d="m -363.64,229.53 h 2.9067 v -0.48 h -2.3533 v -1.6733 h 2.1733 v -0.48 h -2.1733 v -1.5133 h 2.3533 v -0.48 h -2.9067 z"
           id="path50" />
        <path
           d="m -357.72,229.59 c 0.44666,0 0.91333,-0.1 1.3533,-0.29333 l -0.12667,-0.40667 c -0.33333,0.13333 -0.74666,0.21333 -1.1,0.21333 -1.1067,0 -1.84,-0.78666 -1.84,-1.9667 0,-1.1267 0.67334,-1.8133 1.7867,-1.8133 0.37333,0 0.79333,0.08 1.1467,0.21333 l 0.16,-0.41333 c -0.34,-0.18 -0.82,-0.28667 -1.2733,-0.28667 -1.4333,0 -2.3867,0.97334 -2.3867,2.4267 0,1.3933 0.91334,2.3267 2.28,2.3267 z"
           id="path52" />
        <path
           d="m -354.45,229.53 h 0.55334 v -4.1467 h 1.5467 v -0.48 h -3.64 v 0.48 h 1.54 z"
           id="path54" />
      </g>
      <g
         transform="rotate(-90)"
         aria-label="WLAN"
         id="g66">
        <path
           d="m -366.98,266.4 h 0.55333 l 1.2267,-3.92 1.2933,3.92 h 0.53333 l 1.3733,-4.6267 h -0.55333 l -1.0733,3.8667 -1.2333,-3.8333 h -0.62 l -1.2,3.8733 -1.0533,-3.9067 h -0.64 z"
           id="path58" />
        <path
           d="m -361.31,266.4 h 2.6267 v -0.49333 h -2.0733 v -4.1333 h -0.55333 z"
           id="path60" />
        <path
           d="m -358.5,266.4 h 0.58 l 0.49333,-1.3733 h 1.9267 l 0.46,1.3733 h 0.62 l -1.6267,-4.6267 h -0.72 z m 1.24,-1.8533 0.82,-2.3 0.77333,2.3 z"
           id="path62" />
        <path
           d="m -353.76,266.4 h 0.52 v -3.8867 l 2.64,3.8867 h 0.61333 v -4.6267 h -0.52 v 3.8867 l -2.62,-3.8867 H -353.76 Z"
           id="path64" />
      </g>
      <g
         transform="rotate(-90)"
         aria-label="Info"
         id="g76">
        <path
           d="m -367.11,302.61 h 0.55334 v -4.6267 H -367.11 Z"
           id="path68" />
        <path
           d="m -363.2,302.61 h 0.53333 v -2.1067 c 0,-0.71333 -0.47333,-1.1733 -1.1933,-1.1733 -0.36667,0 -0.73334,0.12666 -1.04,0.35333 l -0.12,-0.28667 h -0.37334 v 3.2133 h 0.53334 v -2.5133 c 0.24666,-0.19333 0.54,-0.3 0.85333,-0.3 0.52,0 0.80667,0.29334 0.80667,0.81334 z"
           id="path70" />
        <path
           d="m -361.51,302.61 h 0.53333 v -2.7667 h 1 v -0.44667 h -1 v -0.7 c 0,-0.41333 0.19333,-0.62666 0.56,-0.62666 0.17333,0 0.4,0.0333 0.56667,0.11333 l 0.11333,-0.4 c -0.20667,-0.1 -0.41333,-0.16667 -0.64,-0.16667 -0.68,0 -1.1333,0.46 -1.1333,1.1467 v 0.63333 h -0.48 v 0.44667 h 0.48 z"
           id="path72" />
        <path
           d="m -358.05,302.68 c 0.94667,0 1.5867,-0.68666 1.5867,-1.7133 0,-0.99333 -0.59334,-1.6333 -1.5067,-1.6333 -0.94667,0 -1.58,0.68 -1.58,1.7067 0,0.99334 0.58667,1.64 1.5,1.64 z m 0.0733,-0.46666 c -0.62,0 -1.04,-0.5 -1.04,-1.24 0,-0.71334 0.38,-1.1733 0.97334,-1.1733 0.62,0 1.0467,0.50667 1.0467,1.24 0,0.70667 -0.38666,1.1733 -0.98,1.1733 z"
           id="path74" />
      </g>
    </g>
    <g
       id="g106" />
    <g
       stroke="#666"
       stroke-width="1px"
       id="g112">
      <path
         d="m421.05 122.07c-1.6535 7.6254-1.7833 15.455-2.5554 23.197-0.53806 6.6816-0.62157 13.402-0.59382 20.103 0.22864 13.659 0.57115 27.325 1.4936 40.953 0.74014 6.0717 1.1328 12.208 2.2355 18.222 0.98474 4.5862 1.994 9.2146 3.5932 13.612 0.8504 1.5654 2.1366 2.6295 3.7896 3.2715 1.3776-0.54908 3.6521-4.9e-4 3.9355-1.8886 1.9096-3.718 2.4934-7.8842 3.277-11.943 2.3575-17.088 4.821-34.179 6.353-51.363 0.67236-9.6456 0.90047-19.332 0.22713-28.984-0.18639-4.8832-0.85758-9.7587-1.769-14.548-0.76435-3.1506-1.7054-6.2327-3.3869-9.0283-0.85925-2.0083-2.7735-3.3534-4.3315-4.7803-2.5342-1.3785-5.5505-1.5119-8.3267-0.88064-1.5319 1.1499-2.7335 2.5833-3.9414 4.0564z"
         fill="#333"
         id="path108" />
      <path
         d="m425.08 237.95c1.3505-1.6934 2.7858-3.3416 3.1917-5.5384 1.4157-3.9133 1.5251-8.1481 2.32-12.212 1.2293-7.8552 2.3935-15.719 3.0715-23.644 1.1885-10.638 2.087-21.327 1.825-32.04-0.0112-6.9574-0.0353-13.914-0.67229-20.849-0.39571-3.642-0.16815-7.3881-1.0109-10.955-0.72684-2.4304-0.99198-5.0727-2.776-7.0181-1.1688-1.6298-2.77-3.1912-4.8283-3.5187-1.6918-0.82296-3.3716-0.2569-5.1445-0.10605"
         fill="none"
         id="path110" />
    </g>
    <g
       stroke="#666"
       stroke-width="1px"
       id="g118">
      <path
         d="m93.768 121.01c1.6535 7.6254 1.7833 15.455 2.5554 23.197 0.53806 6.6816 0.62157 13.402 0.59382 20.103-0.22864 13.659-0.57115 27.325-1.4936 40.953-0.74014 6.0717-1.1328 12.208-2.2355 18.222-0.98474 4.5862-1.994 9.2146-3.5932 13.612-0.8504 1.5654-2.1366 2.6295-3.7896 3.2715-1.3776-0.54908-3.6521-4.9e-4 -3.9355-1.8886-1.9096-3.718-2.4934-7.8842-3.277-11.943-2.3575-17.088-4.821-34.179-6.353-51.363-0.67236-9.6456-0.90047-19.332-0.22713-28.984 0.18639-4.8832 0.85758-9.7587 1.769-14.548 0.76435-3.1506 1.7054-6.2327 3.3869-9.0283 0.85925-2.0083 2.7735-3.3534 4.3315-4.7803 2.5342-1.3785 5.5505-1.5119 8.3267-0.88064 1.5319 1.1499 2.7335 2.5833 3.9414 4.0564z"
         fill="#333"
         id="path114" />
      <path
         d="m89.744 236.89c-1.3505-1.6934-2.7858-3.3416-3.1917-5.5384-1.4157-3.9133-1.5251-8.1481-2.32-12.212-1.2293-7.8552-2.3935-15.719-3.0715-23.644-1.1885-10.638-2.087-21.327-1.825-32.04 0.0112-6.9574 0.0353-13.914 0.67229-20.849 0.39571-3.642 0.16815-7.3881 1.0109-10.955 0.72684-2.4304 0.99198-5.0727 2.776-7.0181 1.1688-1.6298 2.77-3.1912 4.8283-3.5187 1.6918-0.82296 3.3716-0.2569 5.1445-0.10605"
         fill="none"
         id="path116" />
    </g>
    <g
       transform="translate(-12.303 -.48748)"
       fill="none"
       stroke="#1a1a1a"
       stroke-linecap="round"
       stroke-width="3"
       id="g166">
      <path
         d="m121.36 159.94 23.933-1.402"
         id="path124" />
      <path
         d="m152.1 158.09 26.21-1.1132"
         id="path126" />
      <path
         d="m184.84 156.64 25.986-0.70328"
         id="path128" />
      <path
         d="m218.14 155.93 26.841-0.4719"
         id="path130" />
      <path
         d="m219.71 162.36 25.163-0.21354"
         id="path132" />
      <path
         d="m221.29 169.17 23.613-0.31716"
         id="path134" />
      <path
         d="m251.82 168.95 27.127-0.19331"
         id="path136" />
      <path
         d="m251.98 162.28 26.793-0.0244"
         id="path138" />
      <path
         d="m 153.02172,164.50003 26.76566,-1.21012"
         id="path138-62" />
      <path
         d="m 120.95732,166.47371 26.76566,-1.21012"
         id="path138-62-7" />
      <path
         d="m 121.21968,173.87574 26.75491,-1.42839"
         id="path138-61"
         inkscape:transform-center-x="-4.8907106"
         inkscape:transform-center-y="-3.3743209" />
      <path
         d="m 154.41769,172.01751 26.74878,-1.53878"
         id="path138-8" />
      <path
         d="m 188.02728,170.27253 26.78252,-0.74986"
         id="path138-6" />
      <path
         d="m 186.69021,162.82011 26.78252,-0.74986"
         id="path138-6-7" />
      <path
         d="m251.94 155.56 26.886-0.12162"
         id="path140" />
      <path
         d="m285.78 155.71 26.934 0.29289"
         id="path142" />
      <path
         d="m285.97 162.43 27.011 0.30069"
         id="path144" />
      <path
         d="m285.77 168.99 27.265 0.48523"
         id="path146" />
      <path
         d="m320.13 156.61 26.467 0.73401"
         id="path148" />
      <path
         d="m320.14 163.17 26.425 0.89229"
         id="path150" />
      <path
         d="m320.04 169.82 26.618 0.646"
         id="path152" />
      <path
         d="m353.55 171.04 26.753 1.1585"
         id="path154" />
      <path
         d="m353.32 164.43 26.766 1.1006"
         id="path156" />
      <path
         d="m353.15 157.75 26.924 1.2511"
         id="path158" />
      <path
         d="m386.43 159.47 23.69 1.7547"
         id="path160" />
      <path
         d="m386.47 166.26 24.038 1.3306"
         id="path162" />
      <path
         d="m386.49 172.78 24.174 1.4083"
         id="path164" />
    </g>
    <g
       fill="none"
       stroke="#333"
       stroke-linecap="round"
       stroke-width="3"
       id="g214">
      <path
         d="m108.16 199.62 24.075-1.4638"
         id="path172" />
      <path
         d="m 107.84776,192.57879 24.075,-1.4638"
         id="path172-5" />
      <path
         d="m 107.84776,186.57879 24.075,-1.4638"
         id="path172-3" />
      <path
         d="m 139.20584,190.7291 24.075,-1.4638"
         id="path172-56" />
      <path
         d="m 138.72749,184.15649 24.075,-1.4638"
         id="path172-2" />
      <path
         d="m139.57 198.01 25.243-1.5784"
         id="path174" />
      <path
         d="m172.13 196.2 26.234-0.5482"
         id="path176" />
      <path
         d="m205.47 195.62 27.144-0.49958"
         id="path182" />
      <path
         d="m 204.79987,188.89672 27.144,-0.49958"
         id="path182-9" />
      <path
         d="m 203.89223,182.00829 27.144,-0.49958"
         id="path182-3" />
      <path
         d="m 171.08049,188.84862 27.144,-0.49958"
         id="path182-6" />
      <path
         d="m 170.13311,181.89076 27.144,-0.49958"
         id="path182-0" />
      <path
         d="m239.56 195.31 27.301-0.16776"
         id="path184" />
      <path
         d="m239.64 188.63 27.285-0.18621"
         id="path186" />
      <path
         d="m239.47 181.6 27.492 0.01"
         id="path188" />
      <path
         d="m273.5 181.8 27.189 0.42916"
         id="path190" />
      <path
         d="m273.61 188.7 27.21 0.26023"
         id="path192" />
      <path
         d="m273.93 195.27 26.892 0.47743"
         id="path194" />
      <path
         d="m307.36 182.6 27.248 0.63641"
         id="path196" />
      <path
         d="m307.52 189.35 27.131 0.75531"
         id="path198" />
      <path
         d="m307.79 196.03 27.113 0.85574"
         id="path200" />
      <path
         d="m341.4 197.31 26.954 0.97782"
         id="path202" />
      <path
         d="m341.39 190.49 26.797 1.1379"
         id="path204" />
      <path
         d="m341.23 183.71 26.888 1.2511"
         id="path206" />
      <path
         d="m374.61 185.43 24.027 1.3866"
         id="path208" />
      <path
         d="m374.68 192.15 24.4 1.3614"
         id="path210" />
      <path
         d="m374.86 198.79 23.942 1.2514"
         id="path212" />
    </g>
  </g>
</svg>
