<?xml version="1.0" encoding="UTF-8"?>
<svg width="514" height="514" version="1.1" viewBox="0 0 514 514" xmlns="http://www.w3.org/2000/svg" xmlns:cc="http://creativecommons.org/ns#" xmlns:dc="http://purl.org/dc/elements/1.1/" xmlns:rdf="http://www.w3.org/1999/02/22-rdf-syntax-ns#">
 <metadata>
  <rdf:RDF>
   <cc:Work rdf:about="">
    <dc:format>image/svg+xml</dc:format>
    <dc:type rdf:resource="http://purl.org/dc/dcmitype/StillImage"/>
    <dc:title/>
    <cc:license rdf:resource="http://creativecommons.org/licenses/by-nc-sa/4.0/"/>
    <dc:creator>
     <cc:Agent>
      <dc:title>Jan Alexander</dc:title>
     </cc:Agent>
    </dc:creator>
   </cc:Work>
   <cc:License rdf:about="http://creativecommons.org/licenses/by-nc-sa/4.0/">
    <cc:permits rdf:resource="http://creativecommons.org/ns#Reproduction"/>
    <cc:permits rdf:resource="http://creativecommons.org/ns#Distribution"/>
    <cc:requires rdf:resource="http://creativecommons.org/ns#Notice"/>
    <cc:requires rdf:resource="http://creativecommons.org/ns#Attribution"/>
    <cc:prohibits rdf:resource="http://creativecommons.org/ns#CommercialUse"/>
    <cc:permits rdf:resource="http://creativecommons.org/ns#DerivativeWorks"/>
    <cc:requires rdf:resource="http://creativecommons.org/ns#ShareAlike"/>
   </cc:License>
  </rdf:RDF>
 </metadata>
 <g>
  <g stroke="#666">
   <rect x="32" y="32" width="450" height="450" ry="30" fill="#333"/>
   <rect x="164.5" y="32" width="185" height="150" ry="12" fill="#333"/>
   <rect x="143.53" y="300.53" width="226.93" height="149.83" ry="30" fill="#1a1a1a"/>
  </g>
  <g transform="translate(-12)">
   <g fill="#0f0">
    <circle cx="225" cy="435" r="5"/>
    <circle cx="247" cy="435" r="5"/>
    <circle cx="269" cy="435" r="5"/>
    <circle cx="291" cy="435" r="5"/>
    <circle cx="313" cy="435" r="5"/>
   </g>
   <g fill="#f2f2f2">
    <g transform="rotate(-90,-61.18,0)" aria-label="Power / DSL">
     <path d="m-487.55 288.97v-6.681h2.5202q0.66536 0 1.0163 0.0638 0.49219 0.082 0.82487 0.31445 0.33268 0.22787 0.5332 0.64258 0.20508 0.41471 0.20508 0.91146 0 0.85221-0.54231 1.4447-0.54232 0.58789-1.9596 0.58789h-1.7135v2.7161zm0.88411-3.5046h1.7272q0.85677 0 1.2168-0.31901t0.36003-0.89779q0-0.41927-0.2142-0.71549-0.20963-0.30078-0.55599-0.39649-0.2233-0.0592-0.82487-0.0592h-1.709z"/>
     <path d="m-481.73 286.55q0-1.3444 0.7474-1.9915 0.62435-0.53776 1.5221-0.53776 0.99805 0 1.6315 0.65625 0.63347 0.65169 0.63347 1.8047 0 0.93425-0.28256 1.472-0.27799 0.5332-0.81575 0.82943-0.5332 0.29622-1.1667 0.29622-1.0163 0-1.6452-0.65169-0.62435-0.6517-0.62435-1.8776zm0.8431 0q0 0.92969 0.4056 1.3945 0.4056 0.46029 1.0208 0.46029 0.61068 0 1.0163-0.46484 0.4056-0.46485 0.4056-1.4173 0-0.89779-0.41016-1.3581-0.4056-0.46485-1.0117-0.46485-0.61523 0-1.0208 0.46029t-0.4056 1.39z"/>
     <path d="m-475.33 288.97-1.4811-4.8398h0.84766l0.77018 2.7936 0.28711 1.0391q0.0182-0.0775 0.25065-0.99804l0.77018-2.8346h0.8431l0.72461 2.8073 0.24154 0.92513 0.27799-0.93424 0.82943-2.7982h0.79752l-1.513 4.8398h-0.85221l-0.77018-2.8984-0.18685-0.82487-0.97982 3.7233z"/>
     <path d="m-466.17 287.42 0.84766 0.10482q-0.20052 0.74284-0.74284 1.153-0.54232 0.41016-1.3854 0.41016-1.0618 0-1.6862-0.65169-0.61979-0.65625-0.61979-1.8366 0-1.2214 0.62891-1.8958t1.6315-0.67448q0.9707 0 1.5859 0.6608 0.61523 0.66081 0.61523 1.8594 0 0.0729-5e-3 0.21875h-3.6094q0.0456 0.79752 0.45117 1.2214 0.4056 0.42383 1.0117 0.42383 0.45117 0 0.77018-0.23698t0.50586-0.75651zm-2.6934-1.3262h2.7025q-0.0547-0.61068-0.3099-0.91602-0.39193-0.47395-1.0163-0.47395-0.5651 0-0.95247 0.37825-0.38281 0.37826-0.42383 1.0117z"/>
     <path d="m-464.29 288.97v-4.8398h0.73828v0.73373q0.28255-0.51498 0.51953-0.67904 0.24154-0.16406 0.52864-0.16406 0.41472 0 0.8431 0.26432l-0.28255 0.76107q-0.30078-0.17774-0.60156-0.17774-0.26888 0-0.48307 0.16407-0.2142 0.1595-0.30534 0.44661-0.13672 0.4375-0.13672 0.95703v2.5338z"/>
     <path d="m-459.19 289.09 1.9368-6.9089h0.65625l-1.9323 6.9089z"/>
     <path d="m-453.3 288.97v-6.681h2.3014q0.7793 0 1.1894 0.0957 0.57422 0.13216 0.97982 0.47852 0.52865 0.44661 0.78841 1.1439 0.26433 0.6927 0.26433 1.5859 0 0.76107-0.17774 1.349-0.17773 0.58789-0.45573 0.97526-0.27799 0.38281-0.61068 0.60612-0.32812 0.21875-0.79752 0.33268-0.46484 0.11393-1.071 0.11393zm0.88411-0.78841h1.4264q0.6608 0 1.0345-0.12304 0.37826-0.12305 0.60156-0.34636 0.31446-0.31445 0.48763-0.8431 0.17774-0.5332 0.17774-1.2897 0-1.0482-0.34636-1.6087-0.34179-0.56511-0.83398-0.75651-0.35547-0.13672-1.1439-0.13672h-1.4036z"/>
     <path d="m-446.85 286.83 0.83398-0.0729q0.0593 0.50131 0.27344 0.82487 0.21875 0.31901 0.67448 0.51953 0.45573 0.19597 1.0254 0.19597 0.50586 0 0.89323-0.15039t0.57422-0.41016q0.1914-0.26432 0.1914-0.57422 0-0.31445-0.18229-0.54687-0.18229-0.23698-0.60156-0.39649-0.26888-0.10481-1.1894-0.32356-0.92058-0.22331-1.2897-0.41927-0.47851-0.25066-0.71549-0.6198-0.23242-0.37369-0.23242-0.83398 0-0.50586 0.2871-0.94336 0.28711-0.44206 0.83855-0.66992 0.55143-0.22787 1.2259-0.22787 0.74284 0 1.3079 0.24154 0.56966 0.23698 0.875 0.70182 0.30534 0.46485 0.32812 1.0527l-0.84765 0.0638q-0.0684-0.63346-0.46485-0.95703-0.39192-0.32357-1.1621-0.32357-0.80209 0-1.1712 0.29623-0.36458 0.29166-0.36458 0.70638 0 0.36002 0.25976 0.59244 0.25521 0.23242 1.3307 0.47852 1.0801 0.24153 1.4811 0.42383 0.58334 0.26888 0.86133 0.68359 0.27799 0.41016 0.27799 0.94792 0 0.5332-0.30533 1.0072-0.30534 0.4694-0.87956 0.73372-0.56966 0.25977-1.2852 0.25977-0.9069 0-1.5221-0.26433-0.61068-0.26432-0.96159-0.79296-0.34635-0.53321-0.36458-1.2031z"/>
     <path d="m-440.35 288.97v-6.681h0.88412v5.8926h3.2904v0.78841z"/>
    </g>
    <g transform="rotate(-90,-61.18,0)" aria-label="Fon">
     <path d="m-486.86 310.86v-6.681h4.5072v0.78841h-3.623v2.069h3.1354v0.78841h-3.1354v3.0352z"/>
     <path d="m-481.61 308.44q0-1.3444 0.7474-1.9915 0.62435-0.53776 1.5221-0.53776 0.99805 0 1.6315 0.65625 0.63347 0.65169 0.63347 1.8047 0 0.93425-0.28256 1.472-0.27799 0.5332-0.81575 0.82942-0.5332 0.29623-1.1667 0.29623-1.0163 0-1.6452-0.6517-0.62435-0.65169-0.62435-1.8776zm0.8431 0q0 0.92969 0.4056 1.3945 0.4056 0.46029 1.0208 0.46029 0.61068 0 1.0163-0.46485 0.4056-0.46484 0.4056-1.4173 0-0.89779-0.41016-1.3581-0.4056-0.46485-1.0117-0.46485-0.61523 0-1.0208 0.46029-0.4056 0.46028-0.4056 1.39z"/>
     <path d="m-476.11 310.86v-4.8398h0.73828v0.68815q0.5332-0.79752 1.5404-0.79752 0.43749 0 0.80208 0.1595 0.36914 0.15495 0.55143 0.41016 0.18229 0.2552 0.25521 0.60612 0.0456 0.22786 0.0456 0.79752v2.9759h-0.82031v-2.944q0-0.5013-0.0957-0.74739-0.0957-0.25065-0.3418-0.39649-0.24154-0.15039-0.56966-0.15039-0.52409 0-0.9069 0.33268-0.37826 0.33269-0.37826 1.2624v2.6432z"/>
    </g>
    <g transform="rotate(-90,-61.18,0)" aria-label="DECT">
     <path d="m-487.7 332.97v-6.681h2.3014q0.7793 0 1.1894 0.0957 0.57422 0.13216 0.97982 0.47852 0.52865 0.44661 0.78841 1.1439 0.26432 0.6927 0.26432 1.5859 0 0.76107-0.17773 1.349-0.17774 0.58789-0.45573 0.97526-0.27799 0.38281-0.61068 0.60612-0.32812 0.21875-0.79752 0.33268-0.46485 0.11393-1.071 0.11393zm0.88411-0.78841h1.4264q0.66081 0 1.0345-0.12304 0.37825-0.12305 0.60156-0.34636 0.31445-0.31445 0.48763-0.8431 0.17774-0.5332 0.17774-1.2897 0-1.0482-0.34636-1.6087-0.3418-0.56511-0.83398-0.75651-0.35547-0.13672-1.1439-0.13672h-1.4036z"/>
     <path d="m-480.94 332.97v-6.681h4.8307v0.78841h-3.9466v2.0462h3.696v0.78386h-3.696v2.2741h4.1016v0.78841z"/>
     <path d="m-469.95 330.63 0.88411 0.2233q-0.27799 1.0892-1.0026 1.6634-0.72006 0.56966-1.7637 0.56966-1.0801 0-1.7591-0.4375-0.67448-0.44206-1.03-1.276-0.35091-0.83399-0.35091-1.791 0-1.0436 0.39649-1.8184 0.40104-0.77929 1.1348-1.1803 0.73828-0.4056 1.6224-0.4056 1.0026 0 1.6862 0.51042 0.6836 0.51042 0.95248 1.4356l-0.87044 0.20508q-0.23243-0.72917-0.67448-1.0618-0.44206-0.33268-1.112-0.33268-0.77018 0-1.2897 0.36914-0.51497 0.36914-0.7246 0.99348-0.20964 0.6198-0.20964 1.2806 0 0.85222 0.24609 1.4902 0.25065 0.63346 0.77474 0.94791 0.52409 0.31446 1.1348 0.31446 0.74284 0 1.2578-0.42839 0.51497-0.42838 0.69727-1.2715z"/>
     <path d="m-466.27 332.97v-5.8926h-2.2012v-0.78841h5.2956v0.78841h-2.2103v5.8926z"/>
    </g>
    <g transform="rotate(-90,-61.18,0)" aria-label="WLAN">
     <path d="m-485.5 354.86-1.7728-6.681h0.9069l1.0163 4.3796q0.16406 0.68815 0.28255 1.3672 0.25521-1.071 0.30078-1.235l1.2715-4.5117h1.0664l0.95704 3.3815q0.36002 1.2578 0.51953 2.3652 0.1276-0.63347 0.33268-1.4538l1.0482-4.293h0.88867l-1.832 6.681h-0.85222l-1.4082-5.0905q-0.17773-0.63802-0.20963-0.78385-0.10482 0.46028-0.19597 0.78385l-1.4173 5.0905z"/>
     <path d="m-477.9 354.86v-6.681h0.88412v5.8926h3.2904v0.78841z"/>
     <path d="m-473.4 354.86 2.5658-6.681h0.95247l2.7344 6.681h-1.0072l-0.7793-2.0234h-2.7936l-0.73372 2.0234zm1.9277-2.7435h2.265l-0.69726-1.8503q-0.31901-0.84309-0.47396-1.3854-0.1276 0.64258-0.36003 1.276z"/>
     <path d="m-466.44 354.86v-6.681h0.9069l3.5091 5.2454v-5.2454h0.84766v6.681h-0.9069l-3.5091-5.25v5.25z"/>
    </g>
    <g transform="rotate(-90,-61.18,0)" aria-label="Info">
     <path d="m-487.53 376.97v-6.681h0.88412v6.681z"/>
     <path d="m-485.19 376.97v-4.8398h0.73828v0.68815q0.5332-0.79752 1.5404-0.79752 0.4375 0 0.80208 0.1595 0.36914 0.15495 0.55144 0.41016 0.18229 0.25521 0.2552 0.60612 0.0456 0.22786 0.0456 0.79752v2.9759h-0.82032v-2.944q0-0.50131-0.0957-0.7474-0.0957-0.25065-0.3418-0.39648-0.24153-0.1504-0.56966-0.1504-0.52408 0-0.9069 0.33269-0.37825 0.33268-0.37825 1.2624v2.6432z"/>
     <path d="m-479.8 376.97v-4.2018h-0.72461v-0.63802h0.72461v-0.51497q0-0.48763 0.0866-0.72461 0.11849-0.31901 0.41471-0.51497 0.30078-0.20053 0.83854-0.20053 0.34636 0 0.76563 0.082l-0.12305 0.71549q-0.25521-0.0456-0.48307-0.0456-0.3737 0-0.52865 0.1595-0.15495 0.15951-0.15495 0.59701v0.44661h0.94336v0.63802h-0.94336v4.2018z"/>
     <path d="m-477.71 374.55q0-1.3444 0.74739-1.9915 0.62435-0.53776 1.5221-0.53776 0.99805 0 1.6315 0.65625 0.63346 0.65169 0.63346 1.8047 0 0.93425-0.28255 1.472-0.27799 0.5332-0.81575 0.82943-0.53321 0.29622-1.1667 0.29622-1.0163 0-1.6452-0.65169-0.62435-0.6517-0.62435-1.8776zm0.8431 0q0 0.92969 0.4056 1.3945 0.4056 0.46029 1.0208 0.46029 0.61068 0 1.0163-0.46484 0.40559-0.46485 0.40559-1.4173 0-0.89779-0.41015-1.3581-0.4056-0.46485-1.0117-0.46485-0.61523 0-1.0208 0.46029t-0.4056 1.39z"/>
    </g>
   </g>
  </g>
  <rect transform="translate(-61.18,-61.18)" x="225.68" y="93.18" width="185" height="85" ry="12" fill="#333" stroke="#666"/>
  <g fill="#666" aria-label="N">
   <path d="m274.08 110.19v-9.5442h1.2956l5.013 7.4935v-7.4935h1.2109v9.5442h-1.2956l-5.013-7.5v7.5z"/>
  </g>
  <path d="m270.28 125.8h16.361v10.135h-2.1937v4.9645h2.1937v9.4909h-2.1937v4.9645h2.1937v2.4822h2.3328v4.2344h-2.3328v2.0442h-2.1937v5.8406h2.1937v10.234h-16.361v-10.234h2.0484v-5.8406h-2.0484v-2.0442h-2.04v-4.2344h2.04v-2.4822h2.0484v-4.9645h-2.0484v-9.4909h2.0484v-4.9645h-2.0484z" fill="#0d0d0d" stroke="#666" stroke-width="1px"/>
  <g fill="#666" aria-label="F">
   <path d="m232.23 109.47v-9.5442h6.4388v1.1263h-5.1758v2.9557h4.4792v1.1263h-4.4792v4.3359z"/>
  </g>
  <path d="m227.36 125.8h16.354v3.1262h2.1902v4.3804h-2.1902v2.6283h-2.4822v4.9645h2.4822v9.4909h-2.4822v4.9645h2.4822v8.7609h-2.4822v5.8406h2.4822v10.234h-16.354v-10.234h2.4822v-5.8406h-2.4822v-8.7609h2.4822v-4.9645h-2.4822v-9.4909h2.4822v-4.9645h-2.4822v-2.6283h-2.3362v-4.3804h2.3362z" fill="#0d0d0d" stroke="#666" stroke-width="1px"/>
 </g>
</svg>
