<?xml version="1.0" encoding="UTF-8" standalone="no"?>
<svg
   width="100%"
   height="100%"
   viewBox="0 0 1280 1150"
   version="1.1"
   xml:space="preserve"
   style="fill-rule:evenodd;clip-rule:evenodd;stroke-linecap:round;stroke-linejoin:round;stroke-miterlimit:1.41421;"
   id="svg149"
   sodipodi:docname="front.svg"
   inkscape:version="1.2 (1:1.2+202206011327+fc4e4096c5)"
   xmlns:inkscape="http://www.inkscape.org/namespaces/inkscape"
   xmlns:sodipodi="http://sodipodi.sourceforge.net/DTD/sodipodi-0.dtd"
   xmlns="http://www.w3.org/2000/svg"
   xmlns:svg="http://www.w3.org/2000/svg"><defs
   id="defs153">
        
        
        
        
        
        
    
            
        </defs><sodipodi:namedview
   id="namedview151"
   pagecolor="#ffffff"
   bordercolor="#666666"
   borderopacity="1.0"
   inkscape:showpageshadow="2"
   inkscape:pageopacity="0.0"
   inkscape:pagecheckerboard="0"
   inkscape:deskcolor="#d1d1d1"
   showgrid="false"
   inkscape:zoom="0.41043478"
   inkscape:cx="532.36229"
   inkscape:cy="702.91314"
   inkscape:window-width="1920"
   inkscape:window-height="1021"
   inkscape:window-x="0"
   inkscape:window-y="0"
   inkscape:window-maximized="1"
   inkscape:current-layer="svg149" />
    
    
    
    
    
    
    
    
    
    
    
    
    
    
    
    
    
    
    
<g
   id="g4458"
   transform="translate(-51.53375,-35.320057)"><path
     d="m 1012,952 18,-1 26,-11 24,-540 C 670.65,340.658 370.032,363.267 180,420 l 28,545 34,3 z"
     style="fill:#dfe0e5;stroke:#7d7e83;stroke-width:1px"
     id="path2" /><g
     id="g20">
        <g
   transform="rotate(-3.623159,349.99815,451.00154)"
   id="g6">
            <path
   d="M 373,442 H 327 L 325.353,460.461 373,460 Z"
   style="stroke:#000000;stroke-width:1px"
   id="path4" />
        </g>
        <path
   d="m 637,427 321,-1.5 c 24.533,-0.115 49.59,0.324 74,2.5 5.74,0.512 10.2,7.102 13.5,11 l -0.5,9 -408,-3 z"
   style="stroke:#7d7e83;stroke-width:1px"
   id="path8" />
        <path
   id="rect10"
   style="fill:#dfe0e5;stroke:#000000;stroke-width:1px"
   d="m 371,416 h 127 v 42 H 371 Z" />
        <path
   id="rect12"
   style="fill:#dfe0e5;stroke:#000000;stroke-width:1px"
   d="m 515,412 h 126 v 34 H 515 Z" />
        <path
   id="rect14"
   style="fill:#dfe0e5;stroke:#7d7e83;stroke-width:1px"
   d="m 724,413 h 12 v 25 h -12 z" />
        <path
   id="rect16"
   style="fill:#dfe0e5;stroke:#7d7e83;stroke-width:1px"
   d="m 832,411 h 13 v 26 h -13 z" />
        <path
   id="rect18"
   style="fill:#dfe0e5;stroke:#7d7e83;stroke-width:1px"
   d="m 939,411 h 11 v 27 h -11 z" />
    </g><path
     d="m 230,980 c 182.866,46.97 720.005,15.205 787,-22 9.73,-9.563 12.05,-20.248 16,-35 16.67,-62.165 26.26,-241.802 26,-471 -6.9,-12.47 -17.72,-17.176 -30,-19 -295.3,-0.788 -538.492,4.717 -709,19 -5.535,137.674 -18.809,202.873 -38.5,208 -1.902,0.495 -4.15,0.567 -5,0 -20.188,-13.462 -36.775,-58.649 -40.5,-195 -0.069,-2.537 -3.166,-4.897 -6,-5 -7.649,-0.278 -15.312,-0.049 -23,1 -6.048,0.825 -10.958,7.615 -11,13.5 -1.092,154.685 9.31,322.151 34,505.5 z"
     style="fill:#981831;stroke:#000000;stroke-width:1px"
     id="path22" /><g
     id="Schlitze">
        <g
   id="g40">
            <g
   transform="matrix(1,0,0,1.1875,0,-104.438)"
   id="g26">
                <path
   d="m 1033,542.579 c 0,-1.104 -1.06,-2 -2.38,-2 -230.886,-1.937 -461.446,1.288 -691.245,16.421 -1.311,0 -2.375,0.896 -2.375,2 v 4 c 0,1.104 1.064,2 2.375,2 229.112,-12.544 459.656,-17.328 691.245,-16.421 1.32,0 2.38,-0.896 2.38,-2 z"
   style="fill:none;stroke:#880a20;stroke-width:0.91px"
   id="path24" />
            </g>
            <g
   transform="matrix(1,0,0,1.1875,0,-124.604)"
   id="g30">
                <path
   d="m 1033,542.579 c 0,-1.104 -1.06,-2 -2.38,-2 -230.886,-1.937 -461.446,1.288 -691.245,16.421 -1.311,0 -2.375,0.896 -2.375,2 v 4 c 0,1.104 1.064,2 2.375,2 229.112,-12.544 459.656,-17.328 691.245,-16.421 1.32,0 2.38,-0.896 2.38,-2 z"
   style="fill:none;stroke:#880a20;stroke-width:0.91px"
   id="path28" />
            </g>
            <g
   transform="matrix(1,0,0,1.1875,0,-144.583)"
   id="g34">
                <path
   d="m 1033,542.579 c 0,-1.104 -1.06,-2 -2.38,-2 -230.886,-1.937 -461.446,1.288 -691.245,16.421 -1.311,0 -2.375,0.896 -2.375,2 v 4 c 0,1.104 1.064,2 2.375,2 229.112,-12.544 459.656,-17.328 691.245,-16.421 1.32,0 2.38,-0.896 2.38,-2 z"
   style="fill:none;stroke:#880a20;stroke-width:0.91px"
   id="path32" />
            </g>
            <path
   d="m 391.85,491.475 8.15,6.236 c 1.436,1.098 1.936,2.311 1.73,3.298 -20.797,1.201 -41.582,2.476 -62.355,3.827 -1.311,0 -2.375,-1.065 -2.375,-2.375 v -4.75 c 0,-1.311 1.064,-2.375 2.375,-2.375 17.487,-1.368 34.979,-2.654 52.475,-3.861 z M 533.45,483.35 542,490 c 2.245,1.746 3.314,3.053 2.964,3.893 -23.122,0.966 -46.231,2.018 -69.326,3.159 -1.096,-0.906 0.043,-2.638 3.362,-5.052 l 8.77,-6.378 c 15.224,-0.811 30.45,-1.568 45.68,-2.272 z m 94.394,-3.72 c 134.092,-4.395 268.38,-5.133 402.776,-3.794 1.32,0 2.38,1.064 2.38,2.375 v 4.75 c 0,1.31 -1.06,2.375 -2.38,2.375 -136.897,-0.637 -273.432,1.088 -409.521,5.682 -4.735,0.065 -6.354,-0.472 -2.099,-4.018 z"
   style="fill:none;stroke:#880a20;stroke-width:1px"
   id="path36" />
            <path
   d="m 374.226,472.213 6.081,9.555 c -13.649,0.821 -27.293,1.675 -40.932,2.562 -1.311,0 -2.375,-1.064 -2.375,-2.375 v -4.75 c 0,-1.311 1.064,-2.375 2.375,-2.375 11.615,-0.908 23.232,-1.78 34.851,-2.617 z M 518,464 l 5.274,10.319 C 513.877,474.734 496,475 496,475 l 6.39,-10.645 c 5.154,-0.263 10.458,-0.238 15.61,-0.355 z m 125.752,-6 c 128.804,-3.946 257.787,-3.956 386.868,-2.67 1.32,0 2.38,1.064 2.38,2.375 v 4.75 c 0,1.311 -1.06,2.375 -2.38,2.375 C 899.329,464.22 640,468 640,468 Z"
   style="fill:none;stroke:#880a20;stroke-width:1px"
   id="path38" />
        </g>
        <g
   id="Stege">
            <path
   id="rect42"
   style="stroke:#880a20;stroke-width:1px"
   d="m 730,450 h 288 V 555 H 730 Z" />
            <g
   transform="matrix(0.866667,0,0,1,52,0)"
   id="g46">
                <path
   id="rect44"
   style="fill:#911834;stroke:#880a20;stroke-width:1.07px"
   d="m 390,480.5 h 15 V 585 h -15 z" />
            </g>
            <g
   transform="matrix(0.866667,0,0,1.19617,163.851,-114.761)"
   id="g50">
                <path
   id="rect48"
   style="fill:#911834;stroke:#880a20;stroke-width:0.96px"
   d="m 390,480.5 h 15 V 585 h -15 z" />
            </g>
            <g
   transform="matrix(0.866667,0,0,1.05263,280.753,-30.7895)"
   id="g54">
                <path
   id="rect52"
   style="fill:#911834;stroke:#880a20;stroke-width:1.04px"
   d="m 390,480.5 h 15 V 585 h -15 z" />
            </g>
            <g
   transform="matrix(0.866667,0,0,1.05263,387,-55.7895)"
   id="g58">
                <path
   id="rect56"
   style="fill:#911834;stroke:#880a20;stroke-width:1.04px"
   d="m 390,480.5 h 15 V 585 h -15 z" />
            </g>
            <g
   transform="matrix(0.866667,0,0,1.05263,494.34,-55.7895)"
   id="g62">
                <path
   id="rect60"
   style="fill:#911834;stroke:#880a20;stroke-width:1.04px"
   d="m 390,480.5 h 15 V 585 h -15 z" />
            </g>
            <g
   transform="matrix(0.866667,0,0,1.05263,603.936,-55.7895)"
   id="g66">
                <path
   id="rect64"
   style="fill:#911834;stroke:#880a20;stroke-width:1.04px"
   d="m 390,480.5 h 15 V 585 h -15 z" />
            </g>
        </g>
    </g><g
     id="g72">
        <path
   d="m 230,980 c 182.866,46.97 720.005,15.205 787,-22 9.73,-9.563 12.05,-20.248 16,-35 16.67,-62.165 26.26,-241.802 26,-471 -6.9,-12.47 -17.72,-17.176 -30,-19 -295.3,-0.788 -538.492,4.717 -709,19 -5.535,137.674 -18.809,202.873 -38.5,208 -1.902,0.495 -4.15,0.567 -5,0 -20.188,-13.462 -36.775,-58.649 -40.5,-195 -0.069,-2.537 -3.166,-4.897 -6,-5 -7.649,-0.278 -15.312,-0.049 -23,1 -6.048,0.825 -10.958,7.615 -11,13.5 -1.092,154.685 9.31,322.151 34,505.5 z m 803,-460.291 c 0,-1.311 -1.06,-2.375 -2.38,-2.375 -230.886,-2.3 -461.446,1.529 -691.245,19.5 -1.311,0 -2.375,1.064 -2.375,2.375 v 4.75 c 0,1.31 1.064,2.375 2.375,2.375 229.112,-14.896 459.656,-20.577 691.245,-19.5 1.32,0 2.38,-1.065 2.38,-2.375 z m 0,-19.98 c 0,-1.31 -1.06,-2.375 -2.38,-2.375 -230.886,-2.299 -461.446,1.53 -691.245,19.5 -1.311,0 -2.375,1.065 -2.375,2.375 v 4.75 c 0,1.311 1.064,2.375 2.375,2.375 229.112,-14.895 459.656,-20.576 691.245,-19.5 1.32,0 2.38,-1.064 2.38,-2.375 z m -641.15,-8.254 8.15,6.236 c 1.436,1.098 1.936,2.311 1.73,3.298 -20.797,1.201 -41.582,2.476 -62.355,3.827 -1.311,0 -2.375,-1.065 -2.375,-2.375 v -4.75 c 0,-1.311 1.064,-2.375 2.375,-2.375 17.487,-1.368 34.979,-2.654 52.475,-3.861 z M 533.45,483.35 542,490 c 2.245,1.746 3.314,3.053 2.964,3.893 -23.122,0.966 -46.231,2.018 -69.326,3.159 -1.096,-0.906 0.043,-2.638 3.362,-5.052 l 8.77,-6.378 c 15.224,-0.811 30.45,-1.568 45.68,-2.272 z m 94.394,-3.72 c 134.092,-4.395 268.38,-5.133 402.776,-3.794 1.32,0 2.38,1.064 2.38,2.375 v 4.75 c 0,1.31 -1.06,2.375 -2.38,2.375 -136.897,-0.637 -273.432,1.088 -409.521,5.682 -4.735,0.065 -6.354,-0.472 -2.099,-4.018 z m -253.618,-7.417 6.081,9.555 c -13.649,0.821 -27.293,1.675 -40.932,2.562 -1.311,0 -2.375,-1.064 -2.375,-2.375 v -4.75 c 0,-1.311 1.064,-2.375 2.375,-2.375 11.615,-0.908 23.232,-1.78 34.851,-2.617 z M 518,464 l 5.274,10.319 C 513.877,474.734 496,475 496,475 l 6.39,-10.645 c 5.154,-0.263 10.458,-0.238 15.61,-0.355 z m 125.752,-6 c 128.804,-3.946 257.787,-3.956 386.868,-2.67 1.32,0 2.38,1.064 2.38,2.375 v 4.75 c 0,1.311 -1.06,2.375 -2.38,2.375 C 899.329,464.22 640,468 640,468 Z"
   style="fill:#981831;stroke:#5f0f22;stroke-width:1px"
   id="path70" />
    </g><g
     transform="matrix(1.10526,0,0,1.10526,95.9474,-56.5526)"
     id="g76">
            <path
   id="circle74"
   style="stroke:#000000;stroke-width:0.9px"
   d="M 485,437.5 A 47.5,47.5 0 0 1 437.5,485 47.5,47.5 0 0 1 390,437.5 47.5,47.5 0 0 1 437.5,390 47.5,47.5 0 0 1 485,437.5 Z" />
        </g><g
     transform="matrix(1.10526,0,0,1.10526,-47.5526,-50.5526)"
     id="g80">
            <path
   id="circle78"
   style="stroke:#000000;stroke-width:0.9px"
   d="M 485,437.5 A 47.5,47.5 0 0 1 437.5,485 47.5,47.5 0 0 1 390,437.5 47.5,47.5 0 0 1 437.5,390 47.5,47.5 0 0 1 485,437.5 Z" />
        </g><path
     id="circle82"
     style="fill:#eeeef0;stroke:#000000;stroke-width:1px"
     d="m 482.36572,433 a 47.5,47.5 0 0 1 -47.5,47.5 47.5,47.5 0 0 1 -47.5,-47.5 47.5,47.5 0 0 1 47.5,-47.5 47.5,47.5 0 0 1 47.5,47.5 z" /><g
     transform="translate(142,-10.5)"
     id="g88">
            <path
   id="circle86"
   style="fill:#eeeef0;stroke:#000000;stroke-width:1px"
   d="M 485,437.5 A 47.5,47.5 0 0 1 437.5,485 47.5,47.5 0 0 1 390,437.5 47.5,47.5 0 0 1 437.5,390 47.5,47.5 0 0 1 485,437.5 Z" />
        </g><path
     d="m 180,240 c -19.525,1.732 -28.792,16.526 -30,30 -21.073,235.082 -2.439,468.103 40,700 10.348,6.22 34.241,8.649 34,5 -21.65,-171.695 -34.136,-343.364 -34,-515 0.006,-7.389 7.978,-15.029 16,-16 9.222,-1.117 18.543,-1.533 28,-1 5.894,1.946 5.577,8.03 6,20 4.204,119.018 17.723,173.998 37,191 1.3,1.147 3.872,1.37 5,0 18.958,-23.029 29.739,-92.04 32,-211 0.084,-4.396 3.784,-8.241 7,-8.5 l 62,-3.5 c 4.988,-27.342 22.092,-48.673 51,-50 20.784,-0.954 50.475,15.722 53,42 l 40,-1 c 5.037,-24.883 24.775,-47.1 53,-47.023 26.215,0.071 50.046,24.068 50,43.023 138.405,-3.574 275.71,-3.137 412,1 7.32,0.018 19.96,11.558 20,19 0.92,197.399 -3.22,367.91 -21,466 -4.26,23.484 -8.53,41.141 -19,53 54.81,-8.9 109.51,-21.22 164,-40 52.26,-156.005 70.59,-365.387 43,-647 -1.33,-13.543 -10.63,-28.796 -24,-30 -341.648,-30.755 -683.314,-30.308 -1025,0 z"
     style="fill:#dbdee3;stroke:#000000;stroke-width:1px"
     id="path101" /><path
     d="m 434,1002.1 c 14.782,-118.838 22.025,-105.42 24,0.9 z"
     style="fill:#493d51;stroke:#5f0f22;stroke-width:1px"
     id="path103" /><g
     transform="translate(92)"
     id="g107">
        <path
   d="m 434,1003.53 c 14.782,-118.828 22.025,-106.415 24,-0.09 z"
   style="fill:#493d51;stroke:#5f0f22;stroke-width:1px"
   id="path105" />
    </g><g
     transform="translate(182.686)"
     id="g111">
        <path
   d="M 434.314,1002.26 C 449.096,883.423 456.025,895.219 458,1001.54 Z"
   style="fill:#493d51;stroke:#5f0f22;stroke-width:1px"
   id="path109" />
    </g><g
     transform="translate(274,-3.53511)"
     id="g115">
        <path
   d="m 434,1002.21 c 14.782,-118.838 22.025,-107.649 24,-1.33 z"
   style="fill:#493d51;stroke:#5f0f22;stroke-width:1px"
   id="path113" />
    </g><g
     transform="translate(362,-13.5351)"
     id="g119">
        <path
   d="m 433.836,1006.53 c 14.782,-118.828 22.189,-108.315 24.164,-2 z"
   style="fill:#493d51;stroke:#5f0f22;stroke-width:1px"
   id="path117" />
    </g><g
     transform="matrix(0,-0.994999,1.18062,0,-602.609,1368.66)"
     id="g123">
        <g
   aria-label="Power"
   id="text121"
   style="font-size:20.827px;font-family:ArialMT, Arial, sans-serif;fill:#ffffff"><path
     d="m 473.60677,900 v -14.90839 h 5.6237 q 1.48473,0 2.26778,0.14237 1.0983,0.18305 1.84067,0.70169 0.74237,0.50848 1.18982,1.43389 0.45763,0.92542 0.45763,2.03389 0,1.90168 -1.21017,3.22371 -1.21016,1.31186 -4.37285,1.31186 h -3.82371 V 900 Z m 1.97287,-7.82029 h 3.85422 q 1.91185,0 2.71523,-0.71186 0.80339,-0.71186 0.80339,-2.00338 0,-0.93559 -0.47796,-1.5966 -0.4678,-0.67119 -1.24067,-0.88474 -0.49831,-0.13221 -1.84067,-0.13221 h -3.81354 z"
     id="path883" /><path
     d="m 486.58297,894.60003 q 0,-2.99998 1.66778,-4.44404 1.39322,-1.19999 3.3966,-1.19999 2.2271,0 3.64065,1.46439 1.41355,1.45423 1.41355,4.0271 0,2.08473 -0.6305,3.28473 -0.62034,1.18982 -1.82033,1.85083 -1.18982,0.66102 -2.60337,0.66102 -2.26779,0 -3.67117,-1.45423 -1.39321,-1.45423 -1.39321,-4.18981 z m 1.88134,0 q 0,2.07457 0.90508,3.11185 0.90508,1.02711 2.27796,1.02711 1.3627,0 2.26778,-1.03728 0.90508,-1.03728 0.90508,-3.1627 0,-2.00337 -0.91525,-3.03049 -0.90508,-1.03728 -2.25761,-1.03728 -1.37288,0 -2.27796,1.02711 -0.90508,1.02712 -0.90508,3.10168 z"
     id="path885" /><path
     d="m 500.84051,900 -3.30506,-10.79994 h 1.89151 l 1.71864,6.23386 0.64067,2.31864 q 0.0407,-0.17289 0.55932,-2.22711 l 1.71863,-6.32539 h 1.88135 l 1.61694,6.26437 0.53898,2.0644 0.62033,-2.08474 1.85084,-6.24403 h 1.77965 L 508.97606,900 h -1.90168 l -1.71864,-6.46776 -0.41695,-1.84067 L 502.75237,900 Z"
     id="path887" /><path
     d="m 521.28107,896.52205 1.89152,0.2339 q -0.44746,1.65762 -1.65762,2.57287 -1.21016,0.91525 -3.09151,0.91525 -2.36947,0 -3.76269,-1.45423 -1.38304,-1.4644 -1.38304,-4.09828 0,-2.72541 1.40338,-4.23049 1.40338,-1.50507 3.64066,-1.50507 2.16609,0 3.53896,1.47456 1.37288,1.47457 1.37288,4.14913 0,0.16271 -0.0102,0.48813 h -8.0542 q 0.1017,1.77966 1.00678,2.72541 0.90508,0.94576 2.25761,0.94576 1.00678,0 1.71864,-0.52881 0.71186,-0.52881 1.1288,-1.68813 z m -6.01013,-2.9593 h 6.03047 q -0.12203,-1.36271 -0.69152,-2.04406 -0.87457,-1.05762 -2.26778,-1.05762 -1.26101,0 -2.12541,0.84406 -0.85424,0.84407 -0.94576,2.25762 z"
     id="path889" /><path
     d="m 525.45054,900 v -10.79994 h 1.64745 v 1.63728 q 0.6305,-1.14915 1.15932,-1.51525 0.53898,-0.36609 1.17965,-0.36609 0.92542,0 1.88134,0.58982 l -0.6305,1.6983 q -0.67118,-0.39661 -1.34237,-0.39661 -0.59999,0 -1.07796,0.3661 -0.47796,0.35593 -0.68135,0.9966 -0.30508,0.97627 -0.30508,2.13559 V 900 Z"
     id="path891" /></g>
    </g><g
     transform="matrix(0,-1.08255,1.18062,0,-508.811,1410.16)"
     id="g127">
        <g
   aria-label="Internet"
   id="text125"
   style="font-size:20.827px;font-family:ArialMT, Arial, sans-serif;fill:#ffffff"><path
     d="m 473.94236,900 v -14.90839 h 1.97287 V 900 Z"
     id="path894" /><path
     d="m 479.15928,900 v -10.79994 h 1.64745 v 1.53559 q 1.18982,-1.77965 3.43727,-1.77965 0.97626,0 1.78982,0.35593 0.82372,0.34576 1.2305,0.91524 0.40678,0.56949 0.56949,1.35254 0.10169,0.50847 0.10169,1.77965 V 900 h -1.8305 v -6.56945 q 0,-1.11864 -0.21355,-1.66779 -0.21356,-0.55932 -0.76271,-0.88474 -0.53898,-0.33559 -1.27118,-0.33559 -1.16949,0 -2.02372,0.74237 -0.84406,0.74236 -0.84406,2.81693 V 900 Z"
     id="path896" /><path
     d="m 494.73885,898.36272 0.26441,1.61694 q -0.77288,0.16271 -1.38304,0.16271 -0.99661,0 -1.54576,-0.31525 -0.54915,-0.31525 -0.77288,-0.82372 -0.22372,-0.51865 -0.22372,-2.16609 v -6.21353 h -1.34237 v -1.42372 h 1.34237 v -2.67456 l 1.82033,-1.0983 v 3.77286 h 1.84066 v 1.42372 h -1.84066 v 6.31522 q 0,0.78305 0.0915,1.00677 0.1017,0.22373 0.31525,0.35593 0.22373,0.13221 0.63051,0.13221 0.30508,0 0.80338,-0.0712 z"
     id="path898" /><path
     d="m 503.92185,896.52205 1.89152,0.2339 q -0.44746,1.65762 -1.65762,2.57287 -1.21016,0.91525 -3.09151,0.91525 -2.36948,0 -3.76269,-1.45423 -1.38304,-1.4644 -1.38304,-4.09828 0,-2.72541 1.40338,-4.23049 1.40338,-1.50507 3.64066,-1.50507 2.16609,0 3.53896,1.47456 1.37287,1.47457 1.37287,4.14913 0,0.16271 -0.0102,0.48813 h -8.05419 q 0.1017,1.77966 1.00678,2.72541 0.90508,0.94576 2.25761,0.94576 1.00677,0 1.71863,-0.52881 0.71186,-0.52881 1.12881,-1.68813 z m -6.01013,-2.9593 h 6.03047 q -0.12203,-1.36271 -0.69152,-2.04406 -0.87457,-1.05762 -2.26778,-1.05762 -1.26101,0 -2.12542,0.84406 -0.85423,0.84407 -0.94575,2.25762 z"
     id="path900" /><path
     d="m 508.09132,900 v -10.79994 h 1.64745 v 1.63728 q 0.6305,-1.14915 1.15931,-1.51525 0.53898,-0.36609 1.17966,-0.36609 0.92542,0 1.88134,0.58982 l -0.6305,1.6983 q -0.67118,-0.39661 -1.34237,-0.39661 -0.59999,0 -1.07796,0.3661 -0.47796,0.35593 -0.68135,0.9966 -0.30508,0.97627 -0.30508,2.13559 V 900 Z"
     id="path902" /><path
     d="m 515.04721,900 v -10.79994 h 1.64745 v 1.53559 q 1.18982,-1.77965 3.43727,-1.77965 0.97627,0 1.78982,0.35593 0.82372,0.34576 1.2305,0.91524 0.40678,0.56949 0.56949,1.35254 0.10169,0.50847 0.10169,1.77965 V 900 h -1.83049 v -6.56945 q 0,-1.11864 -0.21356,-1.66779 -0.21356,-0.55932 -0.76271,-0.88474 -0.53898,-0.33559 -1.27118,-0.33559 -1.16948,0 -2.02372,0.74237 -0.84406,0.74236 -0.84406,2.81693 V 900 Z"
     id="path904" /><path
     d="m 534.02338,896.52205 1.89151,0.2339 q -0.44745,1.65762 -1.65762,2.57287 -1.21016,0.91525 -3.0915,0.91525 -2.36948,0 -3.7627,-1.45423 -1.38304,-1.4644 -1.38304,-4.09828 0,-2.72541 1.40338,-4.23049 1.40339,-1.50507 3.64066,-1.50507 2.16609,0 3.53896,1.47456 1.37288,1.47457 1.37288,4.14913 0,0.16271 -0.0102,0.48813 h -8.05419 q 0.10169,1.77966 1.00677,2.72541 0.90508,0.94576 2.25761,0.94576 1.00678,0 1.71864,-0.52881 0.71186,-0.52881 1.12881,-1.68813 z m -6.01014,-2.9593 h 6.03047 q -0.12203,-1.36271 -0.69152,-2.04406 -0.87457,-1.05762 -2.26778,-1.05762 -1.26101,0 -2.12541,0.84406 -0.85423,0.84407 -0.94576,2.25762 z"
     id="path906" /><path
     d="m 542.20977,898.36272 0.26441,1.61694 q -0.77288,0.16271 -1.38305,0.16271 -0.9966,0 -1.54575,-0.31525 -0.54915,-0.31525 -0.77288,-0.82372 -0.22373,-0.51865 -0.22373,-2.16609 v -6.21353 h -1.34236 v -1.42372 h 1.34236 v -2.67456 l 1.82033,-1.0983 v 3.77286 h 1.84067 v 1.42372 h -1.84067 v 6.31522 q 0,0.78305 0.0915,1.00677 0.10169,0.22373 0.31525,0.35593 0.22373,0.13221 0.6305,0.13221 0.30509,0 0.80339,-0.0712 z"
     id="path908" /></g>
    </g><g
     transform="matrix(0,-1.01214,1.18062,0,-416.755,1376.9)"
     id="g131">
        <g
   aria-label="WLAN"
   id="text129"
   style="font-size:20.827px;font-family:ArialMT, Arial, sans-serif;fill:#ffffff"><path
     d="m 476.21015,900 -3.95591,-14.90839 h 2.02371 l 2.26779,9.77283 q 0.3661,1.53558 0.6305,3.05083 0.56949,-2.38982 0.67118,-2.75592 l 2.83728,-10.06774 h 2.37964 l 2.13558,7.54572 q 0.80339,2.80676 1.15932,5.27794 0.28474,-1.41356 0.74237,-3.24405 l 2.33897,-9.57961 h 1.98304 L 487.33551,900 h -1.90169 l -3.14235,-11.35926 q -0.39661,-1.42372 -0.4678,-1.74914 -0.23389,1.02711 -0.43728,1.74914 L 478.22369,900 Z"
     id="path911" /><path
     d="m 493.18293,900 v -14.90839 h 1.97287 v 13.14908 h 7.34233 V 900 Z"
     id="path913" /><path
     d="m 503.20999,900 5.72539,-14.90839 h 2.12541 L 517.16245,900 h -2.24744 l -1.73897,-4.51523 h -6.23387 L 505.30489,900 Z m 4.30167,-6.122 h 5.05421 l -1.55592,-4.12879 q -0.71186,-1.88134 -1.05762,-3.09151 -0.28475,1.43389 -0.80339,2.84744 z"
     id="path915" /><path
     d="m 518.71838,900 v -14.90839 h 2.02372 l 7.83046,11.70502 v -11.70502 h 1.89151 V 900 h -2.02371 l -7.83047,-11.71519 V 900 Z"
     id="path917" /></g>
    </g><g
     transform="matrix(0,-1.08255,1.18062,0,-324.755,1406.97)"
     id="g135">
        <g
   aria-label="LAN"
   id="text133"
   style="font-size:20.827px;font-family:ArialMT, Arial, sans-serif;fill:#ffffff"><path
     d="m 473.52542,900 v -14.90839 h 1.97287 v 13.14908 h 7.34233 V 900 Z"
     id="path920" /><path
     d="m 483.55248,900 5.72539,-14.90839 h 2.12541 L 497.50494,900 h -2.24745 l -1.73897,-4.51523 h -6.23386 L 485.64738,900 Z m 4.30167,-6.122 h 5.05421 l -1.55593,-4.12879 q -0.71186,-1.88134 -1.05762,-3.09151 -0.28474,1.43389 -0.80338,2.84744 z"
     id="path922" /><path
     d="m 499.06086,900 v -14.90839 h 2.02372 l 7.83046,11.70502 v -11.70502 h 1.89152 V 900 h -2.02372 l -7.83046,-11.71519 V 900 Z"
     id="path924" /></g>
    </g><g
     transform="matrix(0,-1.08255,1.18062,0,-236.556,1398.07)"
     id="g139">
        <g
   aria-label="Info"
   id="text137"
   style="font-size:20.827px;font-family:ArialMT, Arial, sans-serif;fill:#ffffff"><path
     d="m 473.94236,900 v -14.90839 h 1.97287 V 900 Z"
     id="path927" /><path
     d="m 479.15928,900 v -10.79994 h 1.64745 v 1.53559 q 1.18982,-1.77965 3.43727,-1.77965 0.97626,0 1.78982,0.35593 0.82372,0.34576 1.2305,0.91524 0.40678,0.56949 0.56949,1.35254 0.10169,0.50847 0.10169,1.77965 V 900 h -1.8305 v -6.56945 q 0,-1.11864 -0.21355,-1.66779 -0.21356,-0.55932 -0.76271,-0.88474 -0.53898,-0.33559 -1.27118,-0.33559 -1.16949,0 -2.02372,0.74237 -0.84406,0.74236 -0.84406,2.81693 V 900 Z"
     id="path929" /><path
     d="m 491.17955,900 v -9.37622 h -1.61694 v -1.42372 h 1.61694 v -1.14914 q 0,-1.08813 0.19322,-1.61694 0.26441,-0.71186 0.92542,-1.14915 0.67118,-0.44746 1.87117,-0.44746 0.77288,0 1.70847,0.18305 l -0.27457,1.59661 q -0.56949,-0.1017 -1.07796,-0.1017 -0.8339,0 -1.17966,0.35593 -0.34576,0.35593 -0.34576,1.3322 v 0.9966 h 2.10507 v 1.42372 h -2.10507 V 900 Z"
     id="path931" /><path
     d="m 495.84732,894.60003 q 0,-2.99998 1.66779,-4.44404 1.39321,-1.19999 3.39659,-1.19999 2.22711,0 3.64066,1.46439 1.41355,1.45423 1.41355,4.0271 0,2.08473 -0.63051,3.28473 -0.62033,1.18982 -1.82033,1.85083 -1.18982,0.66102 -2.60337,0.66102 -2.26778,0 -3.67117,-1.45423 -1.39321,-1.45423 -1.39321,-4.18981 z m 1.88135,0 q 0,2.07457 0.90508,3.11185 0.90508,1.02711 2.27795,1.02711 1.3627,0 2.26778,-1.03728 0.90508,-1.03728 0.90508,-3.1627 0,-2.00337 -0.91525,-3.03049 -0.90508,-1.03728 -2.25761,-1.03728 -1.37287,0 -2.27795,1.02711 -0.90508,1.02712 -0.90508,3.10168 z"
     id="path933" /></g>
    </g><g
     transform="translate(0.282228,11.2593)"
     id="g143">
        <path
   d="m 1111,248 c -12.33,100.331 -10.63,200.664 0,301 3.9,36.859 17.12,48.012 29,0 23.97,-96.854 28.51,-196.529 0,-301 -4.94,-18.111 -26.17,-23.027 -29,0 z"
   style="fill:#61636f;stroke:#373535;stroke-width:3.5px"
   id="path141" />
    </g><g
     transform="rotate(180,701.19,413.3705)"
     id="g147">
        <path
   d="m 1105.38,247.741 c -17.02,147.041 0.35,265.416 5.62,301.259 5.39,36.67 31,49.095 37,0 12.12,-99.158 8.1,-197.238 -8,-301 -5.54,-35.678 -29.48,-44.633 -34.62,-0.259 z"
   style="fill:#61636f;stroke:#373535;stroke-width:3.5px"
   id="path145" />
    </g><g
     transform="matrix(0.805653,0,0,1,105.23868,-2.878145)"
     id="g4353"
     style="clip-rule:evenodd;fill-rule:evenodd;stroke-linecap:round;stroke-linejoin:round;stroke-miterlimit:1.41421">
            <g
   aria-label="WLAN"
   id="g4351"
   style="font-weight:900;font-size:27.769px;font-family:Arial-Black, 'Arial Black', sans-serif"><path
     d="m 543.8271,419.75629 h 5.00331 l 3.49824,14.7116 3.47112,-14.7116 h 5.03042 l 3.47113,14.7116 3.49824,-14.7116 h 4.96262 L 567.98939,440 h -6.02023 L 558.29464,424.61044 554.66081,440 h -6.02023 z"
     style="font-weight:bold;font-family:sans-serif;-inkscape-font-specification:'sans-serif Bold'"
     id="path4343" /><path
     d="m 576.17907,419.75629 h 5.22025 v 16.29802 h 9.16594 V 440 h -14.38619 z"
     style="font-weight:bold;font-family:sans-serif;-inkscape-font-specification:'sans-serif Bold'"
     id="path4345" /><path
     d="m 606.1582,436.31193 h -8.16257 L 596.70752,440 h -5.24736 l 7.49817,-20.24371 h 6.22362 L 612.68012,440 h -5.24737 z m -6.86089,-3.75587 h 5.54566 l -2.76605,-8.05409 z"
     style="font-weight:bold;font-family:sans-serif;-inkscape-font-specification:'sans-serif Bold'"
     id="path4347" /><path
     d="m 615.36482,419.75629 h 5.8304 l 7.36259,13.8845 v -13.8845 h 4.94906 V 440 h -5.8304 l -7.36259,-13.8845 V 440 h -4.94906 z"
     style="font-weight:bold;font-family:sans-serif;-inkscape-font-specification:'sans-serif Bold'"
     id="path4349" /></g>
        </g><g
     transform="matrix(0.9413,0,0,1,-109.0998,3.108295)"
     id="g4363"
     style="clip-rule:evenodd;fill-rule:evenodd;stroke-linecap:round;stroke-linejoin:round;stroke-miterlimit:1.41421">
            <g
   aria-label="WPS"
   id="g4361"
   style="font-weight:900;font-size:27.769px;font-family:Arial-Black, 'Arial Black', sans-serif"><path
     d="m 543.8271,419.75629 h 5.00331 l 3.49824,14.7116 3.47112,-14.7116 h 5.03042 l 3.47113,14.7116 3.49824,-14.7116 h 4.96262 L 567.98939,440 h -6.02023 L 558.29464,424.61044 554.66081,440 h -6.02023 z"
     style="font-weight:bold;font-family:sans-serif;-inkscape-font-specification:'sans-serif Bold'"
     id="path4355" /><path
     d="m 576.17907,419.75629 h 8.66426 q 3.86433,0 5.92531,1.722 2.07454,1.70845 2.07454,4.88127 0,3.18639 -2.07454,4.90839 -2.06098,1.70845 -5.92531,1.70845 h -3.44401 V 440 h -5.22025 z m 5.22025,3.78298 v 5.65414 h 2.88808 q 1.51862,0 2.34572,-0.73219 0.82711,-0.74575 0.82711,-2.10166 0,-1.3559 -0.82711,-2.08809 -0.8271,-0.7322 -2.34572,-0.7322 z"
     style="font-weight:bold;font-family:sans-serif;-inkscape-font-specification:'sans-serif Bold'"
     id="path4357" /><path
     d="m 610.61914,420.39357 v 4.28467 q -1.66777,-0.74575 -3.25418,-1.12541 -1.58641,-0.37965 -2.99656,-0.37965 -1.87115,0 -2.76605,0.51524 -0.8949,0.51525 -0.8949,1.59998 0,0.81354 0.5966,1.27455 0.61016,0.44745 2.19657,0.77287 l 2.22369,0.44745 q 3.37621,0.67795 4.79992,2.06098 1.4237,1.38302 1.4237,3.93213 0,3.34909 -1.99318,4.98974 -1.97963,1.62709 -6.06091,1.62709 -1.92539,0 -3.86434,-0.36609 -1.93895,-0.3661 -3.8779,-1.08473 v -4.4067 q 1.93895,1.03049 3.74231,1.55929 1.81691,0.51525 3.49824,0.51525 1.70844,0 2.6169,-0.56948 0.90846,-0.56948 0.90846,-1.62709 0,-0.94914 -0.62372,-1.46438 -0.61016,-0.51525 -2.45419,-0.92202 l -2.0203,-0.44745 q -3.03724,-0.65084 -4.44738,-2.07454 -1.39659,-1.4237 -1.39659,-3.83722 0,-3.02367 1.95251,-4.65076 1.95251,-1.62709 5.61346,-1.62709 1.66777,0 3.43045,0.25762 1.76268,0.24406 3.64739,0.74575 z"
     style="font-weight:bold;font-family:sans-serif;-inkscape-font-specification:'sans-serif Bold'"
     id="path4359" /></g>
        </g></g></svg>
