<?xml version="1.0" encoding="UTF-8" standalone="no"?>
<!DOCTYPE svg PUBLIC "-//W3C//DTD SVG 1.1//EN" "http://www.w3.org/Graphics/SVG/1.1/DTD/svg11.dtd">
<svg width="100%" height="100%" viewBox="0 0 2000 2000" version="1.1" xmlns="http://www.w3.org/2000/svg" xmlns:xlink="http://www.w3.org/1999/xlink" xml:space="preserve" xmlns:serif="http://www.serif.com/" style="fill-rule:evenodd;clip-rule:evenodd;stroke-linecap:round;stroke-linejoin:round;stroke-miterlimit:1.5;">
    <g transform="matrix(0.966997,0,0,0.986711,-15.5923,4.51271)">
        <path d="M1531.51,71.598C1531.51,61.185 1522.89,52.732 1512.26,52.732L588.247,52.732C577.622,52.732 568.996,61.185 568.996,71.598L568.996,1946.19C568.996,1956.6 577.622,1965.06 588.247,1965.06L1512.26,1965.06C1522.89,1965.06 1531.51,1956.6 1531.51,1946.19L1531.51,71.598Z" style="fill:white;"/>
        <clipPath id="_clip1">
            <path d="M1531.51,71.598C1531.51,61.185 1522.89,52.732 1512.26,52.732L588.247,52.732C577.622,52.732 568.996,61.185 568.996,71.598L568.996,1946.19C568.996,1956.6 577.622,1965.06 588.247,1965.06L1512.26,1965.06C1522.89,1965.06 1531.51,1956.6 1531.51,1946.19L1531.51,71.598Z"/>
        </clipPath>
        <g clip-path="url(#_clip1)">
            <g transform="matrix(1.03413,0,0,1.01347,16.1245,-4.57349)">
                <path d="M1322.75,326.028C1322.75,320.148 1317.97,315.375 1312.09,315.375L1067.07,315.375C1061.19,315.375 1056.42,320.148 1056.42,326.028L1056.42,1768.51C1056.42,1774.39 1061.19,1779.16 1067.07,1779.16L1312.09,1779.16C1317.97,1779.16 1322.75,1774.39 1322.75,1768.51L1322.75,326.028Z" style="fill:rgb(200,23,30);"/>
                <clipPath id="_clip2">
                    <path d="M1322.75,326.028C1322.75,320.148 1317.97,315.375 1312.09,315.375L1067.07,315.375C1061.19,315.375 1056.42,320.148 1056.42,326.028L1056.42,1768.51C1056.42,1774.39 1061.19,1779.16 1067.07,1779.16L1312.09,1779.16C1317.97,1779.16 1322.75,1774.39 1322.75,1768.51L1322.75,326.028Z"/>
                </clipPath>
                <g clip-path="url(#_clip2)">
                    <g transform="matrix(1.32667,0,0,1.42507,-584.938,-353.11)">
                        <path d="M1402.7,857.068C1381.99,851.173 1360.45,848.176 1338.79,848.176C1317.13,848.176 1295.59,851.173 1274.88,857.068L1338.79,1051.67L1402.7,857.068Z" style="fill:rgb(235,235,235);fill-opacity:0;"/>
                        <clipPath id="_clip3">
                            <path d="M1402.7,857.068C1381.99,851.173 1360.45,848.176 1338.79,848.176C1317.13,848.176 1295.59,851.173 1274.88,857.068L1338.79,1051.67L1402.7,857.068Z"/>
                        </clipPath>
                        <g clip-path="url(#_clip3)">
                            <g transform="matrix(0.869151,0,0,0.869866,169.197,98.7438)">
                                <ellipse cx="1345.7" cy="1095.48" rx="232.905" ry="216.64" style="fill:rgb(235,235,235);fill-opacity:0;stroke:rgb(146,230,26);stroke-width:10.44px;"/>
                            </g>
                            <g transform="matrix(0.671547,0,0,0.6721,435.113,315.392)">
                                <ellipse cx="1345.7" cy="1095.48" rx="232.905" ry="216.64" style="fill:rgb(235,235,235);fill-opacity:0;stroke:rgb(146,230,26);stroke-width:13.51px;"/>
                            </g>
                            <g transform="matrix(0.469274,0,0,0.46966,707.313,537.16)">
                                <ellipse cx="1345.7" cy="1095.48" rx="232.905" ry="216.64" style="fill:rgb(235,235,235);fill-opacity:0;stroke:rgb(146,230,26);stroke-width:19.34px;"/>
                            </g>
                            <g transform="matrix(0.267001,0,0,0.26722,979.513,758.927)">
                                <ellipse cx="1345.7" cy="1095.48" rx="232.905" ry="216.64" style="fill:rgb(235,235,235);fill-opacity:0;stroke:rgb(146,230,26);stroke-width:33.99px;"/>
                            </g>
                            <g transform="matrix(0.0647274,0,0,0.0647807,1251.71,980.695)">
                                <ellipse cx="1345.7" cy="1095.48" rx="232.905" ry="216.64" style="fill:rgb(235,235,235);fill-opacity:0;stroke:rgb(146,230,26);stroke-width:140.21px;"/>
                            </g>
                        </g>
                    </g>
                    <g>
                        <g>
                            <g transform="matrix(0.547665,0,0,0.547665,490.821,674.646)">
                                <g transform="matrix(53.2706,0,0,53.2706,1089.82,1457.69)">
                                    <path d="M0.077,-0L0.077,-0.716L0.347,-0.716C0.395,-0.716 0.431,-0.714 0.456,-0.709C0.491,-0.703 0.521,-0.692 0.544,-0.676C0.568,-0.659 0.587,-0.636 0.602,-0.606C0.616,-0.577 0.624,-0.544 0.624,-0.509C0.624,-0.448 0.604,-0.396 0.565,-0.354C0.527,-0.312 0.457,-0.291 0.355,-0.291L0.172,-0.291L0.172,-0L0.077,-0ZM0.172,-0.375L0.357,-0.375C0.418,-0.375 0.462,-0.387 0.487,-0.41C0.513,-0.432 0.526,-0.465 0.526,-0.506C0.526,-0.536 0.518,-0.561 0.503,-0.583C0.488,-0.604 0.468,-0.618 0.443,-0.625C0.427,-0.629 0.398,-0.631 0.355,-0.631L0.172,-0.631L0.172,-0.375Z" style="fill:white;fill-rule:nonzero;"/>
                                </g>
                                <g transform="matrix(53.2706,0,0,53.2706,1125.35,1457.69)">
                                    <path d="M0.033,-0.259C0.033,-0.355 0.06,-0.426 0.113,-0.473C0.158,-0.511 0.212,-0.53 0.276,-0.53C0.348,-0.53 0.406,-0.507 0.451,-0.46C0.496,-0.413 0.519,-0.349 0.519,-0.267C0.519,-0.2 0.509,-0.147 0.489,-0.109C0.469,-0.071 0.44,-0.041 0.402,-0.02C0.363,0.001 0.322,0.012 0.276,0.012C0.204,0.012 0.145,-0.012 0.1,-0.058C0.056,-0.105 0.033,-0.172 0.033,-0.259ZM0.124,-0.259C0.124,-0.193 0.138,-0.143 0.167,-0.11C0.196,-0.077 0.232,-0.061 0.276,-0.061C0.32,-0.061 0.356,-0.077 0.385,-0.11C0.414,-0.144 0.429,-0.194 0.429,-0.262C0.429,-0.326 0.414,-0.375 0.385,-0.408C0.356,-0.441 0.32,-0.458 0.276,-0.458C0.232,-0.458 0.196,-0.441 0.167,-0.408C0.138,-0.375 0.124,-0.326 0.124,-0.259Z" style="fill:white;fill-rule:nonzero;"/>
                                </g>
                                <g transform="matrix(53.2706,0,0,53.2706,1154.98,1457.69)">
                                    <path d="M0.162,-0L0.003,-0.519L0.094,-0.519L0.176,-0.219L0.207,-0.108C0.208,-0.113 0.217,-0.149 0.234,-0.215L0.316,-0.519L0.407,-0.519L0.484,-0.218L0.51,-0.119L0.54,-0.219L0.629,-0.519L0.714,-0.519L0.552,-0L0.461,-0L0.378,-0.311L0.358,-0.399L0.253,-0L0.162,-0Z" style="fill:white;fill-rule:nonzero;"/>
                                </g>
                                <g transform="matrix(53.2706,0,0,53.2706,1193.45,1457.69)">
                                    <path d="M0.421,-0.167L0.512,-0.156C0.497,-0.103 0.471,-0.062 0.432,-0.032C0.393,-0.003 0.344,0.012 0.284,0.012C0.208,0.012 0.148,-0.012 0.103,-0.058C0.059,-0.105 0.037,-0.171 0.037,-0.255C0.037,-0.342 0.059,-0.41 0.104,-0.458C0.149,-0.506 0.207,-0.53 0.279,-0.53C0.348,-0.53 0.405,-0.507 0.449,-0.459C0.493,-0.412 0.515,-0.346 0.515,-0.26C0.515,-0.255 0.514,-0.247 0.514,-0.237L0.127,-0.237C0.131,-0.18 0.147,-0.136 0.176,-0.106C0.205,-0.076 0.241,-0.061 0.284,-0.061C0.316,-0.061 0.344,-0.069 0.367,-0.086C0.389,-0.103 0.408,-0.13 0.421,-0.167ZM0.132,-0.309L0.422,-0.309C0.418,-0.353 0.407,-0.385 0.389,-0.407C0.361,-0.441 0.324,-0.458 0.28,-0.458C0.239,-0.458 0.205,-0.444 0.178,-0.417C0.15,-0.39 0.135,-0.354 0.132,-0.309Z" style="fill:white;fill-rule:nonzero;"/>
                                </g>
                                <g transform="matrix(53.2706,0,0,53.2706,1223.07,1457.69)">
                                    <path d="M0.065,-0L0.065,-0.519L0.144,-0.519L0.144,-0.44C0.164,-0.477 0.183,-0.501 0.2,-0.513C0.217,-0.524 0.236,-0.53 0.256,-0.53C0.286,-0.53 0.316,-0.521 0.347,-0.502L0.316,-0.42C0.295,-0.433 0.273,-0.439 0.252,-0.439C0.233,-0.439 0.215,-0.434 0.2,-0.422C0.185,-0.411 0.174,-0.395 0.167,-0.374C0.158,-0.343 0.153,-0.309 0.153,-0.271L0.153,-0L0.065,-0Z" style="fill:white;fill-rule:nonzero;"/>
                                </g>
                            </g>
                            <g transform="matrix(1,0,0,1,-2.13179,-6.5273)">
                                <rect x="1229.78" y="1458.62" width="52.016" height="21.318" style="fill:rgb(191,191,191);stroke:black;stroke-width:4.25px;"/>
                            </g>
                        </g>
                        <g transform="matrix(1,0,0,1,0,-1.49225)">
                            <g transform="matrix(0.547665,0,0,0.547665,490.821,750.964)">
                                <g transform="matrix(53.2706,0,0,53.2706,1089.82,1457.69)">
                                    <path d="M0.202,-0L0.012,-0.716L0.109,-0.716L0.218,-0.247C0.23,-0.197 0.24,-0.149 0.249,-0.1C0.267,-0.177 0.278,-0.221 0.281,-0.232L0.417,-0.716L0.531,-0.716L0.634,-0.354C0.66,-0.264 0.678,-0.179 0.689,-0.1C0.699,-0.145 0.71,-0.197 0.725,-0.256L0.837,-0.716L0.933,-0.716L0.736,-0L0.645,-0L0.494,-0.545C0.481,-0.591 0.474,-0.619 0.472,-0.629C0.464,-0.597 0.457,-0.569 0.451,-0.545L0.299,-0L0.202,-0Z" style="fill:white;fill-rule:nonzero;"/>
                                </g>
                                <g transform="matrix(53.2706,0,0,53.2706,1140.1,1457.69)">
                                    <path d="M0.073,-0L0.073,-0.716L0.168,-0.716L0.168,-0.084L0.521,-0.084L0.521,-0L0.073,-0Z" style="fill:white;fill-rule:nonzero;"/>
                                </g>
                                <g transform="matrix(53.2706,0,0,53.2706,1169.72,1457.69)">
                                    <path d="M-0.001,-0L0.273,-0.716L0.375,-0.716L0.668,-0L0.561,-0L0.477,-0.217L0.178,-0.217L0.099,-0L-0.001,-0ZM0.205,-0.294L0.448,-0.294L0.373,-0.492C0.35,-0.552 0.333,-0.602 0.322,-0.641C0.313,-0.595 0.3,-0.549 0.284,-0.504L0.205,-0.294Z" style="fill:white;fill-rule:nonzero;"/>
                                </g>
                                <g transform="matrix(53.2706,0,0,53.2706,1205.26,1457.69)">
                                    <path d="M0.076,-0L0.076,-0.716L0.173,-0.716L0.549,-0.154L0.549,-0.716L0.64,-0.716L0.64,-0L0.543,-0L0.167,-0.563L0.167,-0L0.076,-0Z" style="fill:white;fill-rule:nonzero;"/>
                                </g>
                            </g>
                            <g transform="matrix(1,0,0,1,-2.13179,69.7909)">
                                <rect x="1229.78" y="1458.62" width="52.016" height="21.318" style="fill:rgb(191,191,191);stroke:black;stroke-width:4.25px;"/>
                            </g>
                        </g>
                        <g>
                            <g transform="matrix(0.547665,0,0,0.547665,490.821,824.298)">
                                <g transform="matrix(53.2706,0,0,53.2706,1089.82,1457.69)">
                                    <path d="M0.073,-0L0.073,-0.716L0.168,-0.716L0.168,-0.084L0.521,-0.084L0.521,-0L0.073,-0Z" style="fill:white;fill-rule:nonzero;"/>
                                </g>
                                <g transform="matrix(53.2706,0,0,53.2706,1119.44,1457.69)">
                                    <path d="M-0.001,-0L0.273,-0.716L0.375,-0.716L0.668,-0L0.561,-0L0.477,-0.217L0.178,-0.217L0.099,-0L-0.001,-0ZM0.205,-0.294L0.448,-0.294L0.373,-0.492C0.35,-0.552 0.333,-0.602 0.322,-0.641C0.313,-0.595 0.3,-0.549 0.284,-0.504L0.205,-0.294Z" style="fill:white;fill-rule:nonzero;"/>
                                </g>
                                <g transform="matrix(53.2706,0,0,53.2706,1154.98,1457.69)">
                                    <path d="M0.076,-0L0.076,-0.716L0.173,-0.716L0.549,-0.154L0.549,-0.716L0.64,-0.716L0.64,-0L0.543,-0L0.167,-0.563L0.167,-0L0.076,-0Z" style="fill:white;fill-rule:nonzero;"/>
                                </g>
                            </g>
                            <g transform="matrix(1,0,0,1,-2.13179,143.125)">
                                <rect x="1229.78" y="1458.62" width="52.016" height="21.318" style="fill:rgb(191,191,191);stroke:black;stroke-width:4.25px;"/>
                            </g>
                        </g>
                    </g>
                    <g transform="matrix(1,0,0,1,2,-2)">
                        <rect x="1096.48" y="1206.2" width="177.253" height="183.201" style="fill:rgb(235,235,235);"/>
                        <g transform="matrix(1.06541,0,0,1.06541,-85.2869,-56.0675)">
                            <g transform="matrix(50,0,0,50,1136.45,1288.65)">
                                <path d="M0.202,-0L0.012,-0.716L0.109,-0.716L0.218,-0.247C0.23,-0.197 0.24,-0.149 0.249,-0.1C0.267,-0.177 0.278,-0.221 0.281,-0.232L0.417,-0.716L0.531,-0.716L0.634,-0.354C0.66,-0.264 0.678,-0.179 0.689,-0.1C0.699,-0.145 0.71,-0.197 0.725,-0.256L0.837,-0.716L0.933,-0.716L0.736,-0L0.645,-0L0.494,-0.545C0.481,-0.591 0.474,-0.619 0.472,-0.629C0.464,-0.597 0.457,-0.569 0.451,-0.545L0.299,-0L0.202,-0Z" style="fill:rgb(128,128,128);fill-rule:nonzero;"/>
                            </g>
                            <g transform="matrix(50,0,0,50,1183.64,1288.65)">
                                <path d="M0.077,-0L0.077,-0.716L0.347,-0.716C0.395,-0.716 0.431,-0.714 0.456,-0.709C0.491,-0.703 0.521,-0.692 0.544,-0.676C0.568,-0.659 0.587,-0.636 0.602,-0.606C0.616,-0.577 0.624,-0.544 0.624,-0.509C0.624,-0.448 0.604,-0.396 0.565,-0.354C0.527,-0.312 0.457,-0.291 0.355,-0.291L0.172,-0.291L0.172,-0L0.077,-0ZM0.172,-0.375L0.357,-0.375C0.418,-0.375 0.462,-0.387 0.487,-0.41C0.513,-0.432 0.526,-0.465 0.526,-0.506C0.526,-0.536 0.518,-0.561 0.503,-0.583C0.488,-0.604 0.468,-0.618 0.443,-0.625C0.427,-0.629 0.398,-0.631 0.355,-0.631L0.172,-0.631L0.172,-0.375Z" style="fill:rgb(128,128,128);fill-rule:nonzero;"/>
                            </g>
                            <g transform="matrix(50,0,0,50,1216.99,1288.65)">
                                <path d="M0.045,-0.23L0.134,-0.238C0.139,-0.202 0.148,-0.173 0.164,-0.15C0.179,-0.127 0.203,-0.108 0.236,-0.094C0.268,-0.08 0.305,-0.073 0.346,-0.073C0.382,-0.073 0.414,-0.078 0.441,-0.089C0.469,-0.1 0.49,-0.114 0.503,-0.133C0.517,-0.152 0.523,-0.172 0.523,-0.194C0.523,-0.217 0.517,-0.236 0.504,-0.253C0.491,-0.27 0.469,-0.284 0.439,-0.295C0.42,-0.303 0.378,-0.315 0.312,-0.33C0.246,-0.346 0.2,-0.361 0.174,-0.375C0.14,-0.393 0.114,-0.415 0.097,-0.442C0.081,-0.468 0.072,-0.498 0.072,-0.531C0.072,-0.567 0.083,-0.601 0.103,-0.632C0.124,-0.663 0.153,-0.687 0.193,-0.704C0.232,-0.72 0.276,-0.728 0.324,-0.728C0.377,-0.728 0.424,-0.719 0.465,-0.702C0.505,-0.685 0.536,-0.66 0.558,-0.627C0.58,-0.594 0.592,-0.556 0.593,-0.514L0.502,-0.507C0.498,-0.553 0.481,-0.587 0.453,-0.61C0.425,-0.633 0.383,-0.645 0.328,-0.645C0.271,-0.645 0.229,-0.634 0.203,-0.613C0.177,-0.592 0.164,-0.567 0.164,-0.537C0.164,-0.511 0.173,-0.49 0.191,-0.474C0.21,-0.457 0.257,-0.44 0.334,-0.423C0.411,-0.405 0.464,-0.39 0.493,-0.377C0.534,-0.358 0.565,-0.333 0.585,-0.304C0.605,-0.274 0.615,-0.241 0.615,-0.202C0.615,-0.164 0.604,-0.128 0.582,-0.094C0.56,-0.061 0.529,-0.035 0.488,-0.016C0.447,0.003 0.401,0.012 0.35,0.012C0.285,0.012 0.231,0.003 0.187,-0.016C0.143,-0.035 0.109,-0.063 0.084,-0.101C0.059,-0.139 0.046,-0.182 0.045,-0.23Z" style="fill:rgb(128,128,128);fill-rule:nonzero;"/>
                            </g>
                        </g>
                        <rect x="1096.48" y="1206.2" width="177.253" height="183.201" style="fill:none;stroke:black;stroke-width:8.33px;"/>
                    </g>
                </g>
                <path d="M1322.75,326.028C1322.75,320.148 1317.97,315.375 1312.09,315.375L1067.07,315.375C1061.19,315.375 1056.42,320.148 1056.42,326.028L1056.42,1768.51C1056.42,1774.39 1061.19,1779.16 1067.07,1779.16L1312.09,1779.16C1317.97,1779.16 1322.75,1774.39 1322.75,1768.51L1322.75,326.028Z" style="fill:none;stroke:black;stroke-width:8.33px;"/>
            </g>
        </g>
        <path d="M1531.51,71.598C1531.51,61.185 1522.89,52.732 1512.26,52.732L588.247,52.732C577.622,52.732 568.996,61.185 568.996,71.598L568.996,1946.19C568.996,1956.6 577.622,1965.06 588.247,1965.06L1512.26,1965.06C1522.89,1965.06 1531.51,1956.6 1531.51,1946.19L1531.51,71.598Z" style="fill:none;stroke:black;stroke-width:8.53px;"/>
    </g>
</svg>
