<?xml version="1.0" encoding="UTF-8"?>
<svg version="1.1" viewBox="0 0 514 514" xmlns="http://www.w3.org/2000/svg" xmlns:cc="http://creativecommons.org/ns#" xmlns:dc="http://purl.org/dc/elements/1.1/" xmlns:rdf="http://www.w3.org/1999/02/22-rdf-syntax-ns#">
 <metadata>
  <rdf:RDF>
   <cc:Work rdf:about="">
    <dc:format>image/svg+xml</dc:format>
    <dc:type rdf:resource="http://purl.org/dc/dcmitype/StillImage"/>
    <dc:title/>
    <cc:license rdf:resource="http://creativecommons.org/licenses/by-nc-sa/4.0/"/>
    <dc:creator>
     <cc:Agent>
      <dc:title>Jan Alexander</dc:title>
     </cc:Agent>
    </dc:creator>
   </cc:Work>
   <cc:License rdf:about="http://creativecommons.org/licenses/by-nc-sa/4.0/">
    <cc:permits rdf:resource="http://creativecommons.org/ns#Reproduction"/>
    <cc:permits rdf:resource="http://creativecommons.org/ns#Distribution"/>
    <cc:requires rdf:resource="http://creativecommons.org/ns#Notice"/>
    <cc:requires rdf:resource="http://creativecommons.org/ns#Attribution"/>
    <cc:prohibits rdf:resource="http://creativecommons.org/ns#CommercialUse"/>
    <cc:permits rdf:resource="http://creativecommons.org/ns#DerivativeWorks"/>
    <cc:requires rdf:resource="http://creativecommons.org/ns#ShareAlike"/>
   </cc:License>
  </rdf:RDF>
 </metadata>
 <g>
  <path d="m44.163 322.75c-4.1299-62.139-1.5935-124.47 3.1389-186.49 0.24976-7.4713 0.20019-17.905 9.5225-19.559 27.519-4.6379 55.52-5.7463 83.312-7.9291 52.694-2.4741 105.46-4.3707 158.2-2.0419 46.465 1.23 93.029 4.2061 139.2 9.5092 13.598 2.3876 22.438 0.44581 26.354 8.9654 7.2124 40.459 5.8702 81.753 8.0213 122.65-0.33828 40.328-3.0483 80.798-9.7534 120.59-1.2566 7.3068-2.4423 17.932-12.042 17.938-62.161 12.495-125.25 22.08-188.81 21.65-66.841 0.21272-133.93-4.6622-199.42-18.365-9.9788-2.4042-9.7962-14.443-12.35-22.437-2.0192-14.803-4.2353-29.57-5.3725-44.475z" fill="#333" stroke="#666" stroke-width="1px"/>
  <path d="m70.906 391.49c-5.373-9.6334-4.4817-21.27-6.565-31.877-5.659-42.998-6.1377-86.462-5.6993-129.77 0.40989-13.681 0.20954-27.544 1.3174-41.103 1.4018-4.8865 7.4127-4.7858 11.487-4.3339-0.51964 23.518-0.09773 47.981 8.8222 70.112 2.063 5.4248 9.6687 6.5576 12.38 1.011 9.5341-20.544 9.7941-43.835 11.206-66.061-1.0382-6.0597 1.2387-9.8887 7.7923-8.5017 71.15-4.6222 142.52-5.6559 213.77-2.6481 24.628 0.94555 49.241 2.4262 73.843 3.8419 6.2975 3.1832 3.248 11.787 4.1592 17.505 0.70702 43.481-0.78587 86.986-3.3042 130.39-1.9916 21.115-4.2017 42.375-9.0956 63.02-0.46842 6.5826-7.8228 4.4252-12.42 5.7672-41.739 6.25-83.928 9.729-126.15 9.0632-52.833-0.28442-105.75-3.5079-157.91-12.229-7.9164-1.1521-15.751-2.7972-23.627-4.1879z" fill="#1a1a1a" stroke="#666" stroke-width="1px"/>
  <g fill="#ccff40" stroke="#666" stroke-width="1px">
   <path d="m151.13 403.08c-0.25388-2.775-0.49917-5.5505-0.56634-8.3376-0.17134-2.9584 0.0416-5.921 0.06-8.8815 0.12-3.2194 0.26016-6.4404 0.44151-9.6563 0.18177-1.6008 0.26995-3.2178 0.73637-4.7693 0.18046-0.9143 0.49151-1.8259 0.92737-2.6346 0.38433-0.24645 0.7095-0.78113 1.2095-0.46416 0.49069 0.0933 0.96501 0.21395 1.2363 0.67282 0.51339 0.47297 0.89715 1.033 1.1376 1.6892 0.61 1.2734 1.1132 2.6178 1.2674 4.0288 0.50635 3.1347 1.0215 6.2721 1.3655 9.4288 0.23631 2.541 0.45542 5.0842 0.89322 7.6005 0.44814 2.6572 0.67721 5.3478 1.1064 8.0056 0.19645 1.0356 0.44415 2.0552 0.91065 3.0063 0.18139 0.44189 0.36277 0.88379 0.54416 1.3257-3.7566-0.33814-7.5131-0.67627-11.27-1.0144z"/>
   <path d="m188.06 406.04c-0.23587-0.87144-0.64765-1.715-0.7682-2.6047-0.0199-4.5317-0.035-9.0633 0.0864-13.594 0.0293-3.3572 0.33534-6.704 0.52425-10.054 0.17689-1.5834 0.22662-3.189 0.48539-4.758 0.21381-0.8642 0.40367-1.7379 0.91243-2.4857 0.23495-0.54397 0.78971-0.83988 1.1796-1.2637 0.49058-0.0332 0.96727-0.0315 1.2637 0.42327 0.74215 0.51824 0.99537 1.4142 1.4444 2.1588 0.40615 1.2463 0.85395 2.4823 0.99489 3.7937 0.44411 2.5921 0.82189 5.198 1.1388 7.808 0.25013 2.8491 0.48464 5.7 0.91802 8.5286 0.29666 1.8054 0.41266 3.6279 0.49271 5.4538 0.10324 1.2893 0.0819 2.5991 0.26547 3.8751 0.29632 1.0661 0.59264 2.1323 0.88896 3.1984-3.2756-0.15979-6.5512-0.31957-9.8269-0.47936z"/>
   <path d="m224.31 407.46c-0.34314-0.97432-0.81543-1.9218-1.0781-2.9128-0.11092-1.5732-0.0783-3.1457 0.0337-4.7178 0.2424-5.0809 0.509-10.16 0.8779-15.234 0.086-1.8246 0.26687-3.6395 0.55829-5.4429 0.20764-1.6914 0.51488-3.3668 0.82424-5.0419 0.47463-0.45216 0.85216-1.0568 1.5507-1.1573 0.48206-0.24624 1.0026 0.0846 1.5038 0.12584 0.4528 0.60164 1.1375 1.0755 1.2461 1.8668 0.36226 1.1526 0.75947 2.2974 0.85178 3.5109 0.38359 2.7579 0.87978 5.5028 1.0444 8.286 0.37158 4.6362 0.82965 9.265 1.2356 13.898 0.0944 1.5597 0.26577 3.1247 0.27591 4.6833-0.20349 0.77666-0.40697 1.5533-0.61046 2.33-2.7713-0.0646-5.5426-0.12929-8.3139-0.19393z"/>
   <path d="m259.51 408.03c-0.0528-2.4849-0.0719-4.9694 0.0584-7.4524 0.16796-5.7531 0.58389-11.495 0.9201-17.24 0.14103-1.7505 0.0994-3.5242 0.53045-5.2377 0.22297-1.3763 0.58678-2.7368 1.0822-4.0319 0.34843-0.37234 0.62629-0.8596 1.0178-1.1618 0.4928-0.12151 0.98641-0.28567 1.4723-0.0439 0.52411 0.0215 0.83034 0.34953 1.054 0.79382 0.49987 0.58019 0.71561 1.2963 0.91297 2.0211 0.41207 1.3607 0.58531 2.7847 0.84479 4.1803 0.41103 3.5661 0.79161 7.1351 1.0522 10.716 0.19898 4.5246 0.32708 9.0536 0.47968 13.58-0.12239 1.2839-0.35219 2.5505-0.62335 3.8105-2.9338 0.0219-5.8676 0.0437-8.8015 0.0656z"/>
   <path d="m295.49 407.2c0.17459-1.4682 0.24084-2.9411 0.18831-4.4189-0.042-3.2019-0.0161-6.4068 0.0988-9.6056 0.42512-3.8418 0.86422-7.6819 1.4382-11.505 0.25991-2.177 0.77032-4.3159 1.2168-6.4576 0.44686-1.0474 0.81809-2.1811 1.5459-3.0569 0.40863-0.22022 0.85784-0.49923 1.2338-0.07 0.39991 0.44901 0.96338 0.79975 1.0332 1.4471 0.44148 1.2763 0.81085 2.5712 1.0204 3.9072 0.32613 1.5089 0.59667 3.0261 0.70158 4.5681 0.20009 1.8476 0.40957 3.6947 0.38565 5.5562 0.0684 4.067 0.21186 8.1347 0.25957 12.201-0.0941 1.0705-0.0467 2.1664-0.23196 3.2205-0.36352 1.3046-0.87802 2.5568-1.3632 3.8192-2.509 0.13167-5.018 0.26334-7.527 0.39501z"/>
  </g>
  <g fill="#f2f2f2">
   <g transform="rotate(-90)" aria-label="Power/DSL">
    <path d="m-364.01 155.87h0.55333v-1.6133h0.78667c1.0333 0 1.7267-0.61334 1.7267-1.54 0-0.88666-0.65333-1.4733-1.6267-1.4733h-1.44zm0.55333-2.0933v-2.0533h0.82c0.67334 0 1.1267 0.44 1.1267 1.0933 0 0.62667-0.37333 0.96001-1.06 0.96001z"/>
    <path d="m-358.85 155.93c0.94667 0 1.5867-0.68667 1.5867-1.7133 0-0.99333-0.59334-1.6333-1.5067-1.6333-0.94667 0-1.58 0.68-1.58 1.7067 0 0.99333 0.58666 1.64 1.5 1.64zm0.0733-0.46667c-0.62 0-1.04-0.5-1.04-1.24 0-0.71333 0.38-1.1733 0.97334-1.1733 0.62 0 1.0467 0.50667 1.0467 1.24 0 0.70666-0.38666 1.1733-0.98 1.1733z"/>
    <path d="m-355.71 155.87h0.52667l0.87333-2.5867 0.92667 2.5867h0.54l1.06-3.2133h-0.53334l-0.79333 2.6067-0.87333-2.5933h-0.58667l-0.86 2.6333-0.78-2.6467h-0.60667z"/>
    <path d="m-349.69 155.93c0.36666 0 0.76666-0.0867 1.0533-0.24l-0.12-0.38667c-0.24667 0.12-0.56 0.19333-0.84 0.19333-0.68 0-1.1067-0.40666-1.1867-1.0933h2.24c0.0133-0.1 0.0267-0.33333 0.0267-0.46 0-0.80667-0.53333-1.36-1.3267-1.36-0.89333 0-1.5 0.7-1.5 1.6867 0 1.0267 0.63333 1.66 1.6533 1.66zm-1.1-1.9267c0.0467-0.62667 0.36667-0.96667 0.90667-0.96667 0.54667 0 0.86667 0.35334 0.86667 0.96667z"/>
    <path d="m-347.62 155.87h0.53333v-2.2933c0.20667-0.28001 0.53334-0.44667 0.89334-0.44667 0.12666 0 0.24666 0.02 0.35333 0.06l0.13333-0.49334c-0.14-0.0467-0.28-0.0733-0.42666-0.0733-0.38667 0-0.74667 0.18667-0.98667 0.5l-0.06-0.46667h-0.44z"/>
    <path d="m-345.49 156.63h0.49333l1.4267-5.6933h-0.53333z"/>
    <path d="m-342.79 155.87h1.4133c1.4 0 2.3533-0.91333 2.3533-2.4 0-1.4-0.84-2.2267-2.2533-2.2267h-1.5133zm0.55333-0.48v-3.6667h0.89333c1.1267 0 1.7533 0.66 1.7533 1.8333 0 1.1667-0.62 1.8333-1.72 1.8333z"/>
    <path d="m-336.91 155.93c1.0333 0 1.7067-0.52667 1.7067-1.34 0-1.64-2.5933-0.98667-2.5933-2.18 0-0.48666 0.39334-0.75333 1.1-0.75333 0.39334 0 0.82 0.08 1.1533 0.22l0.16666-0.43333c-0.39333-0.17334-0.84-0.26667-1.28-0.26667-1.0333 0-1.7067 0.51333-1.7067 1.32 0 1.5867 2.5867 0.99334 2.5867 2.1733 0 0.46666-0.4 0.76666-1.1 0.76666-0.42 0-0.94-0.11333-1.3933-0.3l-0.16667 0.43334c0.51334 0.23333 1.0333 0.36 1.5267 0.36z"/>
    <path d="m-334.37 155.87h2.6267v-0.49333h-2.0733v-4.1333h-0.55334z"/>
   </g>
   <g transform="rotate(-90)" aria-label="Fon">
    <path d="m-366.58 192.59h0.55334v-2.1467h2.1267v-0.48h-2.1267v-1.52h2.32v-0.48h-2.8733z"/>
    <path d="m-361.6 192.66c0.94667 0 1.5867-0.68667 1.5867-1.7133 0-0.99333-0.59333-1.6333-1.5067-1.6333-0.94667 0-1.58 0.68-1.58 1.7067 0 0.99333 0.58667 1.64 1.5 1.64zm0.0733-0.46667c-0.62 0-1.04-0.5-1.04-1.24 0-0.71333 0.38-1.1733 0.97334-1.1733 0.62 0 1.0467 0.50666 1.0467 1.24 0 0.70666-0.38667 1.1733-0.98001 1.1733z"/>
    <path d="m-356.92 192.59h0.53333v-2.1067c0-0.71333-0.47333-1.1733-1.1933-1.1733-0.36667 0-0.73333 0.12667-1.04 0.35333l-0.12-0.28666h-0.37333v3.2133h0.53333v-2.5133c0.24667-0.19334 0.54-0.3 0.85333-0.3 0.52 0 0.80667 0.29333 0.80667 0.81333z"/>
   </g>
   <g transform="rotate(-90)" aria-label="DECT">
    <path d="m-368.38 229.53h1.4133c1.4 0 2.3533-0.91333 2.3533-2.4 0-1.4-0.84-2.2267-2.2533-2.2267h-1.5133zm0.55334-0.48v-3.6667h0.89333c1.1267 0 1.7533 0.66 1.7533 1.8333 0 1.1667-0.62 1.8333-1.72 1.8333z"/>
    <path d="m-363.64 229.53h2.9067v-0.48h-2.3533v-1.6733h2.1733v-0.48h-2.1733v-1.5133h2.3533v-0.48h-2.9067z"/>
    <path d="m-357.72 229.59c0.44666 0 0.91333-0.1 1.3533-0.29333l-0.12667-0.40667c-0.33333 0.13333-0.74666 0.21333-1.1 0.21333-1.1067 0-1.84-0.78666-1.84-1.9667 0-1.1267 0.67334-1.8133 1.7867-1.8133 0.37333 0 0.79333 0.08 1.1467 0.21333l0.16-0.41333c-0.34-0.18-0.82-0.28667-1.2733-0.28667-1.4333 0-2.3867 0.97334-2.3867 2.4267 0 1.3933 0.91334 2.3267 2.28 2.3267z"/>
    <path d="m-354.45 229.53h0.55334v-4.1467h1.5467v-0.48h-3.64v0.48h1.54z"/>
   </g>
   <g transform="rotate(-90)" aria-label="WLAN">
    <path d="m-366.98 266.4h0.55333l1.2267-3.92 1.2933 3.92h0.53333l1.3733-4.6267h-0.55333l-1.0733 3.8667-1.2333-3.8333h-0.62l-1.2 3.8733-1.0533-3.9067h-0.64z"/>
    <path d="m-361.31 266.4h2.6267v-0.49333h-2.0733v-4.1333h-0.55333z"/>
    <path d="m-358.5 266.4h0.58l0.49333-1.3733h1.9267l0.46 1.3733h0.62l-1.6267-4.6267h-0.72zm1.24-1.8533 0.82-2.3 0.77333 2.3z"/>
    <path d="m-353.76 266.4h0.52v-3.8867l2.64 3.8867h0.61333v-4.6267h-0.52v3.8867l-2.62-3.8867h-0.63333z"/>
   </g>
   <g transform="rotate(-90)" aria-label="Info">
    <path d="m-367.11 302.61h0.55334v-4.6267h-0.55334z"/>
    <path d="m-363.2 302.61h0.53333v-2.1067c0-0.71333-0.47333-1.1733-1.1933-1.1733-0.36667 0-0.73334 0.12666-1.04 0.35333l-0.12-0.28667h-0.37334v3.2133h0.53334v-2.5133c0.24666-0.19333 0.54-0.3 0.85333-0.3 0.52 0 0.80667 0.29334 0.80667 0.81334z"/>
    <path d="m-361.51 302.61h0.53333v-2.7667h1v-0.44667h-1v-0.7c0-0.41333 0.19333-0.62666 0.56-0.62666 0.17333 0 0.4 0.0333 0.56667 0.11333l0.11333-0.4c-0.20667-0.1-0.41333-0.16667-0.64-0.16667-0.68 0-1.1333 0.46-1.1333 1.1467v0.63333h-0.48v0.44667h0.48z"/>
    <path d="m-358.05 302.68c0.94667 0 1.5867-0.68666 1.5867-1.7133 0-0.99333-0.59334-1.6333-1.5067-1.6333-0.94667 0-1.58 0.68-1.58 1.7067 0 0.99334 0.58667 1.64 1.5 1.64zm0.0733-0.46666c-0.62 0-1.04-0.5-1.04-1.24 0-0.71334 0.38-1.1733 0.97334-1.1733 0.62 0 1.0467 0.50667 1.0467 1.24 0 0.70667-0.38666 1.1733-0.98 1.1733z"/>
   </g>
  </g>
  <g>
   <circle cx="189.32" cy="175.44" r="14" fill="#1a1a1a" stroke="#666"/>
   <g transform="translate(-12.303 -.48748)" fill="#f2f2f2" aria-label="WLAN">
    <path d="m191.76 178.7h1.096l1.208-4.192 1.304 4.192h1.072l1.616-5.552h-1.04l-1.088 4.184-1.24-4.152h-1.136l-1.2 4.24-1.056-4.272h-1.176z"/>
    <path d="m198.73 178.7h3.424v-0.912h-2.392v-4.64h-1.032z"/>
    <path d="m202.35 178.7h1.096l0.456-1.392h2.128l0.448 1.392h1.144l-1.92-5.552h-1.328zm1.848-2.312 0.768-2.352 0.768 2.352z"/>
    <path d="m208.27 178.7h0.976v-4.144l2.728 4.144h1.152v-5.552h-0.984l-8e-3 4.128-2.68-4.128h-1.184z"/>
   </g>
  </g>
  <g>
   <circle cx="148.07" cy="176.13" r="14" fill="#1a1a1a" stroke="#666"/>
   <g transform="translate(-12.303 -.48748)" fill="#f2f2f2" aria-label="DECT">
    <path d="m150.47 179.39h1.84c1.792 0 3-1.12 3-2.888 0-1.672-1.08-2.664-2.888-2.664h-1.952zm1.024-0.888v-3.776h0.848c1.208 0 1.896 0.704 1.896 1.912 0 1.192-0.648 1.864-1.808 1.864z"/>
    <path d="m156.32 179.39h3.744v-0.904h-2.712v-1.488h2.488v-0.904h-2.488v-1.352h2.712v-0.904h-3.744z"/>
    <path d="m163.65 179.47c0.568 0 1.192-0.144 1.672-0.376l-0.232-0.744c-0.36 0.136-0.808 0.216-1.192 0.216-1.216 0-1.976-0.8-1.976-2.048 0-1.176 0.688-1.848 1.856-1.848 0.44 0 0.944 0.088 1.304 0.232l0.288-0.8c-0.472-0.224-1.016-0.344-1.568-0.344-1.752 0-2.952 1.16-2.952 2.904 0 1.68 1.136 2.808 2.8 2.808z"/>
    <path d="m167.46 179.39h1.016v-4.648h1.792v-0.904h-4.592v0.904h1.784z"/>
   </g>
  </g>
  <g stroke="#666" stroke-width="1px">
   <path d="m421.05 122.07c-1.6535 7.6254-1.7833 15.455-2.5554 23.197-0.53806 6.6816-0.62157 13.402-0.59382 20.103 0.22864 13.659 0.57115 27.325 1.4936 40.953 0.74014 6.0717 1.1328 12.208 2.2355 18.222 0.98474 4.5862 1.994 9.2146 3.5932 13.612 0.8504 1.5654 2.1366 2.6295 3.7896 3.2715 1.3776-0.54908 3.6521-4.9e-4 3.9355-1.8886 1.9096-3.718 2.4934-7.8842 3.277-11.943 2.3575-17.088 4.821-34.179 6.353-51.363 0.67236-9.6456 0.90047-19.332 0.22713-28.984-0.18639-4.8832-0.85758-9.7587-1.769-14.548-0.76435-3.1506-1.7054-6.2327-3.3869-9.0283-0.85925-2.0083-2.7735-3.3534-4.3315-4.7803-2.5342-1.3785-5.5505-1.5119-8.3267-0.88064-1.5319 1.1499-2.7335 2.5833-3.9414 4.0564z" fill="#333"/>
   <path d="m425.08 237.95c1.3505-1.6934 2.7858-3.3416 3.1917-5.5384 1.4157-3.9133 1.5251-8.1481 2.32-12.212 1.2293-7.8552 2.3935-15.719 3.0715-23.644 1.1885-10.638 2.087-21.327 1.825-32.04-0.0112-6.9574-0.0353-13.914-0.67229-20.849-0.39571-3.642-0.16815-7.3881-1.0109-10.955-0.72684-2.4304-0.99198-5.0727-2.776-7.0181-1.1688-1.6298-2.77-3.1912-4.8283-3.5187-1.6918-0.82296-3.3716-0.2569-5.1445-0.10605" fill="none"/>
  </g>
  <g stroke="#666" stroke-width="1px">
   <path d="m93.768 121.01c1.6535 7.6254 1.7833 15.455 2.5554 23.197 0.53806 6.6816 0.62157 13.402 0.59382 20.103-0.22864 13.659-0.57115 27.325-1.4936 40.953-0.74014 6.0717-1.1328 12.208-2.2355 18.222-0.98474 4.5862-1.994 9.2146-3.5932 13.612-0.8504 1.5654-2.1366 2.6295-3.7896 3.2715-1.3776-0.54908-3.6521-4.9e-4 -3.9355-1.8886-1.9096-3.718-2.4934-7.8842-3.277-11.943-2.3575-17.088-4.821-34.179-6.353-51.363-0.67236-9.6456-0.90047-19.332-0.22713-28.984 0.18639-4.8832 0.85758-9.7587 1.769-14.548 0.76435-3.1506 1.7054-6.2327 3.3869-9.0283 0.85925-2.0083 2.7735-3.3534 4.3315-4.7803 2.5342-1.3785 5.5505-1.5119 8.3267-0.88064 1.5319 1.1499 2.7335 2.5833 3.9414 4.0564z" fill="#333"/>
   <path d="m89.744 236.89c-1.3505-1.6934-2.7858-3.3416-3.1917-5.5384-1.4157-3.9133-1.5251-8.1481-2.32-12.212-1.2293-7.8552-2.3935-15.719-3.0715-23.644-1.1885-10.638-2.087-21.327-1.825-32.04 0.0112-6.9574 0.0353-13.914 0.67229-20.849 0.39571-3.642 0.16815-7.3881 1.0109-10.955 0.72684-2.4304 0.99198-5.0727 2.776-7.0181 1.1688-1.6298 2.77-3.1912 4.8283-3.5187 1.6918-0.82296 3.3716-0.2569 5.1445-0.10605" fill="none"/>
  </g>
  <g transform="translate(-12.303 -.48748)" fill="none" stroke="#1a1a1a" stroke-linecap="round" stroke-width="3">
   <path d="m121.2 173.25 19.774-1.1909"/>
   <path d="m121.54 166.71 21.924-1.4801"/>
   <path d="m121.36 159.94 23.933-1.402"/>
   <path d="m152.1 158.09 26.21-1.1132"/>
   <path d="m184.84 156.64 25.986-0.70328"/>
   <path d="m218.14 155.93 26.841-0.4719"/>
   <path d="m219.71 162.36 25.163-0.21354"/>
   <path d="m221.29 169.17 23.613-0.31716"/>
   <path d="m251.82 168.95 27.127-0.19331"/>
   <path d="m251.98 162.28 26.793-0.0244"/>
   <path d="m251.94 155.56 26.886-0.12162"/>
   <path d="m285.78 155.71 26.934 0.29289"/>
   <path d="m285.97 162.43 27.011 0.30069"/>
   <path d="m285.77 168.99 27.265 0.48523"/>
   <path d="m320.13 156.61 26.467 0.73401"/>
   <path d="m320.14 163.17 26.425 0.89229"/>
   <path d="m320.04 169.82 26.618 0.646"/>
   <path d="m353.55 171.04 26.753 1.1585"/>
   <path d="m353.32 164.43 26.766 1.1006"/>
   <path d="m353.15 157.75 26.924 1.2511"/>
   <path d="m386.43 159.47 23.69 1.7547"/>
   <path d="m386.47 166.26 24.038 1.3306"/>
   <path d="m386.49 172.78 24.174 1.4083"/>
  </g>
  <g fill="none" stroke="#333" stroke-linecap="round" stroke-width="3">
   <path d="m108.49 186.19 20.745-1.2012"/>
   <path d="m108.59 192.76 22.2-1.3442"/>
   <path d="m108.16 199.62 24.075-1.4638"/>
   <path d="m139.57 198.01 25.243-1.5784"/>
   <path d="m172.13 196.2 26.234-0.5482"/>
   <path d="m209.03 181.89 23.807-0.39843"/>
   <path d="m207.1 188.85 25.641-0.46906"/>
   <path d="m205.47 195.62 27.144-0.49958"/>
   <path d="m239.56 195.31 27.301-0.16776"/>
   <path d="m239.64 188.63 27.285-0.18621"/>
   <path d="m239.47 181.6 27.492 0.01"/>
   <path d="m273.5 181.8 27.189 0.42916"/>
   <path d="m273.61 188.7 27.21 0.26023"/>
   <path d="m273.93 195.27 26.892 0.47743"/>
   <path d="m307.36 182.6 27.248 0.63641"/>
   <path d="m307.52 189.35 27.131 0.75531"/>
   <path d="m307.79 196.03 27.113 0.85574"/>
   <path d="m341.4 197.31 26.954 0.97782"/>
   <path d="m341.39 190.49 26.797 1.1379"/>
   <path d="m341.23 183.71 26.888 1.2511"/>
   <path d="m374.61 185.43 24.027 1.3866"/>
   <path d="m374.68 192.15 24.4 1.3614"/>
   <path d="m374.86 198.79 23.942 1.2514"/>
  </g>
 </g>
</svg>
