<?xml version="1.0" encoding="UTF-8"?>
<svg width="514" height="514" version="1.1" viewBox="0 0 514 514" xmlns="http://www.w3.org/2000/svg" xmlns:cc="http://creativecommons.org/ns#" xmlns:dc="http://purl.org/dc/elements/1.1/" xmlns:rdf="http://www.w3.org/1999/02/22-rdf-syntax-ns#">
 <metadata>
  <rdf:RDF>
   <cc:Work rdf:about="">
    <dc:format>image/svg+xml</dc:format>
    <dc:type rdf:resource="http://purl.org/dc/dcmitype/StillImage"/>
    <dc:title/>
    <cc:license rdf:resource="http://creativecommons.org/licenses/by-nc-sa/4.0/"/>
    <dc:creator>
     <cc:Agent>
      <dc:title>Jan Alexander</dc:title>
     </cc:Agent>
    </dc:creator>
   </cc:Work>
   <cc:License rdf:about="http://creativecommons.org/licenses/by-nc-sa/4.0/">
    <cc:permits rdf:resource="http://creativecommons.org/ns#Reproduction"/>
    <cc:permits rdf:resource="http://creativecommons.org/ns#Distribution"/>
    <cc:requires rdf:resource="http://creativecommons.org/ns#Notice"/>
    <cc:requires rdf:resource="http://creativecommons.org/ns#Attribution"/>
    <cc:prohibits rdf:resource="http://creativecommons.org/ns#CommercialUse"/>
    <cc:permits rdf:resource="http://creativecommons.org/ns#DerivativeWorks"/>
    <cc:requires rdf:resource="http://creativecommons.org/ns#ShareAlike"/>
   </cc:License>
  </rdf:RDF>
 </metadata>
 <g>
  <rect x="67.344" y="82.79" width="379.64" height="73.721" fill="#c20007" stroke="#666"/>
  <path d="m69.276 78.977h-47.044c-3.9116 0.19114-4.6215 14.856-4.9686 20.779l-0.76615 15.933c-0.27887 23.328-0.39937 46.657-0.56051 69.985 0.40248 30.907 1.509 64.675 2.2591 91.961l1.3798 33.036c1.2551 16.952 2.3074 33.915 3.3165 50.883l2.071 27.136c1.7162 17.527 7.5693 30.476 25.896 31.444h413.96c16.507-0.70729 22.413-12.609 24.269-32.615 2.4966-31.793 4.402-66.683 5.8914-94.861 1.6041-43.203 2.8314-90.081 3.4608-128.04-0.37431-21.735-1.1119-43.461-1.7746-65.189-0.15073-5.1449-0.6995-20.465-5.0405-20.453h-47.14c-1.4619 0.94908-1.2201 1.9129-1.2865 3.548 1.0395 1.241 1.3624 2.4444 1.3367 4.4328l0.79943 19.857-0.0114 42.247c-0.0826 3.983-4.5811 7.2669-8.2763 7.446h-359.97c-4.5829-0.0342-7.7221-3.9821-7.923-7.172l-0.07329-41.599 0.35971-12.913c-0.08905-4.0141 0.37318-8.4007 1.4771-12.416-0.08697-1.9222-0.01003-2.6093-1.6334-3.4314z" fill="#f2f2f2" stroke="#666" stroke-width="1px"/>
  <g transform="translate(0 -.58051)" stroke="#666">
   <path d="m284.5 355.08v22.196c0 0.99951 0.78566 1.8038 1.7621 1.8038h4.4757c0.97644 0 1.7621-0.80424 1.7621-1.8038v-22.196z" fill="#f2f2f2" stroke-width="1.0001"/>
   <path d="m284.5 355.08v-29.595c0-1.3327 0.78566-2.405 1.7621-2.405h4.4758c0.97643 0 1.7621 1.0723 1.7621 2.405v29.595z" fill="#0f0" stroke-width="1.0001"/>
  </g>
  <g transform="translate(35 -.58051)" stroke="#666">
   <path d="m284.5 355.08v22.196c0 0.99951 0.78566 1.8038 1.7621 1.8038h4.4757c0.97644 0 1.7621-0.80424 1.7621-1.8038v-22.196z" fill="#f2f2f2" stroke-width="1.0001"/>
   <path d="m284.5 355.08v-29.595c0-1.3327 0.78566-2.405 1.7621-2.405h4.4758c0.97643 0 1.7621 1.0723 1.7621 2.405v29.595z" fill="#0f0" stroke-width="1.0001"/>
  </g>
  <g transform="translate(70 -.58051)" stroke="#666">
   <path d="m284.5 355.08v22.196c0 0.99951 0.78566 1.8038 1.7621 1.8038h4.4757c0.97644 0 1.7621-0.80424 1.7621-1.8038v-22.196z" fill="#f2f2f2" stroke-width="1.0001"/>
   <path d="m284.5 355.08v-29.595c0-1.3327 0.78566-2.405 1.7621-2.405h4.4758c0.97643 0 1.7621 1.0723 1.7621 2.405v29.595z" fill="#0f0" stroke-width="1.0001"/>
  </g>
  <g transform="translate(105 -.58051)" stroke="#666">
   <path d="m284.5 355.08v22.196c0 0.99951 0.78566 1.8038 1.7621 1.8038h4.4757c0.97644 0 1.7621-0.80424 1.7621-1.8038v-22.196z" fill="#f2f2f2" stroke-width="1.0001"/>
   <path d="m284.5 355.08v-29.595c0-1.3327 0.78566-2.405 1.7621-2.405h4.4758c0.97643 0 1.7621 1.0723 1.7621 2.405v29.595z" fill="#0f0" stroke-width="1.0001"/>
  </g>
  <g transform="translate(140 -.58051)" stroke="#666">
   <path d="m284.5 355.08v22.196c0 0.99951 0.78566 1.8038 1.7621 1.8038h4.4757c0.97644 0 1.7621-0.80424 1.7621-1.8038v-22.196z" fill="#f2f2f2" stroke-width="1.0001"/>
   <path d="m284.5 355.08v-29.595c0-1.3327 0.78566-2.405 1.7621-2.405h4.4758c0.97643 0 1.7621 1.0723 1.7621 2.405v29.595z" fill="#0f0" stroke-width="1.0001"/>
  </g>
  <g fill="#f2f2f2" font-family="sans-serif" font-size="6px" letter-spacing="0px" word-spacing="0px">
   <text transform="rotate(-90)" x="-317.88663" y="291.01334" style="line-height:1.25" xml:space="preserve"><tspan x="-317.88663" y="291.01334" fill="#666666" font-family="Cantarell" font-size="6.6667px">Power/DSL</tspan></text>
   <text transform="rotate(-90)" x="-317.88663" y="325.80505" style="line-height:1.25" xml:space="preserve"><tspan x="-317.88663" y="325.80505" fill="#666666" font-family="Cantarell" font-size="6.6667px">WLAN</tspan></text>
   <text transform="rotate(-90)" x="-317.88663" y="360.73309" style="line-height:1.25" xml:space="preserve"><tspan x="-317.88663" y="360.73309" fill="#666666" font-family="Cantarell" font-size="6.6667px">Fon/DECT</tspan></text>
   <text transform="rotate(-90)" x="-317.88663" y="395.66449" style="line-height:1.25" xml:space="preserve"><tspan x="-317.88663" y="395.66449" fill="#666666" font-family="Cantarell" font-size="6.6667px">Connect/WPS</tspan></text>
   <text transform="rotate(-90)" x="-317.88663" y="430.57507" style="line-height:1.25" xml:space="preserve"><tspan x="-317.88663" y="430.57507" fill="#666666" font-family="Cantarell" font-size="6.6667px">Info</tspan></text>
  </g>
  <g fill="#6f0100" stroke="#850301" stroke-width=".99982">
   <rect x="396.5" y="95.5" width="41" height="4.0002" rx="3.9048"/>
   <rect x="396.5" y="106.5" width="41" height="4.0002" rx="3.9048"/>
   <rect x="396.5" y="118.5" width="41" height="4.0002" rx="3.9048"/>
   <rect x="396.5" y="130.5" width="41" height="4.0002" rx="3.9048"/>
   <rect x="396.5" y="143.5" width="41" height="4.0002" rx="3.9048"/>
  </g>
  <g transform="translate(-46)" fill="#6f0100" stroke="#850301" stroke-width=".99982">
   <rect x="396.5" y="95.5" width="41" height="4.0002" rx="3.9048"/>
   <rect x="396.5" y="106.5" width="41" height="4.0002" rx="3.9048"/>
   <rect x="396.5" y="118.5" width="41" height="4.0002" rx="3.9048"/>
   <rect x="396.5" y="130.5" width="41" height="4.0002" rx="3.9048"/>
   <rect x="396.5" y="143.5" width="41" height="4.0002" rx="3.9048"/>
  </g>
  <g transform="translate(-92)" fill="#6f0100" stroke="#850301" stroke-width=".99982">
   <rect x="396.5" y="95.5" width="41" height="4.0002" rx="3.9048"/>
   <rect x="396.5" y="106.5" width="41" height="4.0002" rx="3.9048"/>
   <rect x="396.5" y="118.5" width="41" height="4.0002" rx="3.9048"/>
   <rect x="396.5" y="130.5" width="41" height="4.0002" rx="3.9048"/>
   <rect x="396.5" y="143.5" width="41" height="4.0002" rx="3.9048"/>
  </g>
  <g transform="translate(-138)" fill="#6f0100" stroke="#850301" stroke-width=".99982">
   <rect x="396.5" y="95.5" width="41" height="4.0002" rx="3.9048"/>
   <rect x="396.5" y="106.5" width="41" height="4.0002" rx="3.9048"/>
   <rect x="396.5" y="118.5" width="41" height="4.0002" rx="3.9048"/>
   <rect x="396.5" y="130.5" width="41" height="4.0002" rx="3.9048"/>
   <rect x="396.5" y="143.5" width="41" height="4.0002" rx="3.9048"/>
  </g>
  <g transform="translate(-183)" fill="#6f0100" stroke="#850301" stroke-width=".99982">
   <rect x="396.5" y="95.5" width="41" height="4.0002" rx="3.9048"/>
   <rect x="396.5" y="106.5" width="41" height="4.0002" rx="3.9048"/>
   <rect x="396.5" y="118.5" width="41" height="4.0002" rx="3.9048"/>
   <rect x="396.5" y="130.5" width="41" height="4.0002" rx="3.9048"/>
   <rect x="396.5" y="143.5" width="41" height="4.0002" rx="3.9048"/>
  </g>
  <g transform="translate(-229)" fill="#6f0100" stroke="#850301" stroke-width=".99982">
   <rect x="396.5" y="95.5" width="41" height="4.0002" rx="3.9048"/>
   <rect x="396.5" y="106.5" width="41" height="4.0002" rx="3.9048"/>
   <rect x="396.5" y="118.5" width="41" height="4.0002" rx="3.9048"/>
   <rect x="396.5" y="130.5" width="41" height="4.0002" rx="3.9048"/>
   <rect x="396.5" y="143.5" width="41" height="4.0002" rx="3.9048"/>
  </g>
  <g transform="translate(-275)" fill="#6f0100" stroke="#850301" stroke-width=".99982">
   <rect x="396.5" y="95.5" width="41" height="4.0002" rx="3.9048"/>
   <rect x="396.5" y="106.5" width="41" height="4.0002" rx="3.9048"/>
   <rect x="396.5" y="118.5" width="41" height="4.0002" rx="3.9048"/>
   <rect x="396.5" y="130.5" width="41" height="4.0002" rx="3.9048"/>
   <rect x="396.5" y="143.5" width="41" height="4.0002" rx="3.9048"/>
  </g>
  <g transform="translate(-320)" fill="#6f0100" stroke="#850301" stroke-width=".99982">
   <rect x="396.5" y="95.5" width="41" height="4.0002" rx="3.9048"/>
   <rect x="396.5" y="106.5" width="41" height="4.0002" rx="3.9048"/>
   <rect x="396.5" y="118.5" width="41" height="4.0002" rx="3.9048"/>
   <rect x="396.5" y="130.5" width="41" height="4.0002" rx="3.9048"/>
   <rect x="396.5" y="143.5" width="41" height="4.0002" rx="3.9048"/>
  </g>
 </g>
</svg>
