<?xml version="1.0" encoding="UTF-8" standalone="no"?>
<svg
   width="100%"
   height="100%"
   viewBox="0 0 1280 1150"
   version="1.1"
   xml:space="preserve"
   style="fill-rule:evenodd;clip-rule:evenodd;stroke-linecap:round;stroke-linejoin:round;stroke-miterlimit:1.41421;"
   id="svg14317"
   sodipodi:docname="comfast-cf-e110n-v2.svg.2022_07_10_15_22_35.0.svg"
   inkscape:version="1.2 (1:1.2+202206011327+fc4e4096c5)"
   xmlns:inkscape="http://www.inkscape.org/namespaces/inkscape"
   xmlns:sodipodi="http://sodipodi.sourceforge.net/DTD/sodipodi-0.dtd"
   xmlns="http://www.w3.org/2000/svg"
   xmlns:svg="http://www.w3.org/2000/svg"><defs
   id="defs14321" /><sodipodi:namedview
   id="namedview14319"
   pagecolor="#ffffff"
   bordercolor="#666666"
   borderopacity="1.0"
   inkscape:showpageshadow="2"
   inkscape:pageopacity="0.0"
   inkscape:pagecheckerboard="0"
   inkscape:deskcolor="#d1d1d1"
   showgrid="false"
   inkscape:zoom="0.41043478"
   inkscape:cx="1450.9004"
   inkscape:cy="688.2945"
   inkscape:window-width="1920"
   inkscape:window-height="1021"
   inkscape:window-x="0"
   inkscape:window-y="0"
   inkscape:window-maximized="1"
   inkscape:current-layer="svg14317" />
    
<g
   id="g6099"><path
     style="fill:#d8d5d1;fill-opacity:1;stroke:#000000;stroke-width:1px;stroke-linecap:butt;stroke-linejoin:miter;stroke-opacity:1"
     d="m 455.60845,459.50717 c -11.2093,3.15004 -22.2852,9.2618 -24.9731,28.78217 l -1.0513,193.90381 c 2.6603,23.69262 16.3886,28.7245 32.418,29.8768"
     id="path1072"
     sodipodi:nodetypes="cccc" /><path
     style="fill:#d9d7d8;fill-opacity:1;stroke:#000000;stroke-width:1px;stroke-linecap:butt;stroke-linejoin:miter;stroke-opacity:1"
     d="m 491.22955,460.51847 -35.4547,-0.78347 c -15.7062,9.41995 -17.9691,20.396 -17.8136,32.89754 v 188.92055 c 2.0798,13.47783 7.4714,26.68083 24.8696,30.35308 l 28.4407,-1.43172"
     id="path1068"
     sodipodi:nodetypes="cccccc" /><path
     style="fill:#dbd8d4;fill-opacity:1;stroke:#000000;stroke-width:1px;stroke-linecap:butt;stroke-linejoin:miter;stroke-opacity:1"
     d="m 558.97095,1019.2668 -51.9441,-13.5383 c -13.0589,-5.6437 -15.407,-19.43865 -15.3255,-35.08254 V 199.76832 c 0.7055,-10.73175 1.8959,-32.63155 26.0628,-38.63183 l 54.2703,-16.65689"
     id="path1003"
     sodipodi:nodetypes="cccccc" /><path
     style="fill:#e8e7ec;fill-opacity:1;stroke:#000000;stroke-width:1px;stroke-linecap:butt;stroke-linejoin:miter;stroke-opacity:1"
     d="m 538.68755,188.88438 -1.2823,803.83386 c 9.1295,60.32236 140.0057,22.23016 202.0838,7.21942 43.1004,-10.42177 109.0465,-30.50669 112.1525,-58.82011 l 0.3988,-684.19834 c 6.9283,-57.42131 -57.4388,-72.0369 -140.4932,-91.83904 -88.6476,-21.13571 -173.4969,-45.83617 -172.8596,23.80421 z"
     id="path905"
     sodipodi:nodetypes="ccsccsc" /><g
     id="g5364"
     transform="translate(11.850853,-2.4638356)"><path
       style="fill:none;stroke:#000000;stroke-width:1px;stroke-linecap:butt;stroke-linejoin:miter;stroke-opacity:1"
       d="m 448.31745,655.62014 v -54.16006 c -9.44359,-9.88708 -7.7915,-19.37024 0,-26.75012 V 521.5832 c 1.66293,-2.10681 3.38772,-1.16046 5.11684,0 l 0.10044,52.80091 c 6.96637,8.94629 7.23762,17.56023 -0.0343,27.11814 l -0.13913,54.74687 z"
       id="path1074"
       sodipodi:nodetypes="ccccccccc" /><path
       style="fill:none;stroke:#000000;stroke-width:1px;stroke-linecap:butt;stroke-linejoin:miter;stroke-opacity:1"
       d="m 448.25011,521.377 c 3.14445,-4.6238 9.47232,-4.64322 12.05866,-1.11412 l 0.0155,53.0025 c 8.44103,8.94239 9.52257,18.54403 0,29.09557 l 0.0408,52.89982 c -4.27191,1.59021 -8.35813,1.62397 -12.2938,0.39575"
       id="path1078"
       sodipodi:nodetypes="cccccc" /></g></g></svg>
