<?xml version="1.0" encoding="UTF-8"?>
<svg version="1.1" viewBox="0 0 514 514" xmlns="http://www.w3.org/2000/svg" xmlns:cc="http://creativecommons.org/ns#" xmlns:dc="http://purl.org/dc/elements/1.1/" xmlns:rdf="http://www.w3.org/1999/02/22-rdf-syntax-ns#">
 <metadata>
  <rdf:RDF>
   <cc:Work rdf:about="">
    <dc:format>image/svg+xml</dc:format>
    <dc:type rdf:resource="http://purl.org/dc/dcmitype/StillImage"/>
    <dc:title/>
    <cc:license rdf:resource="http://creativecommons.org/licenses/by-nc-sa/4.0/"/>
    <dc:creator>
     <cc:Agent>
      <dc:title>Jan Alexander</dc:title>
     </cc:Agent>
    </dc:creator>
   </cc:Work>
   <cc:License rdf:about="http://creativecommons.org/licenses/by-nc-sa/4.0/">
    <cc:permits rdf:resource="http://creativecommons.org/ns#Reproduction"/>
    <cc:permits rdf:resource="http://creativecommons.org/ns#Distribution"/>
    <cc:requires rdf:resource="http://creativecommons.org/ns#Notice"/>
    <cc:requires rdf:resource="http://creativecommons.org/ns#Attribution"/>
    <cc:prohibits rdf:resource="http://creativecommons.org/ns#CommercialUse"/>
    <cc:permits rdf:resource="http://creativecommons.org/ns#DerivativeWorks"/>
    <cc:requires rdf:resource="http://creativecommons.org/ns#ShareAlike"/>
   </cc:License>
  </rdf:RDF>
 </metadata>
 <path d="m180.34 463.05c-16.373 0.38908-32.41-0.31189-48.948-2.009-18.293-1.7609-36.942-3.2292-54.279-9.9448-9.1561-2.9652-17.71-9.1841-21.73-18.173-5.0177-9.1508-2.1433-20.09-3.0536-30.075-0.16868-6.23 0.11834-12.464 0.95312-18.641 136.48-0.43613 272.95-0.87225 409.43-1.3084 1.5811 14.572 1.2248 29.096 0.52487 43.631-2.2695 15.695-18.508 24.057-32.577 27.1-42.823 8.6876-86.68 9.9012-130.22 9.4204z" fill="#f2f2f2" stroke="#666" stroke-width="1px"/>
 <path d="m212.6 286.83c-30.809 2.0667-61.872 3.989-92.068 10.658-15.008 4.1746-30.417 9.3819-41.457 20.931-13.38 12.946-20.813 31.225-24.085 49.329-1.241 9.1094-2.7278 18.936 0.03653 27.823 3.9031 7.5413 13.937 8.5508 21.41 10.678 17.653 1.9447 35.501 2.2212 53.242 3.0226 75.3-0.15768 150.61 0.31754 225.9-0.24154 28.708-1.1248 57.612-0.0936 86.152-3.6858 9.4205-1.576 20.325-7.3828 20.523-18.212 1.0885-12.682-1.8918-25.733-6.1389-37.696-5.8397-18.14-18.26-34.413-35.344-43.153-33.496-13.823-70.202-15.683-105.92-18.084-34.033-2.4008-68.161-1-102.25-1.37z" fill="#f2f2f2" stroke="#666" stroke-width="1px"/>
 <g fill="#34b9fc">
  <circle cx="180.5" cy="386.5" r="2"/>
  <circle cx="206.5" cy="386" r="2"/>
  <circle cx="233" cy="385.5" r="2"/>
  <circle cx="259.5" cy="385.5" r="2"/>
  <circle cx="285" cy="385.5" r="2"/>
  <circle cx="311.22" cy="386" r="2"/>
  <circle cx="337.5" cy="386.5" r="2"/>
 </g>
 <path d="m52.258 413.05c0.39753 1.5254 0.7182 3.0762 1.1639 4.5857 0.58178 1.3175 1.0695 2.6817 1.7117 3.9692 0.63101 1.0406 1.1704 2.145 1.8614 3.1439 0.78655 0.90857 1.5002 1.891 2.3324 2.7533 1.0997 0.84828 2.1026 1.8367 3.3518 2.4685 0.58502 0.43535 1.3111 0.53971 1.9921 0.74989 0.42078-0.12528 0.85827-0.22576 1.0821-0.6435 0.30657-0.27406 0.47427-0.61566 0.49987-1.0264 0.13791-0.88886 0.50789-1.765 0.31502-2.672-0.08251-1.0374-0.17018-2.0739-0.47289-3.0748-0.1198-0.46417-0.14576-0.97543-0.54916-1.2973-1.6282-2.021-3.5355-3.7916-5.3245-5.6666-1.0662-0.99075-1.7847-2.2745-2.6678-3.4195-0.79149-1.1952-1.5779-2.4014-2.2948-3.6422-0.79479-1.4823-1.4879-3.016-2.0061-4.6178-0.24555-0.68738-0.4911-1.3748-0.73664-2.0621-0.08617 3.4839-0.17234 6.9679-0.25851 10.452z" fill="none" stroke="#666" stroke-width="1px"/>
 <path d="m463.67 413.05c-0.41819 1.6407-0.70641 3.3182-1.2172 4.9326-0.30756 0.94237-0.58796 1.8963-1.1127 2.7463-0.72899 1.5036-1.634 2.9098-2.5437 4.3069-1.0463 1.2197-2.1247 2.409-3.2989 3.5078-0.65608 0.58656-1.4131 1.0659-2.1313 1.5711-0.44347 0.14518-0.88813 0.43327-1.3309 0.49388-0.49166-0.22122-1.0479-0.35117-1.3511-0.83883-0.37126-0.3282-0.62754-0.72708-0.74817-1.2094-0.18973-0.61918-0.59401-1.2032-0.4638-1.8748 0.0474-1.0131-0.0152-2.0404 0.29729-3.0192 0.16323-0.6576 0.21717-1.3599 0.66928-1.8994 0.42842-0.69197 0.80124-1.4284 1.4536-1.9415 2.2827-2.1992 4.4677-4.5001 6.6133-6.8301 1.0183-1.5868 2.0826-3.1462 2.9342-4.8321 0.70134-1.0832 0.86384-2.4018 1.3942-3.5586 0.33643-0.58687 0.67286-1.1738 1.0093-1.7606-0.0577 3.402-0.11547 6.8039-0.17321 10.206z" fill="none" stroke="#666" stroke-width="1px"/>
 <g stroke="#666" stroke-width="1px">
  <path d="m90.369 309.54-28.263-311.6 34.398-0.39773 32.197 298.11z" fill="#f2f2f2"/>
  <path d="m88.051 283.99c1.5596 0.2911 3.1114 0.69796 4.6758 0.91679 3.1791-0.22911 6.3575-0.47247 9.5461-0.51203 2.0882-0.0643 4.1808-0.0664 6.252-0.3725 2.1543-0.24084 4.3178-0.41955 6.437-0.89545 1.582-0.35429 3.2376-0.44702 4.7303-1.1192 2.4073-0.91968 4.8268-1.8069 7.2419-2.7061l0.0194-0.0777 4e-3 -0.0146" fill="none"/>
 </g>
 <g transform="matrix(-1 0 0 1 516.17 0)" stroke="#666" stroke-width="1px">
  <path d="m90.369 309.54-28.263-311.6 34.398-0.39773 32.197 298.11z" fill="#f2f2f2"/>
  <path d="m88.051 283.99c1.5596 0.2911 3.1114 0.69796 4.6758 0.91679 3.1791-0.22911 6.3575-0.47247 9.5461-0.51203 2.0882-0.0643 4.1808-0.0664 6.252-0.3725 2.1543-0.24084 4.3178-0.41955 6.437-0.89545 1.582-0.35429 3.2376-0.44702 4.7303-1.1192 2.4073-0.91968 4.8268-1.8069 7.2419-2.7061l0.0194-0.0777 4e-3 -0.0146" fill="none"/>
 </g>
</svg>
