<?xml version="1.0" encoding="UTF-8" standalone="no"?>
<svg
   width="100%"
   height="100%"
   viewBox="0 0 1280 1150"
   version="1.1"
   xml:space="preserve"
   style="fill-rule:evenodd;clip-rule:evenodd;stroke-linecap:round;stroke-linejoin:round;stroke-miterlimit:1.41421;"
   id="svg37"
   sodipodi:docname="d-link-covr-x1860-a1.svg"
   inkscape:version="1.1.2 (0a00cf5339, 2022-02-04)"
   xmlns:inkscape="http://www.inkscape.org/namespaces/inkscape"
   xmlns:sodipodi="http://sodipodi.sourceforge.net/DTD/sodipodi-0.dtd"
   xmlns="http://www.w3.org/2000/svg"
   xmlns:svg="http://www.w3.org/2000/svg"><defs
   id="defs41" /><sodipodi:namedview
   id="namedview39"
   pagecolor="#ffffff"
   bordercolor="#666666"
   borderopacity="1.0"
   inkscape:showpageshadow="2"
   inkscape:pageopacity="0.0"
   inkscape:pagecheckerboard="0"
   inkscape:deskcolor="#d1d1d1"
   showgrid="false"
   inkscape:zoom="0.41043479"
   inkscape:cx="-1054.9788"
   inkscape:cy="621.29237"
   inkscape:window-width="3413"
   inkscape:window-height="1368"
   inkscape:window-x="0"
   inkscape:window-y="0"
   inkscape:window-maximized="0"
   inkscape:current-layer="svg37"
   inkscape:pageshadow="2"
   inkscape:object-paths="true"
   inkscape:snap-bbox="true" />
    
<g
   id="g233871"
   transform="matrix(1.7933945,0,0,1.7933945,3436.1893,-441.89791)"><ellipse
     style="fill:#9d9d9d;fill-opacity:1;stroke:none;stroke-width:1.94341;stroke-miterlimit:1.41421;stroke-dasharray:none;stroke-opacity:1"
     id="ellipse232983"
     ry="10.595929"
     rx="22.831871"
     cy="868.94812"
     cx="-1511.3873" /><path
     style="fill:#ececec;fill-opacity:1;stroke:none;stroke-width:1px;stroke-linecap:butt;stroke-linejoin:miter;stroke-opacity:1"
     d="m -1840.5754,345.67618 c -5.6607,-24.42956 149.9295,-71.7385 198.3514,-82.66501 l 298.0544,32.92494 c 22.1917,8.53799 65.2462,10.94836 66.5751,25.61397 -6.6838,41.87547 -82.3497,106.71932 -193.0109,96.15297 -90.2939,17.03844 -347.2971,-12.60096 -369.97,-72.02687 z"
     id="path232985"
     sodipodi:nodetypes="cccccc" /><path
     style="fill:#9a9a9a;fill-opacity:1;stroke:none;stroke-width:1px;stroke-linecap:butt;stroke-linejoin:miter;stroke-opacity:1"
     d="m -1829.8296,346.40156 c 50.0714,-24.58314 100.0426,-47.84814 149.9376,-70.1101 -38.5954,8.84506 -77.8738,25.80158 -116.9258,41.68794 -19.1423,7.59568 -36.7146,18.42384 -33.0118,28.42216 z"
     id="path232987"
     sodipodi:nodetypes="cccc" /><path
     style="fill:#c3c3c3;fill-opacity:1;stroke:none;stroke-width:1px;stroke-linecap:butt;stroke-linejoin:miter;stroke-opacity:1"
     d="m -1333.8188,299.89 38.1449,11.93141 c 12.0595,5.47389 11.9581,13.59245 4.7916,18.68082 -14.3113,8.96307 -111.576,72.02807 -205.0498,83.93933 -71.3047,9.08627 -307.7279,-48.91662 -330.573,-63.88477 -4.1321,-2.61001 -8.1509,-10.07414 9.2619,-18.67504 l 54.0956,-23.54718 z"
     id="path232989"
     sodipodi:nodetypes="cccscccc" /><path
     style="fill:#b1b1b1;fill-opacity:1;stroke:none;stroke-width:1px;stroke-linecap:butt;stroke-linejoin:miter;stroke-opacity:1"
     d="m -1837.5863,756.93427 556.9192,-25.46277 c 0.05,40.86099 -178.3245,142.28047 -221.586,138.99098 -57.0359,4.72411 -281.1031,-57.45233 -327.1479,-94.95902 -6.1118,-4.97853 -8.1141,-7.5589 -8.1853,-18.56919 z"
     id="path232991"
     sodipodi:nodetypes="cccsc" /><path
     style="fill:#f2f2f2;fill-opacity:1;stroke:none;stroke-width:1px;stroke-linecap:butt;stroke-linejoin:miter;stroke-opacity:1"
     d="m -1470.6054,417.70305 -2.605,437.77806 c 17.7247,2.5006 168.5173,-86.3656 192.5433,-124.00961 l 3.0726,-409.92142 c -8.0014,25.36168 -140.509,82.31528 -193.0109,96.15297 z"
     id="path232993"
     sodipodi:nodetypes="ccccc" /><path
     style="fill:#c9c9c9;fill-opacity:1;stroke:none;stroke-width:1px;stroke-linecap:butt;stroke-linejoin:miter;stroke-opacity:1"
     d="m -1840.5754,345.67618 2.9891,411.25809 c 2.3162,5.49779 5.9958,9.17909 9.7085,12.81644 l -3.8137,-415.32038 c -3.7184,-1.86859 -6.804,-4.61433 -8.8839,-8.75415 z"
     id="path232995"
     sodipodi:nodetypes="ccccc" /><path
     style="fill:#f3f3f3;fill-opacity:1;stroke:none;stroke-width:1px;stroke-linecap:butt;stroke-linejoin:miter;stroke-opacity:1"
     d="m -1831.6915,354.43033 c 21.6567,15.68538 289.718,82.98975 361.0861,63.27272 v 436.63286 c -66.2467,31.79077 -328.2635,-63.04615 -357.2724,-84.5852 z"
     id="path232997"
     sodipodi:nodetypes="ccccc" /><path
     style="fill:#eaeaea;fill-opacity:1;stroke:none;stroke-width:1px;stroke-linecap:butt;stroke-linejoin:miter;stroke-opacity:1"
     d="m -1664.6693,358.68634 109.0291,-45.2068 153.8445,31.02371 c -94.966,52.33191 -140.3726,42.64491 -262.8736,14.18309 z"
     id="path232999"
     sodipodi:nodetypes="cccc" /><path
     style="fill:#ebebeb;fill-opacity:1;stroke:none;stroke-width:1px;stroke-linecap:butt;stroke-linejoin:miter;stroke-opacity:1"
     d="m -1555.6402,313.47954 98.9788,-40.10101 c -136.4745,-28.69744 -156.4248,-24.54766 -244.8461,11.61149 z"
     id="path233001"
     sodipodi:nodetypes="cccc" /><path
     style="fill:#f2f2f2;fill-opacity:1;stroke:none;stroke-width:1px;stroke-linecap:butt;stroke-linejoin:miter;stroke-opacity:1"
     d="m -1555.6402,313.47954 -145.8673,-28.48952 c -91.0342,35.23371 -139.8947,39.9265 36.8382,73.69632 z"
     id="path233003"
     sodipodi:nodetypes="cccc" /><path
     style="fill:#f5f5f5;fill-opacity:1;stroke:none;stroke-width:1px;stroke-linecap:butt;stroke-linejoin:miter;stroke-opacity:1"
     d="m -1555.6402,313.47954 153.8445,31.02371 c 21.25,-11.1539 43.3838,-21.20805 63.383,-33.91863 18.2683,-9.57989 -1.7084,-13.56959 -14.0995,-16.83428 l -104.1492,-20.37181 z"
     id="path233005"
     sodipodi:nodetypes="cccccc" /><path
     style="fill:#505050;fill-opacity:1;stroke:none;stroke-width:1px;stroke-linecap:butt;stroke-linejoin:miter;stroke-opacity:1"
     d="m -1594.7903,374.06837 -19.5201,-36.26238 3.8364,-1.59068 20.9303,38.84476 z"
     id="path233007" /><path
     style="fill:#505050;fill-opacity:1;stroke:none;stroke-width:1px;stroke-linecap:butt;stroke-linejoin:miter;stroke-opacity:1"
     d="m -1578.5513,376.99378 -24.027,-44.05228 3.5416,-1.46846 26.295,46.4504 z"
     id="path233009" /><path
     style="fill:#505050;fill-opacity:1;stroke:none;stroke-width:1px;stroke-linecap:butt;stroke-linejoin:miter;stroke-opacity:1"
     d="m -1561.8837,379.45501 -29.8923,-50.99246 4.6381,-1.92313 30.2968,53.52254 z"
     id="path233011" /><path
     style="fill:#505050;fill-opacity:1;stroke:none;stroke-width:1px;stroke-linecap:butt;stroke-linejoin:miter;stroke-opacity:1"
     d="m -1622.3098,341.1228 16.7697,30.80107 -5.2731,-1.09833 -15.3071,-28.1228 z"
     id="path233013" /><path
     style="fill:#505050;fill-opacity:1;stroke:none;stroke-width:1px;stroke-linecap:butt;stroke-linejoin:miter;stroke-opacity:1"
     d="m -1637.8285,347.55733 10.2065,19.61584 5.3263,1.17838 -11.3933,-22.51059 z"
     id="path233015" /><path
     style="fill:#505050;fill-opacity:1;stroke:none;stroke-width:1px;stroke-linecap:butt;stroke-linejoin:miter;stroke-opacity:1"
     d="m -1649.8222,352.53029 5.6638,10.89881 5.6756,1.29679 -7.2092,-13.9081 z"
     id="path233017" /><path
     style="fill:#505050;fill-opacity:1;stroke:none;stroke-width:1px;stroke-linecap:butt;stroke-linejoin:miter;stroke-opacity:1"
     d="m -1657.6778,355.78746 2.0819,5.00422 -4.3514,-1.00883 -1.0816,-2.60593 z"
     id="path233019" /><path
     style="fill:#505050;fill-opacity:1;stroke:none;stroke-width:1px;stroke-linecap:butt;stroke-linejoin:miter;stroke-opacity:1"
     d="m -1580.4449,323.76432 34.3624,57.33529 5.7362,0.39321 -35.9683,-59.44105 z"
     id="path233021" /><path
     style="fill:#505050;fill-opacity:1;stroke:none;stroke-width:1px;stroke-linecap:butt;stroke-linejoin:miter;stroke-opacity:1"
     d="m -1569.1114,319.06509 38.3851,62.80549 5.239,0.0444 -39.904,-64.39241 z"
     id="path233023" /><path
     style="fill:#505050;fill-opacity:1;stroke:none;stroke-width:1px;stroke-linecap:butt;stroke-linejoin:miter;stroke-opacity:1"
     d="m -1549.9153,327.01003 34.5207,54.64148 4.4533,-0.27081 -34.8249,-54.94548 z"
     id="path233025" /><path
     style="fill:#505050;fill-opacity:1;stroke:none;stroke-width:1px;stroke-linecap:butt;stroke-linejoin:miter;stroke-opacity:1"
     d="m -1542.6644,316.0962 40.5036,64.45875 5.2831,-0.68891 -40.4767,-62.69904 z"
     id="path233027" /><path
     style="fill:#505050;fill-opacity:1;stroke:none;stroke-width:1px;stroke-linecap:butt;stroke-linejoin:miter;stroke-opacity:1"
     d="m -1526.7542,319.30459 38.2373,59.16975 5.2991,-1.07467 -37.9547,-56.9695 z"
     id="path233029" /><path
     style="fill:#505050;fill-opacity:1;stroke:none;stroke-width:1px;stroke-linecap:butt;stroke-linejoin:miter;stroke-opacity:1"
     d="m -1510.8063,322.52059 35.3877,53.02685 4.1829,-1.12444 -34.9707,-50.97483 z"
     id="path233031" /><path
     style="fill:#505050;fill-opacity:1;stroke:none;stroke-width:1px;stroke-linecap:butt;stroke-linejoin:miter;stroke-opacity:1"
     d="m -1494.2464,325.85999 30.9684,46.17754 4.695,-1.55456 -30.6005,-43.60201 z"
     id="path233033" /><path
     style="fill:#505050;fill-opacity:1;stroke:none;stroke-width:1px;stroke-linecap:butt;stroke-linejoin:miter;stroke-opacity:1"
     d="m -1477.6234,329.21212 25.8718,38.82174 4.2813,-1.64356 -24.5834,-36.05502 z"
     id="path233035" /><path
     style="fill:#505050;fill-opacity:1;stroke:none;stroke-width:1px;stroke-linecap:butt;stroke-linejoin:miter;stroke-opacity:1"
     d="m -1461.0523,332.55379 20.8205,30.87694 4.7006,-2.03752 -20.1018,-27.74658 z"
     id="path233037" /><path
     style="fill:#505050;fill-opacity:1;stroke:none;stroke-width:1px;stroke-linecap:butt;stroke-linejoin:miter;stroke-opacity:1"
     d="m -1445.0404,335.78269 16.0973,22.6111 3.8836,-1.84249 -14.3557,-19.63425 z"
     id="path233039" /><path
     style="fill:#505050;fill-opacity:1;stroke:none;stroke-width:1px;stroke-linecap:butt;stroke-linejoin:miter;stroke-opacity:1"
     d="m -1428.1924,339.18019 10.4978,13.73567 3.6187,-1.85011 -8.6503,-10.78327 z"
     id="path233041" /><path
     style="fill:#505050;fill-opacity:1;stroke:none;stroke-width:1px;stroke-linecap:butt;stroke-linejoin:miter;stroke-opacity:1"
     d="m -1411.8312,342.47953 3.8363,5.38912 3.1885,-1.7181 -2.2112,-2.70032 z"
     id="path233043" /><path
     style="fill:#f9f9f9;fill-opacity:1;stroke:none;stroke-width:1px;stroke-linecap:butt;stroke-linejoin:miter;stroke-opacity:1"
     d="m -1562.995,305.55786 4.0047,-0.69135 10.7954,17.65046 -4.3238,0.703 z"
     id="path233045"
     sodipodi:nodetypes="ccccc" /><path
     style="fill:#505050;fill-opacity:1;stroke:none;stroke-width:1px;stroke-linecap:butt;stroke-linejoin:miter;stroke-opacity:1"
     d="m -1694.0301,281.94401 1.8396,4.86572 -4.1705,-0.81454 -0.8293,-2.76706 z"
     id="path233047" /><path
     style="fill:#505050;fill-opacity:1;stroke:none;stroke-width:1px;stroke-linecap:butt;stroke-linejoin:miter;stroke-opacity:1"
     d="m -1687.2735,279.22021 5.0491,9.53601 4.7325,0.92432 -6.1605,-11.90431 z"
     id="path233049" /><path
     style="fill:#505050;fill-opacity:1;stroke:none;stroke-width:1px;stroke-linecap:butt;stroke-linejoin:miter;stroke-opacity:1"
     d="m -1676.2213,274.85935 9.6605,16.95615 4.1964,0.81962 -9.9433,-19.28061 z"
     id="path233051" /><path
     style="fill:#505050;fill-opacity:1;stroke:none;stroke-width:1px;stroke-linecap:butt;stroke-linejoin:miter;stroke-opacity:1"
     d="m -1665.2956,270.72743 13.4959,23.97109 5.4844,1.07116 -15.0286,-26.47598 z"
     id="path233053" /><path
     style="fill:#505050;fill-opacity:1;stroke:none;stroke-width:1px;stroke-linecap:butt;stroke-linejoin:miter;stroke-opacity:1"
     d="m -1653.9454,266.72016 17.5959,30.99594 5.0727,0.99077 -19.0083,-33.19809 z"
     id="path233055" /><path
     style="fill:#505050;fill-opacity:1;stroke:none;stroke-width:1px;stroke-linecap:butt;stroke-linejoin:miter;stroke-opacity:1"
     d="m -1642.224,263.01117 20.4035,37.54261 5.9292,1.15805 -22.8639,-39.6947 z"
     id="path233057" /><path
     style="fill:#505050;fill-opacity:1;stroke:none;stroke-width:1px;stroke-linecap:butt;stroke-linejoin:miter;stroke-opacity:1"
     d="m -1659.9473,359.78285 7.6088,37.33873 5.9423,1.17137 -9.1997,-37.50127 z"
     id="path233059" /><path
     style="fill:#505050;fill-opacity:1;stroke:none;stroke-width:1px;stroke-linecap:butt;stroke-linejoin:miter;stroke-opacity:1"
     d="m -1644.1584,363.4291 7.9693,36.82319 6.1173,1.14104 -8.411,-36.66744 z"
     id="path233061" /><path
     style="fill:#505050;fill-opacity:1;stroke:none;stroke-width:1px;stroke-linecap:butt;stroke-linejoin:miter;stroke-opacity:1"
     d="m -1627.622,367.17317 8.3369,36.16806 5.8179,1.01481 -8.8285,-36.00449 z"
     id="path233063" /><path
     style="fill:#505050;fill-opacity:1;stroke:none;stroke-width:1px;stroke-linecap:butt;stroke-linejoin:miter;stroke-opacity:1"
     d="m -1610.8132,370.82554 8.4286,35.38905 5.6759,0.9114 -8.8314,-35.20212 z"
     id="path233065" /><path
     style="fill:#505050;fill-opacity:1;stroke:none;stroke-width:1px;stroke-linecap:butt;stroke-linejoin:miter;stroke-opacity:1"
     d="m -1594.7903,374.06837 8.6408,34.67351 5.3873,0.7813 -8.7815,-34.46311 z"
     id="path233067" /><path
     style="fill:#505050;fill-opacity:1;stroke:none;stroke-width:1px;stroke-linecap:butt;stroke-linejoin:miter;stroke-opacity:1"
     d="m -1578.5513,376.99378 8.6492,34.00584 5.7471,0.72257 -8.5867,-33.79875 z"
     id="path233069" /><path
     style="fill:#505050;fill-opacity:1;stroke:none;stroke-width:1px;stroke-linecap:butt;stroke-linejoin:miter;stroke-opacity:1"
     d="m -1561.8837,379.45501 8.4327,33.48897 5.7284,0.57893 -9.1185,-33.46095 z"
     id="path233071" /><path
     style="fill:#505050;fill-opacity:1;stroke:none;stroke-width:1px;stroke-linecap:butt;stroke-linejoin:miter;stroke-opacity:1"
     d="m -1546.0825,381.09961 8.3707,33.28721 5.0709,0.35456 -7.7054,-33.24856 z"
     id="path233073" /><path
     style="fill:#505050;fill-opacity:1;stroke:none;stroke-width:1px;stroke-linecap:butt;stroke-linejoin:miter;stroke-opacity:1"
     d="m -1530.7263,381.87058 8.3979,33.38018 5.1775,0.12597 -8.3364,-33.46175 z"
     id="path233075" /><path
     style="fill:#505050;fill-opacity:1;stroke:none;stroke-width:1px;stroke-linecap:butt;stroke-linejoin:miter;stroke-opacity:1"
     d="m -1515.3946,381.65151 7.4263,33.66809 5.8022,-0.27939 -8.7752,-33.65951 z"
     id="path233077" /><path
     style="fill:#505050;fill-opacity:1;stroke:none;stroke-width:1px;stroke-linecap:butt;stroke-linejoin:miter;stroke-opacity:1"
     d="m -1502.1608,380.55495 9.2924,33.47819 5.2427,-0.78074 -9.252,-33.38636 z"
     id="path233079" /><path
     style="fill:#505050;fill-opacity:1;stroke:none;stroke-width:1px;stroke-linecap:butt;stroke-linejoin:miter;stroke-opacity:1"
     d="m -1488.5169,378.47434 8.9847,33.37761 4.8439,-0.94682 -8.5295,-33.50546 z"
     id="path233081" /><path
     style="fill:#505050;fill-opacity:1;stroke:none;stroke-width:1px;stroke-linecap:butt;stroke-linejoin:miter;stroke-opacity:1"
     d="m -1475.4186,375.54744 9.5629,33.43157 4.1221,-0.98392 -9.5021,-33.57209 z"
     id="path233083" /><path
     style="fill:#505050;fill-opacity:1;stroke:none;stroke-width:1px;stroke-linecap:butt;stroke-linejoin:miter;stroke-opacity:1"
     d="m -1463.278,372.03753 9.3404,33.95487 4.7341,-1.30384 -9.3795,-34.20559 z"
     id="path233085" /><path
     style="fill:#505050;fill-opacity:1;stroke:none;stroke-width:1px;stroke-linecap:butt;stroke-linejoin:miter;stroke-opacity:1"
     d="m -1451.7516,368.03386 10.565,34.30129 4.6195,-1.43666 -10.9032,-34.50819 z"
     id="path233087" /><path
     style="fill:#505050;fill-opacity:1;stroke:none;stroke-width:1px;stroke-linecap:butt;stroke-linejoin:miter;stroke-opacity:1"
     d="m -1440.2318,363.43073 10.9841,35.07486 4.5948,-1.57327 -10.8783,-35.53911 z"
     id="path233089" /><path
     style="fill:#505050;fill-opacity:1;stroke:none;stroke-width:1px;stroke-linecap:butt;stroke-linejoin:miter;stroke-opacity:1"
     d="m -1428.9431,358.39379 11.8885,35.82003 4.4716,-1.66626 -12.4765,-35.99626 z"
     id="path233091" /><path
     style="fill:#505050;fill-opacity:1;stroke:none;stroke-width:1px;stroke-linecap:butt;stroke-linejoin:miter;stroke-opacity:1"
     d="m -1417.6946,352.91586 11.6852,37.09516 4.4578,-1.77792 -12.5243,-37.16735 z"
     id="path233093" /><path
     style="fill:#505050;fill-opacity:1;stroke:none;stroke-width:1px;stroke-linecap:butt;stroke-linejoin:miter;stroke-opacity:1"
     d="m -1407.9949,347.86865 13.0833,37.63155 4.0745,-1.72628 -13.9693,-37.62337 z"
     id="path233095" /><path
     style="fill:#505050;fill-opacity:1;stroke:none;stroke-width:1px;stroke-linecap:butt;stroke-linejoin:miter;stroke-opacity:1"
     d="m -1383.899,380.74976 4.1306,-1.85028 -9.1619,-25.5305 39.2017,10.99166 2.4544,-1.27012 -48.4626,-14.09227 z"
     id="path233097" /><path
     style="fill:#505050;fill-opacity:1;stroke:none;stroke-width:1px;stroke-linecap:butt;stroke-linejoin:miter;stroke-opacity:1"
     d="m -1373.0577,375.81534 -5.886,-15.10183 22.8939,6.8617 -4.7003,2.3372 -11.0891,-4.04342 2.6217,8.1385 z"
     id="path233099" /><path
     style="fill:#505050;fill-opacity:1;stroke:none;stroke-width:1px;stroke-linecap:butt;stroke-linejoin:miter;stroke-opacity:1"
     d="m -1663.3945,394.88443 -6.4723,-31.75027 -49.0673,19.43991 5.8776,1.38635 38.8507,-15.51137 5.2626,25.28508 z"
     id="path233101" /><path
     style="fill:#505050;fill-opacity:1;stroke:none;stroke-width:1px;stroke-linecap:butt;stroke-linejoin:miter;stroke-opacity:1"
     d="m -1704.3385,385.97982 22.459,-8.57142 1.8224,13.96786 -5.8353,-1.26634 -0.4928,-7.2061 -11.9803,4.43448 z"
     id="path233103" /><path
     style="fill:#959595;fill-opacity:1;stroke:none;stroke-width:1px;stroke-linecap:butt;stroke-linejoin:miter;stroke-opacity:1"
     d="m -1727.5838,380.49657 55.1093,-23.31121 11.4456,-0.008 3.3511,-1.38946 -20.0932,0.36757 -55.1286,23.04206 z"
     id="path233105" /><path
     style="fill:#505050;fill-opacity:1;stroke:none;stroke-width:1px;stroke-linecap:butt;stroke-linejoin:miter;stroke-opacity:1"
     d="m -1605.742,303.69411 -25.1213,-43.73442 4.2229,-0.97518 25.6701,45.64156 z"
     id="path233107" /><path
     style="fill:#505050;fill-opacity:1;stroke:none;stroke-width:1px;stroke-linecap:butt;stroke-linejoin:miter;stroke-opacity:1"
     d="m -1589.8627,306.79551 -30.2793,-49.12855 5.0675,-0.86773 30.019,50.93517 z"
     id="path233109" /><path
     style="fill:#505050;fill-opacity:1;stroke:none;stroke-width:1px;stroke-linecap:butt;stroke-linejoin:miter;stroke-opacity:1"
     d="m -1574.0746,309.87911 -33.8512,-54.06169 4.427,-0.46655 34.4882,55.5173 z"
     id="path233111" /><path
     style="fill:#505050;fill-opacity:1;stroke:none;stroke-width:1px;stroke-linecap:butt;stroke-linejoin:miter;stroke-opacity:1"
     d="m -1595.762,254.78777 29.1867,46.54094 4.7381,-0.13206 -29.6437,-46.58836 z"
     id="path233113" /><path
     style="fill:#505050;fill-opacity:1;stroke:none;stroke-width:1px;stroke-linecap:butt;stroke-linejoin:miter;stroke-opacity:1"
     d="m -1581.8756,254.52215 34.2436,55.71287 3.2823,-1.32983 -33.4459,-54.29744 z"
     id="path233115" /><path
     style="fill:#505050;fill-opacity:1;stroke:none;stroke-width:1px;stroke-linecap:butt;stroke-linejoin:miter;stroke-opacity:1"
     d="m -1535.8154,305.44757 -32.8943,-50.41694 5.3786,0.38584 30.9565,48.37897 z"
     id="path233117" /><path
     style="fill:#505050;fill-opacity:1;stroke:none;stroke-width:1px;stroke-linecap:butt;stroke-linejoin:miter;stroke-opacity:1"
     d="m -1524.6993,300.94389 -30.6088,-44.78935 5.7889,0.63894 27.9205,42.89423 z"
     id="path233119" /><path
     style="fill:#505050;fill-opacity:1;stroke:none;stroke-width:1px;stroke-linecap:butt;stroke-linejoin:miter;stroke-opacity:1"
     d="m -1514.2999,296.73061 -27.0123,-38.89989 5.9358,0.83367 24.6759,36.60795 z"
     id="path233121" /><path
     style="fill:#505050;fill-opacity:1;stroke:none;stroke-width:1px;stroke-linecap:butt;stroke-linejoin:miter;stroke-opacity:1"
     d="m -1503.7209,292.44455 -22.7154,-32.41243 6.2634,1.02715 19.9866,29.95324 z"
     id="path233123" /><path
     style="fill:#505050;fill-opacity:1;stroke:none;stroke-width:1px;stroke-linecap:butt;stroke-linejoin:miter;stroke-opacity:1"
     d="m -1511.0361,262.64297 17.8681,25.52612 3.7477,-1.51838 -17.0761,-23.18831 z"
     id="path233125" /><path
     style="fill:#505050;fill-opacity:1;stroke:none;stroke-width:1px;stroke-linecap:butt;stroke-linejoin:miter;stroke-opacity:1"
     d="m -1495.3406,265.55265 12.1493,18.57441 4.5504,-1.84359 -12.0767,-15.83711 z"
     id="path233127" /><path
     style="fill:#505050;fill-opacity:1;stroke:none;stroke-width:1px;stroke-linecap:butt;stroke-linejoin:miter;stroke-opacity:1"
     d="m -1481.0631,268.35581 8.6376,11.40949 3.5743,-1.4481 -6.6485,-8.83824 z"
     id="path233129" /><path
     style="fill:#505050;fill-opacity:1;stroke:none;stroke-width:1px;stroke-linecap:butt;stroke-linejoin:miter;stroke-opacity:1"
     d="m -1465.7055,271.48991 3.0628,4.31192 5.9813,-2.4233 z"
     id="path233131" /><path
     style="fill:#959595;fill-opacity:1;stroke:none;stroke-width:1px;stroke-linecap:butt;stroke-linejoin:miter;stroke-opacity:1"
     d="m -1645.692,350.81779 -47.9196,2.18698 -56.5283,21.85122 5.1112,1.30808 57.8811,-21.8601 37.3254,-1.77368 z"
     id="path233133" /><path
     style="fill:#959595;fill-opacity:1;stroke:none;stroke-width:1px;stroke-linecap:butt;stroke-linejoin:miter;stroke-opacity:1"
     d="m -1758.2213,372.74858 54.9452,-21.72841 65.4476,-3.46284 4.1395,-1.71637 -75.7363,3.88533 -53.9733,21.64511 z"
     id="path233135" /><path
     style="fill:#959595;fill-opacity:1;stroke:none;stroke-width:1px;stroke-linecap:butt;stroke-linejoin:miter;stroke-opacity:1"
     d="m -1777.49,367.50066 53.2377,-21.0229 101.9425,-5.35496 -3.8105,1.57994 -93.1018,4.90055 -53.8029,21.14487 z"
     id="path233137" /><path
     style="fill:#959595;fill-opacity:1;stroke:none;stroke-width:1px;stroke-linecap:butt;stroke-linejoin:miter;stroke-opacity:1"
     d="m -1790.1989,363.82064 51.7978,-20.6817 127.9271,-6.92363 -3.8364,1.59068 -120.0402,6.31943 -51.6975,20.92054 z"
     id="path233139" /><path
     style="fill:#959595;fill-opacity:1;stroke:none;stroke-width:1px;stroke-linecap:butt;stroke-linejoin:miter;stroke-opacity:1"
     d="m -1796.1004,362.03162 48.6529,-21.21398 144.8692,-7.87614 3.5416,-1.46846 -152.5019,8.22644 -49.8682,20.66672 z"
     id="path233141" /><path
     style="fill:#959595;fill-opacity:1;stroke:none;stroke-width:1px;stroke-linecap:butt;stroke-linejoin:miter;stroke-opacity:1"
     d="m -1591.776,328.46255 -169.1138,8.44731 -47.3428,21.20986 -3.4762,-1.20482 47.5739,-21.07976 176.997,-9.29572 z"
     id="path233143" /><path
     style="fill:#959595;fill-opacity:1;stroke:none;stroke-width:1px;stroke-linecap:butt;stroke-linejoin:miter;stroke-opacity:1"
     d="m -1580.4449,323.76432 -190.2013,9.64486 -47.1816,21.23173 -2.9506,-1.20708 47.6011,-21.11413 196.8627,-10.26793 z"
     id="path233145" /><path
     style="fill:#959595;fill-opacity:1;stroke:none;stroke-width:1px;stroke-linecap:butt;stroke-linejoin:miter;stroke-opacity:1"
     d="m -1569.1114,319.06509 -209.7026,10.23323 -45.829,22.33291 -1.7235,-0.9848 45.9311,-22.5278 215.0441,-10.59606 z"
     id="path233147" /><path
     style="fill:#959595;fill-opacity:1;stroke:none;stroke-width:1px;stroke-linecap:butt;stroke-linejoin:miter;stroke-opacity:1"
     d="m -1569.0106,310.86817 -214.2666,10.6396 -46.7709,22.58758 0.5122,-1.98856 47.1584,-22.26728 208.3029,-9.9604 z"
     id="path233149" /><path
     style="fill:#959595;fill-opacity:1;stroke:none;stroke-width:1px;stroke-linecap:butt;stroke-linejoin:miter;stroke-opacity:1"
     d="m -1585.0555,307.7344 -195.183,9.84926 -47.0321,21.1451 5.0621,-4.07499 43.7825,-18.47138 188.5633,-9.38688 z"
     id="path233151" /><path
     style="fill:#959595;fill-opacity:1;stroke:none;stroke-width:1px;stroke-linecap:butt;stroke-linejoin:miter;stroke-opacity:1"
     d="m -1600.9703,304.62607 -173.5933,9.15077 4.0848,-2.12706 164.7368,-7.95567 z"
     id="path233153" /><path
     style="fill:#959595;fill-opacity:1;stroke:none;stroke-width:1px;stroke-linecap:butt;stroke-linejoin:miter;stroke-opacity:1"
     d="m -1615.8913,301.71183 -150.3305,7.9584 3.0742,-1.33566 141.3271,-7.78079 z"
     id="path233155" /><path
     style="fill:#959595;fill-opacity:1;stroke:none;stroke-width:1px;stroke-linecap:butt;stroke-linejoin:miter;stroke-opacity:1"
     d="m -1631.2768,298.70687 -125.1197,6.86742 4.0657,-1.58705 115.9813,-6.27114 z"
     id="path233157" /><path
     style="fill:#959595;fill-opacity:1;stroke:none;stroke-width:1px;stroke-linecap:butt;stroke-linejoin:miter;stroke-opacity:1"
     d="m -1646.3153,295.76968 -98.7245,5.45463 4.9551,-1.84132 88.285,-4.68447 z"
     id="path233159" /><path
     style="fill:#959595;fill-opacity:1;stroke:none;stroke-width:1px;stroke-linecap:butt;stroke-linejoin:miter;stroke-opacity:1"
     d="m -1662.3644,292.63512 -70.1447,3.95797 4.5553,-1.67445 61.393,-3.10314 z"
     id="path233161" /><path
     style="fill:#959595;fill-opacity:1;stroke:none;stroke-width:1px;stroke-linecap:butt;stroke-linejoin:miter;stroke-opacity:1"
     d="m -1677.4919,289.68054 -43.1152,2.52675 3.7112,-1.37953 34.6715,-2.07154 z"
     id="path233163" /><path
     style="fill:#959595;fill-opacity:1;stroke:none;stroke-width:1px;stroke-linecap:butt;stroke-linejoin:miter;stroke-opacity:1"
     d="m -1692.1905,286.80973 -17.3579,1.25786 4.1579,-1.58306 9.0295,-0.48934 z"
     id="path233165" /><path
     style="fill:#959595;fill-opacity:1;stroke:none;stroke-width:1px;stroke-linecap:butt;stroke-linejoin:miter;stroke-opacity:1"
     d="m -1600.3696,314.87726 -183.018,9.3376 -46.442,22.1867 0.8553,1.78906 46.2686,-22.49428 182.4755,-8.86 z"
     id="path233167" /><path
     style="fill:#959595;fill-opacity:1;stroke:none;stroke-width:1px;stroke-linecap:butt;stroke-linejoin:miter;stroke-opacity:1"
     d="m -1462.6427,275.80183 16.9074,-0.28613 -10.9261,-2.13717 z"
     id="path233169" /><path
     style="fill:#959595;fill-opacity:1;stroke:none;stroke-width:1px;stroke-linecap:butt;stroke-linejoin:miter;stroke-opacity:1"
     d="m -1472.4255,279.7653 41.2572,-1.40026 -7.7796,-1.5217 -29.9033,1.47386 z"
     id="path233171" /><path
     style="fill:#959595;fill-opacity:1;stroke:none;stroke-width:1px;stroke-linecap:butt;stroke-linejoin:miter;stroke-opacity:1"
     d="m -1483.1913,284.12706 68.5929,-2.52091 -7.9252,-1.55018 -56.1173,2.2275 z"
     id="path233173" /><path
     style="fill:#959595;fill-opacity:1;stroke:none;stroke-width:1px;stroke-linecap:butt;stroke-linejoin:miter;stroke-opacity:1"
     d="m -1401.535,284.16137 -7.2923,-1.42637 -80.593,3.91571 -3.7477,1.51838 z"
     id="path233175" /><path
     style="fill:#959595;fill-opacity:1;stroke:none;stroke-width:1px;stroke-linecap:butt;stroke-linejoin:miter;stroke-opacity:1"
     d="m -1386.8493,287.03393 -116.8716,5.41062 3.5346,-1.43204 105.7596,-5.46073 z"
     id="path233177" /><path
     style="fill:#959595;fill-opacity:1;stroke:none;stroke-width:1px;stroke-linecap:butt;stroke-linejoin:miter;stroke-opacity:1"
     d="m -1510.7005,295.27234 -3.5994,1.45827 145.1599,-6.23269 -8.4839,-1.65947 z"
     id="path233179" /><path
     style="fill:#959595;fill-opacity:1;stroke:none;stroke-width:1px;stroke-linecap:butt;stroke-linejoin:miter;stroke-opacity:1"
     d="m -1521.5987,299.68771 159.6792,-7.77745 6.1991,1.21256 -168.9789,7.82107 z"
     id="path233181" /><path
     style="fill:#959595;fill-opacity:1;stroke:none;stroke-width:1px;stroke-linecap:butt;stroke-linejoin:miter;stroke-opacity:1"
     d="m -1532.3746,303.79544 -3.4408,1.65213 191.6458,-9.51146 -6.1839,-1.62612 z"
     id="path233183" /><path
     style="fill:#959595;fill-opacity:1;stroke:none;stroke-width:1px;stroke-linecap:butt;stroke-linejoin:miter;stroke-opacity:1"
     d="m -1547.632,310.23502 213.8132,-10.34502 -3.9429,-1.89395 -206.588,10.90914 z"
     id="path233185" /><path
     style="fill:#959595;fill-opacity:1;stroke:none;stroke-width:1px;stroke-linecap:butt;stroke-linejoin:miter;stroke-opacity:1"
     d="m -1331.6568,301.79388 -180.4308,9.28269 -0.051,1.7245 181.0804,-9.02641 z"
     id="path233187" /><path
     style="fill:#959595;fill-opacity:1;stroke:none;stroke-width:1px;stroke-linecap:butt;stroke-linejoin:miter;stroke-opacity:1"
     d="m -1542.6644,316.0962 210.6412,-10.13735 45.9971,17.56261 -0.8211,2.56103 -46.9139,-18.42279 -203.5933,9.5073 z"
     id="path233189" /><path
     style="fill:#959595;fill-opacity:1;stroke:none;stroke-width:1px;stroke-linecap:butt;stroke-linejoin:miter;stroke-opacity:1"
     d="m -1526.7542,319.30459 190.273,-9.79529 48.5088,18.29948 -1.2245,1.32042 -49.2158,-18.54458 -182.7598,9.84555 z"
     id="path233191" /><path
     style="fill:#959595;fill-opacity:1;stroke:none;stroke-width:1px;stroke-linecap:butt;stroke-linejoin:miter;stroke-opacity:1"
     d="m -1510.8063,322.52059 167.2945,-8.7773 51.7221,17.32928 -2.2895,1.44326 -51.9243,-17.28372 -160.2029,8.21606 z"
     id="path233193" /><path
     style="fill:#959595;fill-opacity:1;stroke:none;stroke-width:1px;stroke-linecap:butt;stroke-linejoin:miter;stroke-opacity:1"
     d="m -1494.2464,325.85999 143.8799,-8.09598 53.4041,16.56093 -2.8148,1.75078 -53.727,-16.54288 -135.6793,7.34812 z"
     id="path233195" /><path
     style="fill:#959595;fill-opacity:1;stroke:none;stroke-width:1px;stroke-linecap:butt;stroke-linejoin:miter;stroke-opacity:1"
     d="m -1477.6234,329.21212 119.0942,-6.92345 55.2237,15.95771 -3.8773,2.35397 -54.3749,-16.68966 -110.496,6.42459 z"
     id="path233197" /><path
     style="fill:#959595;fill-opacity:1;stroke:none;stroke-width:1px;stroke-linecap:butt;stroke-linejoin:miter;stroke-opacity:1"
     d="m -1461.0523,332.55379 93.5792,-5.54178 56.0881,16.10275 -4.1736,2.45988 -55.7532,-16.58698 -84.3212,4.65897 z"
     id="path233199" /><path
     style="fill:#959595;fill-opacity:1;stroke:none;stroke-width:1px;stroke-linecap:butt;stroke-linejoin:miter;stroke-opacity:1"
     d="m -1445.0404,335.78269 68.7545,-4.26458 57.5097,15.92779 -3.3403,1.91981 -57.6792,-16.0748 -59.6195,3.62614 z"
     id="path233201" /><path
     style="fill:#959595;fill-opacity:1;stroke:none;stroke-width:1px;stroke-linecap:butt;stroke-linejoin:miter;stroke-opacity:1"
     d="m -1428.1924,339.18019 42.5617,-2.94974 57.0944,16.76023 -3.8172,2.11537 -57.6273,-16.67849 -32.7454,1.85492 z"
     id="path233203" /><path
     style="fill:#959595;fill-opacity:1;stroke:none;stroke-width:1px;stroke-linecap:butt;stroke-linejoin:miter;stroke-opacity:1"
     d="m -1411.8312,342.47953 16.4714,-1.31237 57.9072,16.71842 -4.2495,2.276 -57.7431,-16.88598 -7.5724,0.17463 z"
     id="path233205" /><path
     style="fill:#959595;fill-opacity:1;stroke:none;stroke-width:1px;stroke-linecap:butt;stroke-linejoin:miter;stroke-opacity:1"
     d="m -1331.0585,303.77466 44.6642,16.29647 -2.4184,-3.71961 -42.8441,-14.55764 z"
     id="path233207" /></g><path
   id="ellipse934"
   style="fill:none;fill-opacity:1;stroke:#000000;stroke-width:3.4853;stroke-miterlimit:1.41421;stroke-dasharray:none;stroke-opacity:1"
   d="m 594.79428,14.529576 c -4.3264,-0.0072 -8.5638,0.06977 -12.7519,0.201172 l -0.01,-0.01563 -7.6777,0.322265 0.018,0.0293 c -4.6862,0.246802 -9.3223,0.562124 -13.8887,0.988282 v -0.0078 l -7.9395,0.835937 0.02,0.0293 c -4.304,0.50574 -8.5858,1.06788 -12.8379,1.736329 v -0.0039 l -0.1445,0.02539 c -0.5329,0.08401 -1.0633,0.186873 -1.5957,0.273437 l -7.3477,1.257813 0.014,0.02148 c -3.8859,0.719486 -7.7708,1.495402 -11.6621,2.351563 l -0.01,-0.0098 -0.4277,0.09961 c -0.5474,0.121142 -1.0986,0.255063 -1.6465,0.378907 l -5.5,1.269531 0.019,0.0332 c -4.6909,1.133231 -9.4017,2.332364 -14.1679,3.662109 v -0.0059 l -0.3399,0.09766 c -0.2156,0.06034 -0.4345,0.124804 -0.6504,0.185547 l -5.2304,1.5 C 404.19718,49.380921 125.16218,134.22354 135.31408,178.03538 l 5.3613,737.54882 c 0.1277,19.74579 3.7188,24.37232 14.6797,33.30079 71.3245,58.09871 380.4748,149.03971 529.41213,167.33001 -0.0129,0.085 -0.0247,0.1693 -0.0352,0.254 9.3e-4,10.4944 18.3323,19.0016 40.94531,19.0019 22.35684,-0.01 40.56533,-8.3386 40.90625,-18.7129 104.76048,-21.6215 372.94933,-179.72503 372.86723,-246.83786 l 5.5097,-735.15234 c -2.1756,-24.00997 -66.419,-29.78946 -107.9238,-42.248047 -3.2359,-1.251059 -6.91,-2.366452 -10.6699,-3.429687 -0.2448,-0.09233 -0.5587,-0.164678 -0.8008,-0.257813 l -3.5332,-0.929687 c -3.9372,-1.045607 -7.8545,-2.048273 -11.4297,-2.990235 l -5.752,-1.125 -11.11909,-2.173828 -12.94922,-2.533203 -15.21484,-2.976562 -16.54493,-3.236328 -13.58789,-2.658204 -12.74804,-2.49414 h -0.002 l -13.07617,-2.556641 -10.34961,-2.025391 -14.21289,-2.779296 -15.50391,-3.033204 -13.95117,-2.728515 -31.76757,-6.214844 -16.22071,-3.386719 0.0391,0.05664 c -5.93489,-1.229493 -11.88634,-2.46263 -17.57031,-3.617187 l -0.0332,-0.04492 -9.97656,-2.015625 0.002,0.0039 c -6.05992,-1.21493 -11.47305,-2.220164 -17.25391,-3.345703 l -0.0625,-0.08203 -8.29101,-1.603515 0.0488,0.07617 c -6.79954,-1.30244 -13.58427,-2.590485 -20.01172,-3.763672 l -0.0449,-0.06055 -8.14063,-1.46875 0.0684,0.09766 c -5.51825,-0.982598 -11.17164,-2.013781 -16.42773,-2.896484 l -0.0273,-0.04102 -3.00195,-0.492187 c -0.61869,-0.102643 -1.23445,-0.203453 -1.84961,-0.304688 l -6.38086,-1.046875 0.0606,0.08594 c -5.4881,-0.87575 -10.81165,-1.680357 -16.02735,-2.439453 l -0.0664,-0.09766 -7.61719,-1.070312 c -0.51898,-0.07166 -1.0559,-0.15025 -1.57227,-0.220703 l -1.45507,-0.205078 0.0137,0.01758 c -5.02582,-0.677744 -9.93074,-1.297343 -14.72075,-1.859375 l -0.012,-0.01758 -10.3808,-1.146485 0.01,0.01367 c -4.9047,-0.50546 -9.7117,-0.956238 -14.3926,-1.332031 v -0.0059 l -0.3184,-0.02344 c -0.3519,-0.02806 -0.6903,-0.04689 -1.041,-0.07422 l -8.2871,-0.59375 0.022,0.0332 c -5.5602,-0.349305 -11.0254,-0.634039 -16.3164,-0.789062 v -0.002 l -7.3164,-0.154297 0.025,0.03906 c -1.4903,-0.01851 -3.0181,-0.06786 -4.4903,-0.07031 z"
   sodipodi:nodetypes="scccccccccccccccccccccccccccscccccccccccccccccccccccccccccccccccccccccccccccccccccccccccccccccs" /></svg>
