<?xml version="1.0" encoding="UTF-8"?>
<svg version="1.1" viewBox="0 0 514 514" xmlns="http://www.w3.org/2000/svg" xmlns:cc="http://creativecommons.org/ns#" xmlns:dc="http://purl.org/dc/elements/1.1/" xmlns:rdf="http://www.w3.org/1999/02/22-rdf-syntax-ns#">
 <metadata>
  <rdf:RDF>
   <cc:Work rdf:about="">
    <dc:format>image/svg+xml</dc:format>
    <dc:type rdf:resource="http://purl.org/dc/dcmitype/StillImage"/>
    <dc:title/>
    <cc:license rdf:resource="http://creativecommons.org/licenses/by-nc-sa/4.0/"/>
    <dc:creator>
     <cc:Agent>
      <dc:title>Jan Alexander</dc:title>
     </cc:Agent>
    </dc:creator>
   </cc:Work>
   <cc:License rdf:about="http://creativecommons.org/licenses/by-nc-sa/4.0/">
    <cc:permits rdf:resource="http://creativecommons.org/ns#Reproduction"/>
    <cc:permits rdf:resource="http://creativecommons.org/ns#Distribution"/>
    <cc:requires rdf:resource="http://creativecommons.org/ns#Notice"/>
    <cc:requires rdf:resource="http://creativecommons.org/ns#Attribution"/>
    <cc:prohibits rdf:resource="http://creativecommons.org/ns#CommercialUse"/>
    <cc:permits rdf:resource="http://creativecommons.org/ns#DerivativeWorks"/>
    <cc:requires rdf:resource="http://creativecommons.org/ns#ShareAlike"/>
   </cc:License>
  </rdf:RDF>
 </metadata>
 <g>
  <g>
   <path d="m383.23 185.22c-0.72446-10.122-2.2639-20.196-4.5823-30.04-2.4422-4.8804-4.7999-10.68-10.594-12.231-8.9285-3.1687-17.645-7.1137-26.707-9.7937-12.591-2.9566-25.541-1.6702-38.344-1.9362-43.427 0.0891-86.869-0.17816-130.29 0.13358-6.0482 0.6069-12.296 0.33184-17.822 3.2502-7.1429 2.8523-14.61 5.1987-21.553 8.3628-4.8143 4.4106-6.3315 11.193-8.6699 17.059-1.7579 8.7058-0.6259 17.64-0.94536 26.459 86.501-0.42099 173-0.84198 259.5-1.263z" fill="#f2f2f2" stroke="#666" stroke-width="1px"/>
   <rect x="123.5" y="157.5" width="260" height="350" ry="32" fill="#f2f2f2" stroke="#666"/>
   <rect x="319.31" y="197.98" width="7" height="12" ry="3.4834" fill="#0f0"/>
  </g>
  <g transform="translate(.5)" fill="#666">
   <rect transform="translate(-280 -280)" x="449" y="688" width="2" height="8"/>
   <rect transform="translate(-280 -280)" x="453" y="685" width="2" height="11"/>
   <rect x="165" y="411" width="2" height="5"/>
  </g>
  <rect transform="translate(-280 -280)" x="441.5" y="596.5" width="18" height="111" ry="9" fill="none" stroke="#666"/>
  <g fill="#0f0">
   <rect transform="translate(-280 -280)" x="448" y="610.25" width="5" height="16" ry="2.5"/>
   <rect transform="translate(-280 -280)" x="448" y="633.69" width="5" height="16" ry="2.5"/>
   <rect transform="translate(-280 -280)" x="448" y="657.51" width="5" height="16" ry="2.5"/>
  </g>
  <circle cx="323.5" cy="253.5" r="23" fill="none" stroke="#666"/>
  <g transform="translate(.81412 .3341)" fill="#666">
   <path d="m321.87 244.36c-0.90312 0.17275-1.7629 0.50977-2.6186 0.83264-0.73018 0.46725-1.4722 0.91851-2.105 1.5171-0.83077 0.63356-1.4857 1.4517-2.2066 2.2006-0.24345 0.42884-0.53912 0.83982-0.75112 1.2794-0.13329 1.1082-0.27685 2.2157-0.27633 3.3339 0.0114 1.1266 0.0556 2.2533 0.0797 3.3799-0.90048-0.14817-1.801-0.29633-2.7014-0.4445 0.46176 0.94613 1.1152 1.7748 1.7246 2.6272 0.5453 0.63958 1.0436 1.3249 1.7142 1.8426 0.36829 0.34654 0.74574 0.67986 1.2189 0.87511 0.72047 0.43054 1.5104 0.70922 2.29 1.0103l0.84246-0.0564c0.34637-0.84326 0.76853-1.6511 1.1849-2.4598 0.38294-1.1002 0.69742-2.2217 1.0213-3.3393 0.19431-0.52458 0.38861-1.0492 0.58291-1.5737-1.0199 0.40193-2.0399 0.80387-3.0598 1.2058-0.16143-1.0728-0.39015-2.1398-0.49424-3.2186-0.0527-0.92721-9e-3 -1.861 0.0704-2.7822 0.36472-0.89066 0.60656-1.8522 1.1803-2.6386 0.55498-0.32014 0.68415-0.99161 1.1542-1.3961 0.29694-0.26867 0.49448-0.60123 0.62239-0.97852 0.17556-0.40559 0.35113-0.81118 0.52669-1.2168z"/>
   <path d="m323.5 261.98c0.90312-0.17275 1.7629-0.50977 2.6186-0.83264 0.73018-0.46725 1.4722-0.91851 2.105-1.5171 0.83077-0.63356 1.4857-1.4517 2.2066-2.2006 0.24345-0.42884 0.53912-0.83982 0.75112-1.2794 0.13329-1.1082 0.27685-2.2157 0.27633-3.3339-0.0114-1.1266-0.0556-2.2533-0.0797-3.3799 0.90048 0.14817 1.801 0.29633 2.7014 0.4445-0.46176-0.94613-1.1152-1.7748-1.7246-2.6272-0.5453-0.63958-1.0436-1.3249-1.7142-1.8426-0.36829-0.34654-0.74574-0.67986-1.2189-0.87511-0.72047-0.43054-1.5104-0.70922-2.29-1.0103l-0.84246 0.0564c-0.34637 0.84326-0.76853 1.6511-1.1849 2.4598-0.38294 1.1002-0.69742 2.2217-1.0213 3.3393-0.19431 0.52458-0.38861 1.0492-0.58291 1.5737 1.0199-0.40193 2.0399-0.80387 3.0598-1.2058 0.16143 1.0728 0.39015 2.1398 0.49424 3.2186 0.0527 0.92721 9e-3 1.861-0.0704 2.7822-0.36472 0.89066-0.60656 1.8522-1.1803 2.6386-0.55498 0.32014-0.68415 0.99161-1.1542 1.3961-0.29694 0.26867-0.49448 0.60123-0.62239 0.97852-0.17556 0.40559-0.35113 0.81118-0.52669 1.2168z"/>
  </g>
  <g stroke="#666">
   <rect transform="translate(-280 -280)" x="430.47" y="416.43" width="22.395" height="13.537" fill="none"/>
   <g stroke-width="1px">
    <path transform="translate(-280 -280)" d="m309.54 293.79 2.339-9.417 140.99 137.91v7.6758h-6.3149z" fill="#f2f2f2"/>
    <path transform="translate(-280 -280)" d="m418.23 429.96-103.33-102.64-1.8112-3.4086-3.5511-30.121 137.01 136.17z" fill="#f2f2f2"/>
    <path transform="translate(-280 -280)" d="m311.62 311.89 118.85 118.07" fill="none"/>
    <path transform="translate(-280 -280)" d="m344.72 344.35 7.948-7.9073 1.9205-10.551h0.0992l0.10684 0.2353" fill="none"/>
   </g>
  </g>
  <g transform="matrix(-1 0 0 1 504.5 3.2556e-6)" stroke="#666">
   <rect transform="translate(-280 -280)" x="430.47" y="416.43" width="22.395" height="13.537" fill="none"/>
   <g stroke-width="1px">
    <path transform="translate(-280 -280)" d="m309.54 293.79 2.339-9.417 140.99 137.91v7.6758h-6.3149z" fill="#f2f2f2"/>
    <path transform="translate(-280 -280)" d="m418.23 429.96-103.33-102.64-1.8112-3.4086-3.5511-30.121 137.01 136.17z" fill="#f2f2f2"/>
    <path transform="translate(-280 -280)" d="m311.62 311.89 118.85 118.07" fill="none"/>
    <path transform="translate(-280 -280)" d="m344.72 344.35 7.948-7.9073 1.9205-10.551h0.0992l0.10684 0.2353" fill="none"/>
   </g>
  </g>
 </g>
</svg>
