<?xml version="1.0" encoding="UTF-8" standalone="no"?>
<svg
   width="100%"
   height="100%"
   viewBox="0 0 1280 1150"
   version="1.1"
   xml:space="preserve"
   style="fill-rule:evenodd;clip-rule:evenodd;stroke-linecap:round;stroke-linejoin:round;stroke-miterlimit:1.41421;"
   id="svg37"
   sodipodi:docname="d-link-dap-x1860-a1.svg"
   inkscape:version="1.2.2 (1:1.2.2+202305151914+b0a8486541)"
   xmlns:inkscape="http://www.inkscape.org/namespaces/inkscape"
   xmlns:sodipodi="http://sodipodi.sourceforge.net/DTD/sodipodi-0.dtd"
   xmlns:xlink="http://www.w3.org/1999/xlink"
   xmlns="http://www.w3.org/2000/svg"
   xmlns:svg="http://www.w3.org/2000/svg"><defs
   id="defs41"><linearGradient
     inkscape:collect="always"
     id="linearGradient4169"><stop
       style="stop-color:#ffffff;stop-opacity:1;"
       offset="0"
       id="stop4165" /><stop
       style="stop-color:#e6e6e5;stop-opacity:1;"
       offset="1"
       id="stop4167" /></linearGradient><radialGradient
     inkscape:collect="always"
     xlink:href="#linearGradient4169"
     id="radialGradient4171"
     cx="639.47858"
     cy="573.86487"
     fx="639.47858"
     fy="573.86487"
     r="245.18481"
     gradientTransform="matrix(0.87645598,-0.0789945,0.2066358,2.2926557,86.45203,-691.29447)"
     gradientUnits="userSpaceOnUse" /></defs><sodipodi:namedview
   id="namedview39"
   pagecolor="#ffffff"
   bordercolor="#666666"
   borderopacity="1.0"
   inkscape:showpageshadow="2"
   inkscape:pageopacity="0.0"
   inkscape:pagecheckerboard="0"
   inkscape:deskcolor="#d1d1d1"
   showgrid="false"
   inkscape:zoom="0.41043478"
   inkscape:cx="1340.0424"
   inkscape:cy="421.50424"
   inkscape:window-width="2560"
   inkscape:window-height="1372"
   inkscape:window-x="2560"
   inkscape:window-y="0"
   inkscape:window-maximized="0"
   inkscape:current-layer="svg37" />
    
<g
   id="g20038"
   transform="translate(-107.06939,1.1345806)"><path
     style="fill:#898989;fill-opacity:1;stroke:none;stroke-width:1px;stroke-linecap:butt;stroke-linejoin:miter;stroke-opacity:1"
     d="m 502.35213,996.96804 c 3.2006,23.00086 12.5586,36.09576 23.3217,46.92996 l 115.0888,67.8353 -41.9913,-64.4155 z"
     id="path2101"
     sodipodi:nodetypes="ccccc" /><path
     style="fill:#edeced;fill-opacity:1;stroke:none;stroke-width:1px;stroke-linecap:butt;stroke-linejoin:miter;stroke-opacity:1"
     d="M 487.06093,156.54165 C 477.54703,48.82269 639.49343,26.888799 639.49343,26.888799 L 510.87173,143.86493 Z"
     id="path7489"
     sodipodi:nodetypes="cccc" /><path
     style="fill:#c3c3c2;fill-opacity:1;stroke:none;stroke-width:1px;stroke-linecap:butt;stroke-linejoin:miter;stroke-opacity:1"
     d="m 484.05023,732.47554 53.053,-47.47214 -50.0423,-528.46175 23.8108,-12.67672 87.8996,903.45287 -96.4192,-50.34976 z"
     id="path483" /><path
     style="fill:#cac9c9;fill-opacity:1;stroke:none;stroke-width:1px;stroke-linecap:butt;stroke-linejoin:miter;stroke-opacity:1"
     d="m 484.05023,732.47554 53.053,-47.47214 -4.9678,-52.46078 c -52.808,42.2377 -46.9119,70.2274 -48.0852,99.93292 z"
     id="path485"
     sodipodi:nodetypes="cccc" /><path
     style="fill:#bdbdbd;fill-opacity:1;stroke:none;stroke-width:1px;stroke-linecap:butt;stroke-linejoin:miter;stroke-opacity:1"
     d="m 639.49343,26.888799 c -62.3369,12.380038 -113.5445,39.977173 -128.6217,116.976131 l 87.8996,903.45287 c 8.8909,48.1525 52.7186,83.4585 111.8733,90.4496 l -105.207,-94.4771 -84.5567,-880.45451 z"
     id="path2099"
     sodipodi:nodetypes="ccccccc" /><path
     style="fill:url(#radialGradient4171);fill-opacity:1;stroke:none;stroke-width:1px;stroke-linecap:butt;stroke-linejoin:miter;stroke-opacity:1"
     d="m 520.88093,162.83579 84.5567,880.45451 c 8.4372,52.1105 61.9347,90.5492 105.207,94.4771 l 51.0601,-0.8913 c 47.0041,-0.8096 145.6272,-13.8101 216.8944,-61.234 40.41527,-26.8939 32.28407,-94.84901 27.64357,-178.36549 L 948.06453,125.54901 C 940.90233,36.933263 910.73363,10.503451 800.86823,9.9620222 l -77.1415,2.9356928 c -133.0054,9.251452 -205.2468,63.30878 -202.8458,149.938075 z"
     id="path536"
     sodipodi:nodetypes="ccccsccccc" /><path
     style="fill:#404040;fill-opacity:1;stroke:none;stroke-width:1px;stroke-linecap:butt;stroke-linejoin:miter;stroke-opacity:1"
     d="m 500.73933,194.53404 10.6248,21.18938 c 2.1783,4.0437 -1.3682,5.52518 -2.8185,3.39445 l -10.7645,-20.44126 c -2.3535,-4.15737 1.3309,-6.22044 2.9582,-4.14257 z"
     id="path2103"
     sodipodi:nodetypes="ccccc" /><path
     style="fill:#404040;fill-opacity:1;stroke:none;stroke-width:1px;stroke-linecap:butt;stroke-linejoin:miter;stroke-opacity:1"
     d="m 504.04253,224.23858 10.6248,21.18938 c 2.1782,4.0437 -1.3683,5.52518 -2.8186,3.39445 l -10.7645,-20.44126 c -2.3534,-4.15737 1.3309,-6.22044 2.9583,-4.14257 z"
     id="path3347"
     sodipodi:nodetypes="ccccc" /><path
     style="fill:#404040;fill-opacity:1;stroke:none;stroke-width:1px;stroke-linecap:butt;stroke-linejoin:miter;stroke-opacity:1"
     d="m 506.86073,253.1604 10.6248,21.18938 c 2.1783,4.0437 -1.3682,5.52518 -2.8185,3.39445 l -10.7645,-20.44126 c -2.3534,-4.15737 1.3309,-6.22044 2.9582,-4.14257 z"
     id="path3349"
     sodipodi:nodetypes="ccccc" /><path
     style="fill:#404040;fill-opacity:1;stroke:none;stroke-width:1px;stroke-linecap:butt;stroke-linejoin:miter;stroke-opacity:1"
     d="m 509.64313,281.80226 10.6248,21.18938 c 2.1782,4.0437 -1.3683,5.52518 -2.8185,3.39445 l -10.7646,-20.44126 c -2.3534,-4.15737 1.3309,-6.22044 2.9583,-4.14257 z"
     id="path3351"
     sodipodi:nodetypes="ccccc" /><path
     style="fill:#404040;fill-opacity:1;stroke:none;stroke-width:1px;stroke-linecap:butt;stroke-linejoin:miter;stroke-opacity:1"
     d="m 512.53813,309.15226 10.6248,21.18938 c 2.1782,4.0437 -1.3683,5.52518 -2.8185,3.39445 l -10.7646,-20.44126 c -2.3534,-4.15737 1.3309,-6.22044 2.9583,-4.14257 z"
     id="path3353"
     sodipodi:nodetypes="ccccc" /><path
     style="fill:#404040;fill-opacity:1;stroke:none;stroke-width:1px;stroke-linecap:butt;stroke-linejoin:miter;stroke-opacity:1"
     d="m 514.57933,337.23146 10.6248,21.18938 c 2.1782,4.0437 -1.3683,5.52518 -2.8185,3.39445 l -10.7646,-20.44126 c -2.3534,-4.15737 1.3309,-6.22044 2.9583,-4.14257 z"
     id="path3355"
     sodipodi:nodetypes="ccccc" /><path
     style="fill:#404040;fill-opacity:1;stroke:none;stroke-width:1px;stroke-linecap:butt;stroke-linejoin:miter;stroke-opacity:1"
     d="m 518.33563,366.46493 10.6248,21.18938 c 2.1783,4.0437 -1.3682,5.52518 -2.8185,3.39445 l -10.7645,-20.44126 c -2.3534,-4.15737 1.3309,-6.22044 2.9582,-4.14257 z"
     id="path3357"
     sodipodi:nodetypes="ccccc" /><path
     style="fill:#404040;fill-opacity:1;stroke:none;stroke-width:1px;stroke-linecap:butt;stroke-linejoin:miter;stroke-opacity:1"
     d="m 521.17993,393.81493 10.6248,21.18938 c 2.1783,4.0437 -1.3682,5.52518 -2.8185,3.39445 l -10.7645,-20.44126 c -2.3535,-4.15737 1.3309,-6.22044 2.9582,-4.14257 z"
     id="path3359"
     sodipodi:nodetypes="ccccc" /><path
     style="fill:#404040;fill-opacity:1;stroke:none;stroke-width:1px;stroke-linecap:butt;stroke-linejoin:miter;stroke-opacity:1"
     d="m 523.00363,421.16493 10.6248,21.18938 c 2.1783,4.0437 -1.3682,5.52518 -2.8185,3.39445 l -10.7645,-20.44126 c -2.3535,-4.15737 1.3309,-6.22044 2.9582,-4.14257 z"
     id="path3361"
     sodipodi:nodetypes="ccccc" /><path
     style="fill:#404040;fill-opacity:1;stroke:none;stroke-width:1px;stroke-linecap:butt;stroke-linejoin:miter;stroke-opacity:1"
     d="m 526.91223,450.47683 10.6248,21.18938 c 2.1782,4.0437 -1.3683,5.52518 -2.8186,3.39445 l -10.7645,-20.44126 c -2.3534,-4.15737 1.3309,-6.22044 2.9583,-4.14257 z"
     id="path3363"
     sodipodi:nodetypes="ccccc" /><path
     style="fill:#404040;fill-opacity:1;stroke:none;stroke-width:1px;stroke-linecap:butt;stroke-linejoin:miter;stroke-opacity:1"
     d="m 529.36793,477.82683 10.6248,21.18938 c 2.1782,4.0437 -1.3683,5.52518 -2.8185,3.39445 l -10.7646,-20.44126 c -2.3534,-4.15737 1.331,-6.22044 2.9583,-4.14257 z"
     id="path3365"
     sodipodi:nodetypes="ccccc" /><path
     style="fill:#404040;fill-opacity:1;stroke:none;stroke-width:1px;stroke-linecap:butt;stroke-linejoin:miter;stroke-opacity:1"
     d="m 531.01723,505.17683 10.6248,21.18938 c 2.1783,4.0437 -1.3682,5.52518 -2.8185,3.39445 l -10.7645,-20.44126 c -2.3534,-4.15737 1.3309,-6.22044 2.9582,-4.14257 z"
     id="path3367"
     sodipodi:nodetypes="ccccc" /><path
     style="fill:#404040;fill-opacity:1;stroke:none;stroke-width:1px;stroke-linecap:butt;stroke-linejoin:miter;stroke-opacity:1"
     d="m 534.36063,534.3152 10.6248,21.18938 c 2.1782,4.0437 -1.3683,5.52518 -2.8185,3.39445 l -10.7646,-20.44126 c -2.3534,-4.15737 1.331,-6.22044 2.9583,-4.14257 z"
     id="path3369"
     sodipodi:nodetypes="ccccc" /><path
     style="fill:#404040;fill-opacity:1;stroke:none;stroke-width:1px;stroke-linecap:butt;stroke-linejoin:miter;stroke-opacity:1"
     d="m 537.07683,561.6652 10.6248,21.18938 c 2.1782,4.0437 -1.3683,5.52518 -2.8186,3.39445 l -10.7645,-20.44126 c -2.3534,-4.15737 1.3309,-6.22044 2.9583,-4.14257 z"
     id="path3371"
     sodipodi:nodetypes="ccccc" /><path
     style="fill:#404040;fill-opacity:1;stroke:none;stroke-width:1px;stroke-linecap:butt;stroke-linejoin:miter;stroke-opacity:1"
     d="m 539.67163,590.15907 10.6248,21.18938 c 2.1783,4.0437 -1.3682,5.52518 -2.8185,3.39445 l -10.7645,-20.44126 c -2.3535,-4.15737 1.3309,-6.22044 2.9582,-4.14257 z"
     id="path3373"
     sodipodi:nodetypes="ccccc" /><path
     style="fill:#404040;fill-opacity:1;stroke:none;stroke-width:1px;stroke-linecap:butt;stroke-linejoin:miter;stroke-opacity:1"
     d="m 542.75103,617.50907 10.6248,21.18938 c 2.1782,4.0437 -1.3683,5.52518 -2.8186,3.39445 l -10.7645,-20.44126 c -2.3534,-4.15737 1.3309,-6.22044 2.9583,-4.14257 z"
     id="path3375"
     sodipodi:nodetypes="ccccc" /><path
     style="fill:#404040;fill-opacity:1;stroke:none;stroke-width:1px;stroke-linecap:butt;stroke-linejoin:miter;stroke-opacity:1"
     d="m 546.23513,644.85907 10.6248,21.18938 c 2.1782,4.0437 -1.3683,5.52518 -2.8185,3.39445 l -10.7646,-20.44126 c -2.3534,-4.15737 1.3309,-6.22044 2.9583,-4.14257 z"
     id="path3377"
     sodipodi:nodetypes="ccccc" /><path
     style="fill:#404040;fill-opacity:1;stroke:none;stroke-width:1px;stroke-linecap:butt;stroke-linejoin:miter;stroke-opacity:1"
     d="m 548.20843,672.20907 10.6248,21.18938 c 2.1782,4.0437 -1.3683,5.52518 -2.8185,3.39445 l -10.7646,-20.44126 c -2.3534,-4.15737 1.3309,-6.22044 2.9583,-4.14257 z"
     id="path3379"
     sodipodi:nodetypes="ccccc" /><path
     style="fill:#74c043;fill-opacity:1;stroke:none;stroke-width:1px;stroke-linecap:butt;stroke-linejoin:miter;stroke-opacity:1"
     d="m 569.75033,115.24534 c -6.163,11.07078 5.3188,17.09456 11.1713,7.05965 7.1762,-16.16223 18.6946,-27.482044 31.9383,-36.877604 7.5808,-7.029717 -2.8059,-14.813618 -10.2809,-9.147731 -15.2802,10.309543 -25.3163,23.858235 -32.8287,38.965685 z"
     id="path538"
     sodipodi:nodetypes="ccccc" /><path
     style="fill:#74c043;fill-opacity:1;stroke:none;stroke-width:0.742042px;stroke-linecap:butt;stroke-linejoin:miter;stroke-opacity:1"
     d="m 590.73613,124.22255 c -4.5732,8.21498 5.6673,13.61296 10.01,6.16664 5.3251,-11.99306 11.8522,-19.18279 21.6797,-26.1547 5.6252,-5.21635 -1.7826,-13.130466 -7.3294,-8.926137 -11.3385,7.650127 -18.7857,17.703827 -24.3603,28.914197 z"
     id="path540"
     sodipodi:nodetypes="ccccc" /><path
     style="fill:#74c043;fill-opacity:1;stroke:none;stroke-width:0.488992px;stroke-linecap:butt;stroke-linejoin:miter;stroke-opacity:1"
     d="m 610.35813,133.35643 c -3.0137,5.41353 7.1798,10.72533 10.0416,5.81834 3.5091,-7.9032 6.2081,-11.45393 12.6843,-16.04829 3.7069,-3.43747 -2.9061,-11.27274 -6.5613,-8.50216 -7.4719,5.04129 -12.4911,11.34469 -16.1646,18.73211 z"
     id="path542"
     sodipodi:nodetypes="ccccc" /><path
     style="fill:#74c043;fill-opacity:1;stroke:none;stroke-width:1px;stroke-linecap:butt;stroke-linejoin:miter;stroke-opacity:1"
     d="m 847.75283,962.13671 8.8689,-0.83539 c 4.5731,-0.17364 4.767,9.69425 -0.026,9.72064 l -8.3335,0.68039 c -5.9801,-0.10179 -6.2845,-9.29317 -0.5089,-9.56564 z"
     id="path648"
     sodipodi:nodetypes="ccccc" /><ellipse
     style="fill:#303030;fill-opacity:1;stroke:none;stroke-width:1.60177;stroke-linecap:square;stroke-miterlimit:0;stroke-dashoffset:262.44"
     id="path10165"
     cx="460.16116"
     cy="825.80341"
     rx="3.4090781"
     ry="6.8149896"
     transform="rotate(-6.2623984)" /><ellipse
     style="fill:#49494a;fill-opacity:1;stroke:none;stroke-width:1.74311;stroke-linecap:square;stroke-miterlimit:0;stroke-dashoffset:262.44"
     id="path11116"
     cx="414.2724"
     cy="902.60529"
     rx="12.801835"
     ry="30.105942"
     transform="matrix(0.98989755,-0.14178451,0.16192684,0.98680277,0,0)" /><ellipse
     style="fill:#bab9b9;fill-opacity:1;stroke:none;stroke-width:1.49413;stroke-linecap:square;stroke-miterlimit:0;stroke-dashoffset:262.44"
     id="ellipse11118"
     cx="427.12585"
     cy="908.52026"
     rx="10.495319"
     ry="26.980633"
     transform="matrix(0.98786141,-0.15533778,0.1478251,0.98901352,0,0)" /><path
     style="fill:none;stroke:none;stroke-width:1px;stroke-linecap:butt;stroke-linejoin:miter;stroke-opacity:1"
     d="m 545.43363,879.17999 33.2985,8.29396 10.2448,99.79299 -35.617,-11.11524 z"
     id="path15538" /><path
     style="fill:#b7b7b7;fill-opacity:1;stroke:none;stroke-width:1px;stroke-linecap:butt;stroke-linejoin:miter;stroke-opacity:1"
     d="m 553.35993,976.1517 12.9053,-4.16178 21.7858,6.25799 0.9259,9.01903 z"
     id="path15540" /><path
     style="fill:#797979;fill-opacity:1;stroke:none;stroke-width:1px;stroke-linecap:butt;stroke-linejoin:miter;stroke-opacity:1"
     d="m 566.26523,971.98992 -7.4803,-89.48439 -13.3513,-3.32554 7.9263,96.97171 z"
     id="path15542" /><path
     style="fill:#5f5f5f;fill-opacity:1;stroke:none;stroke-width:1px;stroke-linecap:butt;stroke-linejoin:miter;stroke-opacity:1"
     d="m 578.73213,887.47395 9.3189,90.77396 -21.7858,-6.25799 -7.4803,-89.48439 z"
     id="path15544" /><path
     id="path19929"
     style="fill:none;fill-opacity:1;stroke:#000000;stroke-width:1px;stroke-linecap:butt;stroke-linejoin:miter;stroke-opacity:1"
     d="m 800.81537,9.9628906 -77.1407,2.9355474 c -31.6659,2.202588 -59.7731,7.019829 -84.3632,14.136718 l 0.1289,-0.146484 c 0,0 -161.9456,21.933491 -152.4317,129.652348 l 45.0742,476.00195 c -52.8079,42.23766 -46.9107,70.22615 -48.084,99.93164 l 18.3008,264.49414 c 3.2006,23.00085 12.5592,36.09545 23.3223,46.92965 l 115.0879,67.834 -0.1309,-0.2012 c 16.6098,12.1098 37.1965,20.7403 60.5371,24.8126 3.195,0.631 6.3667,1.1415 9.4766,1.4238 l 51.0605,-0.8906 c 47.0041,-0.8096 145.6274,-13.8106 216.8946,-61.2344 40.41513,-26.8939 32.28313,-94.84886 27.64263,-178.36526 L 948.01257,125.54883 C 940.85037,36.93317 910.68057,10.504319 800.81537,9.9628906 Z" /></g></svg>
