<?xml version="1.0" encoding="UTF-8"?>
<svg width="364" height="363" version="1.1" viewBox="0 0 295.93 363" xmlns="http://www.w3.org/2000/svg" xmlns:cc="http://creativecommons.org/ns#" xmlns:dc="http://purl.org/dc/elements/1.1/" xmlns:rdf="http://www.w3.org/1999/02/22-rdf-syntax-ns#">
 <metadata>
  <rdf:RDF>
   <cc:Work rdf:about="">
    <dc:format>image/svg+xml</dc:format>
    <dc:type rdf:resource="http://purl.org/dc/dcmitype/StillImage"/>
    <dc:title/>
    <cc:license rdf:resource="http://creativecommons.org/licenses/by-nc-sa/4.0/"/>
    <dc:creator>
     <cc:Agent>
      <dc:title>Jan Alexander</dc:title>
     </cc:Agent>
    </dc:creator>
   </cc:Work>
   <cc:License rdf:about="http://creativecommons.org/licenses/by-nc-sa/4.0/">
    <cc:permits rdf:resource="http://creativecommons.org/ns#Reproduction"/>
    <cc:permits rdf:resource="http://creativecommons.org/ns#Distribution"/>
    <cc:requires rdf:resource="http://creativecommons.org/ns#Notice"/>
    <cc:requires rdf:resource="http://creativecommons.org/ns#Attribution"/>
    <cc:prohibits rdf:resource="http://creativecommons.org/ns#CommercialUse"/>
    <cc:permits rdf:resource="http://creativecommons.org/ns#DerivativeWorks"/>
    <cc:requires rdf:resource="http://creativecommons.org/ns#ShareAlike"/>
   </cc:License>
  </rdf:RDF>
 </metadata>
 <g transform="translate(-12.033 18)" stroke="#666">
  <rect x="10.5" y="14.5" width="299" height="298" ry="11.894" fill="#f2f2f2"/>
  <circle transform="translate(-160.33 -291)" cx="320.96" cy="574.26" r="5" fill="#3578ff"/>
 </g>
 <g transform="translate(-12.033 18)" display="none" stroke="#666">
  <g transform="translate(-96.207)" display="inline">
   <g fill="#f2f2f2">
    <rect transform="translate(-160.33 -291)" x="316.9" y="603.6" width="16.347" height="13.905" ry="0" display="inline"/>
    <rect x="154.23" y="316" width="20.911" height="8.8102" ry="0" display="inline"/>
    <path transform="translate(-160.33 -291)" d="m316.9 617.51v17.944l5.4903 222.75h4.5195l6.3368-222.75 1e-5 -17.944z" display="inline" stroke-width="1px"/>
   </g>
   <rect transform="translate(-160.33 -291)" x="320.45" y="635.45" width="9.3619" height="7.1021" display="inline" fill="#ccc"/>
   <path transform="translate(-160.33 -291)" d="m320.78 646.11 1.6141 212.09h4.5195l2.5826-212.09z" display="inline" fill="none" stroke-width="1px"/>
  </g>
  <g transform="translate(90.928)" display="inline">
   <g fill="#f2f2f2">
    <rect transform="translate(-160.33 -291)" x="316.9" y="603.6" width="16.347" height="13.905" ry="0" display="inline"/>
    <rect x="154.23" y="316" width="20.911" height="8.8102" ry="0" display="inline"/>
    <path transform="translate(-160.33 -291)" d="m316.9 617.51v17.944l5.4903 222.75h4.5195l6.3368-222.75 1e-5 -17.944z" display="inline" stroke-width="1px"/>
   </g>
   <rect transform="translate(-160.33 -291)" x="320.45" y="635.45" width="9.3619" height="7.1021" display="inline" fill="#ccc"/>
   <path transform="translate(-160.33 -291)" d="m320.78 646.11 1.6141 212.09h4.5195l2.5826-212.09z" display="inline" fill="none" stroke-width="1px"/>
  </g>
 </g>
 <g transform="translate(-12.033 18)" display="none">
  <g stroke="#666">
   <g fill="#f2f2f2">
    <rect transform="translate(-160.33 -291)" x="316.9" y="603.6" width="16.347" height="13.905" ry="0" display="inline"/>
    <rect x="154.23" y="316" width="20.911" height="8.8102" ry="0" display="inline"/>
    <path transform="translate(-160.33 -291)" d="m316.9 617.51v17.944l5.4903 222.75h4.5195l6.3368-222.75 1e-5 -17.944z" display="inline" stroke-width="1px"/>
   </g>
   <rect transform="translate(-160.33 -291)" x="320.45" y="635.45" width="9.3619" height="7.1021" display="inline" fill="#ccc"/>
   <path transform="translate(-160.33 -291)" d="m320.78 646.11 1.6141 212.09h4.5195l2.5826-212.09z" display="inline" fill="none" stroke-width="1px"/>
  </g>
 </g>
</svg>
