<?xml version="1.0" encoding="UTF-8"?>
<svg width="605" height="805" version="1.1" viewBox="0 0 605 805" xmlns="http://www.w3.org/2000/svg" xmlns:cc="http://creativecommons.org/ns#" xmlns:dc="http://purl.org/dc/elements/1.1/" xmlns:rdf="http://www.w3.org/1999/02/22-rdf-syntax-ns#">
 <metadata>
  <rdf:RDF>
   <cc:Work rdf:about="">
    <dc:format>image/svg+xml</dc:format>
    <dc:type rdf:resource="http://purl.org/dc/dcmitype/StillImage"/>
    <dc:title/>
    <cc:license rdf:resource="http://creativecommons.org/licenses/by-nc-sa/4.0/"/>
    <dc:creator>
     <cc:Agent>
      <dc:title>Jan Alexander</dc:title>
     </cc:Agent>
    </dc:creator>
   </cc:Work>
   <cc:License rdf:about="http://creativecommons.org/licenses/by-nc-sa/4.0/">
    <cc:permits rdf:resource="http://creativecommons.org/ns#Reproduction"/>
    <cc:permits rdf:resource="http://creativecommons.org/ns#Distribution"/>
    <cc:requires rdf:resource="http://creativecommons.org/ns#Notice"/>
    <cc:requires rdf:resource="http://creativecommons.org/ns#Attribution"/>
    <cc:prohibits rdf:resource="http://creativecommons.org/ns#CommercialUse"/>
    <cc:permits rdf:resource="http://creativecommons.org/ns#DerivativeWorks"/>
    <cc:requires rdf:resource="http://creativecommons.org/ns#ShareAlike"/>
   </cc:License>
  </rdf:RDF>
 </metadata>
 <g transform="translate(-98.147 3.9461)" stroke="#666">
  <rect x="294.89" y="246.02" width="23.011" height="19.034" ry="0" fill="#666"/>
  <path d="m294.89 246.02v-21.023l-1.9886-9.9432v-180.25l7.1023-5.6338 11.67-8.0483 7.6482-4.2254v198.16l-1.4205 9.9432v21.023z" fill="#f2f2f2" stroke-width="1px"/>
  <path d="m292.99 195.73 8.8415-6.7073 8.5366-6.4024 8.5366-5.1829" fill="none" stroke-width="1px"/>
  <rect x="361.64" y="246.02" width="23.011" height="19.034" ry="0" fill="#666"/>
  <path d="m361.64 246.02v-21.023l-1.9886-9.9432v-180.25l7.1023-5.6338 11.67-8.0483 7.6482-4.2254v198.16l-1.4205 9.9432v21.023z" fill="#f2f2f2" stroke-width="1px"/>
  <path d="m359.74 195.73 8.8415-6.7073 8.5366-6.4024 8.5366-5.1829" fill="none" stroke-width="1px"/>
  <g transform="translate(56.747)">
   <rect x="361.64" y="246.02" width="23.011" height="19.034" ry="0" fill="#666"/>
   <path d="m361.64 246.02v-21.023l-1.9886-9.9432v-180.25l7.1023-5.6338 11.67-8.0483 7.6482-4.2254v198.16l-1.4205 9.9432v21.023z" fill="#f2f2f2" stroke-width="1px"/>
   <path d="m359.74 195.73 8.8415-6.7073 8.5366-6.4024 8.5366-5.1829" fill="none" stroke-width="1px"/>
  </g>
  <g transform="translate(123.19)">
   <rect x="361.64" y="246.02" width="23.011" height="19.034" ry="0" fill="#666"/>
   <path d="m361.64 246.02v-21.023l-1.9886-9.9432v-180.25l7.1023-5.6338 11.67-8.0483 7.6482-4.2254v198.16l-1.4205 9.9432v21.023z" fill="#f2f2f2" stroke-width="1px"/>
   <path d="m359.74 195.73 8.8415-6.7073 8.5366-6.4024 8.5366-5.1829" fill="none" stroke-width="1px"/>
  </g>
  <g transform="matrix(1 0 0 -1 -66.795 796.49)">
   <rect x="361.64" y="246.02" width="23.011" height="19.034" ry="0" fill="#666"/>
   <path d="m361.64 246.02v-21.023l-1.9886-9.9432v-180.25l7.1023-5.6338 11.67-8.0483 7.6482-4.2254v198.16l-1.4205 9.9432v21.023z" fill="#f2f2f2" stroke-width="1px"/>
   <path d="m359.74 195.73 8.8415-6.7073 8.5366-6.4024 8.5366-5.1829" fill="none" stroke-width="1px"/>
  </g>
  <g transform="matrix(1 0 0 -1 122.54 796.49)">
   <rect x="361.64" y="246.02" width="23.011" height="19.034" ry="0" fill="#666"/>
   <path d="m361.64 246.02v-21.023l-1.9886-9.9432v-180.25l7.1023-5.6338 11.67-8.0483 7.6482-4.2254v198.16l-1.4205 9.9432v21.023z" fill="#f2f2f2" stroke-width="1px"/>
   <path d="m359.74 195.73 8.8415-6.7073 8.5366-6.4024 8.5366-5.1829" fill="none" stroke-width="1px"/>
  </g>
  <path d="m248.65 390.89 6.5434-115.5c1.4596-7.6652 3.8467-9.0659 11.664-10.242l268.28 0.28449c7.9219 0.47349 10.561 5.0607 11.685 12.511l6.523 112.95v14.794l-6.2589 114.65c-1.0058 7.2609-4.4191 11.095-11.949 11.664l-268.28-0.56899c-7.8522-1.4392-10.664-3.2252-11.664-11.095l-6.5434-114.65z" fill="#f2f2f2" stroke-width="1px"/>
  <g fill="none" stroke-width="1px">
   <path d="m444.37 272.49h69.544c0.1317-7.1231 9.6197-6.9851 9.8996 0.12375 8.7187 0.66616 16.296 5.6381 17.077 13.736l1.3141 28.709c6.7108-0.0408 7.251 8.3234 0.38916 8.7002l2.4085 70.62c6.8497-0.0853 7.1456 7.2729-0.0282 7.3009l-2.3511 70.906c6.7266 0.30935 6.4047 8.5193-0.39052 8.3859l-2.0844 31.707c-1.358 6.4735-5.8816 10.294-12.622 10.89l-4.0455 0.45732c-0.1325 7.9569-8.347 7.9838-8.4527 0.28514l-70.287-0.12374c0.10684 7.2528-9.1656 7.7122-9.4046-0.12374l-68.936 0.39051c0.16044 6.986-8.6369 6.986-8.6514-0.0193l-70.24-0.33312c0.23891 7.3384-8.9343 7.3384-9.08 0.0856l-5.9397-0.24749c-5.4448-0.33472-8.98-4.045-9.8996-9.4046l-2.5036-33.05c-6.668 0.44199-7.0732-7.6296-0.52322-8.09l-2.161-70.764c-7.088-0.032-6.8858-8.0102-9e-3 -8.0044l1.8943-70.897c-6.5522-0.12554-6.12-8.1311 0.59002-7.89l1.5993-30.727c0.80993-6.9081 7.0179-11.53 12.993-11.756l4.2073-0.37123c0.12465-7.758 8.9438-7.8464 8.9096-0.49498l70.163-0.12374c0.048-7.0588 8.6452-7.1442 8.7859-0.24749l69.049 0.37123c0.0112-7.1317 8.8297-7.0739 8.7858 0z"/>
   <path d="m403.4 286.01 0.156 100.55c-1.2558 4.9713-3.5347 4.935-4.6667 0v-100.22c1.4146-5.0056 3.3048-4.9218 4.5107-0.32518z"/>
   <path d="m421.48 286.01 0.156 100.55c-1.2558 4.9713-3.5347 4.935-4.6667 0v-100.22c1.4146-5.0056 3.3048-4.9218 4.5107-0.32518z"/>
   <path d="m440.55 286.01 0.156 100.55c-1.2558 4.9713-3.5347 4.935-4.6667 0v-100.22c1.4146-5.0056 3.3048-4.9218 4.5107-0.32518z"/>
   <path d="m458.63 286.01 0.156 100.55c-1.2558 4.9713-3.5347 4.935-4.6667 0v-100.22c1.4146-5.0056 3.3048-4.9218 4.5107-0.32518z"/>
   <path d="m477.53 286.01 0.156 100.55c-1.2558 4.9713-3.5347 4.935-4.6667 0v-100.22c1.4146-5.0056 3.3048-4.9218 4.5107-0.32518z"/>
   <path d="m495.61 286.01 0.156 100.55c-1.2558 4.9713-3.5347 4.935-4.6667 0v-100.22c1.4146-5.0056 3.3048-4.9218 4.5107-0.32518z"/>
   <path d="m514.68 286.01 0.156 100.55c-1.2558 4.9713-3.5347 4.935-4.6667 0v-100.22c1.4146-5.0056 3.3048-4.9218 4.5107-0.32518z"/>
   <path d="m532.76 286.01 0.156 100.55c-1.2558 4.9713-3.5347 4.935-4.6667 0v-100.22c1.4146-5.0056 3.3048-4.9218 4.5107-0.32518z"/>
   <path d="m272.91 286.01 0.156 100.55c-1.2558 4.9713-3.5347 4.935-4.6667 0v-100.22c1.4146-5.0056 3.3048-4.9218 4.5107-0.32518z"/>
   <path d="m291.97 286.01 0.156 100.55c-1.2558 4.9713-3.5347 4.935-4.6667 0v-100.22c1.4146-5.0056 3.3048-4.9218 4.5107-0.32518z"/>
   <path d="m310.06 286.01 0.156 100.55c-1.2558 4.9713-3.5347 4.935-4.6667 0v-100.22c1.4146-5.0056 3.3048-4.9218 4.5107-0.32518z"/>
   <path d="m328.95 286.01 0.156 100.55c-1.2558 4.9713-3.5347 4.935-4.6667 0v-100.22c1.4146-5.0056 3.3048-4.9218 4.5107-0.32518z"/>
   <path d="m347.04 286.01 0.156 100.55c-1.2558 4.9713-3.5347 4.935-4.6667 0v-100.22c1.4146-5.0056 3.3048-4.9218 4.5107-0.32518z"/>
   <path d="m366.1 286.01 0.156 100.55c-1.2558 4.9713-3.5347 4.935-4.6667 0v-100.22c1.4146-5.0056 3.3048-4.9218 4.5107-0.32518z"/>
   <path d="m384.19 286.01 0.156 100.55c-1.2558 4.9713-3.5347 4.935-4.6667 0v-100.22c1.4146-5.0056 3.3048-4.9218 4.5107-0.32518z"/>
   <path d="m403.92 408 0.156 100.55c-1.2558 4.9713-3.5347 4.935-4.6667 0v-100.22c1.4146-5.0056 3.3048-4.9218 4.5107-0.32518z"/>
   <path d="m422.01 408 0.156 100.55c-1.2558 4.9713-3.5347 4.935-4.6667 0v-100.22c1.4146-5.0056 3.3048-4.9218 4.5107-0.32518z"/>
   <path d="m441.07 408 0.156 100.55c-1.2558 4.9713-3.5347 4.935-4.6667 0v-100.22c1.4146-5.0056 3.3048-4.9218 4.5107-0.32518z"/>
   <path d="m459.16 408 0.156 100.55c-1.2558 4.9713-3.5347 4.935-4.6667 0v-100.22c1.4146-5.0056 3.3048-4.9218 4.5107-0.32518z"/>
   <path d="m478.05 408 0.156 100.55c-1.2558 4.9713-3.5347 4.935-4.6667 0v-100.22c1.4146-5.0056 3.3048-4.9218 4.5107-0.32518z"/>
   <path d="m496.14 408 0.156 100.55c-1.2558 4.9713-3.5347 4.935-4.6667 0v-100.22c1.4146-5.0056 3.3048-4.9218 4.5107-0.32518z"/>
   <path d="m515.2 408 0.156 100.55c-1.2558 4.9713-3.5347 4.935-4.6667 0v-100.22c1.4146-5.0056 3.3048-4.9218 4.5107-0.32518z"/>
   <path d="m533.29 408 0.156 100.55c-1.2558 4.9713-3.5347 4.935-4.6667 0v-100.22c1.4146-5.0056 3.3048-4.9218 4.5107-0.32518z"/>
   <path d="m273.43 408 0.156 100.55c-1.2558 4.9713-3.5347 4.935-4.6667 0v-100.22c1.4146-5.0056 3.3048-4.9218 4.5107-0.32518z"/>
   <path d="m292.49 408 0.156 100.55c-1.2558 4.9713-3.5347 4.935-4.6667 0v-100.22c1.4146-5.0056 3.3048-4.9218 4.5107-0.32518z"/>
   <path d="m310.58 408 0.156 100.55c-1.2558 4.9713-3.5347 4.935-4.6667 0v-100.22c1.4146-5.0056 3.3048-4.9218 4.5107-0.32518z"/>
   <path d="m329.47 408 0.156 100.55c-1.2558 4.9713-3.5347 4.935-4.6667 0v-100.22c1.4146-5.0056 3.3048-4.9218 4.5107-0.32518z"/>
   <path d="m347.56 408 0.156 100.55c-1.2558 4.9713-3.5347 4.935-4.6667 0v-100.22c1.4146-5.0056 3.3048-4.9218 4.5107-0.32518z"/>
   <path d="m366.62 408 0.156 100.55c-1.2558 4.9713-3.5347 4.935-4.6667 0v-100.22c1.4146-5.0056 3.3048-4.9218 4.5107-0.32518z"/>
   <path d="m384.71 408 0.156 100.55c-1.2558 4.9713-3.5347 4.935-4.6667 0v-100.22c1.4146-5.0056 3.3048-4.9218 4.5107-0.32518z"/>
  </g>
 </g>
</svg>
