<?xml version="1.0" encoding="UTF-8" standalone="no"?>
<svg
   viewBox="0 0 224.18246 125.48"
   width="448.36493"
   height="250.96001"
   version="1.1"
   id="svg91"
   sodipodi:docname="r2s.svg"
   inkscape:version="1.4.3 (0d15f75, 2025-12-25)"
   xmlns:inkscape="http://www.inkscape.org/namespaces/inkscape"
   xmlns:sodipodi="http://sodipodi.sourceforge.net/DTD/sodipodi-0.dtd"
   xmlns:xlink="http://www.w3.org/1999/xlink"
   xmlns="http://www.w3.org/2000/svg"
   xmlns:svg="http://www.w3.org/2000/svg"
   xmlns:rdf="http://www.w3.org/1999/02/22-rdf-syntax-ns#"
   xmlns:cc="http://creativecommons.org/ns#">
  <sodipodi:namedview
     id="namedview91"
     pagecolor="#505050"
     bordercolor="#eeeeee"
     borderopacity="1"
     inkscape:showpageshadow="0"
     inkscape:pageopacity="0"
     inkscape:pagecheckerboard="0"
     inkscape:deskcolor="#505050"
     inkscape:zoom="1.8502099"
     inkscape:cx="296.45285"
     inkscape:cy="61.344391"
     inkscape:window-width="3440"
     inkscape:window-height="1369"
     inkscape:window-x="-8"
     inkscape:window-y="-8"
     inkscape:window-maximized="1"
     inkscape:current-layer="svg91" />
  <defs
     id="defs16">
    <linearGradient
       id="linearGradient110"
       x1="0"
       y1="0"
       x2="0"
       y2="1">
      <stop
         offset="0"
         stop-color="#a39a2c"
         id="stop109"
         style="stop-color:#2d6c42;stop-opacity:1;" />
      <stop
         offset="1"
         stop-color="#6a6412"
         id="stop110"
         style="stop-color:#0f7830;stop-opacity:1;" />
    </linearGradient>
    <linearGradient
       id="linearGradient107"
       x1="0"
       y1="0"
       x2="0"
       y2="1">
      <stop
         offset="0"
         stop-color="#a39a2c"
         id="stop106"
         style="stop-color:#2d6c42;stop-opacity:1;" />
      <stop
         offset="1"
         stop-color="#6a6412"
         id="stop107"
         style="stop-color:#163c22;stop-opacity:1;" />
    </linearGradient>
    <linearGradient
       id="linearGradient103"
       x1="0"
       y1="0"
       x2="0"
       y2="1">
      <stop
         offset="0"
         stop-color="#a39a2c"
         id="stop102" />
      <stop
         offset="1"
         stop-color="#6a6412"
         id="stop103"
         style="stop-color:#225635;stop-opacity:1;" />
    </linearGradient>
    <linearGradient
       id="usb"
       gradientUnits="userSpaceOnUse"
       x1="16"
       y1="120"
       x2="162"
       y2="120">
      <stop
         offset="0"
         stop-color="#8a929a"
         id="stop1" />
      <stop
         offset="1"
         stop-color="#545b62"
         id="stop2" />
    </linearGradient>
    <linearGradient
       id="eth"
       gradientUnits="userSpaceOnUse"
       x1="162"
       y1="120"
       x2="308"
       y2="120">
      <stop
         offset="0"
         stop-color="#363c43"
         id="stop3" />
      <stop
         offset="1"
         stop-color="#474e56"
         id="stop4" />
    </linearGradient>
    <linearGradient
       id="silver"
       x1="0"
       y1="0"
       x2="0"
       y2="1">
      <stop
         offset="0"
         stop-color="#eef0ec"
         id="stop5" />
      <stop
         offset="0.5"
         stop-color="#cfd1cb"
         id="stop6" />
      <stop
         offset="1"
         stop-color="#a9aba5"
         id="stop7" />
    </linearGradient>
    <linearGradient
       id="chrome"
       x1="221.79964"
       y1="48.105354"
       x2="235.68962"
       y2="48.105354"
       gradientTransform="scale(0.49964016,2.0014404)"
       gradientUnits="userSpaceOnUse">
      <stop
         offset="0.1976593"
         stop-color="#2e3338"
         id="stop8"
         style="stop-color:#14181b;stop-opacity:1;" />
      <stop
         offset="0.5"
         stop-color="#e6e9ea"
         id="stop9" />
      <stop
         offset="0.7997399"
         stop-color="#5b6166"
         id="stop10"
         style="stop-color:#14181b;stop-opacity:1;" />
    </linearGradient>
    <radialGradient
       id="shadow"
       cx="0.5"
       cy="0.5"
       r="0.5">
      <stop
         offset="0"
         stop-color="#000"
         stop-opacity="0.28"
         id="stop11" />
      <stop
         offset="1"
         stop-color="#000"
         stop-opacity="0"
         id="stop12" />
    </radialGradient>
    <linearGradient
       id="ledG"
       x1="0"
       y1="0"
       x2="0"
       y2="1">
      <stop
         offset="0"
         stop-color="#2c6b41"
         id="stop13" />
      <stop
         offset="1"
         stop-color="#163c25"
         id="stop14"
         style="stop-color:#163c25;stop-opacity:1;" />
    </linearGradient>
    <linearGradient
       id="ledA"
       x1="0"
       y1="0"
       x2="0"
       y2="1">
      <stop
         offset="0"
         stop-color="#a39a2c"
         id="stop15" />
      <stop
         offset="1"
         stop-color="#6a6412"
         id="stop16" />
    </linearGradient>
    <linearGradient
       inkscape:collect="always"
       xlink:href="#silver"
       id="linearGradient97"
       x1="267.51398"
       y1="68.695602"
       x2="267.51398"
       y2="107.43593"
       gradientTransform="scale(0.87505706,1.1427826)"
       gradientUnits="userSpaceOnUse" />
    <linearGradient
       inkscape:collect="always"
       xlink:href="#ledA"
       id="linearGradient99"
       x1="165.73291"
       y1="164.23785"
       x2="165.73291"
       y2="172.20062"
       gradientTransform="matrix(1.1855289,0,0,0.50752715,-18.958042,48.606082)"
       gradientUnits="userSpaceOnUse" />
    <linearGradient
       inkscape:collect="always"
       xlink:href="#linearGradient107"
       id="linearGradient106"
       gradientUnits="userSpaceOnUse"
       gradientTransform="matrix(1.1855289,0,0,0.50752715,-39.190474,49.06511)"
       x1="165.73291"
       y1="164.23785"
       x2="165.73291"
       y2="172.20062" />
  </defs>
  <polygon
     points="162,91 50,60.76 50,71.76 162,102 "
     fill="#3a4148"
     id="polygon16"
     transform="translate(-49.908767,-30.52)" />
  <polygon
     points="274,60.76 162,91 162,102 274,71.76 "
     fill="#3a4148"
     id="polygon17"
     transform="translate(-49.908767,-30.52)" />
  <polygon
     points="162,91 274,60.76 162,30.52 50,60.76 "
     fill="#1b2025"
     id="polygon18"
     transform="translate(-49.908767,-30.52)" />
  <polyline
     points="161.52,88.71 58.48,60.89"
     stroke="#474e55"
     stroke-width="0.7"
     opacity="0.9"
     id="polyline18"
     transform="translate(-49.908767,-30.52)" />
  <polyline
     points="160.06,89.10 57.02,61.28"
     stroke="#0f1318"
     stroke-width="0.8"
     opacity="0.7"
     id="polyline19"
     transform="translate(-49.908767,-30.52)" />
  <polyline
     points="165.52,87.63 62.48,59.81"
     stroke="#474e55"
     stroke-width="0.7"
     opacity="0.9"
     id="polyline20"
     transform="translate(-49.908767,-30.52)" />
  <polyline
     points="164.06,88.02 61.02,60.20"
     stroke="#0f1318"
     stroke-width="0.8"
     opacity="0.7"
     id="polyline21"
     transform="translate(-49.908767,-30.52)" />
  <polyline
     points="169.52,86.55 66.48,58.73"
     stroke="#474e55"
     stroke-width="0.7"
     opacity="0.9"
     id="polyline22"
     transform="translate(-49.908767,-30.52)" />
  <polyline
     points="168.06,86.94 65.02,59.12"
     stroke="#0f1318"
     stroke-width="0.8"
     opacity="0.7"
     id="polyline23"
     transform="translate(-49.908767,-30.52)" />
  <polyline
     points="173.52,85.47 70.48,57.65"
     stroke="#474e55"
     stroke-width="0.7"
     opacity="0.9"
     id="polyline24"
     transform="translate(-49.908767,-30.52)" />
  <polyline
     points="172.06,85.86 69.02,58.04"
     stroke="#0f1318"
     stroke-width="0.8"
     opacity="0.7"
     id="polyline25"
     transform="translate(-49.908767,-30.52)" />
  <polyline
     points="177.52,84.39 74.48,56.57"
     stroke="#474e55"
     stroke-width="0.7"
     opacity="0.9"
     id="polyline26"
     transform="translate(-49.908767,-30.52)" />
  <polyline
     points="176.06,84.78 73.02,56.96"
     stroke="#0f1318"
     stroke-width="0.8"
     opacity="0.7"
     id="polyline27"
     transform="translate(-49.908767,-30.52)" />
  <polyline
     points="181.52,83.31 78.48,55.49"
     stroke="#474e55"
     stroke-width="0.7"
     opacity="0.9"
     id="polyline28"
     transform="translate(-49.908767,-30.52)" />
  <polyline
     points="180.06,83.70 77.02,55.88"
     stroke="#0f1318"
     stroke-width="0.8"
     opacity="0.7"
     id="polyline29"
     transform="translate(-49.908767,-30.52)" />
  <polyline
     points="185.52,82.23 82.48,54.41"
     stroke="#474e55"
     stroke-width="0.7"
     opacity="0.9"
     id="polyline30"
     transform="translate(-49.908767,-30.52)" />
  <polyline
     points="184.06,82.62 81.02,54.80"
     stroke="#0f1318"
     stroke-width="0.8"
     opacity="0.7"
     id="polyline31"
     transform="translate(-49.908767,-30.52)" />
  <polyline
     points="189.52,81.15 86.48,53.33"
     stroke="#474e55"
     stroke-width="0.7"
     opacity="0.9"
     id="polyline32"
     transform="translate(-49.908767,-30.52)" />
  <polyline
     points="188.06,81.54 85.02,53.72"
     stroke="#0f1318"
     stroke-width="0.8"
     opacity="0.7"
     id="polyline33"
     transform="translate(-49.908767,-30.52)" />
  <polyline
     points="193.52,80.07 90.48,52.25"
     stroke="#474e55"
     stroke-width="0.7"
     opacity="0.9"
     id="polyline34"
     transform="translate(-49.908767,-30.52)" />
  <polyline
     points="192.06,80.46 89.02,52.64"
     stroke="#0f1318"
     stroke-width="0.8"
     opacity="0.7"
     id="polyline35"
     transform="translate(-49.908767,-30.52)" />
  <polyline
     points="197.52,78.99 94.48,51.17"
     stroke="#474e55"
     stroke-width="0.7"
     opacity="0.9"
     id="polyline36"
     transform="translate(-49.908767,-30.52)" />
  <polyline
     points="196.06,79.38 93.02,51.56"
     stroke="#0f1318"
     stroke-width="0.8"
     opacity="0.7"
     id="polyline37"
     transform="translate(-49.908767,-30.52)" />
  <polyline
     points="201.52,77.91 98.48,50.09"
     stroke="#474e55"
     stroke-width="0.7"
     opacity="0.9"
     id="polyline38"
     transform="translate(-49.908767,-30.52)" />
  <polyline
     points="200.06,78.30 97.02,50.48"
     stroke="#0f1318"
     stroke-width="0.8"
     opacity="0.7"
     id="polyline39"
     transform="translate(-49.908767,-30.52)" />
  <polyline
     points="205.52,76.83 102.48,49.01"
     stroke="#474e55"
     stroke-width="0.7"
     opacity="0.9"
     id="polyline40"
     transform="translate(-49.908767,-30.52)" />
  <polyline
     points="204.06,77.22 101.02,49.40"
     stroke="#0f1318"
     stroke-width="0.8"
     opacity="0.7"
     id="polyline41"
     transform="translate(-49.908767,-30.52)" />
  <polyline
     points="209.52,75.75 106.48,47.93"
     stroke="#474e55"
     stroke-width="0.7"
     opacity="0.9"
     id="polyline42"
     transform="translate(-49.908767,-30.52)" />
  <polyline
     points="208.06,76.14 105.02,48.32"
     stroke="#0f1318"
     stroke-width="0.8"
     opacity="0.7"
     id="polyline43"
     transform="translate(-49.908767,-30.52)" />
  <polyline
     points="213.52,74.67 110.48,46.85"
     stroke="#474e55"
     stroke-width="0.7"
     opacity="0.9"
     id="polyline44"
     transform="translate(-49.908767,-30.52)" />
  <polyline
     points="212.06,75.06 109.02,47.24"
     stroke="#0f1318"
     stroke-width="0.8"
     opacity="0.7"
     id="polyline45"
     transform="translate(-49.908767,-30.52)" />
  <polyline
     points="217.52,73.59 114.48,45.77"
     stroke="#474e55"
     stroke-width="0.7"
     opacity="0.9"
     id="polyline46"
     transform="translate(-49.908767,-30.52)" />
  <polyline
     points="216.06,73.98 113.02,46.16"
     stroke="#0f1318"
     stroke-width="0.8"
     opacity="0.7"
     id="polyline47"
     transform="translate(-49.908767,-30.52)" />
  <polyline
     points="221.52,72.51 118.48,44.69"
     stroke="#474e55"
     stroke-width="0.7"
     opacity="0.9"
     id="polyline48"
     transform="translate(-49.908767,-30.52)" />
  <polyline
     points="220.06,72.90 117.02,45.08"
     stroke="#0f1318"
     stroke-width="0.8"
     opacity="0.7"
     id="polyline49"
     transform="translate(-49.908767,-30.52)" />
  <polyline
     points="225.52,71.43 122.48,43.61"
     stroke="#474e55"
     stroke-width="0.7"
     opacity="0.9"
     id="polyline50"
     transform="translate(-49.908767,-30.52)" />
  <polyline
     points="224.06,71.82 121.02,44.00"
     stroke="#0f1318"
     stroke-width="0.8"
     opacity="0.7"
     id="polyline51"
     transform="translate(-49.908767,-30.52)" />
  <polyline
     points="229.52,70.35 126.48,42.53"
     stroke="#474e55"
     stroke-width="0.7"
     opacity="0.9"
     id="polyline52"
     transform="translate(-49.908767,-30.52)" />
  <polyline
     points="228.06,70.74 125.02,42.92"
     stroke="#0f1318"
     stroke-width="0.8"
     opacity="0.7"
     id="polyline53"
     transform="translate(-49.908767,-30.52)" />
  <polyline
     points="233.52,69.27 130.48,41.45"
     stroke="#474e55"
     stroke-width="0.7"
     opacity="0.9"
     id="polyline54"
     transform="translate(-49.908767,-30.52)" />
  <polyline
     points="232.06,69.66 129.02,41.84"
     stroke="#0f1318"
     stroke-width="0.8"
     opacity="0.7"
     id="polyline55"
     transform="translate(-49.908767,-30.52)" />
  <polyline
     points="237.52,68.19 134.48,40.37"
     stroke="#474e55"
     stroke-width="0.7"
     opacity="0.9"
     id="polyline56"
     transform="translate(-49.908767,-30.52)" />
  <polyline
     points="236.06,68.58 133.02,40.76"
     stroke="#0f1318"
     stroke-width="0.8"
     opacity="0.7"
     id="polyline57"
     transform="translate(-49.908767,-30.52)" />
  <polyline
     points="241.52,67.11 138.48,39.29"
     stroke="#474e55"
     stroke-width="0.7"
     opacity="0.9"
     id="polyline58"
     transform="translate(-49.908767,-30.52)" />
  <polyline
     points="240.06,67.50 137.02,39.68"
     stroke="#0f1318"
     stroke-width="0.8"
     opacity="0.7"
     id="polyline59"
     transform="translate(-49.908767,-30.52)" />
  <polyline
     points="245.52,66.03 142.48,38.21"
     stroke="#474e55"
     stroke-width="0.7"
     opacity="0.9"
     id="polyline60"
     transform="translate(-49.908767,-30.52)" />
  <polyline
     points="244.06,66.42 141.02,38.60"
     stroke="#0f1318"
     stroke-width="0.8"
     opacity="0.7"
     id="polyline61"
     transform="translate(-49.908767,-30.52)" />
  <polyline
     points="249.52,64.95 146.48,37.13"
     stroke="#474e55"
     stroke-width="0.7"
     opacity="0.9"
     id="polyline62"
     transform="translate(-49.908767,-30.52)" />
  <polyline
     points="248.06,65.34 145.02,37.52"
     stroke="#0f1318"
     stroke-width="0.8"
     opacity="0.7"
     id="polyline63"
     transform="translate(-49.908767,-30.52)" />
  <polyline
     points="253.52,63.87 150.48,36.05"
     stroke="#474e55"
     stroke-width="0.7"
     opacity="0.9"
     id="polyline64"
     transform="translate(-49.908767,-30.52)" />
  <polyline
     points="252.06,64.26 149.02,36.44"
     stroke="#0f1318"
     stroke-width="0.8"
     opacity="0.7"
     id="polyline65"
     transform="translate(-49.908767,-30.52)" />
  <polyline
     points="257.52,62.79 154.48,34.97"
     stroke="#474e55"
     stroke-width="0.7"
     opacity="0.9"
     id="polyline66"
     transform="translate(-49.908767,-30.52)" />
  <polyline
     points="256.06,63.18 153.02,35.36"
     stroke="#0f1318"
     stroke-width="0.8"
     opacity="0.7"
     id="polyline67"
     transform="translate(-49.908767,-30.52)" />
  <polyline
     points="261.52,61.71 158.48,33.89"
     stroke="#474e55"
     stroke-width="0.7"
     opacity="0.9"
     id="polyline68"
     transform="translate(-49.908767,-30.52)" />
  <polyline
     points="260.06,62.10 157.02,34.28"
     stroke="#0f1318"
     stroke-width="0.8"
     opacity="0.7"
     id="polyline69"
     transform="translate(-49.908767,-30.52)" />
  <polyline
     points="265.52,60.63 162.48,32.81"
     stroke="#474e55"
     stroke-width="0.7"
     opacity="0.9"
     id="polyline70"
     transform="translate(-49.908767,-30.52)" />
  <polyline
     points="264.06,61.02 161.02,33.20"
     stroke="#0f1318"
     stroke-width="0.8"
     opacity="0.7"
     id="polyline71"
     transform="translate(-49.908767,-30.52)" />
  <polygon
     points="162,156 50,125.76 50,71.76 162,102 "
     fill="url(#usb)"
     id="polygon71"
     style="fill:url(#usb)"
     transform="translate(-49.908767,-30.52)" />
  <polygon
     points="274,125.76 162,156 162,102 274,71.76 "
     fill="url(#eth)"
     id="polygon72"
     style="fill:url(#eth)"
     transform="translate(-49.908767,-30.52)" />
  <polygon
     points="50,125.76 162,156 162,149.52 50,119.28 "
     fill="#000000"
     opacity="0.1"
     id="polygon73"
     transform="translate(-49.908767,-30.52)" />
  <polygon
     points="274,125.76 162,156 162,149.52 274,119.28 "
     fill="#000000"
     opacity="0.1"
     id="polygon74"
     transform="translate(-49.908767,-30.52)" />
  <polyline
     points="50.00,71.76 162.00,102.00"
     stroke="#aab0b4"
     stroke-width="0.7"
     opacity="0.7"
     id="polyline74"
     transform="translate(-49.908767,-30.52)" />
  <polyline
     points="162.00,102.00 274.00,71.76"
     stroke="#9aa0a4"
     stroke-width="0.7"
     opacity="0.7"
     id="polyline75"
     transform="translate(-49.908767,-30.52)" />
  <polyline
     points="162.00,102.00 162.00,156.00"
     stroke="#c0c5c8"
     stroke-width="0.8"
     opacity="0.85"
     id="polyline76"
     transform="translate(-49.908767,-30.52)" />
  <polygon
     points="121.79,133.8 106.78,129.75 106.78,91.95 121.79,96 "
     fill="#14181b"
     id="polygon76"
     transform="translate(-41.908767,-26.52)" />
  <polygon
     points="117.76,98.16 117.76,124.08 110.82,122.2 110.82,96.28 "
     fill="url(#chrome)"
     id="polygon77"
     style="fill:url(#chrome)"
     transform="matrix(1.0822267,0,0,1.2012487,-51.257503,-45.947216)" />
  <ellipse
     cx="97.691238"
     cy="107.48"
     rx="3.4000001"
     ry="3"
     fill="#0d0f11"
     id="ellipse79" />
  <ellipse
     cx="97.691238"
     cy="107.46221"
     rx="1.7"
     ry="1.4"
     fill="#262b2f"
     id="ellipse80" />
  <rect
     x="86.326942"
     y="130.29254"
     width="18.296713"
     height="10.063192"
     rx="5.0315962"
     transform="rotate(-15.1)"
     fill="#1c2024"
     stroke="#0c0e10"
     stroke-width="0.457418"
     id="rect80" />
  <rect
     x="88.156609"
     y="134.4093"
     width="14.637371"
     height="1.8296714"
     rx="0.91483569"
     transform="rotate(-15.1)"
     fill="#454b50"
     id="rect81"
     style="stroke-width:0.914836" />
  <polygon
     points="234.24,87.77 267.84,78.7 267.84,113.5 234.24,122.58 "
     fill="url(#silver)"
     stroke="#8f9088"
     stroke-width="0.3"
     id="polygon84"
     style="fill:url(#linearGradient97)"
     transform="translate(-49.908766,-28.519999)" />
  <polygon
     points="266.5,110.47 235.58,118.81 235.58,89.84 266.5,81.49 "
     fill="#0c1115"
     id="polygon85"
     transform="matrix(0.94437923,0,0,1,-35.945727,-27.519999)" />
  <rect
     x="177.52313"
     y="131.96121"
     width="9.440093"
     height="4.0413218"
     rx="1.822861"
     transform="rotate(-15.1)"
     fill="url(#ledA)"
     id="rect87"
     style="fill:url(#linearGradient99);stroke-width:0.775686" />
  <rect
     x="157.29071"
     y="132.42024"
     width="9.440093"
     height="4.0413218"
     rx="1.822861"
     transform="rotate(-15.1)"
     fill="url(#ledA)"
     id="rect87-7"
     style="fill:url(#linearGradient106);stroke-width:0.775686" />
  <text
     x="69.262497"
     y="96.673553"
     font-family="Arial, Helvetica, sans-serif"
     font-size="5.3904px"
     font-weight="bold"
     letter-spacing="0.3"
     fill="#f1f1f3"
     text-anchor="middle"
     transform="matrix(1.0316845,0.26153412,0,0.96928857,0,0)"
     opacity="0.95"
     id="text87"
     style="stroke-width:0.816727">USB</text>
  <text
     x="95.051605"
     y="95.717857"
     font-family="Arial, Helvetica, sans-serif"
     font-size="5.99603px"
     font-weight="bold"
     letter-spacing="0.3"
     fill="#f1f1f3"
     text-anchor="middle"
     transform="matrix(1.0208168,0.26431845,0,0.97960772,0,0)"
     opacity="0.95"
     id="text88"
     style="stroke-width:0.90849">Reset</text>
  <text
     x="128.29123"
     y="152.99564"
     font-family="Arial, Helvetica, sans-serif"
     font-size="4.6px"
     font-weight="bold"
     letter-spacing="0.3"
     fill="#f1f1f3"
     text-anchor="middle"
     transform="skewY(-15.1)"
     opacity="0.95"
     id="text89">USB-C 5V</text>
  <text
     x="161.52594"
     y="154.19537"
     font-family="Arial, Helvetica, sans-serif"
     font-size="5.82818px"
     font-weight="bold"
     letter-spacing="0.3"
     fill="#f1f1f3"
     text-anchor="middle"
     transform="matrix(1.0158894,-0.26560049,0,0.98435913,0,0)"
     opacity="0.95"
     id="text90"
     style="stroke-width:0.883057">LAN</text>
  <text
     x="191.3837"
     y="155.20395"
     font-family="Arial, Helvetica, sans-serif"
     font-size="5.40543px"
     font-weight="bold"
     letter-spacing="0.3"
     fill="#f1f1f3"
     text-anchor="middle"
     transform="matrix(1.0607867,-0.25435907,0,0.94269659,0,0)"
     opacity="0.95"
     id="text91"
     style="stroke-width:0.819004">WAN</text>
  <metadata
     id="metadata99">
    <rdf:RDF>
      <cc:License
         rdf:about="http://creativecommons.org/licenses/by-nc-sa/4.0/">
        <cc:permits
           rdf:resource="http://creativecommons.org/ns#Reproduction" />
        <cc:permits
           rdf:resource="http://creativecommons.org/ns#Distribution" />
        <cc:requires
           rdf:resource="http://creativecommons.org/ns#Notice" />
        <cc:requires
           rdf:resource="http://creativecommons.org/ns#Attribution" />
        <cc:prohibits
           rdf:resource="http://creativecommons.org/ns#CommercialUse" />
        <cc:permits
           rdf:resource="http://creativecommons.org/ns#DerivativeWorks" />
        <cc:requires
           rdf:resource="http://creativecommons.org/ns#ShareAlike" />
      </cc:License>
      <cc:Work
         rdf:about="">
        <cc:license
           rdf:resource="http://creativecommons.org/licenses/by-nc-sa/4.0/" />
      </cc:Work>
    </rdf:RDF>
  </metadata>
  <use
     x="0"
     y="0"
     xlink:href="#polygon84"
     id="use114"
     transform="translate(-37.630865,10.133985)" />
  <use
     x="0"
     y="0"
     xlink:href="#polygon85"
     id="use115"
     transform="translate(-37.630865,10.133985)" />
  <use
     x="0"
     y="0"
     xlink:href="#rect87"
     id="use116"
     transform="translate(-37.563305,10.201545)" />
  <use
     x="0"
     y="0"
     xlink:href="#rect87-7"
     id="use117"
     transform="translate(-37.765985,10.133985)" />
</svg>
