<?xml version="1.0" encoding="UTF-8" standalone="no"?>
<!DOCTYPE svg PUBLIC "-//W3C//DTD SVG 1.1//EN" "http://www.w3.org/Graphics/SVG/1.1/DTD/svg11.dtd">
<svg width="100%" height="100%" viewBox="0 0 2000 2000" version="1.1" xmlns="http://www.w3.org/2000/svg" xmlns:xlink="http://www.w3.org/1999/xlink" xml:space="preserve" xmlns:serif="http://www.serif.com/" style="fill-rule:evenodd;clip-rule:evenodd;stroke-linecap:round;stroke-linejoin:round;stroke-miterlimit:1.5;">
    <g transform="matrix(1,0,0,1,7.90504,2.32037)">
        <g transform="matrix(1.01754,0,0,1,4.44445,0)">
            <rect x="312.002" y="1504.73" width="118.664" height="93.682" style="fill:rgb(152,152,152);stroke:black;stroke-width:9.61px;"/>
        </g>
        <g transform="matrix(1.01754,0,0,1,1225.44,0)">
            <rect x="312.002" y="1504.73" width="118.664" height="93.682" style="fill:rgb(152,152,152);stroke:black;stroke-width:9.61px;"/>
        </g>
        <path d="M1810.11,1246.98L1810.11,413.469C1810.11,404.352 1817.51,396.95 1826.63,396.95L1859.67,396.95C1868.78,396.95 1876.18,404.352 1876.18,413.469L1876.18,1191.05C1887.36,1207.58 1897.36,1226.38 1903.08,1246.92C1914.11,1286.5 1908.83,1332.62 1908.83,1372.13C1908.83,1414.61 1899.15,1444.28 1876.16,1466.37C1875.75,1475.11 1868.51,1482.08 1859.67,1482.08L1826.63,1482.08C1817.51,1482.08 1810.11,1474.68 1810.11,1465.57L1810.11,1420.99L174.079,1420.99L174.079,1467.6C174.079,1476.71 166.677,1484.12 157.56,1484.12L124.524,1484.12C115.676,1484.12 108.443,1477.14 108.024,1468.4C85.042,1446.31 75.356,1416.64 75.356,1374.17C75.356,1334.65 70.084,1288.54 81.11,1248.96C86.831,1228.42 96.831,1209.61 108.005,1193.08L108.005,415.502C108.005,406.385 115.407,398.983 124.524,398.983L157.56,398.983C166.677,398.983 174.079,406.385 174.079,415.502L174.079,1246.98L1810.11,1246.98Z" style="fill:rgb(222,236,249);stroke:black;stroke-width:9.69px;"/>
        <g transform="matrix(1.03437,0,0,1.125,-40.6795,-196.315)">
            <path d="M1775.1,1280.2C1775.1,1204.8 1708.51,1143.58 1626.51,1143.58L370.954,1143.58C288.945,1143.58 222.363,1204.8 222.363,1280.2L222.363,1433.9C222.363,1509.3 288.945,1570.52 370.954,1570.52L1626.51,1570.52C1708.51,1570.52 1775.1,1509.3 1775.1,1433.9L1775.1,1280.2Z" style="fill:rgb(222,236,249);"/>
            <clipPath id="_clip1">
                <path d="M1775.1,1280.2C1775.1,1204.8 1708.51,1143.58 1626.51,1143.58L370.954,1143.58C288.945,1143.58 222.363,1204.8 222.363,1280.2L222.363,1433.9C222.363,1509.3 288.945,1570.52 370.954,1570.52L1626.51,1570.52C1708.51,1570.52 1775.1,1509.3 1775.1,1433.9L1775.1,1280.2Z"/>
            </clipPath>
            <g clip-path="url(#_clip1)">
                <g transform="matrix(0.966772,0,0,0.888889,39.3278,174.502)">
                    <path d="M174.892,1323.97L1801.32,1327.88L1118.01,1326.22L1095.4,1350L902.112,1349.9L876.22,1325.65L174.892,1323.97Z" style="fill:rgb(118,128,153);stroke:black;stroke-width:9.69px;"/>
                </g>
            </g>
            <path d="M1775.1,1280.2C1775.1,1204.8 1708.51,1143.58 1626.51,1143.58L370.954,1143.58C288.945,1143.58 222.363,1204.8 222.363,1280.2L222.363,1433.9C222.363,1509.3 288.945,1570.52 370.954,1570.52L1626.51,1570.52C1708.51,1570.52 1775.1,1509.3 1775.1,1433.9L1775.1,1280.2Z" style="fill:none;stroke:black;stroke-width:8.97px;"/>
        </g>
    </g>
</svg>
