<?xml version="1.0" encoding="UTF-8" standalone="no"?>
<svg
   width="100%"
   height="100%"
   viewBox="0 0 1280 1150"
   version="1.1"
   xml:space="preserve"
   style="fill-rule:evenodd;clip-rule:evenodd;stroke-linecap:round;stroke-linejoin:round;stroke-miterlimit:1.41421;"
   id="svg37"
   sodipodi:docname="gl-inet-gl-e750.svg"
   inkscape:version="1.2.2 (1:1.2.2+202212051552+b0a8486541)"
   xmlns:inkscape="http://www.inkscape.org/namespaces/inkscape"
   xmlns:sodipodi="http://sodipodi.sourceforge.net/DTD/sodipodi-0.dtd"
   xmlns="http://www.w3.org/2000/svg"
   xmlns:svg="http://www.w3.org/2000/svg"><defs
   id="defs41" /><sodipodi:namedview
   id="namedview39"
   pagecolor="#ffffff"
   bordercolor="#666666"
   borderopacity="1.0"
   inkscape:showpageshadow="2"
   inkscape:pageopacity="0.0"
   inkscape:pagecheckerboard="0"
   inkscape:deskcolor="#d1d1d1"
   showgrid="false"
   inkscape:zoom="0.70710678"
   inkscape:cx="923.48145"
   inkscape:cy="656.19509"
   inkscape:window-width="2560"
   inkscape:window-height="1372"
   inkscape:window-x="0"
   inkscape:window-y="0"
   inkscape:window-maximized="0"
   inkscape:current-layer="svg37" />
    
<g
   id="g15475"
   transform="translate(-1517.7134,2.3846797)"><path
     style="fill:#67686b;fill-opacity:1;stroke:none;stroke-width:1px;stroke-linecap:butt;stroke-linejoin:miter;stroke-opacity:1"
     d="m 1970.4478,133.95603 75.3074,-95.595108 c -76.6288,-4.087419 -114.1099,29.280396 -129.4203,83.860488 z"
     id="path15373"
     sodipodi:nodetypes="cccc" /><path
     style="fill:#7e807f;fill-opacity:1;stroke:none;stroke-width:1px;stroke-linecap:butt;stroke-linejoin:miter;stroke-opacity:1"
     d="m 1970.4478,133.95603 c 0.4974,-61.875906 54.0176,-94.707838 75.3074,-95.595108 l 277.8856,15.279445 c 15.6428,0.301586 31.2366,16.218652 41.9462,25.510465 l -34.4118,-17.296788 -273.1955,-14.37789 z"
     id="path15375"
     sodipodi:nodetypes="ccccccc" /><path
     style="fill:#050505;fill-opacity:1;stroke:none;stroke-width:1px;stroke-linecap:butt;stroke-linejoin:miter;stroke-opacity:1"
     d="M 1970.4478,312.13842 V 133.95603 c -0.375,-6.29428 17.784,-83.39483 87.5319,-86.479876 l 273.1955,14.37789 c 45.0751,13.898435 59.0167,42.127886 66.3347,73.406236 l 1.582,174.21964 z"
     id="path15377"
     sodipodi:nodetypes="ccccccc" /><path
     style="fill:#33363b;fill-opacity:1;stroke:none;stroke-width:1px;stroke-linecap:butt;stroke-linejoin:miter;stroke-opacity:1"
     d="m 2065.5602,1105.7186 c -68.5404,10.6627 -145.7556,-37.5699 -146.0597,-93.369 l -3.1656,-890.12819 54.1129,11.73462 3.1748,892.19857 c 9.4912,68.4336 50.3765,74.6683 91.9376,79.564 z"
     id="path15379"
     sodipodi:nodetypes="cccccc" /><path
     style="fill:#373a3f;fill-opacity:1;stroke:none;stroke-width:1px;stroke-linecap:butt;stroke-linejoin:miter;stroke-opacity:1"
     d="m 1927.9232,218.69054 v 36.82107 c 0.05,5.23926 25.8937,6.89197 25.9201,-0.54039 v -37.32224 c 0,-8.0645 -25.4726,-10.10572 -25.9201,1.04156 z"
     id="path15381"
     sodipodi:nodetypes="ccccc" /><path
     style="fill:#383838;fill-opacity:1;stroke:none;stroke-width:1px;stroke-linecap:butt;stroke-linejoin:miter;stroke-opacity:1"
     d="m 1990.6184,312.75221 -0.1847,-162.18424 c 39.5715,-24.65666 40.2253,-24.15367 95.8027,-64.03394 94.0008,13.99979 195.1121,23.72713 265.0979,52.15657 l 0.5214,171.08228 z"
     id="path15383"
     sodipodi:nodetypes="cccccc" /><path
     style="fill:#4e4e4e;fill-opacity:1;stroke:none;stroke-width:1px;stroke-linecap:butt;stroke-linejoin:miter;stroke-opacity:1"
     d="m 1990.3782,130.58735 0.2402,182.16486 92.5337,-1.31279 3.0843,-224.90539 c -31.5905,-56.075485 -98.2099,-7.958768 -95.8582,44.05332 z"
     id="path15385"
     sodipodi:nodetypes="ccccc" /><path
     style="fill:#353a40;fill-opacity:1;stroke:none;stroke-width:1px;stroke-linecap:butt;stroke-linejoin:miter;stroke-opacity:1"
     d="m 1971.0817,312.09846 2.5409,714.05614 c 2.0909,62.7667 59.2189,82.0799 91.9376,79.564 l 254.4532,-53.4343 c 38.7112,-12.858 68.1499,-37.6493 75.0125,-91.49569 l 4.066,-651.30869 z"
     id="path15387"
     sodipodi:nodetypes="ccccccc" /><path
     style="fill:#23282e;fill-opacity:1;stroke:none;stroke-width:1px;stroke-linecap:butt;stroke-linejoin:miter;stroke-opacity:1"
     d="m 1971.0817,312.09846 2.5409,714.05614 c 2.4092,66.0884 65.2016,82.2361 91.9376,79.564 l 239.3337,-49.9903 c 39.3804,-6.2664 84.863,-34.4493 90.132,-94.93969 l 4.066,-651.30869 -19.9805,0.12392 v 688.16078 c -0.8099,12.78038 -22.9776,35.06598 -44.2735,39.80708 l -289.6328,56.7493 c -48.9936,-2.3689 -51.2808,-35.243 -54.0872,-67.778 l -0.5006,-714.59263 z"
     id="path15389"
     sodipodi:nodetypes="ccccccccccccc" /><ellipse
     style="fill:#0b0e13;fill-opacity:1;stroke:none;stroke-linecap:square;stroke-linejoin:round;stroke-miterlimit:0;stroke-dashoffset:262.44"
     id="ellipse15391"
     cx="1941.2487"
     cy="185.54982"
     rx="1.6501083"
     ry="1.5662794" /><ellipse
     style="fill:#0b0e13;fill-opacity:1;stroke:none;stroke-linecap:square;stroke-linejoin:round;stroke-miterlimit:0;stroke-dashoffset:262.44"
     id="ellipse15393"
     cx="1941.2487"
     cy="190.24092"
     rx="1.6501083"
     ry="1.5662794" /><path
     style="fill:#363a3d;fill-opacity:1;stroke:none;stroke-width:1px;stroke-linecap:butt;stroke-linejoin:miter;stroke-opacity:1"
     d="m 1932.6705,237.06504 v 12.2336 h 18.2202 v -12.82602 z"
     id="path15395" /><path
     style="fill:#14181b;fill-opacity:1;stroke:none;stroke-width:1px;stroke-linecap:butt;stroke-linejoin:miter;stroke-opacity:1"
     d="m 1950.8907,236.47262 h 3.4909 v 10.92226 l -3.4909,1.90376 z"
     id="path15397" /><path
     style="fill:#14171b;fill-opacity:1;stroke:none;stroke-width:1px;stroke-linecap:butt;stroke-linejoin:miter;stroke-opacity:1"
     d="m 1951.2848,221.1413 v 13.28907 h -15.0938 v -13.45424 z"
     id="path15399" /><ellipse
     style="fill:#0b0e13;fill-opacity:1;stroke:none;stroke-width:0.984335;stroke-linecap:square;stroke-linejoin:round;stroke-miterlimit:0;stroke-dashoffset:262.44"
     id="ellipse15401"
     cx="1559.0612"
     cy="-1622.8917"
     rx="9.4389105"
     ry="13.136586"
     transform="matrix(0.55710513,0.83044197,-0.67125688,0.7412248,0,0)" /><ellipse
     style="fill:#0b0e13;fill-opacity:1;stroke:none;stroke-width:0.744957;stroke-linecap:square;stroke-linejoin:round;stroke-miterlimit:0;stroke-dashoffset:262.44"
     id="ellipse15403"
     cx="882.29626"
     cy="-2021.5599"
     rx="5.8602509"
     ry="12.118945"
     transform="matrix(0.1609891,0.98695618,-0.91454017,0.40449508,0,0)" /><path
     style="fill:#3d4248;fill-opacity:1;stroke:none;stroke-width:1px;stroke-linecap:butt;stroke-linejoin:miter;stroke-opacity:1"
     d="m 2083.1521,311.43942 3.429,726.24158 c -2.5961,28.2955 -93.8014,24.5526 -95.4632,-11.138 l -0.5006,-714.59263 z"
     id="path15405"
     sodipodi:nodetypes="ccccc" /><path
     style="fill:#67686b;fill-opacity:1;stroke:none;stroke-width:1px;stroke-linecap:butt;stroke-linejoin:miter;stroke-opacity:1"
     d="m 1970.4478,133.95603 75.3074,-95.595108 c -76.6288,-4.087419 -114.1099,29.280396 -129.4203,83.860488 z"
     id="path15407"
     sodipodi:nodetypes="cccc" /><path
     style="fill:#7e807f;fill-opacity:1;stroke:none;stroke-width:1px;stroke-linecap:butt;stroke-linejoin:miter;stroke-opacity:1"
     d="m 1970.4478,133.95603 c 0.4974,-61.875906 54.0176,-94.707838 75.3074,-95.595108 l 277.8856,15.279445 c 15.6428,0.301586 31.2366,16.218652 41.9462,25.510465 l -34.4118,-17.296788 -273.1955,-14.37789 z"
     id="path15409"
     sodipodi:nodetypes="ccccccc" /><path
     style="fill:#050505;fill-opacity:1;stroke:none;stroke-width:1px;stroke-linecap:butt;stroke-linejoin:miter;stroke-opacity:1"
     d="M 1970.4478,312.13842 V 133.95603 c -0.375,-6.29428 17.784,-83.39483 87.5319,-86.479876 l 273.1955,14.37789 c 45.0751,13.898435 59.0167,42.127886 66.3347,73.406236 l 1.582,174.21964 z"
     id="path15411"
     sodipodi:nodetypes="ccccccc" /><path
     style="fill:#33363b;fill-opacity:1;stroke:none;stroke-width:1px;stroke-linecap:butt;stroke-linejoin:miter;stroke-opacity:1"
     d="m 2065.5602,1105.7186 c -68.5404,10.6627 -145.7556,-37.5699 -146.0597,-93.369 l -3.1656,-890.12819 54.1129,11.73462 3.1748,892.19857 c 9.4912,68.4336 50.3765,74.6683 91.9376,79.564 z"
     id="path15413"
     sodipodi:nodetypes="cccccc" /><path
     style="fill:#373a3f;fill-opacity:1;stroke:none;stroke-width:1px;stroke-linecap:butt;stroke-linejoin:miter;stroke-opacity:1"
     d="m 1927.9232,218.69054 v 36.82107 c 0.05,5.23926 25.8937,6.89197 25.9201,-0.54039 v -37.32224 c 0,-8.0645 -25.4726,-10.10572 -25.9201,1.04156 z"
     id="path15415"
     sodipodi:nodetypes="ccccc" /><path
     style="fill:#383838;fill-opacity:1;stroke:none;stroke-width:1px;stroke-linecap:butt;stroke-linejoin:miter;stroke-opacity:1"
     d="m 1990.6184,312.75221 -0.1847,-162.18424 c 39.5715,-24.65666 40.2253,-24.15367 95.8027,-64.03394 94.0008,13.99979 195.1121,23.72713 265.0979,52.15657 l 0.5214,171.08228 z"
     id="path15417"
     sodipodi:nodetypes="cccccc" /><path
     style="fill:#4e4e4e;fill-opacity:1;stroke:none;stroke-width:1px;stroke-linecap:butt;stroke-linejoin:miter;stroke-opacity:1"
     d="m 1990.3782,130.58735 0.2402,182.16486 92.5337,-1.31279 3.0843,-224.90539 c -31.5905,-56.075485 -98.2099,-7.958768 -95.8582,44.05332 z"
     id="path15419"
     sodipodi:nodetypes="ccccc" /><path
     style="fill:#353a40;fill-opacity:1;stroke:none;stroke-width:1px;stroke-linecap:butt;stroke-linejoin:miter;stroke-opacity:1"
     d="m 1971.0817,312.09846 2.5409,714.05614 c 2.0909,62.7667 59.2189,82.0799 91.9376,79.564 l 254.4532,-53.4343 c 38.7112,-12.858 68.1499,-37.6493 75.0125,-91.49569 l 4.066,-651.30869 z"
     id="path15421"
     sodipodi:nodetypes="ccccccc" /><path
     style="fill:#23282e;fill-opacity:1;stroke:none;stroke-width:1px;stroke-linecap:butt;stroke-linejoin:miter;stroke-opacity:1"
     d="m 1971.0817,312.09846 2.5409,714.05614 c 2.4092,66.0884 65.2016,82.2361 91.9376,79.564 l 239.3337,-49.9903 c 39.3804,-6.2664 84.863,-34.4493 90.132,-94.93969 l 4.066,-651.30869 -19.9805,0.12392 v 688.16078 c -0.8099,12.78038 -22.9776,35.06598 -44.2735,39.80708 l -289.6328,56.7493 c -48.9936,-2.3689 -51.2808,-35.243 -54.0872,-67.778 l -0.5006,-714.59263 z"
     id="path15423"
     sodipodi:nodetypes="ccccccccccccc" /><ellipse
     style="fill:#0b0e13;fill-opacity:1;stroke:none;stroke-linecap:square;stroke-linejoin:round;stroke-miterlimit:0;stroke-dashoffset:262.44"
     id="ellipse15425"
     cx="1941.2487"
     cy="185.54982"
     rx="1.6501083"
     ry="1.5662794" /><ellipse
     style="fill:#0b0e13;fill-opacity:1;stroke:none;stroke-linecap:square;stroke-linejoin:round;stroke-miterlimit:0;stroke-dashoffset:262.44"
     id="ellipse15427"
     cx="1941.2487"
     cy="190.24092"
     rx="1.6501083"
     ry="1.5662794" /><path
     style="fill:#363a3d;fill-opacity:1;stroke:none;stroke-width:1px;stroke-linecap:butt;stroke-linejoin:miter;stroke-opacity:1"
     d="m 1932.6705,237.06504 v 12.2336 h 18.2202 v -12.82602 z"
     id="path15429" /><path
     style="fill:#14181b;fill-opacity:1;stroke:none;stroke-width:1px;stroke-linecap:butt;stroke-linejoin:miter;stroke-opacity:1"
     d="m 1950.8907,236.47262 h 3.4909 v 10.92226 l -3.4909,1.90376 z"
     id="path15431" /><path
     style="fill:#14171b;fill-opacity:1;stroke:none;stroke-width:1px;stroke-linecap:butt;stroke-linejoin:miter;stroke-opacity:1"
     d="m 1951.2848,221.1413 v 13.28907 h -15.0938 v -13.45424 z"
     id="path15433" /><ellipse
     style="fill:#0b0e13;fill-opacity:1;stroke:none;stroke-width:0.984335;stroke-linecap:square;stroke-linejoin:round;stroke-miterlimit:0;stroke-dashoffset:262.44"
     id="ellipse15435"
     cx="1559.0612"
     cy="-1622.8917"
     rx="9.4389105"
     ry="13.136586"
     transform="matrix(0.55710513,0.83044197,-0.67125688,0.7412248,0,0)" /><ellipse
     style="fill:#0b0e13;fill-opacity:1;stroke:none;stroke-width:0.744957;stroke-linecap:square;stroke-linejoin:round;stroke-miterlimit:0;stroke-dashoffset:262.44"
     id="ellipse15437"
     cx="882.29626"
     cy="-2021.5599"
     rx="5.8602509"
     ry="12.118945"
     transform="matrix(0.1609891,0.98695618,-0.91454017,0.40449508,0,0)" /><path
     style="fill:#3d4248;fill-opacity:1;stroke:none;stroke-width:1px;stroke-linecap:butt;stroke-linejoin:miter;stroke-opacity:1"
     d="m 2083.1521,311.43942 3.429,726.24158 c -2.5961,28.2955 -93.8014,24.5526 -95.4632,-11.138 l -0.5006,-714.59263 z"
     id="path15439"
     sodipodi:nodetypes="ccccc" /></g><text
   xml:space="preserve"
   style="font-style:normal;font-weight:normal;font-size:40px;line-height:1.25;font-family:sans-serif;letter-spacing:0px;word-spacing:0px;fill:#000000;fill-opacity:1;stroke:none"
   x="1221.7524"
   y="232.71478"
   id="text15531"><tspan
     sodipodi:role="line"
     id="tspan15529"
     x="1221.7524"
     y="232.71478" /></text></svg>
