<?xml version="1.0" encoding="UTF-8" standalone="no"?>
<svg
   width="100%"
   height="100%"
   viewBox="0 0 1280 1150"
   version="1.1"
   xml:space="preserve"
   style="fill-rule:evenodd;clip-rule:evenodd;stroke-linecap:round;stroke-linejoin:round;stroke-miterlimit:1.41421;"
   id="svg37"
   sodipodi:docname="MT1300.svg"
   inkscape:version="1.2.2 (1:1.2.2+202212051552+b0a8486541)"
   xmlns:inkscape="http://www.inkscape.org/namespaces/inkscape"
   xmlns:sodipodi="http://sodipodi.sourceforge.net/DTD/sodipodi-0.dtd"
   xmlns="http://www.w3.org/2000/svg"
   xmlns:svg="http://www.w3.org/2000/svg"><defs
   id="defs41" /><sodipodi:namedview
   id="namedview39"
   pagecolor="#ffffff"
   bordercolor="#666666"
   borderopacity="1.0"
   inkscape:showpageshadow="2"
   inkscape:pageopacity="0.0"
   inkscape:pagecheckerboard="0"
   inkscape:deskcolor="#d1d1d1"
   showgrid="false"
   inkscape:zoom="0.41043478"
   inkscape:cx="4609.7458"
   inkscape:cy="275.3178"
   inkscape:window-width="5120"
   inkscape:window-height="1372"
   inkscape:window-x="0"
   inkscape:window-y="0"
   inkscape:window-maximized="1"
   inkscape:current-layer="svg37" />
    
<g
   id="g50131"
   transform="translate(-1766.469,19.219711)"><path
     id="path49996"
     style="fill:#879399;fill-opacity:1;stroke:none;stroke-width:1px;stroke-linecap:butt;stroke-linejoin:miter;stroke-opacity:1"
     d="m 2450.7946,497.75722 -482.8164,144.35742 -0.7331,73.2715 -107.2783,222.6746 35.0607,20.26238 13.3296,7.70168 422.4668,88.8652 c 36.2016,8.4527 65.55,2.4294 88.1093,-10.8418 l 505.836,-191.12301 c 10.1926,-3.38991 19.7635,-6.99839 28.7812,-11.0332 h 0.2031 v -0.0898 c 19.705,-8.84171 36.4755,-19.9557 49.3067,-36.8457 l -0.076,0.22656 c 10.5,-14.55379 21.0539,-18.83186 31.2949,-83.17578 l 0.1289,-5.42969 c -6.4626,-59.71409 -24.0242,-111.55908 -78.0117,-137.58203 l 0.055,0.10743 c -12.1397,-7.67604 -26.2179,-14.20578 -42.6953,-19.31836 l -353.4902,-58.48633 c -32.6322,2.44647 -59.8552,9.97844 -109.4707,-3.54102 z"
     sodipodi:nodetypes="ccccccccccccccccccccsc" /><path
     style="fill:#aebdc4;fill-opacity:1;stroke:none;stroke-width:1px;stroke-linecap:butt;stroke-linejoin:miter;stroke-opacity:1"
     d="m 2493.0379,798.0587 c -2.0942,-2.70297 6.2337,-7.68259 30.235,-14.51907 l 395.7559,-135.08905 c 34.1848,-14.20952 37.0723,39.01903 37.5095,49.22035 l -0.1593,59.15097 c -2.2343,26.42999 7.4844,57.92307 -37.8481,77.79671 l -418.436,156.1737 -5.7799,-1.88996 z"
     id="path49884"
     sodipodi:nodetypes="ccccccccc" /><path
     style="fill:#a9b8bf;fill-opacity:1;stroke:none;stroke-width:1px;stroke-linecap:butt;stroke-linejoin:miter;stroke-opacity:1"
     d="m 1836.2163,214.68871 c 62.4873,-30.33077 118.409,28.8192 125.7961,93.84056 l 5.9663,333.58535 0.2174,34.7972 v 29.65577 l -0.337,19.15798 c 29.1687,220.5293 -49.1121,218.83405 -81.922,213.41452 z"
     id="path49890"
     sodipodi:nodetypes="cccccccc" /><path
     style="fill:#788186;fill-opacity:1;stroke:none;stroke-width:1px;stroke-linecap:butt;stroke-linejoin:miter;stroke-opacity:1"
     d="m 1885.9371,939.14009 436.9807,90.61241 c 120.0149,5.2272 118.9986,-199.9161 0.978,-238.46473 l -356.0367,-65.5622 2.8927,133.92082 c -15.5134,82.36058 -69.7911,78.49175 -84.8147,79.4937 z"
     id="path49892"
     sodipodi:nodetypes="cccccc" /><path
     style="fill:#a0afb6;fill-opacity:1;stroke:none;stroke-width:1px;stroke-linecap:butt;stroke-linejoin:miter;stroke-opacity:1"
     d="m 1895.0275,958.32312 430.7115,89.31518 c 26.9584,4.7513 90.7647,3.1944 103.2753,-111.68481 l 41.2824,-6.50145 c 20.2002,37.26872 -26.3443,151.85226 -139.4713,125.43856 l -422.4669,-88.86594 z"
     id="path49894"
     sodipodi:nodetypes="ccccccc" /><path
     style="fill:#a2afb7;fill-opacity:1;stroke:none;stroke-width:1px;stroke-linecap:butt;stroke-linejoin:miter;stroke-opacity:1"
     d="m 1968.1961,676.91182 v 29.65577 l 334.5861,61.54679 c 88.8158,14.73135 121.522,94.49882 125.2145,161.37683 l 39.9311,-5.2703 8.5888,-226.66138 z"
     id="path49896"
     sodipodi:nodetypes="ccccccc" /><path
     style="fill:#474c4f;fill-opacity:1;stroke:none;stroke-width:1px;stroke-linecap:butt;stroke-linejoin:miter;stroke-opacity:1"
     d="m 2879.865,774.9676 37.5579,-13.41006 c 4.002,-1.08648 7.408,-0.78691 8.3422,5.26144 v 17.1673 c -0.478,6.53038 -4.225,9.80312 -8.9762,12.07511 l -33.9489,12.91257 c -2.825,0.60764 -4.863,2.52778 -7.6146,-6.15006 -0.133,-3.45759 -2.2903,-20.17782 4.6396,-27.8563 z"
     id="path49898"
     sodipodi:nodetypes="cccccccc" /><path
     style="fill:#88959b;fill-opacity:1;stroke:none;stroke-width:1px;stroke-linecap:butt;stroke-linejoin:miter;stroke-opacity:1"
     d="m 2450.795,497.75805 36.0049,20.10651 73.4657,-16.56539 -62.0111,-17.06849 -41.0968,4.68101 z"
     id="path49900"
     sodipodi:nodetypes="cccccc" /><path
     style="fill:#cbd9df;fill-opacity:1;stroke:none;stroke-width:1px;stroke-linecap:butt;stroke-linejoin:miter;stroke-opacity:1"
     d="m 3028.5058,721.06639 5.9037,-4.48841 c -6.4629,-59.71427 -24.0259,-111.55947 -78.0134,-137.58248 z"
     id="path49902"
     sodipodi:nodetypes="cccc" /><path
     style="fill:#dce5ea;fill-opacity:1;stroke:none;stroke-width:1px;stroke-linecap:butt;stroke-linejoin:miter;stroke-opacity:1"
     d="m 3030.0176,725.37388 4.2613,-3.36687 c -10.241,64.3441 -20.7945,68.6224 -31.2945,83.17625 z"
     id="path49904"
     sodipodi:nodetypes="cccc" /><path
     style="fill:#b5c4cb;fill-opacity:1;stroke:none;stroke-width:1px;stroke-linecap:butt;stroke-linejoin:miter;stroke-opacity:1"
     d="M 1967.9787,642.11462 2450.795,497.75805 c 49.6158,13.51949 76.8384,5.98759 109.4706,3.54112 l 353.49,58.48653 c 84.7323,26.29072 107.6363,89.12 114.7502,161.28069 l -35.524,12.99314 c -6.352,-39.60801 -18.3616,-97.13998 -61.8509,-101.51082 l -431.5747,146.61617 c -8.7821,7.82231 -5.789,12.9288 -6.5183,18.89382 l 17.143,111.02797 -42.2531,15.13424 c -7.1112,-88.09307 -56.1632,-161.30934 -117.1413,-176.55734 l -382.5904,-70.75175 z"
     id="path49906"
     sodipodi:nodetypes="cccccccccccccc" /><path
     style="fill:#131313;fill-opacity:1;stroke:none;stroke-width:1px;stroke-linecap:butt;stroke-linejoin:miter;stroke-opacity:1"
     d="m 2877.4181,779.50203 31.5229,-11.80029 c 2.7786,-1.06838 4.7336,-0.44653 4.9258,3.79331 v 12.9336 c -0.1785,3.12961 -2.036,4.09826 -3.7194,5.29093 l -34.922,13.10432 c -0.1196,-6.71292 -1.5239,-15.88127 2.1927,-23.32187 z"
     id="path49908"
     sodipodi:nodetypes="ccccccc" /><path
     style="fill:#afbec5;fill-opacity:1;stroke:none;stroke-width:1px;stroke-linecap:butt;stroke-linejoin:miter;stroke-opacity:1"
     d="m 2514.9092,55.191008 c 76.3472,-16.672193 104.9301,56.609912 107.9604,88.345942 l 0.1027,368.13733 -18.1116,-2.99666 z"
     id="path49910"
     sodipodi:nodetypes="ccccc" /><path
     style="fill:#8a969c;fill-opacity:1;stroke:none;stroke-width:1px;stroke-linecap:butt;stroke-linejoin:miter;stroke-opacity:1"
     d="m 2450.795,497.75805 -0.5406,-370.91687 c 17.2445,-117.1375742 144.5387,-75.455058 153.6641,16.2935 l 0.9422,365.54294 c -51.799,-4.32239 -117.1379,-29.47039 -154.0657,-10.91957 z"
     id="path49912"
     sodipodi:nodetypes="ccccc" /><path
     style="fill:#b3c1c7;fill-opacity:1;stroke:none;stroke-width:1px;stroke-linecap:butt;stroke-linejoin:miter;stroke-opacity:1"
     d="m 2468.2967,929.45204 41.8053,-15.55443 -17.3643,82.49885 c 2.4236,0.55152 3.6533,1.75451 14.0493,-2.04433 l 411.2044,-154.42653 4.7067,7.30328 c 30.013,-15.08808 60.0757,-30.02042 70.0248,-107.9167 l 37.2947,-13.9383 c -8.5535,85.0292 -48.4969,108.67716 -105.2475,127.55157 l -512.4092,193.60525 c 39.0864,-27.8586 50.5467,-70.81022 55.9358,-117.07866 z"
     id="path49914"
     sodipodi:nodetypes="ccccccccccc" /><path
     style="fill:#e7e7e7;fill-opacity:1;stroke:none;stroke-width:1px;stroke-linecap:butt;stroke-linejoin:miter;stroke-opacity:1"
     d="m 2510.8469,811.69963 271.4086,-94.64532 v 126.67366 l -271.1352,100.86856 z"
     id="path49916" /><path
     style="fill:#5d5d5d;fill-opacity:1;stroke:none;stroke-width:1px;stroke-linecap:butt;stroke-linejoin:miter;stroke-opacity:1"
     d="m 2514.5141,816.99943 9.1439,-3.34686 v 13.3975 l -9.0977,3.72123 z"
     id="path49918"
     sodipodi:nodetypes="ccccc" /><path
     style="fill:#5d5d5d;fill-opacity:1;stroke:none;stroke-width:1px;stroke-linecap:butt;stroke-linejoin:miter;stroke-opacity:1"
     d="m 2588.9557,790.43872 9.1439,-3.34686 v 13.3975 l -9.0977,3.72123 z"
     id="path49920"
     sodipodi:nodetypes="ccccc" /><path
     style="fill:#5d5d5d;fill-opacity:1;stroke:none;stroke-width:1px;stroke-linecap:butt;stroke-linejoin:miter;stroke-opacity:1"
     d="m 2610.7081,782.79732 9.1439,-3.34686 v 13.3975 l -9.0977,3.72123 z"
     id="path49922"
     sodipodi:nodetypes="ccccc" /><path
     style="fill:#5d5d5d;fill-opacity:1;stroke:none;stroke-width:1px;stroke-linecap:butt;stroke-linejoin:miter;stroke-opacity:1"
     d="m 2766.7273,728.72192 9.1439,-3.34686 v 13.3975 l -9.0977,3.72123 z"
     id="path49924"
     sodipodi:nodetypes="ccccc" /><path
     style="fill:#5d5d5d;fill-opacity:1;stroke:none;stroke-width:1px;stroke-linecap:butt;stroke-linejoin:miter;stroke-opacity:1"
     d="m 2687.0216,756.63401 13.7215,-5.21104 -0.07,14.07207 -13.6049,4.91084 z"
     id="path49926"
     sodipodi:nodetypes="ccccc" /><path
     style="fill:#505050;fill-opacity:1;stroke:none;stroke-width:1px;stroke-linecap:butt;stroke-linejoin:miter;stroke-opacity:1"
     d="m 2519.4699,833.9977 72.7905,-25.84187 10e-4,21.54409 4.1637,-1.62116 0.043,27.22154 -3.6644,1.699 0.1545,22.75881 -16.3135,6.55066 -0.061,15.38676 -8.941,3.95419 0.2029,13.2638 -22.4013,7.91936 -0.3362,-12.38922 -8.6387,4.20674 -0.617,-18.52109 -16.7928,6.59167 -0.083,-23.0122 -3.2944,0.19163 0.053,-27.8949 4.179,-0.36679 z"
     id="path49928" /><path
     style="fill:#525252;fill-opacity:1;stroke:none;stroke-width:1px;stroke-linecap:butt;stroke-linejoin:miter;stroke-opacity:1"
     d="m 2616.2634,800.24048 70.1681,-25.32949 0.4707,21.31128 3.8278,-1.98836 v 28.14974 l -3.7193,1.10614 v 22.40041 l -16.0978,5.61657 v 16.7008 l -8.8655,2.97075 v 13.13517 l -21.8998,8.185 v -13.79377 l -8.5153,3.89175 v -17.6106 l -15.8449,6.90518 v -22.60814 l -3.2471,0.52504 V 821.3971 h 4.0552 z"
     id="path49930" /><path
     style="fill:#4a4a4a;fill-opacity:1;stroke:none;stroke-width:1px;stroke-linecap:butt;stroke-linejoin:miter;stroke-opacity:1"
     d="m 2697.6216,771.29247 69.4096,-24.87727 v 20.6798 l 3.8103,-0.88777 v 27.60575 h -3.6491 v 23.09768 l -14.9584,5.39588 v 16.66017 l -9.4742,2.5386 v 13.38908 l -19.9037,6.94984 v -12.52767 l -9.34,2.87017 v -15.65666 l -15.5999,5.30839 v -22.15181 l -2.5578,0.3081 v -27.25894 l 2.5914,-0.069 z"
     id="path49932" /><path
     style="fill:#dce0e7;fill-opacity:1;stroke:none;stroke-width:1px;stroke-linecap:butt;stroke-linejoin:miter;stroke-opacity:1"
     d="m 2804.396,704.30385 31.4491,-11.49342 v 124.30992 l -32.8342,12.82814 z"
     id="path49934"
     sodipodi:nodetypes="ccccc" /><path
     style="fill:#2e4162;fill-opacity:1;stroke:none;stroke-width:1px;stroke-linecap:butt;stroke-linejoin:miter;stroke-opacity:1"
     d="m 2807.4358,707.09813 25.0986,-9.65896 v 116.93974 l -26.9248,10.56803 z"
     id="path49936" /><path
     style="fill:#7290ce;fill-opacity:1;stroke:none;stroke-width:1px;stroke-linecap:butt;stroke-linejoin:miter;stroke-opacity:1"
     d="m 2810.763,708.90134 v 99.1975 l 6.8889,-2.55285 0.09,-97.54427 z"
     id="path49938" /><path
     style="fill:#2c3033;fill-opacity:1;stroke:none;stroke-width:1px;stroke-linecap:butt;stroke-linejoin:miter;stroke-opacity:1"
     d="m 2817.714,738.27961 h 8.379 v -18.97477 h -8.3615 z"
     id="path49940" /><path
     style="fill:#fcfbfd;fill-opacity:1;stroke:none;stroke-width:1px;stroke-linecap:butt;stroke-linejoin:miter;stroke-opacity:1"
     d="m 2817.7289,722.1312 c 7.1013,5.35238 3.5845,9.18691 -0.012,13.01003 z"
     id="path49942"
     sodipodi:nodetypes="ccc" /><path
     style="fill:#282d30;fill-opacity:1;stroke:none;stroke-width:1px;stroke-linecap:butt;stroke-linejoin:miter;stroke-opacity:1"
     d="m 2817.6857,768.94302 h 7.9807 v 20.79771 h -7.9999 z"
     id="path49944" /><path
     style="fill:#fcfbfd;fill-opacity:1;stroke:none;stroke-width:1px;stroke-linecap:butt;stroke-linejoin:miter;stroke-opacity:1"
     d="m 2817.682,772.89835 -0.012,12.72176 c 2.626,-3.36569 6.7703,-6.22474 0.012,-12.72176 z"
     id="path49946"
     sodipodi:nodetypes="ccc" /><path
     style="fill:#404547;fill-opacity:1;stroke:none;stroke-width:1px;stroke-linecap:butt;stroke-linejoin:miter;stroke-opacity:1"
     d="m 2113.0256,769.26315 -52.8505,82.36017 c -4.3022,5.99809 8.9713,5.78506 14.1378,6.66429 l 48.1803,-77.61406 c 2.3958,-3.4135 5.7156,-7.6606 1.9258,-9.81627 z"
     id="path49948"
     sodipodi:nodetypes="cccccc" /><path
     style="fill:#404547;fill-opacity:1;stroke:none;stroke-width:1px;stroke-linecap:butt;stroke-linejoin:miter;stroke-opacity:1"
     d="m 2143.4026,775.08076 -52.8506,82.36017 c -4.3022,5.99809 8.9714,5.78506 14.1379,6.66429 l 48.1803,-77.61406 c 2.3958,-3.4135 5.7156,-7.6606 1.9258,-9.81627 z"
     id="path49950"
     sodipodi:nodetypes="cccccc" /><path
     style="fill:#404547;fill-opacity:1;stroke:none;stroke-width:1px;stroke-linecap:butt;stroke-linejoin:miter;stroke-opacity:1"
     d="m 2174.7997,781.27738 -52.8506,82.36017 c -4.3022,5.99809 8.9714,5.78506 14.1379,6.66429 l 48.1803,-77.61406 c 2.3958,-3.4135 5.7156,-7.6606 1.9258,-9.81627 z"
     id="path49952"
     sodipodi:nodetypes="cccccc" /><path
     style="fill:#404547;fill-opacity:1;stroke:none;stroke-width:1px;stroke-linecap:butt;stroke-linejoin:miter;stroke-opacity:1"
     d="m 2205.8066,787.16372 -52.8506,82.36017 c -4.3022,5.99809 8.9714,5.78506 14.1379,6.66429 l 48.1803,-77.61406 c 2.3958,-3.4135 5.7156,-7.6606 1.9258,-9.81627 z"
     id="path49954"
     sodipodi:nodetypes="cccccc" /><path
     style="fill:#404547;fill-opacity:1;stroke:none;stroke-width:1px;stroke-linecap:butt;stroke-linejoin:miter;stroke-opacity:1"
     d="m 2237.2173,793.59207 -52.8505,82.36017 c -4.3022,5.99809 8.9713,5.78506 14.1378,6.66429 l 48.1803,-77.61406 c 2.3959,-3.4135 5.7157,-7.6606 1.9259,-9.81627 z"
     id="path49956"
     sodipodi:nodetypes="cccccc" /><path
     style="fill:#404547;fill-opacity:1;stroke:none;stroke-width:1px;stroke-linecap:butt;stroke-linejoin:miter;stroke-opacity:1"
     d="m 2268.654,799.25964 -52.8505,82.36017 c -4.3022,5.99809 8.9713,5.78506 14.1378,6.66429 l 48.1803,-77.61406 c 2.3959,-3.4135 5.7157,-7.6606 1.9259,-9.81627 z"
     id="path49958"
     sodipodi:nodetypes="cccccc" /><path
     style="fill:#404547;fill-opacity:1;stroke:none;stroke-width:1px;stroke-linecap:butt;stroke-linejoin:miter;stroke-opacity:1"
     d="m 2301.9021,804.64866 -52.8506,82.36017 c -3.575,5.47652 -4.5881,24.72596 0.4554,25.1404 l 61.8628,-96.09017 c 2.3958,-3.4135 5.7156,-7.6606 1.9258,-9.81627 z"
     id="path49960"
     sodipodi:nodetypes="cccccc" /><path
     style="fill:#404547;fill-opacity:1;stroke:none;stroke-width:1px;stroke-linecap:butt;stroke-linejoin:miter;stroke-opacity:1"
     d="m 2246.3418,944.4802 86.8414,-133.12499 c 3.9997,3.48055 13.8187,3.77671 8.9156,12.12906 l -90.4309,141.25375 c -5.077,6.02235 -5.9502,-4.22124 -5.3261,-20.25782 z"
     id="path49962"
     sodipodi:nodetypes="ccccc" /><path
     style="fill:#404547;fill-opacity:1;stroke:none;stroke-width:1px;stroke-linecap:butt;stroke-linejoin:miter;stroke-opacity:1"
     d="m 2266.9999,997.68251 102.3399,-158.79232 -6.5382,-7.75318 c -2.2412,-3.04166 -4.736,-2.52514 -7.564,2.66656 l -99.2526,151.62464 c -5.4629,7.93427 -3.1727,10.25083 -0.1294,12.0218 z"
     id="path49964"
     sodipodi:nodetypes="ccccccc" /><path
     style="fill:#404547;fill-opacity:1;stroke:none;stroke-width:1px;stroke-linecap:butt;stroke-linejoin:miter;stroke-opacity:1"
     d="m 2297.7882,1004.6553 89.226,-136.82954 c -3.6149,-4.23692 -5.042,-20.58244 -11.3533,-9.89515 l -88.7365,135.41947 c -2.6946,4.10456 -5.4603,8.46232 0.7271,10.34832 z"
     id="path49966"
     sodipodi:nodetypes="cccccc" /><path
     style="fill:#404547;fill-opacity:1;stroke:none;stroke-width:1px;stroke-linecap:butt;stroke-linejoin:miter;stroke-opacity:1"
     d="m 2396.0923,909.04247 -65.9526,101.68833 c -6.615,-1.8006 -20.9312,1.8118 -11.5147,-11.2566 l 71.1549,-107.98037 c 9.0778,-9.92026 5.2049,9.40339 6.3124,17.54864 z"
     id="path49968"
     sodipodi:nodetypes="ccccc" /><path
     style="fill:#404547;fill-opacity:1;stroke:none;stroke-width:1px;stroke-linecap:butt;stroke-linejoin:miter;stroke-opacity:1"
     d="m 2355.571,998.28821 39.2659,-59.46875 c 1.8397,-0.31366 4.3262,-2.49426 3.1802,5.80944 -3.6557,26.49537 -19.5597,44.23905 -36.4872,60.4485 -8.7004,2.6299 -9.7796,-0.2943 -5.9589,-6.78919 z"
     id="path49970"
     sodipodi:nodetypes="ccccc" /><path
     style="fill:#404547;fill-opacity:1;stroke:none;stroke-width:1px;stroke-linecap:butt;stroke-linejoin:miter;stroke-opacity:1"
     d="m 2006.7288,936.51957 22.8985,-35.48166 c 3.9225,4.50448 1.726,12.20917 2.4466,18.38821 l -14.7483,26.89307 c -5.3805,-1.31742 -14.6083,1.42243 -10.5968,-9.79962 z"
     id="path49972"
     sodipodi:nodetypes="ccccc" /><path
     style="fill:#404547;fill-opacity:1;stroke:none;stroke-width:1px;stroke-linecap:butt;stroke-linejoin:miter;stroke-opacity:1"
     d="m 1976.9968,932.2031 104.9338,-169.12628 c 5.9971,1.36628 16.3457,-0.40173 9.7768,10.01562 L 1987.513,941.13379 c -4.5421,-2.13201 -13.6443,-0.54748 -10.5162,-8.93069 z"
     id="path49974"
     sodipodi:nodetypes="ccccc" /><path
     style="fill:#404547;fill-opacity:1;stroke:none;stroke-width:1px;stroke-linecap:butt;stroke-linejoin:miter;stroke-opacity:1"
     d="m 1970.2137,783.71307 21.2808,-37.96111 c 5.9206,1.4161 14.933,0.96119 10.6327,8.56259 l -31.7987,49.97376 z"
     id="path49976"
     sodipodi:nodetypes="ccccc" /><path
     style="fill:#404547;fill-opacity:1;stroke:none;stroke-width:1px;stroke-linecap:butt;stroke-linejoin:miter;stroke-opacity:1"
     d="m 1970.2471,835.82405 50.3706,-85.18772 c 12.9913,0.27613 15.3939,3.95484 10.3141,10.03794 l -60.18,98.97212 z"
     id="path49978"
     sodipodi:nodetypes="ccccc" /><path
     style="fill:#404547;fill-opacity:1;stroke:none;stroke-width:1px;stroke-linecap:butt;stroke-linejoin:miter;stroke-opacity:1"
     d="m 1945.1013,929.0474 106.4022,-171.83109 c 5.8518,1.46921 15.8944,0.27849 11.2403,8.41601 l -103.9645,168.97737 c -5.9046,-0.45465 -12.2943,-0.40455 -13.678,-5.56229 z"
     id="path49980"
     sodipodi:nodetypes="ccccc" /><path
     style="fill:#26292a;fill-opacity:1;stroke:none;stroke-width:1px;stroke-linecap:butt;stroke-linejoin:miter;stroke-opacity:1"
     d="m 2074.4402,928.54608 21.0245,2.646 c 14.1826,-0.37031 19.2337,-33.55829 0.7691,-40.42952 l -20.7506,-4.08812 c -23.0777,0.67322 -16.6654,36.12454 -1.043,41.87164 z"
     id="path49982"
     sodipodi:nodetypes="ccccc" /><path
     style="fill:#282a2c;fill-opacity:1;stroke:none;stroke-width:1px;stroke-linecap:butt;stroke-linejoin:miter;stroke-opacity:1"
     d="m 2218.7187,909.35889 -52.2378,-10.28274 c -35.0755,8.76779 -20.8726,44.93712 -2.488,51.35696 l 54.0191,10.47531 c 2.1231,-1.80018 2.2389,-4.03334 0.7441,-6.61389 l -53.532,-10.5819 3.4292,-39.60427 50.4316,10.09249 c -0.046,-1.57251 0.9908,-2.55449 -0.3662,-4.84196 z"
     id="path49984"
     sodipodi:nodetypes="ccccccccc" /><ellipse
     style="fill:#859095;fill-opacity:1;stroke:none;stroke-width:1.03435;stroke-linecap:square;stroke-linejoin:round;stroke-miterlimit:0;stroke-dashoffset:262.44"
     id="ellipse49986"
     ry="18.972404"
     rx="13.858303"
     cy="924.72308"
     cx="2165.2256" /><ellipse
     style="fill:#828d92;fill-opacity:1;stroke:none;stroke-width:0.983483;stroke-linecap:square;stroke-linejoin:round;stroke-miterlimit:0;stroke-dashoffset:262.44"
     id="ellipse49988"
     cx="2090.9409"
     cy="910.21869"
     rx="17.215202"
     ry="19.276478" /><ellipse
     style="fill:#26292a;fill-opacity:1;stroke:none;stroke-width:0.232165;stroke-linecap:square;stroke-linejoin:round;stroke-miterlimit:0;stroke-dashoffset:262.44"
     id="ellipse49990"
     cx="2119.387"
     cy="915.51001"
     rx="4.0638938"
     ry="4.550487" /><path
     style="fill:#879399;fill-opacity:1;stroke:none;stroke-width:1px;stroke-linecap:butt;stroke-linejoin:miter;stroke-opacity:1"
     d="m 1787.1306,829.09126 -8.6022,-532.00016 c 12.533,-133.03748 141.9927,-89.30225 157.5986,15.06489 l 5.3163,535.94537 c 10.8865,104.80595 -122.9991,146.62079 -154.3127,-19.0101 z"
     id="path49992"
     sodipodi:nodetypes="ccccc" /></g></svg>
