<?xml version="1.0" encoding="UTF-8" standalone="no"?>
<!DOCTYPE svg PUBLIC "-//W3C//DTD SVG 1.1//EN" "http://www.w3.org/Graphics/SVG/1.1/DTD/svg11.dtd">
<svg width="100%" height="100%" viewBox="0 0 2000 2000" version="1.1" xmlns="http://www.w3.org/2000/svg" xmlns:xlink="http://www.w3.org/1999/xlink" xml:space="preserve" xmlns:serif="http://www.serif.com/" style="fill-rule:evenodd;clip-rule:evenodd;stroke-linecap:round;stroke-linejoin:round;stroke-miterlimit:1.5;">
    <g transform="matrix(1.09418,0,0,1.09418,-89.6239,-64.2088)">
        <g transform="matrix(1.07158,0,0,1.02114,-127.052,-31.3544)">
            <path d="M1820.43,633.088C1820.43,550.279 1756.37,483.05 1677.46,483.05L418.3,483.05C339.389,483.05 275.324,550.279 275.324,633.088L275.324,1333.27C275.324,1416.07 339.389,1483.3 418.3,1483.3L1677.46,1483.3C1756.37,1483.3 1820.43,1416.07 1820.43,1333.27L1820.43,633.088Z" style="fill:rgb(235,235,235);stroke:black;stroke-width:9.81px;"/>
        </g>
        <g transform="matrix(1.41802,0,0,3.10452,-423.946,-4290.67)">
            <path d="M1440.55,1585.32C1440.55,1575.88 1423.77,1568.22 1403.1,1568.22L599.237,1568.22C578.57,1568.22 561.79,1575.88 561.79,1585.32L561.79,1616.9C561.79,1626.34 578.57,1634 599.237,1634L1403.1,1634C1423.77,1634 1440.55,1626.34 1440.55,1616.9L1440.55,1585.32Z"/>
        </g>
        <g>
            <g transform="matrix(1,0,0,1.21405,1.65416,-156.356)">
                <ellipse cx="434.261" cy="732.676" rx="8.271" ry="6.795" style="fill:rgb(146,230,26);"/>
            </g>
            <g transform="matrix(1,0,0,1.21405,1.65416,-194.557)">
                <ellipse cx="434.261" cy="732.676" rx="8.271" ry="6.795" style="fill:rgb(146,230,26);"/>
            </g>
            <g transform="matrix(1,0,0,1.21405,1.65416,-232.759)">
                <ellipse cx="434.261" cy="732.676" rx="8.271" ry="6.795" style="fill:white;"/>
            </g>
            <g transform="matrix(1,0,0,1.21405,1.65416,-270.961)">
                <ellipse cx="434.261" cy="732.676" rx="8.271" ry="6.795" style="fill:white;"/>
            </g>
        </g>
        <g transform="matrix(1.5319,0,0,1.5319,-263.252,-383.405)">
            <g transform="matrix(16,0,0,16,523.536,738.181)">
                <path d="M0.077,-0L0.077,-0.716L0.347,-0.716C0.395,-0.716 0.431,-0.714 0.456,-0.709C0.491,-0.703 0.521,-0.692 0.544,-0.676C0.568,-0.659 0.587,-0.636 0.602,-0.606C0.616,-0.577 0.624,-0.544 0.624,-0.509C0.624,-0.448 0.604,-0.396 0.565,-0.354C0.527,-0.312 0.457,-0.291 0.355,-0.291L0.172,-0.291L0.172,-0L0.077,-0ZM0.172,-0.375L0.357,-0.375C0.418,-0.375 0.462,-0.387 0.487,-0.41C0.513,-0.432 0.526,-0.465 0.526,-0.506C0.526,-0.536 0.518,-0.561 0.503,-0.583C0.488,-0.604 0.468,-0.618 0.443,-0.625C0.427,-0.629 0.398,-0.631 0.355,-0.631L0.172,-0.631L0.172,-0.375Z" style="fill:white;fill-rule:nonzero;"/>
            </g>
            <g transform="matrix(16,0,0,16,534.208,738.181)">
                <path d="M0.202,-0L0.012,-0.716L0.109,-0.716L0.218,-0.247C0.23,-0.197 0.24,-0.149 0.249,-0.1C0.267,-0.177 0.278,-0.221 0.281,-0.232L0.417,-0.716L0.531,-0.716L0.634,-0.354C0.66,-0.264 0.678,-0.179 0.689,-0.1C0.699,-0.145 0.71,-0.197 0.725,-0.256L0.837,-0.716L0.933,-0.716L0.736,-0L0.645,-0L0.494,-0.545C0.481,-0.591 0.474,-0.619 0.472,-0.629C0.464,-0.597 0.457,-0.569 0.451,-0.545L0.299,-0L0.202,-0Z" style="fill:white;fill-rule:nonzero;"/>
            </g>
            <g transform="matrix(16,0,0,16,549.31,738.181)">
                <path d="M0.079,-0L0.079,-0.716L0.396,-0.716C0.46,-0.716 0.508,-0.709 0.542,-0.697C0.575,-0.684 0.601,-0.661 0.621,-0.628C0.641,-0.596 0.651,-0.56 0.651,-0.521C0.651,-0.47 0.634,-0.427 0.602,-0.392C0.569,-0.357 0.518,-0.335 0.449,-0.326C0.474,-0.314 0.493,-0.302 0.506,-0.29C0.534,-0.265 0.56,-0.233 0.585,-0.195L0.709,-0L0.59,-0L0.496,-0.149C0.468,-0.192 0.445,-0.225 0.427,-0.248C0.409,-0.27 0.393,-0.286 0.379,-0.295C0.365,-0.305 0.351,-0.311 0.336,-0.314C0.325,-0.317 0.308,-0.318 0.283,-0.318L0.173,-0.318L0.173,-0L0.079,-0ZM0.173,-0.4L0.377,-0.4C0.42,-0.4 0.454,-0.404 0.479,-0.413C0.503,-0.422 0.521,-0.437 0.534,-0.456C0.547,-0.476 0.553,-0.497 0.553,-0.521C0.553,-0.554 0.541,-0.582 0.516,-0.604C0.492,-0.626 0.453,-0.637 0.4,-0.637L0.173,-0.637L0.173,-0.4Z" style="fill:white;fill-rule:nonzero;"/>
            </g>
        </g>
        <g transform="matrix(1.8976,0,0,1.8976,-879.71,-2366.17)">
            <g transform="matrix(1.15563,0,0,1.34446,-133.304,-558.295)">
                <ellipse cx="775.587" cy="1607.87" rx="15.997" ry="13.761" style="fill:none;stroke:rgb(146,230,26);stroke-width:2.31px;"/>
            </g>
            <g transform="matrix(0.807409,0,0,0.807409,105.934,311.238)">
                <path d="M813.379,1567.44L813.518,1590.5" style="fill:none;stroke:rgb(146,230,26);stroke-width:3.58px;"/>
            </g>
        </g>
        <g transform="matrix(1.5319,0,0,1.5319,-91.5012,-383.405)">
            <g transform="matrix(16,0,0,16,523.536,738.181)">
                <path d="M0.202,-0L0.012,-0.716L0.109,-0.716L0.218,-0.247C0.23,-0.197 0.24,-0.149 0.249,-0.1C0.267,-0.177 0.278,-0.221 0.281,-0.232L0.417,-0.716L0.531,-0.716L0.634,-0.354C0.66,-0.264 0.678,-0.179 0.689,-0.1C0.699,-0.145 0.71,-0.197 0.725,-0.256L0.837,-0.716L0.933,-0.716L0.736,-0L0.645,-0L0.494,-0.545C0.481,-0.591 0.474,-0.619 0.472,-0.629C0.464,-0.597 0.457,-0.569 0.451,-0.545L0.299,-0L0.202,-0Z" style="fill:white;fill-rule:nonzero;"/>
            </g>
            <g transform="matrix(16,0,0,16,538.044,738.181)">
                <path d="M-0.001,-0L0.273,-0.716L0.375,-0.716L0.668,-0L0.561,-0L0.477,-0.217L0.178,-0.217L0.099,-0L-0.001,-0ZM0.205,-0.294L0.448,-0.294L0.373,-0.492C0.35,-0.552 0.333,-0.602 0.322,-0.641C0.313,-0.595 0.3,-0.549 0.284,-0.504L0.205,-0.294Z" style="fill:white;fill-rule:nonzero;"/>
            </g>
            <g transform="matrix(16,0,0,16,548.716,738.181)">
                <path d="M0.076,-0L0.076,-0.716L0.173,-0.716L0.549,-0.154L0.549,-0.716L0.64,-0.716L0.64,-0L0.543,-0L0.167,-0.563L0.167,-0L0.076,-0Z" style="fill:white;fill-rule:nonzero;"/>
            </g>
        </g>
        <g transform="matrix(0.528953,0,0,0.597205,332.128,260.658)">
            <ellipse cx="771.161" cy="683.371" rx="69.949" ry="61.955" style="fill:none;"/>
            <clipPath id="_clip1">
                <ellipse cx="771.161" cy="683.371" rx="69.949" ry="61.955"/>
            </clipPath>
            <g clip-path="url(#_clip1)">
                <g transform="matrix(0.787419,0,0,0.752109,180.628,269.323)">
                    <rect x="653.139" y="518.051" width="196.551" height="76.318" style="fill:none;stroke:rgb(146,230,26);stroke-width:9px;"/>
                </g>
                <g transform="matrix(0.597714,0,0,1,310.227,0)">
                    <ellipse cx="771.161" cy="683.371" rx="69.949" ry="61.955" style="fill:none;stroke:rgb(146,230,26);stroke-width:8.16px;"/>
                </g>
            </g>
            <ellipse cx="771.161" cy="683.371" rx="69.949" ry="61.955" style="fill:none;stroke:rgb(146,230,26);stroke-width:6.91px;"/>
        </g>
        <g transform="matrix(1.5319,0,0,1.5319,81.2906,-383.405)">
            <g transform="matrix(16,0,0,16,523.536,738.181)">
                <path d="M0.073,-0L0.073,-0.716L0.168,-0.716L0.168,-0.084L0.521,-0.084L0.521,-0L0.073,-0Z" style="fill:white;fill-rule:nonzero;"/>
            </g>
            <g transform="matrix(16,0,0,16,532.435,738.181)">
                <path d="M-0.001,-0L0.273,-0.716L0.375,-0.716L0.668,-0L0.561,-0L0.477,-0.217L0.178,-0.217L0.099,-0L-0.001,-0ZM0.205,-0.294L0.448,-0.294L0.373,-0.492C0.35,-0.552 0.333,-0.602 0.322,-0.641C0.313,-0.595 0.3,-0.549 0.284,-0.504L0.205,-0.294Z" style="fill:white;fill-rule:nonzero;"/>
            </g>
            <g transform="matrix(16,0,0,16,543.107,738.181)">
                <path d="M0.076,-0L0.076,-0.716L0.173,-0.716L0.549,-0.154L0.549,-0.716L0.64,-0.716L0.64,-0L0.543,-0L0.167,-0.563L0.167,-0L0.076,-0Z" style="fill:white;fill-rule:nonzero;"/>
            </g>
        </g>
        <g transform="matrix(1.58479,0,0,1.58479,-555.971,-1868.98)">
            <g transform="matrix(0.677966,0,0,1,261.158,-6)">
                <rect x="966.653" y="1583.68" width="20.607" height="11.351" style="fill:none;stroke:rgb(146,230,26);stroke-width:2.49px;"/>
            </g>
            <g transform="matrix(1.00001,0.00121782,0.00121782,1.12544,-53.9699,-202.896)">
                <path d="M963.429,1613.56L963.317,1602.05" style="fill:none;stroke:rgb(146,230,26);stroke-width:0.98px;"/>
            </g>
            <g transform="matrix(1.00001,0.00121782,0.00121782,1.12544,-30.9699,-202.896)">
                <path d="M963.429,1613.56L963.317,1602.05" style="fill:none;stroke:rgb(146,230,26);stroke-width:0.98px;"/>
            </g>
            <g transform="matrix(1.00001,0.00121782,0.00121782,1.12544,-41.9699,-214.896)">
                <path d="M963.429,1613.56L963.317,1602.05" style="fill:none;stroke:rgb(146,230,26);stroke-width:0.98px;"/>
            </g>
            <g transform="matrix(0.677966,0,0,1,248.759,29.9106)">
                <rect x="966.653" y="1583.68" width="20.607" height="11.351" style="fill:none;stroke:rgb(146,230,26);stroke-width:2.49px;"/>
            </g>
            <g transform="matrix(0.677966,0,0,1,272.684,29.9106)">
                <rect x="966.653" y="1583.68" width="20.607" height="11.351" style="fill:none;stroke:rgb(146,230,26);stroke-width:2.49px;"/>
            </g>
            <g transform="matrix(1.02778e-16,-1.6785,1.6785,1.02778e-16,-1726.8,2967.34)">
                <path d="M813.379,1567.44L813.518,1590.5" style="fill:none;stroke:rgb(146,230,26);stroke-width:2.06px;"/>
            </g>
        </g>
        <g transform="matrix(1.5319,0,0,1.5319,247.837,-383.405)">
            <g transform="matrix(16,0,0,16,523.536,738.181)">
                <path d="M0.202,-0L0.012,-0.716L0.109,-0.716L0.218,-0.247C0.23,-0.197 0.24,-0.149 0.249,-0.1C0.267,-0.177 0.278,-0.221 0.281,-0.232L0.417,-0.716L0.531,-0.716L0.634,-0.354C0.66,-0.264 0.678,-0.179 0.689,-0.1C0.699,-0.145 0.71,-0.197 0.725,-0.256L0.837,-0.716L0.933,-0.716L0.736,-0L0.645,-0L0.494,-0.545C0.481,-0.591 0.474,-0.619 0.472,-0.629C0.464,-0.597 0.457,-0.569 0.451,-0.545L0.299,-0L0.202,-0Z" style="fill:white;fill-rule:nonzero;"/>
            </g>
            <g transform="matrix(16,0,0,16,538.638,738.181)">
                <rect x="0.093" y="-0.716" width="0.095" height="0.716" style="fill:white;fill-rule:nonzero;"/>
            </g>
            <g transform="matrix(16,0,0,16,543.083,738.181)">
                <path d="M0.082,-0L0.082,-0.716L0.565,-0.716L0.565,-0.631L0.177,-0.631L0.177,-0.41L0.513,-0.41L0.513,-0.325L0.177,-0.325L0.177,-0L0.082,-0Z" style="fill:white;fill-rule:nonzero;"/>
            </g>
            <g transform="matrix(16,0,0,16,552.857,738.181)">
                <rect x="0.093" y="-0.716" width="0.095" height="0.716" style="fill:white;fill-rule:nonzero;"/>
            </g>
        </g>
        <g transform="matrix(2.47392,-4.90105e-17,4.90105e-17,-2.87412,-1492.88,2590.86)">
            <path d="M1018.51,680.789C1025.36,686.34 1028.17,686.327 1037.85,686.327C1047.53,686.327 1047.92,687.036 1054.77,681.484L1037.85,656.726L1018.51,680.789Z" style="fill:none;"/>
            <clipPath id="_clip2">
                <path d="M1018.51,680.789C1025.36,686.34 1028.17,686.327 1037.85,686.327C1047.53,686.327 1047.92,687.036 1054.77,681.484L1037.85,656.726L1018.51,680.789Z"/>
            </clipPath>
            <g clip-path="url(#_clip2)">
                <g transform="matrix(0.664549,-1.13321e-17,1.37454e-17,-0.693833,340.992,1121.69)">
                    <ellipse cx="1048.52" cy="686.516" rx="54.906" ry="45.266" style="fill:none;stroke:rgb(146,230,26);stroke-width:6px;"/>
                </g>
                <g transform="matrix(0.508326,-8.66814e-18,9.3507e-18,-0.471999,505.01,971.947)">
                    <ellipse cx="1048.52" cy="686.516" rx="54.906" ry="45.266" style="fill:none;stroke:rgb(146,230,26);stroke-width:8.38px;"/>
                </g>
                <g transform="matrix(0.320534,-5.46585e-18,5.49163e-18,-0.277203,701.912,839.499)">
                    <ellipse cx="1048.52" cy="686.516" rx="54.906" ry="45.266" style="fill:rgb(146,230,26);stroke:rgb(146,230,26);stroke-width:9.58px;"/>
                </g>
            </g>
        </g>
        <g transform="matrix(1.5319,0,0,1.5319,408.138,-383.106)">
            <g transform="matrix(16,0,0,16,523.536,738.181)">
                <path d="M0.042,-0.189L0.13,-0.201C0.14,-0.151 0.157,-0.115 0.181,-0.093C0.206,-0.071 0.235,-0.06 0.27,-0.06C0.311,-0.06 0.346,-0.074 0.375,-0.103C0.403,-0.132 0.417,-0.167 0.417,-0.209C0.417,-0.25 0.404,-0.283 0.378,-0.309C0.352,-0.336 0.318,-0.349 0.277,-0.349C0.261,-0.349 0.24,-0.345 0.215,-0.339L0.225,-0.416C0.231,-0.415 0.236,-0.415 0.239,-0.415C0.277,-0.415 0.31,-0.425 0.34,-0.444C0.37,-0.464 0.385,-0.494 0.385,-0.535C0.385,-0.567 0.374,-0.594 0.353,-0.615C0.331,-0.636 0.303,-0.646 0.268,-0.646C0.234,-0.646 0.205,-0.636 0.183,-0.614C0.16,-0.593 0.145,-0.561 0.139,-0.518L0.051,-0.533C0.062,-0.592 0.086,-0.638 0.124,-0.67C0.162,-0.703 0.209,-0.719 0.266,-0.719C0.305,-0.719 0.341,-0.71 0.374,-0.694C0.407,-0.677 0.432,-0.654 0.449,-0.625C0.467,-0.596 0.476,-0.565 0.476,-0.533C0.476,-0.502 0.467,-0.474 0.451,-0.448C0.434,-0.423 0.41,-0.403 0.377,-0.388C0.419,-0.378 0.452,-0.358 0.476,-0.327C0.499,-0.296 0.511,-0.258 0.511,-0.211C0.511,-0.149 0.488,-0.096 0.442,-0.052C0.397,-0.009 0.339,0.013 0.27,0.013C0.207,0.013 0.155,-0.006 0.113,-0.043C0.072,-0.081 0.048,-0.129 0.042,-0.189Z" style="fill:white;fill-rule:nonzero;"/>
            </g>
            <g transform="matrix(16,0,0,16,532.435,738.181)">
                <path d="M0.412,-0.281L0.412,-0.365L0.715,-0.365L0.715,-0.1C0.669,-0.063 0.621,-0.035 0.571,-0.016C0.522,0.003 0.471,0.012 0.419,0.012C0.349,0.012 0.285,-0.003 0.227,-0.033C0.17,-0.063 0.126,-0.107 0.097,-0.164C0.068,-0.221 0.053,-0.284 0.053,-0.354C0.053,-0.424 0.068,-0.489 0.097,-0.55C0.126,-0.61 0.168,-0.655 0.223,-0.684C0.277,-0.713 0.34,-0.728 0.412,-0.728C0.463,-0.728 0.51,-0.72 0.552,-0.703C0.594,-0.686 0.627,-0.663 0.65,-0.633C0.674,-0.603 0.692,-0.564 0.705,-0.516L0.619,-0.492C0.608,-0.529 0.595,-0.557 0.579,-0.578C0.563,-0.599 0.54,-0.616 0.511,-0.628C0.481,-0.641 0.448,-0.647 0.412,-0.647C0.369,-0.647 0.331,-0.64 0.3,-0.627C0.268,-0.614 0.243,-0.597 0.223,-0.575C0.204,-0.554 0.189,-0.53 0.178,-0.504C0.16,-0.46 0.151,-0.412 0.151,-0.36C0.151,-0.297 0.162,-0.243 0.184,-0.2C0.206,-0.157 0.238,-0.125 0.28,-0.104C0.322,-0.084 0.366,-0.073 0.414,-0.073C0.455,-0.073 0.495,-0.081 0.534,-0.097C0.573,-0.113 0.602,-0.13 0.623,-0.147L0.623,-0.281L0.412,-0.281Z" style="fill:white;fill-rule:nonzero;"/>
            </g>
            <g transform="matrix(16,0,0,16,544.88,738.181)">
                <path d="M0,0.012L0.208,-0.728L0.278,-0.728L0.071,0.012L0,0.012Z" style="fill:white;fill-rule:nonzero;"/>
            </g>
            <g transform="matrix(16,0,0,16,549.325,738.181)">
                <path d="M0.323,-0L0.323,-0.171L0.013,-0.171L0.013,-0.252L0.339,-0.716L0.411,-0.716L0.411,-0.252L0.508,-0.252L0.508,-0.171L0.411,-0.171L0.411,-0L0.323,-0ZM0.323,-0.252L0.323,-0.575L0.099,-0.252L0.323,-0.252Z" style="fill:white;fill-rule:nonzero;"/>
            </g>
            <g transform="matrix(16,0,0,16,558.224,738.181)">
                <path d="M0.412,-0.281L0.412,-0.365L0.715,-0.365L0.715,-0.1C0.669,-0.063 0.621,-0.035 0.571,-0.016C0.522,0.003 0.471,0.012 0.419,0.012C0.349,0.012 0.285,-0.003 0.227,-0.033C0.17,-0.063 0.126,-0.107 0.097,-0.164C0.068,-0.221 0.053,-0.284 0.053,-0.354C0.053,-0.424 0.068,-0.489 0.097,-0.55C0.126,-0.61 0.168,-0.655 0.223,-0.684C0.277,-0.713 0.34,-0.728 0.412,-0.728C0.463,-0.728 0.51,-0.72 0.552,-0.703C0.594,-0.686 0.627,-0.663 0.65,-0.633C0.674,-0.603 0.692,-0.564 0.705,-0.516L0.619,-0.492C0.608,-0.529 0.595,-0.557 0.579,-0.578C0.563,-0.599 0.54,-0.616 0.511,-0.628C0.481,-0.641 0.448,-0.647 0.412,-0.647C0.369,-0.647 0.331,-0.64 0.3,-0.627C0.268,-0.614 0.243,-0.597 0.223,-0.575C0.204,-0.554 0.189,-0.53 0.178,-0.504C0.16,-0.46 0.151,-0.412 0.151,-0.36C0.151,-0.297 0.162,-0.243 0.184,-0.2C0.206,-0.157 0.238,-0.125 0.28,-0.104C0.322,-0.084 0.366,-0.073 0.414,-0.073C0.455,-0.073 0.495,-0.081 0.534,-0.097C0.573,-0.113 0.602,-0.13 0.623,-0.147L0.623,-0.281L0.412,-0.281Z" style="fill:white;fill-rule:nonzero;"/>
            </g>
        </g>
        <g transform="matrix(1,0,0,1,7.24809,-3.16934)">
            <g transform="matrix(0.818182,0,0,0.577499,218.237,301.535)">
                <rect x="1200.31" y="659.544" width="18.76" height="54.148" style="fill:rgb(146,230,26);"/>
            </g>
            <g transform="matrix(0.818182,0,0,0.854866,240.55,103.581)">
                <rect x="1200.31" y="659.544" width="18.76" height="54.148" style="fill:rgb(146,230,26);"/>
            </g>
            <g transform="matrix(0.818182,0,0,1.15481,262.863,-110.486)">
                <rect x="1200.31" y="659.544" width="18.76" height="54.148" style="fill:rgb(146,230,26);"/>
            </g>
            <g transform="matrix(0.818182,0,0,1.61601,285.176,-439.643)">
                <rect x="1200.31" y="659.544" width="18.76" height="54.148" style="fill:rgb(146,230,26);"/>
            </g>
        </g>
    </g>
</svg>
