<?xml version="1.0" encoding="UTF-8" standalone="no"?>
<svg
   width="100%"
   height="100%"
   viewBox="0 0 1280 1150"
   version="1.1"
   xml:space="preserve"
   style="fill-rule:evenodd;clip-rule:evenodd;stroke-linecap:round;stroke-linejoin:round;stroke-miterlimit:1.41421;"
   id="svg37"
   sodipodi:docname="gl-inet-gl-ar750.svg"
   inkscape:version="1.2.2 (1:1.2.2+202212051552+b0a8486541)"
   xmlns:inkscape="http://www.inkscape.org/namespaces/inkscape"
   xmlns:sodipodi="http://sodipodi.sourceforge.net/DTD/sodipodi-0.dtd"
   xmlns="http://www.w3.org/2000/svg"
   xmlns:svg="http://www.w3.org/2000/svg"><defs
   id="defs41" /><sodipodi:namedview
   id="namedview39"
   pagecolor="#ffffff"
   bordercolor="#666666"
   borderopacity="1.0"
   inkscape:showpageshadow="2"
   inkscape:pageopacity="0.0"
   inkscape:pagecheckerboard="0"
   inkscape:deskcolor="#d1d1d1"
   showgrid="false"
   inkscape:zoom="0.41043478"
   inkscape:cx="-26.800848"
   inkscape:cy="881.99153"
   inkscape:window-width="2560"
   inkscape:window-height="1372"
   inkscape:window-x="0"
   inkscape:window-y="0"
   inkscape:window-maximized="0"
   inkscape:current-layer="g17388" />
    
<g
   id="g17388"><g
     id="g17413"
     transform="translate(1566.0116,-7.6526523)"><path
       style="fill:#afb5bb;fill-opacity:1;stroke:none;stroke-width:1px;stroke-linecap:butt;stroke-linejoin:miter;stroke-opacity:1"
       d="m -482.11025,1008.4981 c 6.3804,-10.88945 10.7287,-23.72297 6.9875,-44.29603 l -617.43415,118.39053 c -5.7655,11.0042 3.4024,11.6447 12.2754,12.4899 l 566.25735,-71.0679 c 11.2384,-2.0694 21.6638,-8.3401 31.9139,-15.5165 z"
       id="path17252"
       sodipodi:nodetypes="cccccc" /><path
       style="fill:#aab2bb;fill-opacity:1;stroke:none;stroke-width:1px;stroke-linecap:butt;stroke-linejoin:miter;stroke-opacity:1"
       d="m -601.61007,1020.2922 77.60342,-9.2068 c 22.5807,-3.3664 32.2235,-22.70612 48.8839,-46.88333 l 61.2291,-78.24523 -552.44841,62.56058 c -22.47928,2.28862 -49.80944,-4.93522 -57.12734,27.0847 l -84.3718,108.92998 z"
       id="path17254"
       sodipodi:nodetypes="cccccccc" /><path
       style="fill:#6c7a89;fill-opacity:1;stroke:none;stroke-width:1px;stroke-linecap:butt;stroke-linejoin:miter;stroke-opacity:1"
       d="m -1006.6741,961.28704 566.72195,-65.12857 26.0585,-10.20163 -571.92876,60.39028 z"
       id="path17256" /><path
       style="fill:#acb4bd;fill-opacity:1;stroke:none;stroke-width:1px;stroke-linecap:butt;stroke-linejoin:miter;stroke-opacity:1"
       d="m -1485.4253,233.99288 c -4.3521,10.01082 -3.2949,16.73382 -1.3172,22.79334 l 368.7744,820.34388 c 11.226,23.7859 20.6905,24.5611 30.0477,23.9339 l 17.0999,-1.1106 c -10.3661,-6.1717 -29.6595,-10.8302 -19.1026,-27.5215 l 66.4537,-96.82978 c 7.8729,-11.52567 29.89448,-24.09013 57.12734,-27.0847 l 561.88501,-63.6292 c 8.6528,-0.80527 60.624,-19.65929 33.1243,-88.07986 z"
       id="path17258"
       sodipodi:nodetypes="ccccccccccc" /><path
       style="fill:#d6dce4;fill-opacity:1;stroke:none;stroke-width:1px;stroke-linecap:butt;stroke-linejoin:miter;stroke-opacity:1"
       d="m -1485.4253,233.99288 59.3897,-106.22771 384.1942,844.29591 -66.7733,100.55992 z"
       id="path17260"
       sodipodi:nodetypes="ccccc" /><ellipse
       style="fill:#6d8197;fill-opacity:1;stroke:none;stroke-linecap:square;stroke-linejoin:round;stroke-miterlimit:0;stroke-dashoffset:262.44"
       id="ellipse17262"
       cx="-1342.2817"
       cy="489.77719"
       rx="2.7171931"
       ry="3.8590469" /><ellipse
       style="fill:#6d8197;fill-opacity:1;stroke:none;stroke-linecap:square;stroke-linejoin:round;stroke-miterlimit:0;stroke-dashoffset:262.44"
       id="ellipse17264"
       cx="-1285.9176"
       cy="614.13562"
       rx="2.7171931"
       ry="3.8590469" /><ellipse
       style="fill:#6d8197;fill-opacity:1;stroke:none;stroke-linecap:square;stroke-linejoin:round;stroke-miterlimit:0;stroke-dashoffset:262.44"
       id="ellipse17266"
       cx="-1228.5905"
       cy="740.44299"
       rx="2.7171931"
       ry="3.8590469" /><path
       style="fill:#fbfbfb;fill-opacity:1;stroke:none;stroke-width:1px;stroke-linecap:butt;stroke-linejoin:miter;stroke-opacity:1"
       d="m -1426.0356,127.76517 c 16.5438,-21.77529 38.8197,-31.315494 63.6515,-35.399973 l 556.48551,-28.249266 c 61.87659,4.735848 80.87745,39.778979 93.30745,58.551769 l 341.25839,674.14066 c 23.3778,53.17077 -22.3292,72.63676 -55.7618,76.09051 l -554.04523,59.38269 c -13.51581,1.47728 -38.29552,14.48222 -60.70162,39.77952 z"
       id="path17268"
       sodipodi:nodetypes="ccccccccc" /><path
       style="fill:#6c7a89;fill-opacity:1;stroke:none;stroke-width:1px;stroke-linecap:butt;stroke-linejoin:miter;stroke-opacity:1"
       d="m -1054.0631,1020.1802 200.43888,-23.95752 c 13.84245,-1.00395 6.64188,2.98732 -3.42717,7.65952 l -201.85421,23.3541 z"
       id="path17270"
       sodipodi:nodetypes="ccccc" /><path
       style="fill:#6c7a89;fill-opacity:1;stroke:none;stroke-width:1px;stroke-linecap:butt;stroke-linejoin:miter;stroke-opacity:1"
       d="m -1068.6655,1041.4574 178.11363,-21.1646 c 11.59409,-0.5773 11.44132,2.0206 -2.36373,8.3087 l -181.3048,20.95 z"
       id="path17272"
       sodipodi:nodetypes="ccccc" /><path
       style="fill:#6c7a89;fill-opacity:1;stroke:none;stroke-width:1px;stroke-linecap:butt;stroke-linejoin:miter;stroke-opacity:1"
       d="m -1084.4661,1064.4804 196.84518,-24.3158 c 14.00726,-2.2074 12.19397,0.9736 -1.4771,8.1934 l -200.82508,24.0739 z"
       id="path17274"
       sodipodi:nodetypes="ccccc" /><path
       style="fill:#6c7a89;fill-opacity:1;stroke:none;stroke-width:1px;stroke-linecap:butt;stroke-linejoin:miter;stroke-opacity:1"
       d="m -1038.1373,996.97477 576.48255,-66.95835 22.0043,-11.14478 c -10.3154,6.8412 -16.266,17.38633 -30.1684,19.75375 l -574.56605,67.45271 z"
       id="path17276"
       sodipodi:nodetypes="cccccc" /><path
       style="fill:#6c7a89;fill-opacity:1;stroke:none;stroke-width:1px;stroke-linecap:butt;stroke-linejoin:miter;stroke-opacity:1"
       d="m -1023.4694,975.60212 578.79455,-67.38678 21.8541,-10.85048 c -7.7769,7.23524 -14.3067,16.44921 -27.1841,18.76599 l -578.85505,67.32574 z"
       id="path17278"
       sodipodi:nodetypes="cccccc" /><path
       style="fill:#6c7a89;fill-opacity:1;stroke:none;stroke-width:1px;stroke-linecap:butt;stroke-linejoin:miter;stroke-opacity:1"
       d="m -556.03805,1007.2034 38.5765,-3.3735 c 14.5578,-3.91859 22.8542,-15.38493 32.6399,-25.05603 -8.9325,5.81398 -16.5767,14.46117 -27.2301,16.49073 l -42.6562,4.7476 c -6.01315,0.7541 -10.29921,6.7941 -1.3301,7.1912 z"
       id="path17280"
       sodipodi:nodetypes="cccccc" /><path
       style="fill:#6c7a89;fill-opacity:1;stroke:none;stroke-width:1px;stroke-linecap:butt;stroke-linejoin:miter;stroke-opacity:1"
       d="m -522.34675,983.91677 c -5.8805,-0.33945 -6.2251,-5.82016 4.2126,-7.71426 14.8193,-1.57117 29.7114,-2.77595 43.0114,-12.00044 -5.2993,5.41604 -2.3166,11.07222 -19.7011,16.13785 z"
       id="path17282"
       sodipodi:nodetypes="ccccc" /><path
       style="fill:#6c7a89;fill-opacity:1;stroke:none;stroke-width:1px;stroke-linecap:butt;stroke-linejoin:miter;stroke-opacity:1"
       d="m -520.21665,956.89579 31.1557,-3.28132 c 11.9455,-1.33191 20.8059,-6.61149 30.5218,-10.79648 -9.7013,7.06083 -18.0109,15.91396 -31.4546,18.15545 l -34.0253,4.00187 c -4.335,-0.17657 -11.1806,-4.95465 3.8024,-8.07952 z"
       id="path17284"
       sodipodi:nodetypes="cccccc" /><path
       style="fill:#67727e;fill-opacity:1;stroke:none;stroke-width:1px;stroke-linecap:butt;stroke-linejoin:miter;stroke-opacity:1"
       d="m -801.49882,1008.551 c 4.67791,-5.5006 10.51042,-13.10062 32.08675,-16.41613 l 19.52955,-1.29837 c 10.44599,0.49397 6.72575,9.05508 4.53558,12.4267 -9.60507,11.5258 -26.94195,11.2751 -41.89356,16.3118 -10.81062,2.6654 -20.09848,-2.488 -14.25832,-11.024 z"
       id="path17286"
       sodipodi:nodetypes="cccccc" /><ellipse
       style="fill:#afb6be;fill-opacity:1;stroke:none;stroke-width:1.21595;stroke-linecap:square;stroke-linejoin:round;stroke-miterlimit:0;stroke-dashoffset:262.44"
       id="ellipse17288"
       cx="-1258.2366"
       cy="622.51184"
       rx="22.836945"
       ry="13.157922"
       transform="matrix(0.91457092,-0.40442555,0.59870395,0.8009704,0,0)" /><path
       style="fill:#6c7a89;fill-opacity:1;stroke:none;stroke-width:1px;stroke-linecap:butt;stroke-linejoin:miter;stroke-opacity:1"
       d="m -591.93273,969.30258 c 4.28085,0.46262 3.42645,1.46401 0.31506,2.70219 l -64.75198,6.97136 c -3.2196,7.80077 -2.05615,22.63227 5.54053,22.25027 7.88843,-0.3966 21.97689,-3.17327 37.69816,-4.7206 3.97553,0.0758 6.28907,0.41067 0.29113,2.0408 l -62.43634,8.3725 c -6.38675,0.2409 -13.90785,-4.1538 -8.71887,-12.82014 6.09795,-10.08661 15.94645,-16.25167 30.04221,-17.97583 z"
       id="path17290"
       sodipodi:nodetypes="cccscccccc" /><ellipse
       style="fill:#afb6be;fill-opacity:1;stroke:none;stroke-width:1.21595;stroke-linecap:square;stroke-linejoin:round;stroke-miterlimit:0;stroke-dashoffset:262.44"
       id="ellipse17292"
       cx="-1152.3447"
       cy="655.93506"
       rx="22.836945"
       ry="13.157922"
       transform="matrix(0.91457092,-0.40442555,0.59870395,0.8009704,0,0)" /><path
       style="fill:#adb4bd;fill-opacity:1;stroke:none;stroke-width:1px;stroke-linecap:butt;stroke-linejoin:miter;stroke-opacity:1"
       d="m -1070.8205,1099.9534 560.29805,-70.1683 c 12.8707,-3.9331 22.2203,-11.1414 28.4122,-21.287 -9.7502,7.0022 -19.9682,13.0402 -31.9139,15.5165 l -566.25735,71.0679 z"
       id="path17294"
       sodipodi:nodetypes="cccccc" /><path
       id="path17320"
       style="fill:none;fill-opacity:1;stroke:#000000;stroke-width:1px;stroke-linecap:butt;stroke-linejoin:miter;stroke-opacity:1"
       d="m -805.89844,64.115234 -556.48636,28.25 c -24.8317,4.084475 -47.1066,13.625126 -63.6504,35.400386 l -59.3906,106.22657 c -4.3521,10.01081 -3.2941,16.73541 -1.3164,22.79492 l 368.7734,820.34379 c 11.226,23.7858 20.6917,24.5608 30.0489,23.9336 l 17.0996,-1.1114 560.29882,-70.1679 c 12.87068,-3.9331 22.22021,-11.1416 28.4121,-21.2872 v 0 c 6.3804,-10.88939 10.72753,-23.72379 6.98633,-44.29683 l 35.47071,-45.33008 h 0.002 l 25.75586,-32.91406 9.4375,-1.06836 c 7.80906,-0.72675 50.70513,-16.28846 38.82031,-69.58398 -0.12426,-0.76725 -0.39576,-1.61083 -0.55469,-2.39649 -0.34077,-1.36955 -0.55131,-2.65005 -0.96484,-4.06836 -1.02729,-3.82676 -2.30804,-7.78323 -4.17578,-12.03125 L -712.5918,122.66797 C -725.02178,103.8952 -744.02191,68.851078 -805.89844,64.115234 Z M -1092.5566,1082.5918 c -0.1019,0.1944 -0.1184,0.3296 -0.211,0.5176 -0.03,-0.1573 -0.042,-0.3218 -0.064,-0.4824 z"
       sodipodi:nodetypes="cccccccccccccccccccccccccc" /></g></g></svg>
