<?xml version="1.0" encoding="UTF-8"?>
<svg version="1.1" viewBox="0 0 514 514" xmlns="http://www.w3.org/2000/svg" xmlns:cc="http://creativecommons.org/ns#" xmlns:dc="http://purl.org/dc/elements/1.1/" xmlns:rdf="http://www.w3.org/1999/02/22-rdf-syntax-ns#">
 <metadata>
  <rdf:RDF>
   <cc:Work rdf:about="">
    <dc:format>image/svg+xml</dc:format>
    <dc:type rdf:resource="http://purl.org/dc/dcmitype/StillImage"/>
    <dc:title/>
    <cc:license rdf:resource="http://creativecommons.org/licenses/by-nc-sa/4.0/"/>
    <dc:creator>
     <cc:Agent>
      <dc:title>Jan Alexander</dc:title>
     </cc:Agent>
    </dc:creator>
   </cc:Work>
   <cc:License rdf:about="http://creativecommons.org/licenses/by-nc-sa/4.0/">
    <cc:permits rdf:resource="http://creativecommons.org/ns#Reproduction"/>
    <cc:permits rdf:resource="http://creativecommons.org/ns#Distribution"/>
    <cc:requires rdf:resource="http://creativecommons.org/ns#Notice"/>
    <cc:requires rdf:resource="http://creativecommons.org/ns#Attribution"/>
    <cc:prohibits rdf:resource="http://creativecommons.org/ns#CommercialUse"/>
    <cc:permits rdf:resource="http://creativecommons.org/ns#DerivativeWorks"/>
    <cc:requires rdf:resource="http://creativecommons.org/ns#ShareAlike"/>
   </cc:License>
  </rdf:RDF>
 </metadata>
 <g transform="translate(6.8671 5.9215)" stroke="#666" stroke-width="1px">
  <g fill="#f2f2f2">
   <path d="m52.522 409.25c-0.4156 15.98-2.6995 31.992-1.7935 47.95 7.7255 12.674 23.262 18.646 37.094 22.672 32.375 10.036 66.455 6.1015 99.777 6.8364 62.624-0.15751 125.29 0.5466 187.89-0.43926 24.555-3.0899 52.217-4.9186 70.91-23.159 5.6991-7.1844 2.2089-16.841 3.0429-25.304-0.0746-8.5774-0.14915-17.155-0.22373-25.732-132.23-0.94111-264.46-1.8822-396.7-2.8233z"/>
   <path transform="translate(23.2 23.2)" d="m76.324 410.66c-14.15-2.849-28.456-6.7487-40.985-13.86-3.9593-3.3273-6.4503-7.8082-5.995-12.811 0.05034-13.596 8.0919-26.03 12.381-38.618 3.2001-7.1146 8.893-12.556 16.254-15.231 16.198-7.4604 34.312-8.8975 51.596-12.292 34.974-5.0398 70.431-5.8146 105.68-7.7398 26.961-0.64828 54.554 1.6826 81.396 3.7016 28.787 2.4552 56.886 7.2349 84.768 15.026 9.1628 3.3845 18.742 7.4628 23.785 16.401 8.0975 11.596 14.824 24.656 19.964 37.786 2.9708 6.3473-1.2973 13.224-7.4458 15.903-14.587 9.6273-32.465 12.617-49.68 11.736-11.875 0.15617-23.712 0.22349-35.464-1.6091-26.33-3.0725-52.795-4.982-79.319-4.4315-38.056-6e-3 -76.216 0.039-114.12 3.7054-20.853 3.1387-41.818 2.2472-62.821 2.3352z"/>
   <path d="m85.072 351.67c-1.4731-57.888-3.3548-115.78-4.5726-173.67 1.0474-26.368 3.1324-52.714 3.5408-79.095-0.997-26.091-2.4134-52.213-3.1488-78.284 0.03063-6.5894 10.885-7.419 11.472-0.66134 1.4402 31.598 1.8895 63.279 3.6244 94.865 2.793 24.619 6.3307 49.179 8.6514 73.835 1.5588 52.169 2.9912 104.34 4.5013 156.51-8.0229 2.1652-16.046 4.3305-24.069 6.4958z"/>
  </g>
  <path d="m81.514 39.074c0.67349-0.35253 1.3407-0.72241 2.0181-1.0641 0.84982-0.17257 1.697-0.36684 2.5485-0.52583 0.73248-0.02527 1.4661-0.06577 2.1979-0.08156 0.7413 0.14813 1.487 0.28223 2.2256 0.43909 0.86562 0.38204 1.7312 0.76408 2.5969 1.1461" fill="none"/>
  <path d="m404.62 352.03c1.4731-57.888 3.3548-115.78 4.5726-173.67-1.0474-26.368-3.1324-52.714-3.5408-79.095 0.997-26.091 2.4134-52.213 3.1488-78.284-0.0306-6.5894-10.885-7.419-11.472-0.66134-1.4402 31.598-1.8895 63.279-3.6244 94.865-2.793 24.619-6.3307 49.179-8.6514 73.835-1.5588 52.169-2.9912 104.34-4.5013 156.51 8.0229 2.1652 16.046 4.3305 24.069 6.4958z" fill="#f2f2f2"/>
  <path d="m408.18 39.436c-0.67349-0.35253-1.3407-0.72241-2.0181-1.0641-0.84982-0.17257-1.697-0.36684-2.5485-0.52583-0.73247-0.02527-1.4661-0.06577-2.1979-0.08156-0.7413 0.14813-1.487 0.28223-2.2256 0.43909-0.86562 0.38204-1.7312 0.76408-2.5969 1.1461" fill="none"/>
 </g>
</svg>
