<?xml version="1.0" encoding="UTF-8"?>
<svg version="1.1" viewBox="0 0 514 514" xmlns="http://www.w3.org/2000/svg" xmlns:cc="http://creativecommons.org/ns#" xmlns:dc="http://purl.org/dc/elements/1.1/" xmlns:rdf="http://www.w3.org/1999/02/22-rdf-syntax-ns#" xmlns:xlink="http://www.w3.org/1999/xlink">
 <metadata>
  <rdf:RDF>
   <cc:Work rdf:about="">
    <dc:format>image/svg+xml</dc:format>
    <dc:type rdf:resource="http://purl.org/dc/dcmitype/StillImage"/>
    <dc:title/>
    <cc:license rdf:resource="http://creativecommons.org/licenses/by-nc-sa/4.0/"/>
    <dc:creator>
     <cc:Agent>
      <dc:title>Jan Alexander</dc:title>
     </cc:Agent>
    </dc:creator>
   </cc:Work>
   <cc:License rdf:about="http://creativecommons.org/licenses/by-nc-sa/4.0/">
    <cc:permits rdf:resource="http://creativecommons.org/ns#Reproduction"/>
    <cc:permits rdf:resource="http://creativecommons.org/ns#Distribution"/>
    <cc:requires rdf:resource="http://creativecommons.org/ns#Notice"/>
    <cc:requires rdf:resource="http://creativecommons.org/ns#Attribution"/>
    <cc:prohibits rdf:resource="http://creativecommons.org/ns#CommercialUse"/>
    <cc:permits rdf:resource="http://creativecommons.org/ns#DerivativeWorks"/>
    <cc:requires rdf:resource="http://creativecommons.org/ns#ShareAlike"/>
   </cc:License>
  </rdf:RDF>
 </metadata>
 <g display="none">
 </g>
 <g>
  <g transform="translate(0 -95.459)">
   <g fill="#f2f2f2" stroke="#666">
    <ellipse cx="421.22" cy="398.78" rx="12.796" ry="10.215" stroke-width="1.5"/>
    <ellipse cx="94.473" cy="398.78" rx="12.796" ry="10.215" stroke-width="1.5"/>
    <rect x="54.957" y="295.67" width="404.09" height="106.59" ry="10"/>
   </g>
   <path d="m54.957 317.9h404.09" fill="none" stroke="#999" stroke-width="1px"/>
   <path d="m54.957 382.08h404.09" fill="none" stroke="#999" stroke-width="1px"/>
   <g fill="#fff" stroke="#999">
    <circle cx="197.65" cy="364.82" r="3"/>
    <circle cx="257.83" cy="364.82" r="3"/>
    <circle cx="316.64" cy="364.82" r="3"/>
   </g>
   <path d="m192.8 346.64a6.334 6.2295 0 0 1 7.0185-1.8496 6.334 6.2295 0 0 1 4.1676 5.8538 6.334 6.2295 0 0 1-4.1676 5.8538 6.334 6.2295 0 0 1-7.0185-1.8496" fill="none" stroke="#999" stroke-width="1.75"/>
   <path d="m191.64 350.61h7.3758" fill="none" stroke="#999" stroke-width="1.75"/>
   <g transform="rotate(-90 -4.0343 -5.1469)" fill="#999" aria-label="2G">
    <path d="m-367.38 260.76h6.2133v-1.4933h-3.72c2.4133-2.12 3.4133-3.6267 3.4133-5.1467 0-1.68-1.24-2.7467-3.1333-2.7467-1.16 0-2.2267 0.38667-3.0267 1.08l0.45334 1.24c0.73333-0.54667 1.5333-0.81334 2.2267-0.81334 1.0533 0 1.7067 0.6 1.7067 1.5067 0 1.24-1.28 2.64-4.1333 5.1866z"/>
    <path d="m-355.28 260.9c1.3867 0 2.5867-0.41333 3.5733-1.2267v-4.1066h-3.9467v1.4667h2.28v1.9733c-0.46667 0.24-1.04 0.38666-1.68 0.38666-1.9333 0-3.1733-1.2933-3.1733-3.36 0-2 1.16-3.1333 3.2133-3.1333 0.81333 0 1.76 0.17333 2.48 0.42666l0.48-1.3467c-0.8-0.38667-1.8133-0.6-2.8533-0.6-3.1067 0-5.12 1.9467-5.12 4.8533 0 2.8 1.8933 4.6667 4.7467 4.6667z"/>
   </g>
   <g transform="rotate(-90 -4.0343 -5.1469)" fill="#999" aria-label="5G">
    <path d="m-364.84 320.39c2.2533 0 3.7333-1.1867 3.7333-3.0933 0-1.7467-1.2533-2.7867-3.4267-2.7867-0.32 0-0.6 0.0267-0.85333 0.08l0.10666-2.0933h3.6933v-1.4933h-5.3333l-0.24 5.0933c0.58666-0.12 1.3467-0.21334 1.9067-0.21334 1.48 0 2.36 0.58667 2.36 1.5733 0 0.90667-0.72 1.44-1.92 1.44-0.8 0-1.6933-0.21333-2.3733-0.56l-0.46666 1.36c0.85333 0.45333 1.8 0.69333 2.8133 0.69333z"/>
    <path d="m-355.27 320.39c1.3867 0 2.5867-0.41333 3.5733-1.2267v-4.1066h-3.9467v1.4667h2.28v1.9733c-0.46667 0.24-1.04 0.38667-1.68 0.38667-1.9333 0-3.1733-1.2933-3.1733-3.36 0-2 1.16-3.1333 3.2133-3.1333 0.81333 0 1.76 0.17333 2.48 0.42666l0.48-1.3467c-0.8-0.38667-1.8133-0.6-2.8533-0.6-3.1067 0-5.12 1.9467-5.12 4.8533 0 2.8 1.8933 4.6667 4.7467 4.6667z"/>
   </g>
  </g>
 </g>
</svg>
