<?xml version="1.0" encoding="UTF-8" standalone="no"?>
<svg
   width="100%"
   height="100%"
   viewBox="0 0 1280 1150"
   version="1.1"
   xml:space="preserve"
   style="fill-rule:evenodd;clip-rule:evenodd;stroke-linecap:round;stroke-linejoin:round;stroke-miterlimit:1.41421;"
   id="svg14317"
   sodipodi:docname="joy-it-jt-or750i.svg"
   inkscape:version="1.2 (1:1.2+202206011327+fc4e4096c5)"
   xmlns:inkscape="http://www.inkscape.org/namespaces/inkscape"
   xmlns:sodipodi="http://sodipodi.sourceforge.net/DTD/sodipodi-0.dtd"
   xmlns="http://www.w3.org/2000/svg"
   xmlns:svg="http://www.w3.org/2000/svg"><defs
   id="defs14321" /><sodipodi:namedview
   id="namedview14319"
   pagecolor="#ffffff"
   bordercolor="#666666"
   borderopacity="1.0"
   inkscape:showpageshadow="2"
   inkscape:pageopacity="0.0"
   inkscape:pagecheckerboard="0"
   inkscape:deskcolor="#d1d1d1"
   showgrid="false"
   inkscape:zoom="0.29022122"
   inkscape:cx="914.81939"
   inkscape:cy="911.37374"
   inkscape:window-width="1920"
   inkscape:window-height="1021"
   inkscape:window-x="0"
   inkscape:window-y="0"
   inkscape:window-maximized="1"
   inkscape:current-layer="svg14317" />
    
<g
   id="g9916"
   transform="translate(14.064338,-0.44829125)"><path
     style="fill:#ececec;fill-opacity:1;stroke:none;stroke-width:1px;stroke-linecap:butt;stroke-linejoin:miter;stroke-opacity:1"
     d="m 391.99942,761.83069 1.7118,80.28549 103.2675,217.04222 c 11.9034,21.6293 30.7959,22.2835 50.3209,21.0395 L 1114.3024,927.25997 c 10.5881,-4.76143 22.3081,-8.00709 22.4141,-26.80499 l 1.4761,-73.73305"
     id="path2505"
     sodipodi:nodetypes="ccccccc" /><path
     style="fill:#d5d1d2;fill-opacity:1;stroke:none;stroke-width:1px;stroke-linecap:butt;stroke-linejoin:miter;stroke-opacity:1"
     d="m 393.93382,772.46884 102.0861,207.88349 c 14.6149,24.85627 44.3977,23.46857 72.0483,15.10453 l 533.72858,-140.9686 c 36.8057,-10.40109 44.0947,-21.51575 29.1149,-39.81217 L 998.04832,633.7627 c -20.0337,-27.62889 -48.0209,-22.40212 -92.2707,-10.68413 l -483.5667,116.20937 c -29.883,7.96326 -32.34,18.90766 -28.2771,33.1809 z"
     id="path2407"
     sodipodi:nodetypes="ccccccccc" /><g
     id="g15336"
     transform="translate(-13.996876,0.39729272)"><ellipse
       style="fill:#d8fcd1;fill-opacity:1;stroke-width:143.032;stroke-linecap:round;stroke-linejoin:round;stroke-dasharray:572.125, 286.063, 143.032, 286.063"
       id="path2559"
       cx="850.44629"
       cy="788.02679"
       rx="5.3835945"
       ry="3.366962"
       transform="rotate(3.434767)" /><path
       style="fill:#d8fcd1;fill-opacity:1;stroke:none;stroke-width:1px;stroke-linecap:butt;stroke-linejoin:miter;stroke-opacity:1"
       d="m 786.56584,833.70869 c -0.0214,1.16545 1.05968,1.70866 1.85455,1.62279 5.50545,-4.75608 11.34834,-6.30813 22.23887,-2.74238 1.29726,0.0205 1.51998,-1.20982 1.25456,-1.9919 -4.11054,-3.24936 -19.26513,-5.98395 -25.34798,3.11149 z"
       id="path6770"
       sodipodi:nodetypes="ccccc" /><path
       style="fill:#d8fcd1;fill-opacity:1;stroke:none;stroke-width:1px;stroke-linecap:butt;stroke-linejoin:miter;stroke-opacity:1"
       d="m 779.55854,831.143 c -0.0214,1.16545 1.30853,1.61469 2.1034,1.52882 6.35333,-5.18884 9.63574,-12.3245 31.45976,-7.05689 1.29726,0.0205 1.35902,-1.35509 1.0936,-2.13717 -16.47511,-5.99642 -29.29389,-1.71516 -34.65676,7.66524 z"
       id="path14224"
       sodipodi:nodetypes="ccccc" /><path
       style="fill:#d8fcd1;fill-opacity:1;stroke:none;stroke-width:1px;stroke-linecap:butt;stroke-linejoin:miter;stroke-opacity:1"
       d="m 774.62126,824.83914 c -0.36847,1.45129 0.20637,3.90234 3.7569,1.6625 6.74723,-5.15521 14.58978,-12.78015 36.03324,-6.60853 1.63635,0.20778 2.16414,-1.04493 1.20754,-2.35136 -16.68252,-6.86743 -33.30595,-2.44946 -40.99768,7.29739 z"
       id="path14226"
       sodipodi:nodetypes="ccccc" /></g><path
     style="fill:#c6c6c6;fill-opacity:1;stroke:none;stroke-width:1px;stroke-linecap:butt;stroke-linejoin:miter;stroke-opacity:1"
     d="m 105.29142,305.19133 312.9174,397.6275 c 7.7436,5.10476 15.3471,8.19771 22.3513,2.67835 l 18.5226,21.34711 -6.6959,-11.29294 -13.1746,-17.26141 -19.8291,-16.8946 L 94.088324,266.96031 Z"
     id="path862"
     sodipodi:nodetypes="ccccccccc" /><path
     style="fill:#e2dee0;fill-opacity:1;stroke:none;stroke-width:1px;stroke-linecap:butt;stroke-linejoin:miter;stroke-opacity:1"
     d="m 84.067124,318.90522 c 10.9698,-3.663 16.087896,-8.7345 21.278896,-13.78845 L 94.088324,266.96031 c -13.7853,-0.15516 -25.674,5.75667 -33.7329,23.92052 z"
     id="path4882"
     sodipodi:nodetypes="ccccc" /><path
     style="fill:#efefef;fill-opacity:1;stroke:none;stroke-width:1px;stroke-linecap:butt;stroke-linejoin:miter;stroke-opacity:1"
     d="M 84.067124,318.90522 381.19292,692.87883 c 5.2832,10.9033 14.8614,21.14419 13.9211,33.00733 l 3.9048,9.03212 8.056,9.66272 c 14.2923,-23.6779 30.721,-31.52094 50.3956,-13.76654 l 1.6123,-3.97017 c -6.197,-7.142 -12.3709,-14.25737 -18.5226,-21.34711 -9.9628,6.23773 -15.7998,0.76567 -22.3513,-2.67835 l -312.9174,-397.6275 c -5.2244,6.51803 -13.031196,10.3192 -21.224296,13.71389 z"
     id="path5160"
     sodipodi:nodetypes="ccccccccccc" /><path
     style="fill:#c3c3c3;fill-opacity:1;stroke:none;stroke-width:1px;stroke-linecap:butt;stroke-linejoin:miter;stroke-opacity:1"
     d="m 381.19292,692.87883 c 17.9393,18.0094 26.9006,33.02827 17.8259,42.03945 l -3.9048,-9.03212 c 1.4001,-9.35292 -7.3865,-21.54569 -13.9211,-33.00733 z"
     id="path5438"
     sodipodi:nodetypes="cccc" /><path
     style="fill:#ebe6e9;fill-opacity:1;stroke:none;stroke-width:1px;stroke-linecap:butt;stroke-linejoin:miter;stroke-opacity:1"
     d="m 407.07482,744.581 50.3956,-13.76654 c -23.6919,-21.01483 -38.5461,-5.42941 -50.3956,13.76654 z"
     id="path6337"
     sodipodi:nodetypes="ccc" /><path
     style="fill:#cecccc;fill-opacity:1;stroke:none;stroke-width:1px;stroke-linecap:butt;stroke-linejoin:miter;stroke-opacity:1"
     d="M 870.47212,629.59365 859.47072,616.08797 1152.1306,71.578813 1175.295,103.75297 912.11172,590.79076 c -7.6823,4.86518 -14.3261,11.29471 -25.9389,10.23905 z"
     id="path7581"
     sodipodi:nodetypes="ccccccc" /><path
     style="fill:#f6f6f6;fill-opacity:1;stroke:none;stroke-width:1px;stroke-linecap:butt;stroke-linejoin:miter;stroke-opacity:1"
     d="M 1175.295,103.75297 912.11172,590.79076 c -8.0098,5.78213 -16.0549,11.43307 -25.9389,10.23905 l -15.7007,28.56384 3.5372,1.17243 8.3059,-2.21559 c 5.2598,-13.00349 17.3357,-26.50108 40.0468,-14.44233 l 2.9354,-2.74121 3.6697,-14.8023 262.54878,-486.63821 c -6.6193,-1.39543 -11.801,-3.57631 -16.2209,-6.17347 z"
     id="path16511"
     sodipodi:nodetypes="ccccccccccc" /><path
     style="fill:#d2cdce;fill-opacity:1;stroke:none;stroke-width:1px;stroke-linecap:butt;stroke-linejoin:miter;stroke-opacity:1"
     d="m 1152.1306,71.578813 23.1644,32.174157 c 4.7275,2.83533 10.1533,4.87168 16.2209,6.17347 l -11.3472,-28.700443 c -10.6187,-9.006038 -20.1779,-13.191926 -28.0381,-9.647184 z"
     id="path8066"
     sodipodi:nodetypes="ccccc" /><path
     style="fill:#e2dce0;fill-opacity:1;stroke:none;stroke-width:1px;stroke-linecap:butt;stroke-linejoin:miter;stroke-opacity:1"
     d="m 925.03272,618.23719 -2.6707,-4.12903 c -22.0665,-11.30815 -34.4641,-1.25387 -40.0468,14.44233 z"
     id="path8413"
     sodipodi:nodetypes="cccc" /></g></svg>
