<?xml version="1.0" encoding="UTF-8"?>
<svg version="1.1" viewBox="0 0 514 514" xmlns="http://www.w3.org/2000/svg" xmlns:cc="http://creativecommons.org/ns#" xmlns:dc="http://purl.org/dc/elements/1.1/" xmlns:rdf="http://www.w3.org/1999/02/22-rdf-syntax-ns#">
 <metadata>
  <rdf:RDF>
   <cc:Work rdf:about="">
    <dc:format>image/svg+xml</dc:format>
    <dc:type rdf:resource="http://purl.org/dc/dcmitype/StillImage"/>
    <dc:title/>
    <cc:license rdf:resource="http://creativecommons.org/licenses/by-nc-sa/4.0/"/>
    <dc:creator>
     <cc:Agent>
      <dc:title>Jan Alexander</dc:title>
     </cc:Agent>
    </dc:creator>
   </cc:Work>
   <cc:License rdf:about="http://creativecommons.org/licenses/by-nc-sa/4.0/">
    <cc:permits rdf:resource="http://creativecommons.org/ns#Reproduction"/>
    <cc:permits rdf:resource="http://creativecommons.org/ns#Distribution"/>
    <cc:requires rdf:resource="http://creativecommons.org/ns#Notice"/>
    <cc:requires rdf:resource="http://creativecommons.org/ns#Attribution"/>
    <cc:prohibits rdf:resource="http://creativecommons.org/ns#CommercialUse"/>
    <cc:permits rdf:resource="http://creativecommons.org/ns#DerivativeWorks"/>
    <cc:requires rdf:resource="http://creativecommons.org/ns#ShareAlike"/>
   </cc:License>
  </rdf:RDF>
 </metadata>
 <g>
  <rect x="16.588" y="92.728" width="480.82" height="342.18" fill="#2f4f69" opacity=".98232" stroke="#666" stroke-width="1.0016"/>
  <g fill="#333" stroke="#666" stroke-width="1.0016">
   <rect x="54.375" y="227.16" width="65" height="65" opacity=".98232"/>
   <rect x="60.919" y="304.99" width="25" height="45" opacity=".98232"/>
   <rect x="103.92" y="304.99" width="25" height="45" opacity=".98232"/>
  </g>
  <g fill="#685741" stroke="#e98b29" stroke-width="2">
   <circle cx="25.586" cy="139.63" r="6" opacity=".98232"/>
   <circle cx="25.618" cy="425.89" r="6" opacity=".98232"/>
   <circle cx="488.42" cy="425.99" r="6" opacity=".98232"/>
   <circle cx="488.42" cy="158.49" r="6" opacity=".98232"/>
  </g>
  <g fill="#ccc" stroke="#666">
   <rect x="142.92" y="79.994" width="50" height="42" opacity=".98232"/>
   <rect x="198.92" y="74.994" width="55" height="80" opacity=".98232"/>
   <rect x="260.82" y="75.448" width="202.61" height="79.092" opacity=".98232"/>
  </g>
  <path d="m471.29 135.37v-42.641h4.7031v-9.1094h13.368v9.1094h5.3037v42.641z" fill="#0d0d0d" stroke="#666" stroke-width="1px"/>
  <g fill="#ccc" stroke="#666">
   <rect x="109.15" y="79.994" width="21.523" height="72.742" opacity=".98232"/>
   <rect x="31.918" y="84.994" width="26" height="20" opacity=".98232"/>
   <rect x="72.918" y="84.994" width="26" height="20" opacity=".98232"/>
  </g>
  <path d="m150.8 212.69h14.499v7.7782h5.4766l6.364-7.7782h12.728v7.7782h-6.8943v125.33h6.8943v7.6014h-12.728l-6.364-7.6014h-5.4766v7.6014h-14.499v-11.314h5.8336v-118.79h-5.8336z" fill="#0e0e0e" stroke="#666" stroke-width="1px"/>
  <circle cx="62.365" cy="127.12" r="6" fill="#ccc" opacity=".98232" stroke="#666"/>
  <g transform="translate(1.0225 -4.1509)" stroke="#666">
   <rect x="135.37" y="406.02" width="23.455" height="25.652" fill="#f2f2f2" opacity=".98232"/>
   <rect x="146.63" y="413.78" width="12.199" height="10.321" fill="none" opacity=".98232"/>
  </g>
  <g transform="translate(-2.247 -1.2908)" fill="none">
   <path d="m54.5 395.08h76.5" stroke="#f1ebc7" stroke-width="2"/>
   <path d="m54.5 394.08v6.1104h76.5v-6.1104" stroke="#0d0d0d" stroke-width="4"/>
  </g>
  <g transform="matrix(0 -.99094 1 0 -366.28 422.66)" fill="none">
   <path d="m54.5 395.08h76.5" stroke="#f1ebc7" stroke-width="2"/>
   <path d="m54.5 394.08v6.1104h76.5v-6.1104" stroke="#0d0d0d" stroke-width="4"/>
  </g>
  <g transform="translate(-1.582 -.50635)">
   <rect x="29.543" y="164.95" width="16" height="114" fill="#0d0d0d" opacity=".98232" stroke="#666"/>
   <g fill="#e98c2a">
    <g transform="translate(0 2.3952)">
     <rect x="32.871" y="168" width="3" height="3" opacity=".98232"/>
     <rect x="39.215" y="168" width="3" height="3" opacity=".98232"/>
    </g>
    <g transform="translate(0 10.737)">
     <rect x="32.871" y="168" width="3" height="3" opacity=".98232"/>
     <rect x="39.215" y="168" width="3" height="3" opacity=".98232"/>
    </g>
    <g transform="translate(0 19.08)">
     <rect x="32.871" y="168" width="3" height="3" opacity=".98232"/>
     <rect x="39.215" y="168" width="3" height="3" opacity=".98232"/>
    </g>
    <g transform="translate(0 27.422)">
     <rect x="32.871" y="168" width="3" height="3" opacity=".98232"/>
     <rect x="39.215" y="168" width="3" height="3" opacity=".98232"/>
    </g>
    <g transform="translate(0 35.764)">
     <rect x="32.871" y="168" width="3" height="3" opacity=".98232"/>
     <rect x="39.215" y="168" width="3" height="3" opacity=".98232"/>
    </g>
    <g transform="translate(0 44.106)">
     <rect x="32.871" y="168" width="3" height="3" opacity=".98232"/>
     <rect x="39.215" y="168" width="3" height="3" opacity=".98232"/>
    </g>
    <g transform="translate(0 52.448)">
     <rect x="32.871" y="168" width="3" height="3" opacity=".98232"/>
     <rect x="39.215" y="168" width="3" height="3" opacity=".98232"/>
    </g>
    <g transform="translate(0 60.79)">
     <rect x="32.871" y="168" width="3" height="3" opacity=".98232"/>
     <rect x="39.215" y="168" width="3" height="3" opacity=".98232"/>
    </g>
    <g transform="translate(0 69.133)">
     <rect x="32.871" y="168" width="3" height="3" opacity=".98232"/>
     <rect x="39.215" y="168" width="3" height="3" opacity=".98232"/>
    </g>
    <g transform="translate(0 77.475)">
     <rect x="32.871" y="168" width="3" height="3" opacity=".98232"/>
     <rect x="39.215" y="168" width="3" height="3" opacity=".98232"/>
    </g>
    <g transform="translate(0 85.817)">
     <rect x="32.871" y="168" width="3" height="3" opacity=".98232"/>
     <rect x="39.215" y="168" width="3" height="3" opacity=".98232"/>
    </g>
    <g transform="translate(0 94.159)">
     <rect x="32.871" y="168" width="3" height="3" opacity=".98232"/>
     <rect x="39.215" y="168" width="3" height="3" opacity=".98232"/>
    </g>
    <g transform="translate(0 102.5)">
     <rect x="32.871" y="168" width="3" height="3" opacity=".98232"/>
     <rect x="39.215" y="168" width="3" height="3" opacity=".98232"/>
    </g>
   </g>
  </g>
  <rect x="78.264" y="414.51" width="33.907" height="16.192" fill="#0e0e0e" opacity=".98232" stroke="#666"/>
  <rect x="113.56" y="414.37" width="18.078" height="9.3047" fill="#0e0e0e" opacity=".98232" stroke="#666"/>
  <g transform="translate(4)" fill="#e98c2a">
   <rect x="113.12" y="417.64" width="3" height="3" opacity=".98232"/>
   <rect x="120.78" y="417.64" width="3" height="3" opacity=".98232"/>
  </g>
  <g transform="translate(-1.582 1.4937)">
   <rect x="48.35" y="435.42" width="4.957" height="2.5967" fill="#0d0d0d" opacity=".98232"/>
   <rect x="40.871" y="420.86" width="19.916" height="14.556" fill="#ccc" opacity=".98232" stroke="#666"/>
  </g>
  <g fill="#e98c2a">
   <rect x="97.808" y="417.64" width="3" height="3" opacity=".98232"/>
   <rect x="105.46" y="417.64" width="3" height="3" opacity=".98232"/>
   <rect x="82.496" y="417.64" width="3" height="3" opacity=".98232"/>
   <rect x="90.152" y="417.64" width="3" height="3" opacity=".98232"/>
   <rect x="97.808" y="423.64" width="3" height="3" opacity=".98232"/>
   <rect x="105.46" y="423.64" width="3" height="3" opacity=".98232"/>
   <rect x="82.496" y="423.64" width="3" height="3" opacity=".98232"/>
   <rect x="90.152" y="423.64" width="3" height="3" opacity=".98232"/>
  </g>
 </g>
</svg>
