<?xml version="1.0" encoding="UTF-8"?>
<svg version="1.1" viewBox="0 0 514 514" xmlns="http://www.w3.org/2000/svg" xmlns:cc="http://creativecommons.org/ns#" xmlns:dc="http://purl.org/dc/elements/1.1/" xmlns:rdf="http://www.w3.org/1999/02/22-rdf-syntax-ns#">
 <metadata>
  <rdf:RDF>
   <cc:Work rdf:about="">
    <dc:format>image/svg+xml</dc:format>
    <dc:type rdf:resource="http://purl.org/dc/dcmitype/StillImage"/>
    <dc:title/>
    <cc:license rdf:resource="http://creativecommons.org/licenses/by-nc-sa/4.0/"/>
    <dc:creator>
     <cc:Agent>
      <dc:title>Jan Alexander</dc:title>
     </cc:Agent>
    </dc:creator>
   </cc:Work>
   <cc:License rdf:about="http://creativecommons.org/licenses/by-nc-sa/4.0/">
    <cc:permits rdf:resource="http://creativecommons.org/ns#Reproduction"/>
    <cc:permits rdf:resource="http://creativecommons.org/ns#Distribution"/>
    <cc:requires rdf:resource="http://creativecommons.org/ns#Notice"/>
    <cc:requires rdf:resource="http://creativecommons.org/ns#Attribution"/>
    <cc:prohibits rdf:resource="http://creativecommons.org/ns#CommercialUse"/>
    <cc:permits rdf:resource="http://creativecommons.org/ns#DerivativeWorks"/>
    <cc:requires rdf:resource="http://creativecommons.org/ns#ShareAlike"/>
   </cc:License>
  </rdf:RDF>
 </metadata>
 <g>
  <g transform="translate(.58806 .65925)">
   <rect x="14.273" y="100.24" width="464.07" height="304.69" ry="11.341" fill="#32343b" opacity=".98232" stroke="#666"/>
   <g fill="#ccc" stroke="#666">
    <rect x="396.96" y="267.77" width="109.01" height="81.251" opacity=".98232"/>
    <rect x="413.79" y="169.36" width="92.692" height="66.872" opacity=".98232"/>
    <rect x="225.34" y="364.85" width="75.751" height="57.729" opacity=".98232"/>
    <rect x="65.085" y="381.71" width="36.606" height="27.724" opacity=".98232"/>
    <rect x="8.0906" y="308.51" width="24.159" height="37.6" opacity=".98232"/>
    <rect x="378.28" y="369.46" width="14.409" height="20.584" opacity=".98232"/>
   </g>
   <circle cx="385.49" cy="379.75" r="4.5" fill="#333" opacity=".98232" stroke="#666"/>
   <g stroke="#666">
    <rect x="11.521" y="216.35" width="12.386" height="35.727" fill="#ccc" opacity=".98232"/>
    <rect x="7.1697" y="227.42" width="4.3517" height="13.584" fill="#333" opacity=".98232"/>
   </g>
   <g transform="translate(-.83086 -77.508)" stroke="#666">
    <rect x="11.521" y="216.35" width="12.386" height="35.727" fill="#ccc" opacity=".98232"/>
    <rect x="7.1697" y="227.42" width="4.3517" height="13.584" fill="#333" opacity=".98232"/>
   </g>
   <g fill="#f2f2f2" stroke="#bcac75" stroke-width="3">
    <circle cx="28.468" cy="115.34" r="10" opacity=".98232"/>
    <circle cx="461.91" cy="113.38" r="10" opacity=".98232"/>
    <circle cx="463.48" cy="389.19" r="10" opacity=".98232"/>
    <circle cx="27.765" cy="363.21" r="10" opacity=".98232"/>
   </g>
   <g transform="translate(1.8952 -1.4709)" fill="#f2f2f2" stroke="#666">
    <rect x="10.149" y="385.86" width="38.904" height="35.098" opacity=".98232"/>
    <rect x="21.143" y="401.72" width="17.549" height="19.24" opacity=".98232"/>
   </g>
   <path d="m121.79 427.73v-48.224l4.2848-10.977h16.436v22.412h49.475v-22.412h17.549v59.201z" fill="#333" stroke="#666" stroke-width="1px"/>
   <g>
    <path d="m340.48 271.27v109.52" fill="none" stroke="#f2f2f2" stroke-width="2"/>
    <path d="m339.98 260.91h8.4573l0.42286 130.24h-8.8802v-10.36h5.2858v-109.52h-5.2858z" fill="#333" stroke="#666" stroke-width="1px"/>
   </g>
   <g transform="translate(-301.66 -105.34)">
    <path d="m340.48 271.27v109.52" fill="none" stroke="#f2f2f2" stroke-width="2"/>
    <path d="m339.98 260.91h8.4573l0.42286 130.24h-8.8802v-10.36h5.2858v-109.52h-5.2858z" fill="#333" stroke="#666" stroke-width="1px"/>
   </g>
   <g fill="#333" stroke="#666" stroke-width="2">
    <rect x="350.98" y="96.014" width="31.233" height="62.92" opacity=".98232"/>
    <rect x="354.04" y="85.453" width="25.234" height="10.561" opacity=".98232"/>
   </g>
   <g>
    <path d="m420.12 369.06h8.1402l2.4907 2.5372v7.7702l-2.4907 2.3258h-8.1402l-2.2729-2.3258v-7.7702z" fill="#debb44"/>
    <rect x="422.8" y="373.87" width="3" height="3" fill="#ccc" opacity=".98232"/>
    <g transform="translate(12.904)">
     <path d="m420.12 369.06h8.1402l2.4907 2.5372v7.7702l-2.4907 2.3258h-8.1402l-2.2729-2.3258v-7.7702z" fill="#debb44"/>
     <rect x="422.8" y="373.87" width="3" height="3" fill="#ccc" opacity=".98232"/>
    </g>
    <g transform="translate(-12.904)">
     <path d="m420.12 369.06h8.1402l2.4907 2.5372v7.7702l-2.4907 2.3258h-8.1402l-2.2729-2.3258v-7.7702z" fill="#debb44"/>
     <rect x="422.8" y="373.87" width="3" height="3" fill="#ccc" opacity=".98232"/>
    </g>
   </g>
   <g>
    <path d="m198.54 124.24v-19.137l3.1653-3.5881h6.3184l3.2243 3.5881v19.137l-3.2243 3.1396h-6.3184z" fill="#debb44"/>
    <g transform="translate(.41553 .68531)" fill="#ccc">
     <rect x="202.98" y="119.04" width="3" height="3" opacity=".98232"/>
     <rect x="202.98" y="105.48" width="3" height="3" opacity=".98232"/>
    </g>
    <g transform="translate(12.708)">
     <path d="m198.54 124.24v-19.137l3.1653-3.5881h6.3184l3.2243 3.5881v19.137l-3.2243 3.1396h-6.3184z" fill="#debb44"/>
     <g transform="translate(.41553 .68531)" fill="#ccc">
      <rect x="202.98" y="119.04" width="3" height="3" opacity=".98232"/>
      <rect x="202.98" y="105.48" width="3" height="3" opacity=".98232"/>
     </g>
    </g>
    <g transform="translate(25.416)">
     <path d="m198.54 124.24v-19.137l3.1653-3.5881h6.3184l3.2243 3.5881v19.137l-3.2243 3.1396h-6.3184z" fill="#debb44"/>
     <g transform="translate(.41553 .68531)" fill="#ccc">
      <rect x="202.98" y="119.04" width="3" height="3" opacity=".98232"/>
      <rect x="202.98" y="105.48" width="3" height="3" opacity=".98232"/>
     </g>
    </g>
    <g transform="translate(38.124)">
     <path d="m198.54 124.24v-19.137l3.1653-3.5881h6.3184l3.2243 3.5881v19.137l-3.2243 3.1396h-6.3184z" fill="#debb44"/>
     <g transform="translate(.41553 .68531)" fill="#ccc">
      <rect x="202.98" y="119.04" width="3" height="3" opacity=".98232"/>
      <rect x="202.98" y="105.48" width="3" height="3" opacity=".98232"/>
     </g>
    </g>
    <g transform="translate(50.832)">
     <path d="m198.54 124.24v-19.137l3.1653-3.5881h6.3184l3.2243 3.5881v19.137l-3.2243 3.1396h-6.3184z" fill="#debb44"/>
     <g transform="translate(.41553 .68531)" fill="#ccc">
      <rect x="202.98" y="119.04" width="3" height="3" opacity=".98232"/>
      <rect x="202.98" y="105.48" width="3" height="3" opacity=".98232"/>
     </g>
    </g>
    <g transform="translate(63.54)">
     <path d="m198.54 124.24v-19.137l3.1653-3.5881h6.3184l3.2243 3.5881v19.137l-3.2243 3.1396h-6.3184z" fill="#debb44"/>
     <g transform="translate(.41553 .68531)" fill="#ccc">
      <rect x="202.98" y="119.04" width="3" height="3" opacity=".98232"/>
      <rect x="202.98" y="105.48" width="3" height="3" opacity=".98232"/>
     </g>
    </g>
    <g transform="translate(76.248)">
     <path d="m198.54 124.24v-19.137l3.1653-3.5881h6.3184l3.2243 3.5881v19.137l-3.2243 3.1396h-6.3184z" fill="#debb44"/>
     <g transform="translate(.41553 .68531)" fill="#ccc">
      <rect x="202.98" y="119.04" width="3" height="3" opacity=".98232"/>
      <rect x="202.98" y="105.48" width="3" height="3" opacity=".98232"/>
     </g>
    </g>
    <g transform="translate(88.956)">
     <path d="m198.54 124.24v-19.137l3.1653-3.5881h6.3184l3.2243 3.5881v19.137l-3.2243 3.1396h-6.3184z" fill="#debb44"/>
     <g transform="translate(.41553 .68531)" fill="#ccc">
      <rect x="202.98" y="119.04" width="3" height="3" opacity=".98232"/>
      <rect x="202.98" y="105.48" width="3" height="3" opacity=".98232"/>
     </g>
    </g>
    <g transform="translate(101.66)">
     <path d="m198.54 124.24v-19.137l3.1653-3.5881h6.3184l3.2243 3.5881v19.137l-3.2243 3.1396h-6.3184z" fill="#debb44"/>
     <g transform="translate(.41553 .68531)" fill="#ccc">
      <rect x="202.98" y="119.04" width="3" height="3" opacity=".98232"/>
      <rect x="202.98" y="105.48" width="3" height="3" opacity=".98232"/>
     </g>
    </g>
    <g transform="translate(-12.708)">
     <path d="m198.54 124.24v-19.137l3.1653-3.5881h6.3184l3.2243 3.5881v19.137l-3.2243 3.1396h-6.3184z" fill="#debb44"/>
     <g transform="translate(.41553 .68531)" fill="#ccc">
      <rect x="202.98" y="119.04" width="3" height="3" opacity=".98232"/>
      <rect x="202.98" y="105.48" width="3" height="3" opacity=".98232"/>
     </g>
    </g>
    <g transform="translate(-25.416)">
     <path d="m198.54 124.24v-19.137l3.1653-3.5881h6.3184l3.2243 3.5881v19.137l-3.2243 3.1396h-6.3184z" fill="#debb44"/>
     <g transform="translate(.41553 .68531)" fill="#ccc">
      <rect x="202.98" y="119.04" width="3" height="3" opacity=".98232"/>
      <rect x="202.98" y="105.48" width="3" height="3" opacity=".98232"/>
     </g>
    </g>
    <g transform="translate(-38.124)">
     <path d="m198.54 124.24v-19.137l3.1653-3.5881h6.3184l3.2243 3.5881v19.137l-3.2243 3.1396h-6.3184z" fill="#debb44"/>
     <g transform="translate(.41553 .68531)" fill="#ccc">
      <rect x="202.98" y="119.04" width="3" height="3" opacity=".98232"/>
      <rect x="202.98" y="105.48" width="3" height="3" opacity=".98232"/>
     </g>
    </g>
    <g transform="translate(-50.832)">
     <path d="m198.54 124.24v-19.137l3.1653-3.5881h6.3184l3.2243 3.5881v19.137l-3.2243 3.1396h-6.3184z" fill="#debb44"/>
     <g transform="translate(.41553 .68531)" fill="#ccc">
      <rect x="202.98" y="119.04" width="3" height="3" opacity=".98232"/>
      <rect x="202.98" y="105.48" width="3" height="3" opacity=".98232"/>
     </g>
    </g>
    <g transform="translate(-63.54)">
     <path d="m198.54 124.24v-19.137l3.1653-3.5881h6.3184l3.2243 3.5881v19.137l-3.2243 3.1396h-6.3184z" fill="#debb44"/>
     <g transform="translate(.41553 .68531)" fill="#ccc">
      <rect x="202.98" y="119.04" width="3" height="3" opacity=".98232"/>
      <rect x="202.98" y="105.48" width="3" height="3" opacity=".98232"/>
     </g>
    </g>
    <g transform="translate(-76.248)">
     <path d="m198.54 124.24v-19.137l3.1653-3.5881h6.3184l3.2243 3.5881v19.137l-3.2243 3.1396h-6.3184z" fill="#debb44"/>
     <g transform="translate(.41553 .68531)" fill="#ccc">
      <rect x="202.98" y="119.04" width="3" height="3" opacity=".98232"/>
      <rect x="202.98" y="105.48" width="3" height="3" opacity=".98232"/>
     </g>
    </g>
    <g transform="translate(-88.956)">
     <path d="m198.54 124.24v-19.137l3.1653-3.5881h6.3184l3.2243 3.5881v19.137l-3.2243 3.1396h-6.3184z" fill="#debb44"/>
     <g transform="translate(.41553 .68531)" fill="#ccc">
      <rect x="202.98" y="119.04" width="3" height="3" opacity=".98232"/>
      <rect x="202.98" y="105.48" width="3" height="3" opacity=".98232"/>
     </g>
    </g>
    <g transform="translate(-101.66)">
     <path d="m198.54 124.24v-19.137l3.1653-3.5881h6.3184l3.2243 3.5881v19.137l-3.2243 3.1396h-6.3184z" fill="#debb44"/>
     <g transform="translate(.41553 .68531)" fill="#ccc">
      <rect x="202.98" y="119.04" width="3" height="3" opacity=".98232"/>
      <rect x="202.98" y="105.48" width="3" height="3" opacity=".98232"/>
     </g>
    </g>
    <g transform="translate(-114.37)">
     <path d="m198.54 124.24v-19.137l3.1653-3.5881h6.3184l3.2243 3.5881v19.137l-3.2243 3.1396h-6.3184z" fill="#debb44"/>
     <g transform="translate(.41553 .68531)" fill="#ccc">
      <rect x="202.98" y="119.04" width="3" height="3" opacity=".98232"/>
      <rect x="202.98" y="105.48" width="3" height="3" opacity=".98232"/>
     </g>
    </g>
    <g transform="translate(-127.08)">
     <path d="m198.54 124.24v-19.137l3.1653-3.5881h6.3184l3.2243 3.5881v19.137l-3.2243 3.1396h-6.3184z" fill="#debb44"/>
     <g transform="translate(.41553 .68531)" fill="#ccc">
      <rect x="202.98" y="119.04" width="3" height="3" opacity=".98232"/>
      <rect x="202.98" y="105.48" width="3" height="3" opacity=".98232"/>
     </g>
    </g>
    <g transform="translate(-139.79)">
     <path d="m198.54 124.24v-19.137l3.1653-3.5881h6.3184l3.2243 3.5881v19.137l-3.2243 3.1396h-6.3184z" fill="#debb44"/>
     <g transform="translate(.41553 .68531)" fill="#ccc">
      <rect x="202.98" y="119.04" width="3" height="3" opacity=".98232"/>
      <rect x="202.98" y="105.48" width="3" height="3" opacity=".98232"/>
     </g>
    </g>
   </g>
   <g transform="translate(-3.4199 1.969)" stroke="#666">
    <rect x="466.28" y="126.83" width="15.484" height="31.223" fill="#ccc" opacity=".98232"/>
    <path d="m481.76 134.78c0.76081 0.1984 1.5451 0.3498 2.2914 0.57724 0.6309 0.54039 1.308 1.0343 1.91 1.6038 0.51457 0.64436 1.0849 1.2545 1.5643 1.9204 0.26973 0.66632 0.60443 1.3152 0.83349 1.9924 0.0794 0.8295 0.23045 1.6563 0.26396 2.4876-0.0481 0.95178-0.0654 1.9091-0.13274 2.8574-0.35523 1.0635-0.67016 2.1495-1.0504 3.199-0.77819 0.90612-1.5359 1.8311-2.4067 2.6517-0.31682 0.28338-0.55482 0.68737-0.99783 0.77767-0.75849 0.29341-1.517 0.58683-2.2754 0.88024v-18.947z" fill="#333" stroke-width="1px"/>
   </g>
   <g fill="#333" stroke="#666">
    <rect transform="translate(-412.3 -291.4)" x="769.54" y="509.03" width="30" height="30" opacity=".98232"/>
    <rect transform="translate(-412.3 -291.4)" x="831.46" y="401.28" width="23.422" height="12.451" opacity=".98232"/>
    <rect transform="translate(-412.3 -291.4)" x="819.22" y="424.63" width="12.719" height="7.0343" opacity=".98232"/>
    <rect transform="translate(-412.3 -291.4)" x="841.97" y="425.5" width="20" height="20" ry="6.7179" opacity=".98232"/>
    <rect x="138.3" y="272.02" width="20" height="20" ry="6.7179" opacity=".98232"/>
    <rect x="171.62" y="294.81" width="20" height="20" ry="6.7179" opacity=".98232"/>
    <rect x="173.64" y="322.5" width="20" height="20" ry="6.7179" opacity=".98232"/>
    <rect x="111.01" y="322.29" width="20" height="20" ry="6.7179" opacity=".98232"/>
    <rect x="70.236" y="190.74" width="10.795" height="13.158" opacity=".98232"/>
   </g>
   <g fill="#b18a5f" stroke="#ccc" stroke-width="1.5">
    <rect x="68.341" y="281.75" width="10.292" height="5.1066" opacity=".98232"/>
    <rect x="111.78" y="260.89" width="10.292" height="5.1066" opacity=".98232"/>
    <rect x="151.95" y="256.45" width="10.292" height="5.1066" opacity=".98232"/>
    <rect x="118.54" y="352.65" width="10.292" height="5.1066" opacity=".98232"/>
    <rect x="39.255" y="145.45" width="10.292" height="5.1066" opacity=".98232"/>
    <rect x="150.26" y="308.89" width="10.292" height="5.1066" opacity=".98232"/>
    <rect x="406.09" y="150.52" width="10.292" height="5.1066" opacity=".98232"/>
    <rect x="426.16" y="102.56" width="10.292" height="5.1066" opacity=".98232"/>
    <rect transform="rotate(90)" x="197.11" y="-167.03" width="10.292" height="5.1066" opacity=".98232"/>
    <rect transform="rotate(90)" x="278.17" y="-110.33" width="10.292" height="5.1066" opacity=".98232"/>
    <rect transform="rotate(90)" x="320.67" y="-203.41" width="10.292" height="5.1066" opacity=".98232"/>
    <rect transform="rotate(90)" x="320.25" y="-212.29" width="10.292" height="5.1066" opacity=".98232"/>
    <rect transform="rotate(90)" x="335.5" y="-107.77" width="10.292" height="5.1066" opacity=".98232"/>
   </g>
   <rect transform="translate(-412.3 -291.4)" x="480.18" y="540.78" width="13.267" height="6.3347" fill="#333" opacity=".98232" stroke="#666"/>
   <rect transform="translate(-412.3 -291.4)" x="478.68" y="588.77" width="13.768" height="5.7169" fill="#333" opacity=".98232" stroke="#666"/>
   <g fill="#f2f2f2" stroke="#ccc">
    <rect x="113.21" y="148.69" width="8.5931" height="5.5843" opacity=".98232"/>
    <rect x="133.1" y="148.36" width="8.5931" height="5.5843" opacity=".98232"/>
    <rect x="153.73" y="148.36" width="8.5931" height="5.5843" opacity=".98232"/>
   </g>
  </g>
 </g>
</svg>
