<?xml version="1.0" encoding="UTF-8"?>
<svg version="1.1" viewBox="0 0 514 514" xmlns="http://www.w3.org/2000/svg" xmlns:cc="http://creativecommons.org/ns#" xmlns:dc="http://purl.org/dc/elements/1.1/" xmlns:rdf="http://www.w3.org/1999/02/22-rdf-syntax-ns#">
 <metadata>
  <rdf:RDF>
   <cc:Work rdf:about="">
    <dc:format>image/svg+xml</dc:format>
    <dc:type rdf:resource="http://purl.org/dc/dcmitype/StillImage"/>
    <dc:title/>
    <cc:license rdf:resource="http://creativecommons.org/licenses/by-nc-sa/4.0/"/>
    <dc:creator>
     <cc:Agent>
      <dc:title>Jan Alexander</dc:title>
     </cc:Agent>
    </dc:creator>
   </cc:Work>
   <cc:License rdf:about="http://creativecommons.org/licenses/by-nc-sa/4.0/">
    <cc:permits rdf:resource="http://creativecommons.org/ns#Reproduction"/>
    <cc:permits rdf:resource="http://creativecommons.org/ns#Distribution"/>
    <cc:requires rdf:resource="http://creativecommons.org/ns#Notice"/>
    <cc:requires rdf:resource="http://creativecommons.org/ns#Attribution"/>
    <cc:prohibits rdf:resource="http://creativecommons.org/ns#CommercialUse"/>
    <cc:permits rdf:resource="http://creativecommons.org/ns#DerivativeWorks"/>
    <cc:requires rdf:resource="http://creativecommons.org/ns#ShareAlike"/>
   </cc:License>
  </rdf:RDF>
 </metadata>
 <g>
  <g transform="translate(-6.4664 -.46596)">
   <rect x="89.608" y="159.58" width="331.14" height="218.02" ry="10.245" fill="#0c4364" opacity=".98232" stroke="#666"/>
   <g fill="#ccc" stroke="#666">
    <rect x="358.66" y="279.32" width="79.504" height="59.63" opacity=".98232"/>
    <rect x="237.32" y="345.37" width="53.579" height="41.249" opacity=".98232"/>
    <rect x="125.06" y="360.07" width="27.969" height="20.118" opacity=".98232"/>
    <rect x="86.461" y="308.99" width="17.929" height="25.338" opacity=".98232"/>
   </g>
   <g stroke="#666">
    <rect x="246.43" y="153.22" width="37.564" height="35.906" fill="#dbd35b" opacity=".98232"/>
    <rect x="249.76" y="121.95" width="29.809" height="31.27" fill="#ccc" opacity=".98232"/>
   </g>
   <rect x="376.07" y="211.64" width="64.399" height="47.432" fill="#ccc" opacity=".98232" stroke="#666"/>
   <g fill="#404040" stroke="#666">
    <rect x="314.26" y="155.89" width="42.725" height="41.319" opacity=".98232"/>
    <rect x="324.27" y="144.89" width="24.049" height="11.002" opacity=".98232"/>
   </g>
   <g stroke="#666">
    <rect x="405.6" y="182.58" width="15.154" height="20.938" fill="#ccc" opacity=".98232"/>
    <path d="m420.75 188.01c0.38369 0.2185 0.78919 0.40723 1.1595 0.64401 0.50237 0.48544 1.0047 0.97087 1.5071 1.4563 0.20999 0.62551 0.43703 1.2476 0.63644 1.8752 0.0284 0.51533 0.0912 1.0327 0.0979 1.5467-0.0796 0.34194-0.10554 0.70049-0.22016 1.0316-0.2105 0.46913-0.40195 0.95078-0.6243 1.4121-0.38624 0.406-0.76035 0.82716-1.1541 1.2238-0.46746 0.27434-0.93491 0.54867-1.4024 0.82301v-10.013z" fill="#333" stroke-width="1px"/>
   </g>
   <g stroke="#666">
    <rect x="89.608" y="187.01" width="9.836" height="25.715" fill="#ccc" opacity=".98232"/>
    <rect x="87.162" y="194.56" width="2.4462" height="10.605" fill="#333" opacity=".98232"/>
   </g>
   <g transform="translate(0 77.486)" stroke="#666">
    <rect x="89.608" y="187.01" width="9.836" height="25.715" fill="#ccc" opacity=".98232"/>
    <rect x="87.162" y="194.56" width="2.4462" height="10.605" fill="#333" opacity=".98232"/>
   </g>
   <g fill="#333" stroke="#666">
    <rect x="334.8" y="243.25" width="22" height="22" opacity=".98232"/>
    <rect x="209.47" y="300.1" width="12" height="12" ry="2.7014" opacity=".98232"/>
    <rect x="205.43" y="320.85" width="12" height="12" ry="2.7014" opacity=".98232"/>
    <rect x="159.65" y="317.67" width="12" height="12" ry="2.7014" opacity=".98232"/>
    <rect x="142.48" y="247.08" width="12" height="12" ry="2.7014" opacity=".98232"/>
    <rect x="383.16" y="180.63" width="12" height="12" ry="2.7014" opacity=".98232"/>
    <circle cx="296.14" cy="169.39" r="6.5" opacity=".98232"/>
   </g>
   <g fill="#f2f2f2" stroke="#d2ae77" stroke-width="2">
    <circle cx="100.41" cy="170.99" r="8" opacity=".98232"/>
    <circle cx="99.457" cy="347.1" r="8" opacity=".98232"/>
    <circle cx="410.02" cy="365.2" r="8" opacity=".98232"/>
    <circle cx="409.06" cy="170.68" r="8" opacity=".98232"/>
   </g>
   <path d="m161.83 392.98h63.907v-41.651h-13.672v15.897h-34.02v-15.897h-16.215z" fill="#333" stroke="#666" stroke-width="1px"/>
   <rect x="115.13" y="297.2" width="9.7718" height="11.96" fill="#dcd35b" opacity=".98232" stroke="#666"/>
   <g transform="translate(2.6601)" fill="#f2f2f2" stroke="#666">
    <rect x="85.881" y="363.65" width="27.943" height="24.843" opacity=".98232"/>
    <rect x="93.188" y="373.76" width="13.826" height="14.726" opacity=".98232"/>
   </g>
   <g fill="#333" stroke="#666">
    <rect x="142.28" y="186.19" width="36" height="18" opacity=".98232"/>
    <rect x="178.28" y="186.19" width="20" height="9" opacity=".98232"/>
    <rect x="119.21" y="163.99" width="110" height="18" opacity=".98232" stroke-width=".962"/>
   </g>
   <g transform="translate(.030426 .43895)" fill="#d2ae78">
    <rect x="183" y="189" width="2.5" height="2.5" opacity=".98232"/>
    <rect x="191" y="189" width="2.5" height="2.5" opacity=".98232"/>
   </g>
   <g transform="translate(2.0304 .93895)" fill="#d2ae78">
    <rect x="169" y="197" width="2.5" height="2.5" opacity=".98232"/>
    <rect x="169" y="189" width="2.5" height="2.5" opacity=".98232"/>
    <rect x="161" y="189" width="2.5" height="2.5" opacity=".98232"/>
    <rect x="161" y="197" width="2.5" height="2.5" opacity=".98232"/>
    <rect x="153" y="197" width="2.5" height="2.5" opacity=".98232"/>
    <rect x="153" y="189" width="2.5" height="2.5" opacity=".98232"/>
    <rect x="145" y="189" width="2.5" height="2.5" opacity=".98232"/>
    <rect x="145" y="197" width="2.5" height="2.5" opacity=".98232"/>
   </g>
   <g transform="translate(2.9264 .82532)" fill="#d2ae78">
    <rect x="146.04" y="174.92" width="2.5" height="2.5" opacity=".98232"/>
    <rect x="146.04" y="166.92" width="2.5" height="2.5" opacity=".98232"/>
    <rect x="138.04" y="166.92" width="2.5" height="2.5" opacity=".98232"/>
    <rect x="138.04" y="174.92" width="2.5" height="2.5" opacity=".98232"/>
    <rect x="130.04" y="174.92" width="2.5" height="2.5" opacity=".98232"/>
    <rect x="130.04" y="166.92" width="2.5" height="2.5" opacity=".98232"/>
    <rect x="122.04" y="166.92" width="2.5" height="2.5" opacity=".98232"/>
    <rect x="122.04" y="174.92" width="2.5" height="2.5" opacity=".98232"/>
    <rect x="178.04" y="174.92" width="2.5" height="2.5" opacity=".98232"/>
    <rect x="178.04" y="166.92" width="2.5" height="2.5" opacity=".98232"/>
    <rect x="170.04" y="166.92" width="2.5" height="2.5" opacity=".98232"/>
    <rect x="170.04" y="174.92" width="2.5" height="2.5" opacity=".98232"/>
    <rect x="162.04" y="174.92" width="2.5" height="2.5" opacity=".98232"/>
    <rect x="162.04" y="166.92" width="2.5" height="2.5" opacity=".98232"/>
    <rect x="154.04" y="166.92" width="2.5" height="2.5" opacity=".98232"/>
    <rect x="154.04" y="174.92" width="2.5" height="2.5" opacity=".98232"/>
    <rect x="210.04" y="174.92" width="2.5" height="2.5" opacity=".98232"/>
    <rect x="210.04" y="166.92" width="2.5" height="2.5" opacity=".98232"/>
    <rect x="202.04" y="166.92" width="2.5" height="2.5" opacity=".98232"/>
    <rect x="202.04" y="174.92" width="2.5" height="2.5" opacity=".98232"/>
    <rect x="194.04" y="174.92" width="2.5" height="2.5" opacity=".98232"/>
    <rect x="194.04" y="166.92" width="2.5" height="2.5" opacity=".98232"/>
    <rect x="186.04" y="166.92" width="2.5" height="2.5" opacity=".98232"/>
    <rect x="186.04" y="174.92" width="2.5" height="2.5" opacity=".98232"/>
    <rect x="218.04" y="174.92" width="2.5" height="2.5" opacity=".98232"/>
    <rect x="218.04" y="166.92" width="2.5" height="2.5" opacity=".98232"/>
   </g>
   <g>
    <path d="m314.63 287.42v76.783" fill="none" stroke="#f2f2f2" stroke-width="2"/>
    <path d="m314.13 279.47h6.9948v92.681h-6.9948v-7.9486h3.0205v-76.783h-3.0205z" fill="#333" stroke="#666" stroke-width="1px"/>
   </g>
   <rect x="348.13" y="354.4" width="9.4265" height="13.295" fill="#333" opacity=".98232" stroke="#666"/>
   <g transform="translate(-200.42 -90.72)">
    <path d="m314.63 287.42v76.783" fill="none" stroke="#f2f2f2" stroke-width="2"/>
    <path d="m314.13 279.47h6.9948v92.681h-6.9948v-7.9486h3.0205v-76.783h-3.0205z" fill="#333" stroke="#666" stroke-width="1px"/>
   </g>
   <g fill="#916941" stroke="#ccc" stroke-width="1.5">
    <rect x="376.41" y="356.4" width="6.8209" height="9.719" opacity=".98232"/>
    <rect x="227.94" y="318.46" width="4" height="6.5" opacity=".98232"/>
    <rect x="221.99" y="318.83" width="4" height="6.5" opacity=".98232"/>
    <rect x="153" y="327.25" width="4" height="6.5" opacity=".98232"/>
    <rect x="200.53" y="228.21" width="4" height="6.5" opacity=".98232"/>
    <rect transform="rotate(90)" x="308" y="-194.02" width="4" height="6.5" opacity=".98232"/>
    <rect transform="rotate(90)" x="340.27" y="-171.76" width="4" height="6.5" opacity=".98232"/>
    <rect transform="rotate(90)" x="288.6" y="-135.83" width="4" height="6.5" opacity=".98232"/>
    <rect transform="rotate(90)" x="276.52" y="-152.52" width="4" height="6.5" opacity=".98232"/>
    <rect transform="rotate(90)" x="283.67" y="-187.5" width="4" height="6.5" opacity=".98232"/>
    <rect transform="rotate(90)" x="270.32" y="-200.38" width="4" height="6.5" opacity=".98232"/>
    <rect transform="rotate(90)" x="238.84" y="-152.05" width="4" height="6.5" opacity=".98232"/>
    <rect transform="rotate(90)" x="197.19" y="-376.67" width="4" height="6.5" opacity=".98232"/>
    <rect transform="rotate(90)" x="162.38" y="-389.71" width="4" height="6.5" opacity=".98232"/>
    <rect x="105.78" y="190.38" width="4" height="6.5" opacity=".98232"/>
   </g>
  </g>
 </g>
</svg>
