<?xml version="1.0" encoding="UTF-8"?>
<svg version="1.1" viewBox="0 0 514 514" xmlns="http://www.w3.org/2000/svg" xmlns:cc="http://creativecommons.org/ns#" xmlns:dc="http://purl.org/dc/elements/1.1/" xmlns:rdf="http://www.w3.org/1999/02/22-rdf-syntax-ns#">
 <metadata>
  <rdf:RDF>
   <cc:Work rdf:about="">
    <dc:format>image/svg+xml</dc:format>
    <dc:type rdf:resource="http://purl.org/dc/dcmitype/StillImage"/>
    <dc:title/>
    <cc:license rdf:resource="http://creativecommons.org/licenses/by-nc-sa/4.0/"/>
    <dc:creator>
     <cc:Agent>
      <dc:title>Jan Alexander</dc:title>
     </cc:Agent>
    </dc:creator>
   </cc:Work>
   <cc:License rdf:about="http://creativecommons.org/licenses/by-nc-sa/4.0/">
    <cc:permits rdf:resource="http://creativecommons.org/ns#Reproduction"/>
    <cc:permits rdf:resource="http://creativecommons.org/ns#Distribution"/>
    <cc:requires rdf:resource="http://creativecommons.org/ns#Notice"/>
    <cc:requires rdf:resource="http://creativecommons.org/ns#Attribution"/>
    <cc:prohibits rdf:resource="http://creativecommons.org/ns#CommercialUse"/>
    <cc:permits rdf:resource="http://creativecommons.org/ns#DerivativeWorks"/>
    <cc:requires rdf:resource="http://creativecommons.org/ns#ShareAlike"/>
   </cc:License>
  </rdf:RDF>
 </metadata>
 <g transform="translate(8.7372 10.719)" stroke="#666">
  <g stroke-width="1px">
   <path d="m11.734 271.32c-1.7599 16.279-2.9337 35.799 3.1405 51.432 6.2533 13.931 20.927 15.073 34.568 16.846 26.599 2.7978 53.429 0.80428 80.131 1.4038 103.7-0.12154 207.42 0.24299 311.11-0.18212 13.861-0.70313 28.763-3.929 39.547-13.56 8.0914-8.6484 5.275-20.657 5.9827-30.958-0.27688-8.3525-1.0681-16.668-1.8792-24.982z" fill="#0d0d0d"/>
   <path d="m12.134 282c-0.30028 13.818 0.07017 33.768 5.387 41.013 9.7583 12.515 33.092 13.149 50.161 13.568 125.49 0.0754 251.74-0.68415 377.22-0.78253 14.964-0.15061 34.409-6.1424 38.066-17.803 2.5203-12.029 0.94355-24.006 1.3536-35.996z" fill="#b2b2b2"/>
   <path d="m45.513 300.5c-12.548 0-24.421-6.4546-32.757-16.086-2.4408-9.9013-0.06431-20.618 0.97426-30.515 3.2988-27.664 10.636-54.688 17.985-81.54 5.6664-9.8941 17.936-13.326 28.14-16.643 21.465-2.8488 43.306-1.5054 64.924-2.5568 53.896-1.604 107.81-1.9045 161.72-1.6595 45.836 0.1631 91.685 1.3104 137.5 2.4657 18.042 0.99537 38.684 8.9348 44.783 27.543 4.9117 15.291 7.1254 31.481 10.52 47.212 3.0218 17.917 4.798 36.119 5.0326 54.268-4.4227 10.723-17.581 13.505-27.704 16.343-32.703 2.3716-65.549 0.63945-98.316 1.168z" fill="#0d0d0d"/>
  </g>
  <ellipse cx="249.43" cy="215.53" rx="49.92" ry="25.716" fill="#333" opacity=".98232" stroke-width="1.1562"/>
 </g>
</svg>
