<?xml version="1.0" encoding="UTF-8" standalone="no"?>
<!-- Created with Inkscape (http://www.inkscape.org/) -->

<svg
   width="84.931244mm"
   height="106.75936mm"
   viewBox="0 0 84.931244 106.75936"
   version="1.1"
   id="svg7767"
   xml:space="preserve"
   xmlns="http://www.w3.org/2000/svg"
   xmlns:svg="http://www.w3.org/2000/svg"><defs
     id="defs7764" /><g
     id="layer1"
     transform="translate(-69.482149,-81.976507)"><g
       data-cell-id="1"
       id="g7901"
       transform="matrix(0.23074262,0,0,0.21385086,75.043069,91.693827)"><g
         data-cell-id="tiWM4fHZ4g_kkL0M3Pxn-1"
         id="g7863"><g
           transform="translate(0.5,0.5)"
           id="g7861"><path
             d="M 20,385 Q 0,295 0,250 0,205 20,25"
             fill="none"
             stroke="#000000"
             stroke-miterlimit="10"
             pointer-events="stroke"
             id="path7859" /></g></g><g
         data-cell-id="tiWM4fHZ4g_kkL0M3Pxn-2"
         id="g7869"><g
           transform="translate(0.5,0.5)"
           id="g7867"><path
             d="m 300,385 q 20,-90 20,-135 0,-45 -20,-225"
             fill="none"
             stroke="#000000"
             stroke-miterlimit="10"
             pointer-events="stroke"
             id="path7865" /></g></g><g
         data-cell-id="tiWM4fHZ4g_kkL0M3Pxn-3"
         id="g7875"><g
           transform="translate(0.5,0.5)"
           id="g7873"><path
             d="m 20,385 q 0,10 70,15 70,5 140,0 70,-5 70,-15"
             fill="none"
             stroke="#000000"
             stroke-miterlimit="10"
             pointer-events="stroke"
             id="path7871" /></g></g><g
         data-cell-id="tiWM4fHZ4g_kkL0M3Pxn-4"
         id="g7881"><g
           transform="translate(0.5,0.5)"
           id="g7879"><path
             d="M 20,25 Q 20,15 90,5 160,-5 230,5 300,15 300,25"
             fill="none"
             stroke="#000000"
             stroke-miterlimit="10"
             pointer-events="stroke"
             id="path7877" /></g></g><g
         data-cell-id="tiWM4fHZ4g_kkL0M3Pxn-5"
         id="g7887"><g
           transform="translate(0.5,0.5)"
           id="g7885"><path
             d="m 20,25 q 0,10 70,20 70,10 140,0 70,-10 70,-20"
             fill="none"
             stroke="#000000"
             stroke-miterlimit="10"
             pointer-events="stroke"
             id="path7883" /></g></g><g
         data-cell-id="tiWM4fHZ4g_kkL0M3Pxn-6"
         id="g7893"><g
           transform="translate(0.5,0.5)"
           id="g7891"><path
             d="M 30,25 Q 30,15 95,5 160,-5 225,5 290,15 290,25"
             fill="none"
             stroke="#000000"
             stroke-miterlimit="10"
             pointer-events="stroke"
             id="path7889" /></g></g><g
         data-cell-id="tiWM4fHZ4g_kkL0M3Pxn-7"
         id="g7899"><g
           transform="translate(0.5,0.5)"
           id="g7897"><path
             d="m 30,25 q 0,10 65,20 65,10 130,0 65,-10 65,-20"
             fill="none"
             stroke="#000000"
             stroke-miterlimit="10"
             pointer-events="stroke"
             id="path7895" /></g></g></g><g
       data-cell-id="5VAZSRaij0-240DspB-N-1"
       id="g10618"
       transform="matrix(0.33340908,0,0,0.29936939,105.40673,165.39235)"><g
         data-cell-id="5VAZSRaij0-240DspB-N-5"
         id="g10574" /><g
         data-cell-id="5VAZSRaij0-240DspB-N-13"
         id="g10576" /><g
         data-cell-id="MCuhjdw7w8LxIuEGj5up-0"
         id="g10616"><g
           id="g10578" /><g
           data-cell-id="5VAZSRaij0-240DspB-N-17"
           id="g10584"><g
             id="g10582"><circle
               cx="7"
               cy="12"
               fill="none"
               stroke="#5f5f5f"
               stroke-width="2"
               pointer-events="all"
               id="ellipse10580"
               r="6" /></g></g><g
           data-cell-id="5VAZSRaij0-240DspB-N-18"
           id="g10590"><g
             id="g10588"><path
               d="M 16,18 Q 15,6 23,6"
               fill="none"
               stroke="#5f5f5f"
               stroke-width="2"
               stroke-miterlimit="10"
               pointer-events="stroke"
               id="path10586" /></g></g><g
           data-cell-id="5VAZSRaij0-240DspB-N-21"
           id="g10596"><g
             id="g10594"><circle
               cx="31"
               cy="12"
               fill="none"
               stroke="#5f5f5f"
               stroke-width="2"
               pointer-events="all"
               id="ellipse10592"
               r="6" /></g></g><g
           data-cell-id="5VAZSRaij0-240DspB-N-22"
           id="g10602"><g
             id="g10600"><path
               d="M 25,12 V 1"
               fill="none"
               stroke="#5f5f5f"
               stroke-width="2"
               stroke-miterlimit="10"
               pointer-events="stroke"
               id="path10598" /></g></g><g
           data-cell-id="5VAZSRaij0-240DspB-N-25"
           id="g10608"><g
             id="g10606"><path
               d="M 40.48,18 V 4"
               fill="none"
               stroke="#5f5f5f"
               stroke-width="2"
               stroke-miterlimit="10"
               pointer-events="stroke"
               id="path10604" /></g></g><g
           data-cell-id="5VAZSRaij0-240DspB-N-26"
           id="g10614"><g
             id="g10612"><rect
               x="40"
               y="1"
               width="1"
               height="1"
               fill="#5f5f5f"
               stroke="#5f5f5f"
               pointer-events="all"
               id="rect10610" /></g></g></g></g><path
       style="fill:#f8f9f8;fill-opacity:1;stroke-width:0.0878956"
       d="m 107.89444,102.25872 c -4.77597,-0.19971 -9.552787,-0.72349 -15.003103,-1.64513 -6.942655,-1.173973 -10.606825,-2.37303 -10.606825,-3.470951 0,-1.311662 5.580595,-2.840419 15.247287,-4.176911 8.146761,-1.126369 16.183491,-1.307299 24.377381,-0.548836 4.36054,0.403613 10.76416,1.400323 14.33688,2.23145 3.63543,0.845741 5.65808,1.73968 5.65808,2.500696 0,1.333225 -6.05534,2.954152 -15.95259,4.270282 -5.90164,0.78483 -12.27643,1.08115 -18.05711,0.8394 z"
       id="path11130" /><path
       style="fill:#f8f9f8;fill-opacity:1;stroke-width:0.0878956"
       d="m 107.66618,177.69628 c -13.434772,-0.31103 -23.983609,-1.37441 -26.796835,-2.70133 -0.814911,-0.38437 -0.838127,-0.43231 -1.413149,-2.91732 -1.916214,-8.28112 -3.114216,-14.78201 -3.695665,-20.05429 -0.694499,-6.29733 -0.536108,-10.87786 0.869028,-25.13133 0.714991,-7.25275 2.828203,-26.27635 3.193497,-28.748545 l 0.05309,-0.359474 0.336811,0.248937 c 1.338909,0.989637 5.160172,1.960231 11.658173,2.961172 8.13751,1.2535 13.82128,1.67027 21.63836,1.58678 6.05922,-0.0648 10.32923,-0.38257 16.20592,-1.20632 7.91833,-1.10994 12.79076,-2.249749 14.25123,-3.333813 l 0.32776,-0.243315 0.38667,3.272028 c 2.01408,17.04372 3.22293,28.81196 3.90418,38.00743 0.22816,3.0795 0.229,8.97766 0.001,11.2541 -0.58484,5.85524 -1.91632,13.29532 -3.88946,21.7336 -0.60859,2.6027 -0.58952,2.56525 -1.51365,2.97398 -2.62249,1.15999 -11.0116,2.10429 -22.55284,2.53863 -2.36543,0.0889 -10.88328,0.16724 -12.96476,0.11917 z m 0.74461,-6.67552 c 0.68273,-0.18793 1.15866,-0.54774 1.44702,-1.09401 0.2142,-0.40575 0.24366,-0.55135 0.2131,-1.05282 -0.0468,-0.76851 -0.38345,-1.29581 -1.07112,-1.678 -0.98931,-0.54985 -2.11274,-0.43674 -2.92662,0.29472 -0.43601,0.39178 -0.73514,1.00154 -0.73514,1.49844 0,0.67953 0.60395,1.57895 1.25237,1.86517 0.69482,0.30667 1.15734,0.34897 1.82039,0.1665 z m 8.3324,-0.0946 c 0.73368,-0.2836 1.37438,-1.16119 1.37611,-1.88496 0.001,-0.61695 -0.18719,-1.03293 -0.68194,-1.50382 -0.4645,-0.44204 -1.09681,-0.70605 -1.69101,-0.70605 -0.3707,0 -1.13461,0.23368 -1.40261,0.42903 l -0.24079,0.17556 v -0.89463 -0.89463 h -0.3652 -0.36523 v 1.83063 c 0,1.15836 0.0393,1.95259 0.1072,2.16275 0.12313,0.38161 0.7047,1.03095 1.08702,1.21419 0.63614,0.30487 1.49977,0.33343 2.17626,0.0719 z m -5.63616,-1.0279 c 0.0653,-1.46949 0.47673,-2.09497 1.52552,-2.31938 0.46357,-0.0992 0.46608,-0.1015 0.46608,-0.43323 v -0.33356 l -0.43368,0.0554 c -0.7059,0.0902 -1.39422,0.4572 -1.73226,0.92384 -0.41273,0.56968 -0.49907,0.8879 -0.54876,2.02274 l -0.0436,0.99427 h 0.36308 0.36309 z m 8.20006,-1.20535 v -2.11543 h -0.41085 -0.41082 v 2.11543 2.11541 h 0.41082 0.41085 z m 0,-2.877 v -0.33849 h -0.36518 -0.3652 v 0.33847 0.33847 h 0.3652 0.36518 z"
       id="path11750" /><path
       style="fill:#f8f9f8;fill-opacity:1;stroke-width:0.0310757"
       d="m 107.41585,170.43731 c -0.58331,-0.10331 -1.12187,-0.56717 -1.2766,-1.09974 -0.021,-0.072 -0.0375,-0.23318 -0.0374,-0.35824 0.001,-1.12471 1.33047,-1.82238 2.43907,-1.28152 0.58052,0.28323 0.93204,0.91641 0.82917,1.49363 -0.14886,0.83587 -1.0445,1.40686 -1.95415,1.24587 z"
       id="path11752" /><path
       style="fill:#f8f9f8;fill-opacity:1;stroke-width:0.0310757"
       d="m 115.3839,170.42778 c -0.82632,-0.16662 -1.39866,-0.91028 -1.27129,-1.65182 0.12452,-0.72545 0.81991,-1.26554 1.62924,-1.26554 1.11826,0 1.91241,0.98837 1.56053,1.94217 -0.17583,0.47625 -0.66386,0.86775 -1.21766,0.97653 -0.26021,0.0512 -0.44233,0.0508 -0.70082,-0.001 z"
       id="path11754" /><path
       style="fill:#f8f9f8;fill-opacity:1;stroke-width:0.0865137"
       d="m 241.11371,70.186821 c 0.35687,-0.07122 2.18664,-0.433199 4.06615,-0.804393 17.8178,-3.518924 27.49956,-7.05344 29.30009,-10.696571 0.30215,-0.611353 0.33059,-0.729882 0.32776,-1.366037 -0.003,-0.609802 -0.0392,-0.771334 -0.29316,-1.296429 -1.35427,-2.800493 -7.23563,-5.481734 -18.04465,-8.226339 -3.95367,-1.003907 -10.66924,-2.447833 -15.13741,-3.254718 -0.61719,-0.111457 -1.05703,-0.215195 -0.97741,-0.230528 0.0796,-0.01533 1.79146,0.245953 3.8041,0.580636 21.53604,3.581244 34.14395,7.170772 37.51071,10.67947 1.23636,1.288473 1.21713,2.338001 -0.0661,3.609002 -3.52132,3.487727 -16.13827,7.06228 -37.39516,10.594553 -3.10917,0.516652 -4.64602,0.72092 -3.09491,0.411354 z"
       id="path2"
       transform="matrix(0.26458333,0,0,0.26458333,69.482149,81.976507)" /><path
       style="fill:#f8f9f8;fill-opacity:1;stroke-width:0.0865137"
       d="M 77.256744,69.68828 C 67.574927,68.050331 60.572036,66.621193 54.719922,65.089004 45.941935,62.790767 40.769272,60.437993 39.617871,58.21987 c -1.67582,-3.228397 6.181945,-6.863365 22.41246,-10.367908 5.292531,-1.14278 18.505344,-3.536298 19.060734,-3.452877 0.09413,0.01414 -1.304324,0.309848 -3.107667,0.657132 -14.175261,2.729845 -23.861277,5.654549 -28.067866,8.475125 -1.094564,0.733921 -2.097816,1.747117 -2.461883,2.486286 -0.225065,0.456953 -0.25595,0.612493 -0.258043,1.299525 -0.0022,0.716631 0.0219,0.829758 0.294555,1.383596 1.172897,2.382492 5.883175,4.7715 13.987179,7.094162 4.21208,1.20721 9.539464,2.449744 15.69289,3.660135 1.927093,0.379063 3.698461,0.727667 3.936374,0.774676 0.306286,0.06052 0.356799,0.0869 0.173028,0.09035 -0.142748,0.0027 -1.953047,-0.281623 -4.022888,-0.631794 z"
       id="path3"
       transform="matrix(0.26458333,0,0,0.26458333,69.482149,81.976507)" /></g><path
     style="fill:#0169b3;fill-opacity:1;stroke-width:0.0457801"
     d="m 40.217881,20.323165 c -1.609315,-0.0338 -2.711538,-0.08392 -4.5476,-0.206762 -0.587569,-0.03931 -1.096786,-0.06055 -1.131594,-0.04719 -0.03481,0.01336 -0.07355,0.0077 -0.0861,-0.01263 -0.01254,-0.0203 -0.224369,-0.05107 -0.470712,-0.06838 -2.436045,-0.171127 -6.590607,-0.703699 -10.242387,-1.312969 -0.754016,-0.125802 -1.396469,-0.218933 -1.427673,-0.206958 -0.0312,0.01197 -0.06322,0.0052 -0.07114,-0.01508 -0.0079,-0.02027 -0.374922,-0.102525 -0.815556,-0.182794 -1.740589,-0.317078 -3.893677,-0.810996 -5.241829,-1.202474 -1.800588,-0.522857 -3.037163,-1.139138 -3.298076,-1.643688 -0.417221,-0.806818 1.305853,-1.700558 5.01932,-2.603467 2.865467,-0.696722 7.172457,-1.448949 11.188765,-1.954146 0.352507,-0.04434 0.647404,-0.09599 0.655325,-0.11477 0.0079,-0.01878 0.04202,-0.02355 0.07577,-0.0106 0.03375,0.01295 0.336286,-0.0083 0.672301,-0.04724 2.361864,-0.273674 6.053505,-0.572378 7.073358,-0.57233 0.279196,1.3e-5 0.47725,-0.01944 0.4953,-0.04865 0.01654,-0.02677 0.0491,-0.03691 0.07234,-0.02255 0.02326,0.01437 1.027398,0.0023 2.231451,-0.02678 1.66793,-0.040305 2.695381,-0.040061 4.315131,10e-4 2.725095,0.06913 3.367212,0.08996 3.440131,0.111609 0.07188,0.02134 2.0168,0.127981 2.076826,0.113872 0.02336,-0.0055 0.07341,0.0014 0.111175,0.01534 0.07382,0.02723 2.019353,0.183139 2.087711,0.167306 0.02259,-0.0052 0.07197,0.0025 0.109736,0.01722 0.106839,0.0416 1.232257,0.132898 1.279356,0.10379 0.02307,-0.01426 0.05576,-0.0036 0.07265,0.02377 0.01688,0.02733 0.105868,0.04551 0.197729,0.04041 0.09186,-0.0051 0.203324,0.0061 0.247695,0.02484 0.04437,0.01877 0.142229,0.02509 0.217455,0.01405 0.07523,-0.01104 0.136779,-0.0071 0.136779,0.0089 0,0.04075 1.041916,0.150548 1.098241,0.115736 0.02545,-0.01573 0.04626,-0.0046 0.04626,0.0247 0,0.03454 0.06428,0.04716 0.182729,0.03587 0.100502,-0.0096 0.188055,-0.0051 0.194567,0.0099 0.01744,0.0403 2.176684,0.329737 2.227156,0.298543 0.02363,-0.01461 0.04989,-0.0095 0.05833,0.01134 0.0199,0.04913 1.396918,0.251863 1.457293,0.21455 0.02527,-0.01561 0.04592,-0.01069 0.04592,0.01093 0,0.04587 0.762638,0.164274 0.821957,0.127613 0.02201,-0.01361 0.04696,-0.0077 0.0554,0.01319 0.02043,0.05045 1.533308,0.29819 1.593567,0.260946 0.02585,-0.01597 0.04698,-0.01088 0.04698,0.01132 0,0.0222 0.272965,0.08717 0.606586,0.144391 0.847709,0.145391 2.763293,0.529444 3.5823,0.71821 3.315665,0.764199 5.408419,1.620987 5.676974,2.324196 0.07704,0.201729 0.07652,0.211946 -0.0213,0.414035 -0.401918,0.83025 -3.133228,1.791662 -7.647101,2.691757 -0.667248,0.133053 -1.220084,0.257494 -1.22853,0.276535 -0.0084,0.01904 -0.03307,0.02368 -0.05472,0.01029 -0.02164,-0.01338 -0.560663,0.06677 -1.197819,0.178121 -0.637148,0.111346 -1.457174,0.24745 -1.82227,0.302455 -0.365096,0.055 -0.694714,0.110483 -0.732483,0.123287 -0.03777,0.0128 -0.178419,0.03149 -0.31256,0.04154 -0.134139,0.01004 -0.268034,0.03318 -0.297543,0.05142 -0.02951,0.01824 -0.108275,0.02743 -0.175035,0.02043 -0.06676,-0.007 -0.135154,0.0095 -0.151977,0.03677 -0.01683,0.02723 -0.04891,0.03818 -0.0713,0.02434 -0.04509,-0.02787 -1.839275,0.212323 -1.875735,0.251106 -0.01259,0.01339 -0.167097,0.03104 -0.343349,0.03922 -0.176255,0.0082 -0.325787,0.02931 -0.332299,0.04695 -0.0065,0.01765 -0.09406,0.02424 -0.194566,0.01466 -0.1005,-0.0096 -0.182729,7.41e-4 -0.182729,0.02293 0,0.02219 -0.0824,0.0325 -0.183121,0.02289 -0.118766,-0.01133 -0.183121,0.0013 -0.183121,0.03583 0,0.02931 -0.02167,0.0399 -0.04813,0.02354 -0.04705,-0.02908 -0.960525,0.0532 -1.096288,0.09874 -0.03772,0.01265 -0.243242,0.03253 -0.456705,0.04417 -0.213463,0.01164 -0.406572,0.03961 -0.429128,0.06217 -0.02257,0.02256 -0.06756,0.03082 -0.1,0.01837 -0.03244,-0.01245 -0.529511,0.02002 -1.10459,0.07215 -1.909183,0.173065 -4.290719,0.319493 -6.218762,0.382359 -1.291815,0.04212 -4.331694,0.05811 -5.676741,0.02986 z"
     id="path1" /></svg>
