<?xml version="1.0" encoding="UTF-8" standalone="no"?>
<!-- Created with Inkscape (http://www.inkscape.org/) -->

<svg
   width="84.931244mm"
   height="106.75936mm"
   viewBox="0 0 84.931244 106.75936"
   version="1.1"
   id="svg7767"
   xml:space="preserve"
   xmlns="http://www.w3.org/2000/svg"
   xmlns:svg="http://www.w3.org/2000/svg"><defs
     id="defs7764" /><g
     id="layer1"
     transform="translate(-69.482149,-81.976507)"><g
       data-cell-id="1"
       id="g7901"
       transform="matrix(0.23074262,0,0,0.21385086,75.043069,91.693827)"><g
         data-cell-id="tiWM4fHZ4g_kkL0M3Pxn-1"
         id="g7863"><g
           transform="translate(0.5,0.5)"
           id="g7861"><path
             d="M 20,385 Q 0,295 0,250 0,205 20,25"
             fill="none"
             stroke="#000000"
             stroke-miterlimit="10"
             pointer-events="stroke"
             id="path7859" /></g></g><g
         data-cell-id="tiWM4fHZ4g_kkL0M3Pxn-2"
         id="g7869"><g
           transform="translate(0.5,0.5)"
           id="g7867"><path
             d="m 300,385 q 20,-90 20,-135 0,-45 -20,-225"
             fill="none"
             stroke="#000000"
             stroke-miterlimit="10"
             pointer-events="stroke"
             id="path7865" /></g></g><g
         data-cell-id="tiWM4fHZ4g_kkL0M3Pxn-3"
         id="g7875"><g
           transform="translate(0.5,0.5)"
           id="g7873"><path
             d="m 20,385 q 0,10 70,15 70,5 140,0 70,-5 70,-15"
             fill="none"
             stroke="#000000"
             stroke-miterlimit="10"
             pointer-events="stroke"
             id="path7871" /></g></g><g
         data-cell-id="tiWM4fHZ4g_kkL0M3Pxn-4"
         id="g7881"><g
           transform="translate(0.5,0.5)"
           id="g7879"><path
             d="M 20,25 Q 20,15 90,5 160,-5 230,5 300,15 300,25"
             fill="none"
             stroke="#000000"
             stroke-miterlimit="10"
             pointer-events="stroke"
             id="path7877" /></g></g><g
         data-cell-id="tiWM4fHZ4g_kkL0M3Pxn-5"
         id="g7887"><g
           transform="translate(0.5,0.5)"
           id="g7885"><path
             d="m 20,25 q 0,10 70,20 70,10 140,0 70,-10 70,-20"
             fill="none"
             stroke="#000000"
             stroke-miterlimit="10"
             pointer-events="stroke"
             id="path7883" /></g></g><g
         data-cell-id="tiWM4fHZ4g_kkL0M3Pxn-6"
         id="g7893"><g
           transform="translate(0.5,0.5)"
           id="g7891"><path
             d="M 30,25 Q 30,15 95,5 160,-5 225,5 290,15 290,25"
             fill="none"
             stroke="#000000"
             stroke-miterlimit="10"
             pointer-events="stroke"
             id="path7889" /></g></g><g
         data-cell-id="tiWM4fHZ4g_kkL0M3Pxn-7"
         id="g7899"><g
           transform="translate(0.5,0.5)"
           id="g7897"><path
             d="m 30,25 q 0,10 65,20 65,10 130,0 65,-10 65,-20"
             fill="none"
             stroke="#000000"
             stroke-miterlimit="10"
             pointer-events="stroke"
             id="path7895" /></g></g></g><path
       style="fill:#0169b3;fill-opacity:1;stroke-width:0.0621517"
       d="m 136.6265,99.864261 c 4.05413,-0.959048 5.85447,-1.916036 5.54692,-2.948476 -0.25333,-0.850258 -2.05444,-1.655282 -5.57882,-2.493485 -0.67465,-0.160448 -1.17639,-0.293045 -1.11497,-0.294667 0.29243,-0.0068 3.58347,0.688244 4.81357,1.017906 2.33107,0.624712 3.75845,1.30792 3.91125,1.872096 0.19925,0.735835 -1.51217,1.56489 -4.89835,2.372789 -1.27343,0.303836 -3.62195,0.779656 -3.82295,0.774526 -0.0634,-0.001 0.45115,-0.137 1.14335,-0.300689 z"
       id="path8458" /><path
       style="fill:#0169b3;fill-opacity:1;stroke-width:0.0439477"
       d="m 88.150602,100.09033 c -4.211147,-0.788632 -6.630506,-1.493507 -7.708719,-2.245893 -0.344719,-0.240554 -0.472902,-0.410433 -0.498904,-0.66125 -0.018,-0.174272 -0.0018,-0.230256 0.110205,-0.380666 0.469512,-0.630097 2.248781,-1.324527 5.068851,-1.978374 1.364347,-0.316334 4.152396,-0.854405 4.369919,-0.843352 0.09166,0.0045 0.09178,0.0057 0.005,0.02388 -3.932922,0.813733 -6.236384,1.578196 -7.120165,2.362962 -0.328654,0.291839 -0.408751,0.444874 -0.410632,0.784563 -0.0013,0.237579 0.01782,0.305393 0.131622,0.465413 0.373474,0.525341 1.166973,0.964379 2.651528,1.467073 0.879516,0.29781 2.416212,0.702972 3.720527,0.980894 1.138095,0.24252 1.166911,0.2497 1.004298,0.25067 -0.06281,4.4e-4 -0.658488,-0.10139 -1.323853,-0.22585 z"
       id="path9393" /><g
       data-cell-id="5VAZSRaij0-240DspB-N-1"
       id="g10618"
       transform="matrix(0.33340908,0,0,0.29936939,105.40673,165.39235)"><g
         data-cell-id="5VAZSRaij0-240DspB-N-5"
         id="g10574" /><g
         data-cell-id="5VAZSRaij0-240DspB-N-13"
         id="g10576" /><g
         data-cell-id="MCuhjdw7w8LxIuEGj5up-0"
         id="g10616"><g
           id="g10578" /><g
           data-cell-id="5VAZSRaij0-240DspB-N-17"
           id="g10584"><g
             id="g10582"><circle
               cx="7"
               cy="12"
               fill="none"
               stroke="#5f5f5f"
               stroke-width="2"
               pointer-events="all"
               id="ellipse10580"
               r="6" /></g></g><g
           data-cell-id="5VAZSRaij0-240DspB-N-18"
           id="g10590"><g
             id="g10588"><path
               d="M 16,18 Q 15,6 23,6"
               fill="none"
               stroke="#5f5f5f"
               stroke-width="2"
               stroke-miterlimit="10"
               pointer-events="stroke"
               id="path10586" /></g></g><g
           data-cell-id="5VAZSRaij0-240DspB-N-21"
           id="g10596"><g
             id="g10594"><circle
               cx="31"
               cy="12"
               fill="none"
               stroke="#5f5f5f"
               stroke-width="2"
               pointer-events="all"
               id="ellipse10592"
               r="6" /></g></g><g
           data-cell-id="5VAZSRaij0-240DspB-N-22"
           id="g10602"><g
             id="g10600"><path
               d="M 25,12 V 1"
               fill="none"
               stroke="#5f5f5f"
               stroke-width="2"
               stroke-miterlimit="10"
               pointer-events="stroke"
               id="path10598" /></g></g><g
           data-cell-id="5VAZSRaij0-240DspB-N-25"
           id="g10608"><g
             id="g10606"><path
               d="M 40.48,18 V 4"
               fill="none"
               stroke="#5f5f5f"
               stroke-width="2"
               stroke-miterlimit="10"
               pointer-events="stroke"
               id="path10604" /></g></g><g
           data-cell-id="5VAZSRaij0-240DspB-N-26"
           id="g10614"><g
             id="g10612"><rect
               x="40"
               y="1"
               width="1"
               height="1"
               fill="#5f5f5f"
               stroke="#5f5f5f"
               pointer-events="all"
               id="rect10610" /></g></g></g></g><path
       style="fill:#f8f9f8;fill-opacity:1;stroke-width:0.0878956"
       d="m 107.89444,102.25872 c -4.77597,-0.19971 -9.552787,-0.72349 -15.003103,-1.64513 -6.942655,-1.173973 -10.606825,-2.37303 -10.606825,-3.470951 0,-1.311662 5.580595,-2.840419 15.247287,-4.176911 8.146761,-1.126369 16.183491,-1.307299 24.377381,-0.548836 4.36054,0.403613 10.76416,1.400323 14.33688,2.23145 3.63543,0.845741 5.65808,1.73968 5.65808,2.500696 0,1.333225 -6.05534,2.954152 -15.95259,4.270282 -5.90164,0.78483 -12.27643,1.08115 -18.05711,0.8394 z"
       id="path11130" /><path
       style="fill:#f8f9f8;fill-opacity:1;stroke-width:0.0878956"
       d="m 107.66618,177.69628 c -13.434772,-0.31103 -23.983609,-1.37441 -26.796835,-2.70133 -0.814911,-0.38437 -0.838127,-0.43231 -1.413149,-2.91732 -1.916214,-8.28112 -3.114216,-14.78201 -3.695665,-20.05429 -0.694499,-6.29733 -0.536108,-10.87786 0.869028,-25.13133 0.714991,-7.25275 2.828203,-26.27635 3.193497,-28.748545 l 0.05309,-0.359474 0.336811,0.248937 c 1.338909,0.989637 5.160172,1.960231 11.658173,2.961172 8.13751,1.2535 13.82128,1.67027 21.63836,1.58678 6.05922,-0.0648 10.32923,-0.38257 16.20592,-1.20632 7.91833,-1.10994 12.79076,-2.249749 14.25123,-3.333813 l 0.32776,-0.243315 0.38667,3.272028 c 2.01408,17.04372 3.22293,28.81196 3.90418,38.00743 0.22816,3.0795 0.229,8.97766 0.001,11.2541 -0.58484,5.85524 -1.91632,13.29532 -3.88946,21.7336 -0.60859,2.6027 -0.58952,2.56525 -1.51365,2.97398 -2.62249,1.15999 -11.0116,2.10429 -22.55284,2.53863 -2.36543,0.0889 -10.88328,0.16724 -12.96476,0.11917 z m 0.74461,-6.67552 c 0.68273,-0.18793 1.15866,-0.54774 1.44702,-1.09401 0.2142,-0.40575 0.24366,-0.55135 0.2131,-1.05282 -0.0468,-0.76851 -0.38345,-1.29581 -1.07112,-1.678 -0.98931,-0.54985 -2.11274,-0.43674 -2.92662,0.29472 -0.43601,0.39178 -0.73514,1.00154 -0.73514,1.49844 0,0.67953 0.60395,1.57895 1.25237,1.86517 0.69482,0.30667 1.15734,0.34897 1.82039,0.1665 z m 8.3324,-0.0946 c 0.73368,-0.2836 1.37438,-1.16119 1.37611,-1.88496 0.001,-0.61695 -0.18719,-1.03293 -0.68194,-1.50382 -0.4645,-0.44204 -1.09681,-0.70605 -1.69101,-0.70605 -0.3707,0 -1.13461,0.23368 -1.40261,0.42903 l -0.24079,0.17556 v -0.89463 -0.89463 h -0.3652 -0.36523 v 1.83063 c 0,1.15836 0.0393,1.95259 0.1072,2.16275 0.12313,0.38161 0.7047,1.03095 1.08702,1.21419 0.63614,0.30487 1.49977,0.33343 2.17626,0.0719 z m -5.63616,-1.0279 c 0.0653,-1.46949 0.47673,-2.09497 1.52552,-2.31938 0.46357,-0.0992 0.46608,-0.1015 0.46608,-0.43323 v -0.33356 l -0.43368,0.0554 c -0.7059,0.0902 -1.39422,0.4572 -1.73226,0.92384 -0.41273,0.56968 -0.49907,0.8879 -0.54876,2.02274 l -0.0436,0.99427 h 0.36308 0.36309 z m 8.20006,-1.20535 v -2.11543 h -0.41085 -0.41082 v 2.11543 2.11541 h 0.41082 0.41085 z m 0,-2.877 v -0.33849 h -0.36518 -0.3652 v 0.33847 0.33847 h 0.3652 0.36518 z"
       id="path11750" /><path
       style="fill:#f8f9f8;fill-opacity:1;stroke-width:0.0310757"
       d="m 107.41585,170.43731 c -0.58331,-0.10331 -1.12187,-0.56717 -1.2766,-1.09974 -0.021,-0.072 -0.0375,-0.23318 -0.0374,-0.35824 0.001,-1.12471 1.33047,-1.82238 2.43907,-1.28152 0.58052,0.28323 0.93204,0.91641 0.82917,1.49363 -0.14886,0.83587 -1.0445,1.40686 -1.95415,1.24587 z"
       id="path11752" /><path
       style="fill:#f8f9f8;fill-opacity:1;stroke-width:0.0310757"
       d="m 115.3839,170.42778 c -0.82632,-0.16662 -1.39866,-0.91028 -1.27129,-1.65182 0.12452,-0.72545 0.81991,-1.26554 1.62924,-1.26554 1.11826,0 1.91241,0.98837 1.56053,1.94217 -0.17583,0.47625 -0.66386,0.86775 -1.21766,0.97653 -0.26021,0.0512 -0.44233,0.0508 -0.70082,-0.001 z"
       id="path11754" /></g></svg>
