<?xml version="1.0" encoding="UTF-8" standalone="no"?>
<svg
   width="100%"
   height="100%"
   viewBox="0 0 1280 1150"
   version="1.1"
   xml:space="preserve"
   style="fill-rule:evenodd;clip-rule:evenodd;stroke-linecap:round;stroke-linejoin:round;stroke-miterlimit:1.41421;"
   id="svg187"
   sodipodi:docname="front.svg"
   inkscape:version="1.2 (1:1.2+202206011327+fc4e4096c5)"
   xmlns:inkscape="http://www.inkscape.org/namespaces/inkscape"
   xmlns:sodipodi="http://sodipodi.sourceforge.net/DTD/sodipodi-0.dtd"
   xmlns="http://www.w3.org/2000/svg"
   xmlns:svg="http://www.w3.org/2000/svg"><defs
   id="defs191" /><sodipodi:namedview
   id="namedview189"
   pagecolor="#ffffff"
   bordercolor="#666666"
   borderopacity="1.0"
   inkscape:showpageshadow="2"
   inkscape:pageopacity="0.0"
   inkscape:pagecheckerboard="0"
   inkscape:deskcolor="#d1d1d1"
   showgrid="false"
   inkscape:zoom="0.41043478"
   inkscape:cx="1104.9258"
   inkscape:cy="607.89195"
   inkscape:window-width="1920"
   inkscape:window-height="1021"
   inkscape:window-x="0"
   inkscape:window-y="0"
   inkscape:window-maximized="1"
   inkscape:current-layer="svg187" />
    <g
   id="Netgear Front"
   transform="translate(-0.5929985,-110.82931)">
        <g
   transform="matrix(7.63715,0,0,1,-863.442,0)"
   id="g4">
            <rect
   x="130.092"
   y="641.88702"
   width="137.214"
   height="123.814"
   style="fill:#2b2f30;stroke:#000000;stroke-width:0.18px"
   id="rect2" />
        </g>
        <g
   id="boden">
            <rect
   x="1122.6"
   y="766.35999"
   width="49.355"
   height="8.4110003"
   style="fill:#000000;stroke:#000000;stroke-width:1px"
   id="rect6" />
            <g
   transform="translate(-1016.77)"
   id="g10">
                <rect
   x="1122.6"
   y="766.35999"
   width="49.355"
   height="8.4110003"
   style="fill:#000000;stroke:#000000;stroke-width:1px"
   id="rect8" />
            </g>
            <rect
   x="64.872002"
   y="727.85199"
   width="79.556"
   height="32.668999"
   style="fill:#495153;stroke:#000000;stroke-width:3px"
   id="rect12" />
            <g
   transform="translate(1074.95)"
   id="g16">
                <rect
   x="64.872002"
   y="727.85199"
   width="79.556"
   height="32.668999"
   style="fill:#495153;stroke:#000000;stroke-width:3px"
   id="rect14" />
            </g>
            <rect
   x="45.342999"
   y="757.80103"
   width="1190.5"
   height="14.923"
   style="fill:#495153;stroke:#000000;stroke-width:3px"
   id="rect18" />
        </g>
        <path
   d="M 107.462,624.844 H 1177.9 c -356.815,-37.391 -713.629,-34.463 -1070.438,0 z"
   style="fill:#626062;stroke:#000000;stroke-width:3px"
   id="path21" />
        <path
   d="m 45.705,740.17 h 86.228 c 6.826,0 12.418,-3.394 12.418,-9.913 v -70.299 c 1.893,-7.459 7.122,-10.072 14.039,-10.234 h 964.92 c 10.81,-0.51 16.07,3.007 16.19,10.234 v 71.899 c 0,3.397 3.11,8.313 8.31,8.313 h 85.39 V 624.844 H 45.705 Z"
   style="fill:#222420;stroke:#010000;stroke-width:2.5px"
   id="path23" />
        <g
   id="red">
            <path
   d="m 144.598,659.958 c 1.47,-5.62 5.076,-9.68 13.792,-10.011 h 967.58 c 7.77,0.079 13.01,2.615 13.27,10.011 v 72.269 H 144.598 Z"
   style="fill:#2b2c30"
   id="path25" />
            <path
   d="m 1126.15,649.95 0.19,0.003 0.18,0.004 0.17,0.005 0.18,0.006 0.18,0.007 0.17,0.008 0.18,0.009 0.17,0.009 0.18,0.011 0.17,0.012 0.17,0.012 0.17,0.014 0.17,0.015 0.17,0.015 0.16,0.017 0.17,0.017 0.16,0.019 0.17,0.02 0.16,0.02 0.16,0.022 0.16,0.023 0.16,0.024 0.16,0.025 0.16,0.026 0.15,0.027 0.16,0.028 0.15,0.029 0.15,0.03 0.16,0.032 0.15,0.032 0.15,0.034 0.14,0.034 0.15,0.036 0.15,0.037 0.14,0.038 0.15,0.04 0.14,0.04 0.14,0.042 0.14,0.042 0.14,0.044 0.13,0.045 0.14,0.047 0.14,0.047 0.13,0.049 0.13,0.05 0.13,0.051 0.14,0.052 0.12,0.054 0.13,0.055 0.13,0.056 0.12,0.057 0.13,0.059 0.12,0.059 0.12,0.062 0.12,0.062 0.12,0.064 0.12,0.065 0.11,0.066 0.12,0.067 0.11,0.069 0.11,0.07 0.11,0.072 0.11,0.073 0.11,0.074 0.11,0.076 0.1,0.076 0.1,0.079 0.11,0.079 0.1,0.081 0.1,0.083 0.09,0.083 0.1,0.086 0.1,0.086 0.09,0.088 0.09,0.089 0.09,0.091 0.09,0.092 0.09,0.094 0.09,0.095 0.08,0.097 0.08,0.098 0.09,0.099 0.08,0.101 0.07,0.103 0.08,0.104 0.08,0.105 0.07,0.107 0.07,0.108 0.08,0.11 0.07,0.112 0.06,0.113 0.07,0.114 0.06,0.116 0.07,0.118 0.06,0.119 0.06,0.12 0.06,0.123 0.06,0.124 0.05,0.125 0.05,0.127 0.06,0.129 0.05,0.13 0.04,0.132 0.05,0.133 0.05,0.135 0.04,0.137 0.04,0.138 0.04,0.14 0.04,0.141 0.04,0.144 0.03,0.145 0.04,0.146 0.03,0.148 0.03,0.15 0.03,0.152 0.02,0.153 0.03,0.155 0.02,0.157 0.02,0.159 0.02,0.16 0.02,0.162 0.01,0.163 0.02,0.166 0.01,0.167 0.01,0.169 0.01,0.17 0.01,0.173 v 72.269 H 144.598 v -72.269 l 0.035,-0.132 0.036,-0.131 0.036,-0.13 0.037,-0.129 0.038,-0.13 0.039,-0.128 0.04,-0.128 0.041,-0.127 0.041,-0.127 0.042,-0.126 0.043,-0.125 0.044,-0.125 0.045,-0.124 0.046,-0.124 0.047,-0.122 0.047,-0.122 0.049,-0.122 0.049,-0.121 0.051,-0.12 0.051,-0.119 0.052,-0.119 0.053,-0.118 0.055,-0.117 0.055,-0.117 0.056,-0.116 0.057,-0.115 0.058,-0.114 0.059,-0.114 0.061,-0.113 0.061,-0.112 0.062,-0.111 0.063,-0.111 0.065,-0.11 0.065,-0.109 0.067,-0.108 0.067,-0.108 0.069,-0.106 0.07,-0.106 0.071,-0.106 0.072,-0.104 0.073,-0.103 0.074,-0.103 0.075,-0.102 0.077,-0.101 0.078,-0.1 0.078,-0.099 0.08,-0.099 0.082,-0.097 0.082,-0.097 0.084,-0.096 0.084,-0.095 0.086,-0.094 0.088,-0.093 0.088,-0.092 0.09,-0.092 0.091,-0.09 0.092,-0.09 0.094,-0.088 0.094,-0.088 0.096,-0.087 0.098,-0.086 0.098,-0.084 0.1,-0.084 0.102,-0.083 0.102,-0.082 0.104,-0.081 0.105,-0.08 0.107,-0.079 0.108,-0.078 0.109,-0.077 0.111,-0.076 0.112,-0.075 0.114,-0.074 0.115,-0.073 0.116,-0.072 0.118,-0.071 0.119,-0.07 0.121,-0.069 0.122,-0.067 0.123,-0.067 0.125,-0.066 0.127,-0.064 0.128,-0.064 0.129,-0.062 0.131,-0.061 0.133,-0.06 0.133,-0.06 0.136,-0.058 0.137,-0.056 0.138,-0.056 0.141,-0.055 0.141,-0.053 0.143,-0.052 0.145,-0.052 0.147,-0.05 0.147,-0.048 0.15,-0.048 0.151,-0.047 0.153,-0.045 0.154,-0.044 0.156,-0.043 0.158,-0.042 0.159,-0.04 0.161,-0.04 0.163,-0.038 0.164,-0.037 0.166,-0.035 0.168,-0.035 0.169,-0.033 0.172,-0.032 0.172,-0.031 0.175,-0.029 0.176,-0.028 0.178,-0.027 0.18,-0.026 0.182,-0.024 0.183,-0.023 0.185,-0.022 0.187,-0.02 0.189,-0.019 0.19,-0.018 0.192,-0.017 0.194,-0.015 0.196,-0.014 0.198,-0.012 0.2,-0.011 0.201,-0.01 0.204,-0.009 h 967.58 z m -967.729,1.498 -0.168,0.006 -0.19,0.01 -0.189,0.01 -0.187,0.012 -0.185,0.013 -0.182,0.014 -0.181,0.016 -0.179,0.016 -0.177,0.018 -0.175,0.02 -0.173,0.02 -0.171,0.021 -0.17,0.023 -0.167,0.024 -0.165,0.025 -0.164,0.026 -0.162,0.027 -0.16,0.029 -0.158,0.029 -0.156,0.031 -0.154,0.032 -0.153,0.032 -0.151,0.034 -0.148,0.035 -0.148,0.036 -0.145,0.037 -0.143,0.038 -0.142,0.039 -0.141,0.04 -0.138,0.041 -0.137,0.042 -0.135,0.043 -0.133,0.044 -0.131,0.045 -0.13,0.046 -0.129,0.047 -0.126,0.048 -0.125,0.049 -0.124,0.049 -0.121,0.051 -0.121,0.051 -0.119,0.053 -0.116,0.053 -0.116,0.054 -0.114,0.055 -0.113,0.056 -0.111,0.056 -0.11,0.058 -0.108,0.059 -0.107,0.059 -0.105,0.06 -0.104,0.061 -0.103,0.061 -0.101,0.063 -0.099,0.063 -0.099,0.064 -0.098,0.066 -0.095,0.065 -0.095,0.067 -0.093,0.067 -0.092,0.069 -0.091,0.069 -0.09,0.069 -0.088,0.071 -0.087,0.071 -0.086,0.073 -0.085,0.073 -0.084,0.074 -0.083,0.074 -0.081,0.076 -0.081,0.076 -0.079,0.077 -0.078,0.078 -0.077,0.078 -0.077,0.08 -0.074,0.08 -0.075,0.081 -0.073,0.082 -0.072,0.082 -0.071,0.084 -0.07,0.084 -0.069,0.085 -0.068,0.086 -0.068,0.087 -0.066,0.087 -0.065,0.089 -0.065,0.089 -0.064,0.09 -0.062,0.091 -0.062,0.091 -0.061,0.093 -0.06,0.093 -0.059,0.094 -0.058,0.095 -0.058,0.096 -0.056,0.097 -0.056,0.097 -0.055,0.098 -0.054,0.099 -0.053,0.1 -0.053,0.101 -0.052,0.102 -0.05,0.102 -0.05,0.103 -0.05,0.104 -0.048,0.105 -0.048,0.106 -0.047,0.106 -0.046,0.108 -0.045,0.108 -0.045,0.108 -0.043,0.11 -0.043,0.111 -0.043,0.111 -0.041,0.112 -0.041,0.113 -0.04,0.113 -0.039,0.115 -0.039,0.115 -0.038,0.116 -0.037,0.116 -0.037,0.117 -0.035,0.119 -0.035,0.119 -0.035,0.119 -0.033,0.12 -0.017,0.061 v 70.572 h 991.642 v -70.739 l -0.01,-0.134 V 659.7 l -0.02,-0.152 -0.01,-0.15 -0.01,-0.148 -0.01,-0.146 -0.02,-0.144 -0.02,-0.142 -0.01,-0.14 -0.02,-0.138 -0.03,-0.136 -0.02,-0.134 -0.02,-0.133 -0.03,-0.13 -0.03,-0.129 -0.03,-0.126 -0.03,-0.125 -0.03,-0.123 -0.03,-0.121 -0.04,-0.12 -0.03,-0.117 -0.04,-0.116 -0.04,-0.114 -0.04,-0.113 -0.04,-0.11 -0.04,-0.109 -0.04,-0.108 -0.05,-0.105 -0.04,-0.105 -0.05,-0.102 -0.05,-0.101 -0.05,-0.099 -0.05,-0.098 -0.05,-0.097 -0.05,-0.095 -0.06,-0.094 -0.05,-0.091 -0.06,-0.091 -0.06,-0.09 -0.06,-0.088 -0.06,-0.087 -0.06,-0.085 -0.06,-0.085 -0.07,-0.083 -0.06,-0.081 -0.07,-0.081 -0.06,-0.079 -0.07,-0.079 -0.07,-0.077 -0.08,-0.076 -0.07,-0.075 -0.07,-0.074 -0.08,-0.073 -0.07,-0.072 -0.08,-0.071 -0.08,-0.069 -0.08,-0.069 -0.08,-0.068 -0.08,-0.067 -0.09,-0.065 -0.08,-0.065 -0.09,-0.064 -0.09,-0.063 -0.09,-0.062 -0.09,-0.061 -0.09,-0.06 -0.1,-0.059 -0.09,-0.058 -0.1,-0.057 -0.1,-0.056 -0.1,-0.056 -0.1,-0.054 -0.1,-0.053 -0.11,-0.053 -0.1,-0.051 -0.11,-0.051 -0.11,-0.05 -0.11,-0.049 -0.11,-0.047 -0.11,-0.047 -0.12,-0.046 -0.11,-0.045 -0.12,-0.044 -0.12,-0.043 -0.12,-0.042 -0.12,-0.042 -0.12,-0.04 -0.13,-0.039 -0.12,-0.038 -0.13,-0.038 -0.13,-0.036 -0.13,-0.036 -0.13,-0.034 -0.13,-0.034 -0.13,-0.033 -0.14,-0.031 -0.14,-0.031 -0.13,-0.03 -0.14,-0.029 -0.14,-0.027 -0.15,-0.027 -0.14,-0.026 -0.14,-0.025 -0.15,-0.024 -0.15,-0.024 -0.14,-0.022 -0.15,-0.021 -0.16,-0.02 -0.15,-0.02 -0.15,-0.018 -0.16,-0.018 -0.15,-0.016 -0.16,-0.016 -0.16,-0.014 -0.16,-0.014 -0.16,-0.013 -0.16,-0.012 -0.16,-0.011 -0.16,-0.01 -0.17,-0.01 -0.17,-0.008 -0.16,-0.007 -0.17,-0.007 -0.17,-0.006 -0.17,-0.004 -0.17,-0.004 -0.18,-0.003 -0.17,-0.002 z"
   style="fill:#3a3b3b"
   id="path27" />
        </g>
        <g
   id="buttons"
   transform="matrix(0.950988,0,0,1,48.5574,0)">
            <path
   d="m 1137.67,685.1 c 0,-7.103 -6.06,-12.87 -13.53,-12.87 h -119.88 c -7.47,0 -13.534,5.767 -13.534,12.87 v 25.739 c 0,7.103 6.064,12.869 13.534,12.869 h 119.88 c 7.47,0 13.53,-5.766 13.53,-12.869 z"
   style="fill:#2b2f30;stroke:#222420;stroke-width:3.07px"
   id="path30" />
            <g
   transform="matrix(0.991738,0,0,1,9.33668,0)"
   id="g34">
                <path
   d="m 1130.03,685.726 c 0,-3.346 -2.88,-6.061 -6.43,-6.061 h -52.98 c -3.54,0 -6.42,2.715 -6.42,6.061 v 26.252 c 0,3.346 2.88,6.061 6.42,6.061 h 52.98 c 3.55,0 6.43,-2.715 6.43,-6.061 z"
   style="fill:#2b2f30;stroke:#222420;stroke-width:2.57px"
   id="path32" />
            </g>
            <g
   transform="matrix(0.983475,0,0,1,-49.2524,0)"
   id="g38">
                <path
   d="m 1130.03,685.726 c 0,-3.346 -2.9,-6.061 -6.48,-6.061 h -52.87 c -3.58,0 -6.48,2.715 -6.48,6.061 v 26.252 c 0,3.346 2.9,6.061 6.48,6.061 h 52.87 c 3.58,0 6.48,-2.715 6.48,-6.061 z"
   style="fill:#2b2f30;stroke:#222420;stroke-width:2.07px"
   id="path36" />
            </g>
        </g>
        <g
   id="Beschriftung"
   transform="translate(0,185.87)">
            <g
   id="wifi">
                <path
   d="m 1019.57,502.796 c -5.99,6.103 -4.95,11.344 0,16.105"
   style="fill:none;stroke:#9d9d9b;stroke-width:1.5px"
   id="path41" />
                <path
   d="m 1037.02,502.796 c 4.41,5.759 4.28,11.115 0,16.105"
   style="fill:none;stroke:#9d9d9b;stroke-width:1.5px"
   id="path43" />
                <ellipse
   cx="1027.76"
   cy="510.53799"
   rx="1.654"
   ry="1.591"
   style="fill:#9d9d9b;stroke:#9d9d9b;stroke-width:1.5px"
   id="ellipse45" />
                <path
   d="m 1023.6,506.896 c -3.49,2.805 -3.27,5.455 0,7.977"
   style="fill:none;stroke:#9d9d9b;stroke-width:1.5px"
   id="path47" />
                <path
   d="m 1032.74,506.896 c 3.04,2.625 2.86,5.286 0,7.977"
   style="fill:none;stroke:#9d9d9b;stroke-width:1.5px"
   id="path49" />
            </g>
            <g
   id="wifi secure"
   transform="translate(63.4607)">
                <path
   d="m 1019.57,502.796 c -5.99,6.103 -4.95,11.344 0,16.105"
   style="fill:none;stroke:#9d9d9b;stroke-width:1.5px"
   id="path52" />
                <path
   d="m 1037.02,502.796 c 4.41,5.759 4.28,11.115 0,16.105"
   style="fill:none;stroke:#9d9d9b;stroke-width:1.5px"
   id="path54" />
                <g
   transform="translate(-1.75232)"
   id="g58">
                    <path
   d="m 1023.6,506.896 c -3.49,2.805 -3.27,5.455 0,7.977"
   style="fill:none;stroke:#9d9d9b;stroke-width:1.5px"
   id="path56" />
                </g>
                <g
   transform="translate(-68.9918)"
   id="g62">
                    <rect
   x="1091.52"
   y="518.15997"
   width="11.528"
   height="5.96"
   style="fill:#9d9d9b;stroke:#9d9d9b;stroke-width:1.5px"
   id="rect60" />
                </g>
                <g
   transform="translate(-68.9918)"
   id="g66">
                    <path
   d="m 1093.85,518.137 v -4.549 c 0,-3.188 6.76,-3.248 6.76,0 v 4.549 z"
   style="fill:none;stroke:#9d9d9b;stroke-width:1.5px"
   id="path64" />
                </g>
                <g
   transform="translate(1.78727)"
   id="g70">
                    <path
   d="m 1032.74,506.896 c 3.04,2.625 2.86,5.286 0,7.977"
   style="fill:none;stroke:#9d9d9b;stroke-width:1.5px"
   id="path68" />
                </g>
            </g>
            <g
   id="usb"
   transform="translate(329.663)">
                <ellipse
   cx="571.00598"
   cy="512.69098"
   rx="2.3629999"
   ry="2.6800001"
   style="fill:#9d9d9b;stroke:#9d9d9b;stroke-width:1.5px"
   id="ellipse73" />
                <path
   d="m 571.367,512.64 h 19.654 l -1.919,-1.938 v 3.741 l 1.919,-1.803 h -14.417 c 0.638,-4.011 3.636,-5.944 8.89,-5.885 h 2.215 l -2.215,-1.788 v 3.73 -1.942 c -4.936,-0.053 -8.162,1.64 -8.89,5.885 2.061,4.381 5.544,6.632 11.105,5.771 v -1.963 l 1.393,1.963 -1.393,2.049 v -2.049"
   style="fill:none;stroke:#9d9d9b;stroke-width:1.5px"
   id="path75" />
                <path
   d="m 587.709,506.844 -2.215,1.853"
   style="fill:none;stroke:#9d9d9b;stroke-width:1.5px"
   id="path77" />
            </g>
            <g
   transform="translate(63.2202)"
   id="g108">
                <g
   transform="translate(2.23067,-1.08274)"
   id="g86">
                    <path
   d="m 430.898,509.026 c 0,-0.272 -0.043,-0.471 -0.129,-0.596 -0.086,-0.125 -0.218,-0.188 -0.397,-0.188 -0.194,0 -0.33,0.057 -0.409,0.172 -0.078,0.115 -0.118,0.319 -0.118,0.612 v 2.89 h -3.126 v -1.826 c 0,-1.49 0.285,-2.544 0.854,-3.164 0.57,-0.619 1.517,-0.929 2.842,-0.929 1.238,0 2.164,0.303 2.776,0.908 0.613,0.605 0.919,1.52 0.919,2.744 0,1.433 -0.759,3.305 -2.278,5.618 -0.293,0.459 -0.515,0.806 -0.666,1.042 -0.537,0.846 -0.902,1.51 -1.095,1.993 -0.194,0.484 -0.29,0.926 -0.29,1.327 0,0.036 0.003,0.082 0.01,0.139 0.008,0.058 0.011,0.101 0.011,0.129 h 4.329 v 2.288 h -7.433 v -2.621 c 0,-0.644 0.114,-1.285 0.343,-1.923 0.23,-0.637 0.695,-1.5 1.397,-2.588 0.158,-0.244 0.383,-0.588 0.677,-1.032 1.189,-1.811 1.783,-3.065 1.783,-3.759 z"
   style="fill:#9d9d9b;fill-rule:nonzero"
   id="path80" />
                    <rect
   x="435.24799"
   y="518.95203"
   width="2.911"
   height="3.233"
   style="fill:#9d9d9b;fill-rule:nonzero"
   id="rect82" />
                    <path
   d="m 442.951,522.185 v -3.92 h -4.158 v -2.256 l 3.019,-9.668 h 4.286 v 9.668 h 0.967 v 2.256 h -0.967 v 3.92 z m -1.741,-6.176 h 1.848 l 0.022,-4.759 c 0,-0.208 0.017,-0.58 0.053,-1.117 0.036,-0.537 0.086,-1.139 0.151,-1.805 h -0.204 c -0.151,0.859 -0.376,1.91 -0.677,3.153 -0.301,1.242 -0.698,2.752 -1.193,4.528 z"
   style="fill:#9d9d9b;fill-rule:nonzero"
   id="path84" />
                </g>
                <g
   transform="matrix(1.29,0,0,1,-94.7683,-1.08274)"
   id="g94">
                    <path
   d="m 426.524,514.488 c 0,-0.943 0.181,-1.613 0.543,-2.01 0.363,-0.396 0.965,-0.594 1.808,-0.594 0.789,0 1.378,0.183 1.768,0.55 0.389,0.367 0.584,0.919 0.584,1.658 v 1.51 h -2.003 v -1.791 c 0,-0.177 -0.026,-0.303 -0.079,-0.376 -0.052,-0.072 -0.142,-0.109 -0.27,-0.109 -0.118,0 -0.203,0.039 -0.256,0.116 -0.052,0.078 -0.079,0.201 -0.079,0.369 v 6.583 c 0,0.178 0.027,0.305 0.079,0.38 0.053,0.075 0.138,0.113 0.256,0.113 0.128,0 0.218,-0.039 0.27,-0.117 0.053,-0.077 0.079,-0.202 0.079,-0.376 v -1.777 h -0.506 v -1.559 h 2.509 v 5.127 h -0.991 l -0.13,-0.628 c -0.233,0.296 -0.49,0.517 -0.773,0.663 -0.282,0.145 -0.594,0.218 -0.936,0.218 -0.624,0 -1.093,-0.218 -1.405,-0.656 -0.312,-0.437 -0.468,-1.096 -0.468,-1.975 z"
   style="fill:#9d9d9b;fill-rule:nonzero"
   id="path88" />
                    <path
   d="m 431.801,522.185 v -10.083 h 2.003 v 3.74 h 0.629 v -3.74 h 2.017 v 10.083 h -2.017 v -4.874 h -0.629 v 4.874 z"
   style="fill:#9d9d9b;fill-rule:nonzero"
   id="path90" />
                    <path
   d="m 436.88,522.185 v -1.401 l 1.47,-5.332 h -1.422 v -1.333 h 3.343 v 1.162 l -1.538,5.544 h 1.538 v 1.36 z"
   style="fill:#9d9d9b;fill-rule:nonzero"
   id="path92" />
                </g>
                <g
   transform="matrix(1.29,0,0,1,-36.9432,-1.08274)"
   id="g102">
                    <path
   d="m 426.524,514.488 c 0,-0.943 0.181,-1.613 0.543,-2.01 0.363,-0.396 0.965,-0.594 1.808,-0.594 0.789,0 1.378,0.183 1.768,0.55 0.389,0.367 0.584,0.919 0.584,1.658 v 1.51 h -2.003 v -1.791 c 0,-0.177 -0.026,-0.303 -0.079,-0.376 -0.052,-0.072 -0.142,-0.109 -0.27,-0.109 -0.118,0 -0.203,0.039 -0.256,0.116 -0.052,0.078 -0.079,0.201 -0.079,0.369 v 6.583 c 0,0.178 0.027,0.305 0.079,0.38 0.053,0.075 0.138,0.113 0.256,0.113 0.128,0 0.218,-0.039 0.27,-0.117 0.053,-0.077 0.079,-0.202 0.079,-0.376 v -1.777 h -0.506 v -1.559 h 2.509 v 5.127 h -0.991 l -0.13,-0.628 c -0.233,0.296 -0.49,0.517 -0.773,0.663 -0.282,0.145 -0.594,0.218 -0.936,0.218 -0.624,0 -1.093,-0.218 -1.405,-0.656 -0.312,-0.437 -0.468,-1.096 -0.468,-1.975 z"
   style="fill:#9d9d9b;fill-rule:nonzero"
   id="path96" />
                    <path
   d="m 431.801,522.185 v -10.083 h 2.003 v 3.74 h 0.629 v -3.74 h 2.017 v 10.083 h -2.017 v -4.874 h -0.629 v 4.874 z"
   style="fill:#9d9d9b;fill-rule:nonzero"
   id="path98" />
                    <path
   d="m 436.88,522.185 v -1.401 l 1.47,-5.332 h -1.422 v -1.333 h 3.343 v 1.162 l -1.538,5.544 h 1.538 v 1.36 z"
   style="fill:#9d9d9b;fill-rule:nonzero"
   id="path100" />
                </g>
                <g
   transform="translate(74.0184,-1.08274)"
   id="g106">
                    <path
   d="m 434.11,513.785 v 5.522 c 0,1.038 -0.319,1.836 -0.956,2.395 -0.638,0.559 -1.551,0.838 -2.739,0.838 -1.311,0 -2.251,-0.31 -2.82,-0.929 -0.57,-0.62 -0.854,-1.667 -0.854,-3.142 v -2.46 h 3.147 v 3.362 c 0,0.272 0.043,0.469 0.129,0.591 0.086,0.122 0.226,0.182 0.419,0.182 0.186,0 0.32,-0.059 0.403,-0.177 0.082,-0.118 0.123,-0.317 0.123,-0.596 v -4.995 c 0,-0.251 -0.043,-0.435 -0.129,-0.553 -0.085,-0.119 -0.218,-0.178 -0.397,-0.178 -0.186,0 -0.324,0.056 -0.414,0.167 -0.089,0.111 -0.134,0.277 -0.134,0.499 h -3.147 v -7.97 h 7.304 v 2.159 h -4.307 v 3.233 c 0.293,-0.272 0.596,-0.467 0.907,-0.585 0.312,-0.118 0.683,-0.177 1.112,-0.177 0.767,0 1.35,0.238 1.751,0.714 0.401,0.476 0.602,1.176 0.602,2.1 z"
   style="fill:#9d9d9b;fill-rule:nonzero"
   id="path104" />
                </g>
            </g>
            <g
   transform="translate(415.618,-1.08274)"
   id="g112">
                <path
   d="m 429.115,522.185 v -12.117 h -1.741 v -1.923 h 0.076 c 0.608,0 1.119,-0.159 1.53,-0.478 0.412,-0.318 0.679,-0.761 0.801,-1.326 h 2.481 v 15.844 z"
   style="fill:#9d9d9b;fill-rule:nonzero"
   id="path110" />
            </g>
            <g
   transform="translate(349.091,-1.08274)"
   id="g116">
                <path
   d="m 430.898,509.026 c 0,-0.272 -0.043,-0.471 -0.129,-0.596 -0.086,-0.125 -0.218,-0.188 -0.397,-0.188 -0.194,0 -0.33,0.057 -0.409,0.172 -0.078,0.115 -0.118,0.319 -0.118,0.612 v 2.89 h -3.126 v -1.826 c 0,-1.49 0.285,-2.544 0.854,-3.164 0.57,-0.619 1.517,-0.929 2.842,-0.929 1.238,0 2.164,0.303 2.776,0.908 0.613,0.605 0.919,1.52 0.919,2.744 0,1.433 -0.759,3.305 -2.278,5.618 -0.293,0.459 -0.515,0.806 -0.666,1.042 -0.537,0.846 -0.902,1.51 -1.095,1.993 -0.194,0.484 -0.29,0.926 -0.29,1.327 0,0.036 0.003,0.082 0.01,0.139 0.008,0.058 0.011,0.101 0.011,0.129 h 4.329 v 2.288 h -7.433 v -2.621 c 0,-0.644 0.114,-1.285 0.343,-1.923 0.23,-0.637 0.695,-1.5 1.397,-2.588 0.158,-0.244 0.383,-0.588 0.677,-1.032 1.189,-1.811 1.783,-3.065 1.783,-3.759 z"
   style="fill:#9d9d9b;fill-rule:nonzero"
   id="path114" />
            </g>
            <g
   transform="translate(283.681,-1.08274)"
   id="g120">
                <path
   d="m 426.741,515.955 h 3.147 v 3.416 c 0,0.272 0.043,0.469 0.129,0.591 0.086,0.122 0.226,0.182 0.419,0.182 0.186,0 0.32,-0.059 0.403,-0.177 0.082,-0.118 0.123,-0.317 0.123,-0.596 v -2.976 c 0,-0.358 -0.095,-0.655 -0.284,-0.891 -0.19,-0.237 -0.425,-0.355 -0.704,-0.355 h -1.096 v -2.288 h 1.096 c 0.315,0 0.559,-0.111 0.731,-0.333 0.171,-0.222 0.257,-0.53 0.257,-0.924 v -2.578 c 0,-0.265 -0.041,-0.458 -0.123,-0.58 -0.083,-0.122 -0.217,-0.182 -0.403,-0.182 -0.193,0 -0.333,0.057 -0.419,0.171 -0.086,0.115 -0.129,0.312 -0.129,0.591 v 2.933 h -3.147 v -1.869 c 0,-1.497 0.283,-2.553 0.848,-3.169 0.566,-0.616 1.508,-0.924 2.826,-0.924 1.217,0 2.137,0.276 2.76,0.827 0.623,0.552 0.935,1.368 0.935,2.449 v 1.827 c 0,0.766 -0.194,1.383 -0.58,1.853 -0.387,0.469 -0.978,0.803 -1.773,1.004 0.802,0.1 1.395,0.36 1.778,0.779 0.383,0.419 0.575,1.018 0.575,1.799 v 2.772 c 0,1.038 -0.319,1.836 -0.956,2.395 -0.638,0.559 -1.551,0.838 -2.739,0.838 -1.311,0 -2.251,-0.312 -2.82,-0.935 -0.57,-0.623 -0.854,-1.675 -0.854,-3.158 z"
   style="fill:#9d9d9b;fill-rule:nonzero"
   id="path118" />
            </g>
            <g
   transform="translate(215.456,-1.08274)"
   id="g124">
                <path
   d="m 430.415,522.185 v -3.92 h -4.158 v -2.256 l 3.019,-9.668 h 4.286 v 9.668 h 0.967 v 2.256 h -0.967 v 3.92 z m -1.741,-6.176 h 1.848 l 0.021,-4.759 c 0,-0.208 0.018,-0.58 0.054,-1.117 0.036,-0.537 0.086,-1.139 0.151,-1.805 h -0.205 c -0.15,0.859 -0.376,1.91 -0.676,3.153 -0.301,1.242 -0.699,2.752 -1.193,4.528 z"
   style="fill:#9d9d9b;fill-rule:nonzero"
   id="path122" />
            </g>
            <g
   id="online"
   transform="translate(-200.289)">
                <ellipse
   cx="649.01898"
   cy="512.27802"
   rx="9.5570002"
   ry="9.7539997"
   style="fill:#3a3b3b;stroke:#9d9d9b;stroke-width:1.5px"
   id="ellipse126" />
                <path
   d="m 639.222,510.138 c -4.376,2.859 -5.008,5.266 -3.967,6.704 2.978,4.24 10.461,2.936 17.662,-4.869"
   style="fill:none;stroke:#9d9d9b;stroke-width:1.5px"
   id="path128" />
            </g>
            <g
   id="power">
                <g
   transform="translate(-0.146402)"
   id="g133">
                    <ellipse
   cx="383.59299"
   cy="513.47302"
   rx="8.6260004"
   ry="8.6040001"
   style="fill:#3a3b3b;stroke:#9d9d9b;stroke-width:1.5px"
   id="ellipse131" />
                </g>
                <g
   transform="translate(-0.609278,-0.501888)"
   id="g137">
                    <path
   d="m 385.973,503.47 c 0,-0.552 -0.447,-0.999 -0.999,-0.999 h -1.997 c -0.552,0 -0.999,0.447 -0.999,0.999 v 10.775 c 0,0.551 0.447,0.999 0.999,0.999 h 1.997 c 0.552,0 0.999,-0.448 0.999,-0.999 z"
   style="fill:#8e8e8e;stroke:#3a3b3b;stroke-width:1.5px"
   id="path135" />
                </g>
            </g>
        </g>
        <g
   id="led">
            <g
   transform="translate(-0.560745,0.666739)"
   id="g143">
                <path
   d="m 386.864,739.79 c 0,-0.174 -0.141,-0.314 -0.314,-0.314 h -6.353 c -0.173,0 -0.314,0.14 -0.314,0.314 v 10.355 c 0,0.173 0.141,0.314 0.314,0.314 h 6.353 c 0.173,0 0.314,-0.141 0.314,-0.314 z"
   style="fill:#a0b638;stroke:#3d6237;stroke-width:1.5px"
   id="path141" />
            </g>
            <g
   transform="translate(65.0003,0.666739)"
   id="g147">
                <path
   d="m 386.864,739.79 c 0,-0.174 -0.141,-0.314 -0.314,-0.314 h -6.353 c -0.173,0 -0.314,0.14 -0.314,0.314 v 10.355 c 0,0.173 0.141,0.314 0.314,0.314 h 6.353 c 0.173,0 0.314,-0.141 0.314,-0.314 z"
   style="fill:#a0b638;stroke:#3d6237;stroke-width:1.5px"
   id="path145" />
            </g>
            <g
   transform="translate(197.366,0.666739)"
   id="g151">
                <path
   d="m 386.864,739.79 c 0,-0.174 -0.141,-0.314 -0.314,-0.314 h -6.353 c -0.173,0 -0.314,0.14 -0.314,0.314 v 10.355 c 0,0.173 0.141,0.314 0.314,0.314 h 6.353 c 0.173,0 0.314,-0.141 0.314,-0.314 z"
   style="fill:#93b5da;stroke:#47557e;stroke-width:1.5px"
   id="path149" />
            </g>
            <g
   transform="translate(130.843,0.666739)"
   id="g155">
                <path
   d="m 386.864,739.79 c 0,-0.174 -0.141,-0.314 -0.314,-0.314 h -6.353 c -0.173,0 -0.314,0.14 -0.314,0.314 v 10.355 c 0,0.173 0.141,0.314 0.314,0.314 h 6.353 c 0.173,0 0.314,-0.141 0.314,-0.314 z"
   style="fill:#a0b638;stroke:#3d6237;stroke-width:1.5px"
   id="path153" />
            </g>
            <g
   transform="translate(263.368,0.666739)"
   id="g159">
                <path
   d="m 386.864,739.79 c 0,-0.174 -0.141,-0.314 -0.314,-0.314 h -6.353 c -0.173,0 -0.314,0.14 -0.314,0.314 v 10.355 c 0,0.173 0.141,0.314 0.314,0.314 h 6.353 c 0.173,0 0.314,-0.141 0.314,-0.314 z"
   style="fill:#a0b638;stroke:#3d6237;stroke-width:1.5px"
   id="path157" />
            </g>
            <g
   transform="translate(329.506,0.666739)"
   id="g163">
                <path
   d="m 386.864,739.79 c 0,-0.174 -0.141,-0.314 -0.314,-0.314 h -6.353 c -0.173,0 -0.314,0.14 -0.314,0.314 v 10.355 c 0,0.173 0.141,0.314 0.314,0.314 h 6.353 c 0.173,0 0.314,-0.141 0.314,-0.314 z"
   style="fill:#a0b638;stroke:#3d6237;stroke-width:1.5px"
   id="path161" />
            </g>
            <g
   transform="translate(396.025,0.666739)"
   id="g167">
                <path
   d="m 386.864,739.79 c 0,-0.174 -0.141,-0.314 -0.314,-0.314 h -6.353 c -0.173,0 -0.314,0.14 -0.314,0.314 v 10.355 c 0,0.173 0.141,0.314 0.314,0.314 h 6.353 c 0.173,0 0.314,-0.141 0.314,-0.314 z"
   style="fill:#a0b638;stroke:#3d6237;stroke-width:1.5px"
   id="path165" />
            </g>
            <g
   transform="translate(462.488,0.666739)"
   id="g171">
                <path
   d="m 386.864,739.79 c 0,-0.174 -0.141,-0.314 -0.314,-0.314 h -6.353 c -0.173,0 -0.314,0.14 -0.314,0.314 v 10.355 c 0,0.173 0.141,0.314 0.314,0.314 h 6.353 c 0.173,0 0.314,-0.141 0.314,-0.314 z"
   style="fill:#a0b638;stroke:#3d6237;stroke-width:1.5px"
   id="path169" />
            </g>
            <g
   transform="translate(528.296,0.666739)"
   id="g175">
                <path
   d="m 386.864,739.79 c 0,-0.174 -0.141,-0.314 -0.314,-0.314 h -6.353 c -0.173,0 -0.314,0.14 -0.314,0.314 v 10.355 c 0,0.173 0.141,0.314 0.314,0.314 h 6.353 c 0.173,0 0.314,-0.141 0.314,-0.314 z"
   style="fill:#a0b638;stroke:#3d6237;stroke-width:1.5px"
   id="path173" />
            </g>
            <g
   transform="translate(644.677,0.666739)"
   id="g179">
                <path
   d="m 386.864,739.79 c 0,-0.174 -0.141,-0.314 -0.314,-0.314 h -6.353 c -0.173,0 -0.314,0.14 -0.314,0.314 v 10.355 c 0,0.173 0.141,0.314 0.314,0.314 h 6.353 c 0.173,0 0.314,-0.141 0.314,-0.314 z"
   style="fill:#a0b638;stroke:#3d6237;stroke-width:1.5px"
   id="path177" />
            </g>
            <g
   transform="translate(708.955,0.666739)"
   id="g183">
                <path
   d="m 386.864,739.79 c 0,-0.174 -0.141,-0.314 -0.314,-0.314 h -6.353 c -0.173,0 -0.314,0.14 -0.314,0.314 v 10.355 c 0,0.173 0.141,0.314 0.314,0.314 h 6.353 c 0.173,0 0.314,-0.141 0.314,-0.314 z"
   style="fill:#a0b638;stroke:#3d6237;stroke-width:1.5px"
   id="path181" />
            </g>
        </g>
    </g>
</svg>
