<?xml version="1.0" encoding="UTF-8"?>
<svg width="514" height="514" version="1.1" viewBox="0 0 514 514" xmlns="http://www.w3.org/2000/svg" xmlns:cc="http://creativecommons.org/ns#" xmlns:dc="http://purl.org/dc/elements/1.1/" xmlns:rdf="http://www.w3.org/1999/02/22-rdf-syntax-ns#">
 <metadata>
  <rdf:RDF>
   <cc:Work rdf:about="">
    <dc:format>image/svg+xml</dc:format>
    <dc:type rdf:resource="http://purl.org/dc/dcmitype/StillImage"/>
    <dc:title/>
    <cc:license rdf:resource="http://creativecommons.org/licenses/by-nc-sa/4.0/"/>
    <dc:creator>
     <cc:Agent>
      <dc:title>Jan Alexander</dc:title>
     </cc:Agent>
    </dc:creator>
   </cc:Work>
   <cc:License rdf:about="http://creativecommons.org/licenses/by-nc-sa/4.0/">
    <cc:permits rdf:resource="http://creativecommons.org/ns#Reproduction"/>
    <cc:permits rdf:resource="http://creativecommons.org/ns#Distribution"/>
    <cc:requires rdf:resource="http://creativecommons.org/ns#Notice"/>
    <cc:requires rdf:resource="http://creativecommons.org/ns#Attribution"/>
    <cc:prohibits rdf:resource="http://creativecommons.org/ns#CommercialUse"/>
    <cc:permits rdf:resource="http://creativecommons.org/ns#DerivativeWorks"/>
    <cc:requires rdf:resource="http://creativecommons.org/ns#ShareAlike"/>
   </cc:License>
  </rdf:RDF>
 </metadata>
 <g>
  <path d="m7.2068 361.28 27.095 60.212 1.5053 2.4085 2.1074 2.1074 3.6127 2.1074 6.6233 1.5053h414.26l4.5159-0.60212 4.2148-1.2042 3.9138-2.1074 2.7095-2.1074 1.8064-3.3117 26.794-59.008z" fill="#404040" stroke="#666" stroke-width="1px"/>
  <path d="m56.314 259.7c-7.1014 0.50829-15.428 0.74378-17.903 5.6598l-32.019 87.45c-3.0278 12.004 3.3576 13.141 12.395 14.302h472.71c11.925-1.4112 16.87-2.8875 16.87-11.548l-34.774-89.516c-2.7203-6.4541-9.8408-5.4457-17.215-6.3484z" fill="#1a1a1a" stroke="#666" stroke-width="1px"/>
  <g fill="#0f0">
   <ellipse cx="159.62" cy="333.78" rx="3.3034" ry="1.5905"/>
   <ellipse cx="208.18" cy="333.78" rx="3.3034" ry="1.5905"/>
   <ellipse cx="183.87" cy="333.78" rx="3.3034" ry="1.5905"/>
   <ellipse cx="232.43" cy="333.78" rx="3.3034" ry="1.5905"/>
   <ellipse cx="256.61" cy="333.78" rx="3.3034" ry="1.5905"/>
   <ellipse cx="305.17" cy="333.78" rx="3.3034" ry="1.5905"/>
   <ellipse cx="280.86" cy="333.78" rx="3.3034" ry="1.5905"/>
   <ellipse cx="329.42" cy="333.78" rx="3.3034" ry="1.5905"/>
   <ellipse cx="353.74" cy="333.78" rx="3.3034" ry="1.5905"/>
  </g>
  <g fill="#1a1a1a">
   <path d="m84.95 376.56-4.253 6.7393h9.3565z"/>
   <path d="m75.332 383.3 4.253-6.7393h-9.1602z"/>
   <path d="m65.975 376.56-4.253 6.7393h9.3565z"/>
   <path d="m56.357 383.3 4.253-6.7393h-9.1602z"/>
   <path d="m47 376.56-4.253 6.7393h9.3565z"/>
   <path d="m37.382 383.3 4.253-6.7393h-9.1602z"/>
   <path d="m142 376.56-4.253 6.7393h9.3565z"/>
   <path d="m132.39 383.3 4.253-6.7393h-9.1602z"/>
   <path d="m123.03 376.56-4.253 6.7393h9.3565z"/>
   <path d="m113.41 383.3 4.253-6.7393h-9.1602z"/>
   <path d="m104.06 376.56-4.253 6.7393h9.3565z"/>
   <path d="m94.437 383.3 4.253-6.7393h-9.1602z"/>
   <path d="m198.99 376.56-4.253 6.7393h9.3565z"/>
   <path d="m189.38 383.3 4.253-6.7393h-9.1602z"/>
   <path d="m180.02 376.56-4.253 6.7393h9.3565z"/>
   <path d="m170.4 383.3 4.253-6.7393h-9.1602z"/>
   <path d="m161.04 376.56-4.253 6.7393h9.3565z"/>
   <path d="m151.43 383.3 4.253-6.7393h-9.1602z"/>
   <path d="m255.85 376.56-4.253 6.7393h9.3565z"/>
   <path d="m246.23 383.3 4.253-6.7393h-9.1602z"/>
   <path d="m236.88 376.56-4.253 6.7393h9.3565z"/>
   <path d="m227.26 383.3 4.253-6.7393h-9.1602z"/>
   <path d="m217.9 376.56-4.253 6.7393h9.3565z"/>
   <path d="m208.29 383.3 4.253-6.7393h-9.1602z"/>
   <path d="m312.78 376.56-4.253 6.7393h9.3565z"/>
   <path d="m303.16 383.3 4.253-6.7393h-9.1602z"/>
   <path d="m293.8 376.56-4.253 6.7393h9.3565z"/>
   <path d="m284.18 383.3 4.253-6.7393h-9.1602z"/>
   <path d="m274.83 376.56-4.253 6.7393h9.3565z"/>
   <path d="m265.21 383.3 4.253-6.7393h-9.1602z"/>
   <path d="m369.7 376.56-4.2529 6.7393h9.3565z"/>
   <path d="m360.08 383.3 4.253-6.7393h-9.1602z"/>
   <path d="m350.73 376.56-4.253 6.7393h9.3565z"/>
   <path d="m341.11 383.3 4.253-6.7393h-9.1602z"/>
   <path d="m331.75 376.56-4.253 6.7393h9.3565z"/>
   <path d="m322.13 383.3 4.253-6.7393h-9.1602z"/>
   <path d="m426.82 376.56-4.253 6.7393h9.3565z"/>
   <path d="m417.2 383.3 4.2529-6.7393h-9.1602z"/>
   <path d="m407.85 376.56-4.253 6.7393h9.3565z"/>
   <path d="m398.23 383.3 4.253-6.7393h-9.1602z"/>
   <path d="m388.87 376.56-4.2529 6.7393h9.3565z"/>
   <path d="m379.25 383.3 4.253-6.7393h-9.1602z"/>
   <path d="m473.93 383.3 4.253-6.7393h-9.1602z"/>
   <path d="m464.58 376.56-4.2529 6.7393h9.3565z"/>
   <path d="m454.96 383.3 4.2529-6.7393h-9.1602z"/>
   <path d="m445.6 376.56-4.253 6.7393h9.3565z"/>
   <path d="m435.98 383.3 4.2529-6.7393h-9.1602z"/>
   <path d="m75.518 388.61-4.253 6.7393h9.3565z"/>
   <path d="m65.9 395.35 4.253-6.7393h-9.1602z"/>
   <path d="m56.543 388.61-4.253 6.7393h9.3565z"/>
   <path d="m46.925 395.35 4.253-6.7393h-9.1602z"/>
   <path d="m132.57 388.61-4.253 6.7393h9.3565z"/>
   <path d="m122.95 395.35 4.253-6.7393h-9.1602z"/>
   <path d="m113.6 388.61-4.253 6.7393h9.3565z"/>
   <path d="m103.98 395.35 4.253-6.7393h-9.1602z"/>
   <path d="m94.624 388.61-4.2529 6.7393h9.3565z"/>
   <path d="m85.006 395.35 4.253-6.7393h-9.1602z"/>
   <path d="m189.56 388.61-4.253 6.7393h9.3565z"/>
   <path d="m179.94 395.35 4.253-6.7393h-9.1602z"/>
   <path d="m170.59 388.61-4.253 6.7393h9.3565z"/>
   <path d="m160.97 395.35 4.253-6.7393h-9.1602z"/>
   <path d="m151.61 388.61-4.253 6.7393h9.3565z"/>
   <path d="m142 395.35 4.253-6.7393h-9.1602z"/>
   <path d="m246.42 388.61-4.253 6.7393h9.3565z"/>
   <path d="m236.8 395.35 4.253-6.7393h-9.1602z"/>
   <path d="m227.45 388.61-4.253 6.7393h9.3565z"/>
   <path d="m217.83 395.35 4.253-6.7393h-9.1602z"/>
   <path d="m208.47 388.61-4.253 6.7393h9.3565z"/>
   <path d="m198.85 395.35 4.253-6.7393h-9.1602z"/>
   <path d="m303.35 388.61-4.253 6.7393h9.3565z"/>
   <path d="m293.73 395.35 4.253-6.7393h-9.1602z"/>
   <path d="m284.37 388.61-4.253 6.7393h9.3565z"/>
   <path d="m274.75 395.35 4.253-6.7393h-9.1602z"/>
   <path d="m265.4 388.61-4.253 6.7393h9.3565z"/>
   <path d="m255.78 395.35 4.253-6.7393h-9.1602z"/>
   <path d="m360.27 388.61-4.2529 6.7393h9.3565z"/>
   <path d="m350.65 395.35 4.253-6.7393h-9.1602z"/>
   <path d="m341.3 388.61-4.253 6.7393h9.3565z"/>
   <path d="m331.68 395.35 4.253-6.7393h-9.1602z"/>
   <path d="m322.32 388.61-4.253 6.7393h9.3565z"/>
   <path d="m312.7 395.35 4.253-6.7393h-9.1602z"/>
   <path d="m417.39 388.61-4.253 6.7393h9.3565z"/>
   <path d="m407.77 395.35 4.2529-6.7393h-9.1602z"/>
   <path d="m398.42 388.61-4.253 6.7393h9.3565z"/>
   <path d="m388.8 395.35 4.253-6.7393h-9.1602z"/>
   <path d="m379.44 388.61-4.2529 6.7393h9.3565z"/>
   <path d="m369.82 395.35 4.253-6.7393h-9.1602z"/>
   <path d="m464.5 395.35 4.253-6.7393h-9.1602z"/>
   <path d="m455.14 388.61-4.2529 6.7393h9.3565z"/>
   <path d="m445.53 395.35 4.2529-6.7393h-9.1602z"/>
   <path d="m436.17 388.61-4.253 6.7393h9.3565z"/>
   <path d="m426.55 395.35 4.2529-6.7393h-9.1602z"/>
   <path d="m84.86 400.47-4.253 6.7393h9.3565z"/>
   <path d="m75.242 407.21 4.253-6.7393h-9.1602z"/>
   <path d="m65.885 400.47-4.253 6.7393h9.3565z"/>
   <path d="m56.267 407.21 4.253-6.7393h-9.1602z"/>
   <path d="m141.92 400.47-4.253 6.7393h9.3565z"/>
   <path d="m132.3 407.21 4.253-6.7393h-9.1602z"/>
   <path d="m122.94 400.47-4.253 6.7393h9.3565z"/>
   <path d="m113.32 407.21 4.253-6.7393h-9.1602z"/>
   <path d="m103.97 400.47-4.253 6.7393h9.3565z"/>
   <path d="m94.347 407.21 4.253-6.7393h-9.1602z"/>
   <path d="m198.9 400.47-4.253 6.7393h9.3565z"/>
   <path d="m189.29 407.21 4.253-6.7393h-9.1602z"/>
   <path d="m179.93 400.47-4.253 6.7393h9.3565z"/>
   <path d="m170.31 407.21 4.253-6.7393h-9.1602z"/>
   <path d="m160.96 400.47-4.253 6.7393h9.3565z"/>
   <path d="m151.34 407.21 4.253-6.7393h-9.1602z"/>
   <path d="m255.76 400.47-4.253 6.7393h9.3565z"/>
   <path d="m246.15 407.21 4.253-6.7393h-9.1602z"/>
   <path d="m236.79 400.47-4.253 6.7393h9.3565z"/>
   <path d="m227.17 407.21 4.253-6.7393h-9.1602z"/>
   <path d="m217.81 400.47-4.253 6.7393h9.3565z"/>
   <path d="m208.2 407.21 4.253-6.7393h-9.1602z"/>
   <path d="m312.69 400.47-4.253 6.7393h9.3565z"/>
   <path d="m303.07 407.21 4.253-6.7393h-9.1602z"/>
   <path d="m293.71 400.47-4.253 6.7393h9.3565z"/>
   <path d="m284.09 407.21 4.253-6.7393h-9.1602z"/>
   <path d="m274.74 400.47-4.253 6.7393h9.3565z"/>
   <path d="m265.12 407.21 4.253-6.7393h-9.1602z"/>
   <path d="m369.61 400.47-4.2529 6.7393h9.3565z"/>
   <path d="m359.99 407.21 4.253-6.7393h-9.1602z"/>
   <path d="m350.64 400.47-4.253 6.7393h9.3565z"/>
   <path d="m341.02 407.21 4.253-6.7393h-9.1602z"/>
   <path d="m331.66 400.47-4.253 6.7393h9.3565z"/>
   <path d="m322.04 407.21 4.253-6.7393h-9.1602z"/>
   <path d="m426.73 400.47-4.253 6.7393h9.3565z"/>
   <path d="m417.11 407.21 4.2529-6.7393h-9.1602z"/>
   <path d="m407.76 400.47-4.253 6.7393h9.3565z"/>
   <path d="m398.14 407.21 4.253-6.7393h-9.1602z"/>
   <path d="m388.78 400.47-4.2529 6.7393h9.3565z"/>
   <path d="m379.16 407.21 4.253-6.7393h-9.1602z"/>
   <path d="m454.87 407.21 4.2529-6.7393h-9.1602z"/>
   <path d="m445.51 400.47-4.253 6.7393h9.3565z"/>
   <path d="m435.89 407.21 4.2529-6.7393h-9.1602z"/>
   <path d="m75.586 411.43-4.253 6.7393h9.3565z"/>
   <path d="m65.968 418.17 4.253-6.7393h-9.1602z"/>
   <path d="m132.64 411.43-4.253 6.7393h9.3565z"/>
   <path d="m123.02 418.17 4.253-6.7393h-9.1602z"/>
   <path d="m113.67 411.43-4.253 6.7393h9.3565z"/>
   <path d="m104.05 418.17 4.253-6.7393h-9.1602z"/>
   <path d="m94.692 411.43-4.2529 6.7393h9.3565z"/>
   <path d="m85.073 418.17 4.253-6.7393h-9.1602z"/>
   <path d="m189.63 411.43-4.253 6.7393h9.3565z"/>
   <path d="m180.01 418.17 4.253-6.7393h-9.1602z"/>
   <path d="m170.66 411.43-4.253 6.7393h9.3565z"/>
   <path d="m161.04 418.17 4.253-6.7393h-9.1602z"/>
   <path d="m151.68 411.43-4.253 6.7393h9.3565z"/>
   <path d="m142.06 418.17 4.253-6.7393h-9.1602z"/>
   <path d="m246.49 411.43-4.253 6.7393h9.3565z"/>
   <path d="m236.87 418.17 4.253-6.7393h-9.1602z"/>
   <path d="m227.51 411.43-4.253 6.7393h9.3565z"/>
   <path d="m217.9 418.17 4.253-6.7393h-9.1602z"/>
   <path d="m208.54 411.43-4.253 6.7393h9.3565z"/>
   <path d="m198.92 418.17 4.253-6.7393h-9.1602z"/>
   <path d="m303.41 411.43-4.253 6.7393h9.3565z"/>
   <path d="m293.8 418.17 4.253-6.7393h-9.1602z"/>
   <path d="m284.44 411.43-4.253 6.7393h9.3565z"/>
   <path d="m274.82 418.17 4.253-6.7393h-9.1602z"/>
   <path d="m265.46 411.43-4.253 6.7393h9.3565z"/>
   <path d="m255.85 418.17 4.253-6.7393h-9.1602z"/>
   <path d="m360.34 411.43-4.2529 6.7393h9.3565z"/>
   <path d="m350.72 418.17 4.253-6.7393h-9.1602z"/>
   <path d="m341.36 411.43-4.253 6.7393h9.3565z"/>
   <path d="m331.74 418.17 4.253-6.7393h-9.1602z"/>
   <path d="m322.39 411.43-4.253 6.7393h9.3565z"/>
   <path d="m312.77 418.17 4.253-6.7393h-9.1602z"/>
   <path d="m417.46 411.43-4.253 6.7393h9.3565z"/>
   <path d="m407.84 418.17 4.2529-6.7393h-9.1602z"/>
   <path d="m398.48 411.43-4.253 6.7393h9.3565z"/>
   <path d="m388.87 418.17 4.253-6.7393h-9.1602z"/>
   <path d="m379.51 411.43-4.2529 6.7393h9.3565z"/>
   <path d="m369.89 418.17 4.253-6.7393h-9.1602z"/>
   <path d="m445.59 418.17 4.2529-6.7393h-9.1602z"/>
   <path d="m436.24 411.43-4.253 6.7393h9.3565z"/>
   <path d="m426.62 418.17 4.2529-6.7393h-9.1602z"/>
   <path d="m426.82 259.7v-164.76c-3.2234-13.138-7.7636-14.982-12.418 0l-9.1503 164.76z" stroke="#666" stroke-width="1px"/>
   <path d="m84.176 259.83v-164.76c3.2234-13.138 7.7636-14.982 12.418 0l9.1503 164.76z" stroke="#666" stroke-width="1px"/>
  </g>
 </g>
</svg>
