<?xml version="1.0" encoding="UTF-8"?>
<svg version="1.1" viewBox="0 0 530 530" xmlns="http://www.w3.org/2000/svg" xmlns:cc="http://creativecommons.org/ns#" xmlns:dc="http://purl.org/dc/elements/1.1/" xmlns:rdf="http://www.w3.org/1999/02/22-rdf-syntax-ns#">
 <metadata>
  <rdf:RDF>
   <cc:Work rdf:about="">
    <dc:format>image/svg+xml</dc:format>
    <dc:type rdf:resource="http://purl.org/dc/dcmitype/StillImage"/>
    <dc:title/>
    <cc:license rdf:resource="http://creativecommons.org/licenses/by-nc-sa/4.0/"/>
    <dc:creator>
     <cc:Agent>
      <dc:title>Jan Alexander</dc:title>
     </cc:Agent>
    </dc:creator>
   </cc:Work>
   <cc:License rdf:about="http://creativecommons.org/licenses/by-nc-sa/4.0/">
    <cc:permits rdf:resource="http://creativecommons.org/ns#Reproduction"/>
    <cc:permits rdf:resource="http://creativecommons.org/ns#Distribution"/>
    <cc:requires rdf:resource="http://creativecommons.org/ns#Notice"/>
    <cc:requires rdf:resource="http://creativecommons.org/ns#Attribution"/>
    <cc:prohibits rdf:resource="http://creativecommons.org/ns#CommercialUse"/>
    <cc:permits rdf:resource="http://creativecommons.org/ns#DerivativeWorks"/>
    <cc:requires rdf:resource="http://creativecommons.org/ns#ShareAlike"/>
   </cc:License>
  </rdf:RDF>
 </metadata>
 <g>
  <g transform="translate(7.7474 8.6398)">
   <g transform="matrix(-1 0 0 1 508.98 0)" stroke="#666" stroke-width="1px">
    <g transform="translate(-410.56 -283.29)">
     <path d="m893.8 643.63 4.6347 3.7722h14.466v-34.343l-2.4067-4.8647-2.5604-234.07h-14.133l-2.4068 231.12 1.2548 2.9522 0.0708 1.6604-1.3256 3.2043v11.639l2.4068 2.783z" fill="#262626"/>
     <path d="m891.4 617.44 6.858 1.3544h8.5956l6.0535-0.79711" fill="none"/>
     <path d="m891.45 600.19 6.7693 2.1954 9.718 0.0692 2.5604-0.85532" fill="none"/>
    </g>
    <g transform="translate(-410.56 -283.29)">
     <path d="m851.29 630.01-0.036-2.6842 2.6746 0.04 0.95794-1.115h8.6718l1.0125 1.2244 1.7504-0.0178 0.70951-1.2066h22.548l1.1212 1.1624 0.11461 2.5968h2.3865l1.313 1.1506-0.13342 12.471h-3.5137l0.0438 2.3527-0.75331 1.4195h-24.077z" fill="#262626"/>
     <g fill="none">
      <path d="m890.82 630.01 0.0524 13.621"/>
      <path d="m853.93 627.37-0.0497 5.6885"/>
      <path d="m865.48 627.47v19.231"/>
     </g>
    </g>
   </g>
   <g stroke="#666" stroke-width="1px">
    <path d="m85.827 322.12h333.98l94.098 110.65h-513.37z" fill="#595959"/>
    <path d="m23.757 402.64h464.53l25.618 30.126h-513.37z" fill="#262626"/>
    <path d="m480.4 393.38h-449.5" fill="none"/>
   </g>
   <g stroke="#666" stroke-width="1px">
    <path d="m164.45 322.12v-7.7027l1.9717-4.1739 1.5932-230.29h13.18l3.0416 230.29 1.738 4.1739v7.7027z" fill="#262626"/>
    <path d="m166.42 302.63 4.7072 3.3372h8.2557l4.852-3.3372" fill="none"/>
   </g>
   <g transform="translate(154.74)" stroke="#666" stroke-width="1px">
    <path d="m164.45 322.12v-7.7027l1.9717-4.1739 1.5932-230.29h13.18l3.0416 230.29 1.738 4.1739v7.7027z" fill="#262626"/>
    <path d="m166.42 302.63 4.7072 3.3372h8.2557l4.852-3.3372" fill="none"/>
   </g>
   <g stroke="#666" stroke-width="1px">
    <g transform="translate(-410.56 -283.29)">
     <path d="m893.8 643.63 4.6347 3.7722h14.466v-34.343l-2.4067-4.8647-2.5604-234.07h-14.133l-2.4068 231.12 1.2548 2.9522 0.0708 1.6604-1.3256 3.2043v11.639l2.4068 2.783z" fill="#262626"/>
     <path d="m891.4 617.44 6.858 1.3544h8.5956l6.0535-0.79711" fill="none"/>
     <path d="m891.45 600.19 6.7693 2.1954 9.718 0.0692 2.5604-0.85532" fill="none"/>
    </g>
    <g transform="translate(-410.56 -283.29)">
     <path d="m851.29 630.01-0.036-2.6842 2.6746 0.04 0.95794-1.115h8.6718l1.0125 1.2244 1.7504-0.0178 0.70951-1.2066h22.548l1.1212 1.1624 0.11461 2.5968h2.3865l1.313 1.1506-0.13342 12.471h-3.5137l0.0438 2.3527-0.75331 1.4195h-24.077z" fill="#262626"/>
     <g fill="none">
      <path d="m890.82 630.01 0.0524 13.621"/>
      <path d="m853.93 627.37-0.0497 5.6885"/>
      <path d="m865.48 627.47v19.231"/>
     </g>
    </g>
   </g>
   <g transform="translate(11.753)">
    <g fill="#cff">
     <rect x="88" y="385" width="15" height="2" opacity=".98232"/>
     <rect x="113" y="385" width="15" height="2" opacity=".98232"/>
     <rect x="138" y="385" width="15" height="2" opacity=".98232"/>
     <rect x="163" y="385" width="15" height="2" opacity=".98232"/>
     <rect x="188" y="385" width="15" height="2" opacity=".98232"/>
     <rect x="213" y="385" width="15" height="2" opacity=".98232"/>
     <rect x="238" y="385" width="15" height="2" opacity=".98232"/>
     <rect x="363" y="385" width="15" height="2" opacity=".98232"/>
     <rect x="388" y="385" width="15" height="2" opacity=".98232"/>
    </g>
    <g fill="#ffb44e">
     <rect x="263" y="385" width="15" height="2" opacity=".98232"/>
     <rect x="288" y="385" width="15" height="2" opacity=".98232"/>
     <rect x="313" y="385" width="15" height="2" opacity=".98232"/>
     <rect x="338" y="385" width="15" height="2" opacity=".98232"/>
    </g>
   </g>
  </g>
 </g>
</svg>
