<?xml version="1.0" encoding="UTF-8"?>
<svg version="1.1" viewBox="0 0 514 514" xmlns="http://www.w3.org/2000/svg" xmlns:cc="http://creativecommons.org/ns#" xmlns:dc="http://purl.org/dc/elements/1.1/" xmlns:rdf="http://www.w3.org/1999/02/22-rdf-syntax-ns#">
 <metadata>
  <rdf:RDF>
   <cc:Work rdf:about="">
    <dc:format>image/svg+xml</dc:format>
    <dc:type rdf:resource="http://purl.org/dc/dcmitype/StillImage"/>
    <dc:title/>
    <cc:license rdf:resource="http://creativecommons.org/licenses/by-nc-sa/4.0/"/>
    <dc:creator>
     <cc:Agent>
      <dc:title>Jan Alexander</dc:title>
     </cc:Agent>
    </dc:creator>
   </cc:Work>
   <cc:License rdf:about="http://creativecommons.org/licenses/by-nc-sa/4.0/">
    <cc:permits rdf:resource="http://creativecommons.org/ns#Reproduction"/>
    <cc:permits rdf:resource="http://creativecommons.org/ns#Distribution"/>
    <cc:requires rdf:resource="http://creativecommons.org/ns#Notice"/>
    <cc:requires rdf:resource="http://creativecommons.org/ns#Attribution"/>
    <cc:prohibits rdf:resource="http://creativecommons.org/ns#CommercialUse"/>
    <cc:permits rdf:resource="http://creativecommons.org/ns#DerivativeWorks"/>
    <cc:requires rdf:resource="http://creativecommons.org/ns#ShareAlike"/>
   </cc:License>
  </rdf:RDF>
 </metadata>
 <g>
  <g transform="translate(.10234 -8.5367)">
   <g fill="#e5e5e5" stroke="#666" stroke-width="1px">
    <path d="m30.173 299.99h454.45l1.2517 7.6364h-457.88z"/>
    <path d="m35.387 234.38h444.3l1.8831 56.1h-448.55z"/>
    <path d="m472.04 290.48 1.5442 9.5084h-432.2l1.7206-9.5084z"/>
   </g>
   <g stroke="#666" stroke-width="1px">
    <path d="m70.838 290.48v9.5084h372.25v-9.5084z" fill="#bfbfbf"/>
    <path d="m443.09 290.48v-33.874l-0.83291-2.3251-1.3905-1.423-1.7656-1.351-2.2174-0.65695-1.6603-0.3055h-356.79l-3.4932 0.54042-1.3854 0.83988-1.0363 0.90255-1.1667 1.833-0.51674 1.9458v33.874z" fill="none"/>
    <path d="m70.838 234.38 137.82-10.935h97.079l137.35 10.935z" fill="#e5e5e5"/>
   </g>
   <g fill="none" stroke="#666">
    <rect x="366.36" y="258.22" width="69.142" height="26.219" ry="5.1479"/>
    <rect x="369.99" y="261.36" width="29.876" height="19.937" ry="2.9398"/>
    <rect x="402.71" y="261.36" width="29.876" height="19.937" ry="2.9398"/>
   </g>
   <circle transform="translate(-278.87 -128.71)" cx="377.98" cy="423.21" r="2.5" fill="#0d0d0d"/>
   <circle transform="translate(-278.87 -128.71)" cx="409.73" cy="423.21" r="2.5" fill="#0d0d0d"/>
   <g fill="#0f0">
    <circle transform="translate(-278.87 -128.71)" cx="441.58" cy="423.21" r="2.5"/>
    <circle transform="translate(-278.87 -128.71)" cx="473.2" cy="423.59" r="2.5"/>
    <circle transform="translate(-278.87 -128.71)" cx="504.81" cy="423.21" r="2.5"/>
    <circle transform="translate(-278.87 -128.71)" cx="536.55" cy="423.21" r="2.5"/>
    <circle transform="translate(-278.87 -128.71)" cx="568.52" cy="423.21" r="2.5"/>
    <circle transform="translate(-278.87 -128.71)" cx="600.02" cy="423.21" r="2.5"/>
    <circle transform="translate(-278.87 -128.71)" cx="631.99" cy="423.21" r="2.5"/>
    <circle transform="translate(-278.87 -128.71)" cx="696.77" cy="423.21" r="2.5"/>
   </g>
   <circle transform="translate(-278.87 -128.71)" cx="663.96" cy="423.21" r="2.5" fill="#00f"/>
  </g>
 </g>
</svg>
