<?xml version="1.0" encoding="UTF-8" standalone="no"?>
<!DOCTYPE svg PUBLIC "-//W3C//DTD SVG 1.1//EN" "http://www.w3.org/Graphics/SVG/1.1/DTD/svg11.dtd">
<svg width="100%" height="100%" viewBox="0 0 2000 2000" version="1.1" xmlns="http://www.w3.org/2000/svg" xmlns:xlink="http://www.w3.org/1999/xlink" xml:space="preserve" xmlns:serif="http://www.serif.com/" style="fill-rule:evenodd;clip-rule:evenodd;stroke-linecap:round;stroke-linejoin:round;stroke-miterlimit:1.5;">
    <g transform="matrix(0.92562,0,0,1.03148,-134.09,-108.155)">
        <path d="M2186.15,542.567C2186.15,362.686 2023.41,216.646 1822.95,216.646L627.491,216.646C427.038,216.646 264.295,362.686 264.295,542.567L264.295,1606.1C264.295,1785.98 427.038,1932.02 627.491,1932.02L1822.95,1932.02C2023.41,1932.02 2186.15,1785.98 2186.15,1606.1L2186.15,542.567Z" style="fill:rgb(242,242,242);"/>
        <clipPath id="_clip1">
            <path d="M2186.15,542.567C2186.15,362.686 2023.41,216.646 1822.95,216.646L627.491,216.646C427.038,216.646 264.295,362.686 264.295,542.567L264.295,1606.1C264.295,1785.98 427.038,1932.02 627.491,1932.02L1822.95,1932.02C2023.41,1932.02 2186.15,1785.98 2186.15,1606.1L2186.15,542.567Z"/>
        </clipPath>
        <g clip-path="url(#_clip1)">
            <g transform="matrix(1.09674,0,0,1.03084,129.365,4.59204)">
                <path d="M1440.55,1601.11C1440.55,1582.96 1425.11,1568.22 1406.1,1568.22L596.243,1568.22C577.228,1568.22 561.79,1582.96 561.79,1601.11C561.79,1619.27 577.228,1634 596.243,1634L1406.1,1634C1425.11,1634 1440.55,1619.27 1440.55,1601.11Z"/>
                <clipPath id="_clip2">
                    <path d="M1440.55,1601.11C1440.55,1582.96 1425.11,1568.22 1406.1,1568.22L596.243,1568.22C577.228,1568.22 561.79,1582.96 561.79,1601.11C561.79,1619.27 577.228,1634 596.243,1634L1406.1,1634C1425.11,1634 1440.55,1619.27 1440.55,1601.11Z"/>
                </clipPath>
                <g clip-path="url(#_clip2)">
                    <g transform="matrix(0.985064,0,0,0.940476,14.1327,95.7878)">
                        <g transform="matrix(1.15563,0,0,1.34446,-133.304,-558.295)">
                            <ellipse cx="775.587" cy="1607.87" rx="15.997" ry="13.761" style="fill:none;stroke:rgb(146,230,26);stroke-width:4.79px;"/>
                        </g>
                        <g transform="matrix(0.807409,0,0,0.807409,105.934,311.238)">
                            <path d="M813.379,1567.44L813.518,1590.5" style="fill:none;stroke:rgb(146,230,26);stroke-width:7.44px;"/>
                        </g>
                    </g>
                    <g transform="matrix(0.985064,0,0,0.940476,0.806699,94.9627)">
                        <g transform="matrix(0.677966,0,0,1,261.158,-6)">
                            <rect x="966.653" y="1583.68" width="20.607" height="11.351" style="fill:none;stroke:rgb(146,230,26);stroke-width:4.31px;"/>
                        </g>
                        <g transform="matrix(1.00001,0.00121782,0.00121782,1.12544,-53.9699,-202.896)">
                            <path d="M963.429,1613.56L963.317,1602.05" style="fill:none;stroke:rgb(146,230,26);stroke-width:1.7px;"/>
                        </g>
                        <g transform="matrix(1.00001,0.00121782,0.00121782,1.12544,-30.9699,-202.896)">
                            <path d="M963.429,1613.56L963.317,1602.05" style="fill:none;stroke:rgb(146,230,26);stroke-width:1.7px;"/>
                        </g>
                        <g transform="matrix(1.00001,0.00121782,0.00121782,1.12544,-41.9699,-214.896)">
                            <path d="M963.429,1613.56L963.317,1602.05" style="fill:none;stroke:rgb(146,230,26);stroke-width:1.7px;"/>
                        </g>
                        <g transform="matrix(0.677966,0,0,1,248.759,29.9106)">
                            <rect x="966.653" y="1583.68" width="20.607" height="11.351" style="fill:none;stroke:rgb(146,230,26);stroke-width:4.31px;"/>
                        </g>
                        <g transform="matrix(0.677966,0,0,1,272.684,29.9106)">
                            <rect x="966.653" y="1583.68" width="20.607" height="11.351" style="fill:none;stroke:rgb(146,230,26);stroke-width:4.31px;"/>
                        </g>
                        <g transform="matrix(1.02778e-16,-1.6785,1.6785,1.02778e-16,-1726.8,2967.34)">
                            <path d="M813.379,1567.44L813.518,1590.5" style="fill:none;stroke:rgb(146,230,26);stroke-width:3.58px;"/>
                        </g>
                    </g>
                    <g transform="matrix(1.48389,0,0,1.41672,-546.496,-646.354)">
                        <g transform="matrix(18.6667,0,0,18.6667,1071.86,1584.01)">
                            <path d="M0.503,-0.084L0.503,-0L0.03,-0C0.03,-0.021 0.033,-0.042 0.041,-0.061C0.053,-0.093 0.072,-0.125 0.098,-0.156C0.125,-0.188 0.163,-0.224 0.213,-0.265C0.291,-0.328 0.344,-0.379 0.371,-0.416C0.398,-0.454 0.412,-0.489 0.412,-0.522C0.412,-0.557 0.4,-0.586 0.375,-0.61C0.35,-0.634 0.317,-0.646 0.277,-0.646C0.235,-0.646 0.201,-0.633 0.176,-0.608C0.15,-0.583 0.138,-0.547 0.137,-0.502L0.047,-0.512C0.053,-0.579 0.076,-0.63 0.117,-0.666C0.157,-0.701 0.211,-0.719 0.279,-0.719C0.348,-0.719 0.402,-0.7 0.442,-0.662C0.482,-0.624 0.502,-0.576 0.502,-0.52C0.502,-0.491 0.497,-0.463 0.485,-0.436C0.473,-0.408 0.454,-0.379 0.427,-0.348C0.399,-0.318 0.354,-0.276 0.291,-0.222C0.238,-0.178 0.204,-0.148 0.189,-0.132C0.174,-0.116 0.162,-0.1 0.152,-0.084L0.503,-0.084Z" style="fill:rgb(146,230,26);fill-rule:nonzero;"/>
                        </g>
                        <g transform="matrix(18.6667,0,0,18.6667,1082.25,1584.01)">
                            <rect x="0.091" y="-0.1" width="0.1" height="0.1" style="fill:rgb(146,230,26);fill-rule:nonzero;"/>
                        </g>
                        <g transform="matrix(18.6667,0,0,18.6667,1087.43,1584.01)">
                            <path d="M0.323,-0L0.323,-0.171L0.013,-0.171L0.013,-0.252L0.339,-0.716L0.411,-0.716L0.411,-0.252L0.508,-0.252L0.508,-0.171L0.411,-0.171L0.411,-0L0.323,-0ZM0.323,-0.252L0.323,-0.575L0.099,-0.252L0.323,-0.252Z" style="fill:rgb(146,230,26);fill-rule:nonzero;"/>
                        </g>
                        <g transform="matrix(18.6667,0,0,18.6667,1066.17,1603.29)">
                            <path d="M0.412,-0.281L0.412,-0.365L0.715,-0.365L0.715,-0.1C0.669,-0.063 0.621,-0.035 0.571,-0.016C0.522,0.003 0.471,0.012 0.419,0.012C0.349,0.012 0.285,-0.003 0.227,-0.033C0.17,-0.063 0.126,-0.107 0.097,-0.164C0.068,-0.221 0.053,-0.284 0.053,-0.354C0.053,-0.424 0.068,-0.489 0.097,-0.55C0.126,-0.61 0.168,-0.655 0.223,-0.684C0.277,-0.713 0.34,-0.728 0.412,-0.728C0.463,-0.728 0.51,-0.72 0.552,-0.703C0.594,-0.686 0.627,-0.663 0.65,-0.633C0.674,-0.603 0.692,-0.564 0.705,-0.516L0.619,-0.492C0.608,-0.529 0.595,-0.557 0.579,-0.578C0.563,-0.599 0.54,-0.616 0.511,-0.628C0.481,-0.641 0.448,-0.647 0.412,-0.647C0.369,-0.647 0.331,-0.64 0.3,-0.627C0.268,-0.614 0.243,-0.597 0.223,-0.575C0.204,-0.554 0.189,-0.53 0.178,-0.504C0.16,-0.46 0.151,-0.412 0.151,-0.36C0.151,-0.297 0.162,-0.243 0.184,-0.2C0.206,-0.157 0.238,-0.125 0.28,-0.104C0.322,-0.084 0.366,-0.073 0.414,-0.073C0.455,-0.073 0.495,-0.081 0.534,-0.097C0.573,-0.113 0.602,-0.13 0.623,-0.147L0.623,-0.281L0.412,-0.281Z" style="fill:rgb(146,230,26);fill-rule:nonzero;"/>
                        </g>
                        <g transform="matrix(18.6667,0,0,18.6667,1080.69,1603.29)">
                            <path d="M0.08,-0L0.08,-0.716L0.175,-0.716L0.175,-0.422L0.547,-0.422L0.547,-0.716L0.642,-0.716L0.642,-0L0.547,-0L0.547,-0.337L0.175,-0.337L0.175,-0L0.08,-0Z" style="fill:rgb(146,230,26);fill-rule:nonzero;"/>
                        </g>
                        <g transform="matrix(18.6667,0,0,18.6667,1094.17,1603.29)">
                            <path d="M0.02,-0L0.02,-0.071L0.35,-0.45C0.312,-0.448 0.279,-0.447 0.25,-0.447L0.039,-0.447L0.039,-0.519L0.463,-0.519L0.463,-0.46L0.182,-0.131L0.128,-0.071C0.167,-0.074 0.204,-0.076 0.239,-0.076L0.479,-0.076L0.479,-0L0.02,-0Z" style="fill:rgb(146,230,26);fill-rule:nonzero;"/>
                        </g>
                    </g>
                    <g transform="matrix(1.48389,0,0,1.41672,-385.683,-646.689)">
                        <g transform="matrix(18.6667,0,0,18.6667,1079.65,1584.01)">
                            <path d="M0.042,-0.188L0.134,-0.195C0.141,-0.15 0.156,-0.117 0.181,-0.094C0.206,-0.071 0.236,-0.06 0.271,-0.06C0.314,-0.06 0.35,-0.076 0.379,-0.108C0.408,-0.14 0.423,-0.182 0.423,-0.235C0.423,-0.285 0.409,-0.325 0.381,-0.354C0.352,-0.382 0.316,-0.397 0.27,-0.397C0.242,-0.397 0.216,-0.391 0.193,-0.378C0.171,-0.365 0.153,-0.348 0.14,-0.328L0.057,-0.338L0.126,-0.706L0.482,-0.706L0.482,-0.622L0.197,-0.622L0.158,-0.43C0.201,-0.46 0.246,-0.475 0.293,-0.475C0.356,-0.475 0.409,-0.453 0.452,-0.41C0.495,-0.366 0.516,-0.311 0.516,-0.243C0.516,-0.178 0.497,-0.122 0.459,-0.075C0.414,-0.017 0.351,0.012 0.271,0.012C0.206,0.012 0.153,-0.006 0.112,-0.042C0.071,-0.079 0.047,-0.127 0.042,-0.188Z" style="fill:rgb(146,230,26);fill-rule:nonzero;"/>
                        </g>
                        <g transform="matrix(18.6667,0,0,18.6667,1066.17,1603.29)">
                            <path d="M0.412,-0.281L0.412,-0.365L0.715,-0.365L0.715,-0.1C0.669,-0.063 0.621,-0.035 0.571,-0.016C0.522,0.003 0.471,0.012 0.419,0.012C0.349,0.012 0.285,-0.003 0.227,-0.033C0.17,-0.063 0.126,-0.107 0.097,-0.164C0.068,-0.221 0.053,-0.284 0.053,-0.354C0.053,-0.424 0.068,-0.489 0.097,-0.55C0.126,-0.61 0.168,-0.655 0.223,-0.684C0.277,-0.713 0.34,-0.728 0.412,-0.728C0.463,-0.728 0.51,-0.72 0.552,-0.703C0.594,-0.686 0.627,-0.663 0.65,-0.633C0.674,-0.603 0.692,-0.564 0.705,-0.516L0.619,-0.492C0.608,-0.529 0.595,-0.557 0.579,-0.578C0.563,-0.599 0.54,-0.616 0.511,-0.628C0.481,-0.641 0.448,-0.647 0.412,-0.647C0.369,-0.647 0.331,-0.64 0.3,-0.627C0.268,-0.614 0.243,-0.597 0.223,-0.575C0.204,-0.554 0.189,-0.53 0.178,-0.504C0.16,-0.46 0.151,-0.412 0.151,-0.36C0.151,-0.297 0.162,-0.243 0.184,-0.2C0.206,-0.157 0.238,-0.125 0.28,-0.104C0.322,-0.084 0.366,-0.073 0.414,-0.073C0.455,-0.073 0.495,-0.081 0.534,-0.097C0.573,-0.113 0.602,-0.13 0.623,-0.147L0.623,-0.281L0.412,-0.281Z" style="fill:rgb(146,230,26);fill-rule:nonzero;"/>
                        </g>
                        <g transform="matrix(18.6667,0,0,18.6667,1080.69,1603.29)">
                            <path d="M0.08,-0L0.08,-0.716L0.175,-0.716L0.175,-0.422L0.547,-0.422L0.547,-0.716L0.642,-0.716L0.642,-0L0.547,-0L0.547,-0.337L0.175,-0.337L0.175,-0L0.08,-0Z" style="fill:rgb(146,230,26);fill-rule:nonzero;"/>
                        </g>
                        <g transform="matrix(18.6667,0,0,18.6667,1094.17,1603.29)">
                            <path d="M0.02,-0L0.02,-0.071L0.35,-0.45C0.312,-0.448 0.279,-0.447 0.25,-0.447L0.039,-0.447L0.039,-0.519L0.463,-0.519L0.463,-0.46L0.182,-0.131L0.128,-0.071C0.167,-0.074 0.204,-0.076 0.239,-0.076L0.479,-0.076L0.479,-0L0.02,-0Z" style="fill:rgb(146,230,26);fill-rule:nonzero;"/>
                        </g>
                    </g>
                </g>
            </g>
        </g>
        <path d="M2186.15,542.567C2186.15,362.686 2023.41,216.646 1822.95,216.646L627.491,216.646C427.038,216.646 264.295,362.686 264.295,542.567L264.295,1606.1C264.295,1785.98 427.038,1932.02 627.491,1932.02L1822.95,1932.02C2023.41,1932.02 2186.15,1785.98 2186.15,1606.1L2186.15,542.567Z" style="fill:none;stroke:black;stroke-width:7.91px;"/>
    </g>
</svg>
