<?xml version="1.0" encoding="UTF-8" standalone="no"?>
<svg
   width="100%"
   height="100%"
   viewBox="0 0 1280 1150"
   version="1.1"
   xml:space="preserve"
   style="fill-rule:evenodd;clip-rule:evenodd;stroke-linecap:round;stroke-linejoin:round;stroke-miterlimit:1.41421;"
   id="svg14317"
   sodipodi:docname="newifi-d2.svg"
   inkscape:version="1.2 (1:1.2+202206011327+fc4e4096c5)"
   xmlns:inkscape="http://www.inkscape.org/namespaces/inkscape"
   xmlns:sodipodi="http://sodipodi.sourceforge.net/DTD/sodipodi-0.dtd"
   xmlns="http://www.w3.org/2000/svg"
   xmlns:svg="http://www.w3.org/2000/svg"><defs
   id="defs14321" /><sodipodi:namedview
   id="namedview14319"
   pagecolor="#ffffff"
   bordercolor="#666666"
   borderopacity="1.0"
   inkscape:showpageshadow="2"
   inkscape:pageopacity="0.0"
   inkscape:pagecheckerboard="0"
   inkscape:deskcolor="#d1d1d1"
   showgrid="false"
   inkscape:zoom="0.41043479"
   inkscape:cx="1146.3453"
   inkscape:cy="678.54872"
   inkscape:window-width="1920"
   inkscape:window-height="1021"
   inkscape:window-x="0"
   inkscape:window-y="0"
   inkscape:window-maximized="1"
   inkscape:current-layer="svg14317" />
    
<g
   id="g12799"
   transform="matrix(1.0881735,0,0,1.0881735,-58.700674,-70.824889)"><path
     style="fill:#404040;fill-opacity:1;stroke:none;stroke-width:1px;stroke-linecap:butt;stroke-linejoin:miter;stroke-opacity:1"
     d="m 217.12942,884.1143 71.81925,-114.63141 c 5.41631,-9.669 18.91497,-11.01059 32.42065,-12.34495 h 605.62274 c 33.92731,-1.31532 64.07639,0.13003 72.67937,17.31857 l 62.64037,100.87435 c 14.4328,20.4755 -5.6609,25.28683 -34.1666,26.28178 H 286.01172 c -27.25178,-0.60036 -70.88916,3.28572 -68.8823,-17.49834 z"
     id="path1709"
     sodipodi:nodetypes="ccccccccc" /><path
     style="fill:#202221;fill-opacity:1;stroke:none;stroke-width:1px;stroke-linecap:butt;stroke-linejoin:miter;stroke-opacity:1"
     d="m 217.12942,884.1143 -0.0669,109.68466 c 12.98354,10.62194 28.86232,8.94764 44.07018,10.12274 h 129.38651 c 5.54532,-8.89125 16.02167,-10.69274 28.3763,-9.79367 h 452.77012 c 19.23105,-0.76795 20.99481,4.14058 24.7194,9.07127 h 132.44237 c 13.8709,-1.1949 28.1559,-1.6149 38.2815,-9.81849 V 887.0675 c 0.2669,12.38793 -20.4942,12.81477 -38.9637,14.54514 H 286.01172 c -26.91503,0 -68.47333,5.72272 -68.8823,-17.49834 z"
     id="path5626"
     sodipodi:nodetypes="ccccccccccccc" /><path
     style="fill:none;stroke:#000000;stroke-width:1.9;stroke-linecap:butt;stroke-linejoin:miter;stroke-dasharray:none;stroke-opacity:1"
     d="M 371.13175,926.78644 H 915.35859"
     id="path5624" /><path
     style="fill:#111111;fill-opacity:1;stroke:none;stroke-width:1px;stroke-linecap:butt;stroke-linejoin:miter;stroke-opacity:1"
     d="m 390.51921,1003.9217 0.006,-21.35858 c 1.97069,-16.15279 11.64949,-26.67102 33.9773,-25.84081 h 438.9167 c 26.44457,0.27091 31.11643,12.0212 33.16044,24.78098 l -0.19502,21.69601 c -2.17555,-6.94157 -10.96888,-9.60772 -24.7194,-9.07127 H 418.89551 c -13.38508,-1.46937 -22.84551,1.79318 -28.3763,9.79367 z"
     id="path5628"
     sodipodi:nodetypes="ccccccccc" /><g
     id="g12284"><path
       style="fill:#242424;fill-opacity:1;stroke:none;stroke-width:1px;stroke-linecap:butt;stroke-linejoin:miter;stroke-opacity:1"
       d="m 1143.7734,956.67648 c -15.3759,3.10452 -31.0393,8.71269 -43.605,-12.65848 h -11.9359 c -0.4216,5.7464 -2.9576,8.68498 -7.696,8.69907 V 897.9847 c 5.0981,0.12893 6.8491,3.68527 6.8573,9.02622 h 8.4755 c -0.8825,-4.88319 0.1659,-9.80089 -3.2568,-14.63868 l 9.1719,-675.49004 55.7703,-33.81504 z"
       id="path7700"
       sodipodi:nodetypes="ccccccccccc" /><path
       style="fill:#090909;fill-opacity:1;stroke:none;stroke-width:1px;stroke-linecap:butt;stroke-linejoin:miter;stroke-opacity:1"
       d="m 1080.5365,897.9847 -13.4276,8.64143 v 38.80981 l 13.4276,7.28113 z"
       id="path12142" /></g><g
     id="g12290"
     transform="matrix(-1,0,0,1,1284.1715,0)"><path
       style="fill:#242424;fill-opacity:1;stroke:none;stroke-width:1px;stroke-linecap:butt;stroke-linejoin:miter;stroke-opacity:1"
       d="m 1143.7734,956.67648 c -15.3759,3.10452 -31.0393,8.71269 -43.605,-12.65848 h -11.9359 c -0.4216,5.7464 -2.9576,8.68498 -7.696,8.69907 V 897.9847 c 5.0981,0.12893 6.8491,3.68527 6.8573,9.02622 h 8.4755 c -0.8825,-4.88319 0.1659,-9.80089 -3.2568,-14.63868 l 9.1719,-675.49004 55.7703,-33.81504 z"
       id="path12286"
       sodipodi:nodetypes="ccccccccccc" /><path
       style="fill:#090909;fill-opacity:1;stroke:none;stroke-width:1px;stroke-linecap:butt;stroke-linejoin:miter;stroke-opacity:1"
       d="m 1080.5365,897.9847 -13.4276,8.64143 v 38.80981 l 13.4276,7.28113 z"
       id="path12288" /></g><path
     style="fill:#363636;fill-opacity:1;stroke:none;stroke-width:1px;stroke-linecap:butt;stroke-linejoin:miter;stroke-opacity:1"
     d="m 1077.2804,183.06716 -10.7394,656.6368 -25.8597,0.79375 -30.3852,-48.93153 7.8634,0.007 c 5.1377,16.82347 15.6321,2.91794 6.3519,-4.62009 l 8.1933,-576.74053 z"
     id="path12292"
     sodipodi:nodetypes="cccccccc" /><path
     style="fill:#363636;fill-opacity:1;stroke:none;stroke-width:1px;stroke-linecap:butt;stroke-linejoin:miter;stroke-opacity:1"
     d="m 208.12867,183.06716 10.7394,656.6368 25.8597,0.79375 30.3852,-48.93153 -7.8634,0.007 c -5.1377,16.82347 -15.6321,2.91794 -6.3519,-4.62009 l -8.1933,-576.74053 z"
     id="path12785"
     sodipodi:nodetypes="cccccccc" /></g></svg>
