<?xml version="1.0" encoding="UTF-8"?>
<svg version="1.1" viewBox="0 0 514 514" xmlns="http://www.w3.org/2000/svg" xmlns:cc="http://creativecommons.org/ns#" xmlns:dc="http://purl.org/dc/elements/1.1/" xmlns:rdf="http://www.w3.org/1999/02/22-rdf-syntax-ns#">
 <metadata>
  <rdf:RDF>
   <cc:Work rdf:about="">
    <dc:format>image/svg+xml</dc:format>
    <dc:type rdf:resource="http://purl.org/dc/dcmitype/StillImage"/>
    <dc:title/>
    <cc:license rdf:resource="http://creativecommons.org/licenses/by-nc-sa/4.0/"/>
    <dc:creator>
     <cc:Agent>
      <dc:title>Jan Alexander</dc:title>
     </cc:Agent>
    </dc:creator>
   </cc:Work>
   <cc:License rdf:about="http://creativecommons.org/licenses/by-nc-sa/4.0/">
    <cc:permits rdf:resource="http://creativecommons.org/ns#Reproduction"/>
    <cc:permits rdf:resource="http://creativecommons.org/ns#Distribution"/>
    <cc:requires rdf:resource="http://creativecommons.org/ns#Notice"/>
    <cc:requires rdf:resource="http://creativecommons.org/ns#Attribution"/>
    <cc:prohibits rdf:resource="http://creativecommons.org/ns#CommercialUse"/>
    <cc:permits rdf:resource="http://creativecommons.org/ns#DerivativeWorks"/>
    <cc:requires rdf:resource="http://creativecommons.org/ns#ShareAlike"/>
   </cc:License>
  </rdf:RDF>
 </metadata>
 <g transform="translate(-6.0537 -11.342)" stroke-width="1px">
  <path d="m461.81 270.77c1.4959 19.544-0.45679 39.436-2.9189 58.523-1.8197 13.323-1.0797 28.315-10.128 39.229-5.2995 5.7259-11.684 9.8283-18.955 12.606-13.931 5.5221-28.317 6.9007-43.686 7.9758-36.867 0.9163-73.868 2.5238-110.76 1.7114-53.033-0.28452-106.18 0.51839-159.08-3.7054-12.618-1.4658-25.558-5.6283-35.462-13.712-6.676-5.7416-11.466-13.648-11.779-22.589-2.7788-16.353-3.1831-33.043-4.0596-49.584l-0.34897-33.366c132.39 0.97038 264.79 1.9408 397.18 2.9111z" fill="#f2f2f2" stroke="#666"/>
  <path d="m66.983 211.9c1.3843-13.943 2.1925-29.008 10.158-40.947 13.82-16.21 36.042-21.679 56.556-22.417 81.476-4.5894 163.15-2.907 244.67-0.49052 15.626 1.0211 31.733 2.4266 45.591 10.406 8.8134 3.8653 17.297 9.8324 22.463 17.953 4.9922 13.459 7.2871 27.619 9.9243 41.886 2.6537 16.544 6.3185 33.061 5.8186 49.783-0.53949 10.227-9.6771 16.579-17.321 21.868-12.79 7.2136-27.277 9.9034-41.765 10.899-47.043 3.5989-94.263 3.0275-141.41 3.7096-40.106-0.0574-80.617 0.0331-120.69-1.3107-20.395-0.99227-42.273-1.0433-59.548-13.628-7.5395-5.2999-14.167-12.905-16.801-21.751-2.2193-18.638 0.36574-37.409 2.355-55.958z" fill="#f2f2f2" stroke="#666"/>
  <path d="m458.58 333.32c-4.3802 8.8428-10.235 17.269-19.402 21.625-18.848 10.811-41.275 9.8946-62.283 11.124-43.69 1.039-87.381 2.3883-131.09 1.6187-39.331-0.44302-78.717-0.30229-117.98-2.6364-17.522-0.91812-35.926-4.4319-49.593-16.207-5.0814-4.8382-8.3542-11.311-11.463-17.546" fill="none" stroke="#b2b2b2"/>
  <path d="m355.98 329.56c8.3046-0.27203 16.611-0.57639 24.914-0.82822 0.71321 0.12209 1.4932 0.0421 2.0865 0.52704 0.82918 0.4554 1.6204 1.0304 2.3324 1.6311 0.31071 0.61857 0.62445 1.2363 0.59613 1.9479 0.0534 0.54704 0.20733 1.111-0.15938 1.5873-0.25936 0.59454-0.49612 1.2052-1.049 1.5899-0.78067 0.78146-1.6707 1.456-2.5532 2.1089-0.71467 0.275-1.4105 0.64418-2.2003 0.54401-8.1903 0.20465-16.381 0.4093-24.571 0.61395-1.0164-0.27224-2.0852-0.40902-2.9713-1.0182-0.75428-0.33882-1.1065-1.1678-1.6727-1.7359-0.34272-0.52205-0.78393-1.0064-0.7515-1.672-0.17582-0.48838-0.0142-0.92437 0.24635-1.345 0.40615-0.8938 1.1356-1.5885 1.6878-2.3923 0.80201-0.44722 1.4849-1.1888 2.4468-1.2408 0.53926-0.10589 1.0785-0.21178 1.6178-0.31767z" fill="#00f" stroke="#666"/>
 </g>
</svg>
