<?xml version="1.0" encoding="UTF-8"?>
<svg width="514" height="514" version="1.1" viewBox="0 0 514 514" xmlns="http://www.w3.org/2000/svg" xmlns:cc="http://creativecommons.org/ns#" xmlns:dc="http://purl.org/dc/elements/1.1/" xmlns:rdf="http://www.w3.org/1999/02/22-rdf-syntax-ns#">
 <metadata>
  <rdf:RDF>
   <cc:Work rdf:about="">
    <dc:format>image/svg+xml</dc:format>
    <dc:type rdf:resource="http://purl.org/dc/dcmitype/StillImage"/>
    <dc:title/>
    <cc:license rdf:resource="http://creativecommons.org/licenses/by-nc-sa/4.0/"/>
    <dc:creator>
     <cc:Agent>
      <dc:title>Jan Alexander</dc:title>
     </cc:Agent>
    </dc:creator>
   </cc:Work>
   <cc:License rdf:about="http://creativecommons.org/licenses/by-nc-sa/4.0/">
    <cc:permits rdf:resource="http://creativecommons.org/ns#Reproduction"/>
    <cc:permits rdf:resource="http://creativecommons.org/ns#Distribution"/>
    <cc:requires rdf:resource="http://creativecommons.org/ns#Notice"/>
    <cc:requires rdf:resource="http://creativecommons.org/ns#Attribution"/>
    <cc:prohibits rdf:resource="http://creativecommons.org/ns#CommercialUse"/>
    <cc:permits rdf:resource="http://creativecommons.org/ns#DerivativeWorks"/>
    <cc:requires rdf:resource="http://creativecommons.org/ns#ShareAlike"/>
   </cc:License>
  </rdf:RDF>
 </metadata>
 <g stroke="#666">
  <path d="m461.98 343.66-3.3967 20.777h-402.72l-5.9442-20.777z" fill="#f2f2f2" stroke-width="1px"/>
  <g fill="#ccc" stroke-width="1px">
   <path d="m352.54 345.26h100.2l-2.7598 16.984h-97.974z"/>
   <path d="m243.95 345.26h99.778l-0.63688 16.984h-98.08z"/>
   <path d="m215.29 345.26 1.1676 16.984h-51.694l-2.3352-16.984z"/>
  </g>
  <g fill="#262626">
   <ellipse cx="78.153" cy="353.8" rx="5.8381" ry="4.6174"/>
   <ellipse cx="127.72" cy="354.49" rx="3.0783" ry="2.3352"/>
   <path d="m98.745 360.33h10.296l-3.0783-15.391h-10.084z" stroke-width="1px"/>
  </g>
  <path d="m100.97 358.53h2.6537l-2.7598-12.525h-2.3352z" fill="#ccc" stroke-width="1px"/>
  <g fill="#262626" stroke-width="1px">
   <path d="m167.74 348.44h19.538l0.41815 8.2795h-4.8522l0.2 2.3352h-9.478l-0.194-2.3352h-4.688z"/>
   <path d="m191.42 348.44h18.901l0.51822 8.2795h-4.7642l0.1999 2.3352h-10.084l-0.0999-2.3352h-4.371z"/>
   <path d="m249.79 348.44h18.788l0.10615 8.2795h-4.352l-0.10615 2.3352h-9.7655v-2.3352h-4.6705z"/>
   <path d="m272.93 348.44h18.894l0.10614 8.2795h-4.6705l0.10615 2.3352h-9.9778v-2.3352h-4.4582z"/>
   <path d="m296.07 348.44h19l0.10615 8.2795h-4.5643l-0.10614 2.3352h-9.7655l-0.10614-2.3352h-4.5643z"/>
   <path d="m319.01 348.44h19.413l0.10615 8.2795h-5.0951v2.3352h-9.6594v-2.3352h-4.8828z"/>
   <path d="m357.53 348.44h19.213l-0.406 8.2795h-4.377l-0.30592 2.3352h-9.7655l0.20646-2.3352h-5.0892z"/>
   <path d="m381.31 348.44h18.982l-0.83039 8.2795h-4.1586l-0.40571 2.3352h-10.402l0.20013-2.3352h-4.152z"/>
   <path d="m404.46 348.44h19.294l-1.0492 8.2795h-4.3638l-0.41279 2.3352h-10.19l0.31844-2.3352h-4.5643z"/>
   <path d="m427.91 348.44h18.894l-0.95532 8.2795h-4.6705l-0.21229 2.3352h-10.19l0.31844-2.3352h-4.4582z"/>
  </g>
  <path d="m250.27 146.89h31.519l201.02 151.99-0.35021 18.561-450.72 2.1013 1.7511-21.713z" fill="#f2f2f2" stroke-width="1px"/>
  <g transform="translate(8.6263 118.53)" fill="none" stroke-width="2">
   <path transform="translate(-94.85 -53.387)" d="m333.91 143.75h31.7"/>
   <path transform="translate(-94.85 -53.387)" d="m334.07 138.76h31.7"/>
   <path transform="translate(-94.85 -53.387)" d="m333.75 133.45h31.7"/>
   <path transform="translate(-94.85 -53.387)" d="m334.73 128.23h31.7"/>
   <path transform="translate(-94.85 -53.387)" d="m334.89 123.49h31.7"/>
   <path transform="translate(-94.85 -53.387)" d="m335.22 118.58h31.7"/>
   <path transform="translate(-94.85 -53.387)" d="m334.4 113.85h31.7"/>
   <path transform="translate(-94.85 -53.387)" d="m335.05 108.94h31.7"/>
   <path d="m240.86 51.282h31.7"/>
   <path d="m241.84 47.024h31.7"/>
   <path transform="translate(-94.85 -53.387)" d="m336.85 96.199h31.7"/>
  </g>
  <g transform="translate(8.6263 118.53)" fill="none" stroke-width="2">
   <path d="m203.76 114.71 16.177 19.445"/>
   <path d="m184.56 122.8 16.177 19.445"/>
   <path d="m164.79 128.68 16.177 19.445"/>
   <path d="m194.04 119.2 16.177 19.445"/>
   <path d="m174.6 125.41 16.177 19.445"/>
   <path d="m155.48 133.09 16.177 19.445"/>
   <path d="m145.02 135.22 16.177 19.445"/>
   <path d="m135.22 138.97 16.177 19.445"/>
   <path d="m125.09 142.73 16.177 19.445"/>
   <path d="m114.95 146 16.177 19.445"/>
   <path d="m104.66 149.6 16.177 19.445"/>
  </g>
  <g transform="translate(8.6263 118.53)" fill="none" stroke-width="2">
   <path d="m300.91 115.77-16.177 19.445"/>
   <path d="m319.04 122.47-16.177 19.445"/>
   <path d="m337.67 128.84-16.177 19.445"/>
   <path d="m310.71 118.06-16.177 19.445"/>
   <path d="m329.34 124.76-16.177 19.445"/>
   <path d="m347.48 131.95-16.177 19.445"/>
   <path d="m357.12 135.38-16.177 19.445"/>
   <path d="m366.6 138.97-16.177 19.445"/>
   <path d="m376.4 142.57-16.177 19.445"/>
   <path d="m386.2 146.16-16.177 19.445"/>
   <path d="m396.5 149.11-16.177 19.445"/>
  </g>
  <g fill="#f2f2f2" stroke-width="1px">
   <path d="m459.03 353.37 0.98067-5.5041c1.0171-4.2028-1.1289-4.2028-7.2849-4.2028h-395.07c-4.6683 0-5.4637 0-4.6231 3.5024l1.401 6.2046h-15.551c-5.9294 0-11.121-7.7555-11.628-12.369l-1.2609-13.729 18.212 13.729h427.01l15.13-15.41-0.1401 11.208-0.42028 4.2028c-1.0587 7.1575-6.4405 12.369-14.29 12.369z"/>
   <path d="m459.03 353.37 17.652-0.82977-0.84057 10.176c-0.80051 4.2805-6.0435 8.0252-10.927 8.0495h-410.34c-10.703 0.0724-12.496-1.0994-14.01-6.3256l-2.8019-11.07h16.671l2.8019 8.6455c1.1698 2.9536 2.0111 2.4244 4.7632 2.4244h390.25c2.6533-0.0385 4.3772 3e-5 4.8311-1.6177z"/>
   <path d="m44.21 341c-10.233 0-18.286-1.6435-18.212-13.729l1.1208-13.833 224.99-73.307c5.5747-1.7668 10.41-1.7645 14.57-0.56038l219.67 73.867v14.673c-0.22801 11.465-7.755 12.889-16.251 12.889z"/>
   <path d="m27.936 306.05 6.9474-60.807c0.21348-3.7991 1.2499-6.233 3.4248-9.1329l66.594-72.683c10.305-9.5706 26.257-14.248 37.293-14.46l118.35-5.708-10.655 72.302c-1.4624 8.6632-2.371 10.46-10.452 13.567z"/>
   <path d="m486.17 306.18 1.9291-65.497c-0.112-2.3152 0.0489-3.9156-1.5222-5.7081l-59.364-72.683c-9.0029-10.244-18.7-11.642-36.151-13.319l-117.21-5.708 1.5222 73.063c0.61985 7.0486 1.0786 8.3375 7.2302 11.036z"/>
  </g>
 </g>
</svg>
