<?xml version="1.0" encoding="UTF-8"?>
<svg width="515" height="515" version="1.1" viewBox="0 0 515 515" xmlns="http://www.w3.org/2000/svg" xmlns:cc="http://creativecommons.org/ns#" xmlns:dc="http://purl.org/dc/elements/1.1/" xmlns:rdf="http://www.w3.org/1999/02/22-rdf-syntax-ns#">
 <metadata>
  <rdf:RDF>
   <cc:Work rdf:about="">
    <dc:format>image/svg+xml</dc:format>
    <dc:type rdf:resource="http://purl.org/dc/dcmitype/StillImage"/>
    <dc:title/>
    <cc:license rdf:resource="http://creativecommons.org/licenses/by-nc-sa/4.0/"/>
    <dc:creator>
     <cc:Agent>
      <dc:title>Jan Alexander</dc:title>
     </cc:Agent>
    </dc:creator>
   </cc:Work>
   <cc:License rdf:about="http://creativecommons.org/licenses/by-nc-sa/4.0/">
    <cc:permits rdf:resource="http://creativecommons.org/ns#Reproduction"/>
    <cc:permits rdf:resource="http://creativecommons.org/ns#Distribution"/>
    <cc:requires rdf:resource="http://creativecommons.org/ns#Notice"/>
    <cc:requires rdf:resource="http://creativecommons.org/ns#Attribution"/>
    <cc:prohibits rdf:resource="http://creativecommons.org/ns#CommercialUse"/>
    <cc:permits rdf:resource="http://creativecommons.org/ns#DerivativeWorks"/>
    <cc:requires rdf:resource="http://creativecommons.org/ns#ShareAlike"/>
   </cc:License>
  </rdf:RDF>
 </metadata>
 <g>
  <g stroke="#666">
   <path d="m243.57 58.369h28.642l153.37 264.71-14.783 24.946-307.67-0.46197-12.473-22.637z" fill="#f2f2f2" stroke-width="1px"/>
   <g fill="#666">
    <rect x="242.98" y="192.77" width="29.952" height="5.818" ry="0"/>
    <rect x="242.98" y="177.15" width="29.952" height="5.818" ry="0"/>
    <rect x="242.98" y="161.04" width="29.952" height="5.818" ry="0"/>
    <rect x="242.98" y="145.42" width="29.952" height="5.818" ry="0"/>
    <rect x="242.98" y="130.31" width="29.952" height="5.818" ry="0"/>
    <rect x="242.98" y="114.2" width="29.952" height="5.818" ry="0"/>
    <rect x="242.98" y="98.576" width="29.952" height="5.818" ry="0"/>
   </g>
   <g fill="#666">
    <rect transform="rotate(60)" x="324" y="36.957" width="29.952" height="5.818" ry="0"/>
    <rect transform="rotate(60)" x="324" y="21.335" width="29.952" height="5.818" ry="0"/>
    <rect transform="rotate(60)" x="324" y="5.2275" width="29.952" height="5.818" ry="0"/>
    <rect transform="rotate(60)" x="324" y="-10.395" width="29.952" height="5.818" ry="0"/>
    <rect transform="rotate(60)" x="324" y="-25.506" width="29.952" height="5.818" ry="0"/>
    <rect transform="rotate(60)" x="324" y="-41.613" width="29.952" height="5.818" ry="0"/>
    <rect transform="rotate(60)" x="324" y="-57.235" width="29.952" height="5.818" ry="0"/>
   </g>
   <g fill="#666">
    <rect transform="matrix(-.5 .86603 .86603 .5 0 0)" x="66.123" y="484.79" width="29.952" height="5.818" ry="0"/>
    <rect transform="matrix(-.5 .86603 .86603 .5 0 0)" x="66.123" y="469.17" width="29.952" height="5.818" ry="0"/>
    <rect transform="matrix(-.5 .86603 .86603 .5 0 0)" x="66.123" y="453.06" width="29.952" height="5.818" ry="0"/>
    <rect transform="matrix(-.5 .86603 .86603 .5 0 0)" x="66.123" y="437.44" width="29.952" height="5.818" ry="0"/>
    <rect transform="matrix(-.5 .86603 .86603 .5 0 0)" x="66.123" y="422.33" width="29.952" height="5.818" ry="0"/>
    <rect transform="matrix(-.5 .86603 .86603 .5 0 0)" x="66.123" y="406.22" width="29.952" height="5.818" ry="0"/>
    <rect transform="matrix(-.5 .86603 .86603 .5 0 0)" x="66.123" y="390.6" width="29.952" height="5.818" ry="0"/>
   </g>
   <g fill="#f2f2f2" stroke-width="1px">
    <path d="m264.77 52.354 99.308 1.8476c29.611 0.48917 40.133 7.4 49.423 25.866l64.666 112.7c8.5468 19.324 7.1253 31.996-2.7714 53.58l-47.114 86.837-144.11-90.07c-12.625-8.6968-13.99-11.821-14.781-25.866z"/>
    <path d="m251.4 52.674-5.8094 171.97c-1.4241 10.537-1.9893 12.247-9.7711 17.695l-147.03 91.313-51.271-91.918c-10.591-27.54-7.3867-38.804 6.4666-61.894l53.58-94.227c11.608-20.676 22.983-27.431 42.956-29.561z"/>
    <path d="m94.255 344.23 151.73-79.808c7.1222-4.0113 15.536-4.7188 23.064-0.17896l153.07 81.292-59.049 94.282c-8.6461 15.671-22.873 21.677-40.127 22.836l-127.56-0.32623c-24.766-1.4126-36.568-12.297-45.02-26.425z"/>
   </g>
  </g>
 </g>
</svg>
