<?xml version="1.0" encoding="UTF-8"?>
<svg version="1.1" viewBox="0 0 514 514" xmlns="http://www.w3.org/2000/svg" xmlns:cc="http://creativecommons.org/ns#" xmlns:dc="http://purl.org/dc/elements/1.1/" xmlns:rdf="http://www.w3.org/1999/02/22-rdf-syntax-ns#">
 <metadata>
  <rdf:RDF>
   <cc:Work rdf:about="">
    <dc:format>image/svg+xml</dc:format>
    <dc:type rdf:resource="http://purl.org/dc/dcmitype/StillImage"/>
    <dc:title/>
    <cc:license rdf:resource="http://creativecommons.org/licenses/by-nc-sa/4.0/"/>
    <dc:creator>
     <cc:Agent>
      <dc:title>Jan Alexander</dc:title>
     </cc:Agent>
    </dc:creator>
   </cc:Work>
   <cc:License rdf:about="http://creativecommons.org/licenses/by-nc-sa/4.0/">
    <cc:permits rdf:resource="http://creativecommons.org/ns#Reproduction"/>
    <cc:permits rdf:resource="http://creativecommons.org/ns#Distribution"/>
    <cc:requires rdf:resource="http://creativecommons.org/ns#Notice"/>
    <cc:requires rdf:resource="http://creativecommons.org/ns#Attribution"/>
    <cc:prohibits rdf:resource="http://creativecommons.org/ns#CommercialUse"/>
    <cc:permits rdf:resource="http://creativecommons.org/ns#DerivativeWorks"/>
    <cc:requires rdf:resource="http://creativecommons.org/ns#ShareAlike"/>
   </cc:License>
  </rdf:RDF>
 </metadata>
 <g>
  <path d="m141.01 14.795c-36.649 0-66.15 29.505-66.15 66.154v191.53l5.8809 79.574v80.996c0 36.649 29.505 66.154 66.154 66.154h221.2c36.649 0 66.15-29.505 66.15-66.154v-80.996l4.898-79.574v-191.53c0-36.649-29.505-66.154-66.154-66.154z" fill="#f2f2f2" stroke="#666"/>
  <rect x="188.77" y="452.77" width="5.4" height="5.4" fill="#0f0"/>
  <g fill="#00f">
   <rect x="233.18" y="452.77" width="5.4" height="5.4"/>
   <rect x="277.46" y="452.77" width="5.4" height="5.4"/>
   <rect x="321.62" y="452.77" width="5.4" height="5.4"/>
  </g>
  <g transform="matrix(2.16 0 0 2.16 -900.97 -1357.6)" fill="none" stroke="#666" stroke-width="1px">
   <path d="m503.76 834.08v-2.6457"/>
   <path d="m505.76 834.08v-3.7553"/>
   <path d="m507.76 834.08v-5.3371"/>
  </g>
  <g transform="matrix(2.16 0 0 2.16 -900.97 -1358.5)" fill="none" stroke="#666">
   <path d="m569 829.26a2.7 2.7 0 0 1 0.7984 3.0006 2.7 2.7 0 0 1-2.5528 1.7676 2.7 2.7 0 0 1-2.5278-1.8031 2.7 2.7 0 0 1 0.84022-2.9892"/>
   <path d="m567.26 832.3v-4.2313" stroke-width="1px"/>
  </g>
  <g transform="matrix(2.16 0 0 2.16 -900.97 -1358.7)" fill="none" stroke="#666">
   <path d="m523.49 834.05h5.6573" stroke-width="1px"/>
   <rect x="523.32" y="827.43" width="5.9902" height="5.271" ry=".73898"/>
   <rect x="524.61" y="828.73" width="3.421" height="2.6631" ry=".47991"/>
  </g>
  <g transform="matrix(2.16 0 0 2.16 -900.97 -1357.6)">
   <path d="m543.99 833.64h5.6573" fill="none" stroke="#666" stroke-width="1px"/>
   <rect x="543.82" y="827.02" width="5.9902" height="5.271" ry=".73898" fill="none" stroke="#666"/>
   <g fill="#666" aria-label="W">
    <path d="m544.73 828.19h0.7207l0.50391 2.1191 0.5-2.1191h0.72461l0.5 2.1191 0.5039-2.1191h0.71485l-0.6875 2.916h-0.86719l-0.5293-2.2168-0.52343 2.2168h-0.86719z" fill="#666"/>
   </g>
  </g>
 </g>
</svg>
