<?xml version="1.0" encoding="UTF-8"?>
<svg version="1.1" viewBox="0 0 514 514" xmlns="http://www.w3.org/2000/svg" xmlns:cc="http://creativecommons.org/ns#" xmlns:dc="http://purl.org/dc/elements/1.1/" xmlns:rdf="http://www.w3.org/1999/02/22-rdf-syntax-ns#">
 <metadata>
  <rdf:RDF>
   <cc:Work rdf:about="">
    <dc:format>image/svg+xml</dc:format>
    <dc:type rdf:resource="http://purl.org/dc/dcmitype/StillImage"/>
    <dc:title/>
    <cc:license rdf:resource="http://creativecommons.org/licenses/by-nc-sa/4.0/"/>
    <dc:creator>
     <cc:Agent>
      <dc:title>Jan Alexander</dc:title>
     </cc:Agent>
    </dc:creator>
   </cc:Work>
   <cc:License rdf:about="http://creativecommons.org/licenses/by-nc-sa/4.0/">
    <cc:permits rdf:resource="http://creativecommons.org/ns#Reproduction"/>
    <cc:permits rdf:resource="http://creativecommons.org/ns#Distribution"/>
    <cc:requires rdf:resource="http://creativecommons.org/ns#Notice"/>
    <cc:requires rdf:resource="http://creativecommons.org/ns#Attribution"/>
    <cc:prohibits rdf:resource="http://creativecommons.org/ns#CommercialUse"/>
    <cc:permits rdf:resource="http://creativecommons.org/ns#DerivativeWorks"/>
    <cc:requires rdf:resource="http://creativecommons.org/ns#ShareAlike"/>
   </cc:License>
  </rdf:RDF>
 </metadata>
 <g>
  <g transform="translate(81.16 1.8779)">
   <g stroke="#666">
    <path d="m121.55 11.248a10.227 10.227 0 0 0-10.227 10.229 10.227 10.227 0 0 0 6e-3 0.32031h-6e-3v132.46l-0.80664 27.291v69.348h22.234v-74.566l-0.97266-24.146v-130.7a10.227 10.227 0 0 0-10.229-10.229z" fill="#f2f2f2"/>
    <g fill="none" stroke-width="1px">
     <path transform="translate(-360.26 -360.65)" d="m470.78 606.84h22.234"/>
     <path transform="translate(-360.26 -360.65)" d="m470.78 581.55h22.235"/>
     <path transform="translate(-360.26 -360.65)" d="m471.59 397.96h20.454"/>
     <path transform="translate(-360.26 -360.65)" d="m471.59 392.78h20.454"/>
    </g>
    <rect x="109.67" y="250.89" width="24.12" height="26.738" fill="#f2f2f2"/>
   </g>
   <path d="m122.14 274.73c-16.967 0-30.625 13.66-30.625 30.627v88.672l2.7227 36.84v37.498c0 16.967 13.66 30.627 30.627 30.627h102.41c16.967 0 30.625-13.66 30.625-30.627v-37.498l2.2676-36.84v-88.672c0-16.967-13.66-30.627-30.627-30.627z" fill="#f2f2f2" stroke="#666"/>
   <rect x="144.25" y="477.5" width="2.5" height="2.5" fill="#0f0"/>
   <g fill="#00f">
    <rect x="164.81" y="477.5" width="2.5" height="2.5"/>
    <rect x="185.31" y="477.5" width="2.5" height="2.5"/>
    <rect x="205.76" y="477.5" width="2.5" height="2.5"/>
   </g>
   <g transform="translate(-360.26 -360.65)" fill="none" stroke="#666" stroke-width="1px">
    <path d="m503.76 834.08v-2.6457"/>
    <path d="m505.76 834.08v-3.7553"/>
    <path d="m507.76 834.08v-5.3371"/>
   </g>
   <g transform="translate(-360.26 -361.05)" fill="none" stroke="#666">
    <path d="m569 829.26a2.7 2.7 0 0 1 0.7984 3.0006 2.7 2.7 0 0 1-2.5528 1.7676 2.7 2.7 0 0 1-2.5278-1.8031 2.7 2.7 0 0 1 0.84022-2.9892"/>
    <path d="m567.26 832.3v-4.2313" stroke-width="1px"/>
   </g>
   <g transform="translate(-360.26 -361.15)" fill="none" stroke="#666">
    <path d="m523.49 834.05h5.6573" stroke-width="1px"/>
    <rect x="523.32" y="827.43" width="5.9902" height="5.271" ry=".73898"/>
    <rect x="524.61" y="828.73" width="3.421" height="2.6631" ry=".47991"/>
   </g>
   <g transform="translate(-360.26 -360.65)">
    <path d="m543.99 833.64h5.6573" fill="none" stroke="#666" stroke-width="1px"/>
    <rect x="543.82" y="827.02" width="5.9902" height="5.271" ry=".73898" fill="none" stroke="#666"/>
    <g fill="#666" aria-label="W">
     <path d="m544.73 828.19h0.7207l0.50391 2.1191 0.5-2.1191h0.72461l0.5 2.1191 0.5039-2.1191h0.71485l-0.6875 2.916h-0.86719l-0.5293-2.2168-0.52343 2.2168h-0.86719z" fill="#666"/>
    </g>
   </g>
  </g>
 </g>
</svg>
