<?xml version="1.0" encoding="UTF-8"?>
<svg version="1.1" viewBox="0 0 514 514" xmlns="http://www.w3.org/2000/svg" xmlns:cc="http://creativecommons.org/ns#" xmlns:dc="http://purl.org/dc/elements/1.1/" xmlns:rdf="http://www.w3.org/1999/02/22-rdf-syntax-ns#">
 <metadata>
  <rdf:RDF>
   <cc:Work rdf:about="">
    <dc:format>image/svg+xml</dc:format>
    <dc:type rdf:resource="http://purl.org/dc/dcmitype/StillImage"/>
    <dc:title/>
    <cc:license rdf:resource="http://creativecommons.org/licenses/by-nc-sa/4.0/"/>
    <dc:creator>
     <cc:Agent>
      <dc:title>Jan Alexander</dc:title>
     </cc:Agent>
    </dc:creator>
   </cc:Work>
   <cc:License rdf:about="http://creativecommons.org/licenses/by-nc-sa/4.0/">
    <cc:permits rdf:resource="http://creativecommons.org/ns#Reproduction"/>
    <cc:permits rdf:resource="http://creativecommons.org/ns#Distribution"/>
    <cc:requires rdf:resource="http://creativecommons.org/ns#Notice"/>
    <cc:requires rdf:resource="http://creativecommons.org/ns#Attribution"/>
    <cc:prohibits rdf:resource="http://creativecommons.org/ns#CommercialUse"/>
    <cc:permits rdf:resource="http://creativecommons.org/ns#DerivativeWorks"/>
    <cc:requires rdf:resource="http://creativecommons.org/ns#ShareAlike"/>
   </cc:License>
  </rdf:RDF>
 </metadata>
 <g>
  <rect x="27.925" y="103.91" width="437.98" height="289.55" ry="14.693" fill="#00763a" stroke="#666"/>
  <g fill="#f2f2f2" stroke="#be9b4b" stroke-width="8">
   <circle cx="46.065" cy="120.98" r="11"/>
   <circle cx="344.74" cy="120.76" r="11"/>
   <circle cx="47.889" cy="373.53" r="11"/>
   <circle cx="345.87" cy="374.66" r="11"/>
  </g>
  <g fill="#ccc" stroke="#666">
   <rect x="384.61" y="118.63" width="89.494" height="67.527"/>
   <rect x="384.61" y="215.56" width="89.494" height="67.527"/>
   <rect x="365.98" y="306.46" width="109.44" height="81.727"/>
   <rect x="151.45" y="342.1" width="75.991" height="61.03"/>
   <rect x="64.63" y="369.91" width="35.868" height="28.424"/>
  </g>
  <path d="m283.57 331.25v65.17h3.9688v12.191h30.129v-12.191h3.9707v-65.17z" fill="#404040" stroke="#666"/>
  <g>
   <path d="m251.02 273.3h13.33v24.01l6.9245 3.1667v62.158l-6.9245 2.9801v22.805h-13.33z" fill="#f2f2f2" stroke="#666" stroke-width="1px"/>
   <path d="m251.52 287.67h4.5009v86.902h-4.5009" fill="none" stroke="#0d0d0d" stroke-width="4"/>
  </g>
  <g>
   <path d="m50.358 190.69h-13.33v24.01l-6.9245 3.1667v62.158l6.9245 2.9801v22.805h13.33z" fill="#f2f2f2" stroke="#666" stroke-width="1px"/>
   <path d="m49.858 205.06h-4.5009v86.902h4.5009" fill="none" stroke="#0d0d0d" stroke-width="4"/>
  </g>
  <rect x="128.26" y="193.26" width="74" height="74" fill="#404040" stroke="#666"/>
  <rect x="315.37" y="197.21" width="42" height="42" fill="#404040" stroke="#666"/>
  <g transform="translate(-24.318 -.16707)">
   <path d="m326.22 108.21h4.0945l3.7947 4.0395v17.688l-3.7947 4.0395h-4.0945l-3.7397-4.0395v-17.688z" fill="#404040"/>
   <g transform="translate(0 -.2208)" fill="#be9b4b">
    <rect x="326.8" y="113.51" width="3" height="3"/>
    <rect x="326.8" y="126.11" width="3" height="3"/>
   </g>
  </g>
  <g transform="translate(-35.947 -.16707)">
   <path d="m326.22 108.21h4.0945l3.7947 4.0395v17.688l-3.7947 4.0395h-4.0945l-3.7397-4.0395v-17.688z" fill="#404040"/>
   <g transform="translate(0 -.2208)" fill="#be9b4b">
    <rect x="326.8" y="113.51" width="3" height="3"/>
    <rect x="326.8" y="126.11" width="3" height="3"/>
   </g>
  </g>
  <g transform="translate(-47.576 -.16707)">
   <path d="m326.22 108.21h4.0945l3.7947 4.0395v17.688l-3.7947 4.0395h-4.0945l-3.7397-4.0395v-17.688z" fill="#404040"/>
   <g transform="translate(0 -.2208)" fill="#be9b4b">
    <rect x="326.8" y="113.51" width="3" height="3"/>
    <rect x="326.8" y="126.11" width="3" height="3"/>
   </g>
  </g>
  <g transform="translate(-59.205 -.16707)">
   <path d="m326.22 108.21h4.0945l3.7947 4.0395v17.688l-3.7947 4.0395h-4.0945l-3.7397-4.0395v-17.688z" fill="#404040"/>
   <g transform="translate(0 -.2208)" fill="#be9b4b">
    <rect x="326.8" y="113.51" width="3" height="3"/>
    <rect x="326.8" y="126.11" width="3" height="3"/>
   </g>
  </g>
  <g transform="translate(-70.833 -.16707)">
   <path d="m326.22 108.21h4.0945l3.7947 4.0395v17.688l-3.7947 4.0395h-4.0945l-3.7397-4.0395v-17.688z" fill="#404040"/>
   <g transform="translate(0 -.2208)" fill="#be9b4b">
    <rect x="326.8" y="113.51" width="3" height="3"/>
    <rect x="326.8" y="126.11" width="3" height="3"/>
   </g>
  </g>
  <g transform="translate(-82.462 -.16707)">
   <path d="m326.22 108.21h4.0945l3.7947 4.0395v17.688l-3.7947 4.0395h-4.0945l-3.7397-4.0395v-17.688z" fill="#404040"/>
   <g transform="translate(0 -.2208)" fill="#be9b4b">
    <rect x="326.8" y="113.51" width="3" height="3"/>
    <rect x="326.8" y="126.11" width="3" height="3"/>
   </g>
  </g>
  <g transform="translate(-94.091 -.16707)">
   <path d="m326.22 108.21h4.0945l3.7947 4.0395v17.688l-3.7947 4.0395h-4.0945l-3.7397-4.0395v-17.688z" fill="#404040"/>
   <g transform="translate(0 -.2208)" fill="#be9b4b">
    <rect x="326.8" y="113.51" width="3" height="3"/>
    <rect x="326.8" y="126.11" width="3" height="3"/>
   </g>
  </g>
  <g transform="translate(-105.72 -.16707)">
   <path d="m326.22 108.21h4.0945l3.7947 4.0395v17.688l-3.7947 4.0395h-4.0945l-3.7397-4.0395v-17.688z" fill="#404040"/>
   <g transform="translate(0 -.2208)" fill="#be9b4b">
    <rect x="326.8" y="113.51" width="3" height="3"/>
    <rect x="326.8" y="126.11" width="3" height="3"/>
   </g>
  </g>
  <g transform="translate(-117.35 -.16707)">
   <path d="m326.22 108.21h4.0945l3.7947 4.0395v17.688l-3.7947 4.0395h-4.0945l-3.7397-4.0395v-17.688z" fill="#404040"/>
   <g transform="translate(0 -.2208)" fill="#be9b4b">
    <rect x="326.8" y="113.51" width="3" height="3"/>
    <rect x="326.8" y="126.11" width="3" height="3"/>
   </g>
  </g>
  <g transform="translate(-128.98 -.16707)">
   <path d="m326.22 108.21h4.0945l3.7947 4.0395v17.688l-3.7947 4.0395h-4.0945l-3.7397-4.0395v-17.688z" fill="#404040"/>
   <g transform="translate(0 -.2208)" fill="#be9b4b">
    <rect x="326.8" y="113.51" width="3" height="3"/>
    <rect x="326.8" y="126.11" width="3" height="3"/>
   </g>
  </g>
  <g transform="translate(-140.61 -.16707)">
   <path d="m326.22 108.21h4.0945l3.7947 4.0395v17.688l-3.7947 4.0395h-4.0945l-3.7397-4.0395v-17.688z" fill="#404040"/>
   <g transform="translate(0 -.2208)" fill="#be9b4b">
    <rect x="326.8" y="113.51" width="3" height="3"/>
    <rect x="326.8" y="126.11" width="3" height="3"/>
   </g>
  </g>
  <g transform="translate(-152.23 -.16707)">
   <path d="m326.22 108.21h4.0945l3.7947 4.0395v17.688l-3.7947 4.0395h-4.0945l-3.7397-4.0395v-17.688z" fill="#404040"/>
   <g transform="translate(0 -.2208)" fill="#be9b4b">
    <rect x="326.8" y="113.51" width="3" height="3"/>
    <rect x="326.8" y="126.11" width="3" height="3"/>
   </g>
  </g>
  <g transform="translate(-163.86 -.16707)">
   <path d="m326.22 108.21h4.0945l3.7947 4.0395v17.688l-3.7947 4.0395h-4.0945l-3.7397-4.0395v-17.688z" fill="#404040"/>
   <g transform="translate(0 -.2208)" fill="#be9b4b">
    <rect x="326.8" y="113.51" width="3" height="3"/>
    <rect x="326.8" y="126.11" width="3" height="3"/>
   </g>
  </g>
  <g transform="translate(-175.49 -.16707)">
   <path d="m326.22 108.21h4.0945l3.7947 4.0395v17.688l-3.7947 4.0395h-4.0945l-3.7397-4.0395v-17.688z" fill="#404040"/>
   <g transform="translate(0 -.2208)" fill="#be9b4b">
    <rect x="326.8" y="113.51" width="3" height="3"/>
    <rect x="326.8" y="126.11" width="3" height="3"/>
   </g>
  </g>
  <g transform="translate(-187.12 -.16707)">
   <path d="m326.22 108.21h4.0945l3.7947 4.0395v17.688l-3.7947 4.0395h-4.0945l-3.7397-4.0395v-17.688z" fill="#404040"/>
   <g transform="translate(0 -.2208)" fill="#be9b4b">
    <rect x="326.8" y="113.51" width="3" height="3"/>
    <rect x="326.8" y="126.11" width="3" height="3"/>
   </g>
  </g>
  <g transform="translate(-198.75 -.16707)">
   <path d="m326.22 108.21h4.0945l3.7947 4.0395v17.688l-3.7947 4.0395h-4.0945l-3.7397-4.0395v-17.688z" fill="#404040"/>
   <g transform="translate(0 -.2208)" fill="#be9b4b">
    <rect x="326.8" y="113.51" width="3" height="3"/>
    <rect x="326.8" y="126.11" width="3" height="3"/>
   </g>
  </g>
  <g transform="translate(-210.38 -.16707)">
   <path d="m326.22 108.21h4.0945l3.7947 4.0395v17.688l-3.7947 4.0395h-4.0945l-3.7397-4.0395v-17.688z" fill="#404040"/>
   <g transform="translate(0 -.2208)" fill="#be9b4b">
    <rect x="326.8" y="113.51" width="3" height="3"/>
    <rect x="326.8" y="126.11" width="3" height="3"/>
   </g>
  </g>
  <g transform="translate(-222.01 -.16707)">
   <path d="m326.22 108.21h4.0945l3.7947 4.0395v17.688l-3.7947 4.0395h-4.0945l-3.7397-4.0395v-17.688z" fill="#404040"/>
   <g transform="translate(0 -.2208)" fill="#be9b4b">
    <rect x="326.8" y="113.51" width="3" height="3"/>
    <rect x="326.8" y="126.11" width="3" height="3"/>
   </g>
  </g>
  <g transform="translate(-233.64 -.16707)">
   <path d="m326.22 108.21h4.0945l3.7947 4.0395v17.688l-3.7947 4.0395h-4.0945l-3.7397-4.0395v-17.688z" fill="#404040"/>
   <g transform="translate(0 -.2208)" fill="#be9b4b">
    <rect x="326.8" y="113.51" width="3" height="3"/>
    <rect x="326.8" y="126.11" width="3" height="3"/>
   </g>
  </g>
  <g transform="translate(-245.27 -.16707)">
   <path d="m326.22 108.21h4.0945l3.7947 4.0395v17.688l-3.7947 4.0395h-4.0945l-3.7397-4.0395v-17.688z" fill="#404040"/>
   <g transform="translate(0 -.2208)" fill="#be9b4b">
    <rect x="326.8" y="113.51" width="3" height="3"/>
    <rect x="326.8" y="126.11" width="3" height="3"/>
   </g>
  </g>
  <g>
   <rect x="41.678" y="338.9" width="17" height="17" ry="5.3002" fill="#666" stroke="#404040"/>
   <rect x="70.312" y="290.59" width="17" height="17" ry="5.3002" fill="#666" stroke="#404040"/>
   <rect x="30.298" y="345.87" width="3.5" height="8" fill="#e3cfb8" stroke="#ccc"/>
   <rect x="30.173" y="327.5" width="3.5" height="8" fill="#e3cfb8" stroke="#ccc"/>
  </g>
  <g fill="#b38f7f" stroke="#ccc" stroke-width="2">
   <rect x="327.31" y="348.84" width="15" height="8"/>
   <rect x="360.01" y="274.48" width="15" height="8"/>
   <rect transform="rotate(-90)" x="-145.19" y="365.79" width="15" height="8"/>
   <rect transform="rotate(-90)" x="-341.74" y="327.88" width="15" height="8"/>
   <rect transform="rotate(-90)" x="-326.8" y="41.831" width="9" height="5"/>
   <rect transform="rotate(-90)" x="-326.84" y="52.096" width="9" height="5"/>
   <rect transform="rotate(-90)" x="-326.63" y="77.499" width="9" height="5"/>
   <rect transform="rotate(-90)" x="-326.74" y="87.064" width="9" height="5"/>
  </g>
  <g fill="#404040" stroke="#666">
   <rect x="59.669" y="315.22" width="15.031" height="13.655"/>
   <rect x="93.809" y="341.64" width="16.703" height="18.181"/>
   <rect x="130.38" y="340.67" width="6.6952" height="14.494"/>
   <rect x="121.4" y="373.44" width="13.745" height="5.1976"/>
   <rect x="314.34" y="300.07" width="10.201" height="4.2546"/>
   <rect x="293.85" y="306.41" width="10.343" height="4.7113"/>
   <rect x="277.35" y="313.59" width="13.636" height="5.0991"/>
   <rect x="314.47" y="161.05" width="5.7828" height="13.607"/>
   <rect x="339.2" y="159.75" width="7.3082" height="14.288"/>
  </g>
  <circle cx="371.74" cy="116.3" r="6" fill="#be9b4b" stroke="#654b37" stroke-width="2"/>
  <g transform="matrix(-1 0 0 1 390 -32.577)" fill="#be9b4b">
   <rect x="48.655" y="175.89" width="7.7825" height="7.4239"/>
   <circle cx="39.615" cy="179.62" r="4"/>
  </g>
  <g fill="#b38f7f" stroke="#ccc" stroke-width="2">
   <rect transform="rotate(-90)" x="-264.76" y="370.13" width="15" height="8"/>
   <rect x="99.535" y="296.4" width="15" height="8"/>
   <rect x="100" y="329.23" width="15" height="8"/>
   <rect transform="rotate(-90)" x="-318.7" y="113.14" width="9" height="5"/>
  </g>
  <g>
   <rect x="97.677" y="308.79" width="10.323" height="14.127" fill="#a4968b" stroke="#ccc"/>
   <rect x="30.528" y="145.77" width="9.1178" height="26.061" fill="#f2f2f2" stroke="#ccc"/>
   <rect x="74.265" y="217.51" width="12.438" height="7.8186" fill="#404040" stroke="#666"/>
  </g>
 </g>
</svg>
