<?xml version="1.0" encoding="UTF-8"?>
<svg version="1.1" viewBox="0 0 514 514" xmlns="http://www.w3.org/2000/svg" xmlns:cc="http://creativecommons.org/ns#" xmlns:dc="http://purl.org/dc/elements/1.1/" xmlns:rdf="http://www.w3.org/1999/02/22-rdf-syntax-ns#">
 <metadata>
  <rdf:RDF>
   <cc:Work rdf:about="">
    <dc:format>image/svg+xml</dc:format>
    <dc:type rdf:resource="http://purl.org/dc/dcmitype/StillImage"/>
    <dc:title/>
    <cc:license rdf:resource="http://creativecommons.org/licenses/by-nc-sa/4.0/"/>
    <dc:creator>
     <cc:Agent>
      <dc:title>Jan Alexander</dc:title>
     </cc:Agent>
    </dc:creator>
   </cc:Work>
   <cc:License rdf:about="http://creativecommons.org/licenses/by-nc-sa/4.0/">
    <cc:permits rdf:resource="http://creativecommons.org/ns#Reproduction"/>
    <cc:permits rdf:resource="http://creativecommons.org/ns#Distribution"/>
    <cc:requires rdf:resource="http://creativecommons.org/ns#Notice"/>
    <cc:requires rdf:resource="http://creativecommons.org/ns#Attribution"/>
    <cc:prohibits rdf:resource="http://creativecommons.org/ns#CommercialUse"/>
    <cc:permits rdf:resource="http://creativecommons.org/ns#DerivativeWorks"/>
    <cc:requires rdf:resource="http://creativecommons.org/ns#ShareAlike"/>
   </cc:License>
  </rdf:RDF>
 </metadata>
 <g>
  <rect x="33.251" y="104.65" width="437.98" height="289.55" ry="14.693" fill="#00763a" stroke="#666"/>
  <g fill="#f2f2f2" stroke="#be9b4b" stroke-width="8">
   <circle cx="51.391" cy="121.72" r="11"/>
   <circle cx="350.06" cy="121.5" r="11"/>
   <circle cx="53.215" cy="374.27" r="11"/>
   <circle cx="351.2" cy="375.4" r="11"/>
  </g>
  <g fill="#ccc" stroke="#666">
   <rect x="389.94" y="119.36" width="89.494" height="67.527"/>
   <rect x="389.94" y="216.3" width="89.494" height="67.527"/>
   <rect x="371.3" y="307.2" width="109.44" height="81.727"/>
   <rect x="156.78" y="342.84" width="75.991" height="61.03"/>
   <rect x="69.956" y="370.65" width="35.868" height="28.424"/>
  </g>
  <path d="m288.89 331.99v65.17h3.9688v12.191h30.129v-12.191h3.9707v-65.17z" fill="#404040" stroke="#666"/>
  <g transform="translate(-4.5617 .67659)">
   <path d="m259.84 278.19h13.33v24.01l6.9245 3.1667v62.158l-6.9245 2.9801v22.805h-13.33z" fill="#404040" stroke="#666" stroke-width="1px"/>
   <path d="m260.34 292.56h4.5009v86.902h-4.5009" fill="none" stroke="#0d0d0d" stroke-width="4"/>
  </g>
  <g transform="matrix(-1 0 0 1 315.52 -86.763)">
   <path d="m259.84 278.19h13.33v24.01l6.9245 3.1667v62.158l-6.9245 2.9801v22.805h-13.33z" fill="#404040" stroke="#666" stroke-width="1px"/>
   <path d="m260.34 292.56h4.5009v86.902h-4.5009" fill="none" stroke="#0d0d0d" stroke-width="4"/>
  </g>
  <rect x="155.04" y="207.57" width="60" height="60" fill="#404040" stroke="#666"/>
  <rect x="308.88" y="196.66" width="42" height="42" fill="#404040" stroke="#666"/>
  <g transform="translate(-18.992 .57176)">
   <path d="m326.22 108.21h4.0945l3.7947 4.0395v17.688l-3.7947 4.0395h-4.0945l-3.7397-4.0395v-17.688z" fill="#404040"/>
   <g transform="translate(0 -.2208)" fill="#be9b4b">
    <rect x="326.8" y="113.51" width="3" height="3"/>
    <rect x="326.8" y="126.11" width="3" height="3"/>
   </g>
  </g>
  <g transform="translate(-30.621 .57176)">
   <path d="m326.22 108.21h4.0945l3.7947 4.0395v17.688l-3.7947 4.0395h-4.0945l-3.7397-4.0395v-17.688z" fill="#404040"/>
   <g transform="translate(0 -.2208)" fill="#be9b4b">
    <rect x="326.8" y="113.51" width="3" height="3"/>
    <rect x="326.8" y="126.11" width="3" height="3"/>
   </g>
  </g>
  <g transform="translate(-42.25 .57176)">
   <path d="m326.22 108.21h4.0945l3.7947 4.0395v17.688l-3.7947 4.0395h-4.0945l-3.7397-4.0395v-17.688z" fill="#404040"/>
   <g transform="translate(0 -.2208)" fill="#be9b4b">
    <rect x="326.8" y="113.51" width="3" height="3"/>
    <rect x="326.8" y="126.11" width="3" height="3"/>
   </g>
  </g>
  <g transform="translate(-53.879 .57176)">
   <path d="m326.22 108.21h4.0945l3.7947 4.0395v17.688l-3.7947 4.0395h-4.0945l-3.7397-4.0395v-17.688z" fill="#404040"/>
   <g transform="translate(0 -.2208)" fill="#be9b4b">
    <rect x="326.8" y="113.51" width="3" height="3"/>
    <rect x="326.8" y="126.11" width="3" height="3"/>
   </g>
  </g>
  <g transform="translate(-65.507 .57176)">
   <path d="m326.22 108.21h4.0945l3.7947 4.0395v17.688l-3.7947 4.0395h-4.0945l-3.7397-4.0395v-17.688z" fill="#404040"/>
   <g transform="translate(0 -.2208)" fill="#be9b4b">
    <rect x="326.8" y="113.51" width="3" height="3"/>
    <rect x="326.8" y="126.11" width="3" height="3"/>
   </g>
  </g>
  <g transform="translate(-77.136 .57176)">
   <path d="m326.22 108.21h4.0945l3.7947 4.0395v17.688l-3.7947 4.0395h-4.0945l-3.7397-4.0395v-17.688z" fill="#404040"/>
   <g transform="translate(0 -.2208)" fill="#be9b4b">
    <rect x="326.8" y="113.51" width="3" height="3"/>
    <rect x="326.8" y="126.11" width="3" height="3"/>
   </g>
  </g>
  <g transform="translate(-88.765 .57176)">
   <path d="m326.22 108.21h4.0945l3.7947 4.0395v17.688l-3.7947 4.0395h-4.0945l-3.7397-4.0395v-17.688z" fill="#404040"/>
   <g transform="translate(0 -.2208)" fill="#be9b4b">
    <rect x="326.8" y="113.51" width="3" height="3"/>
    <rect x="326.8" y="126.11" width="3" height="3"/>
   </g>
  </g>
  <g transform="translate(-100.39 .57176)">
   <path d="m326.22 108.21h4.0945l3.7947 4.0395v17.688l-3.7947 4.0395h-4.0945l-3.7397-4.0395v-17.688z" fill="#404040"/>
   <g transform="translate(0 -.2208)" fill="#be9b4b">
    <rect x="326.8" y="113.51" width="3" height="3"/>
    <rect x="326.8" y="126.11" width="3" height="3"/>
   </g>
  </g>
  <g transform="translate(-112.02 .57176)">
   <path d="m326.22 108.21h4.0945l3.7947 4.0395v17.688l-3.7947 4.0395h-4.0945l-3.7397-4.0395v-17.688z" fill="#404040"/>
   <g transform="translate(0 -.2208)" fill="#be9b4b">
    <rect x="326.8" y="113.51" width="3" height="3"/>
    <rect x="326.8" y="126.11" width="3" height="3"/>
   </g>
  </g>
  <g transform="translate(-123.65 .57176)">
   <path d="m326.22 108.21h4.0945l3.7947 4.0395v17.688l-3.7947 4.0395h-4.0945l-3.7397-4.0395v-17.688z" fill="#404040"/>
   <g transform="translate(0 -.2208)" fill="#be9b4b">
    <rect x="326.8" y="113.51" width="3" height="3"/>
    <rect x="326.8" y="126.11" width="3" height="3"/>
   </g>
  </g>
  <g transform="translate(-135.28 .57176)">
   <path d="m326.22 108.21h4.0945l3.7947 4.0395v17.688l-3.7947 4.0395h-4.0945l-3.7397-4.0395v-17.688z" fill="#404040"/>
   <g transform="translate(0 -.2208)" fill="#be9b4b">
    <rect x="326.8" y="113.51" width="3" height="3"/>
    <rect x="326.8" y="126.11" width="3" height="3"/>
   </g>
  </g>
  <g transform="translate(-146.91 .57176)">
   <path d="m326.22 108.21h4.0945l3.7947 4.0395v17.688l-3.7947 4.0395h-4.0945l-3.7397-4.0395v-17.688z" fill="#404040"/>
   <g transform="translate(0 -.2208)" fill="#be9b4b">
    <rect x="326.8" y="113.51" width="3" height="3"/>
    <rect x="326.8" y="126.11" width="3" height="3"/>
   </g>
  </g>
  <g transform="translate(-158.54 .57176)">
   <path d="m326.22 108.21h4.0945l3.7947 4.0395v17.688l-3.7947 4.0395h-4.0945l-3.7397-4.0395v-17.688z" fill="#404040"/>
   <g transform="translate(0 -.2208)" fill="#be9b4b">
    <rect x="326.8" y="113.51" width="3" height="3"/>
    <rect x="326.8" y="126.11" width="3" height="3"/>
   </g>
  </g>
  <g transform="translate(-170.17 .57176)">
   <path d="m326.22 108.21h4.0945l3.7947 4.0395v17.688l-3.7947 4.0395h-4.0945l-3.7397-4.0395v-17.688z" fill="#404040"/>
   <g transform="translate(0 -.2208)" fill="#be9b4b">
    <rect x="326.8" y="113.51" width="3" height="3"/>
    <rect x="326.8" y="126.11" width="3" height="3"/>
   </g>
  </g>
  <g transform="translate(-181.8 .57176)">
   <path d="m326.22 108.21h4.0945l3.7947 4.0395v17.688l-3.7947 4.0395h-4.0945l-3.7397-4.0395v-17.688z" fill="#404040"/>
   <g transform="translate(0 -.2208)" fill="#be9b4b">
    <rect x="326.8" y="113.51" width="3" height="3"/>
    <rect x="326.8" y="126.11" width="3" height="3"/>
   </g>
  </g>
  <g transform="translate(-193.42 .57176)">
   <path d="m326.22 108.21h4.0945l3.7947 4.0395v17.688l-3.7947 4.0395h-4.0945l-3.7397-4.0395v-17.688z" fill="#404040"/>
   <g transform="translate(0 -.2208)" fill="#be9b4b">
    <rect x="326.8" y="113.51" width="3" height="3"/>
    <rect x="326.8" y="126.11" width="3" height="3"/>
   </g>
  </g>
  <g transform="translate(-205.05 .57176)">
   <path d="m326.22 108.21h4.0945l3.7947 4.0395v17.688l-3.7947 4.0395h-4.0945l-3.7397-4.0395v-17.688z" fill="#404040"/>
   <g transform="translate(0 -.2208)" fill="#be9b4b">
    <rect x="326.8" y="113.51" width="3" height="3"/>
    <rect x="326.8" y="126.11" width="3" height="3"/>
   </g>
  </g>
  <g transform="translate(-216.68 .57176)">
   <path d="m326.22 108.21h4.0945l3.7947 4.0395v17.688l-3.7947 4.0395h-4.0945l-3.7397-4.0395v-17.688z" fill="#404040"/>
   <g transform="translate(0 -.2208)" fill="#be9b4b">
    <rect x="326.8" y="113.51" width="3" height="3"/>
    <rect x="326.8" y="126.11" width="3" height="3"/>
   </g>
  </g>
  <g transform="translate(-228.31 .57176)">
   <path d="m326.22 108.21h4.0945l3.7947 4.0395v17.688l-3.7947 4.0395h-4.0945l-3.7397-4.0395v-17.688z" fill="#404040"/>
   <g transform="translate(0 -.2208)" fill="#be9b4b">
    <rect x="326.8" y="113.51" width="3" height="3"/>
    <rect x="326.8" y="126.11" width="3" height="3"/>
   </g>
  </g>
  <g transform="translate(-239.94 .57176)">
   <path d="m326.22 108.21h4.0945l3.7947 4.0395v17.688l-3.7947 4.0395h-4.0945l-3.7397-4.0395v-17.688z" fill="#404040"/>
   <g transform="translate(0 -.2208)" fill="#be9b4b">
    <rect x="326.8" y="113.51" width="3" height="3"/>
    <rect x="326.8" y="126.11" width="3" height="3"/>
   </g>
  </g>
  <g>
   <rect x="49.307" y="339.87" width="17" height="17" ry="5.3002" fill="#666" stroke="#404040"/>
   <rect x="78.044" y="289.31" width="17" height="17" ry="5.3002" fill="#666" stroke="#404040"/>
   <rect x="37.228" y="159.28" width="3.5" height="8" fill="#e3cfb8" stroke="#ccc"/>
   <rect x="37.103" y="140.91" width="3.5" height="8" fill="#e3cfb8" stroke="#ccc"/>
  </g>
  <g fill="#b38f7f" stroke="#ccc" stroke-width="2">
   <rect x="137.11" y="291.27" width="15" height="8"/>
   <rect x="332.64" y="349.58" width="15" height="8"/>
   <rect x="367.28" y="270.01" width="15" height="8"/>
   <rect transform="rotate(-90)" x="-128.93" y="377.13" width="15" height="8"/>
   <rect transform="rotate(-90)" x="-342.48" y="333.2" width="15" height="8"/>
   <rect transform="rotate(-90)" x="-327.54" y="47.157" width="9" height="5"/>
   <rect transform="rotate(-90)" x="-327.58" y="57.422" width="9" height="5"/>
   <rect transform="rotate(-90)" x="-327.37" y="82.825" width="9" height="5"/>
   <rect transform="rotate(-90)" x="-327.47" y="92.39" width="9" height="5"/>
   <rect transform="rotate(-90)" x="-171.37" y="363.94" width="9" height="5"/>
   <rect transform="scale(-1)" x="-383.46" y="-263.93" width="9" height="5"/>
  </g>
  <g fill="#404040" stroke="#666">
   <rect x="64.995" y="315.96" width="15.031" height="13.655"/>
   <rect x="109.44" y="301.77" width="16.703" height="18.181"/>
   <rect x="110.84" y="344.4" width="13.664" height="6.6053"/>
   <rect x="139.22" y="317.29" width="6.6952" height="14.494"/>
   <rect x="97.226" y="340.8" width="5.5997" height="13.165"/>
   <rect x="135.24" y="361.34" width="13.745" height="5.1976"/>
   <rect x="321.33" y="307.27" width="10.201" height="4.2546"/>
   <rect x="299.18" y="307.15" width="10.343" height="4.7113"/>
   <rect x="282.68" y="314.33" width="13.636" height="5.0991"/>
   <rect x="255.69" y="242.64" width="5.5375" height="9.8859"/>
   <rect x="307.23" y="169.29" width="5.7828" height="13.607"/>
   <rect x="306.55" y="151.46" width="7.3082" height="14.288"/>
  </g>
  <g fill="#be9b4b">
   <circle cx="360.75" cy="145.08" r="6" stroke="#654b37" stroke-width="2"/>
   <circle cx="71.99" cy="196.77" r="6" stroke="#654b37" stroke-width="2"/>
   <rect x="53.981" y="176.63" width="7.7825" height="7.4239"/>
   <circle cx="44.941" cy="180.36" r="4"/>
  </g>
 </g>
</svg>
