<?xml version="1.0" encoding="UTF-8" standalone="no"?>
<!DOCTYPE svg PUBLIC "-//W3C//DTD SVG 1.1//EN" "http://www.w3.org/Graphics/SVG/1.1/DTD/svg11.dtd">
<svg width="100%" height="100%" viewBox="0 0 2000 2000" version="1.1" xmlns="http://www.w3.org/2000/svg" xmlns:xlink="http://www.w3.org/1999/xlink" xml:space="preserve" xmlns:serif="http://www.serif.com/" style="fill-rule:evenodd;clip-rule:evenodd;stroke-linecap:round;stroke-linejoin:round;stroke-miterlimit:1.5;">
    <g transform="matrix(2.63994,0,0,2.37554,-285.418,-299.559)">
        <path d="M810.165,282.348C810.165,262.286 795.508,245.997 777.455,245.997L196.369,245.997C178.316,245.997 163.659,262.286 163.659,282.348L163.659,815.492C163.659,835.554 178.316,851.842 196.369,851.842L777.455,851.842C795.508,851.842 810.165,835.554 810.165,815.492L810.165,282.348Z" style="fill:rgb(215,215,215);"/>
        <clipPath id="_clip1">
            <path d="M810.165,282.348C810.165,262.286 795.508,245.997 777.455,245.997L196.369,245.997C178.316,245.997 163.659,262.286 163.659,282.348L163.659,815.492C163.659,835.554 178.316,851.842 196.369,851.842L777.455,851.842C795.508,851.842 810.165,835.554 810.165,815.492L810.165,282.348Z"/>
        </clipPath>
        <g clip-path="url(#_clip1)">
            <g transform="matrix(0.378797,0,0,0.42749,109.078,99.5001)">
                <rect x="708.5" y="305.648" width="566.709" height="1473.95" style="fill:rgb(190,190,190);stroke:black;stroke-width:4.23px;"/>
            </g>
            <g transform="matrix(0.376524,0,0,0.462011,110.886,82.2353)">
                <path d="M1218.65,951.022C1218.65,940.466 1209.19,931.895 1197.53,931.895L795.756,931.895C784.1,931.895 774.637,940.466 774.637,951.022L774.637,1049.39C774.637,1059.94 784.1,1068.52 795.756,1068.52L1197.53,1068.52C1209.19,1068.52 1218.65,1059.94 1218.65,1049.39L1218.65,951.022Z" style="fill:rgb(215,215,215);stroke:black;stroke-width:4.07px;"/>
            </g>
            <g transform="matrix(0.378797,0,0,0.420957,108.115,126.101)">
                <g transform="matrix(0.872549,0,0,0.717949,102.742,111.791)">
                    <path d="M868.853,447.131C868.853,439.961 864.064,434.14 858.164,434.14L811.591,434.14C805.692,434.14 800.902,439.961 800.902,447.131L800.902,473.112C800.902,480.282 805.692,486.103 811.591,486.103L858.164,486.103C864.064,486.103 868.853,480.282 868.853,473.112L868.853,447.131Z" style="fill:rgb(146,230,26);"/>
                </g>
                <g transform="matrix(0.872549,0,0,0.717949,213.329,111.791)">
                    <path d="M868.853,447.131C868.853,439.961 864.064,434.14 858.164,434.14L811.591,434.14C805.692,434.14 800.902,439.961 800.902,447.131L800.902,473.112C800.902,480.282 805.692,486.103 811.591,486.103L858.164,486.103C864.064,486.103 868.853,480.282 868.853,473.112L868.853,447.131Z" style="fill:rgb(146,230,26);"/>
                </g>
                <g transform="matrix(0.872549,0,0,0.717949,323.916,111.791)">
                    <path d="M868.853,447.131C868.853,439.961 864.064,434.14 858.164,434.14L811.591,434.14C805.692,434.14 800.902,439.961 800.902,447.131L800.902,473.112C800.902,480.282 805.692,486.103 811.591,486.103L858.164,486.103C864.064,486.103 868.853,480.282 868.853,473.112L868.853,447.131Z" style="fill:rgb(146,230,26);"/>
                </g>
                <g transform="matrix(0.872549,0,0,0.717949,434.502,111.791)">
                    <path d="M868.853,447.131C868.853,439.961 864.064,434.14 858.164,434.14L811.591,434.14C805.692,434.14 800.902,439.961 800.902,447.131L800.902,473.112C800.902,480.282 805.692,486.103 811.591,486.103L858.164,486.103C864.064,486.103 868.853,480.282 868.853,473.112L868.853,447.131Z" style="fill:rgb(146,230,26);"/>
                </g>
            </g>
        </g>
        <path d="M810.165,282.348C810.165,262.286 795.508,245.997 777.455,245.997L196.369,245.997C178.316,245.997 163.659,262.286 163.659,282.348L163.659,815.492C163.659,835.554 178.316,851.842 196.369,851.842L777.455,851.842C795.508,851.842 810.165,835.554 810.165,815.492L810.165,282.348Z" style="fill:none;stroke:black;stroke-width:2.12px;"/>
    </g>
</svg>
