<?xml version="1.0" encoding="UTF-8" standalone="no"?>
<svg
   width="100%"
   height="100%"
   viewBox="0 0 1280 1150"
   version="1.1"
   xml:space="preserve"
   style="fill-rule:evenodd;clip-rule:evenodd;stroke-linecap:round;stroke-linejoin:round;stroke-miterlimit:1.41421;"
   id="svg1908"
   sodipodi:docname="tp-link-tl-wr840n-v2.svg"
   inkscape:version="1.2 (1:1.2+202206011327+fc4e4096c5)"
   xmlns:inkscape="http://www.inkscape.org/namespaces/inkscape"
   xmlns:sodipodi="http://sodipodi.sourceforge.net/DTD/sodipodi-0.dtd"
   xmlns="http://www.w3.org/2000/svg"
   xmlns:svg="http://www.w3.org/2000/svg"><defs
   id="defs1912">
        
        
        
        
        
        
        
        
        
    
            
            
            
        </defs><sodipodi:namedview
   id="namedview1910"
   pagecolor="#ffffff"
   bordercolor="#666666"
   borderopacity="1.0"
   inkscape:showpageshadow="2"
   inkscape:pageopacity="0.0"
   inkscape:pagecheckerboard="0"
   inkscape:deskcolor="#d1d1d1"
   showgrid="false"
   inkscape:zoom="0.41043478"
   inkscape:cx="590.83686"
   inkscape:cy="483.63347"
   inkscape:window-width="1920"
   inkscape:window-height="1021"
   inkscape:window-x="0"
   inkscape:window-y="0"
   inkscape:window-maximized="1"
   inkscape:current-layer="svg1908" />
    
    
    
    
    <g
   id="g11708"
   transform="translate(-3.5155157,-18.986853)"><path
     style="clip-rule:evenodd;fill:#a9a9a9;fill-opacity:1;fill-rule:evenodd;stroke:#0d0d0d;stroke-width:1.24448px;stroke-linecap:butt;stroke-linejoin:miter;stroke-miterlimit:1.41421;stroke-opacity:1"
     d="m 865.00645,871.20255 64.93819,3.63054 21.63101,-153.32418 12.69098,-145.88974 72.05277,-459.02427 c 1.6358,-42.776572 -43.92017,-39.778041 -47.41129,-9.54757 l -66.12213,435.05518 -33.57391,179.63884 z"
     id="path1268"
     sodipodi:nodetypes="ccccccccc" /><path
     style="clip-rule:evenodd;fill:#cecece;fill-opacity:1;fill-rule:evenodd;stroke:none;stroke-width:1.24448px;stroke-linecap:butt;stroke-linejoin:miter;stroke-miterlimit:1.41421;stroke-opacity:1"
     d="m 868.95878,870.50777 58.57897,3.70432 8.15575,-185.03933 85.3047,-553.66252 c 13.7492,-2.80138 23.153,-46.493151 -5.6296,-49.700963 -30.67252,0.174248 -28.49238,32.971033 -7.1999,50.510383 l -83.19082,555.62131 z"
     id="path1170"
     sodipodi:nodetypes="cccccccc" /><path
     style="clip-rule:evenodd;fill:#a9a9a9;fill-opacity:1;fill-rule:evenodd;stroke:#0d0d0d;stroke-width:1.24448px;stroke-linecap:butt;stroke-linejoin:miter;stroke-miterlimit:1.41421;stroke-opacity:1"
     d="M 426.1422,863.40739 361.24438,867.69964 338.05172,714.60389 323.87439,568.85108 247.14672,110.58505 c -2.07181,-42.757675 43.51241,-40.223638 47.31147,-10.03032 l 70.55307,434.35864 35.40316,179.2873 z"
     id="path2516"
     sodipodi:nodetypes="ccccccccc" /><path
     style="clip-rule:evenodd;fill:#cecece;fill-opacity:1;fill-rule:evenodd;stroke:none;stroke-width:1.24448px;stroke-linecap:butt;stroke-linejoin:miter;stroke-miterlimit:1.41421;stroke-opacity:1"
     d="m 422.18299,862.75293 -58.53817,4.30121 -10.04137,-184.94659 -90.94358,-552.7643 c -13.77705,-2.66109 -23.62563,-46.254751 5.12273,-49.755767 30.67271,-0.138396 28.82696,32.678907 7.71441,50.434377 l 88.84972,554.74453 z"
     id="path2518"
     sodipodi:nodetypes="cccccccc" /><g
     id="Frontgruppe"
     transform="matrix(0.76860984,0,0,0.76860984,150.41467,274.73371)">
        <path
   id="fill gesammt"
   d="m 215.161,1081.35 c 13.903,-7.5 28.802,-12.99 44.922,-13.99 250.503,-15.53 503.042,-13.83 757.017,0 26.83,1.46 27.54,2.45 55.51,13.99 7.9,3.27 15.61,4.36 24.47,4.36 V 929.421 H 191.996 v 156.289 c 8.132,0.54 15.836,-1 23.165,-4.36 z"
   style="fill:#767a7b;stroke:#000000;stroke-width:3px" />
        <g
   id="Lüfungs schlitze"
   transform="translate(0,9.61194)">
            <g
   transform="matrix(0.889865,0,0,1,62.9319,-0.43865)"
   id="g1459">
                <rect
   x="564.04797"
   y="947.84198"
   width="9.5410004"
   height="37.146"
   style="fill:#000000"
   id="rect1455" />
                <path
   d="M 575.836,986.988 H 561.8 v -41.146 h 14.036 z m -11.788,-39.146 v 37.146 h 9.541 v -37.146 z"
   style="fill:#333333"
   id="path1457" />
            </g>
            <g
   transform="matrix(0.889865,0,0,1,124.406,-0.43865)"
   id="g1465">
                <rect
   x="564.04797"
   y="947.84198"
   width="9.5410004"
   height="37.146"
   style="fill:#000000"
   id="rect1461" />
                <path
   d="M 575.836,986.988 H 561.8 v -41.146 h 14.036 z m -11.788,-39.146 v 37.146 h 9.541 v -37.146 z"
   style="fill:#333333"
   id="path1463" />
            </g>
            <g
   transform="matrix(0.889865,0,0,1,184.303,-0.43865)"
   id="g1471">
                <rect
   x="564.04797"
   y="947.84198"
   width="9.5410004"
   height="37.146"
   style="fill:#000000"
   id="rect1467" />
                <path
   d="M 575.836,986.988 H 561.8 v -41.146 h 14.036 z m -11.788,-39.146 v 37.146 h 9.541 v -37.146 z"
   style="fill:#333333"
   id="path1469" />
            </g>
            <g
   transform="matrix(0.889865,0,0,1,77.777,-0.43865)"
   id="g1477">
                <rect
   x="564.04797"
   y="947.84198"
   width="9.5410004"
   height="37.146"
   style="fill:#000000"
   id="rect1473" />
                <path
   d="M 575.836,986.988 H 561.8 v -41.146 h 14.036 z m -11.788,-39.146 v 37.146 h 9.541 v -37.146 z"
   style="fill:#333333"
   id="path1475" />
            </g>
            <g
   transform="matrix(0.889865,0,0,1,139.251,-0.43865)"
   id="g1483">
                <rect
   x="564.04797"
   y="947.84198"
   width="9.5410004"
   height="37.146"
   style="fill:#000000"
   id="rect1479" />
                <path
   d="M 575.836,986.988 H 561.8 v -41.146 h 14.036 z m -11.788,-39.146 v 37.146 h 9.541 v -37.146 z"
   style="fill:#333333"
   id="path1481" />
            </g>
            <g
   transform="matrix(0.889865,0,0,1,199.148,-0.43865)"
   id="g1489">
                <rect
   x="564.04797"
   y="947.84198"
   width="9.5410004"
   height="37.146"
   style="fill:#000000"
   id="rect1485" />
                <path
   d="M 575.836,986.988 H 561.8 v -41.146 h 14.036 z m -11.788,-39.146 v 37.146 h 9.541 v -37.146 z"
   style="fill:#333333"
   id="path1487" />
            </g>
            <g
   transform="matrix(0.889865,0,0,1,92.8182,-0.43865)"
   id="g1495">
                <rect
   x="564.04797"
   y="947.84198"
   width="9.5410004"
   height="37.146"
   style="fill:#000000"
   id="rect1491" />
                <path
   d="M 575.836,986.988 H 561.8 v -41.146 h 14.036 z m -11.788,-39.146 v 37.146 h 9.541 v -37.146 z"
   style="fill:#333333"
   id="path1493" />
            </g>
            <g
   transform="matrix(0.889865,0,0,1,154.292,-0.43865)"
   id="g1501">
                <rect
   x="564.04797"
   y="947.84198"
   width="9.5410004"
   height="37.146"
   style="fill:#000000"
   id="rect1497" />
                <path
   d="M 575.836,986.988 H 561.8 v -41.146 h 14.036 z m -11.788,-39.146 v 37.146 h 9.541 v -37.146 z"
   style="fill:#333333"
   id="path1499" />
            </g>
            <g
   transform="matrix(0.889865,0,0,1,214.189,-0.43865)"
   id="g1507">
                <rect
   x="564.04797"
   y="947.84198"
   width="9.5410004"
   height="37.146"
   style="fill:#000000"
   id="rect1503" />
                <path
   d="M 575.836,986.988 H 561.8 v -41.146 h 14.036 z m -11.788,-39.146 v 37.146 h 9.541 v -37.146 z"
   style="fill:#333333"
   id="path1505" />
            </g>
            <g
   transform="matrix(0.889865,0,0,1,108.309,-0.43865)"
   id="g1513">
                <rect
   x="564.04797"
   y="947.84198"
   width="9.5410004"
   height="37.146"
   style="fill:#000000"
   id="rect1509" />
                <path
   d="M 575.836,986.988 H 561.8 v -41.146 h 14.036 z m -11.788,-39.146 v 37.146 h 9.541 v -37.146 z"
   style="fill:#333333"
   id="path1511" />
            </g>
            <g
   transform="matrix(0.889865,0,0,1,169.783,-0.43865)"
   id="g1519">
                <rect
   x="564.04797"
   y="947.84198"
   width="9.5410004"
   height="37.146"
   style="fill:#000000"
   id="rect1515" />
                <path
   d="M 575.836,986.988 H 561.8 v -41.146 h 14.036 z m -11.788,-39.146 v 37.146 h 9.541 v -37.146 z"
   style="fill:#333333"
   id="path1517" />
            </g>
            <g
   transform="matrix(0.889865,0,0,1,244.956,-0.43865)"
   id="g1525">
                <rect
   x="564.04797"
   y="947.84198"
   width="9.5410004"
   height="37.146"
   style="fill:#000000"
   id="rect1521" />
                <path
   d="M 575.836,986.988 H 561.8 v -41.146 h 14.036 z m -11.788,-39.146 v 37.146 h 9.541 v -37.146 z"
   style="fill:#333333"
   id="path1523" />
            </g>
            <g
   transform="matrix(0.889865,0,0,1,229.465,-0.43865)"
   id="g1531">
                <rect
   x="564.04797"
   y="947.84198"
   width="9.5410004"
   height="37.146"
   style="fill:#000000"
   id="rect1527" />
                <path
   d="M 575.836,986.988 H 561.8 v -41.146 h 14.036 z m -11.788,-39.146 v 37.146 h 9.541 v -37.146 z"
   style="fill:#333333"
   id="path1529" />
            </g>
            <g
   transform="matrix(0.889865,0,0,1,260.103,1.174)"
   id="g1537">
                <rect
   x="564.04797"
   y="947.84198"
   width="9.5410004"
   height="37.146"
   style="fill:#000000"
   id="rect1533" />
                <path
   d="M 575.836,986.988 H 561.8 v -41.146 h 14.036 z m -11.788,-39.146 v 37.146 h 9.541 v -37.146 z"
   style="fill:#333333"
   id="path1535" />
            </g>
            <g
   transform="matrix(0.889865,0,0,1,275.045,1.174)"
   id="g1543">
                <rect
   x="564.04797"
   y="947.84198"
   width="9.5410004"
   height="37.146"
   style="fill:#000000"
   id="rect1539" />
                <path
   d="M 575.836,986.988 H 561.8 v -41.146 h 14.036 z m -11.788,-39.146 v 37.146 h 9.541 v -37.146 z"
   style="fill:#333333"
   id="path1541" />
            </g>
            <g
   transform="matrix(0.889865,0,0,1,290.417,1.174)"
   id="g1549">
                <rect
   x="564.04797"
   y="947.84198"
   width="9.5410004"
   height="37.146"
   style="fill:#000000"
   id="rect1545" />
                <path
   d="M 575.836,986.988 H 561.8 v -41.146 h 14.036 z m -11.788,-39.146 v 37.146 h 9.541 v -37.146 z"
   style="fill:#333333"
   id="path1547" />
            </g>
            <g
   transform="matrix(0.889865,0,0,1,306.668,3.04886)"
   id="g1555">
                <rect
   x="564.04797"
   y="947.84198"
   width="9.5410004"
   height="37.146"
   style="fill:#000000"
   id="rect1551" />
                <path
   d="M 575.836,986.988 H 561.8 v -41.146 h 14.036 z m -11.788,-39.146 v 37.146 h 9.541 v -37.146 z"
   style="fill:#333333"
   id="path1553" />
            </g>
            <g
   transform="matrix(0.889865,0,0,1,321.208,4.91386)"
   id="g1561">
                <rect
   x="564.04797"
   y="947.84198"
   width="9.5410004"
   height="37.146"
   style="fill:#000000"
   id="rect1557" />
                <path
   d="M 575.836,986.988 H 561.8 v -41.146 h 14.036 z m -11.788,-39.146 v 37.146 h 9.541 v -37.146 z"
   style="fill:#333333"
   id="path1559" />
            </g>
            <g
   transform="matrix(0.889865,0,0,1,336.12,4.91386)"
   id="g1567">
                <rect
   x="564.04797"
   y="947.84198"
   width="9.5410004"
   height="37.146"
   style="fill:#000000"
   id="rect1563" />
                <path
   d="M 575.836,986.988 H 561.8 v -41.146 h 14.036 z m -11.788,-39.146 v 37.146 h 9.541 v -37.146 z"
   style="fill:#333333"
   id="path1565" />
            </g>
            <g
   transform="matrix(0.889865,0,0,1,350.776,7.30426)"
   id="g1573">
                <rect
   x="564.04797"
   y="947.84198"
   width="9.5410004"
   height="37.146"
   style="fill:#000000"
   id="rect1569" />
                <path
   d="M 575.836,986.988 H 561.8 v -41.146 h 14.036 z m -11.788,-39.146 v 37.146 h 9.541 v -37.146 z"
   style="fill:#333333"
   id="path1571" />
            </g>
            <g
   transform="matrix(0.889865,0,0,1,365.859,9.7607)"
   id="g1579">
                <rect
   x="564.04797"
   y="947.84198"
   width="9.5410004"
   height="37.146"
   style="fill:#000000"
   id="rect1575" />
                <path
   d="M 575.836,986.988 H 561.8 v -41.146 h 14.036 z m -11.788,-39.146 v 37.146 h 9.541 v -37.146 z"
   style="fill:#333333"
   id="path1577" />
            </g>
            <g
   transform="matrix(0.889865,0,0,1,381.264,13.4237)"
   id="g1585">
                <rect
   x="564.04797"
   y="947.84198"
   width="9.5410004"
   height="37.146"
   style="fill:#000000"
   id="rect1581" />
                <path
   d="M 575.836,986.988 H 561.8 v -41.146 h 14.036 z m -11.788,-39.146 v 37.146 h 9.541 v -37.146 z"
   style="fill:#333333"
   id="path1583" />
            </g>
            <g
   transform="matrix(0.889865,0,0,1,396.404,16.3395)"
   id="g1591">
                <rect
   x="564.04797"
   y="947.84198"
   width="9.5410004"
   height="37.146"
   style="fill:#000000"
   id="rect1587" />
                <path
   d="M 575.836,986.988 H 561.8 v -41.146 h 14.036 z m -11.788,-39.146 v 37.146 h 9.541 v -37.146 z"
   style="fill:#333333"
   id="path1589" />
            </g>
            <g
   transform="matrix(0.889865,0,0,1,410.59,20.5456)"
   id="g1597">
                <rect
   x="564.04797"
   y="947.84198"
   width="9.5410004"
   height="37.146"
   style="fill:#000000"
   id="rect1593" />
                <path
   d="M 575.836,986.988 H 561.8 v -41.146 h 14.036 z m -11.788,-39.146 v 37.146 h 9.541 v -37.146 z"
   style="fill:#333333"
   id="path1595" />
            </g>
            <g
   transform="matrix(0.889865,0,0,1,425.937,24.801)"
   id="g1603">
                <rect
   x="564.04797"
   y="947.84198"
   width="9.5410004"
   height="37.146"
   style="fill:#000000"
   id="rect1599" />
                <path
   d="M 575.836,986.988 H 561.8 v -41.146 h 14.036 z m -11.788,-39.146 v 37.146 h 9.541 v -37.146 z"
   style="fill:#333333"
   id="path1601" />
            </g>
            <g
   transform="matrix(0.889865,0,0,1,440.923,29.2032)"
   id="g1609">
                <rect
   x="564.04797"
   y="947.84198"
   width="9.5410004"
   height="37.146"
   style="fill:#000000"
   id="rect1605" />
                <path
   d="M 575.836,986.988 H 561.8 v -41.146 h 14.036 z m -11.788,-39.146 v 37.146 h 9.541 v -37.146 z"
   style="fill:#333333"
   id="path1607" />
            </g>
            <g
   transform="matrix(0.889865,0,0,1,456.29,33.3463)"
   id="g1615">
                <rect
   x="564.04797"
   y="947.84198"
   width="9.5410004"
   height="37.146"
   style="fill:#000000"
   id="rect1611" />
                <path
   d="M 575.836,986.988 H 561.8 v -41.146 h 14.036 z m -11.788,-39.146 v 37.146 h 9.541 v -37.146 z"
   style="fill:#333333"
   id="path1613" />
            </g>
            <g
   transform="matrix(0.889865,0,0,1,471.245,38.8673)"
   id="g1621">
                <rect
   x="564.04797"
   y="947.84198"
   width="9.5410004"
   height="37.146"
   style="fill:#000000"
   id="rect1617" />
                <path
   d="M 575.836,986.988 H 561.8 v -41.146 h 14.036 z m -11.788,-39.146 v 37.146 h 9.541 v -37.146 z"
   style="fill:#333333"
   id="path1619" />
            </g>
            <g
   transform="matrix(0.889865,0,0,1,486.231,43.2489)"
   id="g1627">
                <rect
   x="564.04797"
   y="947.84198"
   width="9.5410004"
   height="37.146"
   style="fill:#000000"
   id="rect1623" />
                <path
   d="M 575.836,986.988 H 561.8 v -41.146 h 14.036 z m -11.788,-39.146 v 37.146 h 9.541 v -37.146 z"
   style="fill:#333333"
   id="path1625" />
            </g>
            <g
   transform="matrix(0.889865,0,0,1,501.237,52.1983)"
   id="g1633">
                <rect
   x="564.04797"
   y="947.84198"
   width="9.5410004"
   height="37.146"
   style="fill:#000000"
   id="rect1629" />
                <path
   d="M 575.836,986.988 H 561.8 v -41.146 h 14.036 z m -11.788,-39.146 v 37.146 h 9.541 v -37.146 z"
   style="fill:#333333"
   id="path1631" />
            </g>
            <g
   transform="matrix(0.889865,0,0,1,516.619,61.3154)"
   id="g1639">
                <rect
   x="564.04797"
   y="947.84198"
   width="9.5410004"
   height="37.146"
   style="fill:#000000"
   id="rect1635" />
                <path
   d="M 575.836,986.988 H 561.8 v -41.146 h 14.036 z m -11.788,-39.146 v 37.146 h 9.541 v -37.146 z"
   style="fill:#333333"
   id="path1637" />
            </g>
            <g
   transform="matrix(0.889865,0,0,1,532.25,65.8507)"
   id="g1645">
                <rect
   x="564.04797"
   y="947.84198"
   width="9.5410004"
   height="37.146"
   style="fill:#000000"
   id="rect1641" />
                <path
   d="m 575.836,986.988 h -14.035 v -41.146 h 14.035 z m -11.788,-39.146 v 37.146 h 9.541 v -37.146 z"
   style="fill:#333333"
   id="path1643" />
            </g>
            <g
   transform="matrix(0.889865,0,0,1,547.673,71.5364)"
   id="g1651">
                <rect
   x="564.04797"
   y="947.84198"
   width="9.5410004"
   height="37.146"
   style="fill:#000000"
   id="rect1647" />
                <path
   d="m 575.836,986.988 h -14.035 v -41.146 h 14.035 z m -11.788,-39.146 v 37.146 h 9.541 v -37.146 z"
   style="fill:#333333"
   id="path1649" />
            </g>
            <g
   transform="matrix(-0.889865,0,0,1,1044.11,-0.43865)"
   id="g1657">
                <rect
   x="564.04797"
   y="947.84198"
   width="9.5410004"
   height="37.146"
   style="fill:#000000"
   id="rect1653" />
                <path
   d="m 561.8,986.988 h 14.036 V 945.842 H 561.8 Z m 11.789,-39.146 v 37.146 h -9.541 v -37.146 z"
   style="fill:#333333"
   id="path1655" />
            </g>
            <g
   transform="matrix(-0.889865,0,0,1,1058.72,-0.43865)"
   id="g1663">
                <rect
   x="564.04797"
   y="947.84198"
   width="9.5410004"
   height="37.146"
   style="fill:#000000"
   id="rect1659" />
                <path
   d="m 561.8,986.988 h 14.036 V 945.842 H 561.8 Z m 11.789,-39.146 v 37.146 h -9.541 v -37.146 z"
   style="fill:#333333"
   id="path1661" />
            </g>
            <g
   transform="matrix(-0.889865,0,0,1,1013.47,3.05449)"
   id="g1669">
                <rect
   x="564.04797"
   y="947.84198"
   width="9.5410004"
   height="37.146"
   style="fill:#000000"
   id="rect1665" />
                <path
   d="m 561.8,986.988 h 14.036 V 945.842 H 561.8 Z m 11.789,-39.146 v 37.146 h -9.541 v -37.146 z"
   style="fill:#333333"
   id="path1667" />
            </g>
            <g
   transform="matrix(-0.889865,0,0,1,1028.67,3.05449)"
   id="g1675">
                <rect
   x="564.04797"
   y="947.84198"
   width="9.5410004"
   height="37.146"
   style="fill:#000000"
   id="rect1671" />
                <path
   d="m 561.8,986.988 h 14.036 V 945.842 H 561.8 Z m 11.789,-39.146 v 37.146 h -9.541 v -37.146 z"
   style="fill:#333333"
   id="path1673" />
            </g>
            <g
   transform="matrix(-0.889865,0,0,1,998.525,3.05449)"
   id="g1681">
                <rect
   x="564.04797"
   y="947.84198"
   width="9.5410004"
   height="37.146"
   style="fill:#000000"
   id="rect1677" />
                <path
   d="m 561.8,986.988 h 14.036 V 945.842 H 561.8 Z m 11.789,-39.146 v 37.146 h -9.541 v -37.146 z"
   style="fill:#333333"
   id="path1679" />
            </g>
            <g
   transform="matrix(-0.889865,0,0,1,983.154,3.05449)"
   id="g1687">
                <rect
   x="564.04797"
   y="947.84198"
   width="9.5410004"
   height="37.146"
   style="fill:#000000"
   id="rect1683" />
                <path
   d="m 561.8,986.988 h 14.036 V 945.842 H 561.8 Z m 11.789,-39.146 v 37.146 h -9.541 v -37.146 z"
   style="fill:#333333"
   id="path1685" />
            </g>
            <g
   transform="matrix(-0.889865,0,0,1,966.902,4.92935)"
   id="g1693">
                <rect
   x="564.04797"
   y="947.84198"
   width="9.5410004"
   height="37.146"
   style="fill:#000000"
   id="rect1689" />
                <path
   d="m 561.8,986.988 h 14.036 V 945.842 H 561.8 Z m 11.789,-39.146 v 37.146 h -9.541 v -37.146 z"
   style="fill:#333333"
   id="path1691" />
            </g>
            <g
   transform="matrix(-0.889865,0,0,1,952.363,6.79435)"
   id="g1699">
                <rect
   x="564.04797"
   y="947.84198"
   width="9.5410004"
   height="37.146"
   style="fill:#000000"
   id="rect1695" />
                <path
   d="m 561.8,986.988 h 14.036 V 945.842 H 561.8 Z m 11.789,-39.146 v 37.146 h -9.541 v -37.146 z"
   style="fill:#333333"
   id="path1697" />
            </g>
            <g
   transform="matrix(-0.889865,0,0,1,937.45,6.79435)"
   id="g1705">
                <rect
   x="564.04797"
   y="947.84198"
   width="9.5410004"
   height="37.146"
   style="fill:#000000"
   id="rect1701" />
                <path
   d="m 561.8,986.988 h 14.036 V 945.842 H 561.8 Z m 11.789,-39.146 v 37.146 h -9.541 v -37.146 z"
   style="fill:#333333"
   id="path1703" />
            </g>
            <g
   transform="matrix(-0.889865,0,0,1,922.795,9.18475)"
   id="g1711">
                <rect
   x="564.04797"
   y="947.84198"
   width="9.5410004"
   height="37.146"
   style="fill:#000000"
   id="rect1707" />
                <path
   d="m 561.8,986.988 h 14.036 V 945.842 H 561.8 Z m 11.789,-39.146 v 37.146 h -9.541 v -37.146 z"
   style="fill:#333333"
   id="path1709" />
            </g>
            <g
   transform="matrix(-0.889865,0,0,1,907.711,11.6412)"
   id="g1717">
                <rect
   x="564.04797"
   y="947.84198"
   width="9.5410004"
   height="37.146"
   style="fill:#000000"
   id="rect1713" />
                <path
   d="m 561.8,986.988 h 14.036 V 945.842 H 561.8 Z m 11.789,-39.146 v 37.146 h -9.541 v -37.146 z"
   style="fill:#333333"
   id="path1715" />
            </g>
            <g
   transform="matrix(-0.889865,0,0,1,892.306,15.3042)"
   id="g1723">
                <rect
   x="564.04797"
   y="947.84198"
   width="9.5410004"
   height="37.146"
   style="fill:#000000"
   id="rect1719" />
                <path
   d="m 561.8,986.988 h 14.036 V 945.842 H 561.8 Z m 11.789,-39.146 v 37.146 h -9.541 v -37.146 z"
   style="fill:#333333"
   id="path1721" />
            </g>
            <g
   transform="matrix(-0.889865,0,0,1,877.166,18.2199)"
   id="g1729">
                <rect
   x="564.04797"
   y="947.84198"
   width="9.5410004"
   height="37.146"
   style="fill:#000000"
   id="rect1725" />
                <path
   d="m 561.8,986.988 h 14.036 V 945.842 H 561.8 Z m 11.789,-39.146 v 37.146 h -9.541 v -37.146 z"
   style="fill:#333333"
   id="path1727" />
            </g>
            <g
   transform="matrix(-0.889865,0,0,1,862.98,22.4261)"
   id="g1735">
                <rect
   x="564.04797"
   y="947.84198"
   width="9.5410004"
   height="37.146"
   style="fill:#000000"
   id="rect1731" />
                <path
   d="m 561.8,986.988 h 14.036 V 945.842 H 561.8 Z m 11.789,-39.146 v 37.146 h -9.541 v -37.146 z"
   style="fill:#333333"
   id="path1733" />
            </g>
            <g
   transform="matrix(-0.889865,0,0,1,847.634,26.6815)"
   id="g1741">
                <rect
   x="564.04797"
   y="947.84198"
   width="9.5410004"
   height="37.146"
   style="fill:#000000"
   id="rect1737" />
                <path
   d="m 561.8,986.988 h 14.036 V 945.842 H 561.8 Z m 11.789,-39.146 v 37.146 h -9.541 v -37.146 z"
   style="fill:#333333"
   id="path1739" />
            </g>
            <g
   transform="matrix(-0.889865,0,0,1,832.648,31.0837)"
   id="g1747">
                <rect
   x="564.04797"
   y="947.84198"
   width="9.5410004"
   height="37.146"
   style="fill:#000000"
   id="rect1743" />
                <path
   d="m 561.8,986.988 h 14.036 V 945.842 H 561.8 Z m 11.789,-39.146 v 37.146 h -9.541 v -37.146 z"
   style="fill:#333333"
   id="path1745" />
            </g>
            <g
   transform="matrix(-0.889865,0,0,1,817.28,39.0514)"
   id="g1753">
                <rect
   x="564.04797"
   y="947.84198"
   width="9.5410004"
   height="37.146"
   style="fill:#000000"
   id="rect1749" />
                <path
   d="m 561.8,986.988 h 14.036 V 945.842 H 561.8 Z m 11.789,-39.146 v 37.146 h -9.541 v -37.146 z"
   style="fill:#333333"
   id="path1751" />
            </g>
            <g
   transform="matrix(-0.889865,0,0,1,802.326,44.0061)"
   id="g1759">
                <rect
   x="564.04797"
   y="947.84198"
   width="9.5410004"
   height="37.146"
   style="fill:#000000"
   id="rect1755" />
                <path
   d="m 561.8,986.988 h 14.036 V 945.842 H 561.8 Z m 11.789,-39.146 v 37.146 h -9.541 v -37.146 z"
   style="fill:#333333"
   id="path1757" />
            </g>
            <g
   transform="matrix(-0.889865,0,0,1,787.34,49.7686)"
   id="g1765">
                <rect
   x="564.04797"
   y="947.84198"
   width="9.5410004"
   height="37.146"
   style="fill:#000000"
   id="rect1761" />
                <path
   d="m 561.8,986.988 h 14.036 V 945.842 H 561.8 Z m 11.789,-39.146 v 37.146 h -9.541 v -37.146 z"
   style="fill:#333333"
   id="path1763" />
            </g>
            <g
   transform="matrix(-0.889865,0,0,1,772.333,54.0788)"
   id="g1771">
                <rect
   x="564.04797"
   y="947.84198"
   width="9.5410004"
   height="37.146"
   style="fill:#000000"
   id="rect1767" />
                <path
   d="m 561.8,986.988 h 14.036 V 945.842 H 561.8 Z m 11.789,-39.146 v 37.146 h -9.541 v -37.146 z"
   style="fill:#333333"
   id="path1769" />
            </g>
            <g
   transform="matrix(-0.889865,0,0,1,756.951,63.1959)"
   id="g1777">
                <rect
   x="564.04797"
   y="947.84198"
   width="9.5410004"
   height="37.146"
   style="fill:#000000"
   id="rect1773" />
                <path
   d="m 561.8,986.988 h 14.036 V 945.842 H 561.8 Z m 11.789,-39.146 v 37.146 h -9.541 v -37.146 z"
   style="fill:#333333"
   id="path1775" />
            </g>
            <g
   transform="matrix(-0.889865,0,0,1,741.321,67.7312)"
   id="g1783">
                <rect
   x="564.04797"
   y="947.84198"
   width="9.5410004"
   height="37.146"
   style="fill:#000000"
   id="rect1779" />
                <path
   d="m 561.8,986.988 h 14.036 V 945.842 H 561.8 Z m 11.789,-39.146 v 37.146 h -9.541 v -37.146 z"
   style="fill:#333333"
   id="path1781" />
            </g>
            <g
   transform="matrix(-0.889865,0,0,1,725.897,73.4169)"
   id="g1789">
                <rect
   x="564.04797"
   y="947.84198"
   width="9.5410004"
   height="37.146"
   style="fill:#000000"
   id="rect1785" />
                <path
   d="m 561.8,986.988 h 14.036 V 945.842 H 561.8 Z m 11.789,-39.146 v 37.146 h -9.541 v -37.146 z"
   style="fill:#333333"
   id="path1787" />
            </g>
        </g>
        <path
   id="filler"
   d="m 215.161,1081.35 c 13.903,-7.5 28.802,-12.99 44.922,-13.99 250.503,-15.53 503.042,-13.83 757.017,0 26.83,1.46 27.54,2.45 55.51,13.99 7.9,3.27 15.61,4.36 24.47,4.36 -90.49,-62.25 -184.498,-92.223 -280.817,-96.072 -129.141,-5.161 -303.409,-6.64 -367.551,0 -98.109,10.156 -182.428,44.032 -256.716,96.072 8.132,0.54 15.836,-1 23.165,-4.36 z"
   style="fill:#767a7b;stroke:#343535;stroke-width:3px" />
        <path
   id="oben rahmen"
   d="m 191.945,1085.78 h -16.874 c 75.048,-74.24 170.261,-105.333 273.641,-120.132 65.637,-9.396 262.234,-9.542 367.551,0 97.616,8.844 195.517,33.501 293.787,120.132 H 1097 c -76.87,-67.74 -172.057,-101.238 -280.737,-109.536 -107.015,-7.468 -289.225,-7.866 -367.551,0 -90.051,9.044 -186.013,45.336 -256.767,109.536 z"
   style="fill:#e7e8e9;stroke:#000000;stroke-width:3px" />
        <path
   id="unten linie"
   d="m 191.996,1085.71 c 8.132,0.54 15.836,-1 23.165,-4.36 13.903,-7.5 28.802,-12.99 44.922,-13.99 250.503,-15.53 503.042,-13.83 757.017,0 26.83,1.46 27.54,2.45 55.51,13.99 7.9,3.27 15.61,4.36 24.47,4.36"
   style="fill:none;stroke:#000000;stroke-width:3px" />
    </g><path
     d="m 196.56047,1080.8517 c 12.97874,14.9648 44.29037,23.8269 88.41549,28.4232 57.68263,-57.0616 130.86428,-80.96 210.32317,-92.3346 50.44924,-7.2219 201.55563,-7.3341 282.50331,0 75.02862,6.7976 150.27629,25.7492 225.80756,92.3346 32.5583,-3.8584 65.9929,-13.6121 86.8606,-28.4232 L 1023.3479,969.45942 964.85671,905.57331 H 322.43493 l -59.26059,63.88611 -66.61387,111.39228"
     style="fill:#ffffff;stroke:#000000;stroke-width:2.30583px"
     id="path1796" /><g
     id="Deckel"
     transform="matrix(0.76860984,0,0,0.76860984,150.41467,274.73371)">
        <path
   id="Deckel1"
   d="m 618.782,908.722 c 172.743,-0.64 373.522,0.653 421.348,-43.671 28.29,-26.219 22.99,-51.931 0,-77.402 -24.49,-27.118 -76.59,-42.945 -128.169,-45.466 -182.232,-8.905 -364.477,-8.345 -546.732,0 -61.978,2.838 -104.676,18.874 -125.728,45.466 -21.688,27.465 -21.456,53.248 0,77.402 36.312,40.878 241.003,40.38 379.281,43.671"
   style="fill:#e8e8e8;stroke:#000000;stroke-width:3px" />
        <g
   transform="translate(0,2.14325)"
   id="g1801">
            <path
   d="m 618.782,902.818 c -149.88,-1.717 -269.313,-7.656 -336.509,-23.731 242.769,8.596 471.229,7.902 714.106,0 -49.562,15.868 -160.446,24.733 -377.597,23.731 z"
   style="fill:#767a7b;stroke:#000000;stroke-width:3px"
   id="path1799" />
        </g>
        <g
   id="links rechts">
            <path
   d="m 1059.35,820.401 c -4,-14.637 -12.77,-26.499 -23.56,-37.188 l 86.22,80.476 13.75,40.256 z"
   style="fill:#dddddb;stroke:#000000;stroke-width:3px"
   id="path1803" />
            <path
   d="m 1160.83,944.422 h 10.21 l -49.03,-80.733 13.75,40.256 z"
   style="fill:#e7e8e9;stroke:#000000;stroke-width:3px"
   id="path1805" />
            <g
   transform="matrix(-1,0,0,1,1282.52,0)"
   id="g1809">
                <path
   d="m 1160.83,944.422 h 10.21 l -49.03,-80.733 13.75,40.256 z"
   style="fill:#e7e8e9;stroke:#000000;stroke-width:3px"
   id="path1807" />
            </g>
            <g
   transform="matrix(-1,0,0,1,1282.51,0)"
   id="g1813">
                <path
   d="m 1058.78,820.884 c -2.26,-13.988 -7.21,-22.622 -19.67,-37.671 l 82.9,80.476 13.75,40.256 z"
   style="fill:#dddddb;stroke:#000000;stroke-width:3px"
   id="path1811" />
            </g>
        </g>
    </g><g
     transform="matrix(0.38385836,0,0,0.24677449,362.81254,718.23873)"
     id="g1823">
            <path
   d="m 532.5,1001.56 c 3.037,-3.06 6.083,-2.457 9.134,0"
   style="fill:none;stroke:#333333;stroke-width:3px"
   id="path1817" />
            <path
   d="m 529.218,994.65 c 5.176,-3.942 10.31,-3.82 15.405,0"
   style="fill:none;stroke:#333333;stroke-width:3px"
   id="path1819" />
            <path
   d="m 526.539,988.847 c 6.781,-4.897 13.694,-5.464 20.791,0"
   style="fill:none;stroke:#333333;stroke-width:3px"
   id="path1821" />
        </g><g
     transform="matrix(0.3562276,0,0,0.23142535,498.66433,734.66008)"
     id="g1829">
            <path
   d="m 626.349,996.053 h -3.276 V 985.75 h 18.143 v 10.303 h -3.033"
   style="fill:none;stroke:#333333;stroke-width:3px"
   id="path1825" />
            <path
   d="m 626.295,1003.22 h 11.042 -4.985 v -7.799"
   style="fill:none;stroke:#333333;stroke-width:3px"
   id="path1827" />
        </g><g
     transform="matrix(0.3562276,0,0,0.23142535,466.99991,734.66008)"
     id="g1835">
            <path
   d="m 626.349,996.053 h -3.276 V 985.75 h 18.143 v 10.303 h -3.033"
   style="fill:none;stroke:#333333;stroke-width:3px"
   id="path1831" />
            <path
   d="m 626.295,1003.22 h 11.042 -4.985 v -7.799"
   style="fill:none;stroke:#333333;stroke-width:3px"
   id="path1833" />
        </g><g
     transform="matrix(0.3562276,0,0,0.23142535,436.04953,734.66008)"
     id="g1841">
            <path
   d="m 626.349,996.053 h -3.276 V 985.75 h 18.143 v 10.303 h -3.033"
   style="fill:none;stroke:#333333;stroke-width:3px"
   id="path1837" />
            <path
   d="m 626.295,1003.22 h 11.042 -4.985 v -7.799"
   style="fill:none;stroke:#333333;stroke-width:3px"
   id="path1839" />
        </g><g
     transform="matrix(0.3562276,0,0,0.23142535,406.2805,734.66008)"
     id="g1847">
            <path
   d="m 626.349,996.053 h -3.276 V 985.75 h 18.143 v 10.303 h -3.033"
   style="fill:none;stroke:#333333;stroke-width:3px"
   id="path1843" />
            <path
   d="m 626.295,1003.22 h 11.042 -4.985 v -7.799"
   style="fill:none;stroke:#333333;stroke-width:3px"
   id="path1845" />
        </g><g
     id="USB"
     transform="matrix(0.63924512,0,0,0.63924512,260.96482,502.99185)">
            <g
   transform="translate(0,-175)"
   id="g1851">
                <ellipse
   cx="764.53601"
   cy="895.50403"
   rx="2.312"
   ry="1.381"
   style="fill:#333333;stroke:#333333;stroke-width:0.54px"
   id="ellipse1849" />
            </g>
            <g
   transform="translate(-1.00903,-175.976)"
   id="g1855">
                <path
   d="m 765.466,896.846 v 0.636 l -0.977,-0.978 0.977,-0.977 v 0.635 h 15.392 v -0.635 l 0.978,0.977 -0.978,0.978 v -0.636 z"
   style="fill:#333333;stroke:#333333;stroke-width:0.54px"
   id="path1853" />
            </g>
            <g
   transform="translate(0,-175)"
   id="g1859">
                <path
   d="m 772.025,895.465 c 0.056,1.765 2.322,2.3 5.706,2.211"
   style="fill:#333333;stroke:#333333;stroke-width:0.9px"
   id="path1857" />
            </g>
            <g
   transform="matrix(-0.0132607,0.933818,-0.825188,-0.0117181,1522.81,4.00262)"
   id="g1863">
                <path
   d="m 775.814,892.159 0.984,1.571 h -1.968 z"
   style="fill:#333333;stroke:#333333;stroke-width:0.61px"
   id="path1861" />
            </g>
            <g
   transform="matrix(-0.0132607,0.933818,-0.825188,-0.0117181,1525.23,8.7317)"
   id="g1867">
                <path
   d="m 775.814,892.159 0.984,1.571 h -1.968 z"
   style="fill:#333333;stroke:#333333;stroke-width:0.61px"
   id="path1865" />
            </g>
            <g
   transform="translate(0,-175)"
   id="g1871">
                <path
   d="m 769.886,895.341 c -0.217,-1.889 1.835,-2.542 5.441,-2.349"
   style="fill:#333333;stroke:#333333;stroke-width:0.9px"
   id="path1869" />
            </g>
        </g><g
     id="Lock"
     transform="matrix(0.63924512,0,0,0.63924512,268.46184,328.28837)">
            <g
   transform="translate(0,96.2592)"
   id="g1876">
                <rect
   x="803.71997"
   y="895.02197"
   width="12.343"
   height="4.4530001"
   style="fill:#333333;stroke:#414140;stroke-width:0.9px"
   id="rect1874" />
            </g>
            <g
   transform="translate(0,96.2592)"
   id="g1880">
                <path
   d="m 805.459,895.022 c 2.567,-3.503 5.334,-3.396 8.282,0"
   style="fill:none;stroke:#414140;stroke-width:0.9px"
   id="path1878" />
            </g>
        </g><g
     id="Inet"
     transform="matrix(0.52390214,0,0,0.52390214,215.52891,445.01254)">
            <g
   transform="matrix(1.27235,-0.227769,0.318368,1.77845,-475.111,-424.452)"
   id="g1885">
                <ellipse
   cx="729.34601"
   cy="889.27002"
   rx="6.3779998"
   ry="1.404"
   style="fill:none;stroke:#333333;stroke-width:0.7px"
   id="ellipse1883" />
            </g>
            <g
   transform="matrix(1.09502,0,0,1.09781,-70.6185,8.19739)"
   id="g1889">
                <ellipse
   cx="737.79602"
   cy="896.539"
   rx="5.4260001"
   ry="3.783"
   style="fill:none;stroke:#333333;stroke-width:1px"
   id="ellipse1887" />
            </g>
        </g><g
     transform="matrix(0.51033867,0,0,0.65616575,263.56859,373.87434)"
     id="g1894">
                <ellipse
   cx="476.58301"
   cy="896.646"
   rx="8.0699997"
   ry="3.3970001"
   style="fill:none;stroke:#333333;stroke-width:1.96px"
   id="ellipse1892" />
            </g><g
     transform="matrix(1.1668261,0,0,0.89035715,-48.681917,164.07566)"
     id="g1900">
                <path
   d="m 476.64,893.332 c 0,-0.191 -0.118,-0.346 -0.264,-0.346 h -0.529 c -0.145,0 -0.264,0.155 -0.264,0.346 v 3.401 c 0,0.191 0.119,0.347 0.264,0.347 h 0.529 c 0.146,0 0.264,-0.156 0.264,-0.347 z"
   style="fill:#333333"
   id="path1896" />
                <path
   d="m 476.405,892.598 0.028,0.003 0.028,0.005 0.028,0.006 0.027,0.009 0.027,0.01 0.025,0.011 0.026,0.013 0.025,0.015 0.025,0.016 0.023,0.018 0.022,0.019 0.022,0.02 0.022,0.023 0.02,0.022 0.019,0.025 0.019,0.025 0.018,0.027 0.016,0.027 0.016,0.029 0.014,0.03 0.014,0.031 0.012,0.031 0.011,0.033 0.011,0.034 0.008,0.034 0.008,0.035 0.006,0.036 0.005,0.036 0.004,0.037 0.002,0.037 0.001,0.032 v 3.411 l -0.001,0.033 -0.002,0.037 -0.004,0.037 -0.005,0.036 -0.006,0.036 -0.008,0.035 -0.008,0.034 -0.011,0.033 -0.011,0.033 -0.012,0.032 -0.014,0.03 -0.014,0.03 -0.016,0.029 -0.016,0.027 -0.018,0.027 -0.019,0.026 -0.019,0.024 -0.02,0.023 -0.021,0.022 -0.022,0.02 -0.023,0.019 -0.024,0.018 -0.024,0.016 -0.025,0.015 -0.025,0.013 -0.026,0.012 -0.027,0.01 -0.027,0.008 -0.028,0.007 -0.028,0.004 -0.028,0.003 -0.025,10e-4 h -0.536 l -0.025,-10e-4 -0.028,-0.003 -0.028,-0.004 -0.028,-0.007 -0.028,-0.008 -0.026,-0.01 -0.026,-0.012 -0.026,-0.013 -0.025,-0.015 -0.024,-0.016 -0.024,-0.018 -0.022,-0.019 -0.022,-0.02 -0.022,-0.022 -0.02,-0.023 -0.019,-0.024 -0.019,-0.026 -0.017,-0.026 -0.017,-0.028 -0.015,-0.029 -0.015,-0.03 -0.013,-0.03 -0.013,-0.032 -0.011,-0.033 -0.01,-0.033 -0.009,-0.034 -0.008,-0.035 -0.006,-0.036 -0.005,-0.036 -0.003,-0.037 -0.003,-0.037 v -0.033 -3.41 -0.033 l 0.003,-0.037 0.003,-0.037 0.005,-0.036 0.006,-0.036 0.008,-0.035 0.009,-0.034 0.01,-0.034 0.011,-0.033 0.013,-0.031 0.013,-0.031 0.015,-0.03 0.015,-0.028 0.017,-0.028 0.017,-0.027 0.019,-0.025 0.019,-0.025 0.02,-0.022 0.022,-0.023 0.022,-0.02 0.022,-0.019 0.024,-0.018 0.024,-0.016 0.025,-0.015 0.026,-0.013 0.026,-0.011 0.026,-0.01 0.028,-0.009 0.027,-0.006 0.029,-0.005 0.028,-0.003 h 0.025 0.536 z m -0.558,0.388 h -0.013 l -0.014,0.002 -0.013,0.002 -0.013,0.003 -0.013,0.004 -0.012,0.005 -0.012,0.005 -0.012,0.006 -0.012,0.007 -0.012,0.008 -0.011,0.008 -0.01,0.009 -0.011,0.01 -0.01,0.01 -0.009,0.011 -0.009,0.011 -0.009,0.013 -0.008,0.012 -0.008,0.013 -0.008,0.014 -0.007,0.014 -0.006,0.014 -0.006,0.015 -0.005,0.016 -0.005,0.015 -0.004,0.016 -0.004,0.017 -0.002,0.017 -0.003,0.017 -0.001,0.017 -0.002,0.018 v 0.017 3.401 0.018 l 0.002,0.018 0.001,0.017 0.003,0.017 0.002,0.017 0.004,0.016 0.004,0.016 0.005,0.016 0.005,0.015 0.006,0.015 0.006,0.015 0.007,0.014 0.008,0.013 0.008,0.013 0.008,0.013 0.009,0.012 0.009,0.011 0.009,0.011 0.01,0.011 0.011,0.009 0.01,0.009 0.011,0.009 0.012,0.007 0.012,0.007 0.012,0.006 0.012,0.006 0.012,0.005 0.013,0.003 0.013,0.004 0.013,0.002 0.014,10e-4 0.013,0.001 h 0.529 l 0.014,-0.001 0.013,-10e-4 0.013,-0.002 0.013,-0.004 0.013,-0.003 0.012,-0.005 0.013,-0.006 0.012,-0.006 0.011,-0.007 0.012,-0.007 0.011,-0.009 0.011,-0.009 0.01,-0.009 0.01,-0.011 0.01,-0.011 0.009,-0.011 0.008,-0.012 0.009,-0.013 0.008,-0.013 0.007,-0.013 0.007,-0.014 0.006,-0.015 0.006,-0.015 0.005,-0.015 0.005,-0.016 0.004,-0.016 0.004,-0.016 0.003,-0.017 0.002,-0.017 0.002,-0.017 10e-4,-0.018 v -0.018 -3.401 -0.017 l -10e-4,-0.018 -0.002,-0.017 -0.002,-0.017 -0.003,-0.017 -0.004,-0.017 -0.004,-0.016 -0.005,-0.015 -0.005,-0.016 -0.006,-0.015 -0.006,-0.014 -0.007,-0.014 -0.007,-0.014 -0.008,-0.013 -0.009,-0.012 -0.008,-0.013 -0.009,-0.011 -0.01,-0.011 -0.01,-0.01 -0.01,-0.01 -0.011,-0.009 -0.011,-0.008 -0.012,-0.008 -0.011,-0.007 -0.012,-0.006 -0.013,-0.005 -0.012,-0.005 -0.013,-0.004 -0.013,-0.003 -0.013,-0.002 -0.013,-0.002 h -0.014 z"
   style="fill:#767a7b"
   id="path1898" />
            </g><g
     transform="matrix(0.76700164,-0.04974806,0.04161301,0.64157489,-167.01923,348.05111)"
     id="g1904">
                <path
   d="m 862.856,1021.29 c -0.274,-0.02 -0.55,-0.02 -0.825,0 l -0.124,0.66 c -0.262,0.04 -0.519,0.1 -0.767,0.2 l -0.433,-0.5 c -0.251,0.11 -0.49,0.25 -0.714,0.41 l 0.218,0.63 c -0.207,0.16 -0.396,0.35 -0.561,0.56 l -0.626,-0.22 c -0.161,0.22 -0.299,0.46 -0.413,0.72 l 0.502,0.43 c -0.096,0.24 -0.165,0.5 -0.205,0.76 l -0.652,0.13 c -0.027,0.27 -0.027,0.55 0,0.82 l 0.652,0.13 c 0.04,0.26 0.109,0.52 0.205,0.77 l -0.502,0.43 c 0.114,0.25 0.252,0.49 0.413,0.71 l 0.626,-0.22 c 0.165,0.21 0.354,0.4 0.561,0.57 l -0.218,0.62 c 0.224,0.16 0.463,0.3 0.714,0.41 l 0.433,-0.5 c 0.248,0.1 0.505,0.17 0.767,0.21 l 0.124,0.65 c 0.275,0.03 0.551,0.03 0.825,0 l 0.124,-0.65 c 0.263,-0.04 0.52,-0.11 0.767,-0.21 l 0.433,0.5 c 0.251,-0.11 0.491,-0.25 0.715,-0.41 l -0.219,-0.62 c 0.208,-0.17 0.396,-0.36 0.562,-0.57 l 0.626,0.22 c 0.161,-0.22 0.299,-0.46 0.412,-0.71 l -0.502,-0.43 c 0.097,-0.25 0.166,-0.51 0.206,-0.77 l 0.651,-0.13 c 0.027,-0.27 0.027,-0.55 0,-0.82 l -0.651,-0.13 c -0.04,-0.26 -0.109,-0.52 -0.206,-0.76 l 0.502,-0.43 c -0.113,-0.26 -0.251,-0.5 -0.412,-0.72 l -0.626,0.22 c -0.166,-0.21 -0.354,-0.4 -0.562,-0.56 l 0.219,-0.63 c -0.224,-0.16 -0.464,-0.3 -0.715,-0.41 l -0.433,0.5 c -0.247,-0.1 -0.504,-0.16 -0.767,-0.2 z m -0.412,3.35 c 0.464,0 0.841,0.38 0.841,0.84 0,0.47 -0.377,0.84 -0.841,0.84 -0.465,0 -0.842,-0.37 -0.842,-0.84 0,-0.46 0.377,-0.84 0.842,-0.84 z"
   style="fill:#333333"
   id="path1902" />
            </g></g>
</svg>
