<?xml version="1.0" encoding="UTF-8"?>
<svg version="1.1" viewBox="0 0 514 514" xmlns="http://www.w3.org/2000/svg" xmlns:cc="http://creativecommons.org/ns#" xmlns:dc="http://purl.org/dc/elements/1.1/" xmlns:rdf="http://www.w3.org/1999/02/22-rdf-syntax-ns#">
 <metadata>
  <rdf:RDF>
   <cc:Work rdf:about="">
    <dc:format>image/svg+xml</dc:format>
    <dc:type rdf:resource="http://purl.org/dc/dcmitype/StillImage"/>
    <dc:title/>
    <cc:license rdf:resource="http://creativecommons.org/licenses/by-nc-sa/4.0/"/>
    <dc:creator>
     <cc:Agent>
      <dc:title>Jan Alexander</dc:title>
     </cc:Agent>
    </dc:creator>
   </cc:Work>
   <cc:License rdf:about="http://creativecommons.org/licenses/by-nc-sa/4.0/">
    <cc:permits rdf:resource="http://creativecommons.org/ns#Reproduction"/>
    <cc:permits rdf:resource="http://creativecommons.org/ns#Distribution"/>
    <cc:requires rdf:resource="http://creativecommons.org/ns#Notice"/>
    <cc:requires rdf:resource="http://creativecommons.org/ns#Attribution"/>
    <cc:prohibits rdf:resource="http://creativecommons.org/ns#CommercialUse"/>
    <cc:permits rdf:resource="http://creativecommons.org/ns#DerivativeWorks"/>
    <cc:requires rdf:resource="http://creativecommons.org/ns#ShareAlike"/>
   </cc:License>
  </rdf:RDF>
 </metadata>
 <g stroke="#666">
  <g fill="#ccc">
   <path d="m28.898 371.25v-279.92l21.978 16.332v263.59z" stroke-width="1px"/>
   <path d="m484.86 371.25v-279.92l-21.978 16.332v263.59z" stroke-width="1px"/>
   <path d="m131.11 68.312a7.7368 6.1603 0 0 0-7.7383 6.1602 7.7368 6.1603 0 0 0 6e-3 0.20117h-2e-3l1.8789 179.2-2.4922 54.041v36.242h21.086v-39.285l-2.8535-48.922-2.1484-181.48a7.7368 6.1603 0 0 0-7.7363-6.1602z" stroke-width="1.0902"/>
   <path d="m384.16 68.312a7.7368 6.1603 0 0 1 7.7383 6.1602 7.7368 6.1603 0 0 1-6e-3 0.20117h2e-3l-1.8789 179.2 2.4922 54.041v36.242h-21.086v-39.285l2.8535-48.922 2.1484-181.48a7.7368 6.1603 0 0 1 7.7363-6.1602z" stroke-width="1.0902"/>
  </g>
  <path d="m27.802 411.53c20.959 9.7997 42.034 19.428 63.252 28.614 17.328 5.7103 36 4.0242 53.981 5.3273 74.28 0.47191 148.58 0.15572 222.87 0.15937 19.508-1.2829 39.749 2.3375 58.331-6.4338 20.511-9.8666 40.537-18.605 60.958-27.666z" fill="#999" stroke-width="1px"/>
  <path d="m87.897 334.03c29.088 2.3409 58.276 3.2228 87.418 4.6964 45.513 1.3392 91.084 1.7779 136.6 0.78558 44.449-1.4213 88.831-6.4484 133.34-5.2125 14.27 2.9196 24.393 14.707 34.789 24.069 8.9434 8.9112 17.052 19.436 21.549 31.267 3.7762 9.4098-4.4886 17.662-12.59 21.076-12.678 5.9222-27.07 7.8683-40.892 9.715-65.945 7.7228-132.45 7.1031-198.74 7.7735-43.658 0.46331-87.289-1.0184-130.86-3.738-29.26-2.0651-59.28-2.443-87.355-11.697-7.8392-2.8794-17.175-5.9292-19.257-15.028-2.4374-10.32 5.8441-19.12 11.153-27.17 9.2399-12.869 21.085-24.072 34.142-32.903 9.3088-5.3893 20.464-2.8913 30.698-3.6355z" fill="#f2f2f2" stroke-width="1px"/>
 </g>
</svg>
