<?xml version="1.0" encoding="UTF-8" standalone="no"?>
<svg
   width="100%"
   height="100%"
   viewBox="0 0 1280 1150"
   version="1.1"
   xml:space="preserve"
   style="fill-rule:evenodd;clip-rule:evenodd;stroke-linecap:round;stroke-linejoin:round;stroke-miterlimit:1.41421;"
   id="svg40398"
   inkscape:version="1.2 (1:1.2.1+202207142221+cd75a1ee6d)"
   sodipodi:docname="tp-link-re200-v2.svg"
   xmlns:inkscape="http://www.inkscape.org/namespaces/inkscape"
   xmlns:sodipodi="http://sodipodi.sourceforge.net/DTD/sodipodi-0.dtd"
   xmlns="http://www.w3.org/2000/svg"
   xmlns:svg="http://www.w3.org/2000/svg"><defs
   id="defs37" /><sodipodi:namedview
   id="namedview40400"
   pagecolor="#ffffff"
   bordercolor="#666666"
   borderopacity="1.0"
   inkscape:showpageshadow="2"
   inkscape:pageopacity="0.0"
   inkscape:pagecheckerboard="0"
   inkscape:deskcolor="#d1d1d1"
   showgrid="false"
   inkscape:zoom="0.29022122"
   inkscape:cx="594.37418"
   inkscape:cy="602.9883"
   inkscape:window-width="1920"
   inkscape:window-height="1052"
   inkscape:window-x="0"
   inkscape:window-y="0"
   inkscape:window-maximized="1"
   inkscape:current-layer="svg40398" />
    
<g
   id="g21009"
   transform="matrix(1.0512913,0,0,1.0512913,-42.961683,-55.392634)"><path
     id="path20366"
     style="fill:#ffffff;fill-opacity:1;stroke:#000000;stroke-width:2.48603px;stroke-linecap:butt;stroke-linejoin:miter;stroke-opacity:1"
     d="M 879.12821,65.965836 C 762.41502,64.446135 571.293,86.700382 558.64852,129.91806 c 0,0 -288.17557,878.18514 -289.38,905.36254 -0.52463,11.838 15.24165,20.7266 40.89327,27.0647 -0.0249,0.026 -0.0484,0.05 -0.0728,0.073 l 137.88737,48.5795 c 38.89225,11.5207 81.21493,17.9373 123.55388,20.7333 l 0.6458,0.1941 1.18475,-0.054 c 116.11347,7.3701 231.91448,-13.372 277.71214,-38.1013 l -0.32532,0.2525 54.50336,4.0883 c 10.43997,-8.6265 20.7616,-17.4974 31.47356,-27.5988 l -0.26705,0.267 23.82611,14.1442 50.09451,29.2935 c 16.6669,-2.5023 21.5539,-12.1061 19.0191,-26.1811 l -50.08477,-29.2789 -18.90255,-12.0854 -0.10691,0.1072 c 2.70828,-2.9063 5.45362,-5.9083 8.25437,-9.0458 -7.24304,-18.045 -12.39609,-31.8118 -24.84093,-60.51447 l -28.32224,-10.87153 -0.30103,0.8449 C 928.02202,927.79548 936.79277,887.57733 935.31641,851.33847 930.69189,831.26031 861.48726,690.12764 890.1988,549.97988 L 990.35385,98.91055 967.69316,79.823466 c -0.0149,0.03112 -0.0294,0.06117 -0.0437,0.09229 -5.62617,-8.74095 -40.86098,-13.329356 -88.52128,-13.949955 z m 24.62725,933.043934 -0.38845,1.08273 -0.67977,1.5829 c 0.3476,-0.8996 0.7233,-1.76369 1.06822,-2.66563 z" /><g
     id="g20988"><g
       id="g20364"
       transform="matrix(2.4860324,0,0,2.4860324,-461.80693,-639.2128)"><path
         style="fill:#ceced2;fill-opacity:1;stroke:none;stroke-width:1px;stroke-linecap:butt;stroke-linejoin:miter;stroke-opacity:1"
         d="m 575.01345,289.23131 9.11372,7.67719 -40.28716,181.44036 c -11.54916,56.37413 16.28893,113.14472 18.14913,121.22112 1.19682,29.37737 -14.30484,65.25844 -26.62891,91.8241 -10.6662,15.8625 -102.58149,32.41728 -169.40137,12.62394 L 310.49352,684.47596 C 409.47723,588.64155 497.5813,456.44041 575.01345,289.23131 Z"
         id="path546"
         sodipodi:nodetypes="cccccccc" /><path
         style="fill:#f1f2f9;fill-opacity:1;stroke:none;stroke-width:1px;stroke-linecap:butt;stroke-linejoin:miter;stroke-opacity:1"
         d="m 553.97628,645.83187 11.39212,4.37359 c 5.00592,11.54556 7.0793,17.08284 9.9928,24.3414 l -26.22411,-15.14011 z"
         id="path548"
         sodipodi:nodetypes="ccccc" /><path
         style="fill:#d4d5d9;fill-opacity:1;stroke:none;stroke-width:1px;stroke-linecap:butt;stroke-linejoin:miter;stroke-opacity:1"
         d="m 549.13709,659.40675 26.22411,15.14011 c -9.33677,10.45908 -17.30244,17.54353 -25.46476,24.28803 l -21.92492,-1.64472 7.38871,-5.79609 z"
         id="path550"
         sodipodi:nodetypes="cccccc" /><path
         style="fill:#bcbbc0;fill-opacity:1;stroke:none;stroke-width:1px;stroke-linecap:butt;stroke-linejoin:miter;stroke-opacity:1"
         d="m 572.03181,693.5285 20.15102,11.78304 c 6.7042,-1.00649 8.66938,-4.86917 7.64976,-10.53079 l -20.14688,-11.7764 z"
         id="path554"
         sodipodi:nodetypes="ccccc" /><path
         style="fill:#f5f5f5;fill-opacity:1;stroke:none;stroke-width:1px;stroke-linecap:butt;stroke-linejoin:miter;stroke-opacity:1"
         d="m 581.02676,688.22406 18.98009,10.47616 -0.17426,-3.91947 -20.14688,-11.7764 c 1.66603,1.59156 1.27733,3.43316 1.34105,5.21971 z"
         id="path556"
         sodipodi:nodetypes="ccccc" /><path
         style="fill:#dad9de;fill-opacity:1;stroke:none;stroke-width:1px;stroke-linecap:butt;stroke-linejoin:miter;stroke-opacity:1"
         d="m 562.44764,687.84015 9.58417,5.68835 c 8.98172,2.19687 10.8289,-7.55156 7.6539,-10.52415 l -7.60219,-4.86179 z"
         id="path552"
         sodipodi:nodetypes="ccccc" /><path
         style="fill:#3a3a3a;fill-opacity:1;stroke:none;stroke-width:1px;stroke-linecap:butt;stroke-linejoin:miter;stroke-opacity:1"
         d="m 407.09306,701.19561 29.97546,1.75616 -11.29388,-3.2571 z"
         id="path6786"
         sodipodi:nodetypes="cccc" /><path
         style="fill:#848486;fill-opacity:1;stroke:none;stroke-width:1px;stroke-linecap:butt;stroke-linejoin:miter;stroke-opacity:1"
         d="m 407.32394,701.20329 -23.96309,1.33 32.55581,9.90248 2.56819,-9.81004 z"
         id="path6788"
         sodipodi:nodetypes="ccccc" /><path
         style="fill:#e7e8ed;fill-opacity:1;stroke:none;stroke-width:1px;stroke-linecap:butt;stroke-linejoin:miter;stroke-opacity:1"
         d="m 415.91666,712.43577 47.45195,-2.14327 -26.15471,-7.21662 -18.72905,-0.45015 z"
         id="path6790"
         sodipodi:nodetypes="ccccc" /><path
         style="fill:#f8f8fc;fill-opacity:1;stroke:none;stroke-width:1px;stroke-linecap:butt;stroke-linejoin:miter;stroke-opacity:1"
         d="m 294.07332,673.561 c 0.48448,-10.93203 116.40281,-364.18063 116.40281,-364.18063 7.39813,-25.28613 166.68404,-32.732 164.82604,-18.85742 -5.43589,40.59253 -69.90441,347.39109 -102.62989,382.25681 -17.99417,19.17098 -179.65621,24.63772 -178.59896,0.78124 z"
         id="path448"
         sodipodi:nodetypes="scsss" /><path
         style="fill:#c0d109;fill-opacity:1;stroke:none;stroke-width:1px;stroke-linecap:butt;stroke-linejoin:miter;stroke-opacity:1"
         d="m 413.23032,613.93522 7.07395,14.07902 13.76424,-11.19129 -8.5202,-13.64248 z"
         id="path14820" /><ellipse
         style="fill:#c0d109;fill-opacity:1;stroke:none;stroke-width:16.9474;stroke-linejoin:round"
         id="path17987"
         cx="440.86478"
         cy="556.72144"
         rx="2.5942018"
         ry="2.5339935" /><ellipse
         style="clip-rule:evenodd;fill:#c0d109;fill-opacity:1;fill-rule:evenodd;stroke:none;stroke-width:16.9474;stroke-linecap:round;stroke-linejoin:round;stroke-miterlimit:1.41421"
         id="path17987-3"
         cx="433.38873"
         cy="580.17743"
         rx="2.5942018"
         ry="2.5339935" /><ellipse
         style="clip-rule:evenodd;fill:#c0d109;fill-opacity:1;fill-rule:evenodd;stroke:none;stroke-width:16.9474;stroke-linecap:round;stroke-linejoin:round;stroke-miterlimit:1.41421"
         id="path17987-6"
         cx="447.08685"
         cy="534.79871"
         rx="2.5942018"
         ry="2.5339935" /><ellipse
         style="clip-rule:evenodd;fill:#c0d109;fill-opacity:1;fill-rule:evenodd;stroke:none;stroke-width:16.9474;stroke-linecap:round;stroke-linejoin:round;stroke-miterlimit:1.41421"
         id="path17987-7"
         cx="454.09164"
         cy="511.95709"
         rx="2.5942018"
         ry="2.5339935" /><ellipse
         style="clip-rule:evenodd;fill:#c0d109;fill-opacity:1;fill-rule:evenodd;stroke:none;stroke-width:16.9474;stroke-linecap:round;stroke-linejoin:round;stroke-miterlimit:1.41421"
         id="path17987-5"
         cx="460.79184"
         cy="488.50635"
         rx="2.5942018"
         ry="2.5339935" /></g></g></g></svg>
