<?xml version="1.0" encoding="UTF-8" standalone="no"?>
<svg
   width="100%"
   height="100%"
   viewBox="0 0 1280 1150"
   version="1.1"
   xml:space="preserve"
   style="fill-rule:evenodd;clip-rule:evenodd;stroke-linecap:round;stroke-linejoin:round;stroke-miterlimit:1.41421;"
   id="svg113"
   sodipodi:docname="tp-link-archer-c20-v4.svg"
   inkscape:version="1.2 (1:1.2.1+202207142221+cd75a1ee6d)"
   xmlns:inkscape="http://www.inkscape.org/namespaces/inkscape"
   xmlns:sodipodi="http://sodipodi.sourceforge.net/DTD/sodipodi-0.dtd"
   xmlns="http://www.w3.org/2000/svg"
   xmlns:svg="http://www.w3.org/2000/svg"><defs
   id="defs117">
        
        
        
    
        
        
        
    
        
        
        
    
        
        
        
        
    
            
            
            
        </defs><sodipodi:namedview
   id="namedview115"
   pagecolor="#ffffff"
   bordercolor="#666666"
   borderopacity="1.0"
   inkscape:showpageshadow="2"
   inkscape:pageopacity="0.0"
   inkscape:pagecheckerboard="0"
   inkscape:deskcolor="#d1d1d1"
   showgrid="false"
   inkscape:zoom="0.29022122"
   inkscape:cx="399.6951"
   inkscape:cy="137.8259"
   inkscape:window-width="1920"
   inkscape:window-height="1052"
   inkscape:window-x="0"
   inkscape:window-y="0"
   inkscape:window-maximized="1"
   inkscape:current-layer="svg113" />
    
    
    
    
    
    
    <g
   id="g27907"
   transform="translate(19.441202,-4.6859546)"><path
     d="m 596.842,146.048 c 1.306,-11.713 32.784,-11.62 34.626,0 0,0 0.893,159.227 0,308.27 -1.083,180.939 6.144,201.444 6.144,254.349 h -46.606 c 0.092,-35.237 4.058,-141.792 3.757,-254.349 -0.397,-148.669 1.725,-305.583 2.079,-308.27"
     style="fill:#dddfe1;fill-opacity:1;stroke:#35343a;stroke-width:0.45px"
     id="path2" /><path
     d="m 596.842,146.048 c 1.306,-11.713 32.784,-11.62 34.626,0 0.536,4.222 -0.782,7.994 -3.208,12.498 -2.441,4.532 -5.222,8.684 -8.798,12.299 -4.147,4.192 -6.161,4.767 -10.629,0 -3.295,-3.516 -6.263,-7.633 -8.932,-12.299 -2.046,-3.877 -3.391,-7.952 -3.059,-12.498"
     style="fill:#f1f2f4;fill-opacity:1;stroke:#35343a;stroke-width:0.45px"
     id="path4" /><path
     d="M 619.462,666.208 V 170.845 c -4.147,4.192 -6.161,4.767 -10.629,0 v 495.363 c -3.767,15.739 -9.126,30.317 -17.827,42.459 v 56.228 h 46.606 v -56.228 c -10.47,-13.495 -15.348,-27.823 -18.15,-42.459 z"
     style="fill:#babbbd;fill-opacity:1;stroke:#35343a;stroke-width:0.45px"
     id="path6" /><path
     d="m 898.686,148.02083 c 1.306,-11.713 32.784,-11.62 34.626,0 0,0 0.893,159.227 0,308.27 -1.083,180.939 6.144,201.444 6.144,254.349 H 892.85 c 0.092,-35.237 4.058,-141.792 3.757,-254.349 -0.397,-148.669 1.725,-305.583 2.079,-308.27"
     style="fill:#dddfe1;fill-opacity:1;stroke:#35343a;stroke-width:0.45px"
     id="path9" /><path
     d="m 898.686,148.02083 c 1.306,-11.713 32.784,-11.62 34.626,0 0.536,4.222 -0.782,7.994 -3.208,12.498 -2.441,4.532 -5.222,8.684 -8.798,12.299 -4.147,4.192 -6.161,4.767 -10.629,0 -3.295,-3.516 -6.263,-7.633 -8.932,-12.299 -2.046,-3.877 -3.391,-7.952 -3.059,-12.498"
     style="fill:#f1f2f4;fill-opacity:1;stroke:#35343a;stroke-width:0.45px"
     id="path11" /><path
     d="m 921.306,668.18083 v -495.363 c -4.147,4.192 -6.161,4.767 -10.629,0 v 495.363 c -3.767,15.739 -9.126,30.317 -17.827,42.459 v 56.228 h 46.606 v -56.228 c -10.47,-13.495 -15.348,-27.823 -18.15,-42.459 z"
     style="fill:#babbbd;fill-opacity:1;stroke:#35343a;stroke-width:0.45px"
     id="path13" /><path
     d="m 296.351,142.36813 c 1.306,-11.713 32.784,-11.62 34.626,0 0,0 0.893,159.227 0,308.27 -1.083,180.939 6.144,201.444 6.144,254.349 h -46.606 c 0.092,-35.237 4.058,-141.792 3.757,-254.349 -0.397,-148.669 1.725,-305.583 2.079,-308.27"
     style="fill:#dddfe1;fill-opacity:1;stroke:#35343a;stroke-width:0.45px"
     id="path16" /><path
     d="m 296.351,142.36813 c 1.306,-11.713 32.784,-11.62 34.626,0 0.536,4.222 -0.782,7.994 -3.208,12.498 -2.441,4.532 -5.222,8.684 -8.798,12.299 -4.147,4.192 -6.161,4.767 -10.629,0 -3.295,-3.516 -6.263,-7.633 -8.932,-12.299 -2.046,-3.877 -3.391,-7.952 -3.059,-12.498"
     style="fill:#f1f2f4;fill-opacity:1;stroke:#35343a;stroke-width:0.45px"
     id="path18" /><path
     d="m 318.971,662.52813 v -495.363 c -4.147,4.192 -6.161,4.767 -10.629,0 v 495.363 c -3.767,15.739 -9.126,30.317 -17.827,42.459 v 56.228 h 46.606 v -56.228 c -10.47,-13.495 -15.348,-27.823 -18.15,-42.459 z"
     style="fill:#babbbd;fill-opacity:1;stroke:#35343a;stroke-width:0.45px"
     id="path20" /><path
     d="M 167.854,986.506 C 135.67,974.253 100.838,966.525 72.744,953.354 H 1165.52 c -28.67,12.55 -59.92,20.789 -91.26,33.152 -17.2,6.002 -34.1,13.564 -51.79,20.434 -25.322,9.83 -40.382,11.53 -71.67,14.08 0,0 -53.51,4.35 -79.557,3.93 H 382.687 c -34.078,0 -65.142,-1.65 -97.165,-3.93 -31.491,-2.25 -43.076,-3.17 -70.126,-14.08 -16.563,-6.68 -29.313,-13.955 -47.542,-20.434 z"
     style="fill:#7f7e7f;fill-opacity:1;stroke:#000000;stroke-width:2px"
     id="path23" /><path
     d="M 1098.16,977.188 C 922.741,1009.09 323.926,1011.4 137.535,975.84 l 17.073,5.648 c 171.611,36.052 813.657,31.052 931.982,0 z"
     style="fill:#6b696a;fill-opacity:1;stroke:#000000;stroke-width:0.35px"
     id="path25" /><path
     d="m 1063.49,991.005 c -175.419,24.105 -696.292,27.845 -882.681,0 l 11.453,5.399 c 172.531,27.256 739.339,23.006 856.818,0 z"
     style="fill:#6b696a;fill-opacity:1;stroke:#000000;stroke-width:0.35px"
     id="path27" /><path
     d="m 1032.87,1002.58 c -175.267,21.1 -644.34,23.13 -830.892,-1.66 l 19.817,8.4 c 172.448,22.48 677.32,18.69 794.875,0 z"
     style="fill:#6b696a;fill-opacity:1;stroke:#000000;stroke-width:0.35px"
     id="path29" /><path
     d="m 218.811,743.704 c 260.788,13.493 529.794,15.213 810.619,0 26.65,-1.444 53.53,6.911 75.19,25.796 33.76,29.448 68.39,63.302 90.28,103.023 17.79,32.26 22.9,57.793 -29.38,80.831 -41.92,18.475 -90.86,23.763 -143.08,27.754 -276.093,21.102 -543.208,20.752 -803.629,0 C 159.1,976.349 101.243,967.601 72.744,953.354 60.354,947.16 17.167,926.55 40.691,878.526 57.893,843.408 92.042,803.205 126.441,769.5 c 16.368,-16.038 45.041,-28.245 92.37,-25.796 z"
     style="fill:#1d1c31;fill-opacity:1;stroke:#000000;stroke-width:1px"
     id="path32" /><g
     id="deckel"
     style="fill:#575b70;fill-opacity:1">
            <path
   d="m 129.285,769.5 h 972.845 c 33.76,29.448 63.47,63.302 85.37,103.023 11.95,27.583 6.77,43.003 -21.98,56.777 -41.31,19.796 -90.86,26.589 -143.08,30.58 -276.093,21.097 -543.208,20.754 -803.629,0 C 159.1,955.121 100.819,944.516 72.744,929.3 47.006,915.35 41.274,892.269 51.049,872.523 68.484,837.304 94.886,803.205 129.285,769.5 Z"
   style="fill:#575b70;fill-opacity:1;stroke:#000000;stroke-width:1px"
   id="path34" />
            <path
   d="m 129.285,769.5 h 972.845 c 33.76,29.448 62.9,63.302 84.8,103.023 12.16,28.082 1.5,43.402 -21.41,54.38 -41.31,19.796 -90.86,26.161 -143.08,30.151 -276.093,21.098 -543.208,20.755 -803.629,0 C 159.1,952.296 100.819,942.119 72.744,926.903 49.68,914.403 43.076,889.35 51.406,872.523 68.841,837.304 94.886,803.205 129.285,769.5 Z"
   style="fill:#575b70;fill-opacity:1;stroke:#000000;stroke-width:1px"
   id="path36" />
            <path
   d="m 218.811,743.704 c 260.788,13.493 529.794,15.213 810.619,0 26.65,-1.444 51.05,6.911 72.7,25.796 33.76,29.448 62.43,63.302 84.33,103.023 9.89,22.851 2.1,40.202 -20.94,51.239 -41.31,19.796 -90.86,26.653 -143.08,30.644 -276.093,21.098 -543.208,20.754 -803.629,0 C 159.1,949.648 100.819,938.978 72.744,923.762 50.89,911.918 44.957,887.601 52.421,872.523 69.856,837.304 94.886,803.205 129.285,769.5 c 16.369,-16.038 42.197,-28.245 89.526,-25.796 z"
   style="fill:#575b70;fill-opacity:1;stroke:#000000;stroke-width:1px"
   id="path38" />
        </g><path
     d="m 376.298,919.206 c -3.444,-0.051 -6.387,0.671 -7.102,2.85 l -3.103,9.461 c -0.906,2.759 0.949,5.78 5.55,5.941 165.351,5.796 330.715,6.738 496.098,0 5.375,-0.219 9.458,-1.549 7.27,-5.941 l -4.711,-9.461 c -0.899,-1.805 -3.185,-2.892 -5.703,-2.85 -162.775,2.717 -325.54,2.415 -488.299,0 z"
     style="fill:#323232;stroke:#000000;stroke-width:2px"
     id="path42" /><path
     d="m 376.298,923.288 c -3.444,-0.051 -7.496,0.057 -8.21,2.236 l -1.995,5.993 c -0.906,2.759 0.949,5.78 5.55,5.941 165.351,5.796 330.715,6.738 496.098,0 5.375,-0.219 9.458,-1.549 7.27,-5.941 l -2.974,-5.993 c -0.899,-1.805 -4.922,-2.278 -7.44,-2.236 -162.775,2.717 -325.54,2.415 -488.299,0 z"
     style="fill:#000000;stroke:#000000;stroke-width:2px"
     id="path44" /><g
     id="led"
     style="fill:none;fill-opacity:1;stroke:#a4bb79;stroke-opacity:1">
        <g
   id="power"
   style="fill:none;fill-opacity:1;stroke:#a4bb79;stroke-opacity:1">
            <path
   d="m 449.307,928.937 c -1.689,1.32 -1.689,2.755 0,4.304 0.744,0.344 1.51,0.389 2.309,0 1.622,-1.356 1.762,-3.082 0,-4.304"
   style="fill:none;fill-opacity:1;stroke:#a4bb79;stroke-width:0.8px;stroke-opacity:1"
   id="path46" />
            <path
   d="m 450.474,927.897 v 2.99"
   style="fill:none;fill-opacity:1;stroke:#a4bb79;stroke-width:0.8px;stroke-opacity:1"
   id="path48" />
        </g>
        <g
   id="wifi"
   style="fill:none;fill-opacity:1;stroke:#a4bb79;stroke-opacity:1">
            <path
   d="m 487.491,930.588 c 3.203,-2.411 6.526,-2.487 9.983,0"
   style="fill:none;fill-opacity:1;stroke:#a4bb79;stroke-width:0.8px;stroke-opacity:1"
   id="path51" />
            <path
   d="m 489.333,932.256 c 2.161,-1.907 4.323,-1.791 6.486,0"
   style="fill:none;fill-opacity:1;stroke:#a4bb79;stroke-width:0.8px;stroke-opacity:1"
   id="path53" />
            <path
   d="m 491.11,933.817 c 0.86,-1.093 1.853,-1.093 2.978,0"
   style="fill:none;fill-opacity:1;stroke:#a4bb79;stroke-width:0.8px;stroke-opacity:1"
   id="path55" />
        </g>
        <g
   transform="matrix(0.236085,0,0,0.236085,385.951,697.172)"
   id="g66"
   style="fill:none;fill-opacity:1;stroke:#a4bb79;stroke-opacity:1">
            <g
   transform="matrix(1.80806,0,0,1.50113,-511.81,-500.416)"
   id="g60"
   style="fill:none;fill-opacity:1;stroke:#a4bb79;stroke-opacity:1">
                <path
   d="m 626.349,996.053 h -3.276 V 985.75 h 18.143 v 10.303 h -3.033"
   style="fill:none;fill-opacity:1;stroke:#a4bb79;stroke-width:2.04px;stroke-opacity:1"
   id="path58" />
            </g>
            <g
   transform="matrix(1.80806,0,0,1.50113,-511.81,-500.416)"
   id="g64"
   style="fill:none;fill-opacity:1;stroke:#a4bb79;stroke-opacity:1">
                <path
   d="m 626.295,1003.22 h 11.042 -4.985 v -7.799"
   style="fill:none;fill-opacity:1;stroke:#a4bb79;stroke-width:2.04px;stroke-opacity:1"
   id="path62" />
            </g>
        </g>
        <g
   transform="matrix(0.236085,0,0,0.236085,428.534,697.749)"
   id="g76"
   style="fill:none;fill-opacity:1;stroke:#a4bb79;stroke-opacity:1">
            <g
   transform="matrix(1.80806,0,0,1.50113,-511.81,-500.416)"
   id="g70"
   style="fill:none;fill-opacity:1;stroke:#a4bb79;stroke-opacity:1">
                <path
   d="m 626.349,996.053 h -3.276 V 985.75 h 18.143 v 10.303 h -3.033"
   style="fill:none;fill-opacity:1;stroke:#a4bb79;stroke-width:2.04px;stroke-opacity:1"
   id="path68" />
            </g>
            <g
   transform="matrix(1.80806,0,0,1.50113,-511.81,-500.416)"
   id="g74"
   style="fill:none;fill-opacity:1;stroke:#a4bb79;stroke-opacity:1">
                <path
   d="m 626.295,1003.22 h 11.042 -4.985 v -7.799"
   style="fill:none;fill-opacity:1;stroke:#a4bb79;stroke-width:2.04px;stroke-opacity:1"
   id="path72" />
            </g>
        </g>
        <g
   transform="matrix(0.236085,0,0,0.236085,471.219,697.749)"
   id="g86"
   style="fill:none;fill-opacity:1;stroke:#a4bb79;stroke-opacity:1">
            <g
   transform="matrix(1.80806,0,0,1.50113,-511.81,-500.416)"
   id="g80"
   style="fill:none;fill-opacity:1;stroke:#a4bb79;stroke-opacity:1">
                <path
   d="m 626.349,996.053 h -3.276 V 985.75 h 18.143 v 10.303 h -3.033"
   style="fill:none;fill-opacity:1;stroke:#a4bb79;stroke-width:2.04px;stroke-opacity:1"
   id="path78" />
            </g>
            <g
   transform="matrix(1.80806,0,0,1.50113,-511.81,-500.416)"
   id="g84"
   style="fill:none;fill-opacity:1;stroke:#a4bb79;stroke-opacity:1">
                <path
   d="m 626.295,1003.22 h 11.042 -4.985 v -7.799"
   style="fill:none;fill-opacity:1;stroke:#a4bb79;stroke-width:2.04px;stroke-opacity:1"
   id="path82" />
            </g>
        </g>
        <g
   transform="matrix(0.236085,0,0,0.236085,514.187,697.172)"
   id="g96"
   style="fill:none;fill-opacity:1;stroke:#a4bb79;stroke-opacity:1">
            <g
   transform="matrix(1.80806,0,0,1.50113,-511.81,-500.416)"
   id="g90"
   style="fill:none;fill-opacity:1;stroke:#a4bb79;stroke-opacity:1">
                <path
   d="m 626.349,996.053 h -3.276 V 985.75 h 18.143 v 10.303 h -3.033"
   style="fill:none;fill-opacity:1;stroke:#a4bb79;stroke-width:2.04px;stroke-opacity:1"
   id="path88" />
            </g>
            <g
   transform="matrix(1.80806,0,0,1.50113,-511.81,-500.416)"
   id="g94"
   style="fill:none;fill-opacity:1;stroke:#a4bb79;stroke-opacity:1">
                <path
   d="m 626.295,1003.22 h 11.042 -4.985 v -7.799"
   style="fill:none;fill-opacity:1;stroke:#a4bb79;stroke-width:2.04px;stroke-opacity:1"
   id="path92" />
            </g>
        </g>
        <g
   id="online"
   transform="translate(-1.96128,-0.437469)"
   style="fill:none;fill-opacity:1;stroke:#a4bb79;stroke-opacity:1">
            <g
   transform="matrix(1.22584,0,0,1.4098,-160.001,-382.217)"
   id="g100"
   style="fill:none;fill-opacity:1;stroke:#a4bb79;stroke-opacity:1">
                <ellipse
   cx="707.77399"
   cy="932.62701"
   rx="2.55"
   ry="2.233"
   style="fill:none;fill-opacity:1;stroke:#a4bb79;stroke-width:0.34px;stroke-opacity:1"
   id="ellipse98" />
            </g>
            <g
   transform="rotate(-34.496292,709.38853,929.7854)"
   id="g104"
   style="fill:none;fill-opacity:1;stroke:#a4bb79;stroke-opacity:1">
                <ellipse
   cx="706.34497"
   cy="928.89899"
   rx="3.2460001"
   ry="0.93599999"
   style="fill:none;fill-opacity:1;stroke:#a4bb79;stroke-width:0.45px;stroke-opacity:1"
   id="ellipse102" />
            </g>
        </g>
        <g
   id="lock"
   transform="translate(-0.729494,-0.768633)"
   style="fill:none;fill-opacity:1;stroke:#a4bb79;stroke-opacity:1">
            <rect
   x="745.65601"
   y="931.23901"
   width="5.5430002"
   height="3.743"
   style="fill:none;fill-opacity:1;stroke:#a4bb79;stroke-width:0.45px;stroke-opacity:1"
   id="rect107" />
            <circle
   cx="748.534"
   cy="931.09399"
   r="1.982"
   style="fill:none;fill-opacity:1;stroke:#a4bb79;stroke-width:0.45px;stroke-opacity:1"
   id="circle109" />
        </g>
    </g></g>
</svg>
