<?xml version="1.0" encoding="UTF-8" standalone="no"?>
<svg
   width="100%"
   height="100%"
   viewBox="0 0 1280 1150"
   version="1.1"
   xml:space="preserve"
   style="fill-rule:evenodd;clip-rule:evenodd;stroke-linecap:round;stroke-linejoin:round;stroke-miterlimit:1.41421;"
   id="svg92"
   sodipodi:docname="tp-link-td-w8970.svg"
   inkscape:version="1.2 (1:1.2+202206011327+fc4e4096c5)"
   xmlns:inkscape="http://www.inkscape.org/namespaces/inkscape"
   xmlns:sodipodi="http://sodipodi.sourceforge.net/DTD/sodipodi-0.dtd"
   xmlns="http://www.w3.org/2000/svg"
   xmlns:svg="http://www.w3.org/2000/svg"><defs
     id="defs96" /><sodipodi:namedview
     id="namedview94"
     pagecolor="#ffffff"
     bordercolor="#666666"
     borderopacity="1.0"
     inkscape:showpageshadow="2"
     inkscape:pageopacity="0.0"
     inkscape:pagecheckerboard="0"
     inkscape:deskcolor="#d1d1d1"
     showgrid="false"
     inkscape:zoom="0.58044245"
     inkscape:cx="231.71979"
     inkscape:cy="655.53441"
     inkscape:window-width="1920"
     inkscape:window-height="1021"
     inkscape:window-x="0"
     inkscape:window-y="0"
     inkscape:window-maximized="1"
     inkscape:current-layer="svg92" /><g
     id="rumpf 3600 front"><path
       d="M147.311,980.975l0.155195,25.3016c351.799,13.5999 702.321,12.0893 1052.96,0l0.13146,-25.3016c-350.653,-23.0058 -701.532,-22.8605 -1053.25,0Z"
       style="fill:#0d0d0d;stroke-width:1px;stroke:#000;"
       id="path2" /><path
       d="M1200.43,1006.04c-352.018,12.5432 -703.098,13.6545 -1052.96,0l0,21.3661c346.516,43.9694 697.727,41.784 1052.96,0l0,-21.3661Z"
       style="fill:#1a1a1a;stroke-width:1px;stroke:#000;"
       id="path4" /><path
       d="M248.104,1038.87l19.8668,27.9507c271.062,8.68199 542.122,8.24793 813.182,0l11.8526,-27.9507c-281.511,27.0043 -563.169,28.2079 -844.902,0Z"
       style="fill:#0d0d0d;stroke-width:1px;stroke:#000;"
       id="path6" /><path
       d="M147.308,980.987l20.7743,-77.3104c339.639,-28.5692 675.404,-27.4076 1007.75,0l24.7286,77.3104c-351.093,-21.7306 -1053.25,0 -1053.25,0Z"
       style="fill:#1a1a1a;stroke-width:1px;stroke:#000;"
       id="path8" /><path
       d="M171.425,890.166c333.01,-23.0781 665.973,-28.062 998.848,0l-18.0764,-71.2092c-326.015,-29.3439 -645.719,-24.5419 -961.774,0l-18.9973,71.2092Z"
       style="fill:#1a1a1a;stroke-width:1px;stroke:#000;"
       id="path10" /><path
       d="M191.723,808.384c321.171,-24.5663 640.077,-26.6286 956.096,0l-22.55,-72.7941c-302.251,-26.6384 -607.279,-24.6573 -914.505,0l-19.0407,72.7941Z"
       style="fill:#1a1a1a;stroke-width:1px;stroke:#000;"
       id="path12" /><path
       d="M1170.27,890.051c-335.337,-26.2613 -668.026,-24.7268 -998.611,0l0,13.2924c334.16,-26.43 667.35,-28.4835 999.309,0l-0.697729,-13.2924Z"
       style="fill:#0d0d0d;stroke-width:1px;stroke:#000;"
       id="path14" /><path
       d="M191.815,808.449l0,10.4246c319.457,-26.5065 638.144,-27.0937 956.007,-0.345419l0,-10.0792c-318.338,-26.1896 -637.019,-25.1684 -956.007,0Z"
       style="fill:#0d0d0d;stroke-width:1px;stroke:#000;"
       id="path16" /></g><path
     d="M213.007,113.052c21.3585,124.001 42.6745,247.865 62.8961,373.673c7.45449,46.3779 11.6237,93.2518 15.758,140.147l15.5478,101.706l50.1224,-3.07499l-106.865,-619.843l-37.4593,7.39205Z"
     style="fill:#0d0d0d;stroke-width:1px;stroke:#000;"
     id="path84" /><path
     d="M231.275,89.1338c22.9142,-2.59923 25.4569,21.3257 6.42754,40.34l71.2152,430.925l16.8785,52.6606l26.3304,112.796l-36.3697,2.22593l-16.3632,-161.385l-72.3811,-431.446c-17.3443,-19.427 -24.6603,-43.4323 4.26241,-46.1168"
     style="fill:#333;stroke-width:1px;stroke:#000;"
     id="path86" /><path
     d="M1030.06,728.081l16.2534,-116.128c4.55764,-53.9511 7.98748,-108.322 17.7408,-161.86c20.6428,-113.313 34.7202,-221.589 51.0639,-331.113l-36.4548,-9.05432c-23.2567,164.184 -47.576,328.383 -80.2954,492.704l-19.9309,122.299l51.6232,3.15191Z"
     style="fill:#0d0d0d;stroke-width:1px;stroke:#000;"
     id="path88" /><path
     d="M1091.78,135.22c-7.0499,-7.47155 -11.6593,-15.8669 -13.2167,-25.4174c3.75231,-24.0514 34.6439,-22.1532 36.9632,0c1.53108,10.0908 -2.85898,18.404 -11.5785,25.4174l-68.4174,442.038l0,27.6003l-6.54783,123.217l-49.2723,-3.07372l45.7437,-144.22l66.3258,-445.562Z"
     style="fill:#333;stroke-width:1px;stroke:#000;"
     id="path90" /><g
     id="g13997"
     transform="translate(-25.151062)"><g
       id="g13967"
       transform="translate(47.208934)"><path
         d="m 457.80998,985.138 c -8.71247,0.0395 -9.55269,19.1928 3.24719,19.5282 13.7991,0.3615 11.854,-19.3325 3.21465,-19.5282"
         style="fill:none;stroke:#29ac37;stroke-width:3px"
         id="path19" /><path
         d="M 460.95598,996.543 V 981.9057"
         style="fill:none;stroke:#29ac37;stroke-width:3px"
         id="path21" /></g><g
       id="g31"
       transform="translate(128.24046)"><path
         d="m 532.5,1001.56 c 3.03703,-3.0595 6.08335,-2.45622 9.13438,0"
         style="fill:none;stroke:#29ac37;stroke-width:3px"
         id="path25" /><path
         d="m 529.218,994.65 c 5.17675,-3.94158 10.3107,-3.8203 15.4058,0"
         style="fill:none;stroke:#29ac37;stroke-width:3px"
         id="path27" /><path
         d="m 526.539,988.847 c 6.78055,-4.89746 13.6934,-5.46411 20.7904,0"
         style="fill:none;stroke:#29ac37;stroke-width:3px"
         id="path29" /></g><g
       id="g45"
       transform="translate(122.72266)"><path
         d="m 626.349,996.053 h -3.27697 v -10.3038 h 18.1434 v 10.3038 h -3.03325"
         style="fill:none;stroke:#29ac37;stroke-width:3px"
         id="path41" /><path
         d="m 626.295,1003.22 h 11.0425 -4.98572 v -7.79534"
         style="fill:none;stroke:#29ac37;stroke-width:3px"
         id="path43" /></g><g
       id="g51"
       transform="translate(118.77156)"><path
         d="m 675.528,996.575 h -3.27697 v -10.3038 h 18.1434 v 10.3038 h -3.03325"
         style="fill:none;stroke:#29ac37;stroke-width:3px"
         id="path47" /><path
         d="m 675.473,1003.74 h 11.0425 -4.98572 v -7.79534"
         style="fill:none;stroke:#29ac37;stroke-width:3px"
         id="path49" /></g><g
       id="g57"
       transform="translate(116.28847)"><path
         d="m 723.239,996.568 h -3.27697 v -10.3038 h 18.1434 v 10.3038 h -3.03325"
         style="fill:none;stroke:#29ac37;stroke-width:3px"
         id="path53" /><path
         d="m 723.184,1003.73 h 11.0425 -4.98572 v -7.79534"
         style="fill:none;stroke:#29ac37;stroke-width:3px"
         id="path55" /></g><g
       id="g63"
       transform="translate(112.31838)"><path
         d="m 772.437,996.452 h -3.27697 v -10.3038 h 18.1434 v 10.3038 h -3.03325"
         style="fill:none;stroke:#29ac37;stroke-width:3px"
         id="path59" /><path
         d="m 772.383,1003.61 h 11.0425 -4.98572 v -7.79534"
         style="fill:none;stroke:#29ac37;stroke-width:3px"
         id="path61" /></g><g
       id="g69"
       transform="translate(-211.22353)"><path
         d="m 813.094,996.529 c -1.72261,2.53152 -1.72261,4.8198 0,6.8648 12.3985,-1.4089 20.8155,-6.31468 25.8245,-14.2136 -0.91611,-1.90979 -2.42076,-2.72553 -4.34806,-2.75561"
         style="fill:none;stroke:#29ac37;stroke-width:3px"
         id="path65" /><path
         d="m 817.984,994.321 c -0.44479,-8.39399 2.21854,-12.4532 12.9805,-5.21767"
         style="fill:none;stroke:#29ac37;stroke-width:3px"
         id="path67" /></g><g
       id="g75"
       transform="translate(-157.91245)"><path
         d="m 862.264,985.285 c -3.15018,5.48813 -1.57481,10.7291 1.85415,15.8732 l 2.50636,-4.94141"
         style="fill:none;stroke:#29ac37;stroke-width:3px"
         id="path71" /><path
         d="m 874.847,1000.02 c 3.14452,-7.28393 2.08729,-12.8549 -2.97925,-16.7912 l -2.22319,6.52485"
         style="fill:none;stroke:#29ac37;stroke-width:3px"
         id="path73" /></g><g
       id="g13963"
       transform="translate(35.513403)"><path
         d="m 519.06452,984.07946 c -12.43602,0.0265 -13.63533,12.85462 4.63499,13.07919 19.69659,0.24203 16.92019,-12.94809 4.58853,-13.07919"
         style="fill:none;stroke:#29ac37;stroke-width:2.93326px"
         id="path13957" /><path
         d="M 523.47922,1004.1534 V 984.12844"
         style="fill:none;stroke:#29ac37;stroke-width:4.10421px"
         id="path13959" /></g></g></svg>
