<?xml version="1.0" encoding="UTF-8" standalone="no"?>
<svg
   width="100%"
   height="100%"
   viewBox="0 0 1280 1150"
   version="1.1"
   xml:space="preserve"
   style="fill-rule:evenodd;clip-rule:evenodd;stroke-linecap:round;stroke-linejoin:round;stroke-miterlimit:1.41421;"
   id="svg104"
   sodipodi:docname="tp-link-tl-wdr-4300-v1.svg"
   inkscape:version="1.2 (1:1.2+202206011327+fc4e4096c5)"
   xmlns:inkscape="http://www.inkscape.org/namespaces/inkscape"
   xmlns:sodipodi="http://sodipodi.sourceforge.net/DTD/sodipodi-0.dtd"
   xmlns="http://www.w3.org/2000/svg"
   xmlns:svg="http://www.w3.org/2000/svg"><defs
   id="defs108">
        
        
        
        
        
        
        
        
        
        
        
        
    </defs><sodipodi:namedview
   id="namedview106"
   pagecolor="#ffffff"
   bordercolor="#666666"
   borderopacity="1.0"
   inkscape:showpageshadow="2"
   inkscape:pageopacity="0.0"
   inkscape:pagecheckerboard="0"
   inkscape:deskcolor="#d1d1d1"
   showgrid="false"
   inkscape:zoom="0.41043478"
   inkscape:cx="773.56992"
   inkscape:cy="649.31144"
   inkscape:window-width="1920"
   inkscape:window-height="1021"
   inkscape:window-x="0"
   inkscape:window-y="0"
   inkscape:window-maximized="1"
   inkscape:current-layer="svg104" />
    <g
   transform="rotate(1.3806406,246.26737,-4655.8122)"
   id="g10">
        <g
   transform="rotate(-9.9364044,842.1901,2130.1258)"
   id="g4">
            <path
   d="m 1030.06,728.081 16.25,-116.127 c 4.56,-53.951 7.99,-108.323 17.74,-161.861 20.64,-113.312 34.72,-221.588 51.07,-331.113 l -36.46,-9.054 C 1055.4,274.11 1031.08,438.309 998.365,602.63 l -19.931,122.299 z"
   style="fill:#0d0d0d;stroke:#000000;stroke-width:1px"
   id="path2" />
        </g>
        <g
   transform="rotate(-9.9364044,842.1901,2130.1258)"
   id="g8">
            <path
   d="m 1091.78,135.22 c -7.05,-7.471 -11.66,-15.866 -13.21,-25.417 3.75,-24.051 34.64,-22.153 36.96,0 1.53,10.091 -2.86,18.404 -11.58,25.417 l -68.41,442.038 v 27.601 l -6.55,123.217 -49.275,-3.074 45.745,-144.22 z"
   style="fill:#333333;stroke:#000000;stroke-width:1px"
   id="path6" />
        </g>
    </g>
    <g
   id="rumpf 3600 front">
        <path
   d="M147.311,980.975L147.466,1006.28C499.265,1019.88 849.787,1018.37 1200.43,1006.28L1200.56,980.975C849.909,957.97 499.03,958.115 147.311,980.975Z"
   style="fill:rgb(13,13,13);stroke-width:1px;stroke:black;"
   id="path12" />
        <path
   d="M1200.43,1006.04C848.413,1018.58 497.333,1019.69 147.467,1006.04L147.467,1027.4C493.983,1071.37 845.193,1069.19 1200.43,1027.4L1200.43,1006.04Z"
   style="fill:rgb(26,26,26);stroke-width:1px;stroke:black;"
   id="path14" />
        <path
   d="M248.104,1038.87L267.971,1066.82C539.033,1075.51 810.093,1075.07 1081.15,1066.82L1093.01,1038.87C811.494,1065.88 529.836,1067.08 248.104,1038.87Z"
   style="fill:rgb(13,13,13);stroke-width:1px;stroke:black;"
   id="path16" />
        <path
   d="M147.308,980.987L168.082,903.677C507.721,875.108 843.486,876.269 1175.83,903.677L1200.56,980.987C849.468,959.257 147.308,980.987 147.308,980.987Z"
   style="fill:rgb(26,26,26);stroke-width:1px;stroke:black;"
   id="path18" />
        <path
   d="M171.425,890.166C504.435,867.087 837.397,862.104 1170.27,890.166L1152.2,818.956C826.181,789.612 506.477,794.414 190.422,818.956L171.425,890.166Z"
   style="fill:rgb(26,26,26);stroke-width:1px;stroke:black;"
   id="path20" />
        <path
   d="M191.723,808.384C512.893,783.818 831.8,781.756 1147.82,808.384L1125.27,735.59C823.018,708.952 517.99,710.933 210.763,735.59L191.723,808.384Z"
   style="fill:rgb(26,26,26);stroke-width:1px;stroke:black;"
   id="path22" />
        <path
   d="M1170.27,890.051C834.928,863.79 502.239,865.324 171.654,890.051L171.654,903.344C505.814,876.914 839.004,874.86 1170.96,903.344L1170.27,890.051Z"
   style="fill:rgb(13,13,13);stroke-width:1px;stroke:black;"
   id="path24" />
        <path
   d="M191.815,808.449L191.815,818.874C511.272,792.367 829.959,791.78 1147.82,818.528L1147.82,808.449C829.483,782.259 510.802,783.28 191.815,808.449Z"
   style="fill:rgb(13,13,13);stroke-width:1px;stroke:black;"
   id="path26" />
    </g>
    <g
   id="g954"
   transform="translate(19.905643)"><path
     d="m 437.904,985.138 c -8.713,0.039 -9.553,19.192 3.247,19.532 13.799,0.36 11.854,-19.337 3.214,-19.532"
     style="fill:none;stroke:#29ac37;stroke-width:3px"
     id="path29" /><path
     d="M 441.05,996.543 V 981.906"
     style="fill:none;stroke:#29ac37;stroke-width:3px"
     id="path31" /><path
     d="m 489.591,981.905 1.911,5.777 3.684,-1.786 -0.591,3.992 h 6.185 l -5.004,3.57 2.867,2.888 -4.048,0.682 1.911,5.782 -5.004,-3.575 -1.911,3.575 -1.911,-3.575 -5.004,3.575 1.911,-5.782 -4.048,-0.682 2.867,-2.888 -5.004,-3.57 h 6.185 l -0.591,-3.992 3.684,1.786 z"
     style="fill:#29ac37;stroke:#29ac37;stroke-width:1px"
     id="path33" /><g
     id="g41">
            <path
   d="m 532.5,1001.56 c 3.037,-3.06 6.083,-2.457 9.134,0"
   style="fill:none;stroke:#29ac37;stroke-width:3px"
   id="path35" />
            <path
   d="m 529.218,994.65 c 5.176,-3.942 10.31,-3.82 15.405,0"
   style="fill:none;stroke:#29ac37;stroke-width:3px"
   id="path37" />
            <path
   d="m 526.539,988.847 c 6.781,-4.897 13.694,-5.464 20.791,0"
   style="fill:none;stroke:#29ac37;stroke-width:3px"
   id="path39" />
        </g><g
     transform="translate(48.0114,0.416112)"
     id="g49">
            <path
   d="m 532.5,1001.56 c 3.037,-3.06 6.083,-2.457 9.134,0"
   style="fill:none;stroke:#29ac37;stroke-width:3px"
   id="path43" />
            <path
   d="m 529.218,994.65 c 5.176,-3.942 10.31,-3.82 15.405,0"
   style="fill:none;stroke:#29ac37;stroke-width:3px"
   id="path45" />
            <path
   d="m 526.539,988.847 c 6.781,-4.897 13.694,-5.464 20.791,0"
   style="fill:none;stroke:#29ac37;stroke-width:3px"
   id="path47" />
        </g><g
     id="g55">
            <path
   d="m 626.349,996.053 h -3.276 V 985.75 h 18.143 v 10.303 h -3.033"
   style="fill:none;stroke:#29ac37;stroke-width:3px"
   id="path51" />
            <path
   d="m 626.295,1003.22 h 11.042 -4.985 v -7.799"
   style="fill:none;stroke:#29ac37;stroke-width:3px"
   id="path53" />
        </g><g
     transform="translate(49.178,0.521351)"
     id="g61">
            <path
   d="m 626.349,996.053 h -3.276 V 985.75 h 18.143 v 10.303 h -3.033"
   style="fill:none;stroke:#29ac37;stroke-width:3px"
   id="path57" />
            <path
   d="m 626.295,1003.22 h 11.042 -4.985 v -7.799"
   style="fill:none;stroke:#29ac37;stroke-width:3px"
   id="path59" />
        </g><g
     transform="translate(96.8896,0.514428)"
     id="g67">
            <path
   d="m 626.349,996.053 h -3.276 V 985.75 h 18.143 v 10.303 h -3.033"
   style="fill:none;stroke:#29ac37;stroke-width:3px"
   id="path63" />
            <path
   d="m 626.295,1003.22 h 11.042 -4.985 v -7.799"
   style="fill:none;stroke:#29ac37;stroke-width:3px"
   id="path65" />
        </g><g
     transform="translate(146.088,0.398803)"
     id="g73">
            <path
   d="m 626.349,996.053 h -3.276 V 985.75 h 18.143 v 10.303 h -3.033"
   style="fill:none;stroke:#29ac37;stroke-width:3px"
   id="path69" />
            <path
   d="m 626.295,1003.22 h 11.042 -4.985 v -7.799"
   style="fill:none;stroke:#29ac37;stroke-width:3px"
   id="path71" />
        </g><g
     id="g79">
            <path
   d="m 813.094,996.529 c -1.722,2.532 -1.722,4.821 0,6.861 12.399,-1.4 20.816,-6.311 25.825,-14.21 -0.916,-1.909 -2.421,-2.725 -4.348,-2.755"
   style="fill:none;stroke:#29ac37;stroke-width:3px"
   id="path75" />
            <path
   d="m 817.984,994.321 c -0.444,-8.394 2.219,-12.453 12.981,-5.218"
   style="fill:none;stroke:#29ac37;stroke-width:3px"
   id="path77" />
        </g><g
     id="g85">
            <path
   d="m 862.264,985.285 c -3.15,5.488 -1.575,10.729 1.854,15.875 l 2.507,-4.943"
   style="fill:none;stroke:#29ac37;stroke-width:3px"
   id="path81" />
            <path
   d="m 874.847,1000.02 c 3.145,-7.28 2.087,-12.851 -2.979,-16.788 l -2.223,6.525"
   style="fill:none;stroke:#29ac37;stroke-width:3px"
   id="path83" />
        </g></g>
    <path
   d="M213.007,113.052C234.365,237.053 255.681,360.917 275.903,486.725C283.358,533.103 287.527,579.977 291.661,626.872L307.209,728.578L357.331,725.503L250.466,105.66L213.007,113.052Z"
   style="fill:rgb(13,13,13);stroke-width:1px;stroke:black;"
   id="path94" />
    <path
   d="M231.275,89.134C254.189,86.535 256.732,110.459 237.703,129.474L308.918,560.399L325.796,613.06L352.127,725.855L315.757,728.081L299.394,566.697L227.013,135.251C209.668,115.824 202.352,91.818 231.275,89.134"
   style="fill:rgb(51,51,51);stroke-width:1px;stroke:black;"
   id="path96" />
    <path
   d="M1030.06,728.081L1046.31,611.954C1050.87,558.003 1054.3,503.631 1064.05,450.093C1084.69,336.781 1098.77,228.505 1115.12,118.98L1078.66,109.926C1055.4,274.11 1031.08,438.309 998.365,602.63L978.434,724.929L1030.06,728.081Z"
   style="fill:rgb(13,13,13);stroke-width:1px;stroke:black;"
   id="path98" />
    <path
   d="M1091.78,135.22C1084.73,127.749 1080.12,119.354 1078.57,109.803C1082.32,85.752 1113.21,87.65 1115.53,109.803C1117.06,119.894 1112.67,128.207 1103.95,135.22L1035.54,577.258L1035.54,604.859L1028.99,728.076L979.715,725.002L1025.46,580.782L1091.78,135.22Z"
   style="fill:rgb(51,51,51);stroke-width:1px;stroke:black;"
   id="path100" />
    <path
   d="M1091.78,135.22C1084.73,127.749 1080.12,119.354 1078.57,109.803C1082.32,85.752 1113.21,87.65 1115.53,109.803C1117.06,119.894 1112.67,128.207 1103.95,135.22L1035.54,577.258L1035.54,604.859L1028.99,728.076L979.715,725.002L1025.46,580.782L1091.78,135.22Z"
   style="fill:rgb(51,51,51);stroke-width:1px;stroke:black;"
   id="path102" />
</svg>
