<?xml version="1.0" encoding="UTF-8" standalone="no"?>
<svg
   width="100%"
   height="100%"
   viewBox="0 0 1280 1150"
   version="1.1"
   xml:space="preserve"
   style="fill-rule:evenodd;clip-rule:evenodd;stroke-linecap:round;stroke-linejoin:round;stroke-miterlimit:1.41421;"
   id="svg131"
   sodipodi:docname="tp-link-tl-wr841n-nd-v11.svg"
   inkscape:version="1.2 (1:1.2+202206011327+fc4e4096c5)"
   xmlns:inkscape="http://www.inkscape.org/namespaces/inkscape"
   xmlns:sodipodi="http://sodipodi.sourceforge.net/DTD/sodipodi-0.dtd"
   xmlns:xlink="http://www.w3.org/1999/xlink"
   xmlns="http://www.w3.org/2000/svg"
   xmlns:svg="http://www.w3.org/2000/svg"><sodipodi:namedview
   id="namedview133"
   pagecolor="#ffffff"
   bordercolor="#666666"
   borderopacity="1.0"
   inkscape:showpageshadow="2"
   inkscape:pageopacity="0.0"
   inkscape:pagecheckerboard="0"
   inkscape:deskcolor="#d1d1d1"
   showgrid="false"
   inkscape:zoom="0.58044244"
   inkscape:cx="1158.599"
   inkscape:cy="550.44218"
   inkscape:window-width="1920"
   inkscape:window-height="1021"
   inkscape:window-x="0"
   inkscape:window-y="0"
   inkscape:window-maximized="1"
   inkscape:current-layer="svg131" />
  
   <g
   id="g2591"
   transform="translate(33.270837,48.62192)"><g
     id="g2514"
     transform="translate(-10.070967,74.562609)"><path
       style="fill:#0d0d0d;fill-opacity:1;stroke:#0d0d0d;stroke-width:1px;stroke-linecap:butt;stroke-linejoin:miter;stroke-opacity:1"
       d="m 853.86816,624.58192 52.18095,2.91731 17.38155,-123.20332 10.19781,-117.22939 57.89782,-368.847986 c 1.31451,-34.373021 -35.29193,-31.963558 -38.09721,-7.671929 l -53.1323,349.587675 -26.97824,144.34841 z"
       id="path1268"
       sodipodi:nodetypes="ccccccccc" /><path
       style="fill:#313131;fill-opacity:1;stroke:none;stroke-width:1px;stroke-linecap:butt;stroke-linejoin:miter;stroke-opacity:1"
       d="m 857.04405,624.02363 47.07101,2.9766 6.55353,-148.68796 68.54642,-444.89435 c 11.04815,-2.251041 18.6045,-37.3594747 -4.52366,-39.9371054 -24.64684,0.1400165 -22.89499,26.4938034 -5.7855,40.5875144 L 902.05808,480.53666 Z"
       id="path1170"
       sodipodi:nodetypes="cccccccc" /></g><g
     id="g2520"
     transform="matrix(-0.99994806,0.01019267,0.01019267,0.99994806,1219.5608,63.255845)"><path
       style="fill:#0d0d0d;fill-opacity:1;stroke:#0d0d0d;stroke-width:1px;stroke-linecap:butt;stroke-linejoin:miter;stroke-opacity:1"
       d="m 853.86816,624.58192 52.18095,2.91731 17.38155,-123.20332 10.19781,-117.22939 57.89782,-368.847986 c 1.31451,-34.373021 -35.29193,-31.963558 -38.09721,-7.671929 l -53.1323,349.587675 -26.97824,144.34841 z"
       id="path2516"
       sodipodi:nodetypes="ccccccccc" /><path
       style="fill:#313131;fill-opacity:1;stroke:none;stroke-width:1px;stroke-linecap:butt;stroke-linejoin:miter;stroke-opacity:1"
       d="m 857.04405,624.02363 47.07101,2.9766 6.55353,-148.68796 68.54642,-444.89435 c 11.04815,-2.251041 18.6045,-37.3594747 -4.52366,-39.9371054 -24.64684,0.1400165 -22.89499,26.4938034 -5.7855,40.5875144 L 902.05808,480.53666 Z"
       id="path2518"
       sodipodi:nodetypes="cccccccc" /></g><g
     id="g1030"
     transform="translate(-11.767167)">
        <g
   transform="matrix(1.38938,0,0,1.76232,-240.716,-492.957)"
   id="g980">
            <path
   d="m 373.361,829.871 c 117.555,14.274 404.626,11.632 468.834,4.764 41.374,-4.426 62.293,-15.461 65.646,-27.923 11.088,-41.206 2.117,-80.022 -21.868,-116.712 -5.809,-8.886 -22.321,-18.093 -35.861,-21 -94.911,-20.375 -366.99,-25.093 -458.224,0 -17.059,4.692 -30.327,22.609 -36.763,32.368 -21.774,36.447 -32.125,54.248 -30.717,95.6 0.729,21.423 28.983,30.478 48.953,32.903 z"
   style="fill:#333333"
   id="path978" />
        </g>
        <g
   transform="matrix(1.38938,0,0,1.84729,-240.716,-566.35)"
   id="g984">
            <path
   d="m 373.361,829.871 c 117.555,14.274 404.626,11.632 468.834,4.764 41.374,-4.426 62.293,-15.461 65.646,-27.923 11.088,-41.206 2.117,-80.022 -21.868,-116.712 -5.809,-8.886 -22.321,-18.093 -35.861,-21 -94.911,-20.375 -366.99,-25.093 -458.224,0 -17.059,4.692 -30.327,22.609 -36.763,32.368 -21.774,36.447 -32.125,54.248 -30.717,95.6 0.729,21.423 28.983,30.478 48.953,32.903 z"
   style="fill:#ffffff;stroke:#000000;stroke-width:0.61px"
   id="path982" />
        </g>
        <g
   transform="matrix(1.38938,0,0,1.84729,-240.716,-575.35)"
   id="g988">
            <path
   d="m 373.361,829.871 c 117.555,14.274 404.626,11.632 468.834,4.764 41.374,-4.426 62.293,-15.461 65.646,-27.923 11.088,-41.206 2.117,-80.022 -21.868,-116.712 -5.809,-8.886 -22.321,-18.093 -35.861,-21 -94.911,-20.375 -366.99,-25.093 -458.224,0 -17.059,4.692 -30.327,22.609 -36.763,32.368 -21.774,36.447 -32.125,54.248 -30.717,95.6 0.729,21.423 28.983,30.478 48.953,32.903 z"
   style="fill:#ffffff;stroke:#000000;stroke-width:1.22px"
   id="path986" />
        </g>
        <g
   transform="matrix(1.34355,0,0,1.63527,-212.669,-434.891)"
   id="g992">
            <path
   d="m 374.21,830.214 c 87.225,8.706 305.652,11.122 468.139,3.057 38.654,-1.918 65.453,-16.44 66.162,-38.642 1.418,-44.36 -0.511,-64.903 -23.414,-104.017 -5.403,-9.229 -24.926,-19.442 -37.86,-22.594 -94.247,-22.963 -374.385,-23.092 -453.305,-0.241 -22.502,6.515 -25.964,16.366 -35.969,27.727 -17.444,19.807 -26.724,58.119 -29.219,99.125 -0.926,15.228 15.977,32.319 45.466,35.585 z"
   style="fill:#919191;stroke:#000000;stroke-width:0.67px"
   id="path990" />
        </g>
        <g
   transform="matrix(1.31454,0,0,1.59268,-194.28,-409.373)"
   id="g996">
            <path
   d="m 374.081,833.119 c 134.814,11.373 429.354,7.061 476.031,3.14 41.464,-3.483 58.215,-21.187 59.888,-33.878 4.963,-37.652 -0.042,-75.691 -24.027,-112.381 -5.809,-8.886 -22.321,-18.093 -35.861,-21 -94.911,-20.375 -366.99,-25.093 -458.224,0 -17.059,4.692 -26.009,11.241 -32.444,21 -21.774,36.447 -34.284,71.03 -32.877,112.381 0.729,21.423 27.468,29.047 47.514,30.738 z"
   style="fill:#ffffff;stroke:#000000;stroke-width:0.68px"
   id="path994" />
        </g>
        <g
   transform="matrix(1.25765,0,0,1.40517,-160.499,-282.011)"
   id="g1000">
            <path
   d="m 358.707,839.476 c 41.213,10.987 469.997,13.511 520.806,0 26.663,-7.09 31.782,-22.668 31.282,-44.847 C 909.885,754.256 906.048,727.271 886.586,690 881.671,680.589 869.934,673.004 857,669.853 762.753,646.89 476.234,643.907 385,669 c -17.894,7.203 -19.858,11.241 -26.293,21 -20.211,37.842 -29.1,62.974 -30.707,104.629 -0.493,12.787 -5.396,35.222 30.707,44.847 z"
   style="fill:#919191;stroke:#000000;stroke-width:0.75px"
   id="path998" />
        </g>
        <g
   transform="matrix(1.24219,0,0,1.42386,-150.436,-298.315)"
   id="g1004">
            <path
   d="m 374.081,835.631 c 151.959,7.961 399.69,7.501 495.81,0.15 0.646,-0.049 1.276,-0.1 1.889,-0.15 22.723,-1.876 37.727,-16.399 38.22,-33.25 1.18,-40.366 -3.576,-73.863 -24.027,-112.381 -4.999,-9.415 -22.321,-18.093 -35.861,-21 -94.911,-20.375 -366.99,-25.093 -458.224,0 -17.059,4.692 -26.009,11.241 -32.444,21 -20.211,37.842 -28.961,71.888 -29.834,112.381 -0.462,21.431 24.381,32.197 44.471,33.25 z"
   style="fill:#ffffff;stroke:#000000;stroke-width:0.75px"
   id="path1002" />
        </g>
        <g
   transform="matrix(1.1855,0,0,1.2714,-114.836,-186.872)"
   id="g1008">
            <path
   d="m 360.218,837.64 c 93.046,7.48 455,9.566 520.09,0 23.76,-3.491 30.368,-20.808 29.692,-43.011 C 908.772,754.264 906.048,727.271 886.586,690 881.671,680.589 869.934,673.004 857,669.853 762.753,646.89 476.234,643.907 385,669 c -17.894,7.203 -19.858,11.241 -26.293,21 -20.211,37.842 -29.1,62.974 -30.707,104.629 -0.493,12.787 -0.25,40.402 32.218,43.011 z"
   style="fill:#919191;stroke:#000000;stroke-width:0.81px"
   id="path1006" />
        </g>
        <g
   transform="matrix(1.16146,0,0,1.28205,-99.9561,-200.872)"
   id="g1012">
            <path
   d="m 374.081,838.44 c 175.354,4.845 433.211,5.457 499.309,0 22.723,-1.876 36.117,-13.59 36.61,-30.44 1.18,-40.366 -3.576,-79.482 -24.027,-118 -4.999,-9.415 -22.321,-18.093 -35.861,-21 -94.911,-20.375 -366.99,-25.093 -458.224,0 -17.059,4.692 -26.009,11.241 -32.444,21 -20.211,37.842 -30.571,77.507 -31.444,118 -0.462,21.43 26.152,30.44 46.081,30.44 z"
   style="fill:#ffffff;stroke:#000000;stroke-width:0.82px"
   id="path1010" />
        </g>
        <g
   transform="matrix(1.10821,0,0,1.17266,-67.4919,-122.556)"
   id="g1016">
            <path
   d="m 356,838.294 c 91.586,8.465 459.902,7.163 526,1.706 22.723,-1.876 27.507,-15.15 28,-32 1.18,-40.366 -3.952,-80.729 -23.414,-118 C 881.671,680.589 869.934,673.004 857,669.853 762.753,646.89 476.234,643.907 385,669 c -17.894,7.203 -19.858,11.241 -26.293,21 -20.211,37.842 -31.869,77.513 -30.707,118 0.346,12.035 3.793,28.057 28,30.294 z"
   style="fill:#919191;stroke:#000000;stroke-width:0.88px"
   id="path1014" />
        </g>
        <g
   transform="matrix(1.07729,0,0,1.13098,-47.3513,-95.3884)"
   id="g1020">
            <path
   d="m 356,840 c 175.354,4.845 459.902,5.457 526,0 22.723,-1.876 27.507,-15.15 28,-32 1.18,-40.366 -3.73,-79.856 -18,-118 -3.702,-9.895 -21.46,-18.093 -35,-21 -94.911,-20.375 -380.766,-25.093 -472,0 -17.059,4.692 -22.565,11.241 -29,21 -20.211,37.842 -27.127,77.507 -28,118 -0.462,21.43 8.071,32 28,32 z"
   style="fill:#ffffff;stroke:#000000;stroke-width:0.91px"
   id="path1018" />
        </g>
        <g
   transform="matrix(1.01889,0,0,1.03722,-11.197,-26.2606)"
   id="g1024">
            <path
   d="m 356,840 c 175.354,4.845 459.902,5.457 526,0 22.723,-1.876 27.507,-15.15 28,-32 1.18,-40.366 -3.73,-79.856 -18,-118 -3.702,-9.895 -21.46,-18.093 -35,-21 -94.911,-20.375 -380.766,-25.093 -472,0 -17.059,4.692 -22.565,11.241 -29,21 -20.211,37.842 -27.127,77.507 -28,118 -0.462,21.43 8.071,32 28,32 z"
   style="stroke:#000000;stroke-width:0.97px"
   id="path1022" />
        </g>
        <path
   d="m 390,840 c 24.073,0 35.73,-2.684 63,-17 27.207,-14.283 38.027,-15 61,-15 h 208 c 24.042,0 35.528,3.494 55,15 17.741,10.482 37.517,17 62,17 h 43 c 19.824,0 27.507,-15.15 28,-32 1.18,-40.366 -3.73,-79.856 -18,-118 -3.702,-9.895 -21.46,-18.093 -35,-21 -94.911,-20.375 -380.766,-25.093 -472,0 -17.059,4.692 -22.565,11.241 -29,21 -20.211,37.842 -27.127,77.507 -28,118 -0.462,21.43 8.071,32 28,32 z"
   style="fill:#ffffff;stroke:#000000;stroke-width:1px"
   id="path1026" />
        <path
   d="m 390,840 c 24.073,0 35.73,-2.684 63,-17 27.207,-14.283 38.027,-15 61,-15 h 208 c 24.042,0 35.528,3.494 55,15 17.741,10.482 37.517,17 62,17 h 43 c 19.824,0 27.507,-15.15 28,-32 1.18,-40.366 -3.73,-79.856 -18,-118 -3.702,-9.895 -21.46,-18.093 -35,-21 -94.911,-20.375 -380.766,-25.093 -472,0 -17.059,4.692 -22.565,11.241 -29,21 -20.211,37.842 -27.127,77.507 -28,118 -0.462,21.43 8.071,32 28,32 z"
   style="fill:#ffffff;stroke:#000000;stroke-width:1px"
   id="path1028" />
    </g><g
     id="g1102"
     transform="matrix(0.567235,0,0,0.615606,284.25483,234.671)">
        <g
   transform="matrix(1.11419,0,0,0.819387,-134.206,154.197)"
   id="g1038">
            <path
   d="m 532.5,1001.56 c 3.037,-3.06 6.083,-2.457 9.134,0"
   style="fill:none;stroke:#ffffff;stroke-width:3px"
   id="path1032" />
            <path
   d="m 529.218,994.65 c 5.176,-3.942 10.31,-3.82 15.405,0"
   style="fill:none;stroke:#ffffff;stroke-width:3px"
   id="path1034" />
            <path
   d="m 526.539,988.847 c 6.781,-4.897 13.694,-5.464 20.791,0"
   style="fill:none;stroke:#ffffff;stroke-width:3px"
   id="path1036" />
        </g>
        <g
   transform="matrix(1.07743,-0.00297445,0.00258418,0.936066,-170.754,40.2477)"
   id="g1046">
            <g
   transform="matrix(1,0,0,1.14185,0,-139.828)"
   id="g1042">
                <path
   d="m 626.349,996.053 h -3.276 V 985.75 h 18.143 v 10.303 h -3.033"
   style="fill:none;stroke:#ffffff;stroke-width:3px"
   id="path1040" />
            </g>
            <path
   d="m 626.295,1003.22 h 11.042 -4.985 v -7.799"
   style="fill:none;stroke:#ffffff;stroke-width:3px"
   id="path1044" />
        </g>
        <g
   transform="matrix(1.07743,-0.00297445,0.00258418,0.936066,-121.697,40.2477)"
   id="g1054">
            <g
   transform="matrix(1,0,0,1.14185,0,-139.828)"
   id="g1050">
                <path
   d="m 626.349,996.053 h -3.276 V 985.75 h 18.143 v 10.303 h -3.033"
   style="fill:none;stroke:#ffffff;stroke-width:3px"
   id="path1048" />
            </g>
            <path
   d="m 626.295,1003.22 h 11.042 -4.985 v -7.799"
   style="fill:none;stroke:#ffffff;stroke-width:3px"
   id="path1052" />
        </g>
        <g
   transform="matrix(1.07743,-0.00297445,0.00258418,0.936066,-71.9361,40.2477)"
   id="g1062">
            <g
   transform="matrix(1,0,0,1.14185,0,-139.828)"
   id="g1058">
                <path
   d="m 626.349,996.053 h -3.276 V 985.75 h 18.143 v 10.303 h -3.033"
   style="fill:none;stroke:#ffffff;stroke-width:3px"
   id="path1056" />
            </g>
            <path
   d="m 626.295,1003.22 h 11.042 -4.985 v -7.799"
   style="fill:none;stroke:#ffffff;stroke-width:3px"
   id="path1060" />
        </g>
        <g
   transform="matrix(1.07743,-0.00297445,0.00258418,0.936066,-22.753,40.2477)"
   id="g1070">
            <g
   transform="matrix(1,0,0,1.14185,0,-139.828)"
   id="g1066">
                <path
   d="m 626.349,996.053 h -3.276 V 985.75 h 18.143 v 10.303 h -3.033"
   style="fill:none;stroke:#ffffff;stroke-width:3px"
   id="path1064" />
            </g>
            <path
   d="m 626.295,1003.22 h 11.042 -4.985 v -7.799"
   style="fill:none;stroke:#ffffff;stroke-width:3px"
   id="path1068" />
        </g>
        <g
   id="g1080"
   transform="matrix(1.63302,0,0,2.23473,-493.471,-1248.75)">
            <g
   transform="matrix(1.27235,-0.227769,0.318368,1.77845,-475.111,-424.452)"
   id="g1074">
                <ellipse
   cx="729.34601"
   cy="889.27002"
   rx="6.3779998"
   ry="1.404"
   style="fill:none;stroke:#ffffff;stroke-width:1.36px"
   id="ellipse1072" />
            </g>
            <g
   transform="matrix(1.09502,0,0,1.09781,-70.6185,8.19739)"
   id="g1078">
                <ellipse
   cx="737.79602"
   cy="896.539"
   rx="5.4260001"
   ry="3.783"
   style="fill:none;stroke:#ffffff;stroke-width:1.94px"
   id="ellipse1076" />
            </g>
        </g>
        <g
   id="g1086"
   transform="matrix(1.32005,0,0,1.21633,-269.962,-54.2529)">
            <rect
   x="771.78003"
   y="838.06097"
   width="15.937"
   height="9.5299997"
   style="fill:none;stroke:#ffffff;stroke-width:3.34px"
   id="rect1082" />
            <path
   d="m 773.83,838.061 c -0.024,-8.796 11.892,-8.573 11.915,0"
   style="fill:none;stroke:#ffffff;stroke-width:3.34px"
   id="path1084" />
        </g>
        <g
   transform="matrix(2.89984,0,-0.0326112,2.83938,-2052.22,-1945.63)"
   id="g1090">
            <path
   d="m 862.856,1021.29 c -0.274,-0.02 -0.55,-0.02 -0.825,0 l -0.124,0.66 c -0.262,0.04 -0.519,0.1 -0.767,0.2 l -0.433,-0.5 c -0.251,0.11 -0.49,0.25 -0.714,0.41 l 0.218,0.63 c -0.207,0.16 -0.396,0.35 -0.561,0.56 l -0.626,-0.22 c -0.161,0.22 -0.299,0.46 -0.413,0.72 l 0.502,0.43 c -0.096,0.24 -0.165,0.5 -0.205,0.76 l -0.652,0.13 c -0.027,0.27 -0.027,0.55 0,0.82 l 0.652,0.13 c 0.04,0.26 0.109,0.52 0.205,0.77 l -0.502,0.43 c 0.114,0.25 0.252,0.49 0.413,0.71 l 0.626,-0.22 c 0.165,0.21 0.354,0.4 0.561,0.57 l -0.218,0.62 c 0.224,0.16 0.463,0.3 0.714,0.41 l 0.433,-0.5 c 0.248,0.1 0.505,0.17 0.767,0.21 l 0.124,0.65 c 0.275,0.03 0.551,0.03 0.825,0 l 0.124,-0.65 c 0.263,-0.04 0.52,-0.11 0.767,-0.21 l 0.433,0.5 c 0.251,-0.11 0.491,-0.25 0.715,-0.41 l -0.219,-0.62 c 0.208,-0.17 0.396,-0.36 0.562,-0.57 l 0.626,0.22 c 0.161,-0.22 0.299,-0.46 0.412,-0.71 l -0.502,-0.43 c 0.097,-0.25 0.166,-0.51 0.206,-0.77 l 0.651,-0.13 c 0.027,-0.27 0.027,-0.55 0,-0.82 l -0.651,-0.13 c -0.04,-0.26 -0.109,-0.52 -0.206,-0.76 l 0.502,-0.43 c -0.113,-0.26 -0.251,-0.5 -0.412,-0.72 l -0.626,0.22 c -0.166,-0.21 -0.354,-0.4 -0.562,-0.56 l 0.219,-0.63 c -0.224,-0.16 -0.464,-0.3 -0.715,-0.41 l -0.433,0.5 c -0.247,-0.1 -0.504,-0.16 -0.767,-0.2 z m -0.412,3.35 c 0.464,0 0.841,0.38 0.841,0.84 0,0.47 -0.377,0.84 -0.841,0.84 -0.465,0 -0.842,-0.37 -0.842,-0.84 0,-0.46 0.377,-0.84 0.842,-0.84 z"
   style="fill:#ffffff;stroke:#ffffff;stroke-width:0.41px"
   id="path1088" />
        </g>
        <g
   id="g1100"
   transform="matrix(3.33575,0,0,2.56002,-1187.37,-1540.23)">
            <g
   transform="matrix(0.74223,0,0,0.74223,119.215,252.802)"
   id="g1094">
                <circle
   cx="466.63501"
   cy="978.914"
   r="4.395"
   style="fill:none;stroke:#ffffff;stroke-width:1.93px"
   id="circle1092" />
            </g>
            <g
   transform="matrix(1,0,0,1.21477,-0.143123,-210.642)"
   id="g1098">
                <path
   d="m 466.406,975.365 c 0,-0.18 -0.148,-0.326 -0.33,-0.326 h -0.659 c -0.182,0 -0.33,0.146 -0.33,0.326 v 3.814 c 0,0.18 0.148,0.326 0.33,0.326 h 0.659 c 0.182,0 0.33,-0.146 0.33,-0.326 z"
   style="fill:#ffffff;stroke:#0d0d0d;stroke-width:0.39px"
   id="path1096" />
            </g>
        </g>
    </g></g></svg>
