<?xml version="1.0" encoding="UTF-8"?>
<svg width="514" height="514" version="1.1" viewBox="0 0 514 398.7" xmlns="http://www.w3.org/2000/svg" xmlns:cc="http://creativecommons.org/ns#" xmlns:dc="http://purl.org/dc/elements/1.1/" xmlns:rdf="http://www.w3.org/1999/02/22-rdf-syntax-ns#">
 <metadata>
  <rdf:RDF>
   <cc:Work rdf:about="">
    <dc:format>image/svg+xml</dc:format>
    <dc:type rdf:resource="http://purl.org/dc/dcmitype/StillImage"/>
    <dc:title/>
    <cc:license rdf:resource="http://creativecommons.org/licenses/by-nc-sa/4.0/"/>
    <dc:creator>
     <cc:Agent>
      <dc:title>Jan Alexander</dc:title>
     </cc:Agent>
    </dc:creator>
   </cc:Work>
   <cc:License rdf:about="http://creativecommons.org/licenses/by-nc-sa/4.0/">
    <cc:permits rdf:resource="http://creativecommons.org/ns#Reproduction"/>
    <cc:permits rdf:resource="http://creativecommons.org/ns#Distribution"/>
    <cc:requires rdf:resource="http://creativecommons.org/ns#Notice"/>
    <cc:requires rdf:resource="http://creativecommons.org/ns#Attribution"/>
    <cc:prohibits rdf:resource="http://creativecommons.org/ns#CommercialUse"/>
    <cc:permits rdf:resource="http://creativecommons.org/ns#DerivativeWorks"/>
    <cc:requires rdf:resource="http://creativecommons.org/ns#ShareAlike"/>
   </cc:License>
  </rdf:RDF>
 </metadata>
 <g>
  <g transform="translate(-14.229 -.35331)">
   <path d="m119.11 415.57v-428.55c29.351-3.1319 58.72-5.9974 88.258-6.3768 34.9-1.288 69.867-0.80426 104.78-0.46034 34.101 1.5733 68.155 3.8292 102.16 6.8371v428.55c-53.861 1.7811-107.7 4.7589-161.61 3.8841-44.546 0.19984-89.061-2.6595-133.58-3.8841z" fill="#0d0d0d" stroke="#666" stroke-width="1px"/>
   <path d="m119.11 324.29c38.202 1.1201 76.396 2.7951 114.6 3.5604 35.003-0.16069 70.021 0.58992 105-1.056 25.197-0.83483 50.393-1.6697 75.59-2.5045" fill="none" stroke="#666" stroke-width="1px"/>
   <g fill="#0499db">
    <circle cx="200.67" cy="315.85" r="1.5"/>
    <circle cx="253.28" cy="315.85" r="1.5"/>
    <circle cx="280.14" cy="315.85" r="1.5"/>
    <circle cx="332.58" cy="315.85" r="1.5"/>
    <circle cx="227.38" cy="315.85" r="1.5"/>
    <circle cx="306.2" cy="315.85" r="1.5"/>
   </g>
   <g fill="#0d0d0d" stroke="#666">
    <rect x="414.31" y="308.67" width="9.0383" height="19.108"/>
    <rect x="414.31" y="282.54" width="4.7205" height="7.9813"/>
    <rect x="414.31" y="253.98" width="4.7079" height="7.1506"/>
   </g>
  </g>
 </g>
</svg>
