<?xml version="1.0" encoding="UTF-8" standalone="no"?>
<svg
   version="1.1"
   viewBox="0 0 514 514"
   id="svg20"
   sodipodi:docname="tp-link-archer-c60.svg"
   inkscape:version="1.2 (1:1.2+202206011327+fc4e4096c5)"
   xmlns:inkscape="http://www.inkscape.org/namespaces/inkscape"
   xmlns:sodipodi="http://sodipodi.sourceforge.net/DTD/sodipodi-0.dtd"
   xmlns="http://www.w3.org/2000/svg"
   xmlns:svg="http://www.w3.org/2000/svg"
   xmlns:rdf="http://www.w3.org/1999/02/22-rdf-syntax-ns#"
   xmlns:cc="http://creativecommons.org/ns#"
   xmlns:dc="http://purl.org/dc/elements/1.1/">
  <defs
     id="defs24" />
  <sodipodi:namedview
     id="namedview22"
     pagecolor="#ffffff"
     bordercolor="#666666"
     borderopacity="1.0"
     inkscape:showpageshadow="2"
     inkscape:pageopacity="0.0"
     inkscape:pagecheckerboard="0"
     inkscape:deskcolor="#d1d1d1"
     showgrid="false"
     inkscape:zoom="1.2986553"
     inkscape:cx="451.62101"
     inkscape:cy="288.37522"
     inkscape:window-width="1920"
     inkscape:window-height="1021"
     inkscape:window-x="0"
     inkscape:window-y="0"
     inkscape:window-maximized="1"
     inkscape:current-layer="svg20" />
  <metadata
     id="metadata2">
    <rdf:RDF>
      <cc:Work
         rdf:about="">
        <dc:format>image/svg+xml</dc:format>
        <dc:type
           rdf:resource="http://purl.org/dc/dcmitype/StillImage" />
        <dc:title />
        <cc:license
           rdf:resource="http://creativecommons.org/licenses/by-nc-sa/4.0/" />
        <dc:creator>
          <cc:Agent>
            <dc:title>Jan Alexander</dc:title>
          </cc:Agent>
        </dc:creator>
      </cc:Work>
      <cc:License
         rdf:about="http://creativecommons.org/licenses/by-nc-sa/4.0/">
        <cc:permits
           rdf:resource="http://creativecommons.org/ns#Reproduction" />
        <cc:permits
           rdf:resource="http://creativecommons.org/ns#Distribution" />
        <cc:requires
           rdf:resource="http://creativecommons.org/ns#Notice" />
        <cc:requires
           rdf:resource="http://creativecommons.org/ns#Attribution" />
        <cc:prohibits
           rdf:resource="http://creativecommons.org/ns#CommercialUse" />
        <cc:permits
           rdf:resource="http://creativecommons.org/ns#DerivativeWorks" />
        <cc:requires
           rdf:resource="http://creativecommons.org/ns#ShareAlike" />
      </cc:License>
    </rdf:RDF>
  </metadata>
  <path
     d="m 259.1908,68.312 a 7.7368,6.1603 0 0 1 7.7383,6.1602 7.7368,6.1603 0 0 1 -0.006,0.20117 h 0.002 l -1.8789,179.2 2.4922,54.041 v 36.242 h -21.086 v -39.285 l 2.8535,-48.922 2.1484,-181.48 a 7.7368,6.1603 0 0 1 7.7363,-6.1602 z"
     stroke-width="1.0902"
     id="path873"
     style="fill:#cccccc;stroke:#666666" />
  <path
     d="M 28.898,371.25 V 91.33 l 21.978,16.332 v 263.59 z"
     stroke-width="1px"
     id="path4"
     style="fill:#cccccc;stroke:#666666" />
  <path
     d="M 484.86,371.25 V 91.33 l -21.978,16.332 v 263.59 z"
     stroke-width="1px"
     id="path6"
     style="fill:#cccccc;stroke:#666666" />
  <path
     d="m 131.11,68.312 a 7.7368,6.1603 0 0 0 -7.7383,6.1602 7.7368,6.1603 0 0 0 0.006,0.20117 h -0.002 l 1.8789,179.2 -2.4922,54.041 v 36.242 h 21.086 v -39.285 l -2.8535,-48.922 -2.1484,-181.48 a 7.7368,6.1603 0 0 0 -7.7363,-6.1602 z"
     stroke-width="1.0902"
     id="path8"
     style="fill:#cccccc;stroke:#666666" />
  <path
     d="m 384.16,68.312 a 7.7368,6.1603 0 0 1 7.7383,6.1602 7.7368,6.1603 0 0 1 -0.006,0.20117 h 0.002 l -1.8789,179.2 2.4922,54.041 v 36.242 h -21.086 v -39.285 l 2.8535,-48.922 2.1484,-181.48 a 7.7368,6.1603 0 0 1 7.7363,-6.1602 z"
     stroke-width="1.0902"
     id="path10"
     style="fill:#cccccc;stroke:#666666" />
  <path
     d="m 27.802,411.53 c 20.959,9.7997 42.034,19.428 63.252,28.614 17.328,5.7103 36,4.0242 53.981,5.3273 74.28,0.47191 148.58,0.15572 222.87,0.15937 19.508,-1.2829 39.749,2.3375 58.331,-6.4338 20.511,-9.8666 40.537,-18.605 60.958,-27.666 z"
     fill="#999999"
     stroke-width="1px"
     id="path14"
     style="stroke:#666666" />
  <path
     d="m 87.897,334.03 c 29.088,2.3409 58.276,3.2228 87.418,4.6964 45.513,1.3392 91.084,1.7779 136.6,0.78558 44.449,-1.4213 88.831,-6.4484 133.34,-5.2125 14.27,2.9196 24.393,14.707 34.789,24.069 8.9434,8.9112 17.052,19.436 21.549,31.267 3.7762,9.4098 -4.4886,17.662 -12.59,21.076 -12.678,5.9222 -27.07,7.8683 -40.892,9.715 -65.945,7.7228 -132.45,7.1031 -198.74,7.7735 -43.658,0.46331 -87.289,-1.0184 -130.86,-3.738 -29.26,-2.0651 -59.28,-2.443 -87.355,-11.697 -7.8392,-2.8794 -17.175,-5.9292 -19.257,-15.028 -2.4374,-10.32 5.8441,-19.12 11.153,-27.17 9.2399,-12.869 21.085,-24.072 34.142,-32.903 9.3088,-5.3893 20.464,-2.8913 30.698,-3.6355 z"
     fill="#f2f2f2"
     stroke-width="1px"
     id="path16"
     style="stroke:#666666" />
</svg>
