<?xml version="1.0" encoding="UTF-8"?>
<svg version="1.1" viewBox="0 0 514 514" xmlns="http://www.w3.org/2000/svg" xmlns:cc="http://creativecommons.org/ns#" xmlns:dc="http://purl.org/dc/elements/1.1/" xmlns:rdf="http://www.w3.org/1999/02/22-rdf-syntax-ns#">
 <metadata>
  <rdf:RDF>
   <cc:Work rdf:about="">
    <dc:format>image/svg+xml</dc:format>
    <dc:type rdf:resource="http://purl.org/dc/dcmitype/StillImage"/>
    <dc:title/>
    <cc:license rdf:resource="http://creativecommons.org/licenses/by-nc-sa/4.0/"/>
    <dc:creator>
     <cc:Agent>
      <dc:title>Jan Alexander</dc:title>
     </cc:Agent>
    </dc:creator>
   </cc:Work>
   <cc:License rdf:about="http://creativecommons.org/licenses/by-nc-sa/4.0/">
    <cc:permits rdf:resource="http://creativecommons.org/ns#Reproduction"/>
    <cc:permits rdf:resource="http://creativecommons.org/ns#Distribution"/>
    <cc:requires rdf:resource="http://creativecommons.org/ns#Notice"/>
    <cc:requires rdf:resource="http://creativecommons.org/ns#Attribution"/>
    <cc:prohibits rdf:resource="http://creativecommons.org/ns#CommercialUse"/>
    <cc:permits rdf:resource="http://creativecommons.org/ns#DerivativeWorks"/>
    <cc:requires rdf:resource="http://creativecommons.org/ns#ShareAlike"/>
   </cc:License>
  </rdf:RDF>
 </metadata>
 <g>
  <g transform="translate(-5.1409 21.802)">
   <g stroke="#666">
    <path d="m317.92 40.578c-2.8352 0-5.1191 2.282-5.1191 5.1172v190.52c0 2.8352 2e-3 5.1172 2e-3 5.1172h19.699v-195.64c0-2.8352-2.282-5.1172-5.1172-5.1172z" fill="#0d0d0d"/>
    <path d="m312.8 233.08h19.7" fill="none" stroke-width="1px"/>
   </g>
   <g transform="translate(-122.01 -.077345)" stroke="#666">
    <path d="m317.92 40.578c-2.8352 0-5.1191 2.282-5.1191 5.1172v190.52c0 2.8352 2e-3 5.1172 2e-3 5.1172h19.699v-195.64c0-2.8352-2.282-5.1172-5.1172-5.1172z" fill="#0d0d0d"/>
    <path d="m312.8 233.08h19.7" fill="none" stroke-width="1px"/>
   </g>
   <g transform="translate(-241.44 .18822)" stroke="#666">
    <path d="m317.92 40.578c-2.8352 0-5.1191 2.282-5.1191 5.1172v190.52c0 2.8352 2e-3 5.1172 2e-3 5.1172h19.699v-195.64c0-2.8352-2.282-5.1172-5.1172-5.1172z" fill="#0d0d0d"/>
    <path d="m312.8 233.08h19.7" fill="none" stroke-width="1px"/>
   </g>
   <g transform="translate(118.83 .73372)" stroke="#666">
    <path d="m317.92 40.578c-2.8352 0-5.1191 2.282-5.1191 5.1172v190.52c0 2.8352 2e-3 5.1172 2e-3 5.1172h19.699v-195.64c0-2.8352-2.282-5.1172-5.1172-5.1172z" fill="#0d0d0d"/>
    <path d="m312.8 233.08h19.7" fill="none" stroke-width="1px"/>
   </g>
   <path d="m501.74 394.65c0.3747 10.231-3.7532 14.494-18.75 26.24-12.806 8.7124-28.962 9.4422-43.968 8.8412h-372.55c-15.241-2.5421-29.865-9.6007-39.413-22.049-6.7573-6.5867-3.6907-9.0268-4.5186-13.033z" fill="#0d0d0d" stroke="#666" stroke-width="1px"/>
   <path d="m23.63 396.33c-2.248 10.424 10.656 14.641 18.863 14.535 147.12-0.11379 294.28 0.22755 441.37-0.17062 7.6579-0.79152 18.971-4.574 16.922-14.365h-477.16z" fill="none" stroke="#ccc" stroke-width="4"/>
   <g stroke="#666">
    <path d="m487.36 317.01c-6.3994-5.2004-15.309-4.7658-23.076-5.8049-133.94 0.0566-267.9-0.11327-401.83 0.0849-8.5274 1.2036-18.027 0.18273-25.273 5.7199m-0.0016 7e-3c4.7741-22.235 9.6199-44.454 14.596-66.636 1.7969-9.085 21.871-7.7183 32.859-8.8218 95.693-0.61283 191.41-0.0885 287.11-0.26312 28.869 0.49458 57.876-1.174 86.649 1.2951 9.4499 1.277 13.995 4.3528 16.363 15.16 4.2106 19.769 8.4309 39.539 12.623 59.314" fill="#4d4d4d" stroke-width="1px"/>
    <path d="m487.36 317.01c-6.3994-5.2004-15.309-4.7658-23.076-5.8049-133.94 0.0566-267.9-0.11327-401.83 0.0849-8.5274 1.2036-18.027 0.18273-25.273 5.7199m450.2 0.0553c5.1151 24.132 10.188 48.273 15.148 72.435 0.89224 9.6846-10.161 13.697-18.177 13.166-80.255 0.62733-160.57 0.0899-240.84 0.26898h-202.19c-7.5755-1.3194-20.706-2.9672-19.523-13.356 5.0968-24.19 10.203-48.386 15.394-72.562" fill="#0d0d0d" stroke-width="1px"/>
    <path d="m257.82 311.2v61.145c0 0.77524 0.62515 1.3984 1.4004 1.3984h5.8359c0.77525 0 1.4004-0.62319 1.4004-1.3984v-61.145z" fill="#ccc"/>
    <path d="m259.22 254.99c-0.77524 0-1.4004 0.62319-1.4004 1.3984v54.812h8.6367v-54.812c0-0.77524-0.62319-1.3984-1.3984-1.3984z" fill="#999"/>
   </g>
  </g>
 </g>
</svg>
