<?xml version="1.0" encoding="UTF-8" standalone="no"?>
<svg
   width="100%"
   height="100%"
   viewBox="0 0 1280 1150"
   version="1.1"
   xml:space="preserve"
   style="fill-rule:evenodd;clip-rule:evenodd;stroke-linecap:round;stroke-linejoin:round;stroke-miterlimit:1.41421;"
   id="svg42"
   sodipodi:docname="tp-link-cpe510-v1-1.svg"
   inkscape:version="1.2 (1:1.2+202206011327+fc4e4096c5)"
   xmlns:inkscape="http://www.inkscape.org/namespaces/inkscape"
   xmlns:sodipodi="http://sodipodi.sourceforge.net/DTD/sodipodi-0.dtd"
   xmlns="http://www.w3.org/2000/svg"
   xmlns:svg="http://www.w3.org/2000/svg"><sodipodi:namedview
   id="namedview44"
   pagecolor="#ffffff"
   bordercolor="#666666"
   borderopacity="1.0"
   inkscape:showpageshadow="2"
   inkscape:pageopacity="0.0"
   inkscape:pagecheckerboard="0"
   inkscape:deskcolor="#d1d1d1"
   showgrid="false"
   inkscape:zoom="4.6435395"
   inkscape:cx="748.56691"
   inkscape:cy="1080.3181"
   inkscape:window-width="2560"
   inkscape:window-height="1369"
   inkscape:window-x="0"
   inkscape:window-y="0"
   inkscape:window-maximized="1"
   inkscape:current-layer="svg42" />
    
    
    <defs
   id="defs40">
        <linearGradient
   id="_Linear1"
   x1="0"
   y1="0"
   x2="1"
   y2="0"
   gradientUnits="userSpaceOnUse"
   gradientTransform="matrix(0.313281,-42.1159,39.1081,0.337376,698.209,1047.75)"><stop
     offset="0%"
     style="stop-color:white;stop-opacity:1"
     id="stop20" /><stop
     offset="100%"
     style="stop-color:black;stop-opacity:1"
     id="stop22" /></linearGradient>
        <linearGradient
   id="_Linear2"
   x1="0"
   y1="0"
   x2="1"
   y2="0"
   gradientUnits="userSpaceOnUse"
   gradientTransform="matrix(-35.2524,-71.7231,71.163,-35.5299,531.5,148.802)"><stop
     offset="0%"
     style="stop-color:white;stop-opacity:1"
     id="stop25" /><stop
     offset="100%"
     style="stop-color:black;stop-opacity:1"
     id="stop27" /></linearGradient>
        <linearGradient
   id="_Linear3"
   x1="0"
   y1="0"
   x2="1"
   y2="0"
   gradientUnits="userSpaceOnUse"
   gradientTransform="matrix(25.8728,-70.2419,70.2419,25.8728,715.935,151.092)"><stop
     offset="0%"
     style="stop-color:white;stop-opacity:1"
     id="stop30" /><stop
     offset="100%"
     style="stop-color:black;stop-opacity:1"
     id="stop32" /></linearGradient>
        <linearGradient
   id="_Linear4"
   x1="0"
   y1="0"
   x2="1"
   y2="0"
   gradientUnits="userSpaceOnUse"
   gradientTransform="matrix(4.02149,-88.148,88.148,4.02149,612.643,145.311)"><stop
     offset="0%"
     style="stop-color:white;stop-opacity:1"
     id="stop35" /><stop
     offset="100%"
     style="stop-color:black;stop-opacity:1"
     id="stop37" /></linearGradient>
    </defs>
<g
   id="g22155"
   transform="matrix(1.0881033,0,0,1.0881033,1233.5848,-59.323982)"><path
     style="fill:#e5e7e6;fill-opacity:1;stroke:none;stroke-width:1px;stroke-linecap:butt;stroke-linejoin:miter;stroke-opacity:1"
     d="m -570.34191,166.73177 c 64.68431,1.46714 129.58758,2.90285 199.58398,3.60754 l 1.34269,888.00179 c -65.11628,14.849 -133.06375,23.972 -200.78718,33.5481 z"
     id="path342"
     sodipodi:nodetypes="ccccc" /><path
     style="fill:#eeeeee;fill-opacity:1;stroke:none;stroke-width:1px;stroke-linecap:butt;stroke-linejoin:miter;stroke-opacity:1"
     d="m -580.12209,165.87544 0.55747,924.77596 9.3622,1.2378 -0.13949,-925.15743 199.58398,3.60754 C -438.88808,138.5191 -505.17429,106.19827 -586.64952,78.001235 l -134.65769,-3.970147 41.08477,34.641632 c 34.79019,19.25889 67.12819,39.19845 100.10035,57.20272 z"
     id="path440"
     sodipodi:nodetypes="ccccccccc" /><path
     style="fill:#ffffff;fill-opacity:1;stroke:none;stroke-width:1px;stroke-linecap:butt;stroke-linejoin:miter;stroke-opacity:1"
     d="m -672.20905,110.19534 95.17836,2.60168 -8.72298,-32.093023 -125.27262,-3.261182 z"
     id="path442" /><path
     style="fill:#e5e5e5;fill-opacity:1;stroke:none;stroke-width:1px;stroke-linecap:butt;stroke-linejoin:miter;stroke-opacity:1"
     d="m -577.03069,112.79702 79.1401,3.00585 -87.86308,-35.098873 z"
     id="path1686" /><path
     style="fill:#dadcdb;fill-opacity:1;stroke:none;stroke-width:1px;stroke-linecap:butt;stroke-linejoin:miter;stroke-opacity:1"
     d="m -680.22244,108.67272 -0.056,91.29507 -41.35112,-58.15775 0.32231,-67.778952 z"
     id="path4525" /><path
     style="fill:#dcdedd;fill-opacity:1;stroke:none;stroke-width:1px;stroke-linecap:butt;stroke-linejoin:miter;stroke-opacity:1"
     d="m -579.56462,1090.6514 -100.43467,-78.7441 -0.27915,-811.93951 0.056,-91.29507 100.10035,57.20272 z"
     id="path4527" /><path
     style="fill:#e1e3e2;fill-opacity:1;stroke:none;stroke-width:1px;stroke-linecap:butt;stroke-linejoin:miter;stroke-opacity:1"
     d="m -658.17394,566.87765 28.25241,0.86918 v 199.59071 l -28.46633,-1.15166 z"
     id="path4529" /><path
     style="fill:#b9bbba;fill-opacity:1;stroke:none;stroke-width:1px;stroke-linecap:butt;stroke-linejoin:miter;stroke-opacity:1"
     d="m -639.40734,576.21104 h 5.28975 l -4.60549,99.21963 z"
     id="path4531" /><path
     style="fill:#afdb88;fill-opacity:1;stroke:none;stroke-width:1px;stroke-linecap:butt;stroke-linejoin:miter;stroke-opacity:1"
     d="m -648.67255,582.9581 v 12.00742 h 6.22791 l -0.0506,-12.00742 z"
     id="path5085" /><path
     style="fill:#afdb88;fill-opacity:1;stroke:none;stroke-width:1px;stroke-linecap:butt;stroke-linejoin:miter;stroke-opacity:1"
     d="m -648.67255,609.16018 v 12.00742 h 6.22791 l -0.0506,-12.00742 z"
     id="path18152" /><path
     style="fill:#afdb88;fill-opacity:1;stroke:none;stroke-width:1px;stroke-linecap:butt;stroke-linejoin:miter;stroke-opacity:1"
     d="m -648.67255,634.77446 v 12.00742 h 6.22791 l -0.0506,-12.00742 z"
     id="path18154" /><path
     style="fill:#afdb88;fill-opacity:1;stroke:none;stroke-width:1px;stroke-linecap:butt;stroke-linejoin:miter;stroke-opacity:1"
     d="m -648.67255,660.38874 v 12.00742 h 6.22791 l -0.0506,-12.00742 z"
     id="path18156" /><path
     style="fill:#afdb88;fill-opacity:1;stroke:none;stroke-width:1px;stroke-linecap:butt;stroke-linejoin:miter;stroke-opacity:1"
     d="m -648.67255,686.00302 v 12.00742 h 6.22791 l -0.0506,-12.00742 z"
     id="path18158" /><path
     style="fill:#afdb88;fill-opacity:1;stroke:none;stroke-width:1px;stroke-linecap:butt;stroke-linejoin:miter;stroke-opacity:1"
     d="m -648.67255,711.6173 v 12.00742 h 6.22791 l -0.0506,-12.00742 z"
     id="path18160" /><path
     style="fill:#afdb88;fill-opacity:1;stroke:none;stroke-width:1px;stroke-linecap:butt;stroke-linejoin:miter;stroke-opacity:1"
     d="M -648.67255,737.23158 V 749.239 h 6.22791 l -0.0506,-12.00742 z"
     id="path18162" /><path
     style="fill:#bec0bf;fill-opacity:1;stroke:none;stroke-width:1px;stroke-linecap:butt;stroke-linejoin:miter;stroke-opacity:1"
     d="m -680.22244,261.31683 c 1.35002,-15.56339 -14.09269,-27.91909 -31.96912,-40.09285 l -1.88348,-3.25149 0.12404,-65.36303 33.67256,47.35833 z"
     id="path20043"
     sodipodi:nodetypes="cccccc" /><path
     style="fill:#c7c9c8;fill-opacity:1;stroke:none;stroke-width:1px;stroke-linecap:butt;stroke-linejoin:miter;stroke-opacity:1"
     d="m -680.14717,581.76914 c -0.36508,25.61176 -22.41915,34.22316 -33.81272,50.93135 v 122.02512 c 12.07297,-0.0676 27.00984,-1.41279 33.87272,1.58288 z"
     id="path20252"
     sodipodi:nodetypes="ccccc" /><path
     style="fill:#f7f7f7;fill-opacity:1;stroke:none;stroke-width:1px;stroke-linecap:butt;stroke-linejoin:miter;stroke-opacity:1"
     d="m -437.9026,169.12565 c -17.76987,239.72483 -63.24032,475.60541 -132.33215,708.32821 l -0.10716,-710.72209 z"
     id="path21849"
     sodipodi:nodetypes="cccc" /></g><path
   style="fill:none;stroke:#000000;stroke-width:1.0881px;stroke-linecap:butt;stroke-linejoin:miter;stroke-opacity:1"
   d="m 493.67532,1041.7357 109.2833,85.6817 10.18704,1.3469 c 73.63702,-8.8809 146.2798,-21.7901 218.47719,-36.5038 L 830.16186,126.02278 C 753.92449,90.076983 677.84908,53.93885 595.24951,25.54942 l -146.52152,-4.31993 -0.3507,73.750498 8.35506,11.750882 -0.13497,71.12173 2.04942,3.53796 c 13.69768,10.84177 35.5236,23.27419 34.17556,39.6843 l 0.69205,352.62608 c -2.24696,30.191 -23.76018,37.84372 -36.79173,55.41857 v 132.77593 c 12.6289,0.0664 26.54019,-1.76428 36.85702,1.72234 z"
   id="path22157"
   sodipodi:nodetypes="ccccccccccccccccc" /></svg>
