<?xml version="1.0" encoding="UTF-8" standalone="no"?>
<svg
   width="100%"
   height="100%"
   viewBox="0 0 1280 1150"
   version="1.1"
   xml:space="preserve"
   style="fill-rule:evenodd;clip-rule:evenodd;stroke-linecap:round;stroke-linejoin:round;stroke-miterlimit:1.41421;"
   id="svg127"
   sodipodi:docname="tp-link-tl-wa860re-v1.svg"
   inkscape:version="1.2 (1:1.2+202206011327+fc4e4096c5)"
   xmlns:inkscape="http://www.inkscape.org/namespaces/inkscape"
   xmlns:sodipodi="http://sodipodi.sourceforge.net/DTD/sodipodi-0.dtd"
   xmlns="http://www.w3.org/2000/svg"
   xmlns:svg="http://www.w3.org/2000/svg"><defs
   id="defs131" /><sodipodi:namedview
   id="namedview129"
   pagecolor="#ffffff"
   bordercolor="#666666"
   borderopacity="1.0"
   inkscape:showpageshadow="2"
   inkscape:pageopacity="0.0"
   inkscape:pagecheckerboard="0"
   inkscape:deskcolor="#d1d1d1"
   showgrid="false"
   inkscape:zoom="0.58044244"
   inkscape:cx="553.88783"
   inkscape:cy="569.39324"
   inkscape:window-width="1920"
   inkscape:window-height="1021"
   inkscape:window-x="0"
   inkscape:window-y="0"
   inkscape:window-maximized="1"
   inkscape:current-layer="svg127" />
    
    <g
   id="g983"
   transform="translate(92.92,-2.3248539)"><g
     id="Ebene3">
        <rect
   x="404.20599"
   y="491.634"
   width="285.27802"
   height="288.168"
   style="fill:#e9e9e9;stroke:#000000;stroke-width:1px"
   id="rect2" />
        <path
   d="m 367.605,495.719 v 541.831 l 23.409,29.28 26.382,-14.83 V 481.363 l -26.448,-13.438 z"
   style="fill:#e6e6e6;stroke:#000000;stroke-width:1px"
   id="path4" />
        <path
   d="m 726.354,496.577 v 541.583 l -25.923,27.6 -13.352,-13.41 V 476.885 l 14.589,-8.929 z"
   style="fill:#e6e6e6;stroke:#000000;stroke-width:1px"
   id="path6" />
        <path
   d="m 730.264,843.159 v 52.899 l -3.896,2.893 v -58.604 z"
   style="fill:#ffffff;stroke:#000000;stroke-width:1px"
   id="path8" />
        <path
   d="m 730.264,903.654 v 53.303 l -3.899,2.667 v -58.235 z"
   style="fill:#ffffff;stroke:#000000;stroke-width:1px"
   id="path10" />
        <g
   id="Erde">
            <path
   d="M 576.711,561.713 H 592.11"
   style="fill:none;stroke:#000000;stroke-width:1px"
   id="path12" />
            <g
   transform="translate(101.878,-76.7571)"
   id="g16">
                <ellipse
   cx="483.17899"
   cy="633.69"
   rx="18.679001"
   ry="17.620001"
   style="fill:none;stroke:#000000;stroke-width:1px"
   id="ellipse14" />
            </g>
            <path
   d="m 580.759,566.44 h 7.989"
   style="fill:none;stroke:#000000;stroke-width:1px"
   id="path18" />
            <path
   d="m 573.028,555.979 h 23.009 -11.151 v -11.047"
   style="fill:none;stroke:#000000;stroke-width:1px"
   id="path20" />
        </g>
        <g
   id="Erde1"
   transform="translate(-1.09621,155.71)">
            <path
   d="M 576.711,561.713 H 592.11"
   style="fill:none;stroke:#000000;stroke-width:1px"
   id="path23" />
            <g
   transform="translate(101.878,-76.7571)"
   id="g27">
                <ellipse
   cx="483.17899"
   cy="633.69"
   rx="18.679001"
   ry="17.620001"
   style="fill:none;stroke:#000000;stroke-width:1px"
   id="ellipse25" />
            </g>
            <path
   d="m 580.759,566.44 h 7.989"
   style="fill:none;stroke:#000000;stroke-width:1px"
   id="path29" />
            <path
   d="m 573.028,555.979 h 23.009 -11.151 v -11.047"
   style="fill:none;stroke:#000000;stroke-width:1px"
   id="path31" />
        </g>
        <g
   id="öffnung strom">
            <g
   opacity="0.972961"
   id="g40">
                <ellipse
   cx="483.17899"
   cy="633.69"
   rx="18.679001"
   ry="17.620001"
   style="fill:none;stroke:#000000;stroke-width:1px"
   id="ellipse34" />
                <g
   transform="translate(123.281,1.04304)"
   id="g38">
                    <ellipse
   cx="483.17899"
   cy="633.69"
   rx="18.679001"
   ry="17.620001"
   style="fill:none;stroke:#000000;stroke-width:1px"
   id="ellipse36" />
                </g>
            </g>
        </g>
        <g
   id="g47">
            <path
   d="m 437.105,700.132 v -47.029 h -17.367 v -35.857 h 17.367 v -49.088 h -25.104 v 131.974 z"
   style="fill:none;stroke:#000000;stroke-width:1px"
   id="path43" />
            <path
   d="m 654.13,700.132 v -47.029 h 17.15 V 616.81 H 654.13 V 569.3 h 23.882 v 130.832 z"
   style="fill:none;stroke:#000000;stroke-width:1px"
   id="path45" />
        </g>
        <g
   id="Antenne rechts">
            <path
   d="m 726.659,536.698 c 9.163,0.439 18.191,2.096 26.965,6.065 v 62.602 c -9.015,3.364 -18.006,5.113 -26.965,4.91 z"
   style="fill:#ffffff;stroke:#000000;stroke-width:1px"
   id="path49" />
            <g
   transform="translate(0.742885,0.574708)"
   id="g53">
                <path
   d="m 753.624,642.592 h 9.866 l 24.724,-18.494 V 471.199 C 781.741,461.43 778.391,447.304 777.1,430.304 V 98.993 L 763.49,87.245 h -9.866 z"
   style="fill:#ffffff;stroke:#000000;stroke-width:1px"
   id="path51" />
            </g>
            <g
   transform="matrix(1,0,0,1.0002,0.227714,0.307629)"
   id="g57">
                <rect
   x="754.11298"
   y="87.648003"
   width="9.665"
   height="554.88599"
   style="fill:#e6e6e6;stroke:#000000;stroke-width:1px"
   id="rect55" />
            </g>
        </g>
        <g
   id="Antenne Links"
   transform="matrix(-1,0,0,1,1094.16,0.347604)">
            <path
   d="m 726.659,536.698 c 9.163,0.439 18.191,2.096 26.965,6.065 v 62.602 c -9.015,3.364 -18.006,5.113 -26.965,4.91 z"
   style="fill:#ffffff;stroke:#000000;stroke-width:1px"
   id="path60" />
            <g
   transform="translate(0.742885,0.574708)"
   id="g64">
                <path
   d="m 753.624,642.592 h 9.866 l 24.724,-18.494 V 471.199 C 781.741,461.43 778.391,447.304 777.1,430.304 V 98.993 L 763.49,87.245 h -9.866 z"
   style="fill:#ffffff;stroke:#000000;stroke-width:1px"
   id="path62" />
            </g>
            <g
   transform="matrix(1,0,0,1.0002,0.227714,0.307629)"
   id="g68">
                <rect
   x="754.11298"
   y="87.648003"
   width="9.665"
   height="554.88599"
   style="fill:#e6e6e6;stroke:#000000;stroke-width:1px"
   id="rect66" />
            </g>
        </g>
        <g
   id="Ground top">
            <path
   d="m 533.304,509.442 v 34.435 h 23.123 V 509.442 L 545.295,504.9 Z"
   style="fill:#0d0d0d;stroke:#000000;stroke-width:1px"
   id="path71" />
            <g
   transform="translate(0.297148,-0.835066)"
   id="g75">
                <path
   d="m 551.973,513.473 c 0,-2.033 -1.65,-3.683 -3.682,-3.683 h -7.364 c -2.033,0 -3.683,1.65 -3.683,3.683 v 22.279 c 0,2.033 1.65,3.683 3.683,3.683 h 7.364 c 2.032,0 3.682,-1.65 3.682,-3.683 z"
   style="fill:#999999;stroke:#000000;stroke-width:1px"
   id="path73" />
            </g>
            <g
   transform="translate(0.40524,0.429402)"
   id="g79">
                <path
   d="m 548.86,515.324 c 0,-1.219 -0.989,-2.208 -2.208,-2.208 h -4.417 c -1.219,0 -2.208,0.989 -2.208,2.208 v 15.618 c 0,1.219 0.989,2.209 2.208,2.209 h 4.417 c 1.219,0 2.208,-0.99 2.208,-2.209 z"
   style="fill:#4d4d4d;stroke:#000000;stroke-width:1px"
   id="path77" />
            </g>
        </g>
        <g
   id="Ground top1"
   transform="matrix(1,0,0,-1,0.224098,1269.55)">
            <path
   d="m 533.304,509.442 v 34.435 h 23.123 V 509.442 L 545.295,504.9 Z"
   style="fill:#0d0d0d;stroke:#000000;stroke-width:1px"
   id="path82" />
            <g
   transform="translate(0.297148,-0.835066)"
   id="g86">
                <path
   d="m 551.973,513.473 c 0,-2.033 -1.65,-3.683 -3.682,-3.683 h -7.364 c -2.033,0 -3.683,1.65 -3.683,3.683 v 22.279 c 0,2.033 1.65,3.683 3.683,3.683 h 7.364 c 2.032,0 3.682,-1.65 3.682,-3.683 z"
   style="fill:#999999;stroke:#000000;stroke-width:1px"
   id="path84" />
            </g>
            <g
   transform="translate(0.40524,0.429402)"
   id="g90">
                <path
   d="m 548.86,515.324 c 0,-1.219 -0.989,-2.208 -2.208,-2.208 h -4.417 c -1.219,0 -2.208,0.989 -2.208,2.208 v 15.618 c 0,1.219 0.989,2.209 2.208,2.209 h 4.417 c 1.219,0 2.208,-0.99 2.208,-2.209 z"
   style="fill:#4d4d4d;stroke:#000000;stroke-width:1px"
   id="path88" />
            </g>
        </g>
        <path
   d="m 701.663,467.921 -6.28,16.226 2.905,564.633 2.119,17 -309.426,1.05 4.092,-18.05 V 484.147 l -4.092,-16.226 z m -156.321,40.751 c 70.193,0 127.18,56.45 127.18,125.979 0,69.53 -56.987,125.979 -127.18,125.979 -70.192,0 -127.18,-56.449 -127.18,-125.979 0,-69.529 56.988,-125.979 127.18,-125.979 z"
   style="fill:#ffffff;stroke:#000000;stroke-width:1px"
   id="path93" />
    </g><g
     id="Ebene5">
        <g
   transform="matrix(0.534706,0,0,0.534706,335.98,418.861)"
   id="g100">
            <path
   d="m 626.349,996.053 h -3.276 V 985.75 h 18.143 v 10.303 h -3.033"
   style="fill:#999999;stroke:#29ac37;stroke-width:0.19px"
   id="path96" />
            <path
   d="m 626.295,1003.22 h 11.042 -4.985 v -7.799"
   style="fill:none;stroke:#999999;stroke-width:5.61px"
   id="path98" />
        </g>
        <g
   transform="matrix(0.499953,0,0,0.499953,429.418,477.474)"
   id="g104">
            <path
   d="m 489.591,981.905 1.911,5.777 3.684,-1.786 -0.591,3.992 h 6.185 l -5.004,3.57 2.867,2.888 -4.048,0.682 1.911,5.782 -5.004,-3.575 -1.911,3.575 -1.911,-3.575 -5.004,3.575 1.911,-5.782 -4.048,-0.682 2.867,-2.888 -5.004,-3.57 h 6.185 l -0.591,-3.992 3.684,1.786 z"
   style="fill:#e9e9e9;stroke:#999999;stroke-width:2px"
   id="path102" />
        </g>
        <path
   d="m 667.591,932.517 h 12.971 v -9.767 h -3.038 v 1.749 h -3.256 v 1.625 h -1.884 v 1.605 h -2.723 v 1.575 h -2.07 z"
   style="fill:#999999;stroke:#999999;stroke-width:0.1px"
   id="path106" />
        <rect
   x="644.65503"
   y="927.862"
   width="16.938999"
   height="6.2459998"
   style="fill:#338841;stroke:#999999;stroke-width:0.65px"
   id="rect108" />
        <g
   transform="translate(-0.209494,22.3151)"
   id="g112">
            <rect
   x="644.65503"
   y="927.862"
   width="16.938999"
   height="6.2459998"
   style="fill:#338841;stroke:#999999;stroke-width:0.65px"
   id="rect110" />
        </g>
        <g
   transform="translate(-0.374341,44.4647)"
   id="g116">
            <rect
   x="644.65503"
   y="927.862"
   width="16.938999"
   height="6.2459998"
   style="fill:#338841;stroke:#999999;stroke-width:0.65px"
   id="rect114" />
        </g>
        <rect
   x="636.15198"
   y="988.34497"
   width="45.123001"
   height="45.959"
   style="fill:#479ad9;stroke:#999999;stroke-width:0.65px"
   id="rect118" />
        <g
   transform="translate(-6.29168,13.3034)"
   id="g124">
            <text
   x="643.74902"
   y="1015.17"
   style="font-size:18px;font-family:Arial-Black;fill:#ffffff"
   id="text122">W<tspan
   x="662.34698 668.341"
   y="1015.17 1015.17"
   id="tspan120">iF</tspan>i</text>
        </g>
    </g></g>
</svg>
