<?xml version="1.0" encoding="UTF-8" standalone="no"?>
<svg
   width="100%"
   height="100%"
   viewBox="0 0 1280 1150"
   version="1.1"
   xml:space="preserve"
   style="fill-rule:evenodd;clip-rule:evenodd;stroke-linecap:round;stroke-linejoin:round;stroke-miterlimit:1.41421;"
   id="svg78"
   sodipodi:docname="tp-link-archer-c50-v1.svg"
   inkscape:version="1.2 (1:1.2.1+202207142221+cd75a1ee6d)"
   xmlns:inkscape="http://www.inkscape.org/namespaces/inkscape"
   xmlns:sodipodi="http://sodipodi.sourceforge.net/DTD/sodipodi-0.dtd"
   xmlns="http://www.w3.org/2000/svg"
   xmlns:svg="http://www.w3.org/2000/svg"><defs
   id="defs53">
        
        
        
        
        
        
        
        
        
        
        
    </defs><sodipodi:namedview
   id="namedview80"
   pagecolor="#ffffff"
   bordercolor="#666666"
   borderopacity="1.0"
   inkscape:showpageshadow="2"
   inkscape:pageopacity="0.0"
   inkscape:pagecheckerboard="0"
   inkscape:deskcolor="#d1d1d1"
   showgrid="false"
   inkscape:zoom="0.41043479"
   inkscape:cx="1024.5233"
   inkscape:cy="807.68008"
   inkscape:window-width="1920"
   inkscape:window-height="1021"
   inkscape:window-x="0"
   inkscape:window-y="0"
   inkscape:window-maximized="1"
   inkscape:current-layer="svg78" />
    
<path
   d="m 1116.1709,55.704756 c -31.8544,137.936284 -63.653,275.721354 -94.3459,415.759484 -11.3151,51.62379 -18.9704,104.01311 -26.58771,156.42823 l -23.91432,113.26068 -56.10717,-6.63241 159.346,-689.494716 z"
   style="clip-rule:evenodd;fill:#9c9da5;fill-opacity:1;fill-rule:evenodd;stroke:none;stroke-width:1.12509px;stroke-linecap:round;stroke-linejoin:round;stroke-miterlimit:1.41421"
   id="path3251" /><path
   d="m 1097.1671,27.679235 c -25.5745,-4.372443 -29.9481,22.340189 -9.7786,44.906409 l -107.32104,479.543286 -22.2983,58.08398 -36.73001,125.03323 40.71334,4.8067 L 990.36644,559.8074 1099.0303,79.752825 c 20.7156,-20.722548 30.4559,-47.224635 -1.8632,-52.07359"
   style="clip-rule:evenodd;fill:#d7d7d7;fill-opacity:1;fill-rule:evenodd;stroke:none;stroke-width:1.12509px;stroke-linecap:round;stroke-linejoin:round;stroke-miterlimit:1.41421"
   id="path3253" /><path
   d="m 164.14043,58.209533 c 31.85442,137.936287 63.65297,275.721357 94.34589,415.759487 11.31506,51.62379 18.97039,104.01311 26.58775,156.42823 l 23.9143,113.26068 56.10716,-6.63241 L 205.74948,47.530802 Z"
   style="clip-rule:evenodd;fill:#9c9da5;fill-opacity:1;fill-rule:evenodd;stroke:none;stroke-width:1.12509px;stroke-linecap:round;stroke-linejoin:round;stroke-miterlimit:1.41421"
   id="path94" /><path
   d="m 183.14427,30.184013 c 25.57455,-4.372443 29.94813,22.340188 9.77856,44.906408 l 107.32099,479.543279 22.29834,58.08399 36.73003,125.03322 -40.71336,4.8067 L 289.94486,562.31218 181.28104,82.257602 C 160.56549,61.535054 150.8252,35.032968 183.14427,30.184013"
   style="clip-rule:evenodd;fill:#d7d7d7;fill-opacity:1;fill-rule:evenodd;stroke:none;stroke-width:1.12509px;stroke-linecap:round;stroke-linejoin:round;stroke-miterlimit:1.41421"
   id="path96"
   sodipodi:nodetypes="ccccccccc" /><path
   d="m 1095.2552,913.66847 c -305.72693,-25.30629 -609.91107,-26.32119 -911.6387,0.0215 l -0.0997,19.57906 c 278.00939,-21.74629 608.37844,-14.37459 911.7878,-0.21122 z"
   style="clip-rule:evenodd;fill:#141418;fill-opacity:1;fill-rule:evenodd;stroke:none;stroke-width:1.02046px;stroke-linecap:round;stroke-linejoin:round;stroke-miterlimit:1.41421"
   id="path24"
   sodipodi:nodetypes="ccccc" /><path
   d="m 1117.7593,1044.8497 c -330.3812,23.7093 -665.36496,16.0332 -955.51857,3.141 v 32.1582 c 299.18642,43.7431 616.0765,44.5659 955.51857,-0.338 z"
   style="clip-rule:evenodd;fill:#161825;fill-opacity:1;fill-rule:evenodd;stroke:none;stroke-width:1.02046px;stroke-linecap:round;stroke-linejoin:round;stroke-miterlimit:1.41421"
   id="path14"
   sodipodi:nodetypes="ccccc" /><path
   d="m 162.75096,1025.7124 -0.51023,22.2783 c 323.11218,19.9679 567.39702,26.5044 955.51857,-3.141 l -0.5103,-19.0586 c -315.08681,-28.26895 -645.86989,-26.81651 -954.49804,-0.079 z"
   style="clip-rule:evenodd;fill:#2b344d;fill-opacity:1;fill-rule:evenodd;stroke:none;stroke-width:1.02046px;stroke-linecap:round;stroke-linejoin:round;stroke-miterlimit:1.41421"
   id="path12"
   sodipodi:nodetypes="cccccc" /><path
   d="m 162.75096,1025.7124 17.00791,-92.13191 c 287.35305,-23.89727 567.09384,-28.63073 919.50303,-0.43892 l 17.9871,92.64953 c -480.08067,-38.90146 -954.49804,-0.079 -954.49804,-0.079 z"
   style="clip-rule:evenodd;fill:#505a75;fill-opacity:1;fill-rule:evenodd;stroke:none;stroke-width:1.02046px;stroke-linecap:round;stroke-linejoin:round;stroke-miterlimit:1.41421"
   id="path18"
   sodipodi:nodetypes="cccccc" /><path
   d="m 203.56269,814.57078 -0.0775,17.22934 c 292.49807,-26.20345 579.1485,-27.18114 872.13671,0.27631 l 0.2569,-17.75302 c -284.37054,-29.7238 -579.83633,-28.33747 -872.31611,0.24737 z"
   style="clip-rule:evenodd;fill:#141418;fill-opacity:1;fill-rule:evenodd;stroke:none;stroke-width:1.02046px;stroke-linecap:round;stroke-linejoin:round;stroke-miterlimit:1.41421"
   id="path26"
   sodipodi:nodetypes="ccccc" /><path
   d="m 183.70594,913.54576 c 307.00371,-23.45043 601.03821,-23.4179 911.54926,0.12271 l -16.89,-81.62964 C 779.43768,798.71235 489.51672,804.28774 199.72531,832.1605 Z"
   style="clip-rule:evenodd;fill:#505a75;fill-opacity:1;fill-rule:evenodd;stroke:none;stroke-width:1.02046px;stroke-linecap:round;stroke-linejoin:round;stroke-miterlimit:1.41421"
   id="path20"
   sodipodi:nodetypes="ccccc" /><path
   d="m 203.56269,814.57078 c 293.76107,-24.71901 581.84029,-27.27641 872.31611,-0.24737 L 1060.003,737.33607 C 784.1488,710.86334 501.37944,712.70806 218.48889,737.21892 Z"
   style="clip-rule:evenodd;fill:#505a75;fill-opacity:1;fill-rule:evenodd;stroke:none;stroke-width:1.00297px;stroke-linecap:round;stroke-linejoin:round;stroke-miterlimit:1.41421"
   id="path22"
   sodipodi:nodetypes="ccccc" /><path
   style="fill:none;stroke:#000000;stroke-width:1px;stroke-linecap:butt;stroke-linejoin:miter;stroke-opacity:1"
   d="m 218.48889,737.21892 -14.9262,77.35186 -0.0775,17.22934 -3.75988,0.36038 -16.10881,81.52947 -0.0997,19.57906 -3.75793,0.31146 -17.00791,92.13191 -0.51023,22.2783 v 32.1582 l 108.06813,13.8432 12.10936,19.7409 c 280.79467,15.0548 500.51492,8.0326 717.43993,0 l 9.88515,-21.0936 108.016,-12.8285 v -34.9612 l -0.5103,-19.0586 -17.9871,-92.64953 -3.9573,-0.0838 -0.049,-19.38934 -16.89,-81.62964 -2.7433,0.0376 0.2569,-17.75302 -15.8522,-77.45091 -86.12305,-6.86967 21.35696,-102.57389 c 25.05949,-189.00413 82.88769,-392.9973 122.65099,-580.091942 1.6617,-14.088782 -11.3056,-16.49843 -20.7448,-19.657723 -11.4564,-2.583491 -18.3004,1.757798 -20.8643,8.978991 L 916.95678,726.15294 c -182.4765,-10.56697 -367.06641,-10.79141 -553.92317,0.0777 L 207.49046,39.163004 C 204.9908,21.72081 193.24105,27.899811 183.16789,29.720445 c -13.21863,2.38915 -25.22167,6.049354 -19.00384,28.02552 41.86211,191.369735 95.39349,388.032065 120.91002,572.651285 l 21.18052,100.31319 z"
   id="path1070"
   sodipodi:nodetypes="ccccccccccccccccccccccccccccccccscccc" /><g
   id="g3249"
   transform="matrix(1.0642958,0,0,1.0642958,-112.27799,-165.00405)"
   style="stroke:#a3d05f;stroke-opacity:1"><path
     d="m 543.89322,1116.7063 c -8.96084,0.042 -9.82473,20.2366 3.33936,20.5951 14.1915,0.3797 12.19119,-20.3894 3.30543,-20.5951"
     style="fill:none;stroke:#a3d05f;stroke-width:3.12407px;stroke-opacity:1"
     id="path11" /><path
     d="m 546.95923,1128.583 v -15.6193"
     style="fill:none;stroke:#a3d05f;stroke-width:2.87644px;stroke-opacity:1"
     id="path13" /><g
     id="g23"
     transform="matrix(0.86151035,0,0,1.0671063,136.27321,67.232172)"
     style="stroke:#a3d05f;stroke-opacity:1">
            <path
   d="m 532.5,1001.56 c 3.037,-3.06 6.083,-2.457 9.134,0"
   style="fill:none;stroke:#a3d05f;stroke-width:3px;stroke-opacity:1"
   id="path17" />
            <path
   d="m 529.218,994.65 c 5.176,-3.942 10.31,-3.82 15.405,0"
   style="fill:none;stroke:#a3d05f;stroke-width:3px;stroke-opacity:1"
   id="path19" />
            <path
   d="m 526.539,988.847 c 6.781,-4.897 13.694,-5.464 20.791,0"
   style="fill:none;stroke:#a3d05f;stroke-width:3px;stroke-opacity:1"
   id="path21" />
        </g><g
     transform="matrix(0.86151035,0,0,1.0671063,218.93271,66.363004)"
     id="g41"
     style="stroke:#a3d05f;stroke-opacity:1">
            <path
   d="m 626.349,996.053 h -3.276 V 985.75 h 18.143 v 10.303 h -3.033"
   style="fill:none;stroke:#a3d05f;stroke-width:3px;stroke-opacity:1"
   id="path37" />
            <path
   d="m 626.295,1003.22 h 11.042 -4.985 v -7.799"
   style="fill:none;stroke:#a3d05f;stroke-width:3px;stroke-opacity:1"
   id="path39" />
        </g><g
     transform="matrix(0.86151035,0,0,1.0671063,0.96961963,67.603783)"
     id="g53"
     style="stroke:#a3d05f;stroke-opacity:1">
            <path
   d="m 813.094,996.529 c -1.722,2.532 -1.722,4.821 0,6.861 12.399,-1.4 20.816,-6.311 25.825,-14.21 -0.916,-1.909 -2.421,-2.725 -4.348,-2.755"
   style="fill:none;stroke:#a3d05f;stroke-width:3px;stroke-opacity:1"
   id="path49" />
            <path
   d="m 817.984,994.321 c -0.444,-8.394 2.219,-12.453 12.981,-5.218"
   style="fill:none;stroke:#a3d05f;stroke-width:3px;stroke-opacity:1"
   id="path51" />
        </g><g
     transform="matrix(0.86151035,0,0,1.0671063,124.92138,68.036304)"
     id="g59"
     style="stroke:#a3d05f;stroke-opacity:1">
            <path
   d="m 862.264,985.285 c -3.15,5.488 -1.575,10.729 1.854,15.875 l 2.507,-4.943"
   style="fill:none;stroke:#a3d05f;stroke-width:3px;stroke-opacity:1"
   id="path55" />
            <path
   d="m 874.847,1000.02 c 3.145,-7.28 2.087,-12.851 -2.979,-16.788 l -2.223,6.525"
   style="fill:none;stroke:#a3d05f;stroke-width:3px;stroke-opacity:1"
   id="path57" />
        </g><g
     transform="matrix(0.8716362,0,0,0.92681333,23.833839,209.08411)"
     id="g65"
     style="stroke:#a3d05f;stroke-opacity:1">
            <path
   d="m 901.628,988.999 c -0.719,13.951 20.96,8.804 17.735,-1.962"
   style="fill:none;stroke:#a3d05f;stroke-width:3px;stroke-opacity:1"
   id="path61" />
            <path
   d="m 910.391,1004.16 v -23.495 l 3.577,6.141 h -8.248 l 4.671,-6.141"
   style="fill:none;stroke:#a3d05f;stroke-width:3px;stroke-opacity:1"
   id="path63" />
        </g><g
     id="g3225"
     transform="matrix(1.2023166,0,0,1.0945881,7.0947454,40.617297)"
     style="stroke:#a3d05f;stroke-opacity:1">
            <path
   d="m 532.5,1001.56 c 3.037,-3.06 6.083,-2.457 9.134,0"
   style="fill:none;stroke:#a3d05f;stroke-width:3px;stroke-opacity:1"
   id="path3219" />
            <path
   d="m 529.218,994.65 c 5.176,-3.942 10.31,-3.82 15.405,0"
   style="fill:none;stroke:#a3d05f;stroke-width:3px;stroke-opacity:1"
   id="path3221" />
            <path
   d="m 526.539,988.847 c 6.781,-4.897 13.694,-5.464 20.791,0"
   style="fill:none;stroke:#a3d05f;stroke-width:3px;stroke-opacity:1"
   id="path3223" />
        </g></g><path
   d="m 270.30886,1093.9921 12.10936,19.7409 c 282.67782,13.2702 468.9072,9.3696 717.43993,0 l 9.88515,-21.0936 c -248.31608,20.9467 -478.66238,23.6981 -739.43444,1.3527 z"
   style="clip-rule:evenodd;fill:#b7b6bd;fill-opacity:1;fill-rule:evenodd;stroke:none;stroke-width:1.02046px;stroke-linecap:round;stroke-linejoin:round;stroke-miterlimit:1.41421"
   id="path16"
   sodipodi:nodetypes="ccccc" /></svg>
