<?xml version="1.0" encoding="UTF-8" standalone="no"?>
<svg
   width="100%"
   height="100%"
   viewBox="0 0 1280 1150"
   version="1.1"
   xml:space="preserve"
   style="fill-rule:evenodd;clip-rule:evenodd;stroke-linecap:round;stroke-linejoin:round;stroke-miterlimit:1.41421;"
   id="svg37"
   sodipodi:docname="ubiquiti-nanostation.svg"
   inkscape:version="1.2.2 (1:1.2.2+202305151914+b0a8486541)"
   xmlns:inkscape="http://www.inkscape.org/namespaces/inkscape"
   xmlns:sodipodi="http://sodipodi.sourceforge.net/DTD/sodipodi-0.dtd"
   xmlns:xlink="http://www.w3.org/1999/xlink"
   xmlns="http://www.w3.org/2000/svg"
   xmlns:svg="http://www.w3.org/2000/svg"><defs
   id="defs41"><linearGradient
     inkscape:collect="always"
     id="linearGradient2694"><stop
       style="stop-color:#c5c5c5;stop-opacity:1;"
       offset="0"
       id="stop2688" /><stop
       style="stop-color:#dcdddf;stop-opacity:1;"
       offset="0.20187548"
       id="stop2690" /></linearGradient><linearGradient
     inkscape:collect="always"
     id="linearGradient13380"><stop
       style="stop-color:#dbdbdd;stop-opacity:1;"
       offset="0"
       id="stop13376" /><stop
       style="stop-color:#e6e6e8;stop-opacity:1;"
       offset="0.55192339"
       id="stop7770" /><stop
       style="stop-color:#d1d1d3;stop-opacity:1;"
       offset="0.73510242"
       id="stop10601" /><stop
       style="stop-color:#a8a9ad;stop-opacity:1;"
       offset="1"
       id="stop13378" /></linearGradient><linearGradient
     inkscape:collect="always"
     xlink:href="#linearGradient13380"
     id="linearGradient2053"
     gradientUnits="userSpaceOnUse"
     x1="157.38192"
     y1="547.86373"
     x2="201.01793"
     y2="549.35736"
     gradientTransform="matrix(1.6489593,0,0,1.6489593,2064.3818,-382.54266)" /><linearGradient
     inkscape:collect="always"
     xlink:href="#linearGradient2694"
     id="linearGradient2055"
     gradientUnits="userSpaceOnUse"
     x1="348.19867"
     y1="806.67517"
     x2="372.60684"
     y2="686.46619"
     gradientTransform="matrix(1.6489593,0,0,1.6489593,2065.3879,-382.54266)" /><linearGradient
     inkscape:collect="always"
     xlink:href="#linearGradient13380"
     id="linearGradient361"
     gradientUnits="userSpaceOnUse"
     gradientTransform="matrix(1.6489593,0,0,1.2921268,2089.8836,-754.99215)"
     x1="157.38192"
     y1="547.86373"
     x2="201.01793"
     y2="549.35736" /></defs><sodipodi:namedview
   id="namedview39"
   pagecolor="#ffffff"
   bordercolor="#666666"
   borderopacity="1.0"
   inkscape:showpageshadow="2"
   inkscape:pageopacity="0.0"
   inkscape:pagecheckerboard="0"
   inkscape:deskcolor="#d1d1d1"
   showgrid="false"
   inkscape:zoom="0.5"
   inkscape:cx="-23"
   inkscape:cy="646"
   inkscape:window-width="3007"
   inkscape:window-height="1372"
   inkscape:window-x="0"
   inkscape:window-y="0"
   inkscape:window-maximized="0"
   inkscape:current-layer="svg37" />
    
<text
   xml:space="preserve"
   style="font-style:normal;font-weight:normal;font-size:40px;line-height:1.25;font-family:sans-serif;letter-spacing:0px;word-spacing:0px;fill:#000000;fill-opacity:1;stroke:none"
   x="1221.7524"
   y="232.71478"
   id="text15531"><tspan
     sodipodi:role="line"
     id="tspan15529"
     x="1221.7524"
     y="232.71478" /></text><g
   id="g2935"
   transform="matrix(0.66254143,0,0,0.66254143,212.41863,448.46647)"><g
     id="g2323"
     transform="translate(-1972.7713,-71.024304)"><path
       style="fill:#f1f2f4;fill-opacity:1;stroke:none;stroke-width:1px;stroke-linecap:butt;stroke-linejoin:miter;stroke-opacity:1"
       d="m 2458.3832,-604.96702 32.2764,14.79998 -25.0638,1514.03612 -82.4676,109.50092 z"
       id="path576"
       sodipodi:nodetypes="ccccc" /><path
       style="fill:#f1f2f4;fill-opacity:1;stroke:none;stroke-width:1px;stroke-linecap:butt;stroke-linejoin:miter;stroke-opacity:1"
       d="m 2457.4978,-605.0354 c 10.7334,-0.56636 15.882,4.89759 33.1618,14.86836 l -14.3829,1570.30602 -92.2461,28.58582 z"
       id="path1516"
       sodipodi:nodetypes="ccccc" /><path
       style="fill:#c5c5c5;fill-opacity:1;stroke:none;stroke-width:1.64896px;stroke-linecap:butt;stroke-linejoin:miter;stroke-opacity:1"
       d="m 2461.1819,685.14566 -0.3628,9.81737 432.552,109.3046 10.1563,120.30693 c -13.9992,30.76119 -8.7055,52.49546 -20.8271,70.92282 l -434.1884,-85.46209 -49.3532,89.36209 -11.7565,18.90032 c 1.8962,21.7949 -0.248,44.9467 19.5576,60.7273 l 39.0533,13.9032 235.4051,35.2059 c 51.468,8.2391 135.633,-40.4944 183.4078,-93.6559 20.7537,-28.7682 46.3264,-52.06682 46.7256,-105.19597 -1.6595,-95.24737 -64.7736,-1013.382797 -85.1644,-1252.91328 -4.0458,-43.17943 2.0904,-62.25578 -24.8355,-77.65836 l -327.9978,-199.26992 c 1.9949,1.43241 4.9043,12.68135 4.6093,29.92817 -2.6593,155.47076 -11.3063,872.93523 -16.9813,1255.77682 z"
       id="path2039"
       sodipodi:nodetypes="ccccccccccccccccsc" /><path
       style="fill:#ccced0;fill-opacity:1;stroke:none;stroke-width:1.64896px;stroke-linecap:butt;stroke-linejoin:miter;stroke-opacity:1"
       d="m 2428.1634,-581.70873 c -0.01,-18.27354 48.5028,-41.99553 46.3308,0.3845 -13.6737,460.98404 -9.4804,969.7486 -25.6365,1428.72625 -0.9915,62.67805 -11.2019,68.93593 -19.8237,89.85246 l -26.0685,51.5301 c -35.9092,92.54682 31.4053,91.87072 43.0476,104.14362 -28.8049,-6.7388 -69.5167,-2.5083 -66.8642,-79.1799 z"
       id="path2043"
       sodipodi:nodetypes="cccccccc" /><path
       style="fill:#3d3b3e;fill-opacity:1;stroke:none;stroke-width:1.64896px;stroke-linecap:butt;stroke-linejoin:miter;stroke-opacity:1"
       d="m 2474.6726,1097.2144 46.1838,6.907 33.5017,-44.3518 c 14.8166,-20.3974 -24.8126,-31.4344 -40.4035,-12.5208 z"
       id="path2045"
       sodipodi:nodetypes="ccccc" /><path
       style="fill:#f2f2f2;fill-opacity:1;stroke:none;stroke-width:1.64896px;stroke-linecap:butt;stroke-linejoin:miter;stroke-opacity:1"
       d="m 2465.6906,688.58314 432.4508,112.28913 -83.3123,-1184.87518 -324.2462,-193.7687 c -6.8709,231.87365 -17.7864,1034.48617 -24.8923,1266.35475 z"
       id="path2047"
       sodipodi:nodetypes="ccccc" /><path
       style="fill:url(#linearGradient2055);fill-opacity:1;stroke:none;stroke-width:1.64896px;stroke-linecap:butt;stroke-linejoin:miter;stroke-opacity:1"
       d="m 2897.9499,805.0161 c 14.4292,144.75535 7.7605,164.80753 -14.2434,190.48128 l -435.1946,-85.46209 c 8.3896,-32.7543 11.1252,-143.33303 12.3072,-215.07226 z"
       id="path2049"
       sodipodi:nodetypes="ccccc" /><path
       style="fill:url(#linearGradient2053);fill-opacity:1;stroke:none;stroke-width:1.64896px;stroke-linecap:butt;stroke-linejoin:miter;stroke-opacity:1"
       d="m 2399.1353,365.30393 -65.2157,3.36487 -9.1973,307.75368 64.9905,-5.41297 z"
       id="path2051" /><path
       style="fill:url(#linearGradient361);fill-opacity:1;stroke:none;stroke-width:1.45968px;stroke-linecap:butt;stroke-linejoin:miter;stroke-opacity:1"
       d="m 2415.6505,-174.40495 -56.7138,7.20831 -8.2541,242.484318 57.428,-4.263374 z"
       id="path359"
       sodipodi:nodetypes="ccccc" /></g><path
     id="path2325"
     style="fill:none;fill-opacity:1;stroke:#000000;stroke-width:1.649;stroke-linecap:butt;stroke-linejoin:miter;stroke-dasharray:none;stroke-opacity:1"
     d="m 484.72602,-676.06043 -0.018,0.38867 c -13.2482,0.4189 -29.3222,12.39204 -29.3164,22.93945 l -12.5137,407.30274 -56.7128,7.20898 -8.254,242.484371 57.4278,-4.263672 -9.041,294.283211 -65.1504,3.36132 -9.1973,307.75391 64.9551,-5.41211 -10.5293,342.73826 c -2.6525,76.6715 38.0604,72.4409 66.8652,79.1797 l 235.4043,35.2051 c 51.468,8.2391 135.6335,-40.4948 183.4082,-93.6563 20.7537,-28.7681 46.3274,-52.06618 46.7266,-105.19527 -1.6595,-95.24728 -64.7753,-1013.38382 -85.166,-1252.91407 -4.0458,-43.17938 2.0919,-62.25564 -24.834,-77.6582 l -310.8926,-188.87695 -17.1055,-10.39258 c 0.043,0.0306 0.093,0.20462 0.1368,0.24414 -4.0725,-2.3046 -8.0642,-3.84434 -11.9297,-4.32031 -0.6323,-0.12095 -1.2836,-0.12906 -1.9395,-0.18164 -0.4781,-0.0186 -0.8991,-0.13972 -1.3984,-0.13086 l -0.041,-0.0195 v 0.0156 c -0.3164,0.006 -0.5586,-0.10119 -0.8848,-0.084 z"
     sodipodi:nodetypes="ccccccccccccccccccccccccccc" /></g></svg>
