<?xml version="1.0" encoding="UTF-8"?>
<svg width="514" height="514" version="1.1" viewBox="0 0 514 514" xmlns="http://www.w3.org/2000/svg" xmlns:cc="http://creativecommons.org/ns#" xmlns:dc="http://purl.org/dc/elements/1.1/" xmlns:rdf="http://www.w3.org/1999/02/22-rdf-syntax-ns#">
 <metadata>
  <rdf:RDF>
   <cc:Work rdf:about="">
    <dc:format>image/svg+xml</dc:format>
    <dc:type rdf:resource="http://purl.org/dc/dcmitype/StillImage"/>
    <dc:title/>
    <cc:license rdf:resource="http://creativecommons.org/licenses/by-nc-sa/4.0/"/>
    <dc:creator>
     <cc:Agent>
      <dc:title>Jan Alexander</dc:title>
     </cc:Agent>
    </dc:creator>
   </cc:Work>
   <cc:License rdf:about="http://creativecommons.org/licenses/by-nc-sa/4.0/">
    <cc:permits rdf:resource="http://creativecommons.org/ns#Reproduction"/>
    <cc:permits rdf:resource="http://creativecommons.org/ns#Distribution"/>
    <cc:requires rdf:resource="http://creativecommons.org/ns#Notice"/>
    <cc:requires rdf:resource="http://creativecommons.org/ns#Attribution"/>
    <cc:prohibits rdf:resource="http://creativecommons.org/ns#CommercialUse"/>
    <cc:permits rdf:resource="http://creativecommons.org/ns#DerivativeWorks"/>
    <cc:requires rdf:resource="http://creativecommons.org/ns#ShareAlike"/>
   </cc:License>
  </rdf:RDF>
 </metadata>
 <g transform="translate(-6.9879 -95.618)">
  <rect x="19.885" y="353.22" width="488.23" height="91.695" ry="0" fill="#262626" stroke="#666"/>
  <path d="m19.885 353.22 26.134-92.901h439.97l22.126 92.901z" fill="#292929" stroke="#666" stroke-width="1px"/>
  <g transform="translate(12.237 164.2)" stroke="#666">
   <rect x="214.09" y="201.49" width="74.573" height="58.118" fill="#ccc"/>
   <path d="m224.01 251.76v-34.867h-6.8369v-8.567h22.924v-5.6304h22.119v5.6304h22.521v8.567h-5.6304v34.867z" fill="#262626" stroke-width="1px"/>
  </g>
  <g transform="translate(12.237 164.2)" stroke="#666">
   <rect x="128.84" y="201.49" width="74.573" height="58.118" fill="#ccc"/>
   <path d="m138.76 251.76v-34.867h-6.8369v-8.567h22.924v-5.6304h22.119v5.6304h22.521v8.567h-5.6304v34.867z" fill="#262626" stroke-width="1px"/>
  </g>
  <g transform="translate(97.137 164.2)" stroke="#666">
   <rect x="214.09" y="201.49" width="74.573" height="58.118" fill="#ccc"/>
   <path d="m224.01 251.76v-34.867h-6.8369v-8.567h22.924v-5.6304h22.119v5.6304h22.521v8.567h-5.6304v34.867z" fill="#262626" stroke-width="1px"/>
  </g>
  <g transform="translate(-157.21 164.2)" stroke="#666">
   <rect x="214.09" y="201.49" width="74.573" height="58.118" fill="#ccc"/>
   <path d="m224.01 251.76v-34.867h-6.8369v-8.567h22.924v-5.6304h22.119v5.6304h22.521v8.567h-5.6304v34.867z" fill="#262626" stroke-width="1px"/>
  </g>
  <g fill="#0f0" stroke="#666">
   <ellipse cx="132.36" cy="264.84" rx="2.7439" ry="1.372"/>
   <ellipse cx="185.1" cy="264.07" rx="2.7439" ry="1.372"/>
   <ellipse cx="225.35" cy="264.68" rx="2.7439" ry="1.372"/>
   <ellipse cx="266.5" cy="264.38" rx="2.7439" ry="1.372"/>
   <ellipse cx="306.75" cy="264.38" rx="2.7439" ry="1.372"/>
   <ellipse cx="347.91" cy="264.68" rx="2.7439" ry="1.372"/>
  </g>
  <rect x="51.723" y="357.74" width="84.483" height="80.603" ry="6.8966" fill="none" stroke="#666"/>
  <g fill="#999">
   <rect x="391.42" y="358.35" width="84.483" height="80.603" ry="6.8966" stroke="#999"/>
   <g>
    <g transform="translate(12.237 164.2)" aria-label="eth1">
     <path d="m161.89 267.89 0.79167 0.11979q-0.19792 0.88542-0.71875 1.3386-0.51563 0.44792-1.2813 0.44792-0.96354 0-1.5625-0.72917-0.59375-0.73438-0.59375-2.1146 0-1.4323 0.59896-2.1823 0.60417-0.75521 1.526-0.75521 0.88022 0 1.4688 0.73958 0.58854 0.73959 0.58854 2.1406l-5e-3 0.25h-3.3854q0.0469 0.93229 0.43229 1.4062 0.38542 0.47396 0.9375 0.47396 0.86459 0 1.2031-1.1354zm-2.526-1.5156h2.5313q-0.0521-0.71875-0.30729-1.0729-0.3698-0.51563-0.94271-0.51563-0.51563 0-0.88022 0.4323-0.36458 0.42708-0.40104 1.1562z"/>
     <path d="m165.38 268.83 0.10416 0.82813q-0.3177 0.0833-0.57291 0.0833-0.40105 0-0.64584-0.15625-0.24479-0.16146-0.33854-0.4375-0.0885-0.27604-0.0885-1.099v-3.1823h-0.56251v-0.72917h0.56251v-1.3698l0.76562-0.5625v1.9323h0.77605v0.72917h-0.77605v3.2344q0 0.44792 0.0677 0.57813 0.099 0.1875 0.36979 0.1875 0.13021 0 0.33855-0.0365z"/>
     <path d="m166.1 269.67v-7.6354h0.76563v2.7396q0.27083-0.38021 0.60937-0.56771 0.34375-0.19271 0.75521-0.19271 0.72396 0 1.1406 0.46354 0.42188 0.45834 0.42188 1.6875v3.5052h-0.76563v-3.5052q0-0.71875-0.25521-1.0313-0.25521-0.3125-0.70313-0.3125-0.5 0-0.85417 0.40105-0.34895 0.40104-0.34895 1.4219v3.026z"/>
     <path d="m173.66 269.67h-0.77083v-5.974q-0.26563 0.3125-0.71355 0.64063-0.44791 0.32291-0.82292 0.48958v-0.90625q0.63542-0.36459 1.1198-0.89063 0.48958-0.52604 0.6875-1.026h0.5z"/>
    </g>
    <g transform="translate(12.237 164.2)" aria-label="eth2">
     <path d="m246.57 268.21 0.79167 0.11979q-0.19792 0.88542-0.71876 1.3386-0.51562 0.44792-1.2812 0.44792-0.96354 0-1.5625-0.72917-0.59376-0.73438-0.59376-2.1146 0-1.4323 0.59896-2.1823 0.60417-0.75521 1.526-0.75521 0.88021 0 1.4688 0.73959 0.58854 0.73958 0.58854 2.1406l-5e-3 0.25h-3.3854q0.0469 0.93229 0.4323 1.4062 0.38541 0.47396 0.9375 0.47396 0.86458 0 1.2031-1.1354zm-2.526-1.5156h2.5313q-0.0521-0.71875-0.3073-1.0729-0.36979-0.51562-0.94271-0.51562-0.51562 0-0.88021 0.43229-0.36458 0.42708-0.40104 1.1562z"/>
     <path d="m250.05 269.15 0.10417 0.82813q-0.31771 0.0833-0.57292 0.0833-0.40104 0-0.64583-0.15625-0.2448-0.16146-0.33855-0.4375-0.0885-0.27604-0.0885-1.099v-3.1823h-0.5625v-0.72917h0.5625v-1.3698l0.76563-0.5625v1.9323h0.77604v0.72917h-0.77604v3.2344q0 0.44792 0.0677 0.57813 0.099 0.1875 0.36979 0.1875 0.13021 0 0.33854-0.0365z"/>
     <path d="m250.78 269.99v-7.6354h0.76563v2.7396q0.27084-0.38021 0.60938-0.56771 0.34375-0.19271 0.75521-0.19271 0.72396 0 1.1406 0.46354 0.42187 0.45834 0.42187 1.6875v3.5052h-0.76562v-3.5052q0-0.71875-0.25521-1.0313-0.25521-0.3125-0.70313-0.3125-0.5 0-0.85417 0.40105-0.34896 0.40104-0.34896 1.4219v3.026z"/>
     <path d="m259.49 269.09v0.90105h-4.1406q-0.0156-0.54688 0.32812-1.224 0.34896-0.67709 1.2708-1.599 1.0781-1.0729 1.4115-1.6562 0.33334-0.58855 0.33334-1.0938 0-0.58333-0.34376-0.94792-0.33854-0.36979-0.83854-0.36979-0.53646 0-0.88021 0.39584-0.34375 0.39583-0.34375 1.1354l-0.79167-0.099q0.0833-1.099 0.61979-1.651 0.54167-0.55729 1.4219-0.55729 0.95834 0 1.4479 0.64583 0.4948 0.64584 0.4948 1.4688 0 0.72917-0.38542 1.401-0.38542 0.66667-1.4636 1.7813-0.6875 0.70313-0.89063 0.95833-0.19791 0.25521-0.32291 0.51042z"/>
    </g>
    <g transform="translate(12.237 164.2)" aria-label="eth3">
     <path d="m331.01 268.21 0.79167 0.11979q-0.19792 0.88542-0.71875 1.3386-0.51563 0.44792-1.2813 0.44792-0.96354 0-1.5625-0.72917-0.59375-0.73438-0.59375-2.1146 0-1.4323 0.59896-2.1823 0.60416-0.75521 1.526-0.75521 0.88021 0 1.4688 0.73959 0.58854 0.73958 0.58854 2.1406l-5e-3 0.25h-3.3854q0.0469 0.93229 0.4323 1.4062 0.38542 0.47396 0.9375 0.47396 0.86459 0 1.2031-1.1354zm-2.526-1.5156h2.5313q-0.0521-0.71875-0.3073-1.0729-0.36979-0.51562-0.94271-0.51562-0.51562 0-0.88021 0.43229-0.36458 0.42708-0.40104 1.1562z"/>
     <path d="m334.5 269.15 0.10416 0.82813q-0.31771 0.0833-0.57292 0.0833-0.40104 0-0.64583-0.15625-0.24479-0.16146-0.33854-0.4375-0.0885-0.27604-0.0885-1.099v-3.1823h-0.5625v-0.72917h0.5625v-1.3698l0.76563-0.5625v1.9323h0.77605v0.72917h-0.77605v3.2344q0 0.44792 0.0677 0.57813 0.099 0.1875 0.36979 0.1875 0.13021 0 0.33855-0.0365z"/>
     <path d="m335.22 269.99v-7.6354h0.76562v2.7396q0.27084-0.38021 0.60938-0.56771 0.34375-0.19271 0.75521-0.19271 0.72396 0 1.1406 0.46354 0.42188 0.45834 0.42188 1.6875v3.5052h-0.76563v-3.5052q0-0.71875-0.25521-1.0313-0.25521-0.3125-0.70313-0.3125-0.5 0-0.85417 0.40105-0.34896 0.40104-0.34896 1.4219v3.026z"/>
     <path d="m339.89 267.97 0.77083-0.125q0.23959 1.5 1.2136 1.5 0.52604 0 0.91146-0.44271 0.38542-0.44792 0.38542-1.1562 0-0.66667-0.35417-1.0729t-0.86979-0.40625q-0.21876 0-0.54167 0.10416l0.0885-0.82292 0.11979 0.0104q0.56771 0 0.92188-0.34896t0.35417-0.93229q0-0.53646-0.29688-0.85938-0.29688-0.32813-0.72396-0.32813-0.44271 0-0.75 0.34375-0.30209 0.33855-0.38542 1.0313l-0.76563-0.16667q0.14584-0.97917 0.65625-1.4792 0.51042-0.5 1.2344-0.5 0.76042 0 1.2917 0.5625 0.53126 0.5625 0.53126 1.4167 0 0.52083-0.22917 0.92188-0.22396 0.40104-0.63021 0.63021 0.375 0.10416 0.61979 0.34375 0.24479 0.23958 0.39584 0.64063 0.15104 0.40104 0.15104 0.89583 0 1.0521-0.6198 1.724-0.61979 0.66666-1.4844 0.66666-0.80208 0-1.3594-0.58333-0.5573-0.58334-0.63542-1.5677z"/>
    </g>
    <g transform="translate(12.237 164.2)" aria-label="eth0 / PoE IN">
     <path d="m59.532 268.07 0.79167 0.11979q-0.19792 0.88542-0.71875 1.3386-0.51563 0.44792-1.2813 0.44792-0.96354 0-1.5625-0.72917-0.59375-0.73438-0.59375-2.1146 0-1.4323 0.59896-2.1823 0.60417-0.75521 1.526-0.75521 0.88021 0 1.4688 0.73958 0.58854 0.73959 0.58854 2.1406l-0.0052 0.25h-3.3854q0.04688 0.93229 0.43229 1.4062 0.38542 0.47396 0.9375 0.47396 0.86459 0 1.2031-1.1354zm-2.526-1.5156h2.5313q-0.05208-0.71875-0.30729-1.0729-0.36979-0.51563-0.94271-0.51563-0.51563 0-0.88021 0.4323-0.36458 0.42708-0.40104 1.1562z"/>
     <path d="m63.016 269.01 0.10417 0.82813q-0.31771 0.0833-0.57292 0.0833-0.40104 0-0.64584-0.15625-0.24479-0.16146-0.33854-0.4375-0.08854-0.27604-0.08854-1.099v-3.1823h-0.5625v-0.72917h0.5625v-1.3698l0.76563-0.5625v1.9323h0.77604v0.72917h-0.77604v3.2344q0 0.44792 0.06771 0.57813 0.09896 0.1875 0.36979 0.1875 0.13021 0 0.33854-0.0365z"/>
     <path d="m63.74 269.85v-7.6354h0.76563v2.7396q0.27083-0.38021 0.60938-0.56771 0.34375-0.19271 0.75521-0.19271 0.72396 0 1.1406 0.46354 0.42188 0.45834 0.42188 1.6875v3.5052h-0.76563v-3.5052q0-0.71876-0.25521-1.0313t-0.70313-0.3125q-0.5 0-0.85417 0.40105-0.34896 0.40104-0.34896 1.4219v3.0261z"/>
     <path d="m68.401 266.09q0-1.9219 0.51563-2.9115 0.52084-0.98958 1.5313-0.98958 0.89584 0 1.4115 0.80208 0.625 0.96875 0.625 3.099 0 1.9115-0.51563 2.9063-0.51563 0.98958-1.5313 0.98958-0.89584 0-1.4688-0.875-0.56771-0.875-0.56771-3.0208zm0.78646 0q0 1.8594 0.35417 2.4948 0.35938 0.63021 0.91667 0.63021 0.52604 0 0.88021-0.64063 0.35417-0.64062 0.35417-2.4844 0-1.8646-0.35938-2.4948-0.35417-0.63021-0.92188-0.63021-0.52084 0-0.875 0.64063-0.34896 0.64062-0.34896 2.4844z"/>
     <path d="m75.365 269.98 1.8125-7.8958h0.61979l-1.8177 7.8958z"/>
     <path d="m80.917 269.85v-7.6354h2.3594q0.83334 0 1.2292 0.14583 0.54167 0.19792 0.86459 0.73438 0.32292 0.53646 0.32292 1.3177 0 1.0312-0.52604 1.6823-0.52604 0.65104-1.8177 0.65104h-1.6042v3.1042zm0.82813-4.0052h1.6198q0.76563 0 1.1198-0.34376 0.35417-0.34896 0.35417-1.0469 0-0.45313-0.17708-0.77605-0.17188-0.32292-0.42188-0.44271-0.24479-0.11979-0.89063-0.11979h-1.6042z"/>
     <path d="m86.349 267.09q0-1.4323 0.59896-2.1615 0.60417-0.72917 1.526-0.72917 0.90625 0 1.5156 0.72917t0.60938 2.1042q0 1.4896-0.59896 2.2188t-1.526 0.72917q-0.91146 0-1.5208-0.72917-0.60417-0.73438-0.60417-2.1615zm0.78646 0q0 1.0729 0.39063 1.599 0.39063 0.52083 0.96875 0.52083 0.54167 0 0.92709-0.52604 0.39063-0.53125 0.39063-1.5938 0-1.0677-0.39063-1.5885-0.39063-0.52605-0.96875-0.52605-0.54688 0-0.93229 0.52605-0.38542 0.52604-0.38542 1.5885z"/>
     <path d="m91.641 269.85v-7.6354h4.5261v0.90104h-3.6979v2.3386h3.4636v0.89584h-3.4636v2.599h3.8438v0.90105z"/>
     <path d="m100.05 269.85v-7.6354h0.82813v7.6354z"/>
     <path d="m102.31 269.85v-7.6354h0.84896l3.2917 5.9948v-5.9948h0.79167v7.6354h-0.84896l-3.2865-6v6z"/>
    </g>
   </g>
  </g>
  <g transform="translate(12.237 164.2)" fill="#262626" aria-label="eth4 / PoE OUT">
   <path d="m394.52 268.25 0.79167 0.11979q-0.19792 0.88542-0.71875 1.3385-0.51563 0.44792-1.2813 0.44792-0.96354 0-1.5625-0.72917-0.59375-0.73437-0.59375-2.1146 0-1.4323 0.59896-2.1823 0.60417-0.75522 1.526-0.75522 0.88022 0 1.4688 0.73959t0.58854 2.1406l-5e-3 0.25h-3.3854q0.0469 0.9323 0.43229 1.4063 0.38542 0.47396 0.9375 0.47396 0.86459 0 1.2031-1.1354zm-2.526-1.5156h2.5313q-0.0521-0.71876-0.30729-1.0729-0.3698-0.51563-0.94271-0.51563-0.51563 0-0.88021 0.43229-0.36459 0.42709-0.40105 1.1563z"/>
   <path d="m398 269.2 0.10416 0.82813q-0.3177 0.0833-0.57291 0.0833-0.40105 0-0.64584-0.15625-0.24479-0.16146-0.33854-0.4375-0.0885-0.27605-0.0885-1.099v-3.1823h-0.56251v-0.72917h0.56251v-1.3698l0.76562-0.5625v1.9323h0.77605v0.72917h-0.77605v3.2344q0 0.44792 0.0677 0.57813 0.099 0.1875 0.3698 0.1875 0.1302 0 0.33854-0.0365z"/>
   <path d="m398.73 270.04v-7.6354h0.76563v2.7396q0.27083-0.38021 0.60937-0.56771 0.34375-0.19271 0.75521-0.19271 0.72396 0 1.1406 0.46355 0.42188 0.45833 0.42188 1.6875v3.5052h-0.76563v-3.5052q0-0.71875-0.25521-1.0312t-0.70313-0.3125q-0.5 0-0.85416 0.40104-0.34896 0.40104-0.34896 1.4219v3.026z"/>
   <path d="m405.85 270.04v-1.8281h-2.7136v-0.85938l2.8594-4.9479h0.62501v4.9479h0.84896v0.85938h-0.84896v1.8281zm0-2.6875v-3.4427l-1.9583 3.4427z"/>
   <path d="m410.35 270.17 1.8125-7.8959h0.61979l-1.8177 7.8959z"/>
   <path d="m415.9 270.04v-7.6354h2.3594q0.83333 0 1.2292 0.14584 0.54167 0.19791 0.86458 0.73437 0.32292 0.53646 0.32292 1.3177 0 1.0312-0.52604 1.6823-0.52604 0.65105-1.8177 0.65105h-1.6042v3.1042zm0.82812-4.0052h1.6198q0.76563 0 1.1198-0.34375 0.35416-0.34896 0.35416-1.0469 0-0.45312-0.17708-0.77604-0.17188-0.32292-0.42188-0.44271-0.24479-0.11979-0.89063-0.11979h-1.6042z"/>
   <path d="m421.34 267.27q0-1.4323 0.59896-2.1615 0.60417-0.72917 1.526-0.72917 0.90625 0 1.5156 0.72917t0.60938 2.1042q0 1.4896-0.59896 2.2188t-1.526 0.72917q-0.91146 0-1.5208-0.72917-0.60417-0.73437-0.60417-2.1615zm0.78646 0q0 1.0729 0.39063 1.599 0.39063 0.52084 0.96875 0.52084 0.54167 0 0.92709-0.52605 0.39063-0.53125 0.39063-1.5938 0-1.0677-0.39063-1.5886-0.39063-0.52604-0.96875-0.52604-0.54688 0-0.9323 0.52604-0.38542 0.52605-0.38542 1.5886z"/>
   <path d="m426.63 270.04v-7.6354h4.526v0.90105h-3.6979v2.3386h3.4636v0.89583h-3.4636v2.599h3.8438v0.90104z"/>
   <path d="m434.65 266.32q0-1.9531 0.85938-3 0.85938-1.0521 2.1406-1.0521 0.82813 0 1.5104 0.46876 0.68229 0.46875 1.0781 1.3646 0.40105 0.89063 0.40105 2.125 0 1.6979-0.77084 2.7656-0.84896 1.1771-2.224 1.1771-1.3854 0-2.2292-1.2083-0.76563-1.0938-0.76563-2.6406zm0.85417 0.0156q0 1.4115 0.6198 2.1927 0.625 0.77604 1.5156 0.77604 0.91146 0 1.526-0.78646 0.6198-0.78646 0.6198-2.3125 0-0.98438-0.31771-1.7604-0.24479-0.59375-0.73959-0.94792-0.48958-0.35937-1.0729-0.35937-0.9375 0-1.5469 0.78125-0.60417 0.78125-0.60417 2.4167z"/>
   <path d="m445.78 262.4h0.83333v4.4115q0 1.1094-0.21875 1.8229-0.21354 0.70833-0.78646 1.1198-0.56771 0.41146-1.4479 0.41146-1.2396 0-1.8594-0.73958-0.61458-0.73959-0.61458-2.6146v-4.4115h0.82812v4.4063q0 1.0365 0.16146 1.5t0.52604 0.70834q0.3698 0.23958 0.89584 0.23958 0.88542 0 1.2813-0.5 0.40104-0.5 0.40104-1.9479z"/>
   <path d="m449.61 270.04v-6.7344h-2.0625v-0.90105h4.9636v0.90105h-2.0729v6.7344z"/>
  </g>
  <g transform="translate(182.39 164.2)" stroke="#666">
   <rect x="214.09" y="201.49" width="74.573" height="58.118" fill="#ccc"/>
   <path d="m224.01 251.76v-34.867h-6.8369v-8.567h22.924v-5.6304h22.119v5.6304h22.521v8.567h-5.6304v34.867z" fill="#262626" stroke-width="1px"/>
  </g>
 </g>
</svg>
