<?xml version="1.0" encoding="UTF-8"?>
<svg width="514" height="514" version="1.1" viewBox="0 0 514 514" xmlns="http://www.w3.org/2000/svg" xmlns:cc="http://creativecommons.org/ns#" xmlns:dc="http://purl.org/dc/elements/1.1/" xmlns:rdf="http://www.w3.org/1999/02/22-rdf-syntax-ns#">
 <metadata>
  <rdf:RDF>
   <cc:Work rdf:about="">
    <dc:format>image/svg+xml</dc:format>
    <dc:type rdf:resource="http://purl.org/dc/dcmitype/StillImage"/>
    <dc:title/>
    <cc:license rdf:resource="http://creativecommons.org/licenses/by-nc-sa/4.0/"/>
    <dc:creator>
     <cc:Agent>
      <dc:title>Jan Alexander</dc:title>
     </cc:Agent>
    </dc:creator>
   </cc:Work>
   <cc:License rdf:about="http://creativecommons.org/licenses/by-nc-sa/4.0/">
    <cc:permits rdf:resource="http://creativecommons.org/ns#Reproduction"/>
    <cc:permits rdf:resource="http://creativecommons.org/ns#Distribution"/>
    <cc:requires rdf:resource="http://creativecommons.org/ns#Notice"/>
    <cc:requires rdf:resource="http://creativecommons.org/ns#Attribution"/>
    <cc:prohibits rdf:resource="http://creativecommons.org/ns#CommercialUse"/>
    <cc:permits rdf:resource="http://creativecommons.org/ns#DerivativeWorks"/>
    <cc:requires rdf:resource="http://creativecommons.org/ns#ShareAlike"/>
   </cc:License>
  </rdf:RDF>
 </metadata>
 <g>
  <rect x="33.313" y="267.64" width="447.39" height="63.855" ry="0" fill="#262626" stroke="#666"/>
  <path d="m33.312 267.64 22.49-85.141h404.42l20.484 85.141z" fill="#262626" stroke="#666" stroke-width="1px"/>
  <g transform="translate(1.5856 130.29)" stroke="#666">
   <rect transform="translate(-1543.5,-771.75)" x="1704.1" y="918.28" width="51.238" height="37.376" ry="0" fill="#ccc"/>
   <path d="m206.68 179.46h-41.089v-23.762h-3.2178v-6.1881h16.089v-2.9703h15.842v2.9703h16.089v6.1881h-3.7129z" fill="#262626" stroke-width="1px"/>
  </g>
  <g transform="translate(62.427 130.29)" stroke="#666">
   <rect transform="translate(-1543.5,-771.75)" x="1704.1" y="918.28" width="51.238" height="37.376" ry="0" fill="#ccc"/>
   <path d="m206.68 179.46h-41.089v-23.762h-3.2178v-6.1881h16.089v-2.9703h15.842v2.9703h16.089v6.1881h-3.7129z" fill="#262626" stroke-width="1px"/>
  </g>
  <g transform="translate(122.03 130.29)" stroke="#666">
   <rect transform="translate(-1543.5,-771.75)" x="1704.1" y="918.28" width="51.238" height="37.376" ry="0" fill="#ccc"/>
   <path d="m206.68 179.46h-41.089v-23.762h-3.2178v-6.1881h16.089v-2.9703h15.842v2.9703h16.089v6.1881h-3.7129z" fill="#262626" stroke-width="1px"/>
  </g>
  <g transform="translate(182.85 130.29)" stroke="#666">
   <rect transform="translate(-1543.5,-771.75)" x="1704.1" y="918.28" width="51.238" height="37.376" ry="0" fill="#ccc"/>
   <path d="m206.68 179.46h-41.089v-23.762h-3.2178v-6.1881h16.089v-2.9703h15.842v2.9703h16.089v6.1881h-3.7129z" fill="#262626" stroke-width="1px"/>
  </g>
  <g transform="translate(242.76 130.29)" stroke="#666">
   <rect transform="translate(-1543.5,-771.75)" x="1704.1" y="918.28" width="51.238" height="37.376" ry="0" fill="#ccc"/>
   <path d="m206.68 179.46h-41.089v-23.762h-3.2178v-6.1881h16.089v-2.9703h15.842v2.9703h16.089v6.1881h-3.7129z" fill="#262626" stroke-width="1px"/>
  </g>
  <g transform="translate(1.5856 130.29)" fill="#ccc" aria-label="eth5/SFP">
   <path d="m89.03 150.95 0.59375 0.0899q-0.14844 0.66406-0.53906 1.0039-0.38672 0.33594-0.96094 0.33594-0.72266 0-1.1719-0.54687-0.44531-0.55079-0.44531-1.5859 0-1.0742 0.44922-1.6367 0.45312-0.56641 1.1445-0.56641 0.66016 0 1.1016 0.55469 0.44141 0.55469 0.44141 1.6055l-0.0039 0.1875h-2.5391q0.03516 0.69922 0.32422 1.0547 0.28906 0.35547 0.70312 0.35547 0.64844 0 0.90234-0.85157zm-1.8945-1.1367h1.8984q-0.03906-0.53906-0.23047-0.80468-0.27734-0.38672-0.70703-0.38672-0.38672 0-0.66016 0.32422-0.27344 0.32031-0.30078 0.86718z"/>
   <path d="m91.644 151.66 0.07813 0.6211q-0.23828 0.0625-0.42969 0.0625-0.30078 0-0.48438-0.11719-0.18359-0.12109-0.25391-0.32812-0.06641-0.20704-0.06641-0.82422v-2.3867h-0.42188v-0.54688h0.42188v-1.0273l0.57422-0.42188v1.4492h0.58203v0.54688h-0.58203v2.4258q0 0.33594 0.05078 0.43359 0.07422 0.14063 0.27734 0.14063 0.09766 0 0.25391-0.0274z"/>
   <path d="m92.187 152.29v-5.7266h0.57422v2.0547q0.20312-0.28516 0.45703-0.42579 0.25781-0.14453 0.56641-0.14453 0.54297 0 0.85547 0.34766 0.31641 0.34375 0.31641 1.2656v2.6289h-0.57422v-2.6289q0-0.53906-0.19141-0.77343-0.19141-0.23438-0.52734-0.23438-0.375 0-0.64062 0.30078-0.26172 0.30078-0.26172 1.0664v2.2695z"/>
   <path d="m95.683 150.79 0.60547-0.0625q0.07031 0.54688 0.31641 0.81641 0.25 0.26562 0.57812 0.26562 0.41016 0 0.70703-0.375 0.29688-0.3789 0.29688-1.0312 0-0.61328-0.28906-0.94922-0.28516-0.33984-0.71875-0.33984-0.26172 0-0.49219 0.14844-0.22656 0.14453-0.35938 0.40625l-0.54297-0.0859 0.45703-2.9414h2.332v0.67188h-1.8711l-0.25391 1.5391q0.41797-0.35937 0.88672-0.35937 0.58984 0 1.0234 0.5039 0.4375 0.5 0.4375 1.3516 0 0.83985-0.4375 1.4414-0.43359 0.59766-1.168 0.59766-0.60938 0-1.0312-0.42188-0.41797-0.42578-0.47656-1.1758z"/>
   <path d="m99.077 152.38 1.3594-5.9219h0.46485l-1.3633 5.9219z"/>
   <path d="m101.2 150.45 0.58594-0.0625q0.0469 0.47265 0.21093 0.73828 0.16797 0.26172 0.47657 0.42187 0.30859 0.16016 0.69531 0.16016 0.55469 0 0.85937-0.26953 0.3086-0.27344 0.3086-0.70703 0-0.25391-0.11328-0.44141-0.10938-0.19141-0.33594-0.3125-0.22266-0.12109-0.96875-0.33984-0.66406-0.19532-0.94531-0.39453-0.28125-0.19922-0.4375-0.50391-0.15625-0.30859-0.15625-0.69531 0-0.69532 0.44922-1.1367 0.44921-0.44141 1.2109-0.44141 0.52344 0 0.91407 0.20703 0.39453 0.20703 0.60937 0.59375 0.21875 0.38672 0.23438 0.91016l-0.59766 0.0547q-0.0469-0.5586-0.33594-0.82813-0.28515-0.26953-0.80469-0.26953-0.52734 0-0.80468 0.23828-0.27735 0.23438-0.27735 0.60938 0 0.34765 0.20313 0.53906 0.20312 0.19141 0.91406 0.38672 0.69531 0.1914 0.97656 0.33203 0.42969 0.21875 0.64844 0.57812 0.21875 0.35547 0.21875 0.85157 0 0.49218-0.23047 0.89843-0.23047 0.40235-0.6289 0.61329-0.39454 0.21093-0.95313 0.21093-0.87109 0-1.3906-0.52343-0.51563-0.52344-0.53516-1.418z"/>
   <path d="m105.83 152.29v-5.7266h3.168v0.67578h-2.5469v1.7734h2.2031v0.67578h-2.2031v2.6016z"/>
   <path d="m109.8 152.29v-5.7266h1.7695q0.625 0 0.92188 0.10937 0.40625 0.14844 0.64844 0.55078 0.24218 0.40235 0.24218 0.98829 0 0.77343-0.39453 1.2617-0.39453 0.48829-1.3633 0.48829h-1.2031v2.3281zm0.6211-3.0039h1.2148q0.57422 0 0.83984-0.25781 0.26563-0.26172 0.26563-0.78515 0-0.33985-0.13281-0.58204-0.12891-0.24218-0.31641-0.33203-0.18359-0.0898-0.66797-0.0898h-1.2031z"/>
  </g>
  <rect x="77.081" y="286.98" width="46.782" height="28.218" ry="1.7327" fill="#262626" stroke="#ccc"/>
  <g fill="#ccc">
   <g transform="translate(-1541.9 -641.46)" aria-label="eth0">
    <path d="m1727.4 966.87 0.5938 0.0898q-0.1485 0.66407-0.5391 1.0039-0.3867 0.33594-0.9609 0.33594-0.7227 0-1.1719-0.54688-0.4453-0.55078-0.4453-1.5859 0-1.0742 0.4492-1.6367 0.4531-0.56641 1.1445-0.56641 0.6602 0 1.1016 0.55469 0.4414 0.55468 0.4414 1.6055v0.1875h-2.5391q0.035 0.69921 0.3242 1.0547 0.2891 0.35547 0.7032 0.35547 0.6484 0 0.9023-0.85156zm-1.8945-1.1367h1.8984q-0.039-0.53906-0.2304-0.80469-0.2774-0.38672-0.7071-0.38672-0.3867 0-0.6601 0.32422-0.2735 0.32032-0.3008 0.86719z"/>
    <path d="m1730 967.58 0.078 0.62109q-0.2383 0.0625-0.4297 0.0625-0.3007 0-0.4843-0.11718-0.1836-0.1211-0.2539-0.32813-0.066-0.20703-0.066-0.82422v-2.3867h-0.4218v-0.54687h0.4218v-1.0273l0.5743-0.42188v1.4492h0.582v0.54687h-0.582v2.4258q0 0.33593 0.051 0.43359 0.074 0.14062 0.2774 0.14062 0.098 0 0.2539-0.0273z"/>
    <path d="m1730.5 968.21v-5.7266h0.5742v2.0547q0.2031-0.28515 0.457-0.42578 0.2578-0.14453 0.5664-0.14453 0.543 0 0.8555 0.34766 0.3164 0.34375 0.3164 1.2656v2.6289h-0.5742v-2.6289q0-0.53906-0.1914-0.77344-0.1914-0.23437-0.5274-0.23437-0.375 0-0.6406 0.30078-0.2617 0.30078-0.2617 1.0664v2.2695z"/>
    <path d="m1734 965.38q0-1.4414 0.3867-2.1836 0.3906-0.74218 1.1484-0.74218 0.6719 0 1.0586 0.60156 0.4688 0.72656 0.4688 2.3242 0 1.4336-0.3868 2.1797-0.3867 0.74218-1.1484 0.74218-0.6719 0-1.1016-0.65625-0.4257-0.65625-0.4257-2.2656zm0.5898 0q0 1.3945 0.2656 1.8711 0.2696 0.47266 0.6875 0.47266 0.3946 0 0.6602-0.48047t0.2656-1.8633q0-1.3984-0.2695-1.8711-0.2656-0.47265-0.6914-0.47265-0.3907 0-0.6563 0.48047-0.2617 0.48047-0.2617 1.8633z"/>
   </g>
   <g transform="translate(-1541.9 -641.46)" aria-label="eth1">
    <path d="m1787.9 966.87 0.5937 0.0898q-0.1484 0.66407-0.539 1.0039-0.3868 0.33594-0.961 0.33594-0.7226 0-1.1718-0.54688-0.4454-0.55078-0.4454-1.5859 0-1.0742 0.4493-1.6367 0.4531-0.56641 1.1445-0.56641 0.6601 0 1.1016 0.55469 0.4414 0.55468 0.4414 1.6055v0.1875h-2.5391q0.035 0.69921 0.3242 1.0547 0.2891 0.35547 0.7031 0.35547 0.6485 0 0.9024-0.85156zm-1.8946-1.1367h1.8985q-0.039-0.53906-0.2305-0.80469-0.2773-0.38672-0.707-0.38672-0.3867 0-0.6602 0.32422-0.2734 0.32032-0.3008 0.86719z"/>
    <path d="m1790.5 967.58 0.078 0.62109q-0.2383 0.0625-0.4297 0.0625-0.3008 0-0.4844-0.11718-0.1836-0.1211-0.2539-0.32813-0.066-0.20703-0.066-0.82422v-2.3867h-0.4219v-0.54687h0.4219v-1.0273l0.5742-0.42188v1.4492h0.5821v0.54687h-0.5821v2.4258q0 0.33593 0.051 0.43359 0.074 0.14062 0.2774 0.14062 0.098 0 0.2539-0.0273z"/>
    <path d="m1791 968.21v-5.7266h0.5742v2.0547q0.2032-0.28515 0.4571-0.42578 0.2578-0.14453 0.5664-0.14453 0.543 0 0.8555 0.34766 0.3164 0.34375 0.3164 1.2656v2.6289h-0.5743v-2.6289q0-0.53906-0.1914-0.77344-0.1914-0.23437-0.5273-0.23437-0.375 0-0.6406 0.30078-0.2618 0.30078-0.2618 1.0664v2.2695z"/>
    <path d="m1796.7 968.21h-0.5781v-4.4805q-0.1992 0.23437-0.5352 0.48047-0.3359 0.24218-0.6172 0.36718v-0.67968q0.4766-0.27344 0.8399-0.66797 0.3672-0.39453 0.5156-0.76953h0.375z"/>
   </g>
   <g transform="translate(-1541.9 -641.46)" aria-label="eth2">
    <path d="m1847.8 966.87 0.5938 0.0898q-0.1485 0.66407-0.5391 1.0039-0.3867 0.33594-0.9609 0.33594-0.7227 0-1.1719-0.54688-0.4453-0.55078-0.4453-1.5859 0-1.0742 0.4492-1.6367 0.4531-0.56641 1.1445-0.56641 0.6602 0 1.1016 0.55469 0.4414 0.55468 0.4414 1.6055v0.1875h-2.5391q0.035 0.69921 0.3242 1.0547 0.2891 0.35547 0.7032 0.35547 0.6484 0 0.9023-0.85156zm-1.8945-1.1367h1.8984q-0.039-0.53906-0.2305-0.80469-0.2773-0.38672-0.707-0.38672-0.3867 0-0.6601 0.32422-0.2735 0.32032-0.3008 0.86719z"/>
    <path d="m1850.4 967.58 0.078 0.62109q-0.2383 0.0625-0.4297 0.0625-0.3008 0-0.4843-0.11718-0.1836-0.1211-0.254-0.32813-0.066-0.20703-0.066-0.82422v-2.3867h-0.4218v-0.54687h0.4218v-1.0273l0.5743-0.42188v1.4492h0.582v0.54687h-0.582v2.4258q0 0.33593 0.051 0.43359 0.074 0.14062 0.2774 0.14062 0.098 0 0.2539-0.0273z"/>
    <path d="m1851 968.21v-5.7266h0.5742v2.0547q0.2031-0.28515 0.457-0.42578 0.2578-0.14453 0.5664-0.14453 0.543 0 0.8555 0.34766 0.3164 0.34375 0.3164 1.2656v2.6289h-0.5742v-2.6289q0-0.53906-0.1914-0.77344-0.1914-0.23437-0.5274-0.23437-0.375 0-0.6406 0.30078-0.2617 0.30078-0.2617 1.0664v2.2695z"/>
    <path d="m1857.5 967.53v0.67578h-3.1055q-0.012-0.41016 0.2461-0.91797 0.2618-0.50781 0.9532-1.1992 0.8086-0.80469 1.0586-1.2422 0.25-0.4414 0.25-0.82031 0-0.4375-0.2579-0.71094-0.2539-0.27734-0.6289-0.27734-0.4023 0-0.6601 0.29687-0.2578 0.29688-0.2578 0.85157l-0.5938-0.0742q0.062-0.82422 0.4649-1.2383 0.4062-0.41797 1.0664-0.41797 0.7187 0 1.0859 0.48437 0.3711 0.48438 0.3711 1.1016 0 0.54688-0.2891 1.0508-0.289 0.5-1.0976 1.3359-0.5156 0.52735-0.668 0.71875-0.1484 0.19141-0.2422 0.38282z"/>
   </g>
   <g transform="translate(-1541.9 -641.46)" aria-label="eth3">
    <path d="m1907.4 966.87 0.5938 0.0898q-0.1485 0.66407-0.5391 1.0039-0.3867 0.33594-0.9609 0.33594-0.7227 0-1.1719-0.54688-0.4453-0.55078-0.4453-1.5859 0-1.0742 0.4492-1.6367 0.4531-0.56641 1.1445-0.56641 0.6602 0 1.1016 0.55469 0.4414 0.55468 0.4414 1.6055v0.1875h-2.5391q0.035 0.69921 0.3242 1.0547 0.2891 0.35547 0.7032 0.35547 0.6484 0 0.9023-0.85156zm-1.8945-1.1367h1.8984q-0.039-0.53906-0.2305-0.80469-0.2773-0.38672-0.707-0.38672-0.3867 0-0.6601 0.32422-0.2735 0.32032-0.3008 0.86719z"/>
    <path d="m1910 967.58 0.078 0.62109q-0.2383 0.0625-0.4297 0.0625-0.3008 0-0.4843-0.11718-0.1836-0.1211-0.254-0.32813-0.066-0.20703-0.066-0.82422v-2.3867h-0.4218v-0.54687h0.4218v-1.0273l0.5743-0.42188v1.4492h0.582v0.54687h-0.582v2.4258q0 0.33593 0.051 0.43359 0.074 0.14062 0.2774 0.14062 0.098 0 0.2539-0.0273z"/>
    <path d="m1910.6 968.21v-5.7266h0.5742v2.0547q0.2031-0.28515 0.457-0.42578 0.2578-0.14453 0.5664-0.14453 0.543 0 0.8555 0.34766 0.3164 0.34375 0.3164 1.2656v2.6289h-0.5742v-2.6289q0-0.53906-0.1914-0.77344-0.1914-0.23437-0.5274-0.23437-0.375 0-0.6406 0.30078-0.2617 0.30078-0.2617 1.0664v2.2695z"/>
    <path d="m1914.1 966.69 0.5781-0.0937q0.1797 1.125 0.9101 1.125 0.3946 0 0.6836-0.33203 0.2891-0.33594 0.2891-0.86719 0-0.5-0.2656-0.80469-0.2657-0.30469-0.6524-0.30469-0.164 0-0.4062 0.0781l0.066-0.61719 0.09 8e-3q0.4258 0 0.6914-0.26171 0.2657-0.26172 0.2657-0.69922 0-0.40235-0.2227-0.64453-0.2227-0.2461-0.543-0.2461-0.332 0-0.5625 0.25781-0.2265 0.25391-0.289 0.77344l-0.5742-0.125q0.1093-0.73437 0.4921-1.1094 0.3829-0.375 0.9258-0.375 0.5703 0 0.9688 0.42187 0.3984 0.42188 0.3984 1.0625 0 0.39063-0.1719 0.69141-0.1679 0.30078-0.4726 0.47265 0.2812 0.0781 0.4648 0.25782 0.1836 0.17968 0.2969 0.48047 0.1133 0.30078 0.1133 0.67187 0 0.78906-0.4649 1.293-0.4648 0.5-1.1132 0.5-0.6016 0-1.0196-0.4375-0.4179-0.4375-0.4765-1.1758z"/>
   </g>
   <g transform="translate(-1541.9 -641.46)" aria-label="eth4">
    <path d="m1966.7 966.87 0.5938 0.0898q-0.1485 0.66407-0.5391 1.0039-0.3867 0.33594-0.9609 0.33594-0.7227 0-1.1719-0.54688-0.4453-0.55078-0.4453-1.5859 0-1.0742 0.4492-1.6367 0.4531-0.56641 1.1445-0.56641 0.6602 0 1.1016 0.55469 0.4414 0.55468 0.4414 1.6055v0.1875h-2.5391q0.035 0.69921 0.3243 1.0547 0.289 0.35547 0.7031 0.35547 0.6484 0 0.9023-0.85156zm-1.8945-1.1367h1.8984q-0.039-0.53906-0.2304-0.80469-0.2774-0.38672-0.7071-0.38672-0.3867 0-0.6601 0.32422-0.2735 0.32032-0.3008 0.86719z"/>
    <path d="m1969.3 967.58 0.078 0.62109q-0.2383 0.0625-0.4297 0.0625-0.3007 0-0.4843-0.11718-0.1836-0.1211-0.2539-0.32813-0.066-0.20703-0.066-0.82422v-2.3867h-0.4219v-0.54687h0.4219v-1.0273l0.5742-0.42188v1.4492h0.582v0.54687h-0.582v2.4258q0 0.33593 0.051 0.43359 0.074 0.14062 0.2773 0.14062 0.098 0 0.2539-0.0273z"/>
    <path d="m1969.9 968.21v-5.7266h0.5742v2.0547q0.2031-0.28515 0.457-0.42578 0.2578-0.14453 0.5664-0.14453 0.543 0 0.8555 0.34766 0.3164 0.34375 0.3164 1.2656v2.6289h-0.5742v-2.6289q0-0.53906-0.1914-0.77344-0.1914-0.23437-0.5274-0.23437-0.375 0-0.6406 0.30078-0.2617 0.30078-0.2617 1.0664v2.2695z"/>
    <path d="m1975.2 968.21v-1.3711h-2.0351v-0.64453l2.1445-3.7109h0.4687v3.7109h0.6368v0.64453h-0.6368v1.3711zm0-2.0156v-2.582l-1.4687 2.582z"/>
   </g>
  </g>
  <g fill="#0f0" stroke="#666">
   <ellipse cx="172.56" cy="192.52" rx="2.8926" ry="1.5224"/>
   <ellipse cx="210.76" cy="192.52" rx="2.8926" ry="1.5224"/>
   <ellipse cx="239.98" cy="192.52" rx="2.8926" ry="1.5224"/>
   <ellipse cx="268.98" cy="192.52" rx="2.8926" ry="1.5224"/>
   <ellipse cx="297.98" cy="192.52" rx="2.8926" ry="1.5224"/>
   <ellipse cx="327.98" cy="192.52" rx="2.8926" ry="1.5224"/>
   <ellipse cx="357.98" cy="192.52" rx="2.8926" ry="1.5224"/>
   <ellipse cx="239.98" cy="186.32" rx="2.8926" ry="1.5224"/>
   <ellipse cx="268.98" cy="186.32" rx="2.8926" ry="1.5224"/>
   <ellipse cx="297.98" cy="186.32" rx="2.8926" ry="1.5224"/>
   <ellipse cx="327.98" cy="186.32" rx="2.8926" ry="1.5224"/>
   <ellipse cx="357.98" cy="186.32" rx="2.8926" ry="1.5224"/>
  </g>
 </g>
</svg>
