<?xml version="1.0" encoding="UTF-8" standalone="no"?>
<svg
   width="100%"
   height="100%"
   viewBox="0 0 1280 1150"
   version="1.1"
   xml:space="preserve"
   style="fill-rule:evenodd;clip-rule:evenodd;stroke-linecap:round;stroke-linejoin:round;stroke-miterlimit:1.41421;"
   id="svg37"
   sodipodi:docname="acmeshpro.svg"
   inkscape:version="1.2.2 (1:1.2.2+202212051552+b0a8486541)"
   xmlns:inkscape="http://www.inkscape.org/namespaces/inkscape"
   xmlns:sodipodi="http://sodipodi.sourceforge.net/DTD/sodipodi-0.dtd"
   xmlns="http://www.w3.org/2000/svg"
   xmlns:svg="http://www.w3.org/2000/svg"><defs
   id="defs41" /><sodipodi:namedview
   id="namedview39"
   pagecolor="#ffffff"
   bordercolor="#666666"
   borderopacity="1.0"
   inkscape:showpageshadow="2"
   inkscape:pageopacity="0.0"
   inkscape:pagecheckerboard="0"
   inkscape:deskcolor="#d1d1d1"
   showgrid="false"
   inkscape:zoom="0.5"
   inkscape:cx="954"
   inkscape:cy="314"
   inkscape:window-width="2560"
   inkscape:window-height="1372"
   inkscape:window-x="0"
   inkscape:window-y="0"
   inkscape:window-maximized="0"
   inkscape:current-layer="svg37" />
    
<text
   xml:space="preserve"
   style="font-style:normal;font-weight:normal;font-size:40px;line-height:1.25;font-family:sans-serif;letter-spacing:0px;word-spacing:0px;fill:#000000;fill-opacity:1;stroke:none"
   x="1221.7524"
   y="232.71478"
   id="text15531"><tspan
     sodipodi:role="line"
     id="tspan15529"
     x="1221.7524"
     y="232.71478" /></text><g
   id="g4797"
   transform="translate(-1454.2695,8.612613)"><path
     style="fill:#ededed;fill-opacity:1;stroke:none;stroke-width:1px;stroke-linecap:butt;stroke-linejoin:miter;stroke-opacity:1"
     d="m 2335.9871,25.541416 c 12.64,-0.225436 25.4796,29.561808 25.5909,45.859311 l 1.9305,988.681173 c 0.2184,35.1932 -12.6707,48.8373 -45.2155,47.0097 l -470.6823,-18.1565 c -4.4928,-0.3289 -21.8673,-15.2344 -22.5816,-40.7662 l 6.3934,-939.19447 c 2.9608,-15.624411 4.7058,-31.58752 28.2938,-41.465885 z"
     id="path4765"
     sodipodi:nodetypes="ccccccccc" /><path
     style="fill:#e6e6e6;fill-opacity:1;stroke:none;stroke-width:1px;stroke-linecap:butt;stroke-linejoin:miter;stroke-opacity:1"
     d="m 1859.7163,67.508545 c -12.462,6.075061 -24.8375,12.371077 -28.2938,41.465885 l -6.3934,939.19447 c 5.5933,31.3332 14.3441,33.6943 22.5816,40.7662 -6.9818,-12.0207 -14.5635,-23.208 -17.4727,-40.8865 l 6.3446,-940.1317 z"
     id="path4769"
     sodipodi:nodetypes="ccccccc" /><path
     style="fill:#3b89fe;fill-opacity:1;stroke:none;stroke-width:1px;stroke-linecap:butt;stroke-linejoin:miter;stroke-opacity:1"
     d="m 2041.0379,823.58191 h 49.4057 c 3.8975,-0.0642 3.7496,-7.95231 0,-8.10884 h -49.8102 c -3.6947,0.0383 -4.3912,8.04777 0.4045,8.10884 z"
     id="path4773"
     sodipodi:nodetypes="ccccc" /><path
     style="fill:#ebebeb;fill-opacity:1;stroke:none;stroke-width:1px;stroke-linecap:butt;stroke-linejoin:miter;stroke-opacity:1"
     d="m 1830.138,1048.0486 503.1364,13.9228 30.1027,0.9305 c 0.01,26.2402 -7.8827,46.4324 -45.0841,44.1897 l -470.6823,-18.1565 c -6.3147,-11.6634 -13.4796,-19.9197 -17.4727,-40.8865 z"
     id="path4775"
     sodipodi:nodetypes="cccccc" /><path
     style="fill:#d8d8d8;fill-opacity:1;stroke:none;stroke-width:1px;stroke-linecap:butt;stroke-linejoin:miter;stroke-opacity:1"
     d="m 2330.6675,75.258384 c 5.6687,-20.738433 11.6539,-35.458694 20.2584,-0.353553 l 0.4215,972.643569 c -6.4312,35.5743 -13.6728,36.5455 -21.7891,0.178 z"
     id="path4771"
     sodipodi:nodetypes="ccccc" /><path
     style="fill:#f0f0f0;fill-opacity:1;stroke:none;stroke-width:1px;stroke-linecap:butt;stroke-linejoin:miter;stroke-opacity:1"
     d="m 1836.4826,107.9169 476.1431,-41.032714 c 2.4029,-14.399929 12.564,-28.693898 23.3614,-41.34277 l -476.2708,41.967129 c -15.4807,12.597963 -19.941,26.519239 -23.2337,40.408355 z"
     id="path4767"
     sodipodi:nodetypes="ccccc" /><path
     id="path4777"
     style="fill:none;fill-opacity:1;stroke:#000000;stroke-width:1px;stroke-linecap:butt;stroke-linejoin:miter;stroke-opacity:1"
     d="m 2335.987,25.541016 -476.2715,41.966796 c -3.5887,1.502901 -6.5288,3.187255 -9.1875,4.949219 0,7.94e-4 0,0.0012 0,0.002 -1.4942,0.956544 -2.9497,2.009655 -4.3535,3.197266 -0.685,0.592736 -1.2341,1.223325 -1.8477,1.835938 -0.8846,0.866798 -1.7634,1.750004 -2.5898,2.765624 -0.6676,0.825815 -1.2245,1.682287 -1.7949,2.535157 -0.5852,0.864184 -1.1741,1.716982 -1.7168,2.689453 -0.4919,0.898622 -0.8974,1.821657 -1.3106,2.742187 -2.4706,5.277626 -4.4319,11.857494 -5.4883,20.750004 L 1825.03,1048.168 c 0.7142,25.5317 18.0872,40.4386 22.58,40.7675 l 470.6836,18.1563 c 3.7557,0.2264 7.1361,0.1652 10.3164,-0.049 0.4807,-0.03 0.9855,-0.042 1.4551,-0.082 2.8134,-0.252 5.377,-0.6946 7.7559,-1.2793 0.7713,-0.1855 1.5342,-0.3859 2.2675,-0.6074 2.1388,-0.6546 4.0976,-1.4463 5.8809,-2.373 0.6267,-0.3276 1.2339,-0.6818 1.8242,-1.0469 1.8714,-1.1451 3.5427,-2.4425 5.0156,-3.8926 0.2301,-0.2318 0.4556,-0.4721 0.6778,-0.7129 7.1139,-7.5297 9.4896,-18.6873 9.7754,-31.4433 0.073,-1.8549 0.2584,-3.5317 0.2461,-5.5235 L 2361.5788,71.400391 C 2361.4675,55.102904 2348.627,25.31558 2335.987,25.541016 Z" /></g></svg>
