<?xml version="1.0" encoding="UTF-8"?>
<svg version="1.1" viewBox="0 0 514 514" xmlns="http://www.w3.org/2000/svg" xmlns:cc="http://creativecommons.org/ns#" xmlns:dc="http://purl.org/dc/elements/1.1/" xmlns:rdf="http://www.w3.org/1999/02/22-rdf-syntax-ns#">
 <metadata>
  <rdf:RDF>
   <cc:Work rdf:about="">
    <dc:format>image/svg+xml</dc:format>
    <dc:type rdf:resource="http://purl.org/dc/dcmitype/StillImage"/>
    <dc:title/>
    <cc:license rdf:resource="http://creativecommons.org/licenses/by-nc-sa/4.0/"/>
    <dc:creator>
     <cc:Agent>
      <dc:title>Jan Alexander</dc:title>
     </cc:Agent>
    </dc:creator>
   </cc:Work>
   <cc:License rdf:about="http://creativecommons.org/licenses/by-nc-sa/4.0/">
    <cc:permits rdf:resource="http://creativecommons.org/ns#Reproduction"/>
    <cc:permits rdf:resource="http://creativecommons.org/ns#Distribution"/>
    <cc:requires rdf:resource="http://creativecommons.org/ns#Notice"/>
    <cc:requires rdf:resource="http://creativecommons.org/ns#Attribution"/>
    <cc:prohibits rdf:resource="http://creativecommons.org/ns#CommercialUse"/>
    <cc:permits rdf:resource="http://creativecommons.org/ns#DerivativeWorks"/>
    <cc:requires rdf:resource="http://creativecommons.org/ns#ShareAlike"/>
   </cc:License>
  </rdf:RDF>
 </metadata>
 <g transform="translate(-630,-560)">
  <g transform="translate(-17.264 -2.8472)">
   <g>
    <rect x="680.12" y="595.63" width="448.29" height="448.43" fill="#f2f2f2" stroke="#666"/>
    <rect x="1025.8" y="597.64" width="100.61" height="44.558" ry="0" fill="#23408c" stroke="#666"/>
    <circle cx="1047.5" cy="619.92" r="8" fill="#f2f2f2"/>
   </g>
   <g transform="translate(.32781 -4.2555)">
    <rect x="687.12" y="602.07" width="63.604" height="52.326" fill="#f3e6d5" stroke="#666"/>
    <circle cx="718.92" cy="628.23" r="20" fill="none" stroke="#b59d57" stroke-width="2"/>
    <circle cx="718.92" cy="628.23" r="4" fill="#b59d57"/>
   </g>
   <rect transform="rotate(44.907 1.4599e-6 5.8576e-6)" x="1124.4" y="-156.66" width="205.11" height="205.96" fill="#333" stroke="#666"/>
   <g fill="none" stroke="#b59d57" stroke-width="4">
    <circle cx="990.54" cy="614.5" r="8"/>
    <circle cx="1012.5" cy="614.5" r="8"/>
    <circle cx="968.39" cy="614.5" r="8"/>
    <circle cx="946.39" cy="614.5" r="8"/>
    <circle cx="924.41" cy="614.5" r="8"/>
    <circle cx="902.28" cy="614.5" r="8"/>
    <circle cx="880.18" cy="614.5" r="8"/>
    <circle cx="858" cy="614.5" r="8"/>
    <circle cx="836.12" cy="614.5" r="8"/>
    <circle cx="813.95" cy="614.5" r="8"/>
    <circle cx="791.84" cy="614.5" r="8"/>
    <circle cx="769.87" cy="614.5" r="8"/>
   </g>
   <g fill="none" stroke="#b59d57" stroke-width="4">
    <circle cx="920.1" cy="1025" r="8"/>
    <circle cx="942.09" cy="1025" r="8"/>
    <circle cx="897.95" cy="1025" r="8"/>
    <circle cx="875.94" cy="1025" r="8"/>
    <circle cx="853.97" cy="1025" r="8"/>
    <circle cx="831.84" cy="1025" r="8"/>
    <circle cx="809.74" cy="1025" r="8"/>
    <circle cx="787.56" cy="1025" r="8"/>
    <circle cx="765.68" cy="1025" r="8"/>
    <circle cx="743.5" cy="1025" r="8"/>
    <circle cx="721.4" cy="1025" r="8"/>
    <circle cx="699.42" cy="1025" r="8"/>
    <circle cx="986.31" cy="1025" r="8"/>
    <circle cx="964.33" cy="1025" r="8"/>
   </g>
   <g transform="translate(.0072022)" fill="none" stroke="#b59d57" stroke-width="4">
    <circle transform="rotate(-90)" cx="-782.16" cy="1110" r="8"/>
    <circle transform="rotate(-90)" cx="-760.17" cy="1110" r="8"/>
    <circle transform="rotate(-90)" cx="-804.31" cy="1110" r="8"/>
    <circle transform="rotate(-90)" cx="-826.31" cy="1110" r="8"/>
    <circle transform="rotate(-90)" cx="-848.29" cy="1110" r="8"/>
    <circle transform="rotate(-90)" cx="-870.42" cy="1110" r="8"/>
    <circle transform="rotate(-90)" cx="-892.52" cy="1110" r="8"/>
    <circle transform="rotate(-90)" cx="-914.69" cy="1110" r="8"/>
    <circle transform="rotate(-90)" cx="-936.58" cy="1110" r="8"/>
    <circle transform="rotate(-90)" cx="-958.75" cy="1110" r="8"/>
    <circle transform="rotate(-90)" cx="-980.86" cy="1110" r="8"/>
    <circle transform="rotate(-90)" cx="-1002.8" cy="1110" r="8"/>
    <circle transform="rotate(-90)" cx="-715.95" cy="1110" r="8"/>
    <circle transform="rotate(-90)" cx="-737.92" cy="1110" r="8"/>
    <circle transform="rotate(-90)" cx="-1025.3" cy="1110" r="8"/>
   </g>
   <g fill="none" stroke="#b59d57" stroke-width="4">
    <circle transform="rotate(-90)" cx="-727.18" cy="698.99" r="8"/>
    <circle transform="rotate(-90)" cx="-705.19" cy="698.99" r="8"/>
    <circle transform="rotate(-90)" cx="-749.33" cy="698.99" r="8"/>
    <circle transform="rotate(-90)" cx="-771.33" cy="698.99" r="8"/>
    <circle transform="rotate(-90)" cx="-793.31" cy="698.99" r="8"/>
    <circle transform="rotate(-90)" cx="-815.44" cy="698.99" r="8"/>
    <circle transform="rotate(-90)" cx="-837.54" cy="698.99" r="8"/>
    <circle transform="rotate(-90)" cx="-859.72" cy="698.99" r="8"/>
    <circle transform="rotate(-90)" cx="-881.6" cy="698.99" r="8"/>
    <circle transform="rotate(-90)" cx="-903.78" cy="698.99" r="8"/>
    <circle transform="rotate(-90)" cx="-925.88" cy="698.99" r="8"/>
    <circle transform="rotate(-90)" cx="-947.85" cy="698.99" r="8"/>
    <circle transform="rotate(-90)" cx="-660.97" cy="698.99" r="8"/>
    <circle transform="rotate(-90)" cx="-682.94" cy="698.99" r="8"/>
    <circle transform="rotate(-90)" cx="-970.08" cy="698.99" r="8"/>
    <circle transform="rotate(-90)" cx="-992.38" cy="698.99" r="8"/>
   </g>
   <g transform="rotate(-90 728.17 849.35)" fill="none" stroke="#b59d57" stroke-width="4">
    <circle cx="739.76" cy="842.84" r="8"/>
    <circle cx="717.78" cy="842.84" r="8"/>
   </g>
   <g transform="matrix(1.0008 0 0 .85472 -.57645 172.82)">
    <rect x="794.14" y="938.36" width="27.053" height="13.743" fill="none" stroke="#ccc" stroke-width="4"/>
    <rect x="796.14" y="936.38" width="23.052" height="17.722" fill="#404040"/>
   </g>
   <g transform="matrix(1.0008 0 0 .85472 -.45627 137.23)">
    <rect x="794.14" y="938.36" width="27.053" height="13.743" fill="none" stroke="#ccc" stroke-width="4"/>
    <rect x="796.14" y="936.38" width="23.052" height="17.722" fill="#404040"/>
   </g>
   <g transform="matrix(0 -1.0008 .85472 0 6.5142 1729.5)">
    <rect x="794.14" y="938.36" width="27.053" height="13.743" fill="none" stroke="#ccc" stroke-width="4"/>
    <rect x="796.14" y="936.38" width="23.052" height="17.722" fill="#404040"/>
   </g>
   <g transform="matrix(1.0008 0 0 .85472 -67.023 -4.7099)">
    <rect x="794.14" y="938.36" width="27.053" height="13.743" fill="none" stroke="#ccc" stroke-width="4"/>
    <rect x="796.14" y="936.38" width="23.052" height="17.722" fill="#404040"/>
   </g>
   <g transform="matrix(1.0008 0 0 .85472 -23.687 -65.035)">
    <rect x="794.14" y="938.36" width="27.053" height="13.743" fill="none" stroke="#ccc" stroke-width="4"/>
    <rect x="796.14" y="936.38" width="23.052" height="17.722" fill="#404040"/>
   </g>
   <g transform="matrix(0 -1.0008 .85472 0 265.41 1664)">
    <rect x="794.14" y="938.36" width="27.053" height="13.743" fill="none" stroke="#ccc" stroke-width="4"/>
    <rect x="796.14" y="936.38" width="23.052" height="17.722" fill="#404040"/>
   </g>
   <g transform="translate(48.117 13.353)">
    <rect x="746.16" y="945.51" width="27.074" height="11.746" fill="none" stroke="#ccc" stroke-width="3.6995"/>
    <rect x="747.95" y="943.82" width="23.494" height="15.147" fill="#746433"/>
   </g>
   <g transform="rotate(-90 721.78 946.58)">
    <rect x="746.16" y="945.51" width="27.074" height="11.746" fill="none" stroke="#ccc" stroke-width="3.6995"/>
    <rect x="747.95" y="943.82" width="23.494" height="15.147" fill="#746433"/>
   </g>
   <g transform="translate(226.06 -19.065)">
    <rect x="746.16" y="945.51" width="27.074" height="11.746" fill="none" stroke="#ccc" stroke-width="3.6995"/>
    <rect x="747.95" y="943.82" width="23.494" height="15.147" fill="#746433"/>
   </g>
   <g transform="rotate(-90 860.65 754.97)">
    <rect x="746.16" y="945.51" width="27.074" height="11.746" fill="none" stroke="#ccc" stroke-width="3.6995"/>
    <rect x="747.95" y="943.82" width="23.494" height="15.147" fill="#746433"/>
   </g>
   <g transform="translate(56.682 -214.57)">
    <rect x="746.16" y="945.51" width="27.074" height="11.746" fill="none" stroke="#ccc" stroke-width="3.6995"/>
    <rect x="747.95" y="943.82" width="23.494" height="15.147" fill="#746433"/>
   </g>
   <g transform="translate(56.757 -230.92)">
    <rect x="746.16" y="945.51" width="27.074" height="11.746" fill="none" stroke="#ccc" stroke-width="3.6995"/>
    <rect x="747.95" y="943.82" width="23.494" height="15.147" fill="#746433"/>
   </g>
   <g transform="translate(-18.353 -132.03)">
    <rect x="746.16" y="945.51" width="27.074" height="11.746" fill="none" stroke="#ccc" stroke-width="3.6995"/>
    <rect x="747.95" y="943.82" width="23.494" height="15.147" fill="#746433"/>
   </g>
   <g transform="rotate(225.07 1024.5 760.74)" fill="none" stroke="#ccc" stroke-width="4">
    <path d="m1002 750v12.575"/>
    <path d="m1008 750v12.575"/>
    <path d="m1014 750v12.575"/>
    <path d="m1020 750v12.575"/>
    <path d="m1026 750v12.575"/>
    <path d="m1032 750v12.575"/>
    <path d="m1044 750.1v12.575"/>
    <path d="m1038 750v12.575"/>
   </g>
   <g transform="matrix(0 -.89177 .77778 0 53.09 1342.9)">
    <rect x="746.16" y="945.51" width="27.074" height="11.746" fill="none" stroke="#ccc" stroke-width="3.6995"/>
    <rect x="747.95" y="943.82" width="23.494" height="15.147" fill="#746433"/>
   </g>
   <g transform="matrix(0 -.89177 .77778 0 53.026 1371.7)">
    <rect x="746.16" y="945.51" width="27.074" height="11.746" fill="none" stroke="#ccc" stroke-width="3.6995"/>
    <rect x="747.95" y="943.82" width="23.494" height="15.147" fill="#746433"/>
   </g>
   <g transform="matrix(0 -.89177 .77778 0 82.175 1342.9)">
    <rect x="746.16" y="945.51" width="27.074" height="11.746" fill="none" stroke="#ccc" stroke-width="3.6995"/>
    <rect x="747.95" y="943.82" width="23.494" height="15.147" fill="#746433"/>
   </g>
   <g transform="matrix(0 -.89177 .77778 0 81.897 1371.7)">
    <rect x="746.16" y="945.51" width="27.074" height="11.746" fill="none" stroke="#ccc" stroke-width="3.6995"/>
    <rect x="747.95" y="943.82" width="23.494" height="15.147" fill="#746433"/>
   </g>
   <g transform="matrix(0 -.89177 .77778 0 10.514 1356.8)">
    <rect x="746.16" y="945.51" width="27.074" height="11.746" fill="none" stroke="#ccc" stroke-width="3.6995"/>
    <rect x="747.95" y="943.82" width="23.494" height="15.147" fill="#746433"/>
   </g>
   <g transform="matrix(-.89177 0 0 -.77778 1448.8 1412)">
    <rect x="746.16" y="945.51" width="27.074" height="11.746" fill="none" stroke="#ccc" stroke-width="3.6995"/>
    <rect x="747.95" y="943.82" width="23.494" height="15.147" fill="#746433"/>
   </g>
   <g transform="matrix(-.89177 0 0 -.77778 1448.4 1442.7)">
    <rect x="746.16" y="945.51" width="27.074" height="11.746" fill="none" stroke="#ccc" stroke-width="3.6995"/>
    <rect x="747.95" y="943.82" width="23.494" height="15.147" fill="#746433"/>
   </g>
   <g transform="matrix(-.89177 0 0 -.77778 1581.6 1389)">
    <rect x="746.16" y="945.51" width="27.074" height="11.746" fill="none" stroke="#ccc" stroke-width="3.6995"/>
    <rect x="747.95" y="943.82" width="23.494" height="15.147" fill="#746433"/>
   </g>
   <g transform="matrix(-.89177 0 0 -.77778 1581.7 1409.8)">
    <rect x="746.16" y="945.51" width="27.074" height="11.746" fill="none" stroke="#ccc" stroke-width="3.6995"/>
    <rect x="747.95" y="943.82" width="23.494" height="15.147" fill="#746433"/>
   </g>
   <g transform="matrix(0 -.89177 .77778 0 200.11 1324.2)">
    <rect x="746.16" y="945.51" width="27.074" height="11.746" fill="none" stroke="#ccc" stroke-width="3.6995"/>
    <rect x="747.95" y="943.82" width="23.494" height="15.147" fill="#746433"/>
   </g>
   <g transform="matrix(0 -.89177 .77778 0 199.92 1352.6)">
    <rect x="746.16" y="945.51" width="27.074" height="11.746" fill="none" stroke="#ccc" stroke-width="3.6995"/>
    <rect x="747.95" y="943.82" width="23.494" height="15.147" fill="#746433"/>
   </g>
   <g transform="matrix(-.89177 0 0 -.77778 1645.6 1437.4)">
    <rect x="746.16" y="945.51" width="27.074" height="11.746" fill="none" stroke="#ccc" stroke-width="3.6995"/>
    <rect x="747.95" y="943.82" width="23.494" height="15.147" fill="#746433"/>
   </g>
   <g transform="matrix(-.89177 0 0 -.77778 1644.6 1408.5)">
    <rect x="746.16" y="945.51" width="27.074" height="11.746" fill="none" stroke="#ccc" stroke-width="3.6995"/>
    <rect x="747.95" y="943.82" width="23.494" height="15.147" fill="#746433"/>
   </g>
   <g transform="matrix(-.89177 0 0 -.77778 1645.3 1380.5)">
    <rect x="746.16" y="945.51" width="27.074" height="11.746" fill="none" stroke="#ccc" stroke-width="3.6995"/>
    <rect x="747.95" y="943.82" width="23.494" height="15.147" fill="#746433"/>
   </g>
   <g transform="matrix(0 -.89177 .77778 0 263.35 1339.7)">
    <rect x="746.16" y="945.51" width="27.074" height="11.746" fill="none" stroke="#ccc" stroke-width="3.6995"/>
    <rect x="747.95" y="943.82" width="23.494" height="15.147" fill="#746433"/>
   </g>
   <g>
    <rect transform="scale(-1)" x="-783.1" y="-661.82" width="24.143" height="9.136" fill="none" stroke="#ccc" stroke-width="3.081"/>
    <rect transform="scale(-1)" x="-781.58" y="-661.51" width="21.099" height="8.4974" fill="#f2f2f2" stroke="#666" stroke-width=".85228"/>
   </g>
   <g transform="translate(.57362 29.867)">
    <rect transform="scale(-1)" x="-783.1" y="-661.82" width="24.143" height="9.136" fill="none" stroke="#ccc" stroke-width="3.081"/>
    <rect transform="scale(-1)" x="-781.58" y="-661.51" width="21.099" height="8.4974" fill="#f2f2f2" stroke="#666" stroke-width=".85228"/>
   </g>
   <g transform="rotate(-90 793.15 643.28)">
    <rect transform="scale(-1)" x="-783.1" y="-661.82" width="24.143" height="9.136" fill="none" stroke="#ccc" stroke-width="3.081"/>
    <rect transform="scale(-1)" x="-781.58" y="-661.51" width="21.099" height="8.4974" fill="#f2f2f2" stroke="#666" stroke-width=".85228"/>
   </g>
   <g transform="rotate(-90 807.36 657.24)">
    <rect transform="scale(-1)" x="-783.1" y="-661.82" width="24.143" height="9.136" fill="none" stroke="#ccc" stroke-width="3.081"/>
    <rect transform="scale(-1)" x="-781.58" y="-661.51" width="21.099" height="8.4974" fill="#f2f2f2" stroke="#666" stroke-width=".85228"/>
   </g>
   <g transform="rotate(-90 843.23 574.7)">
    <rect transform="scale(-1)" x="-783.1" y="-661.82" width="24.143" height="9.136" fill="none" stroke="#ccc" stroke-width="3.081"/>
    <rect transform="scale(-1)" x="-781.58" y="-661.51" width="21.099" height="8.4974" fill="#f2f2f2" stroke="#666" stroke-width=".85228"/>
   </g>
   <g transform="rotate(-90 857.1 588.88)">
    <rect transform="scale(-1)" x="-783.1" y="-661.82" width="24.143" height="9.136" fill="none" stroke="#ccc" stroke-width="3.081"/>
    <rect transform="scale(-1)" x="-781.58" y="-661.51" width="21.099" height="8.4974" fill="#f2f2f2" stroke="#666" stroke-width=".85228"/>
   </g>
   <g transform="translate(105.07 -7.9426)">
    <rect transform="scale(-1)" x="-783.1" y="-661.82" width="24.143" height="9.136" fill="none" stroke="#ccc" stroke-width="3.081"/>
    <rect transform="scale(-1)" x="-781.58" y="-661.51" width="21.099" height="8.4974" fill="#f2f2f2" stroke="#666" stroke-width=".85228"/>
   </g>
   <g transform="translate(197.11 25.849)">
    <rect transform="scale(-1)" x="-783.1" y="-661.82" width="24.143" height="9.136" fill="none" stroke="#ccc" stroke-width="3.081"/>
    <rect transform="scale(-1)" x="-781.58" y="-661.51" width="21.099" height="8.4974" fill="#f2f2f2" stroke="#666" stroke-width=".85228"/>
   </g>
   <g transform="translate(197.43 -2.6274)">
    <rect transform="scale(-1)" x="-783.1" y="-661.82" width="24.143" height="9.136" fill="none" stroke="#ccc" stroke-width="3.081"/>
    <rect transform="scale(-1)" x="-781.58" y="-661.51" width="21.099" height="8.4974" fill="#f2f2f2" stroke="#666" stroke-width=".85228"/>
   </g>
   <rect transform="scale(-1)" x="-1008" y="-702.01" width="24.143" height="9.136" fill="none" stroke="#ccc" stroke-width="3.081"/>
   <rect transform="scale(-1)" x="-1003.9" y="-701.75" width="16.179" height="8.5989" fill="#de7108" stroke="#666"/>
  </g>
 </g>
</svg>
