<?xml version="1.0" encoding="UTF-8" standalone="no"?>
<!-- Created with Inkscape (http://www.inkscape.org/) -->

<svg
   width="1200"
   height="1200"
   viewBox="0 0 317.50001 317.50001"
   version="1.1"
   id="svg5"
   inkscape:version="1.2.1 (9c6d41e410, 2022-07-14, custom)"
   sodipodi:docname="wavlink.svg"
   inkscape:export-filename="wavlink.png"
   inkscape:export-xdpi="75.040001"
   inkscape:export-ydpi="75.040001"
   xmlns:inkscape="http://www.inkscape.org/namespaces/inkscape"
   xmlns:sodipodi="http://sodipodi.sourceforge.net/DTD/sodipodi-0.dtd"
   xmlns="http://www.w3.org/2000/svg"
   xmlns:svg="http://www.w3.org/2000/svg">
  <sodipodi:namedview
     id="namedview7"
     pagecolor="#ffffff"
     bordercolor="#666666"
     borderopacity="1.0"
     inkscape:showpageshadow="2"
     inkscape:pageopacity="0.0"
     inkscape:pagecheckerboard="0"
     inkscape:deskcolor="#d1d1d1"
     inkscape:document-units="mm"
     showgrid="false"
     inkscape:zoom="0.5"
     inkscape:cx="783"
     inkscape:cy="532"
     inkscape:window-width="1916"
     inkscape:window-height="1041"
     inkscape:window-x="1316"
     inkscape:window-y="18"
     inkscape:window-maximized="1"
     inkscape:current-layer="layer2" />
  <defs
     id="defs2">
    <inkscape:path-effect
       center_point="164.88703,20.654505"
       end_point="164.88703,94.274479"
       start_point="164.88703,-52.965469"
       effect="mirror_symmetry"
       id="path-effect907"
       is_visible="true"
       lpeversion="1.2"
       lpesatellites=""
       mode="free"
       discard_orig_path="false"
       fuse_paths="false"
       oposite_fuse="false"
       split_items="false"
       split_open="false"
       link_styles="false" />
    <inkscape:path-effect
       center_point="164.88703,20.654505"
       end_point="164.88703,94.274479"
       start_point="164.88703,-52.965469"
       effect="mirror_symmetry"
       id="path-effect868"
       is_visible="true"
       lpeversion="1.2"
       lpesatellites=""
       mode="free"
       discard_orig_path="false"
       fuse_paths="false"
       oposite_fuse="false"
       split_items="false"
       split_open="false"
       link_styles="false" />
    <inkscape:path-effect
       effect="bspline"
       id="path-effect350"
       is_visible="true"
       lpeversion="1"
       weight="33.333333"
       steps="2"
       helper_size="0"
       apply_no_weight="true"
       apply_with_weight="true"
       only_selected="false" />
    <inkscape:path-effect
       effect="bspline"
       id="path-effect346"
       is_visible="true"
       lpeversion="1"
       weight="33.333333"
       steps="2"
       helper_size="0"
       apply_no_weight="true"
       apply_with_weight="true"
       only_selected="false" />
    <inkscape:path-effect
       effect="bspline"
       id="path-effect342"
       is_visible="true"
       lpeversion="1"
       weight="33.333333"
       steps="2"
       helper_size="0"
       apply_no_weight="true"
       apply_with_weight="true"
       only_selected="false" />
    <inkscape:path-effect
       effect="bspline"
       id="path-effect338"
       is_visible="true"
       lpeversion="1"
       weight="33.333333"
       steps="2"
       helper_size="0"
       apply_no_weight="true"
       apply_with_weight="true"
       only_selected="false" />
    <inkscape:path-effect
       effect="bspline"
       id="path-effect350-3"
       is_visible="true"
       lpeversion="1"
       weight="33.333333"
       steps="2"
       helper_size="0"
       apply_no_weight="true"
       apply_with_weight="true"
       only_selected="false" />
  </defs>
  <g
     inkscape:groupmode="layer"
     id="layer2"
     inkscape:label="Background"
     style="display:none">
    <rect
       style="fill:#ffffff;stroke:#4d4d4d;stroke-width:0.360958"
       id="rect677"
       width="343.59738"
       height="343.59738"
       x="-13.048691"
       y="-13.048691"
       ry="0.43721154" />
  </g>
  <g
     inkscape:label="Layer 1"
     inkscape:groupmode="layer"
     id="layer1"
     transform="translate(52.376991,-17.03605)">
    <g
       id="g1033"
       transform="matrix(-1.0008805,0,0,0.74673023,215.81895,102.11817)"
       class="UnoptimicedTransforms">
      <path
         style="opacity:1;fill:#f2f2f2;stroke-width:0.178583"
         d="m 484.68724,906.50535 c -0.98252,0.52082 -0.61265,1.8233 -0.86122,2.72879 -0.0862,1.20328 -0.38577,2.42591 -0.32904,3.62146 0.29953,0.95876 1.55995,0.99275 2.30975,1.48433 2.53439,1.14343 5.06892,2.28641 7.60366,3.42909 -0.0134,17.67363 0.0224,35.34733 0.15552,53.02051 -3.11273,1.82599 -6.34876,3.45665 -9.36158,5.44531 -0.96489,0.68852 -0.34214,1.97844 -0.35603,2.94126 0.19479,0.89001 0.001,1.9776 0.60396,2.71171 0.83301,0.67089 1.73653,-0.33371 2.52844,-0.62703 3.96916,-2.12941 7.98344,-4.206 11.90688,-6.40106 0.72838,-0.67697 0.2486,-1.822 0.38731,-2.70447 0,-19.56161 0,-39.12321 0,-58.68481 -0.18904,-1.08699 -1.55526,-1.1403 -2.33712,-1.65668 -3.90013,-1.77564 -7.75589,-3.65741 -11.70634,-5.31769 -0.17714,-0.0674 -0.36313,0.01 -0.54419,0.009 z"
         id="path1542"
         transform="matrix(-0.26435057,0,0,0.35432252,215.90739,-100.46149)" />
      <path
         style="opacity:1;fill:#f2f2f2;stroke-width:0.178583"
         d="m 470.2268,906.28562 c -48.92978,0.17881 -97.86009,0.19648 -146.7898,0.37647 -0.95355,0.0911 -0.96174,1.1384 -0.80908,1.85547 2.04786,17.67228 2.56391,35.52314 1.5166,53.25976 -0.37604,6.54863 -0.97099,13.09095 -1.73022,19.6062 0.003,1.01315 1.12012,1.03995 1.86323,0.98862 25.19264,0.12916 50.38598,0.0466 75.5789,0.0537 27.94376,-0.0262 55.88765,-0.025 83.83131,-0.0948 0.90377,-0.0771 0.98869,-1.05686 0.82346,-1.75358 -2.57784,-22.29932 -2.89904,-44.888 -0.62576,-67.21194 0.1821,-2.13026 0.52525,-4.23456 0.67912,-6.35428 -0.16033,-1.1175 -1.5601,-0.7286 -2.35801,-0.78788 -3.99325,0.0208 -7.9865,0.0415 -11.97975,0.0623 z"
         id="path1550"
         transform="matrix(-0.26435057,0,0,0.35432252,215.90739,-100.46149)" />
      <path
         style="opacity:1;fill:#f2f2f2;stroke-width:0.178583"
         d="m 468.9077,981.52537 c -48.51774,0.0509 -97.03569,0.0827 -145.55322,0.21899 -1.03391,0.0936 -0.95477,1.24303 -0.81179,1.98745 1.32139,9.29658 2.0925,18.63029 1.96791,28.01619 -0.006,5.6714 -0.0908,11.2925 -0.67145,16.9283 -0.34875,4.1276 -0.86801,8.2379 -1.42363,12.3417 -0.029,0.9992 1.07853,1.072 1.81223,1.0201 19.37985,0.1565 38.76099,0.08 58.14138,0.1104 33.80037,0 67.60075,9e-4 101.40112,0 0.98244,-0.068 0.98001,-1.1732 0.76604,-1.8944 -2.41033,-16.3779 -2.70748,-33.0733 -0.94895,-49.5414 0.28075,-2.76612 0.71461,-5.51801 1.07989,-8.28248 -0.11445,-1.14452 -1.43759,-0.89134 -2.2478,-0.90644 -4.50392,-0.005 -9.00782,-10e-4 -13.51173,1.9e-4 z"
         id="path1552"
         transform="matrix(-0.26435057,0,0,0.35432252,215.90739,-100.46149)" />
      <path
         style="opacity:1;fill:#f2f2f2;stroke-width:0.178583"
         d="m 322.46386,1041.5078 c -0.74126,0.7692 -0.20888,1.9263 -0.32659,2.8877 -4.8e-4,3.5532 -0.74396,7.2523 -0.0706,10.8371 0.45938,2.102 1.62512,4.0159 3.22095,5.4502 0.0248,6.2545 -0.0494,12.5239 0.037,18.7691 0.25173,0.9003 1.35329,1.152 1.91544,1.8506 2.23139,1.8393 3.42613,4.6688 3.60495,7.5173 0.36659,4.8031 -1.01719,9.7155 0.37598,14.4431 0.78489,2.7274 2.7769,5.0319 5.20215,6.4478 19.94122,4.4476 40.45934,5.3161 60.82461,5.5704 8.1313,0.04 16.26909,0.1961 24.39632,-0.1221 12.15228,-1.1046 24.52187,-0.6223 36.51962,-3.2399 5.41687,-1.2398 11.04401,-3.1831 14.87395,-7.4106 1.46441,-1.6938 2.73922,-3.6597 3.2727,-5.855 0.35871,-2.8381 -0.16248,-5.6918 -0.0801,-8.5202 -0.0505,-2.6005 0.35678,-5.3938 2.13567,-7.4116 0.7288,-0.992 1.86336,-1.6422 2.74177,-2.5254 0.71289,-1.1726 0.52169,-2.6417 0.68286,-3.9568 0.18607,-5.3113 -0.75668,-10.6812 0.43389,-15.9249 0.14146,-0.8973 1.0809,-1.2988 1.45333,-2.0837 1.8889,-2.6184 1.77893,-6.0338 1.47572,-9.0953 -0.25094,-2.3162 -0.34264,-4.6555 -0.26522,-6.9755 -0.20009,-1.1783 -1.64867,-0.7244 -2.49152,-0.81 -53.14119,0 -106.28238,0 -159.42357,0 -0.16976,0.052 -0.33952,0.1051 -0.50928,0.1577 z"
         id="path1554"
         transform="matrix(-0.26435057,0,0,0.35432252,215.90739,-100.46149)" />
      <path
         style="opacity:1;fill:#f2f2f2;stroke-width:0.178583"
         d="m 321.81249,906.62644 c -1.99374,0.54644 -3.81283,1.60984 -5.71458,2.40911 -2.61812,1.23081 -5.28872,2.38314 -7.87151,3.66815 -0.78753,0.65011 -0.28928,1.84317 -0.43031,2.73378 -4.3e-4,19.58333 -10e-4,39.16666 -0.002,58.75 0.20919,1.09104 1.5752,1.21169 2.349,1.79595 3.82224,2.03085 7.61962,4.11066 11.4696,6.08808 0.82525,0.33909 1.47485,-0.54309 1.38285,-1.30228 0.10854,-1.31506 0.38425,-2.62446 0.37301,-3.94455 -0.36051,-0.93824 -1.51131,-1.12326 -2.24786,-1.6869 -2.54691,-1.46046 -5.10853,-2.89508 -7.66376,-4.34093 0.18777,-8.16551 0.0903,-16.33556 0.1322,-24.50293 0.004,-9.50805 0.004,-19.01611 0.006,-28.52417 3.18332,-1.45868 6.42091,-2.83324 9.57051,-4.34419 0.82874,-0.63473 0.17976,-1.77955 0.21432,-2.64837 -0.2156,-1.23472 -0.12027,-2.58761 -0.64899,-3.73731 -0.18634,-0.30519 -0.57259,-0.45007 -0.91905,-0.41344 z"
         id="path1556"
         transform="matrix(-0.26435057,0,0,0.35432252,215.90739,-100.46149)" />
      <path
         style="opacity:1;fill:#f2f2f2;stroke-width:0.178583"
         d="m 321.8496,626.26683 c -4.04761,1.76934 -7.98285,3.80974 -11.97789,5.70216 -0.81143,0.4784 -2.28269,0.70252 -2.08412,1.94872 0,21.0909 0,42.1818 0,63.2727 0.20719,1.0752 1.5385,1.23644 2.29085,1.84144 3.89679,2.20056 7.71433,4.55044 11.67106,6.64001 0.79438,0.37187 1.5348,-0.4929 1.36986,-1.26999 0.0596,-1.88738 0.35873,-3.79043 0.23293,-5.67166 -0.67444,-0.94522 -1.91461,-1.26685 -2.8311,-1.94222 -2.31474,-1.37452 -4.63315,-2.74281 -6.94991,-4.11394 0.0255,-18.24988 -0.0396,-36.50023 0.093,-54.74975 3.05211,-1.49533 6.19061,-2.84477 9.21575,-4.37469 0.79488,-0.61426 0.24254,-1.74288 0.32551,-2.58454 -0.15202,-1.37432 -0.0759,-2.81421 -0.39498,-4.1489 -0.1456,-0.38652 -0.56469,-0.59098 -0.96098,-0.54934 z"
         id="path1558"
         transform="matrix(-0.26435057,0,0,0.35432252,215.90739,-100.46149)" />
      <path
         style="opacity:1;fill:#f2f2f2;stroke-width:0.178583"
         d="m 484.62206,626.32738 c -0.86295,0.59881 -0.46697,1.79474 -0.66682,2.68083 -0.0405,1.332 -0.29566,2.69287 -0.18784,4.01078 0.3559,0.92678 1.57294,0.99255 2.33574,1.49071 2.4248,1.14047 4.86644,2.24697 7.25964,3.45317 0.092,18.23691 0.10537,36.47412 0.15405,54.71118 -3.18375,1.90116 -6.43094,3.72415 -9.57535,5.67374 -0.70645,0.71951 -0.13958,1.85741 -0.23127,2.75326 0.14118,1.35105 0.0644,2.72302 0.30784,4.05421 0.33875,0.88997 1.42661,0.6032 2.00181,0.13116 4.30415,-2.45659 8.64016,-4.88784 12.88868,-7.42271 0.69814,-0.6888 0.23039,-1.81003 0.36798,-2.68795 0.0167,-20.53751 0.0335,-41.07503 0.0504,-61.61254 -0.18724,-1.07871 -1.53692,-1.15327 -2.30802,-1.68214 -3.94093,-1.86685 -7.82412,-3.87563 -11.81805,-5.61972 -0.18674,-0.0269 -0.38961,0.0579 -0.57876,0.066 z"
         id="path1562"
         transform="matrix(-0.26435057,0,0,0.35432252,215.90739,-100.46149)" />
      <path
         style="opacity:1;fill:#f2f2f2;stroke-width:0.178583"
         d="m 403.70043,619.23729 c -23.26647,0.005 -46.52158,1.69946 -69.56809,4.86964 -3.69646,0.52255 -7.41817,0.97686 -11.09088,1.59921 -1.08471,0.40446 -0.48455,1.73564 -0.53092,2.59913 0.96299,14.02904 1.36466,28.06922 1.23638,42.13928 0.008,9.36849 -0.29936,18.71773 -0.79548,28.06652 -0.0981,2.33874 -0.28535,4.70082 -0.40514,7.03625 0.1288,1.17204 1.55293,0.79884 2.36995,0.85256 52.89347,0 105.78695,0 158.68041,0 1.09515,-0.0957 0.91703,-1.34043 0.81714,-2.11865 -1.56386,-25.02288 -1.60356,-50.24628 0.0509,-75.28598 -0.0286,-0.91373 0.26155,-1.89514 0.006,-2.77282 -0.45597,-0.88058 -1.64992,-0.59038 -2.4566,-0.85314 -25.89036,-4.06951 -52.09916,-6.2352 -78.31317,-6.132 z"
         id="path1564"
         transform="matrix(-0.26435057,0,0,0.35432252,215.90739,-100.46149)" />
      <path
         style="opacity:1;fill:#f2f2f2;stroke-width:0.178583"
         d="m 322.91283,705.75779 c -0.75917,0.73749 -0.10582,1.85215 -0.16846,2.768 0.92175,12.06262 1.62884,24.18519 1.89478,36.28089 0.24346,17.09986 0.2342,34.2162 -0.79516,51.27161 -0.34994,6.3587 -0.81322,12.7219 -1.3064,19.07794 -0.19121,0.85224 0.55171,1.58142 1.40015,1.36851 52.49068,-0.0126 104.98161,-0.0456 157.47189,-0.26567 0.9455,-0.15092 2.16972,0.33722 2.88748,-0.46832 0.3663,-1.12401 -0.0222,-2.3573 -0.0218,-3.51716 -1.61471,-19.90352 -2.25011,-39.87293 -1.99259,-59.85876 0.0974,-15.01905 0.89002,-29.99072 2.11539,-44.96643 0.21021,-0.74959 0.0899,-1.91128 -0.92839,-1.84832 -53.3492,0 -106.6984,0 -160.0476,0 -0.16976,0.0526 -0.33952,0.10514 -0.50928,0.15771 z"
         id="path1566"
         transform="matrix(-0.26435057,0,0,0.35432252,215.90739,-100.46149)" />
      <path
         style="opacity:1;fill:#f2f2f2;stroke-width:0.178583"
         d="m 476.7556,815.52024 c -51.10785,0.0687 -102.21582,0.136 -153.32348,0.28272 -0.98804,0.0898 -0.96824,1.17788 -0.81826,1.91135 2.70032,21.13364 3.37985,42.50636 2.45205,63.79461 -0.3881,8.02835 -1.06017,16.04688 -2.14624,24.00693 -0.91855,0.44992 -0.4135,1.92359 0.57553,1.79536 7.75367,0.18828 15.51252,0.0473 23.26821,0.0768 43.75166,-0.083 87.50349,-0.14847 131.25487,-0.32136 1.95231,-0.0751 3.93771,0.0511 5.8697,-0.14763 1.08593,-0.36976 0.44977,-1.71984 0.43775,-2.54878 -2.48504,-19.07676 -2.91658,-38.40435 -2.2766,-57.62624 0.34288,-10.03586 1.22831,-20.0331 2.47918,-29.99087 0.21078,-0.86521 -0.69018,-1.41772 -1.46436,-1.23331 -2.10277,-0.003 -4.20556,4.6e-4 -6.30835,4e-4 z"
         id="path1568"
         transform="matrix(-0.26435057,0,0,0.35432252,215.90739,-100.46149)" />
      <path
         style="opacity:1;fill:#f2f2f2;stroke-width:1.42866"
         d="m 576.21873,9.1191404 c -5.33496,3.7424976 -6.6097,11.3072586 -9.50586,16.8710926 -23.1773,60.151754 -32.91518,124.209507 -46.33852,186.958567 -27.06863,135.43663 -54.34585,270.83884 -80.60678,406.43204 2.79937,2.8799 8.3436,1.50973 12.14561,2.65687 5.68471,0.008 11.80507,2.47944 17.30165,1.22204 3.82858,-6.39239 3.27445,-14.686 5.4794,-21.73582 33.22032,-165.40548 66.48758,-330.80954 98.85932,-496.38021 3.62962,-27.28424 8.29785,-54.750868 7.34096,-82.354659 -0.99212,-4.386393 -0.15905,-10.800208 -4.19922,-13.6640612 -0.15714,-0.026857 -0.31883,-0.029441 -0.47656,-0.00586 z"
         id="path1570"
         transform="matrix(-0.26435057,0,0,0.35432252,215.90739,-100.46149)" />
      <path
         style="opacity:1;fill:#f2f2f2;stroke-width:1.42866"
         d="m 229.4414,9.316406 c -4.38918,2.236599 -3.10285,8.909458 -3.96334,13.023528 -1.06676,31.618915 3.74345,63.137447 9.2221,94.186446 33.00861,169.0144 67.25533,337.8022 101.04397,506.65133 6.40198,1.3715 13.5789,-0.93474 20.20117,-1.19921 3.10429,-1.13272 8.43476,0.35804 10.26367,-2.67969 C 341.2785,488.86602 314.7662,358.73092 288.74654,228.50846 279.62471,184.7968 271.68572,140.81712 261.52021,97.337854 253.42817,68.785379 246.5369,39.475609 233.04492,12.86914 232.10881,11.585716 231.32938,9.3359003 229.4414,9.316406 Z"
         id="path1572"
         transform="matrix(-0.26435057,0,0,0.35432252,215.90739,-100.46149)" />
      <path
         style="opacity:1;fill:#f2f2f2;stroke-width:1.42866"
         d="m 674.45506,392.1289 c -5.73396,4.97526 -7.85982,13.22137 -10.86878,20.0315 -12.12967,33.85023 -21.98571,68.52971 -28.50234,103.91026 -33.33466,162.3666 -65.31306,325.0135 -97.88474,487.53674 -17.90234,0.1741 -35.80469,0.3486 -53.70703,0.5234 -1.99459,5.8512 -0.48234,13.2148 -0.65554,19.6787 0.62656,4.2701 -0.29019,9.5101 1.94851,13.0909 25.21769,-0.411 50.52401,0.8464 75.69141,-0.7285 4.56978,-1.2777 2.48303,-8.0784 4.2791,-11.4656 33.79573,-168.83619 68.20824,-337.55391 100.99707,-506.5883 6.94367,-39.23105 15.83857,-79.02778 12.16914,-119.09262 -0.60815,-2.17708 -0.44292,-6.60541 -3.4668,-6.89648 z"
         id="path1574"
         transform="matrix(-0.26435057,0,0,0.35432252,215.90739,-100.46149)" />
      <path
         style="opacity:1;fill:#f2f2f2;stroke-width:1.42866"
         d="m 131.44726,392.10741 c -4.17197,2.47356 -3.2759,8.99744 -4.2926,13.19799 -1.12963,26.66761 3.39858,53.22657 6.83296,79.59606 14.81153,78.80601 31.06063,157.3516 46.53826,236.03488 21.04353,105.09158 41.76376,210.25416 63.25927,315.25116 8.77782,1.6948 18.67946,0.2147 27.88086,0.7129 16.84961,0 33.69921,0 50.54882,0 2.64041,-7.0987 1.81542,-15.7554 2.18555,-23.5469 1.81298,-7.2934 -1.34156,-11.3028 -8.90039,-9.2539 -15.40439,-0.4973 -31.09382,0.9878 -46.32617,-0.8594 -28.8531,-141.29113 -56.47886,-283.04263 -85.07464,-424.46751 -12.72943,-59.7304 -22.22326,-120.86808 -46.09528,-177.47387 -1.87179,-2.9252 -2.84552,-8.14575 -6.55664,-9.19141 z"
         id="path1576"
         transform="matrix(-0.26435057,0,0,0.35432252,215.90739,-100.46149)" />
      <path
         id="path528"
         style="fill:none;fill-rule:evenodd;stroke:#000000;stroke-width:0.306048px;stroke-linecap:butt;stroke-linejoin:miter;stroke-opacity:1"
         d="m 127.16493,120.72495 26.70121,-178.45702 c 0,0 4.51545,-34.94575 1.75317,-39.30768 -2.41933,-3.82038 -9.9766,36.354264 -9.9766,36.354264 L 118.78965,119.4775 m -27.220124,1.24745 -26.70127,-178.45702 c 0,0 -4.51545,-34.94575 -1.75317,-39.30768 2.41933,-3.82038 9.97662,36.354264 9.97662,36.354264 L 99.944816,119.4775 m 30.559914,147.32258 21.03219,0.017 28.24688,-188.836149 c 0,0 4.51545,-34.945746 1.75317,-39.307678 -2.41933,-3.820386 -9.9766,36.354262 -9.9766,36.354262 L 144.70731,255.19149 h -14.33097 v 0.2468 M 87.965716,266.81711 H 67.162456 L 38.915526,77.980961 c 0,0 -4.51546,-34.945746 -1.75318,-39.307678 2.41934,-3.820386 9.97662,36.354262 9.97662,36.354262 l 26.85311,180.163945 h 14.331 v 0.2468 0 m -0.36318,-32.36058 -2.54865,1.54712 -0.0327,18.97816 2.56807,1.95942 m -0.13965,1.97599 -3.81846,-2.73964 v -21.69907 l 3.86978,-2.39826 m 0.10004,-96.83222 -2.54555,1.59704 -0.0327,19.59061 2.56495,2.02265 m 42.652324,41.553 c -0.83015,-12.96319 -0.84714,-25.983 -0.0145,-38.94641 H 87.893026 c 0.4581,-9.3361 0.47004,-18.88523 -0.0387,-28.29044 h -2e-5 c 14.808964,-3.21206 28.484494,-2.95592 42.767264,0 h -6e-5 c -0.50874,9.40522 -0.49681,18.9543 -0.0387,28.29044 m -42.719194,39.04191 c 1.00559,10.06957 1.03121,21.80158 0.0195,31.87752 m -0.0118,0.31254 c 0.8197,8.83196 0.77593,17.70872 -0.0207,26.54028 l 20.502274,0.0263 m -20.451824,-26.69098 42.702994,0.12442 c -0.81971,8.83196 -0.77592,17.70872 0.0207,26.54028 m -22.27187,0.0263 22.28727,0.0263 c -0.8166,7.02335 -0.80502,14.10149 0,21.12509 l -42.804984,-2e-5 c 0.80502,-7.02361 0.8166,-14.10175 0,-21.1251 m 42.892794,21.15993 c -0.28055,2.20369 0.72657,4.80294 -0.86439,6.59505 -0.0436,2.26747 -0.007,4.53645 -0.0193,6.80453 -3.25509,2.73029 0.36363,7.78099 -2.84361,10.51797 -7.01377,2.12743 -14.59086,1.96007 -21.87557,2.01394 -4.97869,-0.78989 -13.575384,0.40808 -15.070814,-5.72727 -0.18899,-2.31608 0.73236,-5.00071 -1.33905,-6.69195 -0.32925,-2.33859 0.23445,-4.97358 -0.27536,-7.25223 -1.40936,-1.62791 -0.37718,-4.25078 -0.69241,-6.26004 m 42.768064,-45.59315 2.54865,1.54711 0.0327,18.97816 -2.56807,1.95943 m 0.13966,1.97598 3.81845,-2.73964 V 223.0997 l -3.86978,-2.39826 m -0.10004,-96.83222 2.54555,1.59704 0.0327,19.59061 -2.56495,2.02265 m 0.0421,2.60056 3.91318,-3.0241 v -22.73399 l -3.86922,-2.5163 m -0.12505,99.20452 c -1.01167,-10.07595 -0.88484,-21.81262 0.12075,-31.88219 -14.24457,-0.0318 -28.48913,-0.0637 -42.733704,-0.0955 0.83016,-12.96318 0.84714,-25.983 0.0145,-38.94641 l -0.0658,-0.0799 -3.83751,-2.95022 V 123.922 l 3.86922,-2.5163 m 42.731624,99.19407 h 0.0346 c -0.007,0.0972 -0.0106,0.16232 -0.017,0.25813 -0.007,-0.0986 -0.011,-0.16073 -0.0176,-0.25813 z m 0.0176,0.25813 c 0.002,0.023 0.003,0.0371 0.004,0.0602 h -0.008 c 10e-4,-0.0223 0.002,-0.0379 0.004,-0.0602 z" />
      <path
         id="path870"
         style="opacity:0.5;fill:#0000ff;stroke-width:0.437239"
         d="m 109.52647,153.99699 a 1.5144972,2.0299578 0 0 0 -1.50084,2.04357 1.5144972,2.0299578 0 0 0 1.52128,2.01624 1.5144972,2.0299578 0 0 0 1.50768,-2.0345 1.5144972,2.0299578 0 0 0 -1.5145,-2.0254 m -0.0136,21.25955 a 1.5144972,2.0299578 0 0 0 -1.50084,2.04357 1.5144972,2.0299578 0 0 0 1.52128,2.01624 1.5144972,2.0299578 0 0 0 1.50768,-2.0345 1.5144972,2.0299578 0 0 0 -1.5145,-2.0254 m -0.0136,4.25198 a 1.5144972,2.0299578 0 0 0 -1.50084,2.04357 1.5144972,2.0299578 0 0 0 1.52128,2.01624 1.5144972,2.0299578 0 0 0 1.50768,-2.0345 1.5144972,2.0299578 0 0 0 -1.5145,-2.02539 m -0.0136,-8.50371 a 1.5144972,2.0299578 0 0 0 -1.50084,2.04358 1.5144972,2.0299578 0 0 0 1.52128,2.01624 1.5144972,2.0299578 0 0 0 1.50768,-2.03451 1.5144972,2.0299578 0 0 0 -1.5145,-2.02539 m -0.0136,-8.5037 a 1.5144972,2.0299578 0 0 0 -1.50084,2.04357 1.5144972,2.0299578 0 0 0 1.52128,2.01624 1.5144972,2.0299578 0 0 0 1.50768,-2.0345 1.5144972,2.0299578 0 0 0 -1.5145,-2.02539 m -0.0136,4.25197 a 1.5144972,2.0299578 0 0 0 -1.50084,2.04357 1.5144972,2.0299578 0 0 0 1.52128,2.01624 1.5144972,2.0299578 0 0 0 1.50768,-2.0345 1.5144972,2.0299578 0 0 0 -1.5145,-2.02539 m -0.0136,-8.5037 a 1.5144972,2.0299578 0 0 0 -1.50084,2.04357 1.5144972,2.0299578 0 0 0 1.52128,2.01624 1.5144972,2.0299578 0 0 0 1.50768,-2.0345 1.5144972,2.0299578 0 0 0 -1.5145,-2.02539"
         inkscape:label="LEDs" />
      <g
         aria-label="WA"
         transform="scale(-0.86375537,1.1577352)"
         id="text2977"
         style="font-weight:600;font-size:6.52902px;line-height:125%;font-family:'Libre Franklin';-inkscape-font-specification:'Libre Franklin Semi-Bold';letter-spacing:0px;word-spacing:0px;display:none;fill:#4d4d4d;stroke:#000000;stroke-width:0.306048px">
        <path
           id="path3728"
           style="stroke:#4d4d4d"
           d="m -134.12667,178.8484 h 0.63332 c 0.0653,0 0.10446,-0.0326 0.11752,-0.0783 l 0.39174,-1.07076 c 0.0131,-0.0392 0.0327,-0.0588 0.0784,-0.0588 h 1.70407 c 0.0522,0 0.0653,0.0261 0.0784,0.0653 l 0.37868,1.0577 c 0.0196,0.0653 0.0588,0.0849 0.11753,0.0849 h 0.79001 c 0.0718,0 0.0979,-0.0849 0.0718,-0.15669 l -1.63226,-4.55726 c -0.0261,-0.0849 -0.0914,-0.13058 -0.18281,-0.13058 h -0.81613 c -0.0914,0 -0.12405,0.0326 -0.15669,0.11752 l -1.64532,4.56379 c -0.0326,0.0979 0,0.16322 0.0718,0.16322 z m 1.44292,-1.94564 c -0.0653,0 -0.0784,-0.0326 -0.0522,-0.10447 l 0.63332,-1.73672 c 0.0261,-0.0653 0.0653,-0.0653 0.0914,-0.007 l 0.62678,1.74325 c 0.0196,0.0653 0.0131,0.10447 -0.0522,0.10447 z m -1.45597,-2.89889 h -0.4962 c -0.0979,0 -0.14364,0.0326 -0.1567,0.0979 l -0.91406,3.29715 c -0.0196,0.0653 -0.0522,0.0588 -0.0718,-0.007 l -0.93365,-3.29062 c -0.0196,-0.0653 -0.0522,-0.0979 -0.15017,-0.0979 h -0.58761 c -0.10446,0 -0.13711,0.0392 -0.1567,0.0979 l -0.92059,3.27104 c -0.0261,0.0783 -0.0522,0.0783 -0.0784,-0.0131 l -0.92059,-3.25798 c -0.0196,-0.0653 -0.0522,-0.0979 -0.15017,-0.0979 h -0.67901 c -0.11753,0 -0.16323,0.0718 -0.13058,0.17628 l 1.32539,4.55073 c 0.0261,0.0784 0.0783,0.11752 0.18281,0.11752 h 0.61373 c 0.11099,0 0.15669,-0.0392 0.18281,-0.12405 l 0.90753,-3.13393 c 0.0261,-0.0849 0.0522,-0.0784 0.0653,-0.007 l 0.90101,3.14699 c 0.0261,0.0784 0.0784,0.11752 0.18281,0.11752 h 0.60067 c 0.0979,0 0.15017,-0.0392 0.17628,-0.12405 l 1.33845,-4.55072 c 0.0261,-0.0979 -0.0196,-0.16976 -0.13058,-0.16976 z m 22.00903,4.705 -1.59961,-2.89889 c -0.0327,-0.0588 -0.0261,-0.0849 0.007,-0.13058 l 1.34498,-1.54737 c 0.0588,-0.0653 0.013,-0.13058 -0.0849,-0.13058 h -0.66596 c -0.11099,0 -0.14364,0.0261 -0.18934,0.0914 l -1.7759,2.13499 c -0.0392,0.0457 -0.0718,0.0522 -0.0718,-0.0261 v -2.10234 c 0,-0.0653 -0.0327,-0.0979 -0.0914,-0.0979 h -0.78348 c -0.0522,0 -0.0914,0.0392 -0.0914,0.10446 v 4.62255 c 0,0.0849 0.0327,0.11752 0.13058,0.11752 h 0.68555 c 0.10446,0 0.15017,-0.0392 0.15017,-0.13058 v -1.23399 c 0,-0.0588 0.007,-0.0914 0.0457,-0.13058 l 0.63984,-0.75084 c 0.0457,-0.0588 0.0784,-0.0718 0.111,-0.0196 l 1.18828,2.18069 c 0.0261,0.0588 0.0849,0.0849 0.16322,0.0849 h 0.82266 c 0.0849,0 0.0979,-0.0653 0.0653,-0.13711 z m -5.71942,-4.70742 c -0.0784,0 -0.10446,0.0392 -0.10446,0.10446 v 2.99029 c 0,0.0718 -0.0457,0.0914 -0.0979,0.0196 l -2.10234,-3.02947 c -0.0522,-0.0718 -0.0849,-0.0849 -0.16976,-0.0849 h -0.6529 c -0.0718,0 -0.10446,0.0326 -0.10446,0.11099 v 4.62907 c 0,0.0784 0.0457,0.10447 0.11752,0.10447 h 0.57455 c 0.0849,0 0.11753,-0.0326 0.111,-0.10447 v -3.13393 c 0,-0.0457 0.0326,-0.0588 0.0718,-0.007 l 2.23292,3.17311 c 0.0522,0.0653 0.0914,0.0718 0.1567,0.0718 h 0.54191 c 0.0653,0 0.11099,-0.0326 0.11099,-0.0979 v -4.65519 c 0,-0.0653 -0.0196,-0.0914 -0.0784,-0.0914 z m -5.13181,0 c -0.0588,0 -0.0979,0.0326 -0.0979,0.11099 v 4.61602 c 0,0.0849 0.0261,0.11752 0.13058,0.11752 h 0.67902 c 0.11099,0 0.15669,-0.0326 0.15669,-0.14364 v -4.59643 c 0,-0.0718 -0.0261,-0.10446 -0.0914,-0.10446 z m -4.13939,0.11099 v 4.61602 c 0,0.0783 0.0261,0.11752 0.12405,0.11752 h 3.04905 c 0.0784,0 0.111,-0.0457 0.111,-0.0979 v -0.52885 c 0,-0.0718 -0.0392,-0.0914 -0.10447,-0.0914 h -2.14152 c -0.0522,0 -0.0718,-0.0131 -0.0718,-0.0784 v -3.94353 c 0,-0.0718 -0.0261,-0.10446 -0.0914,-0.10446 h -0.77696 c -0.0588,0 -0.0979,0.0326 -0.0979,0.11099 z m -0.84878,-0.11099 h -0.61373 c -0.0653,0 -0.11099,0.0326 -0.13058,0.0979 l -1.15563,3.51914 c -0.0261,0.0784 -0.0588,0.0784 -0.0849,0.007 l -1.1687,-3.52567 c -0.0196,-0.0653 -0.0588,-0.0979 -0.12405,-0.0979 h -0.77695 c -0.0784,0 -0.11752,0.0653 -0.0914,0.1371 l 1.58003,4.58991 c 0.0261,0.0783 0.0849,0.11752 0.18934,0.11752 h 0.68554 c 0.0979,0 0.1567,-0.0392 0.18282,-0.12405 l 1.59961,-4.5899 c 0.0261,-0.0653 -0.0131,-0.13058 -0.0914,-0.13058 z"
           inkscape:label="WAVLINK" />
      </g>
      <text
         xml:space="preserve"
         style="font-weight:600;font-size:4.08064px;line-height:125%;font-family:'Libre Franklin';-inkscape-font-specification:'Libre Franklin Semi-Bold';letter-spacing:0px;word-spacing:0px;fill:#4d4d4d;stroke:#000000;stroke-width:0.306048px;stroke-linecap:butt;stroke-linejoin:miter;stroke-opacity:1"
         x="-130.06218"
         y="204.51526"
         id="text4944"
         transform="scale(-0.86375536,1.1577352)"
         inkscape:label="1200"><tspan
           sodipodi:role="line"
           id="tspan4942"
           style="font-size:4.08064px;fill:#4d4d4d;stroke:#4d4d4d;stroke-width:0.306048px"
           x="-130.06218"
           y="204.51526">1200</tspan></text>
      <rect
         style="opacity:1;fill:#4d4d4d;fill-opacity:1;stroke:#4d4d4d;stroke-width:0.437239;stroke-opacity:1"
         id="rect5368"
         width="5.2400937"
         height="3.9397306"
         x="-117.95294"
         y="233.09657"
         transform="scale(-1,1)"
         ry="0.59777653"
         inkscape:label="ac_bg" />
      <text
         xml:space="preserve"
         style="font-weight:600;font-size:4.08063px;line-height:125%;font-family:'Libre Franklin';-inkscape-font-specification:'Libre Franklin Semi-Bold';letter-spacing:0px;word-spacing:0px;fill:none;stroke:#000000;stroke-width:0.306048px;stroke-linecap:butt;stroke-linejoin:miter;stroke-opacity:1"
         x="-136.4191"
         y="204.51569"
         id="text5372"
         transform="scale(-0.86375537,1.1577352)"
         inkscape:label="AC"><tspan
           sodipodi:role="line"
           id="tspan5370"
           style="fill:#e6e6e6;stroke:#e6e6e6;stroke-width:0.306048px"
           x="-136.4191"
           y="204.51569">AC</tspan></text>
      <text
         xml:space="preserve"
         style="font-size:2.44838px;line-height:125%;font-family:'Libre Franklin';-inkscape-font-specification:'Libre Franklin';letter-spacing:0px;word-spacing:0px;fill:none;stroke:#000000;stroke-width:0.306048px;stroke-linecap:butt;stroke-linejoin:miter;stroke-opacity:1"
         x="-119.08573"
         y="202.00632"
         id="text5432"
         transform="scale(-0.86375537,1.1577352)"
         inkscape:label="4G"><tspan
           sodipodi:role="line"
           id="tspan5430"
           style="font-size:2.44838px;fill:#4d4d4d;stroke:#4d4d4d;stroke-width:0.306048px"
           x="-119.08573"
           y="202.00632">4G</tspan></text>
    </g>
  </g>
</svg>
