<?xml version="1.0" encoding="UTF-8" standalone="no"?>
<svg
   width="100%"
   height="100%"
   viewBox="0 0 1280 1150"
   version="1.1"
   xml:space="preserve"
   style="fill-rule:evenodd;clip-rule:evenodd;stroke-linecap:round;stroke-linejoin:round;stroke-miterlimit:1.41421;"
   id="svg24510"
   sodipodi:docname="Xiaomi_4C.svg"
   inkscape:version="1.2 (1:1.2+202206011327+fc4e4096c5)"
   xmlns:inkscape="http://www.inkscape.org/namespaces/inkscape"
   xmlns:sodipodi="http://sodipodi.sourceforge.net/DTD/sodipodi-0.dtd"
   xmlns:xlink="http://www.w3.org/1999/xlink"
   xmlns="http://www.w3.org/2000/svg"
   xmlns:svg="http://www.w3.org/2000/svg"><sodipodi:namedview
   id="namedview24512"
   pagecolor="#ffffff"
   bordercolor="#666666"
   borderopacity="1.0"
   inkscape:showpageshadow="2"
   inkscape:pageopacity="0.0"
   inkscape:pagecheckerboard="false"
   inkscape:deskcolor="#d1d1d1"
   showgrid="false"
   inkscape:zoom="0.41043478"
   inkscape:cx="129.13136"
   inkscape:cy="532.36229"
   inkscape:window-width="1920"
   inkscape:window-height="1021"
   inkscape:window-x="0"
   inkscape:window-y="0"
   inkscape:window-maximized="1"
   inkscape:current-layer="svg24510" />
    
    
<g
   id="g15267"
   transform="matrix(7.3525847,0,0,7.3525847,-107.78249,-225.67876)"><path
     style="opacity:1;fill:#f0f0f0;fill-opacity:1;stroke:none;stroke-width:0.264583px;stroke-linecap:butt;stroke-linejoin:miter;stroke-opacity:1"
     d="m 42.305546,140.07179 c 1.664768,-4.36082 7.012825,-5.96171 14.177966,-6.20104 l 88.706918,-0.01 c 11.30723,0.0569 13.1067,2.50546 15.25975,4.86506 l 7.73662,19.63785 c 3.00949,9.10992 -14.33208,7.71949 -20.57822,7.86855 l -97.933383,0.0521 c -4.925549,-0.16592 -15.97344,-0.20325 -14.765109,-7.12033 z"
     id="path242"
     sodipodi:nodetypes="ccccccccc" /><path
     style="opacity:1;fill:#cacaca;fill-opacity:1;stroke:none;stroke-width:0.264583px;stroke-linecap:butt;stroke-linejoin:miter;stroke-opacity:1"
     d="m 34.80718,159.90853 -0.225231,5.48907 c 1.825951,4.47887 8.282627,4.07984 13.493289,4.63957 H 154.96294 c 5.97486,-0.50587 12.7598,-0.26919 13.86181,-5.2417 l -0.24425,-4.48563 c -0.0287,4.01758 -5.4591,5.79282 -13.53281,5.89723 l -106.728055,0.041 C 44.04618,165.98547 34.73219,165.98559 34.80718,159.90853 Z"
     id="path1018"
     sodipodi:nodetypes="ccccccccc" /><g
     id="g13827"><path
       style="fill:#f1f1f1;fill-opacity:1;stroke:none;stroke-width:0.264583px;stroke-linecap:butt;stroke-linejoin:miter;stroke-opacity:1"
       d="m 60.728994,133.83043 h 2.352114 L 62.89968,49.242209 h -1.997323 z"
       id="path1020"
       sodipodi:nodetypes="ccccc" /><path
       style="fill:#ebebeb;fill-opacity:1;stroke:none;stroke-width:0.264583px;stroke-linecap:butt;stroke-linejoin:miter;stroke-opacity:1"
       d="m 60.728994,128.65459 c -0.464483,1.1413 -0.426632,2.06137 -3.163305,4.20332 v 1.01272 l 3.163305,-0.007 z"
       id="path2816"
       sodipodi:nodetypes="ccccc" /><path
       style="fill:#ebebeb;fill-opacity:1;stroke:none;stroke-width:0.264583px;stroke-linecap:butt;stroke-linejoin:miter;stroke-opacity:1"
       d="m 63.075593,128.65459 c 0.464483,1.1413 0.426632,2.06137 3.163305,4.20332 v 1.01272 l -3.163305,-0.007 z"
       id="path3784"
       sodipodi:nodetypes="ccccc" /><path
       style="fill:#d7d7d7;fill-opacity:1;stroke:none;stroke-width:0.264583px;stroke-linecap:butt;stroke-linejoin:miter;stroke-opacity:1"
       d="m 64.322594,52.453592 0.473489,76.868558 1.442814,3.53576 c -1.211576,-1.01785 -2.491016,-1.87017 -3.163305,-4.20332 L 62.90388,47.758011 c 0.691535,0.773502 1.250541,2.026912 1.418714,4.695581 z"
       id="path3786"
       sodipodi:nodetypes="cccccc" /><path
       style="fill:#dcdcdc;fill-opacity:1;stroke:none;stroke-width:0.264583px;stroke-linecap:butt;stroke-linejoin:miter;stroke-opacity:1"
       d="m 59.481992,52.453592 -0.473489,76.868558 -1.442814,3.53576 c 1.211576,-1.01785 2.491016,-1.87017 3.163305,-4.20332 l 0.171712,-80.896579 c -0.691535,0.773502 -1.250541,2.026912 -1.418714,4.695581 z"
       id="path3788"
       sodipodi:nodetypes="cccccc" /><path
       style="fill:#ebebeb;fill-opacity:1;stroke:none;stroke-width:0.264583px;stroke-linecap:butt;stroke-linejoin:miter;stroke-opacity:1"
       d="m 60.900706,47.758011 h 2.003174 l -0.0042,1.484198 h -1.997323 z"
       id="path3790"
       sodipodi:nodetypes="ccccc" /></g><g
     id="g13841"
     transform="translate(26.464559)"><path
       style="fill:#f1f1f1;fill-opacity:1;stroke:none;stroke-width:0.264583px;stroke-linecap:butt;stroke-linejoin:miter;stroke-opacity:1"
       d="m 60.728994,133.83043 h 2.352114 L 62.89968,49.242209 h -1.997323 z"
       id="path13829"
       sodipodi:nodetypes="ccccc" /><path
       style="fill:#ebebeb;fill-opacity:1;stroke:none;stroke-width:0.264583px;stroke-linecap:butt;stroke-linejoin:miter;stroke-opacity:1"
       d="m 60.728994,128.65459 c -0.464483,1.1413 -0.426632,2.06137 -3.163305,4.20332 v 1.01272 l 3.163305,-0.007 z"
       id="path13831"
       sodipodi:nodetypes="ccccc" /><path
       style="fill:#ebebeb;fill-opacity:1;stroke:none;stroke-width:0.264583px;stroke-linecap:butt;stroke-linejoin:miter;stroke-opacity:1"
       d="m 63.075593,128.65459 c 0.464483,1.1413 0.426632,2.06137 3.163305,4.20332 v 1.01272 l -3.163305,-0.007 z"
       id="path13833"
       sodipodi:nodetypes="ccccc" /><path
       style="fill:#d7d7d7;fill-opacity:1;stroke:none;stroke-width:0.264583px;stroke-linecap:butt;stroke-linejoin:miter;stroke-opacity:1"
       d="m 64.322594,52.453592 0.473489,76.868558 1.442814,3.53576 c -1.211576,-1.01785 -2.491016,-1.87017 -3.163305,-4.20332 L 62.90388,47.758011 c 0.691535,0.773502 1.250541,2.026912 1.418714,4.695581 z"
       id="path13835"
       sodipodi:nodetypes="cccccc" /><path
       style="fill:#dcdcdc;fill-opacity:1;stroke:none;stroke-width:0.264583px;stroke-linecap:butt;stroke-linejoin:miter;stroke-opacity:1"
       d="m 59.481992,52.453592 -0.473489,76.868558 -1.442814,3.53576 c 1.211576,-1.01785 2.491016,-1.87017 3.163305,-4.20332 l 0.171712,-80.896579 c -0.691535,0.773502 -1.250541,2.026912 -1.418714,4.695581 z"
       id="path13837"
       sodipodi:nodetypes="cccccc" /><path
       style="fill:#ebebeb;fill-opacity:1;stroke:none;stroke-width:0.264583px;stroke-linecap:butt;stroke-linejoin:miter;stroke-opacity:1"
       d="m 60.900706,47.758011 h 2.003174 l -0.0042,1.484198 h -1.997323 z"
       id="path13839"
       sodipodi:nodetypes="ccccc" /></g><g
     id="g13855"
     transform="translate(52.954535)"><path
       style="fill:#f1f1f1;fill-opacity:1;stroke:none;stroke-width:0.264583px;stroke-linecap:butt;stroke-linejoin:miter;stroke-opacity:1"
       d="m 60.728994,133.83043 h 2.352114 L 62.89968,49.242209 h -1.997323 z"
       id="path13843"
       sodipodi:nodetypes="ccccc" /><path
       style="fill:#ebebeb;fill-opacity:1;stroke:none;stroke-width:0.264583px;stroke-linecap:butt;stroke-linejoin:miter;stroke-opacity:1"
       d="m 60.728994,128.65459 c -0.464483,1.1413 -0.426632,2.06137 -3.163305,4.20332 v 1.01272 l 3.163305,-0.007 z"
       id="path13845"
       sodipodi:nodetypes="ccccc" /><path
       style="fill:#ebebeb;fill-opacity:1;stroke:none;stroke-width:0.264583px;stroke-linecap:butt;stroke-linejoin:miter;stroke-opacity:1"
       d="m 63.075593,128.65459 c 0.464483,1.1413 0.426632,2.06137 3.163305,4.20332 v 1.01272 l -3.163305,-0.007 z"
       id="path13847"
       sodipodi:nodetypes="ccccc" /><path
       style="fill:#d7d7d7;fill-opacity:1;stroke:none;stroke-width:0.264583px;stroke-linecap:butt;stroke-linejoin:miter;stroke-opacity:1"
       d="m 64.322594,52.453592 0.473489,76.868558 1.442814,3.53576 c -1.211576,-1.01785 -2.491016,-1.87017 -3.163305,-4.20332 L 62.90388,47.758011 c 0.691535,0.773502 1.250541,2.026912 1.418714,4.695581 z"
       id="path13849"
       sodipodi:nodetypes="cccccc" /><path
       style="fill:#dcdcdc;fill-opacity:1;stroke:none;stroke-width:0.264583px;stroke-linecap:butt;stroke-linejoin:miter;stroke-opacity:1"
       d="m 59.481992,52.453592 -0.473489,76.868558 -1.442814,3.53576 c 1.211576,-1.01785 2.491016,-1.87017 3.163305,-4.20332 l 0.171712,-80.896579 c -0.691535,0.773502 -1.250541,2.026912 -1.418714,4.695581 z"
       id="path13851"
       sodipodi:nodetypes="cccccc" /><path
       style="fill:#ebebeb;fill-opacity:1;stroke:none;stroke-width:0.264583px;stroke-linecap:butt;stroke-linejoin:miter;stroke-opacity:1"
       d="m 60.900706,47.758011 h 2.003174 l -0.0042,1.484198 h -1.997323 z"
       id="path13853"
       sodipodi:nodetypes="ccccc" /></g><g
     id="g13869"
     transform="translate(79.468135)"><path
       style="fill:#f1f1f1;fill-opacity:1;stroke:none;stroke-width:0.264583px;stroke-linecap:butt;stroke-linejoin:miter;stroke-opacity:1"
       d="m 60.728994,133.83043 h 2.352114 L 62.89968,49.242209 h -1.997323 z"
       id="path13857"
       sodipodi:nodetypes="ccccc" /><path
       style="fill:#ebebeb;fill-opacity:1;stroke:none;stroke-width:0.264583px;stroke-linecap:butt;stroke-linejoin:miter;stroke-opacity:1"
       d="m 60.728994,128.65459 c -0.464483,1.1413 -0.426632,2.06137 -3.163305,4.20332 v 1.01272 l 3.163305,-0.007 z"
       id="path13859"
       sodipodi:nodetypes="ccccc" /><path
       style="fill:#ebebeb;fill-opacity:1;stroke:none;stroke-width:0.264583px;stroke-linecap:butt;stroke-linejoin:miter;stroke-opacity:1"
       d="m 63.075593,128.65459 c 0.464483,1.1413 0.426632,2.06137 3.163305,4.20332 v 1.01272 l -3.163305,-0.007 z"
       id="path13861"
       sodipodi:nodetypes="ccccc" /><path
       style="fill:#d7d7d7;fill-opacity:1;stroke:none;stroke-width:0.264583px;stroke-linecap:butt;stroke-linejoin:miter;stroke-opacity:1"
       d="m 64.322594,52.453592 0.473489,76.868558 1.442814,3.53576 c -1.211576,-1.01785 -2.491016,-1.87017 -3.163305,-4.20332 L 62.90388,47.758011 c 0.691535,0.773502 1.250541,2.026912 1.418714,4.695581 z"
       id="path13863"
       sodipodi:nodetypes="cccccc" /><path
       style="fill:#dcdcdc;fill-opacity:1;stroke:none;stroke-width:0.264583px;stroke-linecap:butt;stroke-linejoin:miter;stroke-opacity:1"
       d="m 59.481992,52.453592 -0.473489,76.868558 -1.442814,3.53576 c 1.211576,-1.01785 2.491016,-1.87017 3.163305,-4.20332 l 0.171712,-80.896579 c -0.691535,0.773502 -1.250541,2.026912 -1.418714,4.695581 z"
       id="path13865"
       sodipodi:nodetypes="cccccc" /><path
       style="fill:#ebebeb;fill-opacity:1;stroke:none;stroke-width:0.264583px;stroke-linecap:butt;stroke-linejoin:miter;stroke-opacity:1"
       d="m 60.900706,47.758011 h 2.003174 l -0.0042,1.484198 h -1.997323 z"
       id="path13867"
       sodipodi:nodetypes="ccccc" /></g><ellipse
     style="opacity:0.41673;fill:#00ff00;fill-opacity:1;stroke:none;stroke-width:35.6428;stroke-linecap:round;stroke-linejoin:round;stroke-dasharray:142.571, 71.2858, 35.6428, 71.2858"
     id="path13925"
     cx="96.01606"
     cy="158.8252"
     rx="1.1937671"
     ry="0.87207973" /><ellipse
     style="opacity:0.41673;fill:#00ff00;fill-opacity:1;stroke:none;stroke-width:35.6428;stroke-linecap:round;stroke-linejoin:round;stroke-dasharray:142.571, 71.2858, 35.6428, 71.2858"
     id="ellipse13927"
     cx="106.98516"
     cy="158.8252"
     rx="1.1937671"
     ry="0.87207973" /></g></svg>
