<?xml version="1.0" encoding="UTF-8" standalone="no"?>
<svg
   width="100%"
   height="100%"
   viewBox="0 0 1280 1150"
   version="1.1"
   xml:space="preserve"
   style="fill-rule:evenodd;clip-rule:evenodd;stroke-linecap:round;stroke-linejoin:round;stroke-miterlimit:1.41421;"
   id="svg14317"
   sodipodi:docname="xiaomi-redmi-router-ac2100.svg"
   inkscape:version="1.2 (1:1.2+202206011327+fc4e4096c5)"
   xmlns:inkscape="http://www.inkscape.org/namespaces/inkscape"
   xmlns:sodipodi="http://sodipodi.sourceforge.net/DTD/sodipodi-0.dtd"
   xmlns="http://www.w3.org/2000/svg"
   xmlns:svg="http://www.w3.org/2000/svg"><defs
   id="defs14321" /><sodipodi:namedview
   id="namedview14319"
   pagecolor="#ffffff"
   bordercolor="#666666"
   borderopacity="1.0"
   inkscape:showpageshadow="2"
   inkscape:pageopacity="0.0"
   inkscape:pagecheckerboard="0"
   inkscape:deskcolor="#d1d1d1"
   showgrid="false"
   inkscape:zoom="0.29022122"
   inkscape:cx="391.08098"
   inkscape:cy="422.0918"
   inkscape:window-width="1920"
   inkscape:window-height="1021"
   inkscape:window-x="0"
   inkscape:window-y="0"
   inkscape:window-maximized="1"
   inkscape:current-layer="svg14317" />
    
<g
   id="g18158"
   transform="translate(-0.08665,14.536995)"><path
     style="fill:#e4e4e4;fill-opacity:1;stroke:none;stroke-width:1px;stroke-linecap:butt;stroke-linejoin:miter;stroke-opacity:1"
     d="m 177.41959,878.26224 57.32066,-199.71262 c 12.71233,-37.6233 51.09327,-55.68713 111.78391,-56.751 l 597.20715,0.96039 c 53.25234,1.0396 91.83759,17.54937 102.49669,63.51433 l 52.4828,178.04339 c 23.5896,73.94583 -28.5072,83.29442 -88.2702,86.10009 H 267.69367 c -15.68548,-0.19738 -100.26923,-2.71254 -90.27408,-72.15458 z"
     id="path2381"
     sodipodi:nodetypes="ccccccccc" /><path
     style="fill:#f5f5f5;fill-opacity:1;stroke:none;stroke-width:1px;stroke-linecap:butt;stroke-linejoin:miter;stroke-opacity:1"
     d="m 596.95189,686.98957 -3.72448,133.32845 c -4.24981,45.72698 98.71151,43.8351 93.77041,0 l -4.53258,-133.9667 c -2.53571,-25.8044 -82.15024,-29.77633 -85.51335,0.63825 z"
     id="path4963"
     sodipodi:nodetypes="ccccc" /><g
     id="g7354"><path
       style="fill:#2ed6cd;fill-opacity:1;stroke:none;stroke-width:1px;stroke-linecap:butt;stroke-linejoin:miter;stroke-opacity:1"
       d="m 634.48469,797.63405 h 11.29426 c 1.59977,0.26943 1.53414,2.55917 0,2.67975 h -11.32307 c -1.13554,0.0332 -1.29084,-2.51041 0.0288,-2.67975 z"
       id="path5071"
       sodipodi:nodetypes="ccccc" /><path
       style="fill:#2ed6cd;fill-opacity:1;stroke:none;stroke-width:1px;stroke-linecap:butt;stroke-linejoin:miter;stroke-opacity:1"
       d="m 634.48469,821.32623 h 11.29426 c 1.59977,0.26943 1.53414,2.55917 0,2.67975 h -11.32307 c -1.13554,0.0332 -1.29084,-2.51041 0.0288,-2.67975 z"
       id="path7350"
       sodipodi:nodetypes="ccccc" /></g><g
     id="g14516"><path
       style="fill:#e4e4e4;fill-opacity:1;stroke:none;stroke-width:1px;stroke-linecap:butt;stroke-linejoin:miter;stroke-opacity:1"
       d="m 1214.2348,301.61453 -30.5216,0.28636 c -14.7126,-0.3987 -16.5594,7.73264 -18.5127,14.51608 l -55.8542,520.27254 c 15.0049,36.88477 52.0734,23.79938 55.3085,4.20513 l 63.9424,-517.90176 c 1.8846,-11.82337 0.2233,-21.15039 -14.3624,-21.37835 z"
       id="path10118"
       sodipodi:nodetypes="ccccccc" /><path
       style="fill:#888888;fill-opacity:1;stroke:none;stroke-width:1px;stroke-linecap:butt;stroke-linejoin:miter;stroke-opacity:1"
       d="m 1102.1256,876.81358 c 18.9926,7.40534 14.5749,15.59303 11.9968,33.63482 l -11.2751,-0.10744 c 3.0155,-10.77745 1.4894,-22.1105 -0.7217,-33.52738 z"
       id="path10120"
       sodipodi:nodetypes="cccc" /><path
       style="fill:#c0c0c0;fill-opacity:1;stroke:none;stroke-width:1px;stroke-linecap:butt;stroke-linejoin:miter;stroke-opacity:1"
       d="m 1114.1224,910.4484 c -8.0172,30.27878 37.9764,25.28231 39.8471,5.44463 l 10.6853,-74.99839 c -8.2122,25.49772 -43.8537,26.80017 -55.3085,-4.20513 l 55.8542,-520.27254 c 2.5571,-12.63464 8.8899,-13.05923 14.9711,-14.43414 v 0 c -9.9996,-1.96992 -15.9569,4.3401 -16.9982,9.08006 l -62.2575,560.79612 1.2097,4.95459 c 18.0345,7.29096 14.298,14.12411 11.9968,33.63482 z"
       id="path13304"
       sodipodi:nodetypes="cccccccccccc" /></g><path
     style="fill:#d9d9d9;fill-opacity:1;stroke:none;stroke-width:1px;stroke-linecap:butt;stroke-linejoin:miter;stroke-opacity:1"
     d="m 176.10286,891.16293 3.66147,56.40541 c -0.48163,46.8213 64.86347,55.81206 109.72883,58.29596 h 719.98704 c 46.054,-5.5847 84.2356,-16.62329 90.929,-49.4767 l 2.4381,-46.04664 c -8.0079,32.60594 -48.6811,37.62958 -92.4067,40.07586 H 267.69367 c -28.38435,0.5 -88.26736,-8.0557 -91.59081,-59.25389 z"
     id="path13943"
     sodipodi:nodetypes="ccccccccc" /><g
     id="g14524"
     transform="matrix(-1,0,0,1,1280.1733,0)"><path
       style="fill:#e4e4e4;fill-opacity:1;stroke:none;stroke-width:1px;stroke-linecap:butt;stroke-linejoin:miter;stroke-opacity:1"
       d="m 1214.2348,301.61453 -30.5216,0.28636 c -14.7126,-0.3987 -16.5594,7.73264 -18.5127,14.51608 l -55.8542,520.27254 c 15.0049,36.88477 52.0734,23.79938 55.3085,4.20513 l 63.9424,-517.90176 c 1.8846,-11.82337 0.2233,-21.15039 -14.3624,-21.37835 z"
       id="path14518"
       sodipodi:nodetypes="ccccccc" /><path
       style="fill:#888888;fill-opacity:1;stroke:none;stroke-width:1px;stroke-linecap:butt;stroke-linejoin:miter;stroke-opacity:1"
       d="m 1102.1256,876.81358 c 18.9926,7.40534 14.5749,15.59303 11.9968,33.63482 l -11.2751,-0.10744 c 3.0155,-10.77745 1.4894,-22.1105 -0.7217,-33.52738 z"
       id="path14520"
       sodipodi:nodetypes="cccc" /><path
       style="fill:#c0c0c0;fill-opacity:1;stroke:none;stroke-width:1px;stroke-linecap:butt;stroke-linejoin:miter;stroke-opacity:1"
       d="m 1114.1224,910.4484 c -8.0172,30.27878 37.9764,25.28231 39.8471,5.44463 l 10.6853,-74.99839 c -8.2122,25.49772 -43.8537,26.80017 -55.3085,-4.20513 l 55.8542,-520.27254 c 2.5571,-12.63464 8.8899,-13.05923 14.9711,-14.43414 v 0 c -9.9996,-1.96992 -15.9569,4.3401 -16.9982,9.08006 l -62.2575,560.79612 1.2097,4.95459 c 18.0345,7.29096 14.298,14.12411 11.9968,33.63482 z"
       id="path14522"
       sodipodi:nodetypes="cccccccccccc" /></g><g
     id="g17200"><path
       style="fill:#e4e4e4;fill-opacity:1;stroke:none;stroke-width:0.851257px;stroke-linecap:butt;stroke-linejoin:miter;stroke-opacity:1"
       d="m 1136.7333,171.88325 -24.5331,0.41739 c -11.829,-0.28263 -13.266,7.05677 -14.7965,13.18171 l -41.8541,469.27646 c 12.2775,33.17045 41.9984,21.18157 44.4843,3.50201 l 48.3697,-467.1816 c 1.4458,-10.66768 0.056,-19.06659 -11.6703,-19.19597 z"
       id="path14526"
       sodipodi:nodetypes="ccccccc" /><path
       style="fill:#c0c0c0;fill-opacity:1;stroke:none;stroke-width:0.851257px;stroke-linecap:butt;stroke-linejoin:miter;stroke-opacity:1"
       d="m 1059.8204,721.22177 c -6.2674,27.33578 30.6753,22.59187 32.063,4.69999 l 8.1505,-67.66094 c -6.4522,23.02705 -35.095,24.38708 -44.4843,-3.50201 l 41.8541,-469.27646 c 1.9816,-11.40249 7.0697,-11.81827 11.9501,-13.08937 v 0 c -8.0497,-1.72355 -12.8016,3.99552 -13.6109,8.27366 l -49.5149,505.6067 1.1396,3.86587 c 14.5397,6.47813 14.1885,13.48319 12.4528,31.08258 z"
       id="path14530"
       sodipodi:nodetypes="cccccccccccc" /><path
       style="fill:#6e6e6e;fill-opacity:1;stroke:none;stroke-width:1px;stroke-linecap:butt;stroke-linejoin:miter;stroke-opacity:1"
       d="m 1047.3676,690.13921 c 10.4227,3.65178 16.5669,11.88043 12.4528,31.08256 l -0.842,8.3063 z"
       id="path15263"
       sodipodi:nodetypes="cccc" /></g><g
     id="g17208"
     transform="matrix(-1,0,0,1,1280.2695,0)"><path
       style="fill:#e4e4e4;fill-opacity:1;stroke:none;stroke-width:0.851257px;stroke-linecap:butt;stroke-linejoin:miter;stroke-opacity:1"
       d="m 1136.7333,171.88325 -24.5331,0.41739 c -11.829,-0.28263 -13.266,7.05677 -14.7965,13.18171 l -41.8541,469.27646 c 12.2775,33.17045 41.9984,21.18157 44.4843,3.50201 l 48.3697,-467.1816 c 1.4458,-10.66768 0.056,-19.06659 -11.6703,-19.19597 z"
       id="path17202"
       sodipodi:nodetypes="ccccccc" /><path
       style="fill:#c0c0c0;fill-opacity:1;stroke:none;stroke-width:0.851257px;stroke-linecap:butt;stroke-linejoin:miter;stroke-opacity:1"
       d="m 1059.8204,721.22177 c -6.2674,27.33578 30.6753,22.59187 32.063,4.69999 l 8.1505,-67.66094 c -6.4522,23.02705 -35.095,24.38708 -44.4843,-3.50201 l 41.8541,-469.27646 c 1.9816,-11.40249 7.0697,-11.81827 11.9501,-13.08937 v 0 c -8.0497,-1.72355 -12.8016,3.99552 -13.6109,8.27366 l -49.5149,505.6067 1.1396,3.86587 c 14.5397,6.47813 14.1885,13.48319 12.4528,31.08258 z"
       id="path17204"
       sodipodi:nodetypes="cccccccccccc" /><path
       style="fill:#6e6e6e;fill-opacity:1;stroke:none;stroke-width:1px;stroke-linecap:butt;stroke-linejoin:miter;stroke-opacity:1"
       d="m 1047.3676,690.13921 c 10.4227,3.65178 16.5669,11.88043 12.4528,31.08256 l -0.842,8.3063 z"
       id="path17206"
       sodipodi:nodetypes="cccc" /></g><g
     id="g18047"><path
       style="fill:#c3c3c3;fill-opacity:1;stroke:none;stroke-width:1px;stroke-linecap:butt;stroke-linejoin:miter;stroke-opacity:1"
       d="M 891.86059,621.79862 920.0793,134.54568 c -0.44726,-7.61207 -0.55977,-15.61408 -4.21961,-19.48397 -8.06348,6.8182 -7.60386,18.38824 -8.65294,29.11714 l -25.90606,425.7412 c -1.6064,7.41781 -1.2083,13.00957 -8.16711,18.98441 l -1.43831,32.89416 z"
       id="path17210"
       sodipodi:nodetypes="cccccccc" /><path
       style="fill:#d0d0d0;fill-opacity:1;stroke:none;stroke-width:1px;stroke-linecap:butt;stroke-linejoin:miter;stroke-opacity:1"
       d="m 891.86059,621.79862 h 13.26746 l 28.58032,-496.6155 -1.37618,-1.92178 -13.17739,0.0172 c 0.56547,3.93624 0.74631,7.60264 0.9245,11.26717 z"
       id="path17427"
       sodipodi:nodetypes="ccccccc" /><path
       style="fill:#e8e8e8;fill-opacity:1;stroke:none;stroke-width:1px;stroke-linecap:butt;stroke-linejoin:miter;stroke-opacity:1"
       d="m 905.12805,621.79862 h 14.95125 v -29.7618 l -5.42293,-14.68098 23.60698,-427.27544 c -0.31336,-10.77375 -0.77111,-21.25096 -4.55498,-24.89728 z"
       id="path17636"
       sodipodi:nodetypes="ccccccc" /></g><path
     style="fill:#ededed;fill-opacity:1;stroke:none;stroke-width:1px;stroke-linecap:butt;stroke-linejoin:miter;stroke-opacity:1"
     d="M 387.81201,621.79862 359.5933,134.54568 c 0.44726,-7.61207 0.55977,-15.61408 4.21961,-19.48397 8.06348,6.8182 7.60386,18.38824 8.65294,29.11714 l 25.90606,425.7412 c 1.6064,7.41781 1.2083,13.00957 8.16711,18.98441 l 1.43831,32.89416 z"
     id="path18049"
     sodipodi:nodetypes="cccccccc" /><path
     style="fill:#d5d5d5;fill-opacity:1;stroke:none;stroke-width:1px;stroke-linecap:butt;stroke-linejoin:miter;stroke-opacity:1"
     d="m 387.81201,621.79862 h -13.26746 l -28.58032,-496.6155 1.37618,-1.92178 13.17739,0.0172 c -0.56547,3.93624 -0.74631,7.60264 -0.9245,11.26717 z"
     id="path18051"
     sodipodi:nodetypes="ccccccc" /><path
     style="fill:#bebebe;fill-opacity:1;stroke:none;stroke-width:1px;stroke-linecap:butt;stroke-linejoin:miter;stroke-opacity:1"
     d="M 374.54455,621.79862 H 359.5933 v -29.7618 l 5.42293,-14.68098 -23.60698,-427.27544 c 0.31336,-10.77375 0.77111,-21.25096 4.55498,-24.89728 z"
     id="path18053"
     sodipodi:nodetypes="ccccccc" /></g></svg>
