<?xml version="1.0" encoding="UTF-8" standalone="no"?>
<svg
   width="100%"
   height="100%"
   viewBox="0 0 1280 1150"
   version="1.1"
   xml:space="preserve"
   style="fill-rule:evenodd;clip-rule:evenodd;stroke-linecap:round;stroke-linejoin:round;stroke-miterlimit:1.41421;"
   id="svg40398"
   inkscape:version="1.2 (1:1.2+202206011327+fc4e4096c5)"
   sodipodi:docname="xiaomi-mi-router-4a-gigabit-edition.svg"
   xmlns:inkscape="http://www.inkscape.org/namespaces/inkscape"
   xmlns:sodipodi="http://sodipodi.sourceforge.net/DTD/sodipodi-0.dtd"
   xmlns="http://www.w3.org/2000/svg"
   xmlns:svg="http://www.w3.org/2000/svg"><defs
   id="defs37" /><sodipodi:namedview
   id="namedview40400"
   pagecolor="#ffffff"
   bordercolor="#666666"
   borderopacity="1.0"
   inkscape:showpageshadow="2"
   inkscape:pageopacity="0.0"
   inkscape:pagecheckerboard="0"
   inkscape:deskcolor="#d1d1d1"
   showgrid="false"
   inkscape:zoom="0.82086957"
   inkscape:cx="922.19279"
   inkscape:cy="554.89936"
   inkscape:window-width="2560"
   inkscape:window-height="1369"
   inkscape:window-x="0"
   inkscape:window-y="0"
   inkscape:window-maximized="1"
   inkscape:current-layer="svg40398" />
    
<g
   id="g29967"
   transform="matrix(1.2504695,0,0,1.2504695,-160.52523,-144.04159)"><path
     style="fill:#d5d5d5;fill-opacity:1;stroke:none;stroke-width:1.39355px;stroke-linecap:butt;stroke-linejoin:miter;stroke-opacity:1"
     d="m 724.99308,648.03962 c -8.05015,8.12489 -14.41582,10.38873 -19.23844,7.28367 v 51.00972 h 11.10356 l 0.0732,-14.507 8.42616,2.05425 z"
     id="path33822"
     sodipodi:nodetypes="ccccccc" /><path
     style="fill:#9d9d9f;fill-opacity:1;stroke:none;stroke-width:1.39641px;stroke-linecap:butt;stroke-linejoin:miter;stroke-opacity:1"
     d="m 740.58121,647.2946 c 10.71677,9.60678 14.88039,10.67448 19.94786,8.07209 v 51.21887 h -11.10356 l -0.0732,-14.56649 -8.42616,2.06267 z"
     id="path33824"
     sodipodi:nodetypes="ccccccc" /><path
     style="fill:#5f5f5f;fill-opacity:1;stroke:none;stroke-width:1.43203px;stroke-linecap:butt;stroke-linejoin:miter;stroke-opacity:1"
     d="m 749.35223,691.22145 -8.42616,2.16925 -15.56841,-2.8e-4 -8.42619,-2.16897 -0.0732,15.31918 h 32.56731 z"
     id="path33826" /><path
     style="fill:#d2d2d2;fill-opacity:1;stroke:none;stroke-width:1.3839px;stroke-linecap:butt;stroke-linejoin:miter;stroke-opacity:1"
     d="m 936.74077,695.02542 18.43409,-522.75977 -13.63689,-0.88483 -20.2202,523.17092 z"
     id="path38343"
     sodipodi:nodetypes="ccccc" /><path
     style="fill:#d9d9d9;fill-opacity:1;stroke:none;stroke-width:1.3839px;stroke-linecap:butt;stroke-linejoin:miter;stroke-opacity:1"
     d="m 922.78564,649.03649 c -6.24008,8.26041 -13.06661,10.61974 -20.37225,8.15791 l -1.10693,49.6316 10.37385,-0.23434 0.32168,-14.22391 9.31572,2.18399 z"
     id="path38345"
     sodipodi:nodetypes="ccccccc" /><path
     style="fill:#8d8d8f;fill-opacity:1;stroke:none;stroke-width:1.3839px;stroke-linecap:butt;stroke-linejoin:miter;stroke-opacity:1"
     d="m 938.10253,649.97824 c 5.55797,8.73398 11.86668,10.13664 19.34614,8.26827 l -1.62924,50.13498 -10.71369,-0.93689 0.26518,-13.61927 -8.63026,1.20009 z"
     id="path38347"
     sodipodi:nodetypes="ccccccc" /><path
     style="fill:#5f5f5f;fill-opacity:1;stroke:none;stroke-width:1.3839px;stroke-linecap:butt;stroke-linejoin:miter;stroke-opacity:1"
     d="m 945.37103,693.82532 -8.63026,1.2001 -15.423,-0.47389 -9.31573,-2.18399 -0.32167,14.22391 33.42543,0.85294 z"
     id="path38349" /><path
     style="fill:#959597;fill-opacity:1;stroke:none;stroke-width:1.3839px;stroke-linecap:butt;stroke-linejoin:miter;stroke-opacity:1"
     d="m 957.44867,658.24651 v -5.54406 c -8.74686,-10.18258 -7.58501,-21.04522 -8.0035,-31.79939 l 12.77371,-447.98841 c -2.05615,-14.10985 -4.18298,-19.07423 -6.29543,-25.89477 l -17.82092,502.95836 c 2.95294,4.24663 6.47964,10.71367 19.34614,8.26827 z"
     id="path38351"
     sodipodi:nodetypes="ccccccc" /><path
     style="fill:#d8d8d8;fill-opacity:1;stroke:none;stroke-width:1.3839px;stroke-linecap:butt;stroke-linejoin:miter;stroke-opacity:1"
     d="m 941.53797,171.38082 0.41844,-26.7463 c -9.32921,15.01967 -9.05818,26.52745 -10.4566,38.64595 l -18.7712,452.2014 -9.72176,15.72052 -0.59326,5.99201 c 11.329,3.43124 17.38571,-4.44028 20.37226,-8.15791 z"
     id="path38353"
     sodipodi:nodetypes="cccccccc" /><path
     style="fill:#eaeaea;fill-opacity:1;stroke:none;stroke-width:1.3839px;stroke-linecap:butt;stroke-linejoin:miter;stroke-opacity:1"
     d="m 941.53797,171.38082 0.41844,-26.7463 h 13.21867 l 0.74858,2.38536 -0.74858,25.24577 z"
     id="path38355" /><path
     style="fill:#e9e9e9;fill-opacity:1;stroke:none;stroke-width:1.3839px;stroke-linecap:butt;stroke-linejoin:miter;stroke-opacity:1"
     d="m 232.82758,769.03507 -21.32382,166.99901 c -6.0037,51.6353 35.55115,58.2663 97.81966,61.78279 h 674.12596 c 63.73922,0.1715 93.07932,-19.37559 84.44102,-60.69401 l -28.4789,-171.30498 c -10.3533,-21.00211 -10.1473,-57.87125 -100.22637,-59.28698 l -570.66644,-1.48299 c -83.1375,-2.2554 -127.86459,11.232 -135.69111,63.98716 z"
     id="path18971"
     sodipodi:nodetypes="ccccccccc" /><path
     style="fill:#cecece;fill-opacity:1;stroke:none;stroke-width:1.3839px;stroke-linecap:butt;stroke-linejoin:miter;stroke-opacity:1"
     d="m 529.80593,693.24733 15.56841,-2.6e-4 3.39463,-516.95894 -15.08381,0.0256 z"
     id="path19453"
     sodipodi:nodetypes="ccccc" /><path
     style="fill:#afafaf;fill-opacity:1;stroke:none;stroke-width:1.3839px;stroke-linecap:butt;stroke-linejoin:miter;stroke-opacity:1"
     d="m 545.73893,648.03962 c 8.05015,8.01271 14.41581,10.24529 19.23842,7.1831 v 50.30543 h -11.10353 l -0.0733,-14.3067 -8.42619,2.02588 z"
     id="path25239"
     sodipodi:nodetypes="ccccccc" /><path
     style="fill:#dbdbdb;fill-opacity:1;stroke:none;stroke-width:1.3839px;stroke-linecap:butt;stroke-linejoin:miter;stroke-opacity:1"
     d="m 530.15077,647.2946 c -10.71676,9.43545 -14.88038,10.48411 -19.94782,7.92813 v 50.30543 h 11.10352 l 0.0734,-14.30671 8.42619,2.02588 z"
     id="path25241"
     sodipodi:nodetypes="ccccccc" /><path
     style="fill:#5f5f5f;fill-opacity:1;stroke:none;stroke-width:1.3839px;stroke-linecap:butt;stroke-linejoin:miter;stroke-opacity:1"
     d="m 521.37975,691.22145 8.42618,2.02588 15.56841,-2.6e-4 8.42618,-2.02562 0.0734,14.3067 H 521.3066 Z"
     id="path25243" /><path
     style="fill:#e7e7e7;fill-opacity:1;stroke:none;stroke-width:1.3839px;stroke-linecap:butt;stroke-linejoin:miter;stroke-opacity:1"
     d="m 533.68516,176.31377 0.6682,-33.31268 14.4156,0.0371 v 33.24986 z"
     id="path28051" /><path
     style="fill:#bfbebf;fill-opacity:1;stroke:none;stroke-width:1.3839px;stroke-linecap:butt;stroke-linejoin:miter;stroke-opacity:1"
     d="m 548.76896,143.03821 c 4.37091,8.03629 8.38528,16.77783 8.49148,33.24992 l 0.31268,460.13545 c 3.48231,9.46794 4.8644,10.51994 7.40425,14.34259 v 4.45655 c -6.84332,4.22587 -13.95141,-2.3586 -19.23841,-7.1831 l 3.03002,-471.75155 z"
     id="path29640"
     sodipodi:nodetypes="cccccccc" /><path
     style="fill:#dddddd;fill-opacity:1;stroke:none;stroke-width:1.3839px;stroke-linecap:butt;stroke-linejoin:miter;stroke-opacity:1"
     d="m 534.35336,143.00109 c -4.37091,8.03628 -9.78499,16.81495 -9.89117,33.28704 l -6.855,460.13545 c -3.48231,9.46794 -4.8644,10.51994 -7.40425,14.34259 v 4.45655 c 7.85769,3.98678 14.05249,-3.24841 19.94783,-7.92813 l 3.53439,-470.98083 z"
     id="path31160"
     sodipodi:nodetypes="cccccccc" /><path
     style="fill:#d1d1d1;fill-opacity:1;stroke:none;stroke-width:1.3839px;stroke-linecap:butt;stroke-linejoin:miter;stroke-opacity:1"
     d="m 740.92607,693.24733 -15.56841,-2.6e-4 -3.39464,-516.95894 15.0838,0.0256 z"
     id="path33820"
     sodipodi:nodetypes="ccccc" /><path
     style="fill:#e7e7e7;fill-opacity:1;stroke:none;stroke-width:1.3839px;stroke-linecap:butt;stroke-linejoin:miter;stroke-opacity:1"
     d="m 737.04681,176.31377 -0.66819,-33.31268 -14.41557,0.0371 v 33.24986 z"
     id="path33828" /><path
     style="fill:#d7d7d7;fill-opacity:1;stroke:none;stroke-width:1.3839px;stroke-linecap:butt;stroke-linejoin:miter;stroke-opacity:1"
     d="m 721.96305,143.03821 c -4.37091,8.03629 -8.38531,16.77783 -8.4915,33.24992 l -0.31277,460.13545 c -3.48231,9.46794 -4.86442,10.51994 -7.40425,14.34259 v 4.45655 c 6.84332,4.22587 13.95141,-2.3586 19.2384,-7.1831 L 721.9629,176.28808 Z"
     id="path33830"
     sodipodi:nodetypes="cccccccc" /><path
     style="fill:#b4b4b4;fill-opacity:1;stroke:none;stroke-width:1.3839px;stroke-linecap:butt;stroke-linejoin:miter;stroke-opacity:1"
     d="m 736.37862,143.00109 c 4.37092,8.03628 9.785,16.81495 9.89118,33.28704 l 6.85499,460.13545 c 3.4823,9.46794 4.8644,10.51994 7.40428,14.34259 v 4.45655 c -7.85772,3.98678 -14.0525,-3.24841 -19.94786,-7.92813 l -3.5344,-470.98083 z"
     id="path33832"
     sodipodi:nodetypes="cccccccc" /><path
     style="fill:#dadada;fill-opacity:1;stroke:none;stroke-width:1.3839px;stroke-linecap:butt;stroke-linejoin:miter;stroke-opacity:1"
     d="m 333.08438,693.24733 -18.4341,-522.75977 13.63691,-0.88483 20.22021,523.17092 z"
     id="path33834"
     sodipodi:nodetypes="ccccc" /><path
     style="fill:#b7b7b7;fill-opacity:1;stroke:none;stroke-width:1.3839px;stroke-linecap:butt;stroke-linejoin:miter;stroke-opacity:1"
     d="m 347.03951,647.2584 c 6.24008,8.26041 13.06662,10.61974 20.37224,8.15791 l 1.10694,49.6316 -10.37385,-0.23434 -0.32173,-14.22391 -9.31572,2.18399 z"
     id="path35147"
     sodipodi:nodetypes="ccccccc" /><path
     style="fill:#f0f0f0;fill-opacity:1;stroke:none;stroke-width:1.3839px;stroke-linecap:butt;stroke-linejoin:miter;stroke-opacity:1"
     d="m 331.72264,648.20015 c -5.55798,8.73398 -11.86669,10.13664 -19.34614,8.26827 l 1.62924,50.13498 10.71367,-0.93689 -0.26529,-13.61927 8.63025,1.20009 z"
     id="path35563"
     sodipodi:nodetypes="ccccccc" /><path
     style="fill:#5f5f5f;fill-opacity:1;stroke:none;stroke-width:1.3839px;stroke-linecap:butt;stroke-linejoin:miter;stroke-opacity:1"
     d="m 324.45413,692.04723 8.63025,1.2001 15.42302,-0.47389 9.31572,-2.18399 0.32173,14.22391 -33.42543,0.85294 z"
     id="path36324" /><path
     style="fill:#f1f1f1;fill-opacity:1;stroke:none;stroke-width:1.3839px;stroke-linecap:butt;stroke-linejoin:miter;stroke-opacity:1"
     d="m 312.3765,656.46842 v -5.54406 c 8.74683,-10.18258 7.585,-21.04522 8.00347,-31.79939 L 307.60626,171.13656 c 2.0562,-14.10985 4.18298,-19.07423 6.29546,-25.89477 l 17.82091,502.95836 c -2.95294,4.24663 -6.47966,10.71367 -19.34613,8.26827 z"
     id="path36809"
     sodipodi:nodetypes="ccccccc" /><path
     style="fill:#c5c5c5;fill-opacity:1;stroke:none;stroke-width:1.3839px;stroke-linecap:butt;stroke-linejoin:miter;stroke-opacity:1"
     d="m 328.28719,169.60273 -0.41823,-26.7463 c 9.32923,15.01967 9.05818,26.52745 10.45657,38.64595 l 18.77125,452.2014 9.72175,15.72052 0.59321,5.99201 c -11.32896,3.43124 -17.38571,-4.44028 -20.37223,-8.15791 z"
     id="path36951"
     sodipodi:nodetypes="cccccccc" /><path
     style="fill:#eaeaea;fill-opacity:1;stroke:none;stroke-width:1.3839px;stroke-linecap:butt;stroke-linejoin:miter;stroke-opacity:1"
     d="m 328.28719,169.60273 -0.41823,-26.7463 h -13.21868 l -0.74856,2.38536 0.74856,25.24577 z"
     id="path37436" /><path
     style="fill:#878787;fill-opacity:1;stroke:none;stroke-width:1.3839px;stroke-linecap:butt;stroke-linejoin:miter;stroke-opacity:1"
     d="m 210.9284,941.69002 -1.07405,27.91485 c 13.19876,38.86543 56.81052,36.40223 79.55061,37.53873 h 707.33933 c 59.74901,-1.6938 79.72171,-26.09908 72.57241,-59.08577 0.7614,33.05924 -25.3424,46.48445 -72.32671,49.76014 H 308.27024 c -24.68632,-1.8588 -102.23706,-1.1468 -97.34184,-56.12795 z"
     id="path38357"
     sodipodi:nodetypes="cccccccc" /><ellipse
     style="fill:#00ff00;fill-opacity:1;stroke:none;stroke-width:178.731;stroke-linecap:round;stroke-linejoin:round;stroke-dasharray:714.92, 357.462, 178.731, 357.462"
     id="path39170"
     cx="608.03333"
     cy="913.26477"
     rx="6.5900612"
     ry="4.6442919" /><ellipse
     style="fill:#00ff00;fill-opacity:1;stroke:none;stroke-width:178.731;stroke-linecap:round;stroke-linejoin:round;stroke-dasharray:714.92, 357.462, 178.731, 357.462"
     id="ellipse39172"
     cx="672.1344"
     cy="913.26477"
     rx="6.5900612"
     ry="4.6442919" /><path
     style="fill:none;stroke:#000000;stroke-width:1px;stroke-linecap:butt;stroke-linejoin:miter;stroke-opacity:1"
     d="m 209.85435,969.60487 1.07405,-27.91485 21.89918,-172.65495 c 5.98695,-30.74735 20.51428,-57.46745 81.17816,-62.43167 l -1.62924,-55.67904 c 8.39222,-5.41304 7.68447,-19.07138 8.00347,-31.79939 L 307.60626,171.13656 c 1.25134,-11.79103 4.38722,-19.51915 7.04402,-28.28013 h 13.21868 c 7.27309,10.57863 9.34545,24.32001 10.45657,38.64595 l 18.77125,452.2014 9.72175,15.72052 0.59322,5.99201 1.10694,49.6316 141.68426,0.48025 -10e-6,-54.76199 c 3.6877,-3.99802 5.67639,-9.08659 7.40425,-14.34259 l 6.855,-460.13545 c 0.30484,-12.39996 3.37924,-23.59269 9.89117,-33.28704 l 14.4156,0.0371 c 5.51955,10.2184 8.80667,21.15484 8.49148,33.24992 l 0.31268,460.13545 c 1.91529,5.26232 4.34426,10.07725 7.40425,14.34259 l -2e-5,54.76198 h 140.77729 l -1.1e-4,-54.76198 7.40425,-14.34259 0.31277,-460.13545 c 0.69972,-13.01369 3.07396,-24.51034 8.4915,-33.24994 l 14.41557,-0.0371 c 6.60508,9.99257 9.8874,21.09316 9.89118,33.28704 v 0 l 6.85499,460.13545 c 2.14478,5.76328 4.24656,11.65727 7.40428,14.34259 v 54.76199 l 140.68995,0.6283 1.19457,-50.74015 0.57923,-4.03428 9.68796,-16.06341 18.81903,-453.81624 c 1.92981,-13.69535 3.61523,-27.60897 10.29031,-37.06604 l 14.08323,0.41992 c 2.41453,8.62346 6.07473,18.79756 6.4671,27.71454 l -12.89528,446.55417 c -0.1161,27.14038 4.69664,26.79121 8.22251,33.61927 l -1.86251,54.14138 c 62.83523,4.03088 74.26623,31.87681 83.60633,58.93226 l 29.8334,180.93382 c 10.276,52.02365 -44.5833,60.56112 -72.50061,60.39192 H 289.40496 c -34.06872,0.4649 -65.63895,-3.3639 -79.55061,-37.53873 z"
     id="path29883"
     sodipodi:nodetypes="ccccccccccccccccccccccccccccccccccccccccccccccccccc" /></g></svg>
