<?xml version="1.0" encoding="UTF-8" standalone="no"?>
<!DOCTYPE svg PUBLIC "-//W3C//DTD SVG 1.1//EN" "http://www.w3.org/Graphics/SVG/1.1/DTD/svg11.dtd">
<svg width="100%" height="100%" viewBox="0 0 2000 2000" version="1.1" xmlns="http://www.w3.org/2000/svg" xmlns:xlink="http://www.w3.org/1999/xlink" xml:space="preserve" xmlns:serif="http://www.serif.com/" style="fill-rule:evenodd;clip-rule:evenodd;stroke-linecap:round;stroke-linejoin:round;stroke-miterlimit:1.5;">
    <g>
        <g transform="matrix(7.33864e-17,-1.19849,6.10117,3.73589e-16,-10232.7,2636.23)">
            <path d="M673.266,1869C686.899,1865.7 687.452,1822.17 669.972,1817.56C617.059,1803.58 598.814,1799.08 598.814,1842.48C598.814,1886.83 617.746,1882.47 673.266,1869Z" style="stroke:black;stroke-width:0.47px;"/>
        </g>
        <g transform="matrix(0.98791,0,0,1.008,15.8238,-1.35407)">
            <rect x="691.699" y="102.641" width="617.154" height="66.618" style="fill:rgb(169,169,169);"/>
            <clipPath id="_clip1">
                <rect x="691.699" y="102.641" width="617.154" height="66.618"/>
            </clipPath>
            <g clip-path="url(#_clip1)">
                <g transform="matrix(1.01224,0,0,0.992063,-19.7937,2.92948)">
                    <path d="M776.438,65.334L776.4,182.05" style="fill:none;stroke:black;stroke-width:4.25px;"/>
                </g>
                <g transform="matrix(1.01224,0,0,0.992063,-51.083,10.8603)">
                    <path d="M776.438,65.334L776.4,182.05" style="fill:none;stroke:black;stroke-width:4.25px;"/>
                </g>
                <g transform="matrix(1.01224,0,0,0.992063,-71.0434,10.3315)">
                    <path d="M776.438,65.334L776.4,182.05" style="fill:none;stroke:black;stroke-width:4.25px;"/>
                </g>
                <g transform="matrix(1.01224,0,0,0.992063,28.7586,9.80282)">
                    <path d="M776.438,65.334L776.4,182.05" style="fill:none;stroke:black;stroke-width:4.25px;"/>
                </g>
                <g transform="matrix(1.01224,0,0,0.992063,92.9555,5.57307)">
                    <path d="M776.438,65.334L776.4,182.05" style="fill:none;stroke:black;stroke-width:4.25px;"/>
                </g>
                <g transform="matrix(1.01224,0,0,0.992063,162.547,6.10179)">
                    <path d="M776.438,65.334L776.4,182.05" style="fill:none;stroke:black;stroke-width:4.25px;"/>
                </g>
                <g transform="matrix(1.01224,0,0,0.992063,231.06,-0.771547)">
                    <path d="M776.438,65.334L776.4,182.05" style="fill:none;stroke:black;stroke-width:4.25px;"/>
                </g>
                <g transform="matrix(1.01224,0,0,0.992063,301.73,0.285889)">
                    <path d="M776.438,65.334L776.4,182.05" style="fill:none;stroke:black;stroke-width:4.25px;"/>
                </g>
                <g transform="matrix(1.01224,0,0,0.992063,368.625,-1.30026)">
                    <path d="M776.438,65.334L776.4,182.05" style="fill:none;stroke:black;stroke-width:4.25px;"/>
                </g>
                <g transform="matrix(1.01224,0,0,0.992063,429.585,-1.30026)">
                    <path d="M776.438,65.334L776.4,182.05" style="fill:none;stroke:black;stroke-width:4.25px;"/>
                </g>
                <g transform="matrix(1.01224,0,0,0.992063,475.44,3.98692)">
                    <path d="M776.438,65.334L776.4,182.05" style="fill:none;stroke:black;stroke-width:4.25px;"/>
                </g>
                <g transform="matrix(1.01224,0,0,0.992063,502.953,7.68794)">
                    <path d="M776.438,65.334L776.4,182.05" style="fill:none;stroke:black;stroke-width:4.25px;"/>
                </g>
            </g>
            <rect x="691.699" y="102.641" width="617.154" height="66.618" style="fill:none;stroke:black;stroke-width:4.26px;"/>
        </g>
        <g transform="matrix(0.978191,0,0,1.48276,29.0151,-58.9602)">
            <path d="M1330.39,105.755C1330.39,103.622 1327.77,101.891 1324.54,101.891C1324.54,101.891 1109.48,97.4 1001.94,97.845C893.074,98.294 671.35,104.589 671.35,104.589C668.117,104.589 665.493,106.32 665.493,108.453L665.493,116.18C665.493,118.313 668.117,120.044 671.35,120.044C671.35,120.044 892.499,113.75 1001.36,113.3C1109.1,112.855 1324.54,117.347 1324.54,117.347C1327.77,117.347 1330.39,115.615 1330.39,113.483L1330.39,105.755Z" style="fill:rgb(235,235,235);stroke:black;stroke-width:1.66px;"/>
        </g>
        <g transform="matrix(0.0846667,0,0,0.0846667,0,0)">
            <path d="M8052.47,1739.29L7746.9,20239.2C7746.9,20239.2 7873.12,20839.9 7940.74,21036.6C7988.16,21174.5 8060.55,21306.3 8152.62,21419.4C8291.24,21589.8 8557.34,21913.2 8772.49,22058.7C8968.69,22191.3 9213.7,22235 9443.51,22292.3C9736.42,22365.4 10162.8,22464.4 10529.9,22496.9C10945.8,22533.8 11473.4,22514.2 11939.3,22513.6C12401.2,22513.1 12904.9,22528.3 13324.9,22493.5C13707,22461.8 14173,22371 14459.6,22304.6C14661.2,22257.9 14873.4,22189 15044.2,22095.2C15209.1,22004.5 15361.7,21870.5 15484.4,21741.5C15602.4,21617.2 15718.6,21480.8 15780.1,21320.8C15861.3,21109.4 15971.8,20472.8 15971.8,20472.8L15689,1624.37C15689,1624.37 13851,1614.78 12996.6,1613.37C12185.1,1612.03 11373.5,1595.24 10562.3,1615.9C9738.28,1636.89 8052.47,1739.29 8052.47,1739.29Z" style="fill:rgb(235,235,235);"/>
            <clipPath id="_clip2">
                <path d="M8052.47,1739.29L7746.9,20239.2C7746.9,20239.2 7873.12,20839.9 7940.74,21036.6C7988.16,21174.5 8060.55,21306.3 8152.62,21419.4C8291.24,21589.8 8557.34,21913.2 8772.49,22058.7C8968.69,22191.3 9213.7,22235 9443.51,22292.3C9736.42,22365.4 10162.8,22464.4 10529.9,22496.9C10945.8,22533.8 11473.4,22514.2 11939.3,22513.6C12401.2,22513.1 12904.9,22528.3 13324.9,22493.5C13707,22461.8 14173,22371 14459.6,22304.6C14661.2,22257.9 14873.4,22189 15044.2,22095.2C15209.1,22004.5 15361.7,21870.5 15484.4,21741.5C15602.4,21617.2 15718.6,21480.8 15780.1,21320.8C15861.3,21109.4 15971.8,20472.8 15971.8,20472.8L15689,1624.37C15689,1624.37 13851,1614.78 12996.6,1613.37C12185.1,1612.03 11373.5,1595.24 10562.3,1615.9C9738.28,1636.89 8052.47,1739.29 8052.47,1739.29Z"/>
            </clipPath>
            <g clip-path="url(#_clip2)">
                <g transform="matrix(2.57482e-17,-0.420499,2.22369,1.36162e-16,-35731.2,26095.7)">
                    <path d="M12790,19445.5C9341.31,19445.5 6541.43,20309.3 6541.43,21373.2C6541.43,22437.2 9341.31,23301 12790,23301C11755.4,22851.2 10915.4,22142.2 10915.4,21373.2C10915.4,20604.2 11755.4,19895.3 12790,19445.5Z" style="fill:rgb(235,235,235);stroke:black;stroke-width:15.13px;"/>
                </g>
                <g transform="matrix(0.532826,0,0,0.645282,5558.97,1830.34)">
                    <ellipse cx="12229.2" cy="5135.58" rx="245.885" ry="202.855" style="fill:white;stroke:black;stroke-width:40.92px;"/>
                </g>
                <g transform="matrix(0.532826,0,0,0.645282,5558.97,3610.97)">
                    <ellipse cx="12229.2" cy="5135.58" rx="245.885" ry="202.855" style="fill:white;stroke:black;stroke-width:40.92px;"/>
                </g>
                <g transform="matrix(0.532826,0,0,0.645282,5558.97,5363.41)">
                    <ellipse cx="12229.2" cy="5135.58" rx="245.885" ry="202.855" style="fill:white;stroke:black;stroke-width:40.92px;"/>
                </g>
                <g transform="matrix(5.90357,0,0,5.90357,5666.65,4574.16)">
                    <g transform="matrix(50,0,0,50,989.448,768.327)">
                        <path d="M0.077,-0L0.077,-0.716L0.347,-0.716C0.395,-0.716 0.431,-0.714 0.456,-0.709C0.491,-0.703 0.521,-0.692 0.544,-0.676C0.568,-0.659 0.587,-0.636 0.602,-0.606C0.616,-0.577 0.624,-0.544 0.624,-0.509C0.624,-0.448 0.604,-0.396 0.565,-0.354C0.527,-0.312 0.457,-0.291 0.355,-0.291L0.172,-0.291L0.172,-0L0.077,-0ZM0.172,-0.375L0.357,-0.375C0.418,-0.375 0.462,-0.387 0.487,-0.41C0.513,-0.432 0.526,-0.465 0.526,-0.506C0.526,-0.536 0.518,-0.561 0.503,-0.583C0.488,-0.604 0.468,-0.618 0.443,-0.625C0.427,-0.629 0.398,-0.631 0.355,-0.631L0.172,-0.631L0.172,-0.375Z" style="fill:rgb(61,61,61);fill-rule:nonzero;"/>
                    </g>
                    <g transform="matrix(50,0,0,50,1022.8,768.327)">
                        <path d="M0.048,-0.349C0.048,-0.467 0.08,-0.56 0.144,-0.628C0.208,-0.695 0.29,-0.729 0.391,-0.729C0.457,-0.729 0.517,-0.713 0.57,-0.681C0.623,-0.65 0.663,-0.606 0.691,-0.549C0.719,-0.493 0.733,-0.429 0.733,-0.357C0.733,-0.284 0.718,-0.219 0.689,-0.162C0.66,-0.105 0.618,-0.061 0.564,-0.032C0.511,-0.003 0.453,0.012 0.391,0.012C0.323,0.012 0.263,-0.004 0.21,-0.037C0.157,-0.069 0.117,-0.114 0.089,-0.17C0.062,-0.226 0.048,-0.286 0.048,-0.349ZM0.146,-0.347C0.146,-0.261 0.169,-0.193 0.216,-0.143C0.262,-0.094 0.32,-0.069 0.39,-0.069C0.461,-0.069 0.52,-0.094 0.566,-0.144C0.612,-0.194 0.635,-0.265 0.635,-0.357C0.635,-0.416 0.625,-0.467 0.606,-0.51C0.586,-0.553 0.557,-0.587 0.519,-0.611C0.481,-0.635 0.439,-0.647 0.392,-0.647C0.325,-0.647 0.267,-0.624 0.219,-0.578C0.17,-0.532 0.146,-0.455 0.146,-0.347Z" style="fill:rgb(61,61,61);fill-rule:nonzero;"/>
                    </g>
                    <g transform="matrix(50,0,0,50,1061.69,768.327)">
                        <path d="M0.202,-0L0.012,-0.716L0.109,-0.716L0.218,-0.247C0.23,-0.197 0.24,-0.149 0.249,-0.1C0.267,-0.177 0.278,-0.221 0.281,-0.232L0.417,-0.716L0.531,-0.716L0.634,-0.354C0.66,-0.264 0.678,-0.179 0.689,-0.1C0.699,-0.145 0.71,-0.197 0.725,-0.256L0.837,-0.716L0.933,-0.716L0.736,-0L0.645,-0L0.494,-0.545C0.481,-0.591 0.474,-0.619 0.472,-0.629C0.464,-0.597 0.457,-0.569 0.451,-0.545L0.299,-0L0.202,-0Z" style="fill:rgb(61,61,61);fill-rule:nonzero;"/>
                    </g>
                    <g transform="matrix(50,0,0,50,1108.88,768.327)">
                        <path d="M0.079,-0L0.079,-0.716L0.597,-0.716L0.597,-0.631L0.174,-0.631L0.174,-0.412L0.57,-0.412L0.57,-0.328L0.174,-0.328L0.174,-0.084L0.613,-0.084L0.613,-0L0.079,-0Z" style="fill:rgb(61,61,61);fill-rule:nonzero;"/>
                    </g>
                    <g transform="matrix(50,0,0,50,1142.23,768.327)">
                        <path d="M0.079,-0L0.079,-0.716L0.396,-0.716C0.46,-0.716 0.508,-0.709 0.542,-0.697C0.575,-0.684 0.601,-0.661 0.621,-0.628C0.641,-0.596 0.651,-0.56 0.651,-0.521C0.651,-0.47 0.634,-0.427 0.602,-0.392C0.569,-0.357 0.518,-0.335 0.449,-0.326C0.474,-0.314 0.493,-0.302 0.506,-0.29C0.534,-0.265 0.56,-0.233 0.585,-0.195L0.709,-0L0.59,-0L0.496,-0.149C0.468,-0.192 0.445,-0.225 0.427,-0.248C0.409,-0.27 0.393,-0.286 0.379,-0.295C0.365,-0.305 0.351,-0.311 0.336,-0.314C0.325,-0.317 0.308,-0.318 0.283,-0.318L0.173,-0.318L0.173,-0L0.079,-0ZM0.173,-0.4L0.377,-0.4C0.42,-0.4 0.454,-0.404 0.479,-0.413C0.503,-0.422 0.521,-0.437 0.534,-0.456C0.547,-0.476 0.553,-0.497 0.553,-0.521C0.553,-0.554 0.541,-0.582 0.516,-0.604C0.492,-0.626 0.453,-0.637 0.4,-0.637L0.173,-0.637L0.173,-0.4Z" style="fill:rgb(61,61,61);fill-rule:nonzero;"/>
                    </g>
                </g>
                <g transform="matrix(5.90357,0,0,5.90357,5933.72,2826.76)">
                    <g transform="matrix(50,0,0,50,989.448,768.327)">
                        <path d="M0.202,-0L0.012,-0.716L0.109,-0.716L0.218,-0.247C0.23,-0.197 0.24,-0.149 0.249,-0.1C0.267,-0.177 0.278,-0.221 0.281,-0.232L0.417,-0.716L0.531,-0.716L0.634,-0.354C0.66,-0.264 0.678,-0.179 0.689,-0.1C0.699,-0.145 0.71,-0.197 0.725,-0.256L0.837,-0.716L0.933,-0.716L0.736,-0L0.645,-0L0.494,-0.545C0.481,-0.591 0.474,-0.619 0.472,-0.629C0.464,-0.597 0.457,-0.569 0.451,-0.545L0.299,-0L0.202,-0Z" style="fill:rgb(61,61,61);fill-rule:nonzero;"/>
                    </g>
                    <g transform="matrix(50,0,0,50,1036.64,768.327)">
                        <rect x="0.093" y="-0.716" width="0.095" height="0.716" style="fill:rgb(61,61,61);fill-rule:nonzero;"/>
                    </g>
                    <g transform="matrix(50,0,0,50,1050.53,768.327)">
                        <path d="M0.082,-0L0.082,-0.716L0.565,-0.716L0.565,-0.631L0.177,-0.631L0.177,-0.41L0.513,-0.41L0.513,-0.325L0.177,-0.325L0.177,-0L0.082,-0Z" style="fill:rgb(61,61,61);fill-rule:nonzero;"/>
                    </g>
                    <g transform="matrix(50,0,0,50,1081.07,768.327)">
                        <rect x="0.093" y="-0.716" width="0.095" height="0.716" style="fill:rgb(61,61,61);fill-rule:nonzero;"/>
                    </g>
                </g>
                <g transform="matrix(5.90357,0,0,5.90357,5468.47,1071.03)">
                    <g transform="matrix(50,0,0,50,989.448,768.327)">
                        <path d="M0.076,-0L0.076,-0.716L0.173,-0.716L0.549,-0.154L0.549,-0.716L0.64,-0.716L0.64,-0L0.543,-0L0.167,-0.563L0.167,-0L0.076,-0Z" style="fill:rgb(61,61,61);fill-rule:nonzero;"/>
                    </g>
                    <g transform="matrix(50,0,0,50,1025.56,768.327)">
                        <path d="M0.079,-0L0.079,-0.716L0.597,-0.716L0.597,-0.631L0.174,-0.631L0.174,-0.412L0.57,-0.412L0.57,-0.328L0.174,-0.328L0.174,-0.084L0.613,-0.084L0.613,-0L0.079,-0Z" style="fill:rgb(61,61,61);fill-rule:nonzero;"/>
                    </g>
                    <g transform="matrix(50,0,0,50,1058.91,768.327)">
                        <path d="M0.259,-0L0.259,-0.631L0.023,-0.631L0.023,-0.716L0.591,-0.716L0.591,-0.631L0.354,-0.631L0.354,-0L0.259,-0Z" style="fill:rgb(61,61,61);fill-rule:nonzero;"/>
                    </g>
                    <g transform="matrix(50,0,0,50,1089.45,768.327)">
                        <path d="M0.202,-0L0.012,-0.716L0.109,-0.716L0.218,-0.247C0.23,-0.197 0.24,-0.149 0.249,-0.1C0.267,-0.177 0.278,-0.221 0.281,-0.232L0.417,-0.716L0.531,-0.716L0.634,-0.354C0.66,-0.264 0.678,-0.179 0.689,-0.1C0.699,-0.145 0.71,-0.197 0.725,-0.256L0.837,-0.716L0.933,-0.716L0.736,-0L0.645,-0L0.494,-0.545C0.481,-0.591 0.474,-0.619 0.472,-0.629C0.464,-0.597 0.457,-0.569 0.451,-0.545L0.299,-0L0.202,-0Z" style="fill:rgb(61,61,61);fill-rule:nonzero;"/>
                    </g>
                    <g transform="matrix(50,0,0,50,1136.64,768.327)">
                        <path d="M0.048,-0.349C0.048,-0.467 0.08,-0.56 0.144,-0.628C0.208,-0.695 0.29,-0.729 0.391,-0.729C0.457,-0.729 0.517,-0.713 0.57,-0.681C0.623,-0.65 0.663,-0.606 0.691,-0.549C0.719,-0.493 0.733,-0.429 0.733,-0.357C0.733,-0.284 0.718,-0.219 0.689,-0.162C0.66,-0.105 0.618,-0.061 0.564,-0.032C0.511,-0.003 0.453,0.012 0.391,0.012C0.323,0.012 0.263,-0.004 0.21,-0.037C0.157,-0.069 0.117,-0.114 0.089,-0.17C0.062,-0.226 0.048,-0.286 0.048,-0.349ZM0.146,-0.347C0.146,-0.261 0.169,-0.193 0.216,-0.143C0.262,-0.094 0.32,-0.069 0.39,-0.069C0.461,-0.069 0.52,-0.094 0.566,-0.144C0.612,-0.194 0.635,-0.265 0.635,-0.357C0.635,-0.416 0.625,-0.467 0.606,-0.51C0.586,-0.553 0.557,-0.587 0.519,-0.611C0.481,-0.635 0.439,-0.647 0.392,-0.647C0.325,-0.647 0.267,-0.624 0.219,-0.578C0.17,-0.532 0.146,-0.455 0.146,-0.347Z" style="fill:rgb(61,61,61);fill-rule:nonzero;"/>
                    </g>
                    <g transform="matrix(50,0,0,50,1175.53,768.327)">
                        <path d="M0.079,-0L0.079,-0.716L0.396,-0.716C0.46,-0.716 0.508,-0.709 0.542,-0.697C0.575,-0.684 0.601,-0.661 0.621,-0.628C0.641,-0.596 0.651,-0.56 0.651,-0.521C0.651,-0.47 0.634,-0.427 0.602,-0.392C0.569,-0.357 0.518,-0.335 0.449,-0.326C0.474,-0.314 0.493,-0.302 0.506,-0.29C0.534,-0.265 0.56,-0.233 0.585,-0.195L0.709,-0L0.59,-0L0.496,-0.149C0.468,-0.192 0.445,-0.225 0.427,-0.248C0.409,-0.27 0.393,-0.286 0.379,-0.295C0.365,-0.305 0.351,-0.311 0.336,-0.314C0.325,-0.317 0.308,-0.318 0.283,-0.318L0.173,-0.318L0.173,-0L0.079,-0ZM0.173,-0.4L0.377,-0.4C0.42,-0.4 0.454,-0.404 0.479,-0.413C0.503,-0.422 0.521,-0.437 0.534,-0.456C0.547,-0.476 0.553,-0.497 0.553,-0.521C0.553,-0.554 0.541,-0.582 0.516,-0.604C0.492,-0.626 0.453,-0.637 0.4,-0.637L0.173,-0.637L0.173,-0.4Z" style="fill:rgb(61,61,61);fill-rule:nonzero;"/>
                    </g>
                    <g transform="matrix(50,0,0,50,1211.64,768.327)">
                        <path d="M0.073,-0L0.073,-0.716L0.168,-0.716L0.168,-0.361L0.523,-0.716L0.652,-0.716L0.352,-0.426L0.665,-0L0.54,-0L0.285,-0.362L0.168,-0.248L0.168,-0L0.073,-0Z" style="fill:rgb(61,61,61);fill-rule:nonzero;"/>
                    </g>
                </g>
            </g>
            <path d="M8052.47,1739.29L7746.9,20239.2C7746.9,20239.2 7873.12,20839.9 7940.74,21036.6C7988.16,21174.5 8060.55,21306.3 8152.62,21419.4C8291.24,21589.8 8557.34,21913.2 8772.49,22058.7C8968.69,22191.3 9213.7,22235 9443.51,22292.3C9736.42,22365.4 10162.8,22464.4 10529.9,22496.9C10945.8,22533.8 11473.4,22514.2 11939.3,22513.6C12401.2,22513.1 12904.9,22528.3 13324.9,22493.5C13707,22461.8 14173,22371 14459.6,22304.6C14661.2,22257.9 14873.4,22189 15044.2,22095.2C15209.1,22004.5 15361.7,21870.5 15484.4,21741.5C15602.4,21617.2 15718.6,21480.8 15780.1,21320.8C15861.3,21109.4 15971.8,20472.8 15971.8,20472.8L15689,1624.37C15689,1624.37 13851,1614.78 12996.6,1613.37C12185.1,1612.03 11373.5,1595.24 10562.3,1615.9C9738.28,1636.89 8052.47,1739.29 8052.47,1739.29Z" style="fill:none;stroke:black;stroke-width:24.22px;"/>
        </g>
    </g>
</svg>
