<?xml version="1.0" encoding="UTF-8" standalone="no"?>
<!DOCTYPE svg PUBLIC "-//W3C//DTD SVG 1.1//EN" "http://www.w3.org/Graphics/SVG/1.1/DTD/svg11.dtd">
<svg width="100%" height="100%" viewBox="0 0 2000 2000" version="1.1" xmlns="http://www.w3.org/2000/svg" xmlns:xlink="http://www.w3.org/1999/xlink" xml:space="preserve" xmlns:serif="http://www.serif.com/" style="fill-rule:evenodd;clip-rule:evenodd;stroke-linecap:round;stroke-linejoin:round;stroke-miterlimit:1.5;">
    <g transform="matrix(1,0,0,1,-68.3852,-11.87)">
        <g transform="matrix(0.978749,0,0,0.909091,45.6055,166.982)">
            <path d="M1597.05,1827.64C1597.05,1782.1 1562.71,1745.14 1520.42,1745.14L575.687,1745.14C533.394,1745.14 492.928,1783.2 492.928,1828.74C492.928,1857.43 512.692,1869.52 533.359,1884.3C545.49,1892.98 580.478,1900.24 596.121,1900.24L1067.42,1905.39L1492.83,1902.44C1510.09,1902.44 1559.74,1888.58 1572.55,1878.2C1591.14,1863.14 1597.05,1854.59 1597.05,1827.64Z" style="fill:rgb(177,187,197);stroke:black;stroke-width:8.2px;"/>
        </g>
        <path d="M626.046,147.144L706.246,236.884L1409.95,241.057L1491.55,146.337L626.046,147.144Z" style="fill:white;"/>
        <clipPath id="_clip1">
            <path d="M626.046,147.144L706.246,236.884L1409.95,241.057L1491.55,146.337L626.046,147.144Z"/>
        </clipPath>
        <g clip-path="url(#_clip1)">
            <path d="M968.44,142.522L971.937,221.633" style="fill:none;stroke:black;stroke-width:7.75px;"/>
            <path d="M1016.74,138.359L1016.74,222.465" style="fill:none;stroke:black;stroke-width:7.75px;"/>
            <path d="M1069.2,139.191L1069.2,214.137" style="fill:none;stroke:black;stroke-width:7.75px;"/>
            <path d="M1115.83,137.526L1121.66,224.13" style="fill:none;stroke:black;stroke-width:7.75px;"/>
            <path d="M1159.13,133.362L1163.3,199.148" style="fill:none;stroke:black;stroke-width:7.75px;"/>
            <path d="M1209.1,135.86L1207.26,221.632" style="fill:none;stroke:black;stroke-width:7.75px;"/>
            <path d="M1264.06,129.199L1252.57,206.643" style="fill:none;stroke:black;stroke-width:7.75px;"/>
            <path d="M1317.35,140.024L1287.38,223.297" style="fill:none;stroke:black;stroke-width:7.75px;"/>
            <path d="M1361.32,136.692L1327.18,211.639" style="fill:none;stroke:black;stroke-width:7.75px;"/>
            <path d="M1408.12,139.188L1349.81,244.15" style="fill:none;stroke:black;stroke-width:7.75px;"/>
            <path d="M1446.43,141.69L1388.96,229.126" style="fill:none;stroke:black;stroke-width:7.75px;"/>
            <path d="M918.739,139.464L918.739,218.824" style="fill:none;stroke:black;stroke-width:7.75px;"/>
            <path d="M861.566,141.597L874.139,220.937" style="fill:none;stroke:black;stroke-width:7.75px;"/>
            <path d="M808.232,139.037L838.926,233.331" style="fill:none;stroke:black;stroke-width:7.75px;"/>
            <path d="M763.859,140.317L799.699,222.664" style="fill:none;stroke:black;stroke-width:7.75px;"/>
            <path d="M714.999,139.811L763.172,215.331" style="fill:none;stroke:black;stroke-width:7.75px;"/>
            <path d="M672.552,135.624L730.579,232.477" style="fill:none;stroke:black;stroke-width:7.75px;"/>
        </g>
        <path d="M626.046,147.144L706.246,236.884L1409.95,241.057L1491.55,146.337L626.046,147.144Z" style="fill:none;stroke:black;stroke-width:7.75px;"/>
        <g transform="matrix(1.01198,0,0,0.979305,-10.5917,-7.87958)">
            <path d="M1590.98,235.955C1590.98,217.998 1576.87,203.418 1559.49,203.418L572.91,203.418C555.532,203.418 541.423,217.998 541.423,235.955L541.423,1799.85C541.423,1801.9 540.941,1832.6 561.446,1838.08C574.421,1841.54 619.787,1860.59 678.264,1865.63C725.546,1869.71 781.399,1871.51 835.631,1873.47C952.399,1877.68 1061.65,1878.89 1061.65,1878.89C1061.65,1878.89 1308.79,1879.42 1391.76,1873.2C1448.5,1868.95 1526.29,1853.8 1559.49,1841.58C1575.84,1835.56 1590.98,1817.81 1590.98,1799.85L1590.98,235.955Z" style="fill:rgb(235,235,235);stroke:black;stroke-width:7.78px;"/>
        </g>
        <g transform="matrix(1.02477,0,0,0.085479,-26.1866,111.711)">
            <path d="M1585.98,255.74C1585.98,197.716 1582.05,150.608 1577.2,150.608L559.034,150.608C554.194,150.608 550.264,197.716 550.264,255.74L550.264,559.595L1585.98,559.595L1585.98,255.74Z" style="fill:rgb(235,235,235);stroke:black;stroke-width:10.66px;"/>
        </g>
        <g transform="matrix(1,0,0,1,18.5453,0)">
            <g transform="matrix(1.33733,0,0,1.33733,28.7449,-859.246)">
                <g transform="matrix(1.15563,0,0,1.34446,-132.421,-556.418)">
                    <ellipse cx="775.587" cy="1607.87" rx="15.997" ry="13.761" style="fill:none;stroke:rgb(136,136,136);stroke-width:3.58px;"/>
                </g>
                <g transform="matrix(0.807409,0,0,0.807409,107.43,314.229)">
                    <path d="M813.379,1567.44L813.518,1590.5" style="fill:none;stroke:rgb(136,136,136);stroke-width:5.56px;"/>
                </g>
                <g transform="matrix(0.752299,0,0,0.76748,-32.5098,610.406)">
                    <ellipse cx="1058.6" cy="1296.3" rx="49.698" ry="48.715" style="fill:none;stroke:rgb(136,136,136);stroke-width:3.05px;"/>
                </g>
            </g>
            <g transform="matrix(1.05059,0,0,1.05059,-60.7993,-64.522)">
                <g transform="matrix(26.6667,0,0,26.6667,1008.13,1463.31)">
                    <path d="M0.045,-0.23L0.134,-0.238C0.139,-0.202 0.148,-0.173 0.164,-0.15C0.179,-0.127 0.203,-0.108 0.236,-0.094C0.268,-0.08 0.305,-0.073 0.346,-0.073C0.382,-0.073 0.414,-0.078 0.441,-0.089C0.469,-0.1 0.49,-0.114 0.503,-0.133C0.517,-0.152 0.523,-0.172 0.523,-0.194C0.523,-0.217 0.517,-0.236 0.504,-0.253C0.491,-0.27 0.469,-0.284 0.439,-0.295C0.42,-0.303 0.378,-0.315 0.312,-0.33C0.246,-0.346 0.2,-0.361 0.174,-0.375C0.14,-0.393 0.114,-0.415 0.097,-0.442C0.081,-0.468 0.072,-0.498 0.072,-0.531C0.072,-0.567 0.083,-0.601 0.103,-0.632C0.124,-0.663 0.153,-0.687 0.193,-0.704C0.232,-0.72 0.276,-0.728 0.324,-0.728C0.377,-0.728 0.424,-0.719 0.465,-0.702C0.505,-0.685 0.536,-0.66 0.558,-0.627C0.58,-0.594 0.592,-0.556 0.593,-0.514L0.502,-0.507C0.498,-0.553 0.481,-0.587 0.453,-0.61C0.425,-0.633 0.383,-0.645 0.328,-0.645C0.271,-0.645 0.229,-0.634 0.203,-0.613C0.177,-0.592 0.164,-0.567 0.164,-0.537C0.164,-0.511 0.173,-0.49 0.191,-0.474C0.21,-0.457 0.257,-0.44 0.334,-0.423C0.411,-0.405 0.464,-0.39 0.493,-0.377C0.534,-0.358 0.565,-0.333 0.585,-0.304C0.605,-0.274 0.615,-0.241 0.615,-0.202C0.615,-0.164 0.604,-0.128 0.582,-0.094C0.56,-0.061 0.529,-0.035 0.488,-0.016C0.447,0.003 0.401,0.012 0.35,0.012C0.285,0.012 0.231,0.003 0.187,-0.016C0.143,-0.035 0.109,-0.063 0.084,-0.101C0.059,-0.139 0.046,-0.182 0.045,-0.23Z" style="fill-rule:nonzero;"/>
                </g>
                <g transform="matrix(26.6667,0,0,26.6667,1025.92,1463.31)">
                    <rect x="0.093" y="-0.716" width="0.095" height="0.716" style="fill-rule:nonzero;"/>
                </g>
                <g transform="matrix(26.6667,0,0,26.6667,1033.33,1463.31)">
                    <path d="M0.412,-0.281L0.412,-0.365L0.715,-0.365L0.715,-0.1C0.669,-0.063 0.621,-0.035 0.571,-0.016C0.522,0.003 0.471,0.012 0.419,0.012C0.349,0.012 0.285,-0.003 0.227,-0.033C0.17,-0.063 0.126,-0.107 0.097,-0.164C0.068,-0.221 0.053,-0.284 0.053,-0.354C0.053,-0.424 0.068,-0.489 0.097,-0.55C0.126,-0.61 0.168,-0.655 0.223,-0.684C0.277,-0.713 0.34,-0.728 0.412,-0.728C0.463,-0.728 0.51,-0.72 0.552,-0.703C0.594,-0.686 0.627,-0.663 0.65,-0.633C0.674,-0.603 0.692,-0.564 0.705,-0.516L0.619,-0.492C0.608,-0.529 0.595,-0.557 0.579,-0.578C0.563,-0.599 0.54,-0.616 0.511,-0.628C0.481,-0.641 0.448,-0.647 0.412,-0.647C0.369,-0.647 0.331,-0.64 0.3,-0.627C0.268,-0.614 0.243,-0.597 0.223,-0.575C0.204,-0.554 0.189,-0.53 0.178,-0.504C0.16,-0.46 0.151,-0.412 0.151,-0.36C0.151,-0.297 0.162,-0.243 0.184,-0.2C0.206,-0.157 0.238,-0.125 0.28,-0.104C0.322,-0.084 0.366,-0.073 0.414,-0.073C0.455,-0.073 0.495,-0.081 0.534,-0.097C0.573,-0.113 0.602,-0.13 0.623,-0.147L0.623,-0.281L0.412,-0.281Z" style="fill-rule:nonzero;"/>
                </g>
                <g transform="matrix(26.6667,0,0,26.6667,1054.07,1463.31)">
                    <path d="M0.076,-0L0.076,-0.716L0.173,-0.716L0.549,-0.154L0.549,-0.716L0.64,-0.716L0.64,-0L0.543,-0L0.167,-0.563L0.167,-0L0.076,-0Z" style="fill-rule:nonzero;"/>
                </g>
                <g transform="matrix(26.6667,0,0,26.6667,1073.33,1463.31)">
                    <path d="M-0.001,-0L0.273,-0.716L0.375,-0.716L0.668,-0L0.561,-0L0.477,-0.217L0.178,-0.217L0.099,-0L-0.001,-0ZM0.205,-0.294L0.448,-0.294L0.373,-0.492C0.35,-0.552 0.333,-0.602 0.322,-0.641C0.313,-0.595 0.3,-0.549 0.284,-0.504L0.205,-0.294Z" style="fill-rule:nonzero;"/>
                </g>
                <g transform="matrix(26.6667,0,0,26.6667,1091.11,1463.31)">
                    <path d="M0.073,-0L0.073,-0.716L0.168,-0.716L0.168,-0.084L0.521,-0.084L0.521,-0L0.073,-0Z" style="fill-rule:nonzero;"/>
                </g>
            </g>
            <g transform="matrix(1,0,0,1.00977,-0.209715,-241.865)">
                <ellipse cx="1050.44" cy="1644.4" rx="9.577" ry="9.507" style="fill:rgb(136,136,136);"/>
            </g>
            <g transform="matrix(1.05059,0,0,1.05059,-37.763,38.7313)">
                <g transform="matrix(26.6667,0,0,26.6667,1008.13,1463.31)">
                    <path d="M0.202,-0L0.012,-0.716L0.109,-0.716L0.218,-0.247C0.23,-0.197 0.24,-0.149 0.249,-0.1C0.267,-0.177 0.278,-0.221 0.281,-0.232L0.417,-0.716L0.531,-0.716L0.634,-0.354C0.66,-0.264 0.678,-0.179 0.689,-0.1C0.699,-0.145 0.71,-0.197 0.725,-0.256L0.837,-0.716L0.933,-0.716L0.736,-0L0.645,-0L0.494,-0.545C0.481,-0.591 0.474,-0.619 0.472,-0.629C0.464,-0.597 0.457,-0.569 0.451,-0.545L0.299,-0L0.202,-0Z" style="fill-rule:nonzero;"/>
                </g>
                <g transform="matrix(26.6667,0,0,26.6667,1033.3,1463.31)">
                    <rect x="0.093" y="-0.716" width="0.095" height="0.716" style="fill-rule:nonzero;"/>
                </g>
                <g transform="matrix(26.6667,0,0,26.6667,1040.71,1463.31)">
                    <path d="M0.082,-0L0.082,-0.716L0.565,-0.716L0.565,-0.631L0.177,-0.631L0.177,-0.41L0.513,-0.41L0.513,-0.325L0.177,-0.325L0.177,-0L0.082,-0Z" style="fill-rule:nonzero;"/>
                </g>
                <g transform="matrix(26.6667,0,0,26.6667,1057,1463.31)">
                    <rect x="0.093" y="-0.716" width="0.095" height="0.716" style="fill-rule:nonzero;"/>
                </g>
            </g>
            <g transform="matrix(1,0,0,1.00977,-0.209715,-129.734)">
                <ellipse cx="1050.44" cy="1644.4" rx="9.577" ry="9.507" style="fill:rgb(136,136,136);"/>
            </g>
            <g transform="matrix(1.05059,0,0,1.05059,-63.1111,155.476)">
                <g transform="matrix(26.6667,0,0,26.6667,1008.13,1463.31)">
                    <path d="M0.077,-0L0.077,-0.716L0.347,-0.716C0.395,-0.716 0.431,-0.714 0.456,-0.709C0.491,-0.703 0.521,-0.692 0.544,-0.676C0.568,-0.659 0.587,-0.636 0.602,-0.606C0.616,-0.577 0.624,-0.544 0.624,-0.509C0.624,-0.448 0.604,-0.396 0.565,-0.354C0.527,-0.312 0.457,-0.291 0.355,-0.291L0.172,-0.291L0.172,-0L0.077,-0ZM0.172,-0.375L0.357,-0.375C0.418,-0.375 0.462,-0.387 0.487,-0.41C0.513,-0.432 0.526,-0.465 0.526,-0.506C0.526,-0.536 0.518,-0.561 0.503,-0.583C0.488,-0.604 0.468,-0.618 0.443,-0.625C0.427,-0.629 0.398,-0.631 0.355,-0.631L0.172,-0.631L0.172,-0.375Z" style="fill-rule:nonzero;"/>
                </g>
                <g transform="matrix(26.6667,0,0,26.6667,1025.92,1463.31)">
                    <path d="M0.048,-0.349C0.048,-0.467 0.08,-0.56 0.144,-0.628C0.208,-0.695 0.29,-0.729 0.391,-0.729C0.457,-0.729 0.517,-0.713 0.57,-0.681C0.623,-0.65 0.663,-0.606 0.691,-0.549C0.719,-0.493 0.733,-0.429 0.733,-0.357C0.733,-0.284 0.718,-0.219 0.689,-0.162C0.66,-0.105 0.618,-0.061 0.564,-0.032C0.511,-0.003 0.453,0.012 0.391,0.012C0.323,0.012 0.263,-0.004 0.21,-0.037C0.157,-0.069 0.117,-0.114 0.089,-0.17C0.062,-0.226 0.048,-0.286 0.048,-0.349ZM0.146,-0.347C0.146,-0.261 0.169,-0.193 0.216,-0.143C0.262,-0.094 0.32,-0.069 0.39,-0.069C0.461,-0.069 0.52,-0.094 0.566,-0.144C0.612,-0.194 0.635,-0.265 0.635,-0.357C0.635,-0.416 0.625,-0.467 0.606,-0.51C0.586,-0.553 0.557,-0.587 0.519,-0.611C0.481,-0.635 0.439,-0.647 0.392,-0.647C0.325,-0.647 0.267,-0.624 0.219,-0.578C0.17,-0.532 0.146,-0.455 0.146,-0.347Z" style="fill-rule:nonzero;"/>
                </g>
                <g transform="matrix(26.6667,0,0,26.6667,1046.66,1463.31)">
                    <path d="M0.202,-0L0.012,-0.716L0.109,-0.716L0.218,-0.247C0.23,-0.197 0.24,-0.149 0.249,-0.1C0.267,-0.177 0.278,-0.221 0.281,-0.232L0.417,-0.716L0.531,-0.716L0.634,-0.354C0.66,-0.264 0.678,-0.179 0.689,-0.1C0.699,-0.145 0.71,-0.197 0.725,-0.256L0.837,-0.716L0.933,-0.716L0.736,-0L0.645,-0L0.494,-0.545C0.481,-0.591 0.474,-0.619 0.472,-0.629C0.464,-0.597 0.457,-0.569 0.451,-0.545L0.299,-0L0.202,-0Z" style="fill-rule:nonzero;"/>
                </g>
                <g transform="matrix(26.6667,0,0,26.6667,1071.83,1463.31)">
                    <path d="M0.079,-0L0.079,-0.716L0.597,-0.716L0.597,-0.631L0.174,-0.631L0.174,-0.412L0.57,-0.412L0.57,-0.328L0.174,-0.328L0.174,-0.084L0.613,-0.084L0.613,-0L0.079,-0Z" style="fill-rule:nonzero;"/>
                </g>
                <g transform="matrix(26.6667,0,0,26.6667,1089.61,1463.31)">
                    <path d="M0.079,-0L0.079,-0.716L0.396,-0.716C0.46,-0.716 0.508,-0.709 0.542,-0.697C0.575,-0.684 0.601,-0.661 0.621,-0.628C0.641,-0.596 0.651,-0.56 0.651,-0.521C0.651,-0.47 0.634,-0.427 0.602,-0.392C0.569,-0.357 0.518,-0.335 0.449,-0.326C0.474,-0.314 0.493,-0.302 0.506,-0.29C0.534,-0.265 0.56,-0.233 0.585,-0.195L0.709,-0L0.59,-0L0.496,-0.149C0.468,-0.192 0.445,-0.225 0.427,-0.248C0.409,-0.27 0.393,-0.286 0.379,-0.295C0.365,-0.305 0.351,-0.311 0.336,-0.314C0.325,-0.317 0.308,-0.318 0.283,-0.318L0.173,-0.318L0.173,-0L0.079,-0ZM0.173,-0.4L0.377,-0.4C0.42,-0.4 0.454,-0.404 0.479,-0.413C0.503,-0.422 0.521,-0.437 0.534,-0.456C0.547,-0.476 0.553,-0.497 0.553,-0.521C0.553,-0.554 0.541,-0.582 0.516,-0.604C0.492,-0.626 0.453,-0.637 0.4,-0.637L0.173,-0.637L0.173,-0.4Z" style="fill-rule:nonzero;"/>
                </g>
            </g>
            <g transform="matrix(1,0,0,1.00977,-0.209715,-16.0716)">
                <ellipse cx="1050.44" cy="1644.4" rx="9.577" ry="9.507" style="fill:rgb(136,136,136);"/>
            </g>
        </g>
    </g>
</svg>
