<?xml version="1.0" encoding="UTF-8" standalone="no"?>
<svg
   width="338.77921"
   height="546.42981"
   viewBox="0 0 677.55841 1092.8596"
   version="1.1"
   id="svg18"
   sodipodi:docname="zyxel-wsm20.svg"
   inkscape:export-filename="zyxel-wsm20.png"
   inkscape:export-xdpi="100"
   inkscape:export-ydpi="100"
   inkscape:version="1.4.3 (0d15f75042, 2025-12-25)"
   xmlns:inkscape="http://www.inkscape.org/namespaces/inkscape"
   xmlns:sodipodi="http://sodipodi.sourceforge.net/DTD/sodipodi-0.dtd"
   xmlns="http://www.w3.org/2000/svg"
   xmlns:svg="http://www.w3.org/2000/svg"
   xmlns:rdf="http://www.w3.org/1999/02/22-rdf-syntax-ns#"
   xmlns:cc="http://creativecommons.org/ns#"
   xmlns:dc="http://purl.org/dc/elements/1.1/"
   xmlns:ns="https://creativecommons.org/licenses/by-nc-sa/4.0/">
  <title
     id="title1">Zyxel WSM20</title>
  <defs
     id="defs18" />
  <sodipodi:namedview
     id="namedview18"
     pagecolor="#ffffff"
     bordercolor="#000000"
     borderopacity="1"
     inkscape:showpageshadow="false"
     inkscape:pageopacity="0"
     inkscape:pagecheckerboard="true"
     inkscape:deskcolor="#797979"
     showgrid="false"
     inkscape:export-bgcolor="#ffffff00"
     inkscape:zoom="1.1449124"
     inkscape:cx="264.64906"
     inkscape:cy="297.83937"
     inkscape:current-layer="svg18"
     labelstyle="default"
     inkscape:window-width="1920"
     inkscape:window-height="1014"
     inkscape:window-x="0"
     inkscape:window-y="0"
     inkscape:window-maximized="1">
    <inkscape:page
       x="2.6630822e-08"
       y="3.3275094e-07"
       width="677.55841"
       height="1092.8596"
       id="page2"
       margin="0"
       bleed="0" />
  </sodipodi:namedview>
  <path
     fill="#e5e5e4"
     d="m 45.254562,948.80114 c -13,-4.8 -22.6,-10.5 -30,-22.6 -17.8399996,-28.9 -15.13999962,-68.8 -15.06999962,-101.2 0.1,-27.2 0.25,-54.3 0.59,-81.5 1.78000002,-131.3 8.48000002,-262.5 20.17999962,-393.3 2.9,-34.4 6.1,-68.9 9.6,-103.3 6.8,-68 13,-137 76.449998,-177.700001 15.2,-9.84 34.6,-16.2 51.9,-20.94 31,-8.47 63,-14.82 94.5,-20.5 50.4,-9.16 101.1,-16.41 152,-21.7200003 35.2,-3.85 83.5,-9.28 118.6,-3.55 22.4,3.65 34.5,17.7600003 46.2,35.8400003 5.5,8.24 10.3,16.52 15.3,25.13 5.3,-0.91 12.7,-1.13 18.1,-1.41 17.3,-0.9 34.2,-1.21 49.1,9.05 13.1,9.1 20.7,24.2 22.9,39.800001 4.8,33.8 -0.3,73.4 -4,107.2 -2.2,22.6 -4.6,45.1 -7.1,67.6 -10.4,95.4 -22.4,190.6 -35.9,285.6 -10,71 -17.5,143 -33.7,212.9 -10.7,46 -44,95.2 -88.1,115 5.3,4.4 19.4,16 23.6,21.2 5.4,6 9.7,10.9 14.6,17.3 4.1,7.2 4.5,10.3 3.9,18.8 -1.1,9.1 -4.1,16.5 -12,21.5 -33.1,22.99996 -72.7,35.99996 -109.7,50.99996 -35.5,14 -71.6,27 -107.8,39 -34.9,11 -81.5,29 -118,24 -11,-2 -21.8,-5 -31.8,-10 -33.3,-17 -92.599998,-63 -116.049998,-92.99996 -9.6,-13 -10.6,-25.2 -8.3,-40.2 z"
     id="path1" />
  <path
     fill="#d7d6d6"
     d="m 45.254562,948.80114 c -13,-4.8 -22.6,-10.5 -30,-22.6 -17.8399996,-28.9 -15.13999962,-68.8 -15.06999962,-101.2 0.1,-27.2 0.25,-54.3 0.59,-81.5 1.78000002,-131.3 8.48000002,-262.5 20.17999962,-393.3 2.9,-34.4 6.1,-68.9 9.6,-103.3 6.8,-68 13,-137 76.449998,-177.700001 15.2,-9.84 34.6,-16.2 51.9,-20.94 31,-8.47 63,-14.82 94.5,-20.5 50.4,-9.16 101.1,-16.41 152,-21.7200003 35.2,-3.85 83.5,-9.28 118.6,-3.55 22.4,3.65 34.5,17.7600003 46.2,35.8400003 -2.4,0.56 -7.7,1.44 -10,1.35 -13.4,2.07 -27.6,3.29 -41.2,4.83 -22.8,2.58 -45.6,5.48 -68.3,8.69 -39.5,6.04 -78.8,13.2 -117.9,21.5 -11.7,2.5 -23.2,5.7 -34.9,8.3 -32,7.3 -64,12.5 -93.3,28.000001 -18.9,10 -28.3,20.2 -41.7,35.9 -15.6,20.8 -21.1,34 -28.8,58.7 -6.6,24.2 -9.4,54.2 -12,79.4 -3.3,31.5 -6.5,63 -9.4,94.6 -13.399998,145.4 -22.199998,291.2 -26.399998,437.2 -0.7,35.1 -1.1,70.2 -1.1,105.3 0.1,13 0.9,26.5 0.9,39.2 0.4,6.7 1.7,11.7 4,17.7 8.6,18 14.099998,29.99996 34.699998,36.99996 14.8,6 33.6,4 48.6,1 7,-1 18.4,-5 25.3,-7 l 32,-9 c 71,-20.99996 140.8,-45.59996 209.3,-73.59996 21.3,-8.6 46.1,-18.6 66.8,-28.2 5.3,4.4 19.4,16 23.6,21.2 5.4,6 9.7,10.9 14.6,17.3 4.1,7.2 4.5,10.3 3.9,18.8 -1.1,9.1 -4.1,16.5 -12,21.5 -33.1,22.99996 -72.7,35.99996 -109.7,50.99996 -35.5,14 -71.6,27 -107.8,39 -34.9,11 -81.5,29 -118,24 -11,-2 -21.8,-5 -31.8,-10 -33.3,-17 -92.599998,-63 -116.049998,-92.99996 -9.6,-13 -10.6,-25.2 -8.3,-40.2 z"
     id="path2" />
  <path
     fill="#e5e5e4"
     d="m 45.254562,948.80114 c -13,-4.8 -22.6,-10.5 -30,-22.6 -17.8399996,-28.9 -15.13999962,-68.8 -15.06999962,-101.2 0.1,-27.2 0.25,-54.3 0.59,-81.5 1.78000002,-131.3 8.48000002,-262.5 20.17999962,-393.3 2.9,-34.4 6.1,-68.9 9.6,-103.3 6.8,-68 13,-137 76.449998,-177.700001 15.2,-9.84 34.6,-16.2 51.9,-20.94 31,-8.47 63,-14.82 94.5,-20.5 50.4,-9.16 101.1,-16.41 152,-21.7200003 35.2,-3.85 83.5,-9.28 118.6,-3.55 22.4,3.65 34.5,17.7600003 46.2,35.8400003 -2.4,0.56 -7.7,1.44 -10,1.35 -17.2,-26.33 -52.8,-24.02 -80.2,-22.66 -61.8,3.05 -123.3,11.66 -184.3,21.7 -34,5.49 -67.9,12.15 -101.5,19.97 -26.8,6.29 -54.2,11.81 -77.7,26.71 C 58.754562,122.30114 55.354562,190.50114 49.154562,251.90114 c -3.2,30.2 -6.2,60.4 -9,90.6 -12.9,138.3 -20,277.1 -21.3,416 -0.3,26 -0.3,52 0,78.1 0,17.1 -0.5,35.5 1.4,52.4 1.3,11.4 4.4,23.4 10.7,33 10,15.1 22.6,18.3 37.2,26.5 4.85,2.6 13.05,9.4 18.05,12.8 0.4,6.7 1.7,11.7 4,17.7 8.5,18 13.999998,29.99996 34.599998,36.99996 14.8,6 33.6,4 48.6,1 7,-1 18.4,-5 25.3,-7 l 32,-9 c 71,-20.99996 140.8,-45.59996 209.3,-73.59996 21.3,-8.6 46.1,-18.6 66.8,-28.2 5.3,4.4 19.4,16 23.6,21.2 5.4,6 9.7,10.9 14.6,17.3 4.1,7.2 4.5,10.3 3.9,18.8 -1.1,9.1 -4.1,16.5 -12,21.5 -33.1,22.99996 -72.7,35.99996 -109.7,50.99996 -35.5,14 -71.6,27 -107.8,39 -34.9,11 -81.5,29 -118,24 -11,-2 -21.8,-5 -31.8,-10 -33.3,-17 -92.599998,-63 -116.049998,-92.99996 -9.6,-13 -10.6,-25.2 -8.3,-40.2 z"
     id="path3" />
  <path
     fill="#fefefe"
     d="m 183.70456,1075.0011 c 10.1,-8 20.7,-15 31.8,-21 44.5,-25 105.5,-48 153.3,-64.99996 53.6,-20 119.9,-44.2 176.2,-51.3 4.1,7.2 4.5,10.3 3.9,18.8 -2.4,1.2 -7.2,9 -12.8,12.5 -13.5,10 -30.3,18 -45.3,25 -33.6,14.99996 -68.4,27.99996 -102.8,40.99996 -29.6,11 -59.6,21 -89.9,31 -37.2,11 -76.2,23 -114.4,9 z"
     id="path4" />
  <path
     fill="#d7d6d6"
     d="m 173.40456,1017.0011 c 7,-1 18.4,-5 25.3,-7 l 32,-9 c 71,-20.99996 140.8,-45.59996 209.3,-73.59996 21.3,-8.6 46.1,-18.6 66.8,-28.2 5.3,4.4 19.4,16 23.6,21.2 -29.8,10.8 -62.5,20.2 -92.7,30.5 -42.8,15 -85.2,31.1 -127.4,47.1 -42.8,16.99996 -86.2,32.99996 -126.3,54.99996 -6.5,4 -13.1,7 -19.6,11 -16.8,-10 -35.8,-27 -51.1,-39 -13.599998,-11 -27.999998,-22 -41.099998,-32.99996 5.5,-5 12.1,-10 17.9,-13 8.6,18 14.099998,29.99996 34.699998,36.99996 14.8,6 33.6,4 48.6,1 z"
     id="path5" />
  <path
     fill="#e5e5e4"
     d="m 62.654562,943.40114 c -39.6,-13.4 -42.8,-54.4 -42.4,-89.7 0.2,-10.2 -0.1,-20.7 -0.2,-30.9 -0.3,-35.8 -0.1,-71.7 0.7,-107.5 2.9,-128.1 10.3,-256.2 22.3,-383.8 2.8,-28.7 5.7,-57.4 8.8,-86 4.8,-45.8 8.1,-97.4 38.95,-134.2 11.499998,-13.800001 25.999998,-24.900001 42.299998,-32.300001 19.8,-8.9 53.9,-16.36 75.7,-21.18 76.6,-16.78 154.1,-28.85 232.2,-36.13 24.7,-2.19 51.9,-4.71 76.7,-2.7 13,1.05 23.9,6.03 33.9,14.39 -7.1,-0.85 -11.7,-3.23 -18.4,-5.14 -14.7,-4.23 -31.4,-2.92 -46.6,-2.13 -26.2,1.37 -52.6,3.93 -78.7,7.04 -58.5,6.71 -116.7,16.15 -174.4,28.29 -30.1,6.16 -66.4,13.36 -94.8,24.96 -14.5,5.8 -28.2,18.300001 -39.099998,29.100001 18.199998,8.6 46.899998,21.2 63.299998,31.4 -15.6,20.8 -21.1,34 -28.8,58.7 -3,-4.2 -53.999998,-30 -62.649998,-34.7 -4.8,18.5 -7.9,48.4 -9.8,67.3 l -7.8,77.9 c -18.1,181.1 -26.2,363.1 -24.4,545.1 0.2,21.5 2,48.9 16.2,66.1 4.9,6 11.3,10.5 17,16.1 z"
     id="path6" />
  <path
     fill="#26ed40"
     d="m 81.704562,335.60114 c 4.1,0.7 7.5,3.2 7.8,7.5 0.5,14.5 -2.3,31.6 -3.7,46.1 -2.3,25 -4.3,49.9 -6.3,74.8 -4.8,61.8 -8.55,123.7 -11.35,185.6 l -2.7,60.2 c -0.3,7.7 0.5,27.4 -3.2,33.1 -5,-2.7 -7.9,-5.4 -8.2,-11.6 -0.3,-9.1 0.2,-18.3 0.6,-27.4 l 2,-50 c 2.8,-69.9 7,-139.7 12.6,-209.4 1.8,-23.6 3.75,-47.1 6.05,-70.6 1,-11.1 1.7,-22.9 3.6,-33.9 0.2,-1.5 1.8,-3.2 2.8,-4.4 z"
     id="path7" />
  <path
     fill="#b9b8b9"
     d="m 45.254562,814.20114 c 7.7,1 26.7,16.6 28.45,24.5 2,9.1 3.3,32 -0.7,40.1 -0.5,-0.1 -1.05,-0.3 -1.45,-0.5 -8.7,-3.8 -24.9,-15.9 -27.6,-25 -2.9,-9.8 -3,-29.6 1.3,-39.1 z"
     id="path8" />
  <path
     fill="#d7d6d6"
     d="m 45.654562,816.50114 c 9.1,1 26,16.4 27.35,25.7 1,8 3,27.5 -1.05,34.1 -1.3,-0.3 -2.5,-0.8 -3.7,-1.3 -6.5,-3 -22.3,-16.2 -23.5,-22.5 -1.6,-8.8 -2.8,-27.9 0.9,-36 z"
     id="path9" />
  <path
     fill="#b9b8b9"
     d="m 57.654562,832.70114 c 5.7,3.3 12.2,22.5 6.6,26.4 -11.3,7.9 -12.9,-16.6 -12.8,-21.2 l 1.1,-1 c 1.7,0.5 0.3,16.9 4.4,19.9 2.7,1.9 4.6,3.4 7.6,0.4 2.2,-6.1 -1.8,-18.8 -8.5,-21.2 l -0.3,-0.8 z"
     id="path10" />
  <path
     fill="#fefefe"
     d="m 570.20456,38.331139 c 5.5,8.24 10.3,16.52 15.3,25.13 l -0.1,0.51 c -32.9,3.63 -62.5,5.73 -95.9,10.43 -60.8,8.9 -121.2,20.6 -181,35.000001 -46.9,11 -80.3,13.1 -112.3,52.9 -15,18.8 -25.7,40.8 -31.3,64.3 -4.4,17.9 -6.6,39.5 -8.9,58.1 -3.7,29.2 -7.2,58.5 -10.3,87.7 -16,147.9 -25.6,296.3 -28.7,445 -0.7,27 -1.2,54 -1.5,81 -0.6,39.9 -8,116.59996 52.2,117.59996 1.5,0 5.2,-1 5.7,1 -15,3 -33.8,5 -48.6,-1 -20.6,-7 -26.099998,-18.99996 -34.699998,-36.99996 -2.3,-6 -3.6,-11 -4,-17.7 0,-12.7 -0.8,-26.2 -0.9,-39.2 0,-35.1 0.4,-70.2 1.1,-105.3 4.2,-146 13,-291.8 26.399998,-437.2 2.9,-31.6 6.1,-63.1 9.4,-94.6 2.6,-25.2 5.4,-55.2 12,-79.4 7.7,-24.7 13.2,-37.9 28.8,-58.7 13.4,-15.7 22.8,-25.9 41.7,-35.9 29.3,-15.500001 61.3,-20.700001 93.3,-28.000001 11.7,-2.6 23.2,-5.8 34.9,-8.3 39.1,-8.3 78.4,-15.46 117.9,-21.5 22.7,-3.21 45.5,-6.11 68.3,-8.69 13.6,-1.54 27.8,-2.76 41.2,-4.83 2.3,0.1 7.6,-0.79 10,-1.35 z"
     id="path11" />
  <metadata
     id="metadata1">
    <rdf:RDF>
      <ns:License
         rdf:about="http://creativecommons.org/licenses/by-sa/4.0/">
        <ns:permits
           rdf:resource="http://creativecommons.org/ns#Reproduction" />
        <ns:permits
           rdf:resource="http://creativecommons.org/ns#Distribution" />
        <ns:requires
           rdf:resource="http://creativecommons.org/ns#Notice" />
        <ns:requires
           rdf:resource="http://creativecommons.org/ns#Attribution" />
        <ns:permits
           rdf:resource="http://creativecommons.org/ns#DerivativeWorks" />
        <ns:requires
           rdf:resource="http://creativecommons.org/ns#ShareAlike" />
      </ns:License>
      <ns:Work
         rdf:about="">
        <ns:license
           rdf:resource="http://creativecommons.org/licenses/by-sa/4.0/" />
        <dc:creator>
          <ns:Agent>
            <dc:title>Psi</dc:title>
          </ns:Agent>
        </dc:creator>
        <dc:title>Zyxel WSM20</dc:title>
      </ns:Work>
      <cc:Work
         rdf:about="">
        <cc:license
           rdf:resource="http://creativecommons.org/licenses/by-sa/4.0/" />
        <dc:title>Zyxel WSM20</dc:title>
        <dc:creator>
          <cc:Agent>
            <dc:title>Psi</dc:title>
          </cc:Agent>
        </dc:creator>
        <dc:rights>
          <cc:Agent>
            <dc:title> CC BY-NC-SA 4.0</dc:title>
          </cc:Agent>
        </dc:rights>
      </cc:Work>
      <cc:License
         rdf:about="http://creativecommons.org/licenses/by-sa/4.0/">
        <cc:permits
           rdf:resource="http://creativecommons.org/ns#Reproduction" />
        <cc:permits
           rdf:resource="http://creativecommons.org/ns#Distribution" />
        <cc:requires
           rdf:resource="http://creativecommons.org/ns#Notice" />
        <cc:requires
           rdf:resource="http://creativecommons.org/ns#Attribution" />
        <cc:permits
           rdf:resource="http://creativecommons.org/ns#DerivativeWorks" />
        <cc:requires
           rdf:resource="http://creativecommons.org/ns#ShareAlike" />
      </cc:License>
    </rdf:RDF>
  </metadata>
</svg>
