<?xml version="1.0" encoding="UTF-8"?>
<svg version="1.1" viewBox="0 0 514 514" xmlns="http://www.w3.org/2000/svg" xmlns:cc="http://creativecommons.org/ns#" xmlns:dc="http://purl.org/dc/elements/1.1/" xmlns:rdf="http://www.w3.org/1999/02/22-rdf-syntax-ns#">
 <metadata>
  <rdf:RDF>
   <cc:Work rdf:about="">
    <dc:format>image/svg+xml</dc:format>
    <dc:type rdf:resource="http://purl.org/dc/dcmitype/StillImage"/>
    <dc:title/>
    <cc:license rdf:resource="http://creativecommons.org/licenses/by-nc-sa/4.0/"/>
    <dc:creator>
     <cc:Agent>
      <dc:title>Jan Alexander</dc:title>
     </cc:Agent>
    </dc:creator>
   </cc:Work>
   <cc:License rdf:about="http://creativecommons.org/licenses/by-nc-sa/4.0/">
    <cc:permits rdf:resource="http://creativecommons.org/ns#Reproduction"/>
    <cc:permits rdf:resource="http://creativecommons.org/ns#Distribution"/>
    <cc:requires rdf:resource="http://creativecommons.org/ns#Notice"/>
    <cc:requires rdf:resource="http://creativecommons.org/ns#Attribution"/>
    <cc:prohibits rdf:resource="http://creativecommons.org/ns#CommercialUse"/>
    <cc:permits rdf:resource="http://creativecommons.org/ns#DerivativeWorks"/>
    <cc:requires rdf:resource="http://creativecommons.org/ns#ShareAlike"/>
   </cc:License>
  </rdf:RDF>
 </metadata>
 <g fill="#333" stroke="#666">
  <ellipse cx="34.288" cy="168.93" rx="5.7603" ry="7.3961"/>
  <ellipse cx="34.225" cy="336.11" rx="5.7603" ry="7.3961"/>
  <rect x="30.83" y="82.016" width="448.31" height="303.18" ry="17.984"/>
 </g>
 <path d="m235.07 82.428c0.10771 2.2699 0.37081 1.1944 1.2724 3.2416 8.6017 19.531 16.799 37.826 24.765 57.633 7.5758 18.682 14.396 38.097 15.295 58.406 0.61544 11.111-3.5077 22.934-12.87 29.48-8.5434 6.2721-19.623 7.5341-29.85 9.0755-22.867 1.0221-45.81-0.36644-68.387-4.1527-42.011-6.258-83.566-15.164-125.05-24.208-1.8342-0.42369-3.6684-0.84738-5.5026-1.2711-1.3049-0.30141-2.0501-0.95156-3.4099-0.96147" fill="none" stroke="#c6cb8e" stroke-width="4"/>
 <circle cx="72.77" cy="119.41" r="14" fill="none" stroke="#0d0d0d" stroke-width="2"/>
 <g fill="#333" stroke="#666">
  <rect x="479.14" y="162" width="2.6644" height="8.8292"/>
  <rect x="479.14" y="266.42" width="2.6644" height="8.8292"/>
  <rect x="111.75" y="385.2" width="286.47" height="41.487"/>
 </g>
</svg>
